<svg width="38" height="38" viewBox="0 0 38 38" fill="none" xmlns="http://www.w3.org/2000/svg">
<path d="M24.9805 17.5216C23.324 22.1112 22.0541 24.8541 21.1731 25.7489C20.4011 26.5312 19.3487 26.9805 18.2443 26.9994C17.1399 27.0183 16.0724 26.6053 15.2736 25.8499C14.8799 25.4777 14.5647 25.0318 14.3462 24.5382C14.1277 24.0445 14.0102 23.5128 14.0006 22.9739C13.991 22.435 14.0895 21.8996 14.2903 21.3986C14.4911 20.8976 14.7902 20.441 15.1704 20.0553C16.0514 19.1604 18.7977 17.8187 23.4093 16.0313L24.2903 18.2239C20.0016 19.8865 17.5362 21.0428 16.8964 21.6941C16.735 21.8579 16.6081 22.0517 16.5229 22.2644C16.4377 22.4771 16.3959 22.7045 16.4001 22.9333C16.4042 23.162 16.4541 23.3877 16.5469 23.5973C16.6398 23.8069 16.7736 23.9961 16.9408 24.1541C17.2801 24.475 17.7336 24.6505 18.2028 24.6425C18.672 24.6345 19.1191 24.4436 19.4471 24.1113C20.0856 23.4612 21.1767 21.0012 22.7179 16.7337L24.9805 17.5216ZM24.9805 17.5216L23.8498 17.127L23.4093 16.0313C24.5844 15.8649 25.1077 16.3617 24.9817 17.5216H24.9805Z" fill="white"/>
<path d="M28.6971 31.0226C31.3749 28.3125 32.7143 25.039 32.7143 21.2043C32.7143 13.5338 26.5737 7.31574 19 7.31574C11.4263 7.31574 5.28571 13.5326 5.28571 21.2043C5.28571 25.039 6.62514 28.3125 9.30286 31.0249C9.4088 31.1319 9.49291 31.2592 9.55031 31.3996C9.60771 31.54 9.63726 31.6906 9.63726 31.8427C9.63726 31.9948 9.60771 32.1454 9.55031 32.2858C9.49291 32.4262 9.4088 32.5535 9.30286 32.6605C9.08821 32.8785 8.79761 33.0005 8.49486 33C8.19506 33.0009 7.90693 32.8815 7.69257 32.6675L7.69143 32.6663L7.68686 32.6605C4.56229 29.4966 3 25.6771 3 21.2043C3 12.2552 10.1634 5 19 5C27.8366 5 35 12.254 35 21.2032C35 25.6771 33.4377 29.4966 30.3143 32.6593C30.2079 32.7674 30.0816 32.853 29.9428 32.9112C29.804 32.9695 29.6552 32.9993 29.5051 32.9988C29.2026 32.9997 28.912 32.878 28.6971 32.6605C28.5907 32.5536 28.5062 32.4261 28.4485 32.2855C28.3908 32.1449 28.3611 31.994 28.3611 31.8415C28.3611 31.6891 28.3908 31.5382 28.4485 31.3976C28.5062 31.257 28.5907 31.1295 28.6971 31.0226Z" fill="white"/>
<path d="M20.2207 7.16088V10.0327C20.2213 10.2248 20.1719 10.414 20.0773 10.5826C19.9826 10.7512 19.8457 10.8939 19.6792 10.9974C19.5114 11.1044 19.3192 11.17 19.1194 11.1886C18.9196 11.2071 18.7182 11.178 18.5325 11.1038C18.3113 11.0162 18.1211 10.8679 17.9851 10.677C17.8518 10.4872 17.7805 10.2626 17.7805 10.0327V7.15971C17.7798 7.00678 17.811 6.8553 17.8723 6.71442C17.9335 6.57354 18.0234 6.44617 18.1367 6.34001C18.3081 6.17597 18.5259 6.06525 18.7624 6.02195C18.9587 5.98509 19.1612 5.99476 19.3529 6.05012C19.5445 6.10549 19.7196 6.20492 19.8633 6.34001C20.0322 6.50177 20.1482 6.70843 20.1966 6.93403C20.2123 7.00886 20.2207 7.0837 20.2207 7.15971V7.16088ZM30.8078 13.1923L28.5061 14.9883C28.2979 15.1532 28.032 15.2526 27.742 15.2526C27.0778 15.2526 26.5388 14.7334 26.5388 14.0938C26.5388 13.7255 26.7157 13.3969 26.9924 13.1852L29.293 11.3892C29.5082 11.2181 29.7778 11.1247 30.0558 11.1249C30.2046 11.0118 30.3789 10.9348 30.5644 10.9002C30.7499 10.8656 30.9412 10.8744 31.1225 10.9258C31.3038 10.9773 31.4699 11.07 31.607 11.1962C31.7442 11.3223 31.8484 11.4785 31.9112 11.6516C31.974 11.8247 31.9934 12.0098 31.968 12.1917C31.9425 12.3736 31.8729 12.5469 31.7649 12.6975C31.6568 12.848 31.5135 12.9714 31.3466 13.0575C31.1798 13.1435 30.9943 13.1897 30.8054 13.1923H30.8078ZM32.5008 24.9627L29.6467 24.3278C29.3777 24.2741 29.1359 24.132 28.9619 23.9254C28.7879 23.7189 28.6924 23.4604 28.6914 23.1935C28.6916 23.0158 28.7336 22.8404 28.8143 22.6809C28.895 22.5214 29.0122 22.382 29.1569 22.2733C29.3016 22.1646 29.47 22.0896 29.6492 22.0539C29.8284 22.0182 30.0136 22.0228 30.1906 22.0675L33.0446 22.7036C33.3137 22.7573 33.5555 22.8993 33.7295 23.1059C33.9035 23.3124 33.999 23.5709 34 23.8378V23.839C33.9994 24.0165 33.9571 24.1916 33.8762 24.3508C33.7954 24.51 33.6782 24.6491 33.5335 24.7576C33.3888 24.866 33.2206 24.9408 33.0416 24.9764C32.8626 25.012 32.6776 25.0073 32.5008 24.9627ZM4 23.839V23.8425C4.00112 24.0197 4.04385 24.1944 4.12494 24.3532C4.20603 24.5119 4.32334 24.6506 4.46793 24.7586C4.61251 24.8667 4.78057 24.9412 4.95929 24.9766C5.13801 25.0119 5.32267 25.0072 5.49922 24.9627L8.35327 24.3278C8.62254 24.2743 8.86464 24.1323 9.03885 23.9258C9.21307 23.7192 9.30876 23.4606 9.30983 23.1935V23.1923C9.30944 23.0147 9.26725 22.8395 9.18647 22.6802C9.1057 22.5208 8.98848 22.3815 8.8438 22.273C8.69911 22.1644 8.53079 22.0894 8.35171 22.0538C8.17264 22.0182 7.98755 22.0229 7.81061 22.0675L4.95656 22.7036C4.68729 22.757 4.44519 22.899 4.27098 23.1056C4.09676 23.3121 4.00107 23.5707 4 23.8378V23.839ZM7.94176 11.1249H7.93695C7.61994 11.1249 7.31585 11.247 7.09124 11.4644C6.86664 11.6818 6.73981 11.9768 6.73854 12.2849V12.2884C6.73889 12.4627 6.77989 12.6347 6.85845 12.7915C6.93702 12.9483 7.05111 13.0857 7.19215 13.1934L9.49272 14.9883C9.72179 15.1717 10.0125 15.2663 10.309 15.254C10.6055 15.2417 10.8869 15.1234 11.099 14.9217L11.1159 14.9042C11.2339 14.7888 11.3255 14.6504 11.3846 14.4982C11.4436 14.3459 11.4688 14.1832 11.4584 14.0208C11.4481 13.8584 11.4025 13.7 11.3245 13.5559C11.2466 13.4119 11.1382 13.2856 11.0064 13.1852L8.70581 11.3892C8.49027 11.2178 8.22024 11.1244 7.94176 11.1249Z" fill="white"/>
</svg>
