<svg width="34" height="34" viewBox="0 0 34 34" fill="none" xmlns="http://www.w3.org/2000/svg">
<g clip-path="url(#clip0_514_3379)">
<path d="M24.949 11.9922H8.93727C7.7608 11.9922 6.99609 12.7278 6.99609 13.8855V20.9644C6.99609 21.3985 7.10198 21.8085 7.37256 22.1462C7.78433 22.6647 8.34903 22.8577 9.00786 22.8577H24.949C25.8667 22.8577 26.6079 22.0979 26.6079 21.1573V19.469H27.8314C27.8777 19.469 27.9236 19.4596 27.9665 19.4415C28.0093 19.4233 28.0482 19.3966 28.081 19.363C28.1137 19.3294 28.1397 19.2896 28.1575 19.2457C28.1752 19.2018 28.1843 19.1547 28.1843 19.1072V15.6703C28.1843 15.5743 28.1471 15.4823 28.081 15.4145C28.0148 15.3466 27.925 15.3085 27.8314 15.3085H26.6079V13.7046C26.6079 12.764 25.8667 12.0042 24.949 12.0042V11.9922ZM10.7843 21.0126H8.74904V13.789H10.7843V21.0126ZM14.3137 21.0126H12.2784V13.789H14.3137V21.0126ZM17.8432 21.0126H15.8079V13.789H17.8432V21.0126ZM30.6549 22.9059C30.102 22.9059 29.6432 23.3762 29.6432 23.9551C29.6432 24.5219 30.0902 24.9922 30.6549 24.9922C31.2196 24.9922 31.6667 24.5219 31.6784 23.943C31.6784 23.3762 31.2314 22.9059 30.6784 22.9059H30.6549ZM31.9843 18.0098C32.5373 18.0098 32.9961 17.5395 32.9961 16.9727C32.9961 16.4059 32.5373 15.9356 31.9843 15.9356C31.4314 15.9356 30.9726 16.4059 30.9726 16.9727C30.9726 17.5395 31.4314 18.0098 31.9843 18.0098ZM31.749 19.4931C31.1961 19.4931 30.7373 19.9634 30.7373 20.5302C30.7373 21.097 31.1961 21.5673 31.749 21.5673C32.302 21.5673 32.7608 21.097 32.7608 20.5302C32.7608 19.9634 32.302 19.4931 31.749 19.4931Z" fill="white"/>
<path d="M28.6242 26.6162C28.5215 26.5295 28.403 26.4648 28.2756 26.4259C28.1482 26.387 28.0145 26.3748 27.8825 26.3898C27.6275 26.4137 27.3957 26.5447 27.2335 26.7592C24.6144 30.0599 20.7553 31.9546 16.6412 31.9546C9.13154 31.9546 3.01257 25.6749 3.01257 17.9415C3.01257 10.208 9.11995 3.90453 16.6412 3.90453C18.0203 3.90453 19.4109 4.13093 20.7668 4.57182L21.0913 4.67907L19.6659 6.91926C19.5732 7.06225 19.5616 7.2529 19.6427 7.40781C19.7238 7.56271 19.8745 7.65804 20.0483 7.65804H27.164C27.3262 7.65804 27.4653 7.57463 27.5464 7.44356C27.6275 7.31248 27.6507 7.14566 27.5812 6.99075L24.7303 0.282098C24.6976 0.203378 24.6447 0.135229 24.5774 0.0848799C24.5101 0.0345305 24.4307 0.00385808 24.3478 -0.00388398C24.2638 -0.0154687 24.1782 -0.00129813 24.102 0.036854C24.0257 0.075006 23.9621 0.135444 23.919 0.210602L22.1923 2.91551L21.9953 2.84402C20.2569 2.18864 18.4491 1.84308 16.618 1.84308C8.00741 1.84308 0.996094 9.06412 0.996094 17.9296C0.996094 26.795 8.00741 33.9922 16.618 33.9922C21.3579 33.9922 25.7733 31.8235 28.7516 28.0462C28.9255 27.8317 29.0066 27.5814 28.995 27.3074C28.9814 27.1708 28.9416 27.0384 28.8779 26.9177C28.8143 26.7971 28.728 26.6906 28.6242 26.6043V26.6162Z" fill="white"/>
</g>
<defs>
<clipPath id="clip0_514_3379">
<rect width="34" height="34" fill="white"/>
</clipPath>
</defs>
</svg>
