<svg width="40" height="40" viewBox="0 0 40 40" fill="none" xmlns="http://www.w3.org/2000/svg">
<path d="M4.33203 37.3363V24.6189C4.33203 24.2507 4.63051 23.9565 4.9987 23.9565H8.99717C9.26931 23.9565 9.48993 23.7359 9.48993 23.4638V22.8421C9.48993 21.8247 10.3147 21 11.332 21C12.3494 21 13.1741 21.8247 13.1741 22.8421V23.4638C13.1741 23.7359 13.3947 23.9565 13.6669 23.9565H17.6654C18.0336 23.9565 18.332 24.255 18.332 24.6232V27.9001C18.332 28.1714 18.1121 28.3913 17.8408 28.3913H17.6021C16.3774 28.3913 15.3847 29.3841 15.3847 30.6087C15.3847 31.8333 16.3774 32.8261 17.6021 32.8261H17.8408C18.1121 32.8261 18.332 33.046 18.332 33.3173V37.3333C18.332 37.7015 18.0336 38 17.6654 38H4.9987C4.63051 38 4.33203 37.7045 4.33203 37.3363Z" stroke="white" stroke-width="1.33333"/>
<path d="M36.332 2.66374V15.3811C36.332 15.7493 36.0336 16.0435 35.6654 16.0435H31.6669C31.3947 16.0435 31.1741 16.2641 31.1741 16.5362V17.1579C31.1741 18.1753 30.3494 19 29.332 19C28.3147 19 27.4899 18.1753 27.4899 17.1579V16.5362C27.4899 16.2641 27.2693 16.0435 26.9972 16.0435H22.9987C22.6305 16.0435 22.332 15.745 22.332 15.3768V12.0999C22.332 11.8286 22.552 11.6087 22.8233 11.6087H23.062C24.2866 11.6087 25.2794 10.6159 25.2794 9.3913C25.2794 8.16667 24.2866 7.17391 23.062 7.17391H22.8233C22.552 7.17391 22.332 6.95398 22.332 6.68269V2.66667C22.332 2.29848 22.6305 2 22.9987 2H35.6654C36.0336 2 36.332 2.29555 36.332 2.66374Z" stroke="white" stroke-width="1.33333"/>
<path d="M4.33203 15.3333V2.66667C4.33203 2.29848 4.63051 2 4.9987 2H17.6654C18.0336 2 18.332 2.29848 18.332 2.66667V15.3333C18.332 15.7015 18.0336 16 17.6654 16H4.9987C4.63051 16 4.33203 15.7015 4.33203 15.3333Z" stroke="white" stroke-width="1.33333"/>
<path d="M22.332 37.3333V24.6667C22.332 24.2985 22.6305 24 22.9987 24H35.6654C36.0336 24 36.332 24.2985 36.332 24.6667V37.3333C36.332 37.7015 36.0336 38 35.6654 38H22.9987C22.6305 38 22.332 37.7015 22.332 37.3333Z" stroke="white" stroke-width="1.33333"/>
</svg>
