<svg width="40" height="40" viewBox="0 0 40 40" fill="none" xmlns="http://www.w3.org/2000/svg">
<path d="M11.3496 20.3735V24.8776" stroke="white" stroke-width="1.33333" stroke-linecap="round" stroke-linejoin="round"/>
<path d="M17.3555 19.6263L17.3555 25.6318" stroke="white" stroke-width="1.33333" stroke-linecap="round" stroke-linejoin="round"/>
<path d="M23.3613 20.3735V24.8776" stroke="white" stroke-width="1.33333" stroke-linecap="round" stroke-linejoin="round"/>
<path d="M30.3988 18.5985L33.084 19.3536C33.548 19.4842 33.8691 19.9076 33.8691 20.391V24.1137H33.8709C33.8709 24.5971 33.5498 25.0205 33.0858 25.1511L30.3935 25.908C29.8483 26.0615 29.4037 26.4567 29.1867 26.9789L29.1779 27.0018C28.9609 27.5293 28.9962 28.1292 29.2749 28.6267L30.6387 31.0597C30.8751 31.4813 30.801 32.0089 30.4605 32.3494L27.8282 34.9817C27.486 35.324 26.9602 35.3963 26.5386 35.1599L24.1056 33.7961C23.6063 33.5156 23.0083 33.4803 22.4807 33.699L22.4649 33.7061C21.9373 33.9249 21.5404 34.373 21.3851 34.9217L20.63 37.6069C20.4995 38.071 20.076 38.3921 19.5926 38.3921H15.87C15.3866 38.3921 14.9632 38.071 14.8326 37.6069L14.0775 34.9217C13.9223 34.373 13.5253 33.9249 12.9978 33.7061L12.9819 33.699C12.4544 33.482 11.8545 33.5173 11.357 33.7961L8.9241 35.1599C8.50244 35.3963 7.97669 35.324 7.63442 34.9817L5.00213 32.3494C4.65986 32.0071 4.58753 31.4813 4.82394 31.0597L6.19125 28.6214C6.46824 28.1274 6.50352 27.5346 6.28652 27.0106L6.27769 26.9877C6.05893 26.4602 5.6108 26.0632 5.06211 25.908L2.3769 25.1528C1.91289 25.0223 1.5918 24.5989 1.5918 24.1154V20.3928C1.5918 19.9094 1.91289 19.486 2.3769 19.3554L5.06917 18.5985C5.61433 18.445 6.05893 18.0498 6.27593 17.5276L6.28475 17.5047C6.50176 16.9771 6.46647 16.3773 6.18772 15.8798L4.82394 13.4468C4.58753 13.0251 4.65986 12.4994 5.00213 12.1571L7.63442 9.5248C7.97669 9.18253 8.50244 9.11019 8.9241 9.34661L11.357 10.7104C11.8563 10.9892 12.4544 11.0244 12.9819 10.8057L12.9978 10.7986C13.5253 10.5798 13.9223 10.1317 14.0775 9.58302L14.8326 6.89778C14.9632 6.43377 15.3866 6.11267 15.87 6.11267H19.5926C20.076 6.11267 20.4995 6.43377 20.63 6.89778L21.3851 9.58302" stroke="white" stroke-width="1.33333" stroke-linecap="round" stroke-linejoin="round"/>
<path d="M14.3534 31.1423C10.6437 29.8902 7.97266 26.3818 7.97266 22.2495C7.97266 17.0671 12.1738 12.866 17.3561 12.866C19.3413 12.866 21.1824 13.4824 22.6986 14.5344M20.3588 31.1423C24.0685 29.8902 26.7396 26.3818 26.7396 22.2495C26.7396 20.3025 26.1466 18.494 25.1314 16.9947M17.3561 31.633C17.4818 31.633 17.6069 31.6306 17.7314 31.6257H16.9808C17.1053 31.6306 17.2304 31.633 17.3561 31.633Z" stroke="white" stroke-width="1.33333" stroke-linecap="round" stroke-linejoin="round"/>
<path d="M29.7418 18.1232C34.3023 18.1232 37.9992 14.4262 37.9992 9.86567C37.9992 5.30517 34.3023 1.60815 29.7418 1.60815C25.1814 1.60815 21.4844 5.30517 21.4844 9.86567C21.4844 11.5662 21.9984 13.1467 22.8796 14.4602L22.2351 17.3725L25.2378 16.7878C26.5331 17.6324 28.0801 18.1232 29.7418 18.1232Z" stroke="white" stroke-width="1.33333" stroke-linecap="round" stroke-linejoin="round"/>
<circle cx="0.75068" cy="0.75068" r="0.666667" transform="matrix(0.707103 -0.70711 0.707103 0.70711 28.6797 12.866)" fill="white" stroke="white" stroke-width="0.168026" stroke-linecap="round"/>
<path d="M31.8656 10.7443C30.693 9.57162 28.7918 9.57162 27.6191 10.7443" stroke="white" stroke-width="1.33333" stroke-linecap="round" stroke-linejoin="round"/>
<path d="M33.989 8.62244C31.6438 6.27716 27.8414 6.27716 25.4961 8.62244" stroke="white" stroke-width="1.33333" stroke-linecap="round" stroke-linejoin="round"/>
</svg>
