<svg width="120" height="120" viewBox="0 0 120 120" fill="none" xmlns="http://www.w3.org/2000/svg">
<path d="M86.6469 45.4884V34.9526C86.6469 33.8481 85.7514 32.9526 84.6469 32.9526H62.8899C62.3528 32.9526 61.8383 33.1686 61.4622 33.552L50.3243 44.905C49.9575 45.2789 49.752 45.7818 49.752 46.3056V53.8455" stroke="white" stroke-width="2.5" stroke-miterlimit="10" stroke-linecap="round"/>
<path d="M49.752 45.4884H60.0503C61.1548 45.4884 62.0503 44.5929 62.0503 43.4884V32.9526" stroke="white" stroke-width="2.5" stroke-miterlimit="10" stroke-linecap="round"/>
<path d="M58.3173 91.603H31.4082" stroke="white" stroke-width="2.5" stroke-miterlimit="10" stroke-linecap="round"/>
<path d="M41.5531 37.135H29.2051C28.1005 37.135 27.2051 38.0304 27.2051 39.135V87.4132C27.2051 89.7281 29.0396 91.6031 31.3045 91.6031C33.5694 91.6031 35.4039 89.7281 35.4039 87.4132V55.8944C35.4039 54.7899 36.2994 53.8944 37.4039 53.8944H63.2587C63.7967 53.8944 64.312 53.6777 64.6883 53.2931L71.7105 46.116C72.0868 45.7315 72.6021 45.5147 73.1401 45.5147H90.796C91.9006 45.5147 92.796 46.4101 92.796 47.5147V64.3691" stroke="white" stroke-width="2.5" stroke-miterlimit="10" stroke-linecap="round"/>
<path d="M78.5 32.8795V26.3689C78.5 25.2643 77.6046 24.3689 76.5 24.3689H43.5C42.3954 24.3689 41.5 25.2643 41.5 26.3689V54.1561" stroke="white" stroke-width="2.5" stroke-miterlimit="10" stroke-linecap="round"/>
<path d="M92.7946 78.9187V83.0972C92.7946 85.4059 90.9601 87.2758 88.6951 87.2758C86.4302 87.2758 84.5957 85.4059 84.5957 83.0972V70.5615" stroke="white" stroke-width="2.5" stroke-miterlimit="10" stroke-linecap="round"/>
<path d="M84.5966 93.5441C82.1984 94.8729 79.3903 95.6334 76.3977 95.6334C67.3421 95.6334 60 88.1496 60 78.9191C60 69.6887 67.3421 62.2048 76.3977 62.2048C85.4534 62.2048 92.7955 69.6887 92.7955 78.9191" stroke="white" stroke-width="2.5" stroke-miterlimit="10" stroke-linecap="round"/>
<path d="M76.3981 87.2761C71.8703 87.2761 68.1992 83.5341 68.1992 78.9189C68.1992 74.3037 71.8703 70.5618 76.3981 70.5618C80.9259 70.5618 84.597 74.3037 84.597 78.9189C84.597 83.5341 80.9259 87.2761 76.3981 87.2761Z" stroke="white" stroke-width="2.5" stroke-miterlimit="10" stroke-linecap="round"/>
</svg>
