<svg width="120" height="120" viewBox="0 0 120 120" fill="none" xmlns="http://www.w3.org/2000/svg">
<g clip-path="url(#clip0_190_38848)">
<path d="M53.7773 93.8V96.6653" stroke="white" stroke-width="2.5" stroke-linecap="round" stroke-linejoin="round"/>
<path d="M58.3062 84.8389C51.3707 86.2874 48.3613 89.0296 48.3613 95.5972V96.6654" stroke="white" stroke-width="2.5" stroke-linecap="round" stroke-linejoin="round"/>
<path d="M76.6383 96.6654V95.5972C76.6383 89.0296 73.627 86.2892 66.6934 84.8389" stroke="white" stroke-width="2.5" stroke-linecap="round" stroke-linejoin="round"/>
<path d="M71.2227 93.8V96.6653" stroke="white" stroke-width="2.5" stroke-linecap="round" stroke-linejoin="round"/>
<path d="M65.1726 81.5391C65.1726 83.133 66.6942 84.8368 66.6942 84.8368C64.487 87.3815 60.5158 87.3815 58.3066 84.8368C58.3066 84.8368 59.8282 83.0658 59.8282 81.5391" stroke="white" stroke-width="2.5" stroke-linecap="round" stroke-linejoin="round"/>
<path d="M69.2267 71.1854C68.759 67.4849 66.037 64.8303 62.4998 64.8303C58.9625 64.8303 56.2424 67.4849 55.7728 71.1854C54.9876 77.3857 59.3382 82.5775 62.4998 82.5775C65.6613 82.5775 70.012 77.3857 69.2267 71.1854Z" stroke="white" stroke-width="2.5" stroke-linecap="round" stroke-linejoin="round"/>
<path d="M80.4498 80.3572C78.1993 80.827 76.3621 81.4347 74.9062 82.2624" stroke="white" stroke-width="2.5" stroke-linecap="round" stroke-linejoin="round"/>
<path d="M98.7828 96.6652V91.1155C98.7828 84.5479 95.7715 81.8075 88.8379 80.3572" stroke="white" stroke-width="2.5" stroke-linecap="round" stroke-linejoin="round"/>
<path d="M93.3672 90.3064V96.6652" stroke="white" stroke-width="2.5" stroke-linecap="round" stroke-linejoin="round"/>
<path d="M87.3152 77.0596C87.3152 78.6535 88.8368 80.3573 88.8368 80.3573C86.6296 82.902 82.6584 82.902 80.4492 80.3573C80.4492 80.3573 81.9708 78.5864 81.9708 77.0596" stroke="white" stroke-width="2.5" stroke-linecap="round" stroke-linejoin="round"/>
<path d="M91.3693 66.7039C90.9016 63.0035 88.1796 60.3489 84.6423 60.3489C81.1051 60.3489 78.385 63.0035 77.9154 66.7039C77.1301 72.9043 81.4808 78.0961 84.6423 78.0961C87.8039 78.0961 92.1545 72.9043 91.3693 66.7039Z" stroke="white" stroke-width="2.5" stroke-linecap="round" stroke-linejoin="round"/>
<path d="M44.5488 80.3572C46.7993 80.827 48.6365 81.4347 50.0923 82.2624" stroke="white" stroke-width="2.5" stroke-linecap="round" stroke-linejoin="round"/>
<path d="M26.2168 96.6652V91.1155C26.2168 84.5479 29.2281 81.8075 36.1617 80.3572" stroke="white" stroke-width="2.5" stroke-linecap="round" stroke-linejoin="round"/>
<path d="M31.6328 90.3064V96.6652" stroke="white" stroke-width="2.5" stroke-linecap="round" stroke-linejoin="round"/>
<path d="M37.6857 77.0596C37.6857 78.6535 36.1641 80.3573 36.1641 80.3573C38.3713 82.902 42.3425 82.902 44.5517 80.3573C44.5517 80.3573 43.0301 78.5864 43.0301 77.0596" stroke="white" stroke-width="2.5" stroke-linecap="round" stroke-linejoin="round"/>
<path d="M33.6302 66.7039C34.0979 63.0035 36.8199 60.3489 40.3572 60.3489C43.8944 60.3489 46.6145 63.0035 47.0842 66.7039C47.8694 72.9043 43.5187 78.0961 40.3572 78.0961C37.1956 78.0961 32.845 72.9043 33.6302 66.7039Z" stroke="white" stroke-width="2.5" stroke-linecap="round" stroke-linejoin="round"/>
<path d="M80.4999 55.9344C80.699 54.8625 80.8023 53.7589 80.8023 52.631C80.8023 42.5998 72.6082 34.47 62.5017 34.47C52.3953 34.47 44.2012 42.6016 44.2012 52.631C44.2012 53.7589 44.3045 54.8625 44.5036 55.9344" stroke="white" stroke-width="2.5" stroke-linecap="round" stroke-linejoin="round"/>
<path d="M32.7307 48.8784C30.6418 48.8784 28.9492 50.5581 28.9492 52.6311C28.9492 54.704 30.6418 56.3837 32.7307 56.3837C34.8196 56.3837 36.5121 54.704 36.5121 52.6311C36.5121 50.5581 34.8196 48.8784 32.7307 48.8784Z" stroke="white" stroke-width="2.5" stroke-linecap="round" stroke-linejoin="round"/>
<path d="M36.5117 52.6309H44.1986" stroke="white" stroke-width="2.5" stroke-linecap="round" stroke-linejoin="round"/>
<path d="M92.2697 56.3837C94.3587 56.3837 96.0512 54.704 96.0512 52.6311C96.0512 50.5581 94.3587 48.8784 92.2697 48.8784C90.1808 48.8784 88.4883 50.5581 88.4883 52.6311C88.4883 54.704 90.1808 56.3837 92.2697 56.3837Z" stroke="white" stroke-width="2.5" stroke-linecap="round" stroke-linejoin="round"/>
<path d="M88.4877 52.6309H80.8008" stroke="white" stroke-width="2.5" stroke-linecap="round" stroke-linejoin="round"/>
<path d="M43.129 26.0923C41.0926 24.0715 37.7921 24.0715 35.7558 26.0923C33.7194 28.1131 33.7194 31.3885 35.7558 33.4093C37.7921 35.43 41.0926 35.43 43.129 33.4093C45.1653 31.3885 45.1653 28.1131 43.129 26.0923Z" stroke="white" stroke-width="2.5" stroke-linecap="round" stroke-linejoin="round"/>
<path d="M43.1289 33.4092L49.5591 39.7885" stroke="white" stroke-width="2.5" stroke-linecap="round" stroke-linejoin="round"/>
<path d="M89.2442 33.4093C91.2805 31.3885 91.2805 28.1131 89.2442 26.0923C87.2079 24.0715 83.9073 24.0715 81.871 26.0923C79.8347 28.1131 79.8347 31.3885 81.871 33.4093C83.9073 35.43 87.2079 35.43 89.2442 33.4093Z" stroke="white" stroke-width="2.5" stroke-linecap="round" stroke-linejoin="round"/>
<path d="M81.8696 33.4092L75.4395 39.7885" stroke="white" stroke-width="2.5" stroke-linecap="round" stroke-linejoin="round"/>
<path d="M66.2817 23.0871C66.2817 21.0141 64.5891 19.3345 62.5002 19.3345C60.4113 19.3345 58.7188 21.0141 58.7188 23.0871C58.7188 25.1601 60.4113 26.8398 62.5002 26.8398C64.5891 26.8398 66.2817 25.1601 66.2817 23.0871Z" stroke="white" stroke-width="2.5" stroke-linecap="round" stroke-linejoin="round"/>
<path d="M62.5 26.8416V34.468" stroke="white" stroke-width="2.5" stroke-linecap="round" stroke-linejoin="round"/>
</g>
<defs>
<clipPath id="clip0_190_38848">
<rect width="75" height="79.7468" fill="white" transform="translate(25 18.1265)"/>
</clipPath>
</defs>
</svg>
