<svg width="120" height="120" viewBox="0 0 120 120" fill="none" xmlns="http://www.w3.org/2000/svg">
<path d="M77 86H18.1799C16.423 86 15 84.5052 15 82.6597V78H77" stroke="white" stroke-width="2.5" stroke-linecap="round" stroke-linejoin="round"/>
<path d="M46 78L47.2688 80.7056C47.6393 81.499 48.4123 82 49.2573 82H61.7427C62.5877 82 63.3607 81.4962 63.7312 80.7056L65 78" stroke="white" stroke-width="2.5" stroke-linecap="round" stroke-linejoin="round"/>
<path d="M23 78V54" stroke="white" stroke-width="2.5" stroke-linecap="round" stroke-linejoin="round"/>
<path d="M23 45V36.5313C23 35.1335 24.0786 34 25.4088 34H86.5912C87.9214 34 89 35.1335 89 36.5313V41.2565" stroke="white" stroke-width="2.5" stroke-linecap="round" stroke-linejoin="round"/>
<path d="M23 50V49" stroke="white" stroke-width="2.5" stroke-linecap="round" stroke-linejoin="round"/>
<path d="M86.8414 45H102.39C103.831 45 105 46.163 105 47.5961V83.4039C105 84.837 103.831 86 102.39 86H84.6102C83.1694 86 82 84.837 82 83.4039V71.5624" stroke="white" stroke-width="2.5" stroke-linecap="round" stroke-linejoin="round"/>
<path d="M66 58.5817H56.118V53L45 62.4987L56.118 72V66.4183" stroke="white" stroke-width="2.5" stroke-linecap="round" stroke-linejoin="round"/>
<path d="M77 67H89" stroke="white" stroke-width="2.5" stroke-linecap="round" stroke-linejoin="round"/>
<path d="M94 67H95" stroke="white" stroke-width="2.5" stroke-linecap="round" stroke-linejoin="round"/>
<path d="M56 67H72" stroke="white" stroke-width="2.5" stroke-linecap="round" stroke-linejoin="round"/>
<path d="M67 53.4176H74.0828V59L85 49.5L74.0828 40V45.5824" stroke="white" stroke-width="2.5" stroke-linecap="round" stroke-linejoin="round"/>
<path d="M47 45H44" stroke="white" stroke-width="2.5" stroke-linecap="round" stroke-linejoin="round"/>
<path d="M39 45H38" stroke="white" stroke-width="2.5" stroke-linecap="round" stroke-linejoin="round"/>
<path d="M74 45H52" stroke="white" stroke-width="2.5" stroke-linecap="round" stroke-linejoin="round"/>
<path d="M82 67V58" stroke="white" stroke-width="2.5" stroke-linecap="round" stroke-linejoin="round"/>
</svg>
