<svg width="40" height="40" viewBox="0 0 40 40" fill="none" xmlns="http://www.w3.org/2000/svg">
<g clip-path="url(#clip0_226_11041)">
<path d="M9.33334 38.5V34.3333H17.6667V27.875C15.9653 27.4931 14.4458 26.7722 13.1083 25.7125C11.7708 24.6528 10.7903 23.325 10.1667 21.7292C7.5625 21.4167 5.38334 20.2799 3.62917 18.3187C1.875 16.3576 0.998613 14.0569 1 11.4167V9.33333C1 8.1875 1.40834 7.20625 2.225 6.38958C3.04167 5.57292 4.02222 5.16528 5.16667 5.16667H9.33334V1H30.1667V5.16667H34.3333C35.4792 5.16667 36.4604 5.575 37.2771 6.39167C38.0937 7.20833 38.5014 8.18889 38.5 9.33333V11.4167C38.5 14.0556 37.6229 16.3562 35.8687 18.3187C34.1146 20.2812 31.9361 21.4181 29.3333 21.7292C28.7083 23.3264 27.7271 24.6549 26.3896 25.7146C25.0521 26.7743 23.5333 27.4944 21.8333 27.875V34.3333H30.1667V38.5H9.33334ZM9.33334 17.25V9.33333H5.16667V11.4167C5.16667 12.7361 5.54861 13.9257 6.3125 14.9854C7.07639 16.0451 8.08334 16.8 9.33334 17.25ZM19.75 23.9167C21.4861 23.9167 22.9618 23.309 24.1771 22.0937C25.3924 20.8785 26 19.4028 26 17.6667V5.16667H13.5V17.6667C13.5 19.4028 14.1076 20.8785 15.3229 22.0937C16.5382 23.309 18.0139 23.9167 19.75 23.9167ZM30.1667 17.25C31.4167 16.7986 32.4236 16.0431 33.1875 14.9833C33.9514 13.9236 34.3333 12.7347 34.3333 11.4167V9.33333H30.1667V17.25Z" fill="white" stroke="#533CBF" stroke-width="2"/>
</g>
<defs>
<clipPath id="clip0_226_11041">
<rect width="40" height="40" fill="white"/>
</clipPath>
</defs>
</svg>
