<svg width="40" height="40" viewBox="0 0 40 40" fill="none" xmlns="http://www.w3.org/2000/svg">
<path fill-rule="evenodd" clip-rule="evenodd" d="M9.28575 3.60444C10.733 2.56132 12.4718 2 14.2558 2C16.0398 2 17.7786 2.56132 19.2258 3.60444C20.6731 4.64757 21.7554 6.11961 22.3196 7.81206C22.8837 9.50452 22.9011 11.3316 22.3692 13.0344C21.8372 14.7373 20.783 16.2296 19.3558 17.3L18.2891 18.1L19.3558 18.9C20.4115 19.6917 21.2683 20.7184 21.8584 21.8987C22.4486 23.079 22.7558 24.3804 22.7558 25.7V28.6H32.4874L32.3482 27.4769C32.0722 25.2512 31.2384 23.1313 29.9241 21.314L29.5886 20.8501L29.0188 20.9045C28.8419 20.9214 28.6637 20.9214 28.4868 20.9045L28.4449 20.9005L28.4028 20.9001C27.8102 20.8935 27.235 20.6992 26.7599 20.3449C26.2848 19.9907 25.9343 19.4948 25.759 18.9287C25.5836 18.3626 25.5924 17.7555 25.784 17.1947C25.9757 16.6339 26.3403 16.1484 26.8255 15.8081C27.3106 15.4677 27.8912 15.2901 28.4838 15.3007C29.0763 15.3113 29.6502 15.5097 30.1228 15.8672C30.5954 16.2247 30.9424 16.723 31.1139 17.2903C31.2853 17.8576 31.2723 18.4646 31.0768 19.0241L30.903 19.5213L31.2147 19.9459C32.939 22.2942 33.9599 25.0844 34.1581 27.991L34.2029 28.6479L34.8239 28.8663C35.871 29.2347 36.7539 29.9617 37.3163 30.9186C37.8787 31.8755 38.0843 33.0006 37.8966 34.0946C37.709 35.1885 37.1402 36.1808 36.2911 36.8956C35.4419 37.6104 34.3672 38.0017 33.2573 38H6.65981C5.55892 37.9906 4.49623 37.595 3.65712 36.8822C2.81707 36.1686 2.25454 35.1824 2.06789 34.0961C1.88123 33.0097 2.08232 31.8924 2.636 30.9393C3.18968 29.9862 4.06073 29.258 5.09688 28.882L5.75579 28.6429V25.7C5.75579 24.3804 6.06302 23.079 6.65316 21.8987C7.24329 20.7184 8.10012 19.6917 9.15579 18.9L10.2225 18.1L9.15579 17.3C7.72859 16.2296 6.67435 14.7373 6.14242 13.0344C5.61049 11.3316 5.62783 9.50452 6.19198 7.81206C6.75613 6.11961 7.83849 4.64757 9.28575 3.60444ZM15.5629 3.92874C14.2632 3.67022 12.9161 3.8029 11.6918 4.31001C10.4675 4.81711 9.42115 5.67587 8.68494 6.77768C7.94874 7.87949 7.55579 9.17487 7.55579 10.5C7.55579 12.2769 8.26168 13.9811 9.51817 15.2376C10.7747 16.4941 12.4788 17.2 14.2558 17.2C15.5809 17.2 16.8763 16.8071 17.9781 16.0708C19.0799 15.3346 19.9387 14.2882 20.4458 13.064C20.9529 11.8397 21.0856 10.4926 20.827 9.19289C20.5685 7.89322 19.9304 6.6994 18.9934 5.76238C18.0564 4.82537 16.8626 4.18726 15.5629 3.92874ZM14.2558 19C12.4788 19 10.7747 19.7059 9.51817 20.9624C8.26168 22.2189 7.55579 23.923 7.55579 25.7V28.6H20.9558V25.7C20.9558 23.923 20.2499 22.2189 18.9934 20.9624C17.7369 19.7059 16.0327 19 14.2558 19ZM6.65579 30.4C5.88666 30.4 5.14903 30.7055 4.60518 31.2494C4.06132 31.7932 3.75579 32.5309 3.75579 33.3C3.75579 34.0691 4.06132 34.8068 4.60518 35.3506C5.14903 35.8945 5.88666 36.2 6.65579 36.2H33.2558C34.0249 36.2 34.7625 35.8945 35.3064 35.3506C35.8503 34.8068 36.1558 34.0691 36.1558 33.3C36.1558 32.5309 35.8503 31.7932 35.3064 31.2494C34.7625 30.7055 34.0249 30.4 33.2558 30.4H6.65579Z" fill="white"/>
</svg>
