<svg width="40" height="40" viewBox="0 0 40 40" fill="none" xmlns="http://www.w3.org/2000/svg">
<g clip-path="url(#clip0_190_38826)">
<mask id="path-1-outside-1_190_38826" maskUnits="userSpaceOnUse" x="0" y="3" width="39" height="35" fill="black">
<rect fill="white" y="3" width="39" height="35"/>
<path d="M36.7797 16.6113V9.34103C36.7797 8.41905 36.0324 7.66882 35.1137 7.66882H24.9763V6.50784C24.9763 6.28919 24.7996 6.11184 24.5817 6.11184H22.3457V4.396C22.3457 4.17735 22.169 4 21.9511 4H16.6898C16.4719 4 16.2952 4.17735 16.2952 4.396V7.66898H2.66598C1.74726 7.66898 1 8.4192 1 9.34103V29.2308C1 30.1528 1.74726 30.9027 2.66598 30.9027H14.9436V33.543H14.0226C12.3546 33.543 10.9973 34.9051 10.9973 36.5793C10.9973 36.798 11.174 36.9753 11.3919 36.9753H19.4368C19.4572 36.9761 19.477 36.9784 19.4976 36.9784H24.2534C24.274 36.9784 24.2938 36.9761 24.3142 36.9753H24.9547C25.0443 36.9904 25.1357 37 25.2295 37H36.334C37.2527 37 38 36.2501 38 35.3281V18.2207C38 17.4538 37.4822 16.8076 36.7795 16.6113H36.7797ZM37.211 35.3281C37.211 35.8132 36.8176 36.208 36.3342 36.208H25.6543C25.8213 35.9476 25.9194 35.6385 25.9194 35.3064V24.7804C25.9194 23.8921 25.225 23.1656 24.3527 23.1134V19.5758H29.9745V21.0758C29.2215 21.2554 28.6591 21.9341 28.6591 22.7438C28.6591 23.6901 29.4262 24.4598 30.3691 24.4598C31.3119 24.4598 32.079 23.6901 32.079 22.7438C32.079 21.9341 31.5165 21.2554 30.7637 21.0758V19.1798C30.7637 18.9612 30.5869 18.7838 30.3691 18.7838H24.3527V18.2206C24.3527 17.7355 24.7461 17.3407 25.2295 17.3407H36.334C36.8174 17.3407 37.2108 17.7355 37.2108 18.2206V35.3279L37.211 35.3281ZM11.8215 36.183C12.0083 35.134 12.9243 34.335 14.0226 34.335H17.8316V35.3064C17.8316 35.628 17.9242 35.9277 18.0817 36.183H11.8213H11.8215ZM1.7892 29.2308V9.34103C1.7892 8.85589 2.18256 8.46082 2.66598 8.46082H16.2952V10.7318C16.2952 10.9505 16.4719 11.1278 16.6898 11.1278H18.9258V12.8438C18.9258 13.0625 19.1025 13.2398 19.3204 13.2398H24.5817C24.7996 13.2398 24.9763 13.0625 24.9763 12.8438V8.46082H35.1137C35.5971 8.46082 35.9905 8.85574 35.9905 9.34103V16.5487H25.2297C24.3109 16.5487 23.5637 17.2986 23.5637 18.2206V18.7838H18.0051C17.7872 18.7838 17.6105 18.9612 17.6105 19.1798C17.6105 19.3985 17.7872 19.5758 18.0051 19.5758H23.5637V23.1083H22.3457V21.8198C22.3457 21.6012 22.169 21.4238 21.9511 21.4238H17.2159C16.998 21.4238 16.8213 21.6012 16.8213 21.8198C16.8213 22.0385 16.998 22.2158 17.2159 22.2158H21.5565V23.1083H19.4978C18.579 23.1083 17.8318 23.8582 17.8318 24.7802V30.1105H2.66598C2.18256 30.1105 1.7892 29.7158 1.7892 29.2306V29.2308ZM21.5565 4.792V10.336H17.0844V4.792H21.5565ZM24.1871 12.448H19.715V11.128H21.9511C22.169 11.128 22.3457 10.9507 22.3457 10.732V6.904H24.1871V12.448ZM19.4976 36.1864C19.0142 36.1864 18.6208 35.7917 18.6208 35.3065V24.7805C18.6208 24.2954 19.0142 23.9006 19.4976 23.9006H21.5563V27.3642C21.5563 27.5828 21.733 27.7602 21.9509 27.7602C22.1688 27.7602 22.3455 27.5828 22.3455 27.3642V23.9006H24.2532C24.7366 23.9006 25.13 24.2954 25.13 24.7805V35.3065C25.13 35.7917 24.7366 36.1864 24.2532 36.1864H19.4974H19.4976ZM15.7328 30.9027H17.8316V33.543H15.7328V30.9027ZM31.2899 22.744C31.2899 23.2534 30.8768 23.668 30.3692 23.668C29.8616 23.668 29.4485 23.2534 29.4485 22.744C29.4485 22.2346 29.8616 21.82 30.3692 21.82C30.8768 21.82 31.2899 22.2346 31.2899 22.744ZM16.0321 19.444C16.0321 16.3484 13.5227 13.8301 10.4381 13.8301C9.25688 13.8301 8.16191 14.2016 7.2582 14.831V13.9C7.2582 13.6813 7.08148 13.504 6.8636 13.504C6.64572 13.504 6.469 13.6813 6.469 13.9V15.4932C5.46548 16.5083 4.84418 17.9044 4.84418 19.444C4.84418 22.5395 7.35352 25.0579 10.4382 25.0579C11.627 25.0579 12.7281 24.681 13.6352 24.0441L13.6181 24.9809C13.6142 25.1995 13.7877 25.38 14.0055 25.384H14.013C14.2274 25.384 14.4032 25.2115 14.4073 24.9951L14.4371 23.3618C15.4222 22.3494 16.0322 20.9674 16.0322 19.4438L16.0321 19.444ZM5.63322 19.444C5.63322 18.1554 6.14249 16.986 6.96588 16.1201L8.3702 16.5608C8.4095 16.5732 8.44927 16.5788 8.48811 16.5788C8.65616 16.5788 8.81184 16.4706 8.86476 16.3012C8.92975 16.0923 8.81385 15.8701 8.60603 15.8048L7.66827 15.5106C8.4519 14.953 9.40621 14.622 10.4379 14.622C13.0873 14.622 15.2427 16.7851 15.2427 19.4438C15.2427 20.7244 14.7395 21.8868 13.9251 22.751L12.5002 22.3256C12.2913 22.2632 12.0717 22.3826 12.0095 22.5923C11.9473 22.8019 12.0663 23.0223 12.2752 23.0847L13.221 23.367C12.4347 23.9304 11.4755 24.2657 10.4377 24.2657C7.78835 24.2657 5.63291 22.1026 5.63291 19.4438L5.63322 19.444ZM21.9511 32.248C22.8939 32.248 23.661 31.4782 23.661 30.532C23.661 29.5858 22.8939 28.816 21.9511 28.816C21.0082 28.816 20.2412 29.5858 20.2412 30.532C20.2412 31.4782 21.0082 32.248 21.9511 32.248ZM21.0303 30.532C21.0303 30.0226 21.4435 29.608 21.9511 29.608C22.4586 29.608 22.8718 30.0226 22.8718 30.532C22.8718 31.0414 22.4586 31.456 21.9511 31.456C21.4435 31.456 21.0303 31.0414 21.0303 30.532Z"/>
</mask>
<path d="M36.7797 16.6113V9.34103C36.7797 8.41905 36.0324 7.66882 35.1137 7.66882H24.9763V6.50784C24.9763 6.28919 24.7996 6.11184 24.5817 6.11184H22.3457V4.396C22.3457 4.17735 22.169 4 21.9511 4H16.6898C16.4719 4 16.2952 4.17735 16.2952 4.396V7.66898H2.66598C1.74726 7.66898 1 8.4192 1 9.34103V29.2308C1 30.1528 1.74726 30.9027 2.66598 30.9027H14.9436V33.543H14.0226C12.3546 33.543 10.9973 34.9051 10.9973 36.5793C10.9973 36.798 11.174 36.9753 11.3919 36.9753H19.4368C19.4572 36.9761 19.477 36.9784 19.4976 36.9784H24.2534C24.274 36.9784 24.2938 36.9761 24.3142 36.9753H24.9547C25.0443 36.9904 25.1357 37 25.2295 37H36.334C37.2527 37 38 36.2501 38 35.3281V18.2207C38 17.4538 37.4822 16.8076 36.7795 16.6113H36.7797ZM37.211 35.3281C37.211 35.8132 36.8176 36.208 36.3342 36.208H25.6543C25.8213 35.9476 25.9194 35.6385 25.9194 35.3064V24.7804C25.9194 23.8921 25.225 23.1656 24.3527 23.1134V19.5758H29.9745V21.0758C29.2215 21.2554 28.6591 21.9341 28.6591 22.7438C28.6591 23.6901 29.4262 24.4598 30.3691 24.4598C31.3119 24.4598 32.079 23.6901 32.079 22.7438C32.079 21.9341 31.5165 21.2554 30.7637 21.0758V19.1798C30.7637 18.9612 30.5869 18.7838 30.3691 18.7838H24.3527V18.2206C24.3527 17.7355 24.7461 17.3407 25.2295 17.3407H36.334C36.8174 17.3407 37.2108 17.7355 37.2108 18.2206V35.3279L37.211 35.3281ZM11.8215 36.183C12.0083 35.134 12.9243 34.335 14.0226 34.335H17.8316V35.3064C17.8316 35.628 17.9242 35.9277 18.0817 36.183H11.8213H11.8215ZM1.7892 29.2308V9.34103C1.7892 8.85589 2.18256 8.46082 2.66598 8.46082H16.2952V10.7318C16.2952 10.9505 16.4719 11.1278 16.6898 11.1278H18.9258V12.8438C18.9258 13.0625 19.1025 13.2398 19.3204 13.2398H24.5817C24.7996 13.2398 24.9763 13.0625 24.9763 12.8438V8.46082H35.1137C35.5971 8.46082 35.9905 8.85574 35.9905 9.34103V16.5487H25.2297C24.3109 16.5487 23.5637 17.2986 23.5637 18.2206V18.7838H18.0051C17.7872 18.7838 17.6105 18.9612 17.6105 19.1798C17.6105 19.3985 17.7872 19.5758 18.0051 19.5758H23.5637V23.1083H22.3457V21.8198C22.3457 21.6012 22.169 21.4238 21.9511 21.4238H17.2159C16.998 21.4238 16.8213 21.6012 16.8213 21.8198C16.8213 22.0385 16.998 22.2158 17.2159 22.2158H21.5565V23.1083H19.4978C18.579 23.1083 17.8318 23.8582 17.8318 24.7802V30.1105H2.66598C2.18256 30.1105 1.7892 29.7158 1.7892 29.2306V29.2308ZM21.5565 4.792V10.336H17.0844V4.792H21.5565ZM24.1871 12.448H19.715V11.128H21.9511C22.169 11.128 22.3457 10.9507 22.3457 10.732V6.904H24.1871V12.448ZM19.4976 36.1864C19.0142 36.1864 18.6208 35.7917 18.6208 35.3065V24.7805C18.6208 24.2954 19.0142 23.9006 19.4976 23.9006H21.5563V27.3642C21.5563 27.5828 21.733 27.7602 21.9509 27.7602C22.1688 27.7602 22.3455 27.5828 22.3455 27.3642V23.9006H24.2532C24.7366 23.9006 25.13 24.2954 25.13 24.7805V35.3065C25.13 35.7917 24.7366 36.1864 24.2532 36.1864H19.4974H19.4976ZM15.7328 30.9027H17.8316V33.543H15.7328V30.9027ZM31.2899 22.744C31.2899 23.2534 30.8768 23.668 30.3692 23.668C29.8616 23.668 29.4485 23.2534 29.4485 22.744C29.4485 22.2346 29.8616 21.82 30.3692 21.82C30.8768 21.82 31.2899 22.2346 31.2899 22.744ZM16.0321 19.444C16.0321 16.3484 13.5227 13.8301 10.4381 13.8301C9.25688 13.8301 8.16191 14.2016 7.2582 14.831V13.9C7.2582 13.6813 7.08148 13.504 6.8636 13.504C6.64572 13.504 6.469 13.6813 6.469 13.9V15.4932C5.46548 16.5083 4.84418 17.9044 4.84418 19.444C4.84418 22.5395 7.35352 25.0579 10.4382 25.0579C11.627 25.0579 12.7281 24.681 13.6352 24.0441L13.6181 24.9809C13.6142 25.1995 13.7877 25.38 14.0055 25.384H14.013C14.2274 25.384 14.4032 25.2115 14.4073 24.9951L14.4371 23.3618C15.4222 22.3494 16.0322 20.9674 16.0322 19.4438L16.0321 19.444ZM5.63322 19.444C5.63322 18.1554 6.14249 16.986 6.96588 16.1201L8.3702 16.5608C8.4095 16.5732 8.44927 16.5788 8.48811 16.5788C8.65616 16.5788 8.81184 16.4706 8.86476 16.3012C8.92975 16.0923 8.81385 15.8701 8.60603 15.8048L7.66827 15.5106C8.4519 14.953 9.40621 14.622 10.4379 14.622C13.0873 14.622 15.2427 16.7851 15.2427 19.4438C15.2427 20.7244 14.7395 21.8868 13.9251 22.751L12.5002 22.3256C12.2913 22.2632 12.0717 22.3826 12.0095 22.5923C11.9473 22.8019 12.0663 23.0223 12.2752 23.0847L13.221 23.367C12.4347 23.9304 11.4755 24.2657 10.4377 24.2657C7.78835 24.2657 5.63291 22.1026 5.63291 19.4438L5.63322 19.444ZM21.9511 32.248C22.8939 32.248 23.661 31.4782 23.661 30.532C23.661 29.5858 22.8939 28.816 21.9511 28.816C21.0082 28.816 20.2412 29.5858 20.2412 30.532C20.2412 31.4782 21.0082 32.248 21.9511 32.248ZM21.0303 30.532C21.0303 30.0226 21.4435 29.608 21.9511 29.608C22.4586 29.608 22.8718 30.0226 22.8718 30.532C22.8718 31.0414 22.4586 31.456 21.9511 31.456C21.4435 31.456 21.0303 31.0414 21.0303 30.532Z" fill="white"/>
<path d="M36.7797 16.6113V9.34103C36.7797 8.41905 36.0324 7.66882 35.1137 7.66882H24.9763V6.50784C24.9763 6.28919 24.7996 6.11184 24.5817 6.11184H22.3457V4.396C22.3457 4.17735 22.169 4 21.9511 4H16.6898C16.4719 4 16.2952 4.17735 16.2952 4.396V7.66898H2.66598C1.74726 7.66898 1 8.4192 1 9.34103V29.2308C1 30.1528 1.74726 30.9027 2.66598 30.9027H14.9436V33.543H14.0226C12.3546 33.543 10.9973 34.9051 10.9973 36.5793C10.9973 36.798 11.174 36.9753 11.3919 36.9753H19.4368C19.4572 36.9761 19.477 36.9784 19.4976 36.9784H24.2534C24.274 36.9784 24.2938 36.9761 24.3142 36.9753H24.9547C25.0443 36.9904 25.1357 37 25.2295 37H36.334C37.2527 37 38 36.2501 38 35.3281V18.2207C38 17.4538 37.4822 16.8076 36.7795 16.6113H36.7797ZM37.211 35.3281C37.211 35.8132 36.8176 36.208 36.3342 36.208H25.6543C25.8213 35.9476 25.9194 35.6385 25.9194 35.3064V24.7804C25.9194 23.8921 25.225 23.1656 24.3527 23.1134V19.5758H29.9745V21.0758C29.2215 21.2554 28.6591 21.9341 28.6591 22.7438C28.6591 23.6901 29.4262 24.4598 30.3691 24.4598C31.3119 24.4598 32.079 23.6901 32.079 22.7438C32.079 21.9341 31.5165 21.2554 30.7637 21.0758V19.1798C30.7637 18.9612 30.5869 18.7838 30.3691 18.7838H24.3527V18.2206C24.3527 17.7355 24.7461 17.3407 25.2295 17.3407H36.334C36.8174 17.3407 37.2108 17.7355 37.2108 18.2206V35.3279L37.211 35.3281ZM11.8215 36.183C12.0083 35.134 12.9243 34.335 14.0226 34.335H17.8316V35.3064C17.8316 35.628 17.9242 35.9277 18.0817 36.183H11.8213H11.8215ZM1.7892 29.2308V9.34103C1.7892 8.85589 2.18256 8.46082 2.66598 8.46082H16.2952V10.7318C16.2952 10.9505 16.4719 11.1278 16.6898 11.1278H18.9258V12.8438C18.9258 13.0625 19.1025 13.2398 19.3204 13.2398H24.5817C24.7996 13.2398 24.9763 13.0625 24.9763 12.8438V8.46082H35.1137C35.5971 8.46082 35.9905 8.85574 35.9905 9.34103V16.5487H25.2297C24.3109 16.5487 23.5637 17.2986 23.5637 18.2206V18.7838H18.0051C17.7872 18.7838 17.6105 18.9612 17.6105 19.1798C17.6105 19.3985 17.7872 19.5758 18.0051 19.5758H23.5637V23.1083H22.3457V21.8198C22.3457 21.6012 22.169 21.4238 21.9511 21.4238H17.2159C16.998 21.4238 16.8213 21.6012 16.8213 21.8198C16.8213 22.0385 16.998 22.2158 17.2159 22.2158H21.5565V23.1083H19.4978C18.579 23.1083 17.8318 23.8582 17.8318 24.7802V30.1105H2.66598C2.18256 30.1105 1.7892 29.7158 1.7892 29.2306V29.2308ZM21.5565 4.792V10.336H17.0844V4.792H21.5565ZM24.1871 12.448H19.715V11.128H21.9511C22.169 11.128 22.3457 10.9507 22.3457 10.732V6.904H24.1871V12.448ZM19.4976 36.1864C19.0142 36.1864 18.6208 35.7917 18.6208 35.3065V24.7805C18.6208 24.2954 19.0142 23.9006 19.4976 23.9006H21.5563V27.3642C21.5563 27.5828 21.733 27.7602 21.9509 27.7602C22.1688 27.7602 22.3455 27.5828 22.3455 27.3642V23.9006H24.2532C24.7366 23.9006 25.13 24.2954 25.13 24.7805V35.3065C25.13 35.7917 24.7366 36.1864 24.2532 36.1864H19.4974H19.4976ZM15.7328 30.9027H17.8316V33.543H15.7328V30.9027ZM31.2899 22.744C31.2899 23.2534 30.8768 23.668 30.3692 23.668C29.8616 23.668 29.4485 23.2534 29.4485 22.744C29.4485 22.2346 29.8616 21.82 30.3692 21.82C30.8768 21.82 31.2899 22.2346 31.2899 22.744ZM16.0321 19.444C16.0321 16.3484 13.5227 13.8301 10.4381 13.8301C9.25688 13.8301 8.16191 14.2016 7.2582 14.831V13.9C7.2582 13.6813 7.08148 13.504 6.8636 13.504C6.64572 13.504 6.469 13.6813 6.469 13.9V15.4932C5.46548 16.5083 4.84418 17.9044 4.84418 19.444C4.84418 22.5395 7.35352 25.0579 10.4382 25.0579C11.627 25.0579 12.7281 24.681 13.6352 24.0441L13.6181 24.9809C13.6142 25.1995 13.7877 25.38 14.0055 25.384H14.013C14.2274 25.384 14.4032 25.2115 14.4073 24.9951L14.4371 23.3618C15.4222 22.3494 16.0322 20.9674 16.0322 19.4438L16.0321 19.444ZM5.63322 19.444C5.63322 18.1554 6.14249 16.986 6.96588 16.1201L8.3702 16.5608C8.4095 16.5732 8.44927 16.5788 8.48811 16.5788C8.65616 16.5788 8.81184 16.4706 8.86476 16.3012C8.92975 16.0923 8.81385 15.8701 8.60603 15.8048L7.66827 15.5106C8.4519 14.953 9.40621 14.622 10.4379 14.622C13.0873 14.622 15.2427 16.7851 15.2427 19.4438C15.2427 20.7244 14.7395 21.8868 13.9251 22.751L12.5002 22.3256C12.2913 22.2632 12.0717 22.3826 12.0095 22.5923C11.9473 22.8019 12.0663 23.0223 12.2752 23.0847L13.221 23.367C12.4347 23.9304 11.4755 24.2657 10.4377 24.2657C7.78835 24.2657 5.63291 22.1026 5.63291 19.4438L5.63322 19.444ZM21.9511 32.248C22.8939 32.248 23.661 31.4782 23.661 30.532C23.661 29.5858 22.8939 28.816 21.9511 28.816C21.0082 28.816 20.2412 29.5858 20.2412 30.532C20.2412 31.4782 21.0082 32.248 21.9511 32.248ZM21.0303 30.532C21.0303 30.0226 21.4435 29.608 21.9511 29.608C22.4586 29.608 22.8718 30.0226 22.8718 30.532C22.8718 31.0414 22.4586 31.456 21.9511 31.456C21.4435 31.456 21.0303 31.0414 21.0303 30.532Z" stroke="white" stroke-width="0.4" mask="url(#path-1-outside-1_190_38826)"/>
</g>
<defs>
<clipPath id="clip0_190_38826">
<rect width="40" height="40" fill="white"/>
</clipPath>
</defs>
</svg>
