<svg width="40" height="40" viewBox="0 0 40 40" fill="none" xmlns="http://www.w3.org/2000/svg">
<path d="M26.0517 13.3194C27.2586 12.1426 27.2586 10.2346 26.0517 9.05784C24.8448 7.88105 22.8881 7.88105 21.6813 9.05784C20.4744 10.2346 20.4744 12.1426 21.6813 13.3194C22.8881 14.4961 24.8448 14.4961 26.0517 13.3194Z" stroke="white" stroke-width="1.3" stroke-linecap="round" stroke-linejoin="round"/>
<path d="M21.3106 12.9175L15.5879 16.5775" stroke="white" stroke-width="1.3" stroke-linecap="round" stroke-linejoin="round"/>
<path d="M21.8601 23.3631L15.543 19.4794" stroke="white" stroke-width="1.3" stroke-linecap="round" stroke-linejoin="round"/>
<path d="M24.5806 28.2079C26.2873 28.2079 27.6709 26.8587 27.6709 25.1945C27.6709 23.5303 26.2873 22.1812 24.5806 22.1812C22.8738 22.1812 21.4902 23.5303 21.4902 25.1945C21.4902 26.8587 22.8738 28.2079 24.5806 28.2079Z" stroke="white" stroke-width="1.3" stroke-linecap="round" stroke-linejoin="round"/>
<path d="M13.9411 20.9808C15.5179 20.344 16.2667 18.5812 15.6135 17.0437C14.9604 15.5061 13.1526 14.776 11.5758 15.4129C9.99898 16.0498 9.25018 17.8125 9.90333 19.35C10.5565 20.8876 12.3642 21.6177 13.9411 20.9808Z" stroke="white" stroke-width="1.3" stroke-linecap="round" stroke-linejoin="round"/>
<path d="M35.0809 31.4617C36.6923 31.4617 37.9984 30.0246 37.9984 28.2522V7.99564C37.9984 6.22332 36.6923 4.78613 35.0809 4.78613H4.91748C3.30609 4.78613 2 6.22332 2 7.99564V28.2522C2 30.0246 3.30609 31.4617 4.91748 31.4617H35.0799H35.0809Z" stroke="white" stroke-width="1.3" stroke-linecap="round" stroke-linejoin="round"/>
<path d="M23.7539 36.2139V31.6106" stroke="white" stroke-width="1.3" stroke-linecap="round" stroke-linejoin="round"/>
<path d="M16.3281 31.6106V36.1883" stroke="white" stroke-width="1.3" stroke-linecap="round" stroke-linejoin="round"/>
<path d="M11.1543 36.201H28.5277" stroke="white" stroke-width="1.3" stroke-linecap="round" stroke-linejoin="round"/>
</svg>
