<svg width="40" height="40" viewBox="0 0 40 40" fill="none" xmlns="http://www.w3.org/2000/svg">
<path d="M8.18411 26.4401C5.84568 26.385 1.15548 25.0368 1.10208 20.085C1.05105 15.3527 4.78483 13.7707 6.90694 13.5243C7.06632 13.5058 7.18823 13.3724 7.19096 13.212C7.23998 10.3319 8.83491 5.09094 15.0128 5.09094C19.1342 5.09087 22.1374 8.29434 22.778 10.4731C22.8574 10.7432 23.2872 10.8938 23.5064 10.7171C24.9187 9.57905 27.6809 8.59109 30.9614 11.0394C32.5333 12.2126 33.0378 14.25 32.7448 15.5162C32.687 15.7661 32.9003 16.0678 33.1564 16.054C35.3917 15.9336 38.8835 16.8348 38.9005 21.3674C38.9193 26.3697 33.9746 26.6055 31.5 26.0981" stroke="white" stroke-width="1.2" stroke-linecap="round"/>
<path d="M17 18.7V13.3C17 13.1343 17.1343 13 17.3 13H22.7C22.8657 13 23 13.1343 23 13.3V18.7C23 18.8657 23.1343 19 23.3 19H25.3477C25.604 19 25.7423 19.3006 25.5755 19.4952L20.2278 25.7343C20.108 25.8739 19.892 25.8739 19.7722 25.7343L14.4245 19.4952C14.2577 19.3006 14.396 19 14.6523 19H16.7C16.8657 19 17 18.8657 17 18.7Z" stroke="white" stroke-width="1.2" stroke-linecap="round"/>
<path d="M18 24H11.3C11.1343 24 11 24.1343 11 24.3V27.7C11 27.8657 11.1343 28 11.3 28H28.7C28.8657 28 29 27.8657 29 27.7V24.3C29 24.1343 28.8657 24 28.7 24H22" stroke="white" stroke-width="1.2" stroke-linecap="round"/>
<path d="M11 34.7V31.3C11 31.1343 11.1343 31 11.3 31H28.7C28.8657 31 29 31.1343 29 31.3V34.7C29 34.8657 28.8657 35 28.7 35H11.3C11.1343 35 11 34.8657 11 34.7Z" stroke="white" stroke-width="1.2" stroke-linecap="round"/>
<path d="M12 28V31" stroke="white" stroke-width="1.2" stroke-linecap="round"/>
<path d="M28 28V31" stroke="white" stroke-width="1.2" stroke-linecap="round"/>
<circle cx="14" cy="26" r="1" stroke="white" stroke-width="0.6" stroke-linecap="round"/>
<circle cx="14" cy="33" r="1" stroke="white" stroke-width="0.6" stroke-linecap="round"/>
</svg>
