<svg width="40" height="40" viewBox="0 0 40 40" fill="none" xmlns="http://www.w3.org/2000/svg">
<g clip-path="url(#clip0_190_38780)">
<path d="M12 27V14C12 13.4477 12.4477 13 13 13H28C28.5523 13 29 13.4477 29 14V27C29 27.5523 28.5523 28 28 28H13C12.4477 28 12 27.5523 12 27Z" stroke="white" stroke-width="1.2"/>
<path d="M12 21H14.8456C14.9425 21 15.0334 20.9532 15.0897 20.8744L17.1384 18.0063C17.2844 17.8019 17.6019 17.8567 17.6709 18.0983L19.4005 24.1518C19.4284 24.2494 19.5671 24.2482 19.5933 24.1501L21.3849 17.4316C21.4124 17.3284 21.5608 17.3344 21.5799 17.4395L22.4557 22.2565C22.4718 22.3449 22.5874 22.3689 22.6373 22.294L24.4168 19.6248C24.4564 19.5654 24.5436 19.5654 24.5832 19.6248L25.4109 20.8664C25.4666 20.9499 25.5602 21 25.6606 21H29" stroke="white" stroke-width="1.2"/>
<path d="M12 22.5902C10.8976 22.5902 10.0039 21.6965 10.0039 20.5941C10.0039 19.4917 10.8976 18.598 12 18.598" stroke="white" stroke-width="1.2"/>
<path d="M29 22.5902C30.1024 22.5902 30.9961 21.6965 30.9961 20.5941C30.9961 19.4917 30.1024 18.598 29 18.598" stroke="white" stroke-width="1.2"/>
<path d="M22.4961 28.1757C22.4961 29.2781 21.6024 30.1718 20.5 30.1718C19.3976 30.1718 18.5039 29.2781 18.5039 28.1757" stroke="white" stroke-width="1.2"/>
<path d="M22.4961 12.8281C22.4961 11.7257 21.6024 10.832 20.5 10.832C19.3976 10.832 18.5039 11.7257 18.5039 12.8281" stroke="white" stroke-width="1.2"/>
<path d="M18.3926 31.9825C18.9713 32.4433 19.7043 32.7187 20.5016 32.7187C21.2989 32.7187 22.0318 32.4433 22.6106 31.9825" stroke="white" stroke-width="1.2" stroke-linecap="round"/>
<path d="M16.498 33.6996C17.614 34.5357 19.0001 35.031 20.5019 35.031C22.0037 35.031 23.3898 34.5357 24.5058 33.6996" stroke="white" stroke-width="1.2" stroke-linecap="round"/>
<path d="M14.6152 35.8269C16.3348 36.8601 18.3483 37.4542 20.5005 37.4542C22.6527 37.4542 24.6661 36.8601 26.3857 35.8269" stroke="white" stroke-width="1.2" stroke-linecap="round"/>
<path d="M22.6074 8.47168C22.0287 8.01088 21.2957 7.73553 20.4984 7.73553C19.7011 7.73553 18.9682 8.01088 18.3894 8.47168" stroke="white" stroke-width="1.2" stroke-linecap="round"/>
<path d="M24.502 6.75464C23.386 5.9185 21.9999 5.42322 20.4981 5.42322C18.9963 5.42322 17.6102 5.9185 16.4942 6.75464" stroke="white" stroke-width="1.2" stroke-linecap="round"/>
<path d="M26.3848 4.62732C24.6652 3.59417 22.6517 3.00006 20.4995 3.00006C18.3473 3.00006 16.3339 3.59417 14.6143 4.62732" stroke="white" stroke-width="1.2" stroke-linecap="round"/>
<path d="M33.4707 22.3345C33.9315 21.7557 34.2069 21.0228 34.2069 20.2255C34.2069 19.4282 33.9315 18.6952 33.4707 18.1165" stroke="white" stroke-width="1.2" stroke-linecap="round"/>
<path d="M35.1875 24.229C36.0236 23.113 36.5189 21.7269 36.5189 20.2251C36.5189 18.7234 36.0236 17.3373 35.1875 16.2213" stroke="white" stroke-width="1.2" stroke-linecap="round"/>
<path d="M37.3145 26.1118C38.3476 24.3922 38.9417 22.3788 38.9417 20.2266C38.9417 18.0744 38.3476 16.061 37.3145 14.3413" stroke="white" stroke-width="1.2" stroke-linecap="round"/>
<path d="M7.4707 18.1196C7.00991 18.6984 6.73455 19.4313 6.73455 20.2286C6.73455 21.0259 7.00991 21.7589 7.4707 22.3376" stroke="white" stroke-width="1.2" stroke-linecap="round"/>
<path d="M5.75391 16.2251C4.91777 17.3411 4.42249 18.7272 4.42249 20.229C4.42249 21.7307 4.91777 23.1168 5.75391 24.2328" stroke="white" stroke-width="1.2" stroke-linecap="round"/>
<path d="M3.62695 14.3423C2.5938 16.0619 1.99969 18.0753 1.99969 20.2275C1.99969 22.3797 2.5938 24.3931 3.62695 26.1128" stroke="white" stroke-width="1.2" stroke-linecap="round"/>
</g>
<defs>
<clipPath id="clip0_190_38780">
<rect width="39" height="37" fill="white" transform="translate(1 2)"/>
</clipPath>
</defs>
</svg>
