<svg width="40" height="40" viewBox="0 0 40 40" fill="none" xmlns="http://www.w3.org/2000/svg">
<path fill-rule="evenodd" clip-rule="evenodd" d="M5.41903 34.2174C4.70653 34.2174 4.12887 34.7915 4.12887 35.4996C4.12887 36.2077 4.70653 36.7818 5.41903 36.7818C6.13153 36.7818 6.70919 36.2077 6.70919 35.4996C6.70919 34.7915 6.13153 34.2174 5.41903 34.2174ZM22.9067 17.0889C22.6769 17.3356 22.2892 17.3493 22.041 17.1209C21.7927 16.8925 21.7774 16.5072 22.0073 16.2605L23.1258 15.0621L22.0073 13.8636C21.7774 13.617 21.7927 13.2317 22.041 13.0033C22.2892 12.7748 22.6769 12.7901 22.9067 13.0368L24.4098 14.6494C24.6274 14.8824 24.6274 15.2433 24.4098 15.4778L22.9067 17.0905V17.0889ZM17.4764 16.2605C17.7062 16.5072 17.6909 16.8925 17.4442 17.1209C17.196 17.3493 16.8083 17.3341 16.5785 17.0889L15.0738 15.4763C14.8562 15.2433 14.8562 14.8824 15.0738 14.6479L16.5785 13.0352C16.8083 12.7885 17.196 12.7733 17.4442 13.0017C17.6924 13.2302 17.7077 13.6154 17.4764 13.8621L16.3578 15.0606L17.4764 16.259V16.2605ZM17.4932 24.9344C17.268 24.6831 17.2894 24.2979 17.5407 24.074C17.7935 23.8502 18.1812 23.8715 18.4065 24.1212L18.9581 24.7334L20.6849 23.3385C20.9469 23.1268 21.3331 23.1664 21.546 23.4268C21.759 23.6872 21.7192 24.071 21.4572 24.2842L19.2768 26.0445C19.0224 26.2501 18.6516 26.2196 18.434 25.9775L17.4932 24.9329V24.9344ZM19.5097 21.1091C17.5193 21.1091 15.9027 22.7157 15.9027 24.6938C15.9027 26.6719 17.5193 28.2785 19.5097 28.2785C21.5001 28.2785 23.1166 26.6719 23.1166 24.6938C23.1166 22.7157 21.5001 21.1091 19.5097 21.1091ZM19.5097 19.8909C22.1773 19.8909 24.3424 22.0426 24.3424 24.6938C24.3424 27.345 22.1773 29.4967 19.5097 29.4967C16.842 29.4967 14.6769 27.345 14.6769 24.6938C14.6769 22.0426 16.842 19.8909 19.5097 19.8909ZM19.6629 17.2077C19.5465 17.5229 19.194 17.6859 18.8769 17.5701C18.5597 17.4544 18.3957 17.1042 18.5122 16.7889L19.8223 13.2393C19.9387 12.9241 20.2911 12.7611 20.6083 12.8769C20.9255 12.9926 21.0894 13.3428 20.973 13.6581L19.6629 17.2077ZM33.5375 4.21824C32.825 4.21824 32.2473 4.79233 32.2473 5.50044C32.2473 6.20854 32.8265 6.78263 33.5375 6.78263C34.2485 6.78263 34.8277 6.20701 34.8277 5.50044C34.8277 4.79386 34.2485 4.21824 33.5375 4.21824ZM3.51597 19.2178C2.80347 19.2178 2.22581 19.7919 2.22581 20.5C2.22581 21.2081 2.80347 21.7822 3.51597 21.7822C4.22847 21.7822 4.80613 21.2081 4.80613 20.5C4.80613 19.7919 4.22847 19.2178 3.51597 19.2178ZM33.5375 34.2174C32.825 34.2174 32.2473 34.7915 32.2473 35.4996C32.2473 36.2077 32.8265 36.7818 33.5375 36.7818C34.2485 36.7818 34.8277 36.2077 34.8277 35.4996C34.8277 34.7915 34.2485 34.2174 33.5375 34.2174ZM36.484 19.2178C35.7715 19.2178 35.1939 19.7919 35.1939 20.5C35.1939 21.2081 35.7715 21.7822 36.484 21.7822C37.1965 21.7822 37.7742 21.2081 37.7742 20.5C37.7742 19.7919 37.1965 19.2178 36.484 19.2178ZM5.41903 4.21824C4.70653 4.21824 4.12887 4.79233 4.12887 5.50044C4.12887 6.20854 4.70653 6.78263 5.41903 6.78263C6.13153 6.78263 6.70919 6.20701 6.70919 5.50044C6.70919 4.79386 6.13153 4.21824 5.41903 4.21824ZM27.4698 10.7724L26.5029 9.81148V10.7724H27.4698ZM25.2771 8.94957H10.6839V32.0504H28.337V11.9906H26.1382C25.6663 11.9906 25.2786 11.6038 25.2786 11.1363V8.9511L25.2771 8.94957ZM5.95685 21.1091C5.68258 22.1949 4.69274 23.0004 3.51597 23.0004C2.12774 23.0004 1 21.8797 1 20.5C1 19.1203 2.12774 17.9996 3.51597 17.9996C4.69274 17.9996 5.68258 18.8051 5.95685 19.8909H9.45653V15.0057H5.48185C5.14323 15.0057 4.86895 14.7332 4.86895 14.3966V7.94148C3.74427 7.69174 2.90306 6.69279 2.90306 5.50044C2.90306 4.12078 4.03081 3 5.41903 3C6.80726 3 7.935 4.12078 7.935 5.50044C7.935 6.64863 7.15508 7.6156 6.09476 7.9095V13.7875H9.45653V8.83232C9.45653 8.22472 9.95298 7.73133 10.5644 7.73133H25.6862C25.9911 7.73133 26.2547 7.84098 26.4677 8.05417L29.238 10.8074C29.4525 11.0191 29.5628 11.281 29.5628 11.584V13.789H32.9246V7.92778C31.8321 7.65519 31.0215 6.67147 31.0215 5.50196C31.0215 4.1223 32.1493 3.00152 33.5375 3.00152C34.9257 3.00152 36.0535 4.1223 36.0535 5.50196C36.0535 6.67147 35.2429 7.65519 34.1504 7.92778V14.3981C34.1504 14.7347 33.8761 15.0073 33.5375 15.0073H29.5628V19.8924H34.0431C34.3174 18.8066 35.3073 18.0011 36.484 18.0011C37.8723 18.0011 39 19.1219 39 20.5015C39 21.8812 37.8723 23.002 36.484 23.002C35.3073 23.002 34.3174 22.1964 34.0431 21.1106H29.5628V25.9943H33.5375C33.8761 25.9943 34.1504 26.2668 34.1504 26.6034V33.0737C35.2429 33.3463 36.0535 34.3301 36.0535 35.4996C36.0535 36.8792 34.9257 38 33.5375 38C32.1493 38 31.0215 36.8792 31.0215 35.4996C31.0215 34.3301 31.8321 33.3463 32.9246 33.0737V27.2125H29.5628V32.1707C29.5628 32.7753 29.0648 33.2702 28.4565 33.2702H10.5644C9.95298 33.2702 9.45653 32.7753 9.45653 32.1707V27.2125H6.09476V33.0905C7.15508 33.3844 7.935 34.3529 7.935 35.4996C7.935 36.8792 6.80726 38 5.41903 38C4.03081 38 2.90306 36.8792 2.90306 35.4996C2.90306 34.3072 3.74427 33.3083 4.86895 33.0585V26.6034C4.86895 26.2668 5.14323 25.9943 5.48185 25.9943H9.45653V21.1106H5.95685V21.1091Z" fill="white"/>
</svg>
