<svg width="24" height="24" viewBox="0 0 24 24" fill="none" xmlns="http://www.w3.org/2000/svg">
<path d="M21.1667 4C21.2761 4 21.3845 4.02094 21.4856 4.06162C21.5867 4.10231 21.6785 4.16194 21.7559 4.23712C21.8333 4.31229 21.8947 4.40154 21.9366 4.49976C21.9784 4.59798 22 4.70325 22 4.80956V17.085C22 17.2997 21.9122 17.5056 21.7559 17.6574C21.5996 17.8092 21.3877 17.8945 21.1667 17.8945H12.0825L6.57417 20.8964C6.48121 20.9472 6.37909 20.9801 6.27333 20.9935L6.16667 21C5.96243 21 5.76532 20.927 5.61277 20.7951C5.46022 20.6632 5.36286 20.4814 5.33917 20.2843L5.33333 20.1912V17.8953H2.83333C2.7239 17.8953 2.61554 17.8744 2.51443 17.8337C2.41333 17.793 2.32146 17.7334 2.24408 17.6582C2.0878 17.5064 2 17.3005 2 17.0858V4.80956C2 4.70325 2.02155 4.59798 2.06343 4.49976C2.10531 4.40154 2.1667 4.31229 2.24408 4.23712C2.40036 4.08529 2.61232 4 2.83333 4H21.1667ZM20.75 5.21434H3.25V16.6802H6.58333L6.58167 19.4991L11.7558 16.6802H20.75V5.21434Z" fill="#3D99ED" stroke="#3D99ED" stroke-width="0.6"/>
<path d="M15.348 7C15.5132 7.00005 15.6723 7.06669 15.7931 7.18644C15.9138 7.30619 15.9872 7.47012 15.9985 7.64512C16.0097 7.82012 15.958 7.99313 15.8537 8.1292C15.7494 8.26527 15.6004 8.35424 15.4367 8.37815L15.348 8.38462H6.652C6.48676 8.38456 6.32769 8.31793 6.20695 8.19818C6.0862 8.07843 6.01278 7.91449 6.00152 7.7395C5.99025 7.5645 6.04199 7.39148 6.14627 7.25542C6.25055 7.11935 6.3996 7.03037 6.5633 7.00646L6.652 7H15.348ZM11.8696 11.6154C12.0348 11.6154 12.1939 11.6821 12.3147 11.8018C12.4354 11.9216 12.5088 12.0855 12.5201 12.2605C12.5313 12.4355 12.4796 12.6085 12.3753 12.7446C12.2711 12.8807 12.122 12.9696 11.9583 12.9935L11.8696 13H6.652C6.48676 12.9999 6.32769 12.9333 6.20695 12.8136C6.0862 12.6938 6.01278 12.5299 6.00152 12.3549C5.99025 12.1799 6.04199 12.0069 6.14627 11.8708C6.25055 11.7347 6.3996 11.6458 6.5633 11.6218L6.652 11.6154H11.8696Z" fill="#3D99ED" stroke="#3D99ED" stroke-width="0.6"/>
</svg>
