<svg width="24" height="24" viewBox="0 0 24 24" fill="none" xmlns="http://www.w3.org/2000/svg">
<g opacity="0.8">
<path d="M19.9775 10.2793C18.4024 10.2793 16.8705 9.74609 15.6105 8.75977V15.6406C15.6105 19.1543 13.0116 22 9.80523 22C6.59885 22 4 19.1543 4 15.6406C4 12.127 6.59885 9.28125 9.80523 9.28125C10.1259 9.28125 10.4371 9.31055 10.7409 9.36523V13.0098C10.4503 12.8906 10.1409 12.8301 9.8296 12.8301C8.39892 12.8301 7.23825 14.0996 7.23825 15.668C7.23825 17.2344 8.39892 18.5059 9.8296 18.5059C11.2584 18.5059 12.4191 17.2344 12.4191 15.668V2H15.6573C15.6573 4.62695 17.6018 6.75586 20 6.75586V10.2773L19.9775 10.2793Z" fill="white"/>
</g>
</svg>
