<svg width="24" height="24" viewBox="0 0 24 24" fill="none" xmlns="http://www.w3.org/2000/svg">
<g opacity="0.8">
<path d="M6.66182 18.964C6.60633 18.8969 6.55459 18.8268 6.50682 18.754C6.26882 18.401 5.99182 17.849 5.70182 17.127C5.12682 15.695 4.56382 13.755 4.16582 11.801C3.76582 9.836 3.54982 7.932 3.62882 6.557C3.66882 5.857 3.78182 5.396 3.91182 5.141C3.93663 5.09043 3.96753 5.04308 4.00382 5C4.29582 5 4.74382 5.162 5.35982 5.651C5.95982 6.127 6.60982 6.825 7.28682 7.683C8.52282 9.248 9.75082 11.215 10.8388 13.009C10.6588 13.324 10.4688 13.669 10.2738 14.023L9.99582 14.525C9.58011 15.2882 9.13852 16.0369 8.67182 16.77C8.20682 17.485 7.75382 18.082 7.32782 18.49C7.02782 18.779 6.80682 18.91 6.66182 18.964ZM12.0018 11.076C11.0398 9.514 9.95982 7.84 8.85682 6.444C8.13582 5.53 7.37582 4.697 6.60282 4.084C5.84782 3.486 4.96082 3 4.00282 3C3.07982 3 2.46582 3.57 2.12882 4.234C1.81382 4.854 1.67882 5.642 1.63282 6.443C1.53882 8.068 1.79282 10.164 2.20582 12.199C2.62182 14.245 3.21582 16.305 3.84582 17.873C4.15882 18.651 4.49582 19.349 4.84582 19.87C5.02082 20.13 5.22382 20.384 5.45982 20.583C5.68482 20.775 6.04182 21 6.50182 21C7.39682 21 8.14982 20.474 8.71282 19.933C9.30182 19.368 9.85282 18.623 10.3488 17.86C10.8488 17.09 11.3218 16.257 11.7448 15.496L11.9938 15.046L12.0178 15.091L12.2278 15.484C12.6378 16.244 13.0948 17.079 13.5858 17.851C14.0718 18.617 14.6208 19.369 15.2248 19.939C15.8138 20.495 16.5818 21 17.5018 21C17.9618 21 18.3188 20.774 18.5448 20.583C18.7798 20.383 18.9838 20.13 19.1578 19.871C19.5078 19.349 19.8458 18.651 20.1578 17.873C20.7878 16.305 21.3818 14.245 21.7978 12.199C22.2118 10.165 22.4658 8.068 22.3718 6.443C22.3258 5.643 22.1918 4.854 21.8758 4.234C21.5378 3.57 20.9258 3 20.0018 3C19.0438 3 18.1558 3.485 17.4018 4.084C16.6288 4.697 15.8688 5.53 15.1468 6.444C14.0448 7.84 12.9638 9.514 12.0018 11.076ZM13.1638 13.011C14.2528 11.216 15.4808 9.248 16.7168 7.683C17.3938 6.826 18.0438 6.127 18.6438 5.651C19.2608 5.161 19.7078 5.001 19.9998 5C20.0364 5.0427 20.0676 5.08972 20.0928 5.14C20.2228 5.396 20.3348 5.858 20.3748 6.557C20.4548 7.932 20.2378 9.836 19.8378 11.801C19.4408 13.755 18.8778 15.695 18.3018 17.127C18.0118 17.849 17.7358 18.401 17.4978 18.755C17.4476 18.8309 17.3928 18.9037 17.3338 18.973C17.1608 18.921 16.9168 18.787 16.5978 18.485C16.1718 18.082 15.7268 17.491 15.2738 16.779C14.8193 16.0472 14.391 15.2994 13.9898 14.537L13.7898 14.163C13.5748 13.762 13.3648 13.368 13.1638 13.011Z" fill="white"/>
</g>
</svg>
