<svg width="24" height="24" viewBox="0 0 24 24" fill="none" xmlns="http://www.w3.org/2000/svg">
<path d="M16.5414 14.1767C16.3068 13.9427 15.9889 13.8112 15.6575 13.8112C15.3261 13.8112 15.0082 13.9427 14.7736 14.1767L13.8897 15.0606C13.3897 15.5606 11.7706 15.063 10.3542 13.6464C8.93782 12.2298 8.43922 10.6116 8.94 10.1109L8.9411 10.1098L9.82391 9.22703C10.058 8.99241 10.1894 8.67453 10.1894 8.34313C10.1894 8.01172 10.058 7.69385 9.82391 7.45922L5.93469 3.57016C5.70009 3.33612 5.38224 3.20468 5.05086 3.20468C4.71948 3.20468 4.40163 3.33612 4.16703 3.57016L3.28313 4.45406C2.63 5.10719 2.23219 5.96625 2.10047 7.0075C1.97828 7.97328 2.09094 9.05641 2.43516 10.2263C3.12563 12.5763 4.68282 15.0469 6.8186 17.182C8.95438 19.3172 11.4245 20.875 13.7738 21.5655C14.6392 21.82 15.4569 21.948 16.2147 21.948C16.4749 21.9484 16.7349 21.9324 16.9931 21.9002C18.0344 21.7684 18.8934 21.3706 19.5466 20.7175L20.4305 19.8336C20.6645 19.599 20.796 19.2811 20.796 18.9498C20.796 18.6184 20.6645 18.3005 20.4305 18.0659L16.5414 14.1767ZM19.7233 19.1266L18.8395 20.0105C17.8416 21.0083 16.1428 21.2198 14.0559 20.6061C11.8644 19.9616 9.54532 18.4944 7.52579 16.4748C5.50625 14.4553 4.03907 12.1363 3.39454 9.94469C2.78078 7.85797 2.99235 6.15906 3.99016 5.1611L4.87407 4.27735C4.89728 4.25413 4.92484 4.23571 4.95518 4.22314C4.98551 4.21057 5.01803 4.2041 5.05086 4.2041C5.0837 4.2041 5.11621 4.21057 5.14655 4.22314C5.17688 4.23571 5.20444 4.25413 5.22766 4.27735L9.11672 8.16641C9.13994 8.18962 9.15836 8.21719 9.17093 8.24752C9.1835 8.27786 9.18997 8.31037 9.18997 8.34321C9.18997 8.37604 9.1835 8.40855 9.17093 8.43889C9.15836 8.46922 9.13994 8.49679 9.11672 8.52L8.23282 9.40375C7.71422 9.92188 7.61 10.7536 7.94047 11.7439C8.23172 12.6175 8.83782 13.5442 9.64704 14.3533C10.4563 15.1623 11.3831 15.7686 12.2564 16.0598C12.6364 16.1866 12.9928 16.2492 13.3172 16.2492C13.8383 16.2492 14.2769 16.0872 14.5966 15.7675L15.4803 14.8836C15.5035 14.8604 15.5311 14.842 15.5614 14.8294C15.5918 14.8168 15.6243 14.8104 15.6571 14.8104C15.6899 14.8104 15.7225 14.8168 15.7528 14.8294C15.7831 14.842 15.8107 14.8604 15.8339 14.8836L19.723 18.7727C19.7463 18.7959 19.7647 18.8234 19.7774 18.8538C19.79 18.8841 19.7965 18.9167 19.7965 18.9495C19.7966 18.9824 19.7901 19.015 19.7775 19.0453C19.765 19.0757 19.7465 19.1033 19.7233 19.1266ZM13.5006 5.5C13.5006 5.43434 13.5136 5.36932 13.5387 5.30866C13.5638 5.248 13.6006 5.19288 13.6471 5.14645C13.6935 5.10002 13.7486 5.06319 13.8093 5.03806C13.87 5.01293 13.935 5 14.0006 5C14.6572 5 15.3074 5.12933 15.914 5.3806C16.5207 5.63188 17.0719 6.00018 17.5362 6.46447C18.0005 6.92876 18.3688 7.47996 18.62 8.08659C18.8713 8.69321 19.0006 9.34339 19.0006 10C19.0006 10.1326 18.948 10.2598 18.8542 10.3536C18.7604 10.4473 18.6332 10.5 18.5006 10.5C18.368 10.5 18.2408 10.4473 18.1471 10.3536C18.0533 10.2598 18.0006 10.1326 18.0006 10C18.0006 7.79438 16.2063 6 14.0006 6C13.868 6 13.7408 5.94732 13.6471 5.85356C13.5533 5.75979 13.5006 5.63261 13.5006 5.5ZM13.5006 8.5C13.5006 8.43434 13.5136 8.36932 13.5387 8.30866C13.5638 8.248 13.6006 8.19288 13.6471 8.14645C13.6935 8.10002 13.7486 8.06319 13.8093 8.03806C13.87 8.01294 13.935 8 14.0006 8C14.5309 8.00058 15.0393 8.21148 15.4142 8.58643C15.7892 8.96138 16.0001 9.46975 16.0006 10C16.0006 10.1326 15.948 10.2598 15.8542 10.3536C15.7604 10.4473 15.6332 10.5 15.5006 10.5C15.368 10.5 15.2408 10.4473 15.1471 10.3536C15.0533 10.2598 15.0006 10.1326 15.0006 10C15.0003 9.73487 14.8949 9.48069 14.7074 9.29322C14.5199 9.10574 14.2658 9.00029 14.0006 9C13.868 9 13.7408 8.94732 13.6471 8.85356C13.5533 8.75979 13.5006 8.63261 13.5006 8.5ZM22.0006 10C22.0006 10.1326 21.948 10.2598 21.8542 10.3536C21.7604 10.4473 21.6332 10.5 21.5006 10.5C21.368 10.5 21.2408 10.4473 21.1471 10.3536C21.0533 10.2598 21.0006 10.1326 21.0006 10C21.0006 6.14063 17.86 3 14.0006 3C13.868 3 13.7408 2.94732 13.6471 2.85356C13.5533 2.75979 13.5006 2.63261 13.5006 2.5C13.5006 2.36739 13.5533 2.24022 13.6471 2.14645C13.7408 2.05268 13.868 2 14.0006 2C15.0514 1.9992 16.0921 2.20558 17.063 2.60733C18.034 3.00909 18.9162 3.59833 19.6593 4.34136C20.4023 5.08439 20.9915 5.96662 21.3933 6.93759C21.7951 7.90855 22.0014 8.9492 22.0006 10Z" fill="#3D99ED" stroke="#3D99ED" stroke-width="0.6"/>
</svg>
