<svg width="24" height="24" viewBox="0 0 24 24" fill="none" xmlns="http://www.w3.org/2000/svg">
<g opacity="0.8">
<path d="M15.5389 8.84098C15.769 8.84098 15.996 8.85768 16.2207 8.88193C15.6084 6.08131 12.5591 4 9.07887 4C5.18765 4 2 6.60502 2 9.91261C2 11.8215 3.06074 13.3894 4.83264 14.6054L4.12475 16.6973L6.59911 15.4783C7.48506 15.6501 8.19509 15.8274 9.07887 15.8274C9.3009 15.8274 9.52074 15.8166 9.73952 15.7994C9.60108 15.335 9.52074 14.8479 9.52074 14.3431C9.52076 11.3059 12.1764 8.84098 15.5389 8.84098ZM11.7335 6.95578C12.2665 6.95578 12.6194 7.30059 12.6194 7.82376C12.6194 8.34476 12.2665 8.69389 11.7335 8.69389C11.2025 8.69389 10.6705 8.34476 10.6705 7.82376C10.6705 7.30059 11.2025 6.95578 11.7335 6.95578ZM6.77933 8.69387C6.24839 8.69387 5.71313 8.34474 5.71313 7.82374C5.71313 7.30057 6.24839 6.95576 6.77933 6.95576C7.30968 6.95576 7.66309 7.30057 7.66309 7.82374C7.66309 8.34476 7.30968 8.69387 6.77933 8.69387ZM22 14.2595C22 11.4799 19.1679 9.21435 15.9873 9.21435C12.6194 9.21435 9.96698 11.4799 9.96698 14.2595C9.96698 17.0432 12.6194 19.3039 15.9873 19.3039C16.6919 19.3039 17.4031 19.1304 18.1109 18.9559L20.0528 20L19.5202 18.263C20.9415 17.2156 22 15.8274 22 14.2595ZM14.0352 13.3894C13.6829 13.3894 13.3273 13.0451 13.3273 12.6938C13.3273 12.3474 13.6829 11.9988 14.0352 11.9988C14.5704 11.9988 14.9211 12.3474 14.9211 12.6938C14.9211 13.0451 14.5704 13.3894 14.0352 13.3894ZM17.9285 13.3894C17.579 13.3894 17.2256 13.0451 17.2256 12.6938C17.2256 12.3474 17.579 11.9988 17.9285 11.9988C18.4595 11.9988 18.8145 12.3474 18.8145 12.6938C18.8145 13.0451 18.4595 13.3894 17.9285 13.3894Z" fill="white"/>
</g>
</svg>
