<svg width="24" height="24" viewBox="0 0 24 24" fill="none" xmlns="http://www.w3.org/2000/svg">
<g opacity="0.8">
<path d="M12 2C10.0222 2 8.08879 2.58649 6.4443 3.6853C4.79981 4.78412 3.51809 6.3459 2.76121 8.17316C2.00433 10.0004 1.8063 12.0111 2.19215 13.9509C2.578 15.8907 3.53041 17.6725 4.92894 19.0711C6.32746 20.4696 8.10929 21.422 10.0491 21.8078C11.9889 22.1937 13.9996 21.9957 15.8268 21.2388C17.6541 20.4819 19.2159 19.2002 20.3147 17.5557C21.4135 15.9112 22 13.9778 22 12C22 9.34783 20.9464 6.8043 19.0711 4.92893C17.1957 3.05357 14.6522 2 12 2ZM17.014 10.988C16.6243 11.6128 16.0163 12.0704 15.308 12.272C15.1536 12.3224 14.9924 12.3494 14.83 12.352C14.6799 12.3511 14.5363 12.2909 14.4305 12.1845C14.3247 12.078 14.2653 11.9341 14.2653 11.784C14.2653 11.6339 14.3247 11.49 14.4305 11.3835C14.5363 11.2771 14.6799 11.2169 14.83 11.216C14.8732 11.217 14.9162 11.2088 14.956 11.192C15.4109 11.0789 15.8031 10.7916 16.048 10.392C16.1905 10.1591 16.2653 9.89106 16.264 9.61801C16.264 8.72 15.434 7.98 14.422 7.98C14.0718 7.98074 13.7276 8.07092 13.422 8.24199C13.1701 8.37464 12.9582 8.57209 12.8081 8.81397C12.6579 9.05585 12.5751 9.33341 12.568 9.61801V14.388C12.563 14.8712 12.4287 15.3442 12.179 15.7578C11.9293 16.1714 11.5733 16.5106 11.148 16.74C10.6726 17.0073 10.1354 17.1452 9.59 17.14C7.942 17.14 6.59 15.9 6.59 14.366C6.59292 13.8848 6.72632 13.4134 6.976 13.002C7.36569 12.3772 7.97374 11.9195 8.682 11.718C8.83662 11.6683 8.99764 11.6414 9.16 11.638C9.23487 11.6376 9.30909 11.6519 9.37839 11.6803C9.44769 11.7086 9.5107 11.7504 9.5638 11.8032C9.61689 11.856 9.65903 11.9187 9.68779 11.9879C9.71654 12.057 9.73134 12.1311 9.73134 12.206C9.73134 12.2809 9.71654 12.355 9.68779 12.4241C9.65903 12.4933 9.61689 12.556 9.5638 12.6088C9.5107 12.6616 9.44769 12.7034 9.37839 12.7317C9.30909 12.7601 9.23487 12.7744 9.16 12.774C9.11678 12.773 9.07384 12.7812 9.03401 12.798C8.58305 12.9193 8.19362 13.2046 7.94202 13.598C7.79952 13.8309 7.72472 14.0989 7.726 14.372C7.726 15.27 8.556 16.01 9.58 16.01C9.93021 16.0093 10.2744 15.9191 10.58 15.748C10.8315 15.6151 11.0431 15.4175 11.1928 15.1757C11.3426 14.9338 11.4251 14.6564 11.432 14.372V9.62402C11.4374 9.14046 11.5722 8.66716 11.8222 8.25323C12.0723 7.83931 12.4285 7.49983 12.854 7.27002C13.3208 6.99028 13.8558 6.84494 14.4 6.85002C16.048 6.85002 17.4 8.09002 17.4 9.62402C17.3971 10.1052 17.2637 10.5766 17.014 10.988V10.988Z" fill="white"/>
</g>
</svg>
