<svg width="24" height="24" viewBox="0 0 24 24" fill="none" xmlns="http://www.w3.org/2000/svg">
<path d="M21.4766 20.0887H2.47504C2.34905 20.0887 2.22822 20.1367 2.13914 20.2221C2.05005 20.3076 2 20.4235 2 20.5443C2 20.6652 2.05005 20.7811 2.13914 20.8665C2.22822 20.952 2.34905 21 2.47504 21H21.4766C21.6025 21 21.7234 20.952 21.8125 20.8665C21.9015 20.7811 21.9516 20.6652 21.9516 20.5443C21.9516 20.4235 21.9015 20.3076 21.8125 20.2221C21.7234 20.1367 21.6025 20.0887 21.4766 20.0887ZM20.574 3.63881C20.4306 3.4652 20.2529 3.32041 20.0511 3.21271C19.8493 3.10501 19.6273 3.0365 19.3979 3.01111C19.1685 2.98572 18.9362 3.00394 18.7141 3.06473C18.4921 3.12553 18.2847 3.2277 18.1038 3.3654L16.7737 4.36789L5.13525 13.3447C4.9327 13.5056 4.77037 13.708 4.66021 13.937L2.80756 17.8103C2.77627 17.879 2.76315 17.9542 2.76939 18.029C2.77563 18.1037 2.80103 18.1759 2.84332 18.239C2.88562 18.3021 2.94352 18.3543 3.01186 18.3908C3.08021 18.4272 3.15689 18.447 3.2351 18.4482H3.33011L7.65295 17.5369C7.91253 17.4835 8.15615 17.3745 8.36551 17.2179L20.0039 8.28669L21.334 7.2842C21.515 7.14662 21.666 6.97618 21.7783 6.78261C21.8905 6.58905 21.9619 6.37616 21.9884 6.1561C22.0149 5.93605 21.9959 5.71315 21.9325 5.50015C21.8691 5.28714 21.7626 5.0882 21.6191 4.9147L20.574 3.63881ZM7.79546 16.4888L7.46294 16.6255L4.09017 17.3546L5.56278 14.3472L5.8003 14.0737L17.0587 5.41594L18.1038 6.64626L19.1489 7.87658L7.79546 16.4888ZM21.049 6.05388C21.024 6.24968 20.9221 6.42895 20.764 6.55512L19.8139 7.2842L18.7688 6.05388L17.7238 4.82356L18.6738 4.09448C18.8401 3.98033 19.0454 3.93096 19.2482 3.95633C19.451 3.9817 19.6362 4.07993 19.7664 4.23119L20.859 5.50707C20.9933 5.65911 21.0614 5.85495 21.049 6.05388Z" fill="#3D99ED" stroke="#3D99ED" stroke-width="0.6"/>
</svg>
