<svg width="64" height="64" viewBox="0 0 64 64" fill="none" xmlns="http://www.w3.org/2000/svg">
<path d="M32.0149 25.2353C36.596 25.2353 40.2465 21.5647 40.2465 17.1176C40.2465 12.6 36.5244 9 32.0149 9C27.5055 9 23.7834 12.6706 23.7834 17.1176C23.7834 21.6353 27.4339 25.2353 32.0149 25.2353ZM32.0149 10.6941C35.5939 10.6941 38.5286 13.5882 38.5286 17.1176C38.5286 20.6471 35.5939 23.5412 32.0149 23.5412C28.436 23.5412 25.5013 20.6471 25.5013 17.1176C25.5013 13.5882 28.436 10.6941 32.0149 10.6941ZM22.495 32.5059C24.8571 29.8235 28.2928 28.2706 31.8718 28.2706C35.5939 28.2706 39.1012 29.8941 41.4633 32.7176C41.6065 32.9294 41.8928 33 42.1075 33C42.3223 33 42.4654 32.9294 42.6802 32.7882C43.0381 32.5059 43.1096 31.9412 42.8233 31.5882C40.1033 28.3412 36.1665 26.5059 31.8718 26.5059C27.7918 26.5059 23.855 28.2706 21.2065 31.3059C20.9202 31.6588 20.9202 32.2235 21.2781 32.5059C21.636 32.8588 22.2086 32.8588 22.495 32.5059Z" fill="white" stroke="white" stroke-width="0.6"/>
<path d="M48.249 32.1162C47.8394 32.0458 39.0321 30.9192 32.0683 37.4675C26.1285 30.2855 16.0241 32.6795 15.6145 32.7499C15.2731 32.8203 15 33.1724 15 33.5948V49.015C15 49.3671 15.2048 49.7191 15.5462 49.7895L31.7269 54.9296C31.7952 54.9296 31.8635 55 32 55C32.1365 55 32.1365 55 32.2731 54.9296L48.4538 49.7895C48.7952 49.6487 49 49.3671 49 49.015V32.8907C48.9317 32.4682 48.6586 32.1162 48.249 32.1162ZM47.2932 48.3813L31.9317 53.2397L16.5703 48.3813V34.2989C18.8233 33.9469 26.6747 33.1724 31.1124 39.0165V48.3813C31.1124 48.8742 31.4538 49.2262 31.9317 49.2262C32.4096 49.2262 32.751 48.8742 32.751 48.3813V39.0869C38.1446 33.7356 45.1084 33.5948 47.2932 33.7356V48.3813Z" fill="white" stroke="white" stroke-width="0.6"/>
</svg>
