<svg width="40" height="40" viewBox="0 0 40 40" fill="none" xmlns="http://www.w3.org/2000/svg">
<path d="M18.6622 37.0082L7.41406 30.5918V10.2158L18.6622 16.6322V21.8925L13.5308 18.9617L12.0348 18.1073V19.83V27.3939V27.9749L12.5395 28.2627L18.6622 31.7536V37.0082Z" stroke="white" stroke-width="2"/>
<path d="M20.1645 7.62969L19.6379 7.32663L19.1263 7.65441L11.9017 12.283L7.42188 9.68933L7.42268 9.06654L19.6662 2.08984L31.9252 9.0631V9.73575L27.8563 12.0562L20.1645 7.62969Z" stroke="white" stroke-width="2"/>
<path d="M31.9125 15.4709L27.2852 18.1092V12.8541L31.9125 10.2158V15.4709Z" stroke="white" stroke-width="2"/>
<path d="M19.6721 37.5366L19.1172 37.1931V31.5294L31.9068 25.2266V30.5939L19.6721 37.5366Z" stroke="white" stroke-width="2"/>
</svg>
