<svg width="64" height="64" viewBox="0 0 64 64" fill="none" xmlns="http://www.w3.org/2000/svg">
<path d="M34.5773 29.5848L23.2675 31.8712C20.8653 32.3569 18.6857 33.6025 17.0544 35.4219L10.443 42.7957C10.1834 43.0852 10.0287 43.4528 10.0036 43.8399C9.97853 44.227 10.0845 44.6113 10.3045 44.9316L15.3291 52.2431C15.9833 53.195 17.3717 53.2605 18.1137 52.3746L21.6696 48.1297C21.8319 47.9359 22.0348 47.7795 22.2641 47.6715C22.4933 47.5635 22.7435 47.5065 22.9972 47.5044L35.0291 47.4043C38.1625 47.3782 41.2394 46.5728 43.9797 45.0617L52.1133 40.5764C52.8227 40.1852 53.4408 39.6492 53.9271 39.0036C54.4133 38.358 54.7567 37.6174 54.9346 36.8304C55.055 36.2981 55.0084 35.7419 54.8012 35.2367C54.2411 33.8718 52.6743 33.2165 51.3014 33.7732L50.1537 34.2392L40.7018 38.4689C39.9128 38.822 39.0575 39.0046 38.1923 39.0046H32.3969L32.2902 39.0037C30.9787 38.9793 29.7158 38.5056 28.7149 37.6627L28.6542 37.6106L30.4546 37.0319L31.251 36.7729L32.5144 36.356L33.0036 36.1916L33.5628 35.9999L33.9661 35.8577L34.017 35.8395C36.0478 35.1069 36.9623 33.3316 36.657 31.0569C36.5229 30.0603 35.5685 29.3844 34.5773 29.5848ZM34.9254 31.2871C35.1285 32.7983 34.6269 33.7715 33.4213 34.2066L33.1562 34.3009L32.5743 34.5019L31.8578 34.7429L30.6928 35.1268L29.2883 35.5822L27.1959 36.2516L27.0431 36.3002C26.8607 36.3582 26.6969 36.4628 26.5681 36.6037C26.4392 36.7445 26.3499 36.9165 26.309 37.1024C26.2681 37.2884 26.2772 37.4818 26.3352 37.6632C26.3932 37.8446 26.4981 38.0077 26.6395 38.1361L27.3772 38.8057C28.7488 40.0511 30.5392 40.7416 32.3967 40.7416H38.1923C39.3047 40.7417 40.4043 40.507 41.4187 40.0531L50.8422 35.8358L51.9613 35.382C52.1199 35.3176 52.2932 35.2977 52.4624 35.3245C52.6316 35.3512 52.7901 35.4235 52.9209 35.5335C53.0517 35.6435 53.1496 35.787 53.2041 35.9485C53.2586 36.11 53.2676 36.2832 53.23 36.4494C53.1062 36.9972 52.8672 37.5129 52.5287 37.9623C52.1902 38.4118 51.7599 38.785 51.2661 39.0573L43.1324 43.5426C40.647 44.9132 37.8562 45.6436 35.0143 45.6672L22.9826 45.7673C22.4752 45.7716 21.9748 45.8857 21.5163 46.1016C21.0577 46.3176 20.652 46.6303 20.3273 47.018L16.7714 51.2629L11.7468 43.9517L18.3585 36.5779C19.7388 35.0384 21.583 33.9845 23.6156 33.5735L34.9254 31.2871ZM37.9017 10C38.1913 10 38.469 10.1144 38.6737 10.318C38.8785 10.5216 38.9935 10.7977 38.9935 11.0857C38.9935 11.3736 38.8785 11.6497 38.6737 11.8533C38.469 12.0569 38.1913 12.1713 37.9017 12.1713C30.7863 12.1713 25.0182 17.9068 25.0182 24.982C25.0182 25.27 24.9031 25.5461 24.6984 25.7497C24.4936 25.9533 24.2159 26.0677 23.9264 26.0677C23.6368 26.0677 23.3591 25.9533 23.1543 25.7497C22.9496 25.5461 22.8345 25.27 22.8345 24.982C22.8345 16.7076 29.5803 10 37.9017 10ZM38.4753 18.5335C38.2764 18.7313 38.162 18.9979 38.1559 19.2775C38.1498 19.5572 38.2525 19.8285 38.4426 20.0347L38.4753 20.0688L43.1075 24.6748C43.3065 24.8727 43.5746 24.9865 43.8559 24.9926C44.1373 24.9987 44.4101 24.8965 44.6175 24.7074L44.6516 24.6748L53.9161 15.4628C54.1186 15.2622 54.2338 14.9907 54.2371 14.7065C54.2405 14.4223 54.1316 14.1482 53.9339 13.943C53.7363 13.7377 53.4656 13.6177 53.1799 13.6087C52.8943 13.5998 52.6165 13.7025 52.4061 13.8949L52.3721 13.9275L43.8797 22.3717L40.0194 18.5332C39.8204 18.3354 39.5524 18.2216 39.2711 18.2156C38.9898 18.2095 38.717 18.3116 38.5096 18.5007L38.4753 18.5332V18.5335Z" fill="white" stroke="white" stroke-width="0.6"/>
</svg>
