<svg width="64" height="64" viewBox="0 0 64 64" fill="none" xmlns="http://www.w3.org/2000/svg">
<path d="M30.8958 35.9724C30.8958 35.4717 31.3063 35.0613 31.8069 35.0613H45.8903C46.4154 35.0613 46.8014 35.4684 46.8014 35.9724C46.8014 36.473 46.3909 36.8835 45.8903 36.8835H31.8069C31.3063 36.8835 30.8958 36.473 30.8958 35.9724Z" fill="white"/>
<path d="M30.8958 41.6391C30.8958 41.1384 31.3063 40.7279 31.8069 40.7279H45.8903C46.4154 40.7279 46.8014 41.1351 46.8014 41.6391C46.8014 42.1397 46.3909 42.5502 45.8903 42.5502H31.8069C31.3063 42.5502 30.8958 42.1397 30.8958 41.6391Z" fill="white"/>
<path fill-rule="evenodd" clip-rule="evenodd" d="M16.4236 19.5557C16.4236 14.8606 20.223 11.0613 24.9181 11.0613C29.6132 11.0613 33.4403 14.8884 33.4403 19.5835C33.4403 22.5415 31.9208 25.1738 29.5867 26.6937L29.2412 26.9186L29.6318 27.0507C31.4928 27.6802 33.2186 28.7208 34.6988 30.0914L34.7563 30.1446H48.6125C50.7243 30.1446 52.4403 31.8606 52.4403 33.9724V43.6946C52.4403 45.8064 50.7243 47.5224 48.6125 47.5224H37.803L32.1046 53.6697L32.1009 53.674C31.9432 53.8543 31.7196 53.9668 31.4458 53.9668C30.9452 53.9668 30.5347 53.5564 30.5347 53.0557V47.5224H29.0847C26.973 47.5224 25.2569 45.8064 25.2569 43.6946V33.9724C25.2569 31.8606 26.973 30.1446 29.0847 30.1446H31.8536L31.2131 29.7718C29.3217 28.6708 27.1759 28.0779 24.9181 28.0779C18.0301 28.0779 12.3847 33.695 12.3847 40.6113C12.3847 41.1119 11.9743 41.5224 11.4736 41.5224C10.973 41.5224 10.5625 41.1119 10.5625 40.6113C10.5625 34.3384 14.6167 28.9956 20.2335 27.0503L20.6169 26.9175L20.2781 26.6943C17.9704 25.1739 16.4236 22.5408 16.4236 19.5557ZM24.9458 12.8557C21.252 12.8557 18.2458 15.8619 18.2458 19.5557C18.2458 23.2484 21.2232 26.2557 24.9181 26.2557C28.6118 26.2557 31.6181 23.2495 31.6181 19.5557C31.6181 15.8631 28.6407 12.8557 24.9458 12.8557ZM29.0847 31.9668C27.9743 31.9668 27.0792 32.8619 27.0792 33.9724V43.6946C27.0792 44.8051 27.9743 45.7002 29.0847 45.7002H31.4458C31.9465 45.7002 32.3569 46.1106 32.3569 46.6113V50.7311L36.759 45.9975L36.763 45.993C36.9207 45.8127 37.1443 45.7002 37.4181 45.7002H48.6125C49.723 45.7002 50.618 44.8051 50.618 43.6946V33.9724C50.618 32.8619 49.723 31.9668 48.6125 31.9668H29.0847Z" fill="white"/>
</svg>
