<svg width="64" height="64" viewBox="0 0 64 64" fill="none" xmlns="http://www.w3.org/2000/svg">
<path d="M15.0625 14.5346C15.0625 12.5319 16.7602 10.8696 18.872 10.8696H39.663C44.6618 10.8696 48.6915 14.7472 48.6915 19.4731V49.5546C48.6915 50.2135 48.1504 50.7546 47.4915 50.7546C46.8326 50.7546 46.2915 50.2135 46.2915 49.5546V19.4731C46.2915 16.0185 43.2789 13.2696 39.663 13.2696H18.872C18.1804 13.2696 17.4625 13.7547 17.4625 14.5346V48.1038L39.9536 43.747L39.9583 43.7461C40.5972 43.6159 41.2297 44.0424 41.3566 44.6942C41.4163 45.0058 41.3501 45.3284 41.1725 45.5913C40.995 45.8542 40.7198 46.0363 40.4085 46.0974L16.4817 50.7314L16.4731 50.7334C16.4079 50.7485 16.3449 50.7546 16.2625 50.7546C15.9875 50.7546 15.7185 50.659 15.5031 50.4795L15.5014 50.4781C15.223 50.2481 15.0625 49.9124 15.0625 49.5546V14.5346Z" fill="white"/>
<path fill-rule="evenodd" clip-rule="evenodd" d="M26.699 24.1226C26.699 23.2731 27.1728 22.4886 27.9316 22.0811C28.3019 21.8826 28.7196 21.7894 29.1393 21.8115C29.5573 21.8336 29.9614 21.9693 30.308 22.2041L37.5709 27.3774L37.5772 27.3818C38.3175 27.892 38.7549 28.7241 38.755 29.6217C38.7538 30.0668 38.6439 30.5049 38.4349 30.898C38.2258 31.2912 37.9236 31.6272 37.5549 31.8771L30.3447 37.0212C29.9232 37.2979 29.4601 37.4351 29.004 37.4351C28.6352 37.4351 28.2668 37.3446 27.9332 37.1639L27.9267 37.1606C27.1672 36.7634 26.699 35.9833 26.699 35.1216V24.1226ZM36.5714 29.6221L29.099 24.2907V34.9536L36.5714 29.6221Z" fill="white"/>
</svg>
