<svg width="164" height="48" viewBox="0 0 164 48" fill="none" xmlns="http://www.w3.org/2000/svg">
<g clip-path="url(#clip0_1157_12926)">
<path d="M34.9226 19.744V9.67052L34.2579 9.29275L17.9613 0L1.66466 9.30954L1 9.6873V38.3295L17.2966 47.6222L17.9613 48L18.6175 47.6222L34.9226 38.3295V27.5173L17.9613 37.1878L10.4734 32.9234V25.15L18.6175 29.7922V18.9801L11.1465 14.7156L17.9613 10.829L25.4491 15.1018V25.1752L34.9226 19.744ZM33.6017 11.2067V18.9801L26.77 22.8751V15.1018L31.8181 12.2057L33.6017 11.2067ZM33.6017 37.5656L18.6175 46.1028V38.3295L33.6017 29.7922V37.5656ZM17.2966 19.744V27.5173L9.15252 22.8751V33.6873L17.2966 38.3295V46.1028L2.3209 37.5656V11.2067L3.95309 12.1385L9.84242 15.4963L17.2966 19.744ZM9.80876 13.9601L2.99396 10.0735L17.9613 1.5362L32.9286 10.0735L31.3048 10.9968L26.1138 13.9601L17.9613 9.30954L9.80876 13.9601Z" fill="white"/>
<path d="M59.6338 30.2006C59.0461 32.0541 57.9815 33.7213 56.5462 35.0359C58.1519 35.8613 59.8983 36.3795 61.6951 36.5637C61.2852 37.057 60.9324 37.5948 60.6434 38.1671C58.6502 37.908 56.7363 37.2237 55.0318 36.1608C53.2619 37.1923 51.3216 37.9002 49.3023 38.251C49.049 37.6578 48.7302 37.0946 48.3516 36.5721C50.1777 36.3428 51.9523 35.8094 53.6015 34.9939C52.2996 33.6418 51.3241 32.011 50.7494 30.2258L52.3058 29.8061C52.8219 31.4336 53.7801 32.8864 55.0738 34.0034C56.4092 32.8865 57.3718 31.3902 57.8334 29.7138L59.6338 30.2006ZM51.7758 27.9173H48.7386V26.2384H51.7758V24.8281H53.4585V26.2384H56.6303V24.8281H58.3129V26.2384H61.4007V27.9173H58.3129V29.5543H56.6303V27.9425H53.4585V29.5543H51.7758V27.9173Z" fill="white"/>
<path d="M73.742 29.0879H76.3417V30.6745H73.742V31.1781C74.4655 31.749 75.879 33.0165 76.266 33.3691L75.2816 34.8214C74.903 34.4604 74.3561 33.8476 73.7504 33.2936V38.2463H72.0256V33.5034C71.4683 34.6048 70.7352 35.6085 69.855 36.4751L69.0137 34.7962C70.1656 33.5986 71.0944 32.2057 71.7564 30.6829H69.3334V29.0963H72.0593V27.3251C71.218 27.4845 70.4439 27.6189 69.6783 27.7196L69.5774 26.3093C71.4302 26.0774 73.2438 25.6003 74.9703 24.8906L76.1314 26.1498C75.3809 26.5117 74.594 26.7931 73.784 26.9893L73.742 29.0879ZM78.8825 34.6199H77.1999V26.5695H78.8825V34.6199ZM81.945 25.0753V36.3492C81.9622 36.5894 81.9301 36.8305 81.8507 37.0579C81.7714 37.2853 81.6464 37.4941 81.4834 37.6717C81.3204 37.8493 81.1228 37.9918 80.9027 38.0906C80.6827 38.1894 80.4447 38.2424 80.2034 38.2463H78.5207C78.4749 37.9322 78.4103 37.621 78.3272 37.3146C78.2614 37.0379 78.1626 36.7702 78.0328 36.5171H79.8248C80.1025 36.5171 80.2118 36.4163 80.2118 36.1309V25.0753H81.945Z" fill="white"/>
<path d="M114.731 33.5098C114.384 32.9277 114.002 32.367 113.587 31.8309V38.2527H111.904V32.9054C111.52 33.9129 111.003 34.8644 110.365 35.7344C110.138 35.1786 109.857 34.6471 109.523 34.1478C110.548 32.6088 111.3 30.9049 111.745 29.1111H109.784V27.4825H111.921V24.8047H113.604V27.4825H115.287V29.1111H113.604V29.4553C114.1 29.9757 115.354 31.47 115.632 31.8309L114.731 33.5098ZM121.698 36.4983C121.832 36.4983 121.883 36.4311 121.883 36.1793C121.883 35.9274 121.883 35.1719 121.883 34.3241C122.268 34.5355 122.691 34.6695 123.128 34.7186C123.128 35.1216 123.128 36.6074 123.128 37.1447C123.128 37.2725 123.102 37.3991 123.051 37.5164C123 37.6337 122.925 37.739 122.831 37.8258C122.736 37.9126 122.625 37.979 122.504 38.0207C122.383 38.0624 122.254 38.0785 122.127 38.0681H120.503C120.166 38.0681 119.46 37.9421 119.46 36.6997V27.2727H117.6V30.2947C117.6 32.7291 117.272 36.2129 115.16 38.3031C114.763 37.854 114.301 37.4664 113.789 37.1531C115.699 35.2643 115.85 32.4437 115.85 30.2863V25.6441H121.176V36.003C121.176 36.364 121.176 36.4983 121.369 36.4983H121.698Z" fill="white"/>
<path d="M140.029 32.2455C141.126 32.9577 142.339 33.4747 143.613 33.7733C143.188 34.1679 142.827 34.6268 142.545 35.1332C142.391 35.0933 142.24 35.0457 142.091 34.9905V38.2056H140.408V37.9454H138.725V38.2895H137.152V33.7481H139.558C138.906 33.3256 138.31 32.8236 137.783 32.2539H135.259C134.715 32.8057 134.121 33.3059 133.484 33.7481H136.193V38.214H134.51V37.9454H132.979V38.2895H131.406V34.9317C131.204 35.0325 131.002 35.1164 130.791 35.2087C130.575 34.7083 130.267 34.2527 129.883 33.8656C130.971 33.4808 132 32.9438 132.937 32.2706H130.194V30.7848H134.51C134.804 30.4167 135.061 30.0202 135.276 29.6012H131.145V25.4459H136.05V29.4165L137.152 29.618C136.956 30.0177 136.74 30.4072 136.504 30.7848H139.499L138.439 29.9454L138.809 29.5928H137.261V25.4375H142.309V29.5508H140.113L141.232 30.3903L140.854 30.7596H143.26V32.2455H140.029ZM134.401 26.8562H132.642V28.1405H134.401V26.8562ZM134.519 35.2507H132.987V36.5015H134.51L134.519 35.2507ZM140.408 36.5015V35.2507H138.725V36.5015H140.408ZM138.725 28.1825H140.618V26.8981H138.725V28.1825Z" fill="white"/>
<path d="M157.986 24.8438C157.986 25.4482 157.986 26.2289 157.885 27.0935C158.087 29.0326 158.962 34.4639 164.001 36.68C163.478 37.0768 163.05 37.5842 162.748 38.1659C161.391 37.4728 160.191 36.5107 159.22 35.3386C158.25 34.1666 157.529 32.8092 157.102 31.3495C156.287 34.2448 154.386 36.7158 151.794 38.2498C151.408 37.7006 150.923 37.228 150.363 36.8564C156.253 33.7252 155.95 27.2782 156.009 24.8438H157.986Z" fill="white"/>
<path d="M93.2855 31.8868V29.2677H94.3793V27.6391H93.2855V24.8438H91.6029V27.6391H91.0224C91.0812 27.1606 91.1233 26.6906 91.157 26.2121C91.1627 26.131 91.1627 26.0497 91.157 25.9686H89.8108C89.7492 27.5794 89.5094 29.1785 89.0957 30.7367L90.425 31.0725C90.5596 30.552 90.6858 29.9392 90.812 29.2677H91.6029V32.3317C90.7615 32.5583 89.9202 32.7514 89.2976 32.8941L89.6594 34.6318L91.6029 34.0442V38.2414H93.2855V33.5069L94.6401 33.0872L94.3961 31.5342L93.2855 31.8868Z" fill="white"/>
<path d="M102.65 30.4777V28.8911H99.4864V27.6655H102.01V26.1125H99.4864V24.8281H97.8037V26.1125H95.3218V27.6655H97.8037V28.8911H94.4805V30.4777H99.4275V31.7704H94.7665V33.357H96.4492L95.2293 34.1964L96.8362 36.3622L98.1487 35.4808L96.466 33.3402H99.377V36.3203C99.377 36.5049 99.3181 36.5469 99.091 36.5637C98.8638 36.5805 98.0982 36.5637 97.4083 36.5637C97.6336 37.1033 97.7973 37.6665 97.8963 38.2426H99.5032C100.345 38.2426 101.001 37.8481 101.001 36.9834V33.3486H102.54V31.762H101.127V30.4777H102.65Z" fill="white"/>
<path d="M119.257 9.75H112.636C112.356 9.75221 112.088 9.86463 111.891 10.0627C111.695 10.2609 111.584 10.5286 111.584 10.8077V17.4562C111.584 17.7353 111.695 18.003 111.891 18.2011C112.088 18.3993 112.356 18.5117 112.636 18.5139H119.249C119.528 18.5117 119.796 18.3993 119.993 18.2011C120.19 18.003 120.3 17.7353 120.3 17.4562V10.8077C120.3 10.5301 120.191 10.2636 119.996 10.0657C119.8 9.86778 119.535 9.75441 119.257 9.75ZM118.752 16.6839C118.752 16.7529 118.725 16.8191 118.676 16.8679C118.627 16.9167 118.56 16.9441 118.491 16.9441H113.443C113.408 16.9452 113.374 16.9393 113.341 16.9268C113.308 16.9142 113.279 16.8952 113.253 16.8709C113.228 16.8467 113.208 16.8176 113.195 16.7855C113.181 16.7533 113.174 16.7188 113.174 16.6839V11.58C113.174 11.5451 113.181 11.5106 113.195 11.4784C113.208 11.4463 113.228 11.4172 113.253 11.393C113.279 11.3687 113.308 11.3497 113.341 11.3371C113.374 11.3245 113.408 11.3186 113.443 11.3198H118.491C118.56 11.3198 118.627 11.3472 118.676 11.396C118.725 11.4448 118.752 11.511 118.752 11.58V16.6839Z" fill="white"/>
<path d="M141.032 9.75H134.419C134.139 9.75221 133.872 9.86463 133.675 10.0627C133.478 10.2609 133.367 10.5286 133.367 10.8077V17.4562C133.367 17.7353 133.478 18.003 133.675 18.2011C133.872 18.3993 134.139 18.5117 134.419 18.5139H141.032C141.311 18.5117 141.579 18.3993 141.776 18.2011C141.973 18.003 142.083 17.7353 142.083 17.4562V10.8077C142.083 10.5286 141.973 10.2609 141.776 10.0627C141.579 9.86463 141.311 9.75221 141.032 9.75ZM140.527 16.6839C140.527 16.7529 140.499 16.8191 140.451 16.8679C140.402 16.9167 140.335 16.9441 140.266 16.9441H135.218C135.184 16.9441 135.15 16.9374 135.118 16.9243C135.087 16.9112 135.058 16.8921 135.034 16.8679C135.009 16.8437 134.99 16.8151 134.977 16.7835C134.964 16.7519 134.957 16.7181 134.957 16.6839V11.58C134.957 11.5458 134.964 11.512 134.977 11.4804C134.99 11.4489 135.009 11.4202 135.034 11.396C135.058 11.3718 135.087 11.3527 135.118 11.3396C135.15 11.3265 135.184 11.3198 135.218 11.3198H140.266C140.335 11.3198 140.402 11.3472 140.451 11.396C140.499 11.4448 140.527 11.511 140.527 11.58V16.6839Z" fill="white"/>
<path d="M48.7383 18.5223H57.4797V17.0281H50.5219V14.8287H56.6636V13.3848H50.5219V11.2442H57.4797V9.75H48.7383V18.5223Z" fill="white"/>
<path d="M85.4375 18.5223H94.1621V17.0281H87.2127V14.8287H93.346V13.3848H87.2127V11.2442H94.1621V9.75H85.4375V18.5223Z" fill="white"/>
<path d="M61.4334 9.75H59.6582V18.5223H68.3744V17.0281H61.4334V9.75Z" fill="white"/>
<path d="M72.3358 9.75H70.5605V18.5223H72.3358V9.75Z" fill="white"/>
<path d="M74.5156 11.2442H78.0156V18.5223H79.7992V11.2442H83.2571V9.75H74.5156V11.2442Z" fill="white"/>
<path d="M144.27 11.2442H147.769V18.5223H149.545V11.2442H153.003V9.75H144.27V11.2442Z" fill="white"/>
<path d="M107.808 14.9042C108.021 14.9043 108.232 14.8623 108.429 14.7808C108.625 14.6992 108.804 14.5798 108.954 14.4292C109.104 14.2787 109.223 14.1 109.303 13.9035C109.384 13.7069 109.425 13.4965 109.424 13.2841V11.3701C109.424 10.9419 109.254 10.5311 108.951 10.2275C108.649 9.92389 108.238 9.75222 107.808 9.75H100.699V18.5139H102.474V14.9042H105.722L108.515 18.5223H110.433L107.64 14.9042H107.808ZM102.474 11.2694H107.085C107.234 11.2694 107.378 11.3287 107.484 11.4341C107.589 11.5396 107.649 11.6827 107.649 11.8318V12.8476C107.649 12.9968 107.589 13.1398 107.484 13.2453C107.378 13.3508 107.234 13.41 107.085 13.41H102.474V11.2694Z" fill="white"/>
<path d="M129.572 9.75H122.496V18.5139H129.572C129.785 18.5139 129.995 18.4719 130.192 18.3904C130.388 18.3089 130.567 18.1894 130.717 18.0389C130.867 17.8883 130.986 17.7096 131.067 17.5131C131.147 17.3166 131.188 17.1061 131.187 16.8938V15.4751C131.187 15.2018 131.117 14.933 130.985 14.6938C130.852 14.4545 130.661 14.2526 130.43 14.1068C130.661 13.9623 130.851 13.7618 130.984 13.524C131.116 13.2862 131.186 13.0189 131.187 12.7468V11.3701C131.187 10.9419 131.017 10.5311 130.714 10.2275C130.412 9.92389 130.001 9.75222 129.572 9.75ZM124.271 11.2694H128.671C128.82 11.2716 128.961 11.3318 129.065 11.4371C129.169 11.5423 129.227 11.6841 129.227 11.8318V12.7636C129.227 12.9114 129.169 13.0532 129.065 13.1584C128.961 13.2636 128.82 13.3239 128.671 13.3261H124.271V11.2694ZM129.227 16.4488C129.227 16.5966 129.169 16.7384 129.065 16.8436C128.961 16.9488 128.82 17.0091 128.671 17.0113H124.271V14.8791H128.671C128.82 14.8813 128.961 14.9415 129.065 15.0467C129.169 15.152 129.227 15.2938 129.227 15.4415V16.4488Z" fill="white"/>
<path d="M156.437 11.5369V13.0143C156.437 13.0569 156.445 13.0991 156.462 13.1384C156.478 13.1776 156.503 13.2132 156.533 13.2429C156.564 13.2726 156.6 13.296 156.64 13.3115C156.68 13.327 156.722 13.3344 156.765 13.3333H161.476C162.991 13.3333 163.445 13.5851 163.445 15.2389V16.4393C163.445 18.1182 162.991 18.5127 161.476 18.5127H156.798C155.276 18.5127 154.779 18.2105 154.779 16.5652V16.3302H156.462V16.5652C156.462 16.7415 156.613 17.0017 156.79 17.0017H161.527C161.569 17.0028 161.611 16.9957 161.65 16.9807C161.689 16.9657 161.725 16.9431 161.755 16.9143C161.786 16.8854 161.81 16.8509 161.827 16.8126C161.844 16.7743 161.854 16.733 161.855 16.6911V15.1969C161.855 15.1543 161.846 15.1121 161.83 15.0729C161.813 15.0336 161.789 14.9981 161.758 14.9683C161.728 14.9386 161.691 14.9153 161.652 14.8997C161.612 14.8842 161.569 14.8768 161.527 14.8779H156.815C155.301 14.8779 154.813 14.4498 154.813 12.8045V11.8391C154.813 10.1602 155.301 9.76562 156.815 9.76562H161.401C162.848 9.76562 163.361 10.1182 163.361 11.6292V11.8139H161.746V11.5537C161.746 11.5111 161.737 11.4689 161.72 11.4296C161.704 11.3904 161.68 11.3548 161.649 11.3251C161.618 11.2954 161.582 11.272 161.542 11.2565C161.503 11.241 161.46 11.2335 161.417 11.2347H156.79C156.747 11.23 156.703 11.2343 156.661 11.2472C156.62 11.2601 156.581 11.2814 156.548 11.3097C156.515 11.338 156.488 11.3727 156.469 11.4118C156.45 11.4509 156.439 11.4934 156.437 11.5369Z" fill="white"/>
</g>
<defs>
<clipPath id="clip0_1157_12926">
<rect width="164" height="48" fill="white"/>
</clipPath>
</defs>
</svg>
