<svg width="40" height="40" viewBox="0 0 40 40" fill="none" xmlns="http://www.w3.org/2000/svg">
<path d="M18.6622 37.0081L7.41406 30.5917V10.2157L18.6622 16.6321V21.8924L13.5308 18.9616L12.0348 18.1072V19.8299V27.3938V27.9748L12.5395 28.2626L18.6622 31.7535V37.0081Z" stroke="#333333" stroke-width="2"/>
<path d="M20.1652 7.63001L19.6386 7.32695L19.127 7.65473L11.9024 12.2833L7.42262 9.68965L7.42342 9.06686L19.6669 2.09016L31.9259 9.06342V9.73607L27.857 12.0565L20.1652 7.63001Z" stroke="#333333" stroke-width="2"/>
<path d="M31.9125 15.4705L27.2852 18.1088V12.8537L31.9125 10.2154V15.4705Z" stroke="#333333" stroke-width="2"/>
<path d="M19.6721 37.5368L19.1172 37.1933V31.5296L31.9068 25.2268V30.5941L19.6721 37.5368Z" stroke="#333333" stroke-width="2"/>
</svg>
