<svg width="40" height="40" viewBox="0 0 40 40" fill="none" xmlns="http://www.w3.org/2000/svg">
<path d="M20.1104 39C19.5642 39 19.018 38.8639 18.5243 38.5813L4.74372 30.7926C3.74588 30.2273 3.11567 29.1595 3.11567 28.0184L3.00013 12.2212C2.98963 11.0801 3.59883 10.0123 4.58616 9.43651L18.2512 1.43846C19.2386 0.86268 20.4675 0.852211 21.4653 1.41752L35.4665 9.26901C36.4118 9.80291 37 10.8079 37 11.8862V27.9137C37 28.971 36.4328 29.9655 35.5085 30.5099L21.7279 38.5708C21.2342 38.8534 20.6775 39 20.1104 39ZM19.8793 3.51125C19.7532 3.51125 19.6377 3.54266 19.5327 3.60547L5.85709 11.6035C5.64702 11.7291 5.51047 11.9595 5.51047 12.2107L5.63652 28.0079C5.63652 28.2592 5.77306 28.479 5.99363 28.6046L19.7742 36.4038C19.9948 36.5294 20.2574 36.5189 20.4675 36.4038L34.2481 28.3429C34.3951 28.2592 34.4897 28.0917 34.4897 27.9137V11.8862C34.4897 11.7082 34.3951 11.5407 34.2376 11.457L20.2364 3.60547C20.1209 3.54266 20.0053 3.51125 19.8793 3.51125Z" fill="#333333"/>
<path d="M19.5404 21C19.3321 21 19.1237 20.9464 18.9466 20.8391L7.65351 14.4991C7.04927 14.1558 6.82007 13.3727 7.15345 12.7505C7.48682 12.1283 8.24734 11.8923 8.85158 12.2356L19.5404 18.243L30.146 12.1605C30.7502 11.8172 31.5107 12.0425 31.8441 12.6647C32.1775 13.2869 31.9587 14.07 31.3545 14.4133L20.1447 20.8391C19.9572 20.9464 19.7488 21 19.5404 21Z" fill="#333333"/>
<path d="M19.5484 34C18.75 34 18.0968 33.4714 18.0968 32.8132L18 20.2068C18 19.5485 18.6411 19.01 19.4395 19C20.2379 19 20.8911 19.5286 20.9032 20.1868L21 32.7932C21 33.4614 20.3589 34 19.5484 34Z" fill="#333333"/>
</svg>
