<svg width="40" height="40" viewBox="0 0 40 40" fill="none" xmlns="http://www.w3.org/2000/svg">
<path d="M5.5599 36.6667C4.64323 36.6667 3.85823 36.34 3.2049 35.6867C2.55157 35.0333 2.22545 34.2489 2.22657 33.3333V11.6667C2.22657 10.7462 2.97276 10 3.89323 10V10C4.81371 10 5.5599 10.7462 5.5599 11.6667V31.3333C5.5599 32.4379 6.45533 33.3333 7.5599 33.3333H27.2266C28.147 33.3333 28.8932 34.0795 28.8932 35V35C28.8932 35.9205 28.147 36.6667 27.2266 36.6667H5.5599Z" fill="#333333" stroke="white" stroke-width="0.8"/>
<path d="M12.224 30.0026C11.3073 30.0026 10.5223 29.6759 9.86896 29.0226C9.21563 28.3693 8.88952 27.5848 8.89063 26.6693V6.66927C8.89063 5.75261 9.21729 4.96761 9.87063 4.31427C10.524 3.66094 11.3084 3.33483 12.224 3.33594H32.224C33.1406 3.33594 33.9256 3.66261 34.579 4.31594C35.2323 4.96927 35.5584 5.75372 35.5573 6.66927V26.6693C35.5573 27.5859 35.2306 28.3709 34.5773 29.0243C33.924 29.6776 33.1395 30.0037 32.224 30.0026H12.224ZM12.224 26.6693H32.224V6.66927H12.224V26.6693Z" fill="#333333" stroke="white" stroke-width="0.8"/>
<path d="M15.5547 21.6667C15.5547 22.5871 16.3009 23.3333 17.2214 23.3333H20.5547C21.4752 23.3333 22.2214 22.5871 22.2214 21.6667V21.6667C22.2214 20.7462 21.4752 20 20.5547 20H17.2214C16.3009 20 15.5547 20.7462 15.5547 21.6667V21.6667ZM15.5547 16.6667C15.5547 17.5871 16.3009 18.3333 17.2214 18.3333H27.2214C28.1418 18.3333 28.888 17.5871 28.888 16.6667V16.6667C28.888 15.7462 28.1418 15 27.2214 15H17.2214C16.3009 15 15.5547 15.7462 15.5547 16.6667V16.6667ZM15.5547 11.6667C15.5547 12.5871 16.3009 13.3333 17.2214 13.3333H27.2214C28.1418 13.3333 28.888 12.5871 28.888 11.6667V11.6667C28.888 10.7462 28.1418 10 27.2214 10H17.2214C16.3009 10 15.5547 10.7462 15.5547 11.6667V11.6667Z" fill="#333333" stroke="white" stroke-width="0.8"/>
</svg>
