<svg width="164" height="48" viewBox="0 0 164 48" fill="none" xmlns="http://www.w3.org/2000/svg">
<g clip-path="url(#clip0_1157_13057)">
<path d="M1 9.59375V38.3971L17.8261 47.9954V38.3971L9.40883 33.598V23.9912L17.8261 28.7988V19.1921L1 9.59375Z" fill="#2B2983"/>
<path d="M9.40883 14.3975L17.8261 9.59832L26.2349 14.3975L34.6522 9.59832L17.8261 0L1 9.59832L9.40883 14.3975Z" fill="#40AFE0"/>
<path d="M26.2344 23.9912L34.6516 19.1921V9.59375L26.2344 14.3929V23.9912Z" fill="#2B2983"/>
<path d="M17.8262 38.403V48.0013L34.6522 38.403V28.8047L17.8262 38.403Z" fill="#40AFE0"/>
<path d="M59.5844 30.1844C58.9964 32.0401 57.9313 33.7094 56.4953 35.0256C58.1048 35.8444 59.8505 36.3628 61.6466 36.5552C61.2366 37.0461 60.8836 37.5818 60.5945 38.1522C58.6 37.8992 56.6844 37.2167 54.9802 36.1518C53.2095 37.1846 51.2683 37.8933 49.248 38.2446C48.9947 37.6507 48.6756 37.0868 48.2969 36.5636C50.1244 36.3316 51.8999 35.7946 53.5492 34.9751C52.2452 33.6257 51.269 31.9953 50.6958 30.2096L52.253 29.7893C52.7733 31.4169 53.7312 32.8706 55.0223 33.9918C56.3585 32.8702 57.3214 31.3694 57.7831 29.6885L59.5844 30.1844ZM51.7227 27.8898H48.6841V26.2089H51.7227V24.7969H53.4062V26.2089H56.5794V24.7969H58.2629V26.2089H61.352V27.8898H58.2629V29.5036H56.5794V27.8898H53.4062V29.5036H51.7227V27.8898Z" fill="#040000"/>
<path d="M73.6999 29.0702H76.3008V30.6587H73.6999V31.163C74.4237 31.7345 75.8378 33.0037 76.225 33.3483L75.2318 34.7939C74.853 34.4409 74.3059 33.8273 73.6999 33.2726V38.2315H71.9743V33.4827C71.4167 34.5855 70.6832 35.5904 69.8027 36.458L68.9609 34.7771C70.1134 33.578 71.0426 32.1834 71.705 30.6587H69.2808V29.0702H72.008V27.2968C71.1663 27.4565 70.3919 27.5825 69.6259 27.6834L69.5249 26.2798C71.3779 26.0441 73.1919 25.5665 74.9204 24.8594L76.0819 26.1117C75.3328 26.478 74.5451 26.7599 73.7335 26.9522L73.6999 29.0702ZM78.8428 34.6006H77.1593V26.5488H78.8428V34.6006ZM81.9067 25.0443V36.3404C81.9239 36.5808 81.8918 36.8223 81.8124 37.05C81.733 37.2776 81.6079 37.4867 81.4448 37.6645C81.2818 37.8423 81.0841 37.985 80.8639 38.0839C80.6438 38.1829 80.4057 38.2359 80.1643 38.2399H78.4808C78.435 37.9253 78.3704 37.6138 78.2872 37.3069C78.2225 37.0162 78.1236 36.7341 77.9926 36.4665H79.7855C80.0633 36.4665 80.1727 36.374 80.1727 36.0882V25.0443H81.9067Z" fill="#040000"/>
<path d="M114.708 33.491C114.359 32.9095 113.977 32.3482 113.564 31.8101V38.2398H111.88V32.8523C111.498 33.8644 110.98 34.8201 110.34 35.6931C110.113 35.1367 109.831 34.6045 109.498 34.1046C110.522 32.5628 111.274 30.8571 111.72 29.0617H109.759V27.4311H111.897V24.75H113.58V27.4311H115.264V29.0617H113.58V29.4063C114.077 29.9274 115.331 31.4234 115.609 31.7848L114.708 33.491ZM121.678 36.4916C121.812 36.4916 121.863 36.4243 121.863 36.1722C121.863 35.92 121.863 35.1636 121.863 34.3147C122.247 34.5288 122.671 34.6605 123.109 34.7013C123.109 35.1048 123.109 36.5924 123.109 37.1303C123.11 37.2591 123.085 37.3867 123.034 37.5051C122.984 37.6235 122.909 37.7301 122.814 37.8179C122.72 37.9057 122.609 37.9729 122.487 38.0152C122.365 38.0574 122.236 38.0738 122.107 38.0633H120.483C120.146 38.0633 119.439 37.9372 119.439 36.6933V27.2294H117.579V30.2552C117.579 32.6926 117.25 36.1806 115.138 38.2734C114.738 37.8234 114.276 37.4328 113.766 37.1135C115.676 35.2308 115.828 32.3984 115.828 30.2384V25.5989H121.156V35.962C121.156 36.3235 121.156 36.4663 121.35 36.4663L121.678 36.4916Z" fill="#040000"/>
<path d="M140.018 32.2201C141.112 32.9402 142.327 33.4583 143.604 33.7498C143.178 34.1479 142.818 34.6102 142.535 35.1197C142.381 35.0798 142.23 35.0321 142.081 34.9769V38.1959H140.397V37.9354H138.714V38.28H137.14V33.7245H139.547C138.895 33.2986 138.298 32.7933 137.771 32.2201H135.246C134.704 32.7776 134.109 33.2815 133.47 33.7245H136.18V38.1959H134.497V37.9354H132.965V38.28H131.391V34.918C131.189 35.0189 130.987 35.1029 130.776 35.187C130.56 34.6885 130.252 34.2352 129.867 33.8506C130.958 33.4661 131.987 32.9253 132.923 32.2453H130.179V30.7661H134.497C134.791 30.3975 135.047 30.0005 135.263 29.581H131.13V25.3786H136.037V29.354L137.14 29.5558C136.946 29.9592 136.719 30.3458 136.492 30.724H139.488L138.428 29.8835L138.798 29.5305H137.249V25.3281H142.299V29.5305H140.103L141.222 30.371L140.843 30.7492H143.251V32.2285L140.018 32.2201ZM134.387 26.8326H132.628V28.1185H134.387V26.8326ZM134.505 35.1954H132.973V36.4729H134.497L134.505 35.1954ZM140.397 36.4477V35.1954H138.714V36.4729L140.397 36.4477ZM138.714 28.1185H140.608V26.8326H138.714V28.1185Z" fill="#040000"/>
<path d="M157.981 24.8203C157.981 25.4255 157.981 26.2071 157.88 27.0644C158.083 29.0143 158.958 34.4522 164 36.6711C163.477 37.0653 163.049 37.5706 162.746 38.1504C161.388 37.4593 160.187 36.4981 159.215 35.3258C158.244 34.1535 157.523 32.795 157.098 31.3341C156.277 34.2306 154.377 36.703 151.786 38.2428C151.399 37.6921 150.914 37.2165 150.355 36.8392C156.248 33.7126 155.945 27.2577 156.003 24.8203H157.981Z" fill="#040000"/>
<path d="M93.2523 31.872V29.2412H94.3466V27.6191H93.2523V24.8203H91.5689V27.6191H90.9881C91.047 27.14 91.0891 26.661 91.1228 26.1903C91.1285 26.1091 91.1285 26.0277 91.1228 25.9466H89.776C89.7142 27.5565 89.4742 29.1548 89.0605 30.7121L90.3905 31.0483C90.5251 30.5356 90.6514 29.9136 90.7777 29.2412H91.5689V32.3174C90.7272 32.5444 89.8854 32.7377 89.2626 32.8805L89.6245 34.6203L91.5689 34.032V38.2344H93.2523V33.4941L94.6075 33.0655L94.3634 31.519L93.2523 31.872Z" fill="#040000"/>
<path d="M102.622 30.4582V28.9117H99.4575V27.6846H101.983V26.1297H99.4575V24.8438H97.774V26.1297H95.2909V27.6846H97.774V28.9117H94.4492V30.5002H99.3986V31.7945H94.7354V33.3831H96.4189L95.1984 34.2235L96.8061 36.392L98.1191 35.5095L96.4357 33.3662H99.3481V36.35C99.3481 36.5349 99.2891 36.5769 99.0619 36.5937C98.8346 36.6105 98.0686 36.5937 97.3784 36.5937C97.6033 37.1341 97.7671 37.6979 97.8666 38.2747H99.4743C100.316 38.2747 100.973 37.8796 100.973 37.0139V33.3746H102.513V31.7861H101.099V30.4918L102.622 30.4582Z" fill="#040000"/>
<path d="M119.237 9.70312H112.613C112.333 9.70534 112.065 9.81789 111.868 10.0163C111.671 10.2146 111.561 10.4827 111.561 10.7621V17.4188C111.561 17.6982 111.671 17.9663 111.868 18.1646C112.065 18.363 112.333 18.4755 112.613 18.4778H119.229C119.508 18.4755 119.776 18.363 119.973 18.1646C120.17 17.9663 120.281 17.6982 120.281 17.4188V10.7621C120.281 10.4842 120.171 10.2173 119.976 10.0192C119.781 9.82105 119.515 9.70754 119.237 9.70312ZM118.732 16.6455C118.732 16.7146 118.705 16.7809 118.656 16.8297C118.607 16.8786 118.54 16.9061 118.471 16.9061H113.421C113.386 16.9072 113.351 16.9013 113.318 16.8887C113.286 16.8761 113.256 16.8571 113.231 16.8328C113.206 16.8085 113.186 16.7794 113.172 16.7472C113.158 16.715 113.151 16.6805 113.151 16.6455V11.5354C113.151 11.5004 113.158 11.4659 113.172 11.4337C113.186 11.4015 113.206 11.3724 113.231 11.3481C113.256 11.3238 113.286 11.3048 113.318 11.2922C113.351 11.2796 113.386 11.2737 113.421 11.2748H118.471C118.54 11.2748 118.607 11.3023 118.656 11.3511C118.705 11.4 118.732 11.4663 118.732 11.5354V16.6455Z" fill="#040000"/>
<path d="M141.022 9.70312H134.406C134.126 9.70534 133.858 9.81789 133.661 10.0163C133.464 10.2146 133.354 10.4827 133.354 10.7621V17.4188C133.354 17.6982 133.464 17.9663 133.661 18.1646C133.858 18.363 134.126 18.4755 134.406 18.4778H141.022C141.301 18.4755 141.569 18.363 141.766 18.1646C141.963 17.9663 142.074 17.6982 142.074 17.4188V10.7621C142.074 10.4827 141.963 10.2146 141.766 10.0163C141.569 9.81789 141.301 9.70534 141.022 9.70312ZM140.517 16.6455C140.517 16.7146 140.489 16.7809 140.44 16.8297C140.391 16.8786 140.325 16.9061 140.256 16.9061H135.205C135.171 16.9061 135.137 16.8993 135.105 16.8862C135.074 16.8731 135.045 16.8539 135.021 16.8297C134.997 16.8056 134.977 16.7768 134.964 16.7452C134.951 16.7136 134.944 16.6797 134.944 16.6455V11.5354C134.944 11.5012 134.951 11.4673 134.964 11.4357C134.977 11.4041 134.997 11.3753 135.021 11.3511C135.045 11.3269 135.074 11.3078 135.105 11.2947C135.137 11.2816 135.171 11.2748 135.205 11.2748H140.256C140.325 11.2748 140.391 11.3023 140.44 11.3511C140.489 11.4 140.517 11.4663 140.517 11.5354V16.6455Z" fill="#040000"/>
<path d="M48.6914 18.4862H57.4369V16.9817H50.4674V14.788H56.6205V13.3424H50.4674V11.1992H57.4369V9.70312H48.6914V18.4862Z" fill="#040000"/>
<path d="M85.4004 18.4862H94.1291V16.9817H87.1848V14.788H93.3126V13.3424H87.1848V11.1992H94.1291V9.70312H85.4004V18.4862Z" fill="#040000"/>
<path d="M61.3854 9.70312H59.6094V18.4862H68.3381V16.9817H61.3854V9.70312Z" fill="#040000"/>
<path d="M72.2936 9.70312H70.5176V18.4862H72.2936V9.70312Z" fill="#040000"/>
<path d="M74.4824 11.1992H77.984V18.4862H79.76V11.1992H83.2195V9.70312H74.4824V11.1992Z" fill="#040000"/>
<path d="M144.262 11.1992H147.763V18.4862H149.539V11.1992H153.007V9.70312H144.262V11.1992Z" fill="#040000"/>
<path d="M107.781 14.8637C107.993 14.8637 108.204 14.8217 108.401 14.7401C108.598 14.6584 108.776 14.5388 108.926 14.3881C109.076 14.2373 109.195 14.0584 109.276 13.8617C109.357 13.6649 109.398 13.4542 109.397 13.2416V11.3253C109.398 11.1126 109.357 10.9019 109.276 10.7051C109.195 10.5084 109.076 10.3295 108.926 10.1787C108.776 10.028 108.598 9.90838 108.401 9.82676C108.204 9.74514 107.993 9.70312 107.781 9.70313H100.668V18.4778H102.444V14.8637H105.693L108.488 18.4862H110.407L107.612 14.8637H107.781ZM102.444 11.258H107.057C107.206 11.258 107.35 11.3173 107.455 11.423C107.561 11.5286 107.621 11.6718 107.621 11.8211V12.8297C107.621 12.9791 107.561 13.1223 107.455 13.2279C107.35 13.3335 107.206 13.3928 107.057 13.3928H102.444V11.258Z" fill="#040000"/>
<path d="M129.557 9.70313H122.479V18.4778H129.557C129.987 18.4755 130.398 18.3037 130.701 17.9997C131.004 17.6957 131.174 17.2844 131.174 16.8556V15.4604C131.174 15.1867 131.105 14.9173 130.972 14.6776C130.84 14.4379 130.648 14.2359 130.416 14.0904C130.648 13.945 130.84 13.743 130.972 13.5033C131.105 13.2636 131.174 12.9942 131.174 12.7205V11.3505C131.178 11.1357 131.14 10.9223 131.06 10.7226C130.981 10.5229 130.863 10.341 130.712 10.1876C130.562 10.0342 130.382 9.91229 130.184 9.8291C129.985 9.7459 129.773 9.70308 129.557 9.70313ZM124.255 11.2244H128.657C128.805 11.2266 128.946 11.2869 129.05 11.3923C129.154 11.4976 129.212 11.6396 129.212 11.7875V12.7541C129.212 12.902 129.154 13.044 129.05 13.1493C128.946 13.2547 128.805 13.315 128.657 13.3172H124.255V11.2244ZM129.212 16.4102C129.212 16.5581 129.154 16.7001 129.05 16.8054C128.946 16.9108 128.805 16.9711 128.657 16.9733H124.255V14.8301H128.657C128.805 14.8323 128.946 14.8926 129.05 14.9979C129.154 15.1033 129.212 15.2453 129.212 15.3932V16.4102Z" fill="#040000"/>
<path d="M156.434 11.4994V12.945C156.435 12.987 156.444 13.0283 156.461 13.0666C156.478 13.105 156.503 13.1395 156.533 13.1684C156.564 13.1973 156.6 13.2199 156.639 13.2349C156.678 13.25 156.72 13.2571 156.762 13.256H161.476C162.991 13.256 163.445 13.5165 163.445 15.1639V16.3742C163.445 18.0552 162.991 18.4502 161.476 18.4502H156.796C155.272 18.4502 154.775 18.1476 154.775 16.5003V16.307H156.459V16.5423C156.459 16.7104 156.61 16.9793 156.787 16.9793H161.526C161.569 16.9805 161.611 16.973 161.651 16.9575C161.691 16.9419 161.727 16.9186 161.758 16.8888C161.788 16.859 161.813 16.8235 161.829 16.7842C161.846 16.7448 161.854 16.7026 161.854 16.66V15.1723C161.854 15.1296 161.846 15.0874 161.829 15.0481C161.813 15.0088 161.788 14.9732 161.758 14.9434C161.727 14.9137 161.691 14.8903 161.651 14.8748C161.611 14.8592 161.569 14.8518 161.526 14.8529H156.812C155.297 14.8529 154.809 14.4243 154.809 12.7769V11.8104C154.809 10.1294 155.297 9.73438 156.812 9.73438H161.4C162.848 9.73438 163.361 10.079 163.361 11.5918V11.7767H161.745V11.5162C161.745 11.4735 161.736 11.4313 161.72 11.392C161.703 11.3527 161.679 11.3171 161.648 11.2873C161.618 11.2576 161.581 11.2342 161.542 11.2187C161.502 11.2031 161.459 11.1957 161.417 11.1968H156.787C156.744 11.1922 156.7 11.1965 156.658 11.2094C156.617 11.2223 156.578 11.2436 156.545 11.2719C156.512 11.3002 156.485 11.335 156.466 11.3742C156.447 11.4133 156.436 11.4559 156.434 11.4994Z" fill="#040000"/>
</g>
<defs>
<clipPath id="clip0_1157_13057">
<rect width="163" height="48" fill="white" transform="translate(1)"/>
</clipPath>
</defs>
</svg>
