<svg width="80" height="80" viewBox="0 0 80 80" fill="none" xmlns="http://www.w3.org/2000/svg">
<circle cx="40" cy="40" r="40" fill="#533CBF"/>
<mask id="path-2-inside-1_1168_89533" fill="white">
<path d="M54.6537 61.8691C54.6463 62.0612 54.5646 62.2424 54.4264 62.3736C54.2882 62.5048 54.1047 62.5753 53.9156 62.5697H34.6648C34.5701 62.5771 34.4749 62.5645 34.3852 62.5328C34.2955 62.501 34.2132 62.4508 34.1435 62.3852C34.0739 62.3196 34.0183 62.2401 33.9802 62.1516C33.9422 62.0632 33.9226 61.9677 33.9226 61.8711C33.9226 61.7746 33.9422 61.6792 33.9802 61.5907C34.0183 61.5023 34.0739 61.4227 34.1435 61.3571C34.2132 61.2915 34.2955 61.2413 34.3852 61.2096C34.4749 61.1778 34.5701 61.1653 34.6648 61.1727H53.9075C54.0962 61.166 54.2797 61.2355 54.4181 61.366C54.5564 61.4966 54.6382 61.6774 54.6456 61.8691M31.7044 61.1727H25.2969C25.2022 61.1653 25.1071 61.1778 25.0174 61.2096C24.9276 61.2413 24.8454 61.2915 24.7757 61.3571C24.706 61.4227 24.6504 61.5023 24.6123 61.5907C24.5743 61.6792 24.5547 61.7746 24.5547 61.8711C24.5547 61.9677 24.5743 62.0632 24.6123 62.1516C24.6504 62.2401 24.706 62.3196 24.7757 62.3852C24.8454 62.4508 24.9276 62.501 25.0174 62.5328C25.1071 62.5645 25.2022 62.5771 25.2969 62.5697H31.7125C31.8072 62.5771 31.9024 62.5645 31.9921 62.5328C32.0818 62.501 32.1641 62.4508 32.2338 62.3852C32.3035 62.3196 32.3591 62.2401 32.3971 62.1516C32.4352 62.0632 32.4548 61.9677 32.4548 61.8711C32.4548 61.7746 32.4352 61.6792 32.3971 61.5907C32.3591 61.5023 32.3035 61.4227 32.2338 61.3571C32.1641 61.2915 32.0818 61.2413 31.9921 61.2096C31.9024 61.1778 31.8072 61.1653 31.7125 61.1727M54.6537 19.8988V21.7781C54.6474 22.0935 54.5509 22.4002 54.3759 22.6608C54.2009 22.9213 53.955 23.1244 53.6682 23.2452V24.5723C53.662 24.796 53.6122 25.0162 53.5219 25.2203C53.4315 25.4244 53.3024 25.6084 53.1418 25.7616C52.9813 25.9148 52.7925 26.0342 52.5863 26.113C52.3802 26.1918 52.1608 26.2284 51.9407 26.2207H51.6973V28.3185C51.6911 28.5422 51.6413 28.7624 51.551 28.9665C51.4606 29.1706 51.3314 29.3545 51.1709 29.5077C51.0103 29.6609 50.8216 29.7804 50.6154 29.8592C50.4093 29.938 50.1899 29.9746 49.9698 29.9669H49.7264V32.2995C49.9795 32.3025 50.2291 32.3602 50.4584 32.4689C50.6878 32.5777 50.8917 32.7349 51.0566 32.9301C51.217 33.1193 51.3293 33.3455 51.3837 33.5891C51.4381 33.8326 51.4331 34.086 51.3689 34.3271L49.8886 39.9237C49.8098 40.2005 49.6626 40.4523 49.461 40.655C49.2594 40.8577 49.0102 41.0046 48.7369 41.0818V44.1932C48.7284 44.5086 48.631 44.8148 48.4564 45.0756C48.2817 45.3364 48.0371 45.5408 47.7515 45.6645V48.8543C47.7376 49.0442 47.6537 49.2217 47.5164 49.3513C47.3791 49.4808 47.1987 49.5528 47.0114 49.5528C46.824 49.5528 46.6436 49.4808 46.5064 49.3513C46.3691 49.2217 46.2851 49.0442 46.2713 48.8543V45.8212H43.8056V52.584C43.8011 52.8961 43.708 53.2001 43.5375 53.4597C43.367 53.7192 43.1264 53.9232 42.8445 54.0471L38.5134 56.0829C38.3285 56.1642 38.1707 56.2981 38.0592 56.4685C37.9476 56.6389 37.8871 56.8385 37.8848 57.0432C37.8861 57.2209 37.9323 57.3954 38.0189 57.5498C38.1055 57.7042 38.2297 57.8334 38.3795 57.9251C38.5381 58.0265 38.7176 58.0893 38.904 58.1086C39.0905 58.1279 39.2787 58.1032 39.4542 58.0364L45.4926 55.7656C45.7161 55.6879 45.9107 55.5422 46.05 55.3483C46.1893 55.1545 46.2665 54.9218 46.2713 54.6818V51.6526C46.2851 51.4628 46.3691 51.2853 46.5064 51.1557C46.6436 51.0262 46.824 50.9542 47.0114 50.9542C47.1987 50.9542 47.3791 51.0262 47.5164 51.1557C47.6537 51.2853 47.7376 51.4628 47.7515 51.6526V54.6818C47.7423 55.2096 47.573 55.7216 47.2667 56.1479C46.9604 56.5743 46.532 56.8942 46.0401 57.0638L39.9976 59.281C39.6856 59.3963 39.3564 59.4562 39.0243 59.4582C38.5039 59.4647 37.9923 59.3218 37.5482 59.0461C37.1986 58.8319 36.9093 58.5298 36.7083 58.1688C36.5072 57.8078 36.4012 57.4002 36.4005 56.9855C36.4064 56.5135 36.5466 56.0534 36.8042 55.6607C37.0618 55.2679 37.4259 54.9594 37.8523 54.7724L42.1835 52.7366C42.2233 52.7183 42.2571 52.6887 42.2809 52.6515C42.3046 52.6142 42.3172 52.5708 42.3173 52.5264V45.6069C42.0317 45.4832 41.7871 45.2788 41.6124 45.018C41.4377 44.7572 41.3404 44.4509 41.3318 44.1356V41.0241C41.0586 40.9469 40.8094 40.7999 40.6078 40.5972C40.4062 40.3945 40.259 40.1428 40.1801 39.866L38.7202 34.2859C38.6549 34.045 38.6493 33.7913 38.7038 33.5475C38.7582 33.3038 38.8712 33.0775 39.0325 32.8888C39.1973 32.6937 39.4012 32.5365 39.6306 32.4278C39.86 32.3191 40.1095 32.2612 40.3626 32.2583V29.9257H40.1152C39.8951 29.9334 39.6757 29.8968 39.4696 29.818C39.2634 29.7392 39.0746 29.6198 38.9141 29.4666C38.7535 29.3134 38.6244 29.1294 38.534 28.9253C38.4437 28.7212 38.3939 28.5009 38.3876 28.2772V26.1795H38.1403C37.9205 26.1866 37.7015 26.1497 37.4958 26.0706C37.2902 25.9916 37.1019 25.872 36.9418 25.7189C36.7816 25.5657 36.6528 25.382 36.5627 25.1782C36.4726 24.9743 36.423 24.7544 36.4167 24.531V23.204C36.1289 23.0842 35.8819 22.8815 35.7061 22.6208C35.5302 22.3601 35.4333 22.0528 35.4272 21.7368V19.8659C35.4335 19.6422 35.4833 19.4218 35.5736 19.2177C35.664 19.0136 35.7931 18.8297 35.9537 18.6765C36.1142 18.5233 36.303 18.4038 36.5091 18.3251C36.7153 18.2463 36.9347 18.2097 37.1548 18.2174H45.5413C45.636 18.21 45.7312 18.2226 45.8209 18.2543C45.9106 18.2861 45.9929 18.3362 46.0626 18.4018C46.1323 18.4674 46.1879 18.547 46.2259 18.6354C46.2639 18.7239 46.2835 18.8193 46.2835 18.9159C46.2835 19.0124 46.2639 19.1079 46.2259 19.1964C46.1879 19.2848 46.1323 19.3643 46.0626 19.4299C45.9929 19.4955 45.9106 19.5458 45.8209 19.5775C45.7312 19.6093 45.636 19.6218 45.5413 19.6144H37.1386C37.1074 19.6128 37.0761 19.6175 37.0467 19.6282C37.0173 19.639 36.9903 19.6555 36.9672 19.677C36.9442 19.6985 36.9256 19.7245 36.9126 19.7534C36.8995 19.7823 36.8923 19.8135 36.8912 19.8452V21.7781C36.8944 21.8418 36.9221 21.9018 36.9684 21.945C37.0147 21.9882 37.0758 22.0111 37.1386 22.0089H52.914C52.9767 22.0111 53.0379 21.9882 53.0842 21.945C53.1305 21.9018 53.1582 21.8418 53.1613 21.7781V19.907C53.1603 19.8753 53.153 19.844 53.14 19.8152C53.1269 19.7863 53.1083 19.7604 53.0853 19.7389C53.0623 19.7174 53.0353 19.7007 53.0058 19.69C52.9764 19.6792 52.9452 19.6746 52.914 19.6762H48.4896C48.3949 19.6836 48.2997 19.671 48.21 19.6393C48.1203 19.6075 48.038 19.5574 47.9683 19.4918C47.8986 19.4262 47.843 19.3466 47.8049 19.2582C47.7669 19.1697 47.7473 19.0743 47.7473 18.9777C47.7473 18.8812 47.7669 18.7857 47.8049 18.6972C47.843 18.6088 47.8986 18.5293 47.9683 18.4637C48.038 18.3981 48.1203 18.3478 48.21 18.3161C48.2997 18.2843 48.3949 18.2718 48.4896 18.2792H52.914C53.1341 18.2715 53.3535 18.308 53.5596 18.3868C53.7658 18.4656 53.9545 18.5851 54.1151 18.7383C54.2756 18.8915 54.4048 19.0755 54.4952 19.2796C54.5855 19.4837 54.6353 19.7039 54.6415 19.9277M40.0868 24.8277C40.1183 24.8288 40.1496 24.8236 40.179 24.8124C40.2085 24.8012 40.2355 24.7842 40.2584 24.7624C40.2814 24.7406 40.2999 24.7143 40.313 24.6852C40.326 24.6561 40.3332 24.6248 40.3342 24.5929V23.4265H37.8686V24.5929C37.8707 24.6566 37.8974 24.717 37.9429 24.7609C37.9884 24.8048 38.0491 24.8288 38.1119 24.8277H40.0868ZM47.2405 41.1477H42.8121V44.181C42.8131 44.2127 42.8203 44.2439 42.8334 44.2728C42.8464 44.3017 42.865 44.3276 42.8881 44.3491C42.9111 44.3706 42.9381 44.3871 42.9676 44.3979C42.997 44.4086 43.0282 44.4133 43.0594 44.4117H47.0053C47.0365 44.4133 47.0677 44.4086 47.0972 44.3979C47.1266 44.3871 47.1536 44.3706 47.1766 44.3491C47.1997 44.3276 47.2183 44.3017 47.2313 44.2728C47.2444 44.2439 47.2516 44.2127 47.2527 44.181L47.2405 41.1477ZM50.2009 26.2249H49.9535C49.7338 26.232 49.5148 26.1949 49.3091 26.1159C49.1034 26.0368 48.9151 25.9174 48.755 25.7642C48.5949 25.6111 48.4661 25.4273 48.376 25.2234C48.2859 25.0196 48.2363 24.7997 48.23 24.5764V23.41H41.8266V24.5764C41.8203 24.8001 41.7706 25.0203 41.6802 25.2244C41.5899 25.4286 41.4607 25.6125 41.3002 25.7657C41.1396 25.919 40.9508 26.0383 40.7447 26.1171C40.5385 26.1959 40.3191 26.2326 40.099 26.2249H39.8516V28.3225C39.8527 28.3544 39.8599 28.3859 39.8729 28.4149C39.8859 28.444 39.9044 28.4703 39.9274 28.4921C39.9504 28.5139 39.9774 28.5309 40.0068 28.5421C40.0363 28.5533 40.0676 28.5585 40.099 28.5574H44.5599C44.6546 28.55 44.7498 28.5626 44.8395 28.5943C44.9292 28.6261 45.0115 28.6764 45.0812 28.7419C45.1509 28.8075 45.2065 28.887 45.2445 28.9755C45.2825 29.0639 45.3022 29.1595 45.3022 29.256C45.3022 29.3525 45.2825 29.4481 45.2445 29.5365C45.2065 29.625 45.1509 29.7044 45.0812 29.77C45.0115 29.8356 44.9292 29.8859 44.8395 29.9176C44.7498 29.9494 44.6546 29.962 44.5599 29.9546H41.8469V32.2871H44.5599C44.7428 32.2871 44.9181 32.3609 45.0474 32.4923C45.1767 32.6237 45.2493 32.8019 45.2493 32.9877C45.2493 33.1735 45.1767 33.3518 45.0474 33.4831C44.9181 33.6145 44.7428 33.6883 44.5599 33.6883H40.3788C40.3415 33.6874 40.3045 33.6947 40.2702 33.7096C40.2359 33.7246 40.2052 33.7468 40.1801 33.7749C40.1578 33.8028 40.1425 33.8356 40.1355 33.8708C40.1284 33.906 40.1298 33.9424 40.1396 33.9769L41.6157 39.5734C41.6315 39.6252 41.6633 39.6704 41.7064 39.7024C41.7495 39.7343 41.8016 39.7513 41.855 39.7507H48.2097C48.2631 39.7513 48.3152 39.7343 48.3583 39.7024C48.4014 39.6704 48.4333 39.6252 48.449 39.5734L49.9292 33.9769C49.9384 33.942 49.9392 33.9055 49.9314 33.8703C49.9236 33.8351 49.9076 33.8024 49.8846 33.7749C49.8603 33.7469 49.8303 33.7247 49.7967 33.7097C49.7631 33.6948 49.7266 33.6874 49.6899 33.6883H47.5001C47.3172 33.6883 47.1419 33.6145 47.0126 33.4831C46.8833 33.3518 46.8106 33.1735 46.8106 32.9877C46.8106 32.8019 46.8833 32.6237 47.0126 32.4923C47.1419 32.3609 47.3172 32.2871 47.5001 32.2871H48.2422V29.9546H47.5001C47.4053 29.962 47.3102 29.9494 47.2205 29.9176C47.1308 29.8859 47.0485 29.8356 46.9788 29.77C46.9091 29.7044 46.8535 29.625 46.8154 29.5365C46.7774 29.4481 46.7578 29.3525 46.7578 29.256C46.7578 29.1595 46.7774 29.0639 46.8154 28.9755C46.8535 28.887 46.9091 28.8075 46.9788 28.7419C47.0485 28.6764 47.1308 28.6261 47.2205 28.5943C47.3102 28.5626 47.4053 28.55 47.5001 28.5574H49.9657C49.9971 28.5585 50.0285 28.5533 50.0579 28.5421C50.0873 28.5309 50.1143 28.5139 50.1373 28.4921C50.1603 28.4703 50.1788 28.444 50.1918 28.4149C50.2048 28.3859 50.212 28.3544 50.2131 28.3225L50.2009 26.2249ZM52.1759 23.4265H49.7102V24.5929C49.7123 24.6566 49.739 24.717 49.7846 24.7609C49.8301 24.8048 49.8908 24.8288 49.9535 24.8277H51.9285C51.9917 24.8289 52.0528 24.805 52.099 24.7612C52.1452 24.7174 52.1727 24.657 52.1759 24.5929V23.4265ZM29.2023 59.5942C29.3451 59.7271 29.5317 59.8009 29.7254 59.8009C29.9191 59.8009 30.1057 59.7271 30.2485 59.5942C30.3163 59.532 30.3705 59.456 30.4076 59.3711C30.4447 59.2863 30.4639 59.1945 30.4639 59.1017C30.4639 59.0089 30.4447 58.9171 30.4076 58.8322C30.3705 58.7474 30.3163 58.6715 30.2485 58.6093L26.3027 54.8755C26.159 54.7443 25.9727 54.6716 25.7795 54.6716C25.5864 54.6716 25.4 54.7443 25.2564 54.8755C25.1885 54.938 25.1342 55.0143 25.0971 55.0995C25.0599 55.1847 25.0408 55.2768 25.0408 55.37C25.0408 55.4631 25.0599 55.5553 25.0971 55.6404C25.1342 55.7256 25.1885 55.8019 25.2564 55.8645L29.2023 59.5942ZM32.6858 50.9397C32.4968 50.9341 32.3132 51.0046 32.175 51.1358C32.0368 51.267 31.9551 51.4482 31.9477 51.6403V57.2204C31.9616 57.4102 32.0456 57.5878 32.1828 57.7173C32.3201 57.8469 32.5005 57.9189 32.6878 57.9189C32.8752 57.9189 33.0556 57.8469 33.1929 57.7173C33.3301 57.5878 33.4141 57.4102 33.4279 57.2204V51.6238C33.4206 51.431 33.3383 51.2491 33.1992 51.1178C33.0601 50.9865 32.8755 50.9165 32.6858 50.9232"/>
</mask>
<path d="M54.6537 61.8691C54.6463 62.0612 54.5646 62.2424 54.4264 62.3736C54.2882 62.5048 54.1047 62.5753 53.9156 62.5697H34.6648C34.5701 62.5771 34.4749 62.5645 34.3852 62.5328C34.2955 62.501 34.2132 62.4508 34.1435 62.3852C34.0739 62.3196 34.0183 62.2401 33.9802 62.1516C33.9422 62.0632 33.9226 61.9677 33.9226 61.8711C33.9226 61.7746 33.9422 61.6792 33.9802 61.5907C34.0183 61.5023 34.0739 61.4227 34.1435 61.3571C34.2132 61.2915 34.2955 61.2413 34.3852 61.2096C34.4749 61.1778 34.5701 61.1653 34.6648 61.1727H53.9075C54.0962 61.166 54.2797 61.2355 54.4181 61.366C54.5564 61.4966 54.6382 61.6774 54.6456 61.8691M31.7044 61.1727H25.2969C25.2022 61.1653 25.1071 61.1778 25.0174 61.2096C24.9276 61.2413 24.8454 61.2915 24.7757 61.3571C24.706 61.4227 24.6504 61.5023 24.6123 61.5907C24.5743 61.6792 24.5547 61.7746 24.5547 61.8711C24.5547 61.9677 24.5743 62.0632 24.6123 62.1516C24.6504 62.2401 24.706 62.3196 24.7757 62.3852C24.8454 62.4508 24.9276 62.501 25.0174 62.5328C25.1071 62.5645 25.2022 62.5771 25.2969 62.5697H31.7125C31.8072 62.5771 31.9024 62.5645 31.9921 62.5328C32.0818 62.501 32.1641 62.4508 32.2338 62.3852C32.3035 62.3196 32.3591 62.2401 32.3971 62.1516C32.4352 62.0632 32.4548 61.9677 32.4548 61.8711C32.4548 61.7746 32.4352 61.6792 32.3971 61.5907C32.3591 61.5023 32.3035 61.4227 32.2338 61.3571C32.1641 61.2915 32.0818 61.2413 31.9921 61.2096C31.9024 61.1778 31.8072 61.1653 31.7125 61.1727M54.6537 19.8988V21.7781C54.6474 22.0935 54.5509 22.4002 54.3759 22.6608C54.2009 22.9213 53.955 23.1244 53.6682 23.2452V24.5723C53.662 24.796 53.6122 25.0162 53.5219 25.2203C53.4315 25.4244 53.3024 25.6084 53.1418 25.7616C52.9813 25.9148 52.7925 26.0342 52.5863 26.113C52.3802 26.1918 52.1608 26.2284 51.9407 26.2207H51.6973V28.3185C51.6911 28.5422 51.6413 28.7624 51.551 28.9665C51.4606 29.1706 51.3314 29.3545 51.1709 29.5077C51.0103 29.6609 50.8216 29.7804 50.6154 29.8592C50.4093 29.938 50.1899 29.9746 49.9698 29.9669H49.7264V32.2995C49.9795 32.3025 50.2291 32.3602 50.4584 32.4689C50.6878 32.5777 50.8917 32.7349 51.0566 32.9301C51.217 33.1193 51.3293 33.3455 51.3837 33.5891C51.4381 33.8326 51.4331 34.086 51.3689 34.3271L49.8886 39.9237C49.8098 40.2005 49.6626 40.4523 49.461 40.655C49.2594 40.8577 49.0102 41.0046 48.7369 41.0818V44.1932C48.7284 44.5086 48.631 44.8148 48.4564 45.0756C48.2817 45.3364 48.0371 45.5408 47.7515 45.6645V48.8543C47.7376 49.0442 47.6537 49.2217 47.5164 49.3513C47.3791 49.4808 47.1987 49.5528 47.0114 49.5528C46.824 49.5528 46.6436 49.4808 46.5064 49.3513C46.3691 49.2217 46.2851 49.0442 46.2713 48.8543V45.8212H43.8056V52.584C43.8011 52.8961 43.708 53.2001 43.5375 53.4597C43.367 53.7192 43.1264 53.9232 42.8445 54.0471L38.5134 56.0829C38.3285 56.1642 38.1707 56.2981 38.0592 56.4685C37.9476 56.6389 37.8871 56.8385 37.8848 57.0432C37.8861 57.2209 37.9323 57.3954 38.0189 57.5498C38.1055 57.7042 38.2297 57.8334 38.3795 57.9251C38.5381 58.0265 38.7176 58.0893 38.904 58.1086C39.0905 58.1279 39.2787 58.1032 39.4542 58.0364L45.4926 55.7656C45.7161 55.6879 45.9107 55.5422 46.05 55.3483C46.1893 55.1545 46.2665 54.9218 46.2713 54.6818V51.6526C46.2851 51.4628 46.3691 51.2853 46.5064 51.1557C46.6436 51.0262 46.824 50.9542 47.0114 50.9542C47.1987 50.9542 47.3791 51.0262 47.5164 51.1557C47.6537 51.2853 47.7376 51.4628 47.7515 51.6526V54.6818C47.7423 55.2096 47.573 55.7216 47.2667 56.1479C46.9604 56.5743 46.532 56.8942 46.0401 57.0638L39.9976 59.281C39.6856 59.3963 39.3564 59.4562 39.0243 59.4582C38.5039 59.4647 37.9923 59.3218 37.5482 59.0461C37.1986 58.8319 36.9093 58.5298 36.7083 58.1688C36.5072 57.8078 36.4012 57.4002 36.4005 56.9855C36.4064 56.5135 36.5466 56.0534 36.8042 55.6607C37.0618 55.2679 37.4259 54.9594 37.8523 54.7724L42.1835 52.7366C42.2233 52.7183 42.2571 52.6887 42.2809 52.6515C42.3046 52.6142 42.3172 52.5708 42.3173 52.5264V45.6069C42.0317 45.4832 41.7871 45.2788 41.6124 45.018C41.4377 44.7572 41.3404 44.4509 41.3318 44.1356V41.0241C41.0586 40.9469 40.8094 40.7999 40.6078 40.5972C40.4062 40.3945 40.259 40.1428 40.1801 39.866L38.7202 34.2859C38.6549 34.045 38.6493 33.7913 38.7038 33.5475C38.7582 33.3038 38.8712 33.0775 39.0325 32.8888C39.1973 32.6937 39.4012 32.5365 39.6306 32.4278C39.86 32.3191 40.1095 32.2612 40.3626 32.2583V29.9257H40.1152C39.8951 29.9334 39.6757 29.8968 39.4696 29.818C39.2634 29.7392 39.0746 29.6198 38.9141 29.4666C38.7535 29.3134 38.6244 29.1294 38.534 28.9253C38.4437 28.7212 38.3939 28.5009 38.3876 28.2772V26.1795H38.1403C37.9205 26.1866 37.7015 26.1497 37.4958 26.0706C37.2902 25.9916 37.1019 25.872 36.9418 25.7189C36.7816 25.5657 36.6528 25.382 36.5627 25.1782C36.4726 24.9743 36.423 24.7544 36.4167 24.531V23.204C36.1289 23.0842 35.8819 22.8815 35.7061 22.6208C35.5302 22.3601 35.4333 22.0528 35.4272 21.7368V19.8659C35.4335 19.6422 35.4833 19.4218 35.5736 19.2177C35.664 19.0136 35.7931 18.8297 35.9537 18.6765C36.1142 18.5233 36.303 18.4038 36.5091 18.3251C36.7153 18.2463 36.9347 18.2097 37.1548 18.2174H45.5413C45.636 18.21 45.7312 18.2226 45.8209 18.2543C45.9106 18.2861 45.9929 18.3362 46.0626 18.4018C46.1323 18.4674 46.1879 18.547 46.2259 18.6354C46.2639 18.7239 46.2835 18.8193 46.2835 18.9159C46.2835 19.0124 46.2639 19.1079 46.2259 19.1964C46.1879 19.2848 46.1323 19.3643 46.0626 19.4299C45.9929 19.4955 45.9106 19.5458 45.8209 19.5775C45.7312 19.6093 45.636 19.6218 45.5413 19.6144H37.1386C37.1074 19.6128 37.0761 19.6175 37.0467 19.6282C37.0173 19.639 36.9903 19.6555 36.9672 19.677C36.9442 19.6985 36.9256 19.7245 36.9126 19.7534C36.8995 19.7823 36.8923 19.8135 36.8912 19.8452V21.7781C36.8944 21.8418 36.9221 21.9018 36.9684 21.945C37.0147 21.9882 37.0758 22.0111 37.1386 22.0089H52.914C52.9767 22.0111 53.0379 21.9882 53.0842 21.945C53.1305 21.9018 53.1582 21.8418 53.1613 21.7781V19.907C53.1603 19.8753 53.153 19.844 53.14 19.8152C53.1269 19.7863 53.1083 19.7604 53.0853 19.7389C53.0623 19.7174 53.0353 19.7007 53.0058 19.69C52.9764 19.6792 52.9452 19.6746 52.914 19.6762H48.4896C48.3949 19.6836 48.2997 19.671 48.21 19.6393C48.1203 19.6075 48.038 19.5574 47.9683 19.4918C47.8986 19.4262 47.843 19.3466 47.8049 19.2582C47.7669 19.1697 47.7473 19.0743 47.7473 18.9777C47.7473 18.8812 47.7669 18.7857 47.8049 18.6972C47.843 18.6088 47.8986 18.5293 47.9683 18.4637C48.038 18.3981 48.1203 18.3478 48.21 18.3161C48.2997 18.2843 48.3949 18.2718 48.4896 18.2792H52.914C53.1341 18.2715 53.3535 18.308 53.5596 18.3868C53.7658 18.4656 53.9545 18.5851 54.1151 18.7383C54.2756 18.8915 54.4048 19.0755 54.4952 19.2796C54.5855 19.4837 54.6353 19.7039 54.6415 19.9277M40.0868 24.8277C40.1183 24.8288 40.1496 24.8236 40.179 24.8124C40.2085 24.8012 40.2355 24.7842 40.2584 24.7624C40.2814 24.7406 40.2999 24.7143 40.313 24.6852C40.326 24.6561 40.3332 24.6248 40.3342 24.5929V23.4265H37.8686V24.5929C37.8707 24.6566 37.8974 24.717 37.9429 24.7609C37.9884 24.8048 38.0491 24.8288 38.1119 24.8277H40.0868ZM47.2405 41.1477H42.8121V44.181C42.8131 44.2127 42.8203 44.2439 42.8334 44.2728C42.8464 44.3017 42.865 44.3276 42.8881 44.3491C42.9111 44.3706 42.9381 44.3871 42.9676 44.3979C42.997 44.4086 43.0282 44.4133 43.0594 44.4117H47.0053C47.0365 44.4133 47.0677 44.4086 47.0972 44.3979C47.1266 44.3871 47.1536 44.3706 47.1766 44.3491C47.1997 44.3276 47.2183 44.3017 47.2313 44.2728C47.2444 44.2439 47.2516 44.2127 47.2527 44.181L47.2405 41.1477ZM50.2009 26.2249H49.9535C49.7338 26.232 49.5148 26.1949 49.3091 26.1159C49.1034 26.0368 48.9151 25.9174 48.755 25.7642C48.5949 25.6111 48.4661 25.4273 48.376 25.2234C48.2859 25.0196 48.2363 24.7997 48.23 24.5764V23.41H41.8266V24.5764C41.8203 24.8001 41.7706 25.0203 41.6802 25.2244C41.5899 25.4286 41.4607 25.6125 41.3002 25.7657C41.1396 25.919 40.9508 26.0383 40.7447 26.1171C40.5385 26.1959 40.3191 26.2326 40.099 26.2249H39.8516V28.3225C39.8527 28.3544 39.8599 28.3859 39.8729 28.4149C39.8859 28.444 39.9044 28.4703 39.9274 28.4921C39.9504 28.5139 39.9774 28.5309 40.0068 28.5421C40.0363 28.5533 40.0676 28.5585 40.099 28.5574H44.5599C44.6546 28.55 44.7498 28.5626 44.8395 28.5943C44.9292 28.6261 45.0115 28.6764 45.0812 28.7419C45.1509 28.8075 45.2065 28.887 45.2445 28.9755C45.2825 29.0639 45.3022 29.1595 45.3022 29.256C45.3022 29.3525 45.2825 29.4481 45.2445 29.5365C45.2065 29.625 45.1509 29.7044 45.0812 29.77C45.0115 29.8356 44.9292 29.8859 44.8395 29.9176C44.7498 29.9494 44.6546 29.962 44.5599 29.9546H41.8469V32.2871H44.5599C44.7428 32.2871 44.9181 32.3609 45.0474 32.4923C45.1767 32.6237 45.2493 32.8019 45.2493 32.9877C45.2493 33.1735 45.1767 33.3518 45.0474 33.4831C44.9181 33.6145 44.7428 33.6883 44.5599 33.6883H40.3788C40.3415 33.6874 40.3045 33.6947 40.2702 33.7096C40.2359 33.7246 40.2052 33.7468 40.1801 33.7749C40.1578 33.8028 40.1425 33.8356 40.1355 33.8708C40.1284 33.906 40.1298 33.9424 40.1396 33.9769L41.6157 39.5734C41.6315 39.6252 41.6633 39.6704 41.7064 39.7024C41.7495 39.7343 41.8016 39.7513 41.855 39.7507H48.2097C48.2631 39.7513 48.3152 39.7343 48.3583 39.7024C48.4014 39.6704 48.4333 39.6252 48.449 39.5734L49.9292 33.9769C49.9384 33.942 49.9392 33.9055 49.9314 33.8703C49.9236 33.8351 49.9076 33.8024 49.8846 33.7749C49.8603 33.7469 49.8303 33.7247 49.7967 33.7097C49.7631 33.6948 49.7266 33.6874 49.6899 33.6883H47.5001C47.3172 33.6883 47.1419 33.6145 47.0126 33.4831C46.8833 33.3518 46.8106 33.1735 46.8106 32.9877C46.8106 32.8019 46.8833 32.6237 47.0126 32.4923C47.1419 32.3609 47.3172 32.2871 47.5001 32.2871H48.2422V29.9546H47.5001C47.4053 29.962 47.3102 29.9494 47.2205 29.9176C47.1308 29.8859 47.0485 29.8356 46.9788 29.77C46.9091 29.7044 46.8535 29.625 46.8154 29.5365C46.7774 29.4481 46.7578 29.3525 46.7578 29.256C46.7578 29.1595 46.7774 29.0639 46.8154 28.9755C46.8535 28.887 46.9091 28.8075 46.9788 28.7419C47.0485 28.6764 47.1308 28.6261 47.2205 28.5943C47.3102 28.5626 47.4053 28.55 47.5001 28.5574H49.9657C49.9971 28.5585 50.0285 28.5533 50.0579 28.5421C50.0873 28.5309 50.1143 28.5139 50.1373 28.4921C50.1603 28.4703 50.1788 28.444 50.1918 28.4149C50.2048 28.3859 50.212 28.3544 50.2131 28.3225L50.2009 26.2249ZM52.1759 23.4265H49.7102V24.5929C49.7123 24.6566 49.739 24.717 49.7846 24.7609C49.8301 24.8048 49.8908 24.8288 49.9535 24.8277H51.9285C51.9917 24.8289 52.0528 24.805 52.099 24.7612C52.1452 24.7174 52.1727 24.657 52.1759 24.5929V23.4265ZM29.2023 59.5942C29.3451 59.7271 29.5317 59.8009 29.7254 59.8009C29.9191 59.8009 30.1057 59.7271 30.2485 59.5942C30.3163 59.532 30.3705 59.456 30.4076 59.3711C30.4447 59.2863 30.4639 59.1945 30.4639 59.1017C30.4639 59.0089 30.4447 58.9171 30.4076 58.8322C30.3705 58.7474 30.3163 58.6715 30.2485 58.6093L26.3027 54.8755C26.159 54.7443 25.9727 54.6716 25.7795 54.6716C25.5864 54.6716 25.4 54.7443 25.2564 54.8755C25.1885 54.938 25.1342 55.0143 25.0971 55.0995C25.0599 55.1847 25.0408 55.2768 25.0408 55.37C25.0408 55.4631 25.0599 55.5553 25.0971 55.6404C25.1342 55.7256 25.1885 55.8019 25.2564 55.8645L29.2023 59.5942ZM32.6858 50.9397C32.4968 50.9341 32.3132 51.0046 32.175 51.1358C32.0368 51.267 31.9551 51.4482 31.9477 51.6403V57.2204C31.9616 57.4102 32.0456 57.5878 32.1828 57.7173C32.3201 57.8469 32.5005 57.9189 32.6878 57.9189C32.8752 57.9189 33.0556 57.8469 33.1929 57.7173C33.3301 57.5878 33.4141 57.4102 33.4279 57.2204V51.6238C33.4206 51.431 33.3383 51.2491 33.1992 51.1178C33.0601 50.9865 32.8755 50.9165 32.6858 50.9232" fill="white"/>
<path d="M53.9156 62.5697L53.9236 62.2997H53.9156V62.5697ZM34.6648 62.5697V62.2997H34.6543L34.6438 62.3005L34.6648 62.5697ZM33.9226 61.8711H34.1926H33.9226ZM34.6648 61.1727L34.6438 61.4418L34.6543 61.4427H34.6648V61.1727ZM53.9075 61.1727V61.4428L53.9171 61.4425L53.9075 61.1727ZM25.2969 61.1727L25.2759 61.4418L25.2864 61.4427H25.2969V61.1727ZM24.5547 61.8711H24.8247H24.5547ZM25.2969 62.5697V62.2997H25.2864L25.2759 62.3005L25.2969 62.5697ZM31.7125 62.5697L31.7335 62.3005L31.723 62.2997H31.7125V62.5697ZM32.4548 61.8711H32.1848H32.4548ZM54.6537 21.7781L54.9237 21.7834V21.7781H54.6537ZM53.6682 23.2452L53.5634 22.9964L53.3982 23.066V23.2452H53.6682ZM53.6682 24.5723L53.9382 24.5798V24.5723H53.6682ZM51.9407 26.2207L51.9501 25.9507H51.9407V26.2207ZM51.6973 26.2207V25.9507H51.4273V26.2207H51.6973ZM51.6973 28.3185L51.9673 28.326V28.3185H51.6973ZM49.9698 29.9669L49.9792 29.6969H49.9698V29.9669ZM49.7264 29.9669V29.6969H49.4564V29.9669H49.7264ZM49.7264 32.2995H49.4564V32.5663L49.7233 32.5695L49.7264 32.2995ZM51.0566 32.9301L50.8503 33.1043L50.8506 33.1046L51.0566 32.9301ZM51.3689 34.3271L51.108 34.2576L51.1078 34.2581L51.3689 34.3271ZM49.8886 39.9237L50.1484 39.9977L50.1497 39.9928L49.8886 39.9237ZM48.7369 41.0818L48.6635 40.822L48.4669 40.8775V41.0818H48.7369ZM48.7369 44.1932L49.0069 44.2005V44.1932H48.7369ZM47.7515 45.6645L47.6442 45.4168L47.4815 45.4872V45.6645H47.7515ZM47.7515 48.8543L48.0208 48.874L48.0215 48.8642V48.8543H47.7515ZM46.2713 48.8543H46.0013V48.8642L46.002 48.874L46.2713 48.8543ZM46.2713 45.8212H46.5413V45.5512H46.2713V45.8212ZM43.8056 45.8212V45.5512H43.5356V45.8212H43.8056ZM43.8056 52.584L44.0756 52.5879V52.584H43.8056ZM42.8445 54.0471L42.7358 53.7998L42.7296 53.8027L42.8445 54.0471ZM38.5134 56.0829L38.622 56.3302L38.6282 56.3273L38.5134 56.0829ZM37.8848 57.0432L37.6148 57.0402L37.6148 57.0452L37.8848 57.0432ZM38.3795 57.9251L38.525 57.6976L38.5205 57.6948L38.3795 57.9251ZM39.4542 58.0364L39.3592 57.7837L39.3581 57.784L39.4542 58.0364ZM45.4926 55.7656L45.4039 55.5105L45.3976 55.5129L45.4926 55.7656ZM46.2713 54.6818L46.5413 54.6871V54.6818H46.2713ZM46.2713 51.6526L46.002 51.633L46.0013 51.6428V51.6526H46.2713ZM47.7515 51.6526H48.0215V51.6428L48.0208 51.633L47.7515 51.6526ZM47.7515 54.6818L48.0215 54.6865V54.6818H47.7515ZM46.0401 57.0638L45.9521 56.8085L45.9471 56.8104L46.0401 57.0638ZM39.9976 59.281L39.9046 59.0275L39.9041 59.0277L39.9976 59.281ZM39.0243 59.4582L39.0227 59.1882L39.021 59.1882L39.0243 59.4582ZM37.5482 59.0461L37.6906 58.8167L37.6892 58.8158L37.5482 59.0461ZM36.4005 56.9855L36.1305 56.9821L36.1305 56.9859L36.4005 56.9855ZM37.8523 54.7724L37.9608 55.0198L37.9672 55.0168L37.8523 54.7724ZM42.1835 52.7366L42.0711 52.4911L42.0686 52.4922L42.1835 52.7366ZM42.3173 52.5264L42.5873 52.5267V52.5264H42.3173ZM42.3173 45.6069H42.5873V45.4296L42.4246 45.3591L42.3173 45.6069ZM41.3318 44.1356H41.0617L41.0619 44.1429L41.3318 44.1356ZM41.3318 41.0241H41.6018V40.8198L41.4053 40.7642L41.3318 41.0241ZM40.1801 39.866L39.9188 39.9343L39.9204 39.9399L40.1801 39.866ZM38.7202 34.2859L38.9814 34.2176L38.9808 34.2154L38.7202 34.2859ZM39.0325 32.8888L39.2377 33.0643L39.2387 33.0631L39.0325 32.8888ZM40.3626 32.2583L40.3658 32.5282L40.6326 32.5251V32.2583H40.3626ZM40.3626 29.9257H40.6326V29.6557H40.3626V29.9257ZM40.1152 29.9257V29.6555L40.1058 29.6559L40.1152 29.9257ZM38.3876 28.2772H38.1175L38.1178 28.2848L38.3876 28.2772ZM38.3876 26.1795H38.6576V25.9095H38.3876V26.1795ZM38.1403 26.1795V25.9093L38.1315 25.9096L38.1403 26.1795ZM36.4167 24.531H36.1466L36.1469 24.5386L36.4167 24.531ZM36.4167 23.204H36.6867V23.0239L36.5205 22.9547L36.4167 23.204ZM35.4272 21.7368H35.1572L35.1573 21.742L35.4272 21.7368ZM35.4272 19.8659L35.1572 19.8583V19.8659H35.4272ZM37.1548 18.2174L37.1454 18.4874H37.1548V18.2174ZM45.5413 18.2174V18.4874H45.5518L45.5623 18.4866L45.5413 18.2174ZM46.2835 18.9159H46.0135H46.2835ZM45.5413 19.6144L45.5623 19.3453L45.5518 19.3444H45.5413V19.6144ZM37.1386 19.6144L37.1242 19.8841L37.1314 19.8844H37.1386V19.6144ZM36.8912 19.8452L36.6212 19.8364V19.8452H36.8912ZM36.8912 21.7781H36.6209L36.6215 21.7914L36.8912 21.7781ZM37.1386 22.0089V21.7387L37.1289 21.739L37.1386 22.0089ZM52.914 22.0089L52.9236 21.7389H52.914V22.0089ZM53.1613 21.7781L53.4313 21.7914V21.7781H53.1613ZM53.1613 19.907H53.4315L53.4312 19.8982L53.1613 19.907ZM52.914 19.6762V19.9462H52.9211L52.9283 19.9458L52.914 19.6762ZM48.4896 19.6762V19.4062H48.479L48.4685 19.407L48.4896 19.6762ZM47.7473 18.9777H48.0173H47.7473ZM48.4896 18.2792L48.4685 18.5484L48.479 18.5492H48.4896V18.2792ZM52.914 18.2792V18.5493L52.9234 18.549L52.914 18.2792ZM40.0868 24.8277L40.0963 24.5577H40.0868V24.8277ZM40.3342 24.5929L40.6042 24.6017V24.5929H40.3342ZM40.3342 23.4265H40.6042V23.1565H40.3342V23.4265ZM37.8686 23.4265V23.1565H37.5986V23.4265H37.8686ZM37.8686 24.5929H37.5984L37.5987 24.6018L37.8686 24.5929ZM38.1119 24.8277V24.5577L38.1071 24.5578L38.1119 24.8277ZM47.2405 41.1477L47.5105 41.1466L47.5094 40.8777H47.2405V41.1477ZM42.8121 41.1477V40.8777H42.5421V41.1477H42.8121ZM42.8121 44.181H42.5419L42.5422 44.1898L42.8121 44.181ZM43.0594 44.4117V44.1417H43.0523L43.0451 44.142L43.0594 44.4117ZM47.0053 44.4117L47.0196 44.142L47.0125 44.1417H47.0053V44.4117ZM47.2527 44.181L47.5227 44.1898L47.5227 44.1799L47.2527 44.181ZM50.2009 26.2249L50.4709 26.2233L50.4694 25.9549H50.2009V26.2249ZM49.9535 26.2249V25.9547L49.9448 25.955L49.9535 26.2249ZM48.23 24.5764H47.9599L47.9601 24.584L48.23 24.5764ZM48.23 23.41H48.5V23.14H48.23V23.41ZM41.8266 23.41V23.14H41.5566V23.41H41.8266ZM41.8266 24.5764L42.0966 24.584V24.5764H41.8266ZM40.099 26.2249L40.1085 25.9549H40.099V26.2249ZM39.8516 26.2249V25.9549H39.5816V26.2249H39.8516ZM39.8516 28.3225H39.5815L39.5818 28.3313L39.8516 28.3225ZM40.099 28.5574V28.2873L40.0896 28.2876L40.099 28.5574ZM44.5599 28.5574V28.8274H44.5704L44.5809 28.8266L44.5599 28.5574ZM45.3022 29.256H45.0322H45.3022ZM44.5599 29.9546L44.5809 29.6854L44.5704 29.6846H44.5599V29.9546ZM41.8469 29.9546V29.6846H41.5769V29.9546H41.8469ZM41.8469 32.2871H41.5769V32.5571H41.8469V32.2871ZM44.5599 32.2871V32.5571V32.2871ZM40.3788 33.6883L40.3721 33.9583H40.3788V33.6883ZM40.1801 33.7749L39.9786 33.5952L39.9738 33.6006L39.9693 33.6062L40.1801 33.7749ZM40.1396 33.9769L40.4007 33.908L40.3994 33.9033L40.1396 33.9769ZM41.6157 39.5734L41.3545 39.6423L41.3574 39.6519L41.6157 39.5734ZM41.855 39.7507V39.4806L41.8518 39.4807L41.855 39.7507ZM48.2097 39.7507L48.213 39.4807H48.2097V39.7507ZM48.449 39.5734L48.7075 39.6519L48.71 39.6424L48.449 39.5734ZM49.9292 33.9769L49.6682 33.9078L49.6682 33.9078L49.9292 33.9769ZM49.8846 33.7749L50.0918 33.6017L50.0886 33.5981L49.8846 33.7749ZM49.6899 33.6883V33.9584L49.6965 33.9582L49.6899 33.6883ZM48.2422 32.2871V32.5571H48.5122V32.2871H48.2422ZM48.2422 29.9546H48.5122V29.6846H48.2422V29.9546ZM47.5001 29.9546V29.6846H47.4895L47.479 29.6854L47.5001 29.9546ZM46.7578 29.256H47.0278H46.7578ZM47.5001 28.5574L47.479 28.8266L47.4895 28.8274H47.5001V28.5574ZM49.9657 28.5574L49.9752 28.2874H49.9657V28.5574ZM50.2131 28.3225L50.4831 28.3313L50.4831 28.3209L50.2131 28.3225ZM52.1759 23.4265H52.4459V23.1565H52.1759V23.4265ZM49.7102 23.4265V23.1565H49.4402V23.4265H49.7102ZM49.7102 24.5929H49.4401L49.4404 24.6018L49.7102 24.5929ZM49.9535 24.8277V24.5577L49.9487 24.5578L49.9535 24.8277ZM51.9285 24.8277L51.9334 24.5577H51.9285V24.8277ZM52.1759 24.5929L52.4459 24.6061V24.5929H52.1759ZM29.2023 59.5942L29.0168 59.7904L29.0183 59.7918L29.2023 59.5942ZM30.2485 59.5942L30.066 59.3953L30.0646 59.3966L30.2485 59.5942ZM30.2485 58.6093L30.0629 58.8054L30.066 58.8082L30.2485 58.6093ZM26.3027 54.8755L26.4883 54.6793L26.4847 54.6761L26.3027 54.8755ZM25.7795 54.6716V54.4016V54.6716ZM25.2564 54.8755L25.0743 54.6761L25.0734 54.6769L25.2564 54.8755ZM25.2564 55.8645L25.4419 55.6683L25.4394 55.666L25.2564 55.8645ZM31.9477 51.6403L31.6777 51.6299V51.6403H31.9477ZM31.9477 57.2204H31.6777V57.2302L31.6784 57.24L31.9477 57.2204ZM33.4279 57.2204L33.6972 57.24L33.6979 57.2302V57.2204H33.4279ZM33.4279 51.6238H33.6981L33.6977 51.6134L33.4279 51.6238ZM54.3839 61.8587C54.3792 61.981 54.3272 62.0955 54.2405 62.1778L54.6123 62.5694C54.8021 62.3893 54.9134 62.1413 54.9235 61.8795L54.3839 61.8587ZM54.2405 62.1778C54.154 62.2599 54.0401 62.3033 53.9236 62.2998L53.9077 62.8396C54.1692 62.8473 54.4224 62.7497 54.6123 62.5694L54.2405 62.1778ZM53.9156 62.2997H34.6648V62.8397H53.9156V62.2997ZM34.6438 62.3005C34.5868 62.305 34.5295 62.2974 34.4753 62.2782L34.2951 62.7873C34.4204 62.8316 34.5534 62.8492 34.6859 62.8389L34.6438 62.3005ZM34.4753 62.2782C34.4212 62.2591 34.3712 62.2286 34.3286 62.1885L33.9585 62.5818C34.0553 62.6729 34.1699 62.743 34.2951 62.7873L34.4753 62.2782ZM34.3286 62.1885C34.286 62.1485 34.2518 62.0997 34.2283 62.045L33.7322 62.2583C33.7847 62.3805 33.8617 62.4907 33.9585 62.5818L34.3286 62.1885ZM34.2283 62.045C34.2048 61.9904 34.1926 61.9311 34.1926 61.8711H33.6526C33.6526 62.0042 33.6796 62.136 33.7322 62.2583L34.2283 62.045ZM34.1926 61.8711C34.1926 61.8112 34.2048 61.752 34.2283 61.6973L33.7322 61.4841C33.6796 61.6063 33.6526 61.738 33.6526 61.8711H34.1926ZM34.2283 61.6973C34.2518 61.6426 34.2861 61.5937 34.3286 61.5537L33.9585 61.1605C33.8616 61.2516 33.7847 61.3619 33.7322 61.4841L34.2283 61.6973ZM34.3286 61.5537C34.3711 61.5137 34.421 61.4833 34.4753 61.4641L34.2951 60.9551C34.17 60.9993 34.0554 61.0692 33.9585 61.1605L34.3286 61.5537ZM34.4753 61.4641C34.5295 61.4449 34.5868 61.4374 34.6438 61.4418L34.6859 60.9035C34.5534 60.8931 34.4204 60.9107 34.2951 60.9551L34.4753 61.4641ZM34.6648 61.4427H53.9075V60.9027H34.6648V61.4427ZM53.9171 61.4425C54.0329 61.4384 54.1465 61.481 54.2327 61.5624L54.6034 61.1697C54.413 60.99 54.1594 60.8936 53.898 60.9028L53.9171 61.4425ZM54.2327 61.5624C54.3192 61.644 54.3711 61.7579 54.3758 61.8795L54.9154 61.8587C54.9053 61.597 54.7936 61.3492 54.6034 61.1697L54.2327 61.5624ZM31.7044 60.9027H25.2969V61.4427H31.7044V60.9027ZM25.318 60.9035C25.1855 60.8931 25.0525 60.9107 24.9273 60.9551L25.1074 61.4641C25.1616 61.4449 25.2189 61.4374 25.2759 61.4418L25.318 60.9035ZM24.9273 60.9551C24.8022 60.9993 24.6876 61.0692 24.5906 61.1605L24.9607 61.5537C25.0032 61.5137 25.0531 61.4833 25.1074 61.4641L24.9273 60.9551ZM24.5906 61.1605C24.4938 61.2516 24.4168 61.3619 24.3643 61.4841L24.8604 61.6973C24.8839 61.6426 24.9182 61.5937 24.9607 61.5537L24.5906 61.1605ZM24.3643 61.4841C24.3117 61.6063 24.2847 61.738 24.2847 61.8711H24.8247C24.8247 61.8112 24.8369 61.752 24.8604 61.6973L24.3643 61.4841ZM24.2847 61.8711C24.2847 62.0042 24.3117 62.136 24.3643 62.2583L24.8604 62.045C24.8369 61.9904 24.8247 61.9311 24.8247 61.8711H24.2847ZM24.3643 62.2583C24.4169 62.3806 24.4939 62.4907 24.5906 62.5818L24.9607 62.1885C24.9181 62.1484 24.8839 62.0996 24.8604 62.045L24.3643 62.2583ZM24.5906 62.5818C24.6874 62.6729 24.802 62.743 24.9273 62.7873L25.1074 62.2782C25.0533 62.2591 25.0033 62.2286 24.9607 62.1885L24.5906 62.5818ZM24.9273 62.7873C25.0525 62.8316 25.1855 62.8492 25.318 62.8389L25.2759 62.3005C25.2189 62.305 25.1616 62.2974 25.1074 62.2782L24.9273 62.7873ZM25.2969 62.8397H31.7125V62.2997H25.2969V62.8397ZM31.6915 62.8389C31.8239 62.8492 31.957 62.8316 32.0822 62.7873L31.902 62.2782C31.8479 62.2974 31.7905 62.305 31.7335 62.3005L31.6915 62.8389ZM32.0822 62.7873C32.2075 62.743 32.322 62.6729 32.4188 62.5818L32.0487 62.1885C32.0061 62.2286 31.9562 62.2591 31.902 62.2782L32.0822 62.7873ZM32.4188 62.5818C32.5156 62.4907 32.5926 62.3806 32.6452 62.2583L32.1491 62.045C32.1256 62.0996 32.0914 62.1484 32.0487 62.1885L32.4188 62.5818ZM32.6452 62.2583C32.6977 62.136 32.7248 62.0042 32.7248 61.8711H32.1848C32.1848 61.9311 32.1726 61.9904 32.1491 62.045L32.6452 62.2583ZM32.7248 61.8711C32.7248 61.738 32.6977 61.6063 32.6452 61.4841L32.1491 61.6973C32.1726 61.752 32.1848 61.8112 32.1848 61.8711H32.7248ZM32.6452 61.4841C32.5926 61.3619 32.5157 61.2516 32.4188 61.1605L32.0487 61.5537C32.0913 61.5937 32.1256 61.6426 32.1491 61.6973L32.6452 61.4841ZM32.4188 61.1605C32.3219 61.0693 32.2073 60.9993 32.0822 60.9551L31.902 61.4641C31.9563 61.4833 32.0063 61.5137 32.0487 61.5537L32.4188 61.1605ZM32.0822 60.9551C31.957 60.9107 31.8239 60.8931 31.6915 60.9035L31.7335 61.4418C31.7905 61.4374 31.8479 61.4449 31.902 61.4641L32.0822 60.9551ZM54.3837 19.8988V21.7781H54.9237V19.8988H54.3837ZM54.3837 21.7727C54.3785 22.0366 54.2977 22.2929 54.1518 22.5102L54.6 22.8113C54.8041 22.5075 54.9164 22.1503 54.9236 21.7834L54.3837 21.7727ZM54.1518 22.5102C54.0058 22.7275 53.8012 22.8962 53.5634 22.9964L53.7731 23.494C54.1088 23.3526 54.396 23.1151 54.6 22.8113L54.1518 22.5102ZM53.3982 23.2452V24.5723H53.9382V23.2452H53.3982ZM53.3984 24.5647C53.393 24.7534 53.3511 24.9391 53.275 25.111L53.7688 25.3296C53.8733 25.0933 53.9309 24.8385 53.9381 24.5798L53.3984 24.5647ZM53.275 25.111C53.1988 25.283 53.0902 25.4377 52.9554 25.5663L53.3282 25.957C53.5146 25.7791 53.6642 25.5659 53.7688 25.3296L53.275 25.111ZM52.9554 25.5663C52.8207 25.6948 52.6625 25.7948 52.4899 25.8608L52.6827 26.3652C52.9225 26.2735 53.1418 26.1348 53.3282 25.957L52.9554 25.5663ZM52.4899 25.8608C52.3174 25.9267 52.134 25.9573 51.9501 25.9509L51.9312 26.4906C52.1876 26.4995 52.443 26.4568 52.6827 26.3652L52.4899 25.8608ZM51.9407 25.9507H51.6973V26.4907H51.9407V25.9507ZM51.4273 26.2207V28.3185H51.9673V26.2207H51.4273ZM51.4275 28.3109C51.4221 28.4996 51.3802 28.6853 51.3041 28.8572L51.7979 29.0758C51.9024 28.8395 51.96 28.5847 51.9672 28.326L51.4275 28.3109ZM51.3041 28.8572C51.228 29.0291 51.1193 29.1838 50.9845 29.3124L51.3573 29.7031C51.5436 29.5253 51.6933 29.3121 51.7979 29.0758L51.3041 28.8572ZM50.9845 29.3124C50.8497 29.441 50.6915 29.5411 50.519 29.607L50.7118 30.1114C50.9517 30.0197 51.171 29.8809 51.3573 29.7031L50.9845 29.3124ZM50.519 29.607C50.3465 29.6729 50.1631 29.7035 49.9792 29.6971L49.9603 30.2368C50.2167 30.2457 50.4721 30.203 50.7118 30.1114L50.519 29.607ZM49.9698 29.6969H49.7264V30.2369H49.9698V29.6969ZM49.4564 29.9669V32.2995H49.9964V29.9669H49.4564ZM49.7233 32.5695C49.9373 32.572 50.1485 32.6208 50.3428 32.7129L50.5741 32.225C50.3096 32.0996 50.0217 32.033 49.7296 32.0295L49.7233 32.5695ZM50.3428 32.7129C50.5371 32.805 50.7102 32.9384 50.8503 33.1043L51.2628 32.7558C51.0733 32.5314 50.8386 32.3503 50.5741 32.225L50.3428 32.7129ZM50.8506 33.1046C50.9826 33.2603 51.0753 33.4468 51.1202 33.648L51.6472 33.5302C51.5833 33.2443 51.4514 32.9783 51.2626 32.7555L50.8506 33.1046ZM51.1202 33.648C51.1652 33.8492 51.161 34.0585 51.108 34.2576L51.6298 34.3966C51.7051 34.1135 51.7111 33.8161 51.6472 33.5302L51.1202 33.648ZM51.1078 34.2581L49.6276 39.8547L50.1497 39.9928L51.6299 34.3961L51.1078 34.2581ZM49.629 39.8497C49.5625 40.0829 49.4387 40.2946 49.2695 40.4646L49.6524 40.8454C49.8865 40.61 50.057 40.3181 50.1483 39.9977L49.629 39.8497ZM49.2695 40.4646C49.1004 40.6346 48.8918 40.7575 48.6635 40.822L48.8103 41.3416C49.1285 41.2517 49.4183 41.0808 49.6524 40.8454L49.2695 40.4646ZM48.4669 41.0818V44.1932H49.0069V41.0818H48.4669ZM48.467 44.1859C48.4599 44.4506 48.3782 44.7072 48.232 44.9254L48.6807 45.2259C48.8839 44.9225 48.997 44.5666 49.0068 44.2005L48.467 44.1859ZM48.232 44.9254C48.0859 45.1435 47.8817 45.3139 47.6442 45.4168L47.8588 45.9123C48.1924 45.7678 48.4775 45.5293 48.6807 45.2259L48.232 44.9254ZM47.4815 45.6645V48.8543H48.0215V45.6645H47.4815ZM47.4822 48.8347C47.4732 48.9579 47.4188 49.0721 47.3311 49.1549L47.7017 49.5476C47.8885 49.3713 48.0021 49.1305 48.0208 48.874L47.4822 48.8347ZM47.3311 49.1549C47.2435 49.2376 47.1292 49.2828 47.0114 49.2828V49.8228C47.2682 49.8228 47.5147 49.7241 47.7017 49.5476L47.3311 49.1549ZM47.0114 49.2828C46.8935 49.2828 46.7792 49.2376 46.6917 49.1549L46.321 49.5476C46.508 49.7241 46.7546 49.8228 47.0114 49.8228V49.2828ZM46.6917 49.1549C46.604 49.0721 46.5495 48.9579 46.5406 48.8347L46.002 48.874C46.0207 49.1305 46.1342 49.3713 46.321 49.5476L46.6917 49.1549ZM46.5413 48.8543V45.8212H46.0013V48.8543H46.5413ZM46.2713 45.5512H43.8056V46.0912H46.2713V45.5512ZM43.5356 45.8212V52.584H44.0756V45.8212H43.5356ZM43.5356 52.5802C43.5319 52.8411 43.454 53.0951 43.3119 53.3114L43.7632 53.6079C43.9621 53.3052 44.0704 52.951 44.0756 52.5879L43.5356 52.5802ZM43.3119 53.3114C43.1697 53.5278 42.9695 53.6972 42.7359 53.7999L42.9531 54.2943C43.2832 54.1493 43.5643 53.9107 43.7632 53.6079L43.3119 53.3114ZM42.7296 53.8027L38.3985 55.8386L38.6282 56.3273L42.9593 54.2914L42.7296 53.8027ZM38.4048 55.8357C38.1715 55.9382 37.9732 56.1068 37.8333 56.3206L38.2851 56.6164C38.3683 56.4893 38.4854 56.3901 38.622 56.3301L38.4048 55.8357ZM37.8333 56.3206C37.6934 56.5344 37.6176 56.7843 37.6148 57.0402L38.1548 57.0462C38.1565 56.8928 38.2019 56.7435 38.2851 56.6164L37.8333 56.3206ZM37.6148 57.0452C37.6164 57.2683 37.6744 57.4876 37.7834 57.6819L38.2544 57.4177C38.1901 57.3032 38.1557 57.1736 38.1548 57.0412L37.6148 57.0452ZM37.7834 57.6819C37.8925 57.8763 38.0491 58.0394 38.2386 58.1554L38.5205 57.6948C38.4103 57.6274 38.3186 57.5321 38.2544 57.4177L37.7834 57.6819ZM38.2341 58.1526C38.428 58.2765 38.6477 58.3535 38.8762 58.3772L38.9319 57.8401C38.7875 57.8251 38.6483 57.7765 38.525 57.6976L38.2341 58.1526ZM38.8762 58.3772C39.1047 58.4008 39.3355 58.3705 39.5503 58.2887L39.3581 57.784C39.222 57.8359 39.0762 57.855 38.9319 57.8401L38.8762 58.3772ZM39.5492 58.2891L45.5877 56.0183L45.3976 55.5129L39.3592 57.7837L39.5492 58.2891ZM45.5813 56.0206C45.8579 55.9245 46.0978 55.7445 46.2693 55.5059L45.8307 55.1908C45.7236 55.3399 45.5744 55.4513 45.404 55.5106L45.5813 56.0206ZM46.2693 55.5059C46.4406 55.2673 46.5354 54.9815 46.5412 54.6871L46.0013 54.6764C45.9977 54.8621 45.9379 55.0416 45.8307 55.1908L46.2693 55.5059ZM46.5413 54.6818V51.6526H46.0013V54.6818H46.5413ZM46.5406 51.6723C46.5495 51.5491 46.604 51.4348 46.6917 51.3521L46.321 50.9593C46.1342 51.1357 46.0207 51.3765 46.002 51.633L46.5406 51.6723ZM46.6917 51.3521C46.7792 51.2694 46.8935 51.2242 47.0114 51.2242V50.6842C46.7546 50.6842 46.508 50.7829 46.321 50.9593L46.6917 51.3521ZM47.0114 51.2242C47.1292 51.2242 47.2435 51.2694 47.3311 51.3521L47.7017 50.9593C47.5147 50.7829 47.2682 50.6842 47.0114 50.6842V51.2242ZM47.3311 51.3521C47.4188 51.4348 47.4732 51.5491 47.4822 51.6723L48.0208 51.633C48.0021 51.3765 47.8885 51.1357 47.7017 50.9593L47.3311 51.3521ZM47.4815 51.6526V54.6818H48.0215V51.6526H47.4815ZM47.4815 54.6771C47.4733 55.1503 47.3215 55.6089 47.0474 55.9904L47.4859 56.3055C47.8245 55.8343 48.0113 55.2689 48.0214 54.6865L47.4815 54.6771ZM47.0474 55.9904C46.7734 56.3718 46.3907 56.6573 45.9521 56.8086L46.1281 57.3191C46.6734 57.131 47.1474 56.7767 47.4859 56.3055L47.0474 55.9904ZM45.9471 56.8104L39.9046 59.0275L40.0906 59.5345L46.1331 57.3173L45.9471 56.8104ZM39.9041 59.0277C39.6214 59.1321 39.3233 59.1864 39.0227 59.1882L39.026 59.7282C39.3894 59.726 39.7497 59.6604 40.0912 59.5343L39.9041 59.0277ZM39.021 59.1882C38.5523 59.194 38.0912 59.0654 37.6906 58.8167L37.4057 59.2754C37.8934 59.5782 38.4556 59.7353 39.0277 59.7281L39.021 59.1882ZM37.6892 58.8158C37.3796 58.6261 37.1228 58.3582 36.9442 58.0374L36.4724 58.3002C36.6958 58.7014 37.0177 59.0377 37.4071 59.2763L37.6892 58.8158ZM36.9442 58.0374C36.7655 57.7166 36.6712 57.3541 36.6705 56.985L36.1305 56.9859C36.1313 57.4463 36.249 57.899 36.4724 58.3002L36.9442 58.0374ZM36.6705 56.9888C36.6757 56.568 36.8007 56.1582 37.03 55.8088L36.5785 55.5126C36.2924 55.9486 36.137 56.4589 36.1306 56.9821L36.6705 56.9888ZM37.03 55.8088C37.2592 55.4593 37.5826 55.1855 37.9608 55.0197L37.7439 54.5252C37.2691 54.7334 36.8645 55.0765 36.5785 55.5126L37.03 55.8088ZM37.9672 55.0168L42.2983 52.9809L42.0686 52.4922L37.7375 54.5281L37.9672 55.0168ZM42.2958 52.9821C42.3837 52.9419 42.4573 52.8771 42.5086 52.7965L42.0531 52.5064C42.057 52.5004 42.0629 52.4948 42.0711 52.4911L42.2958 52.9821ZM42.5086 52.7965C42.56 52.7158 42.5872 52.6222 42.5873 52.5267L42.0473 52.5261C42.0473 52.5194 42.0492 52.5126 42.0531 52.5064L42.5086 52.7965ZM42.5873 52.5264V45.6069H42.0473V52.5264H42.5873ZM42.4246 45.3591C42.187 45.2562 41.9828 45.0859 41.8367 44.8677L41.3881 45.1682C41.5913 45.4717 41.8764 45.7101 42.21 45.8546L42.4246 45.3591ZM41.8367 44.8677C41.6906 44.6495 41.6089 44.3929 41.6017 44.1283L41.0619 44.1429C41.0718 44.509 41.1849 44.8648 41.3881 45.1682L41.8367 44.8677ZM41.6018 44.1356V41.0241H41.0618V44.1356H41.6018ZM41.4053 40.7642C41.177 40.6997 40.9683 40.5769 40.7992 40.4068L40.4164 40.7876C40.6504 41.023 40.9402 41.194 41.2584 41.2839L41.4053 40.7642ZM40.7992 40.4068C40.6301 40.2368 40.5062 40.0252 40.4398 39.792L39.9204 39.9399C40.0117 40.2604 40.1823 40.5523 40.4164 40.7876L40.7992 40.4068ZM40.4413 39.7976L38.9814 34.2176L38.459 34.3543L39.9189 39.9343L40.4413 39.7976ZM38.9808 34.2154C38.927 34.0167 38.9223 33.8074 38.9672 33.6064L38.4403 33.4886C38.3762 33.7751 38.3829 34.0732 38.4596 34.3565L38.9808 34.2154ZM38.9672 33.6064C39.0122 33.4054 39.1052 33.2192 39.2377 33.0643L38.8272 32.7134C38.6371 32.9358 38.5043 33.2021 38.4403 33.4886L38.9672 33.6064ZM39.2387 33.0631C39.3789 32.8972 39.5519 32.7639 39.7463 32.6718L39.515 32.1838C39.2505 32.3092 39.0158 32.4901 38.8262 32.7146L39.2387 33.0631ZM39.7463 32.6718C39.9406 32.5796 40.1518 32.5307 40.3658 32.5282L40.3594 31.9883C40.0673 31.9917 39.7794 32.0585 39.515 32.1838L39.7463 32.6718ZM40.6326 32.2583V29.9257H40.0926V32.2583H40.6326ZM40.3626 29.6557H40.1152V30.1957H40.3626V29.6557ZM40.1058 29.6559C39.9218 29.6623 39.7384 29.6317 39.566 29.5658L39.3731 30.0702C39.613 30.1619 39.8684 30.2045 40.1247 30.1955L40.1058 29.6559ZM39.566 29.5658C39.3935 29.4999 39.2353 29.3999 39.1005 29.2712L38.7277 29.6619C38.914 29.8397 39.1333 29.9786 39.3731 30.0702L39.566 29.5658ZM39.1005 29.2712C38.9657 29.1426 38.857 28.9879 38.7809 28.816L38.2871 29.0346C38.3917 29.2708 38.5414 29.4841 38.7277 29.6619L39.1005 29.2712ZM38.7809 28.816C38.7048 28.644 38.6628 28.4584 38.6575 28.2696L38.1178 28.2848C38.125 28.5435 38.1825 28.7983 38.2871 29.0346L38.7809 28.816ZM38.6576 28.2772V26.1795H38.1176V28.2772H38.6576ZM38.3876 25.9095H38.1403V26.4495H38.3876V25.9095ZM38.1315 25.9096C37.9478 25.9156 37.7647 25.8847 37.5927 25.8186L37.399 26.3226C37.6383 26.4146 37.8932 26.4577 38.149 26.4493L38.1315 25.9096ZM37.5927 25.8186C37.4206 25.7525 37.2628 25.6523 37.1284 25.5237L36.7551 25.914C36.9409 26.0917 37.1597 26.2307 37.399 26.3226L37.5927 25.8186ZM37.1284 25.5237C36.9939 25.3952 36.8856 25.2407 36.8097 25.069L36.3158 25.2873C36.4201 25.5233 36.5693 25.7363 36.7551 25.914L37.1284 25.5237ZM36.8097 25.069C36.7338 24.8973 36.6919 24.7119 36.6866 24.5234L36.1469 24.5386C36.1541 24.7969 36.2115 25.0513 36.3158 25.2873L36.8097 25.069ZM36.6867 24.531V23.204H36.1467V24.531H36.6867ZM36.5205 22.9547C36.2819 22.8554 36.0765 22.6871 35.9299 22.4698L35.4822 22.7718C35.6873 23.0759 35.976 23.313 36.313 23.4533L36.5205 22.9547ZM35.9299 22.4698C35.7833 22.2525 35.7023 21.9959 35.6972 21.7316L35.1573 21.742C35.1644 22.1097 35.2771 22.4677 35.4822 22.7718L35.9299 22.4698ZM35.6972 21.7368V19.8659H35.1572V21.7368H35.6972ZM35.6971 19.8735C35.7024 19.6847 35.7444 19.4989 35.8205 19.327L35.3267 19.1084C35.2221 19.3447 35.1646 19.5996 35.1573 19.8583L35.6971 19.8735ZM35.8205 19.327C35.8966 19.1551 36.0053 19.0005 36.1401 18.8718L35.7673 18.4812C35.581 18.6589 35.4313 18.8721 35.3267 19.1084L35.8205 19.327ZM36.1401 18.8718C36.2749 18.7432 36.4331 18.6432 36.6055 18.5773L36.4127 18.0728C36.1729 18.1645 35.9536 18.3034 35.7673 18.4812L36.1401 18.8718ZM36.6055 18.5773C36.778 18.5113 36.9614 18.4808 37.1454 18.4872L37.1643 17.9476C36.908 17.9386 36.6526 17.9812 36.4127 18.0728L36.6055 18.5773ZM37.1548 18.4874H45.5413V17.9474H37.1548V18.4874ZM45.5623 18.4866C45.6193 18.4821 45.6767 18.4897 45.7308 18.5088L45.911 17.9998C45.7858 17.9555 45.6527 17.9379 45.5203 17.9482L45.5623 18.4866ZM45.7308 18.5088C45.7851 18.5281 45.8351 18.5585 45.8775 18.5984L46.2476 18.2052C46.1507 18.114 46.0361 18.0441 45.911 17.9998L45.7308 18.5088ZM45.8775 18.5984C45.9201 18.6385 45.9543 18.6873 45.9778 18.7421L46.4739 18.5288C46.4214 18.4067 46.3445 18.2964 46.2476 18.2052L45.8775 18.5984ZM45.9778 18.7421C46.0014 18.7968 46.0135 18.8559 46.0135 18.9159H46.5535C46.5535 18.7828 46.5265 18.651 46.4739 18.5288L45.9778 18.7421ZM46.0135 18.9159C46.0135 18.9759 46.0013 19.0351 45.9778 19.0897L46.4739 19.303C46.5265 19.1808 46.5535 19.0489 46.5535 18.9159H46.0135ZM45.9778 19.0897C45.9544 19.1444 45.9201 19.1932 45.8775 19.2333L46.2476 19.6265C46.3444 19.5354 46.4214 19.4253 46.4739 19.303L45.9778 19.0897ZM45.8775 19.2333C45.835 19.2734 45.785 19.3038 45.7308 19.323L45.911 19.832C46.0363 19.7877 46.1508 19.7176 46.2476 19.6265L45.8775 19.2333ZM45.7308 19.323C45.6767 19.3422 45.6193 19.3497 45.5623 19.3453L45.5203 19.8836C45.6527 19.894 45.7858 19.8764 45.911 19.832L45.7308 19.323ZM45.5413 19.3444H37.1386V19.8844H45.5413V19.3444ZM37.1529 19.3448C37.0852 19.3412 37.0176 19.3514 36.954 19.3746L37.1394 19.8818C37.1347 19.8835 37.1295 19.8843 37.1242 19.8841L37.1529 19.3448ZM36.954 19.3746C36.8907 19.3978 36.8325 19.4334 36.783 19.4796L37.1514 19.8744C37.148 19.8776 37.1439 19.8802 37.1394 19.8818L36.954 19.3746ZM36.783 19.4796C36.7336 19.5257 36.6941 19.5811 36.6665 19.6422L37.1586 19.8646C37.1571 19.8679 37.1548 19.8713 37.1514 19.8744L36.783 19.4796ZM36.6665 19.6422C36.6388 19.7034 36.6235 19.7695 36.6214 19.8364L37.1611 19.854C37.161 19.8575 37.1602 19.8611 37.1586 19.8646L36.6665 19.6422ZM36.6212 19.8452V21.7781H37.1612V19.8452H36.6212ZM36.6215 21.7914C36.6281 21.9246 36.686 22.0508 36.7842 22.1424L37.1526 21.7476C37.1581 21.7528 37.1606 21.7591 37.1609 21.7647L36.6215 21.7914ZM36.7842 22.1424C36.8824 22.2341 37.0132 22.2835 37.1482 22.2787L37.1289 21.739C37.1384 21.7387 37.1469 21.7423 37.1526 21.7476L36.7842 22.1424ZM37.1386 22.2789H52.914V21.7389H37.1386V22.2789ZM52.9043 22.2787C53.0394 22.2835 53.1701 22.2341 53.2684 22.1424L52.9 21.7476C52.9057 21.7423 52.9141 21.7387 52.9236 21.739L52.9043 22.2787ZM53.2684 22.1424C53.3665 22.0508 53.4244 21.9246 53.431 21.7914L52.8917 21.7647C52.8919 21.7591 52.8944 21.7528 52.9 21.7476L53.2684 22.1424ZM53.4313 21.7781V19.907H52.8913V21.7781H53.4313ZM53.4312 19.8982C53.429 19.8312 53.4137 19.7652 53.386 19.7039L52.894 19.9264C52.8924 19.9229 52.8916 19.9193 52.8915 19.9158L53.4312 19.8982ZM53.386 19.7039C53.3583 19.6426 53.3187 19.5874 53.2695 19.5415L52.9011 19.9363C52.898 19.9334 52.8956 19.93 52.894 19.9264L53.386 19.7039ZM53.2695 19.5415C53.2204 19.4956 53.1623 19.4597 53.0985 19.4364L52.9132 19.9436C52.9082 19.9418 52.9042 19.9392 52.9011 19.9363L53.2695 19.5415ZM53.0985 19.4364C53.035 19.4132 52.9674 19.403 52.8996 19.4066L52.9283 19.9458C52.923 19.9461 52.9178 19.9453 52.9132 19.9436L53.0985 19.4364ZM52.914 19.4062H48.4896V19.9462H52.914V19.4062ZM48.4685 19.407C48.4116 19.4115 48.3542 19.4039 48.3001 19.3848L48.1199 19.8938C48.2451 19.9381 48.3782 19.9557 48.5106 19.9454L48.4685 19.407ZM48.3001 19.3848C48.2458 19.3655 48.1958 19.3351 48.1533 19.2952L47.7832 19.6884C47.8802 19.7796 47.9948 19.8495 48.1199 19.8938L48.3001 19.3848ZM48.1533 19.2952C48.1108 19.2551 48.0765 19.2062 48.053 19.1515L47.5569 19.3648C47.6094 19.487 47.6864 19.5973 47.7832 19.6884L48.1533 19.2952ZM48.053 19.1515C48.0295 19.0968 48.0173 19.0377 48.0173 18.9777H47.4773C47.4773 19.1108 47.5044 19.2426 47.5569 19.3648L48.053 19.1515ZM48.0173 18.9777C48.0173 18.9178 48.0295 18.8585 48.053 18.8039L47.5569 18.5906C47.5043 18.7129 47.4773 18.8447 47.4773 18.9777H48.0173ZM48.053 18.8039C48.0765 18.7492 48.1107 18.7004 48.1533 18.6603L47.7832 18.2671C47.6865 18.3581 47.6095 18.4683 47.5569 18.5906L48.053 18.8039ZM48.1533 18.6603C48.1959 18.6202 48.2459 18.5898 48.3001 18.5706L48.1199 18.0616C47.9946 18.1059 47.88 18.176 47.7832 18.2671L48.1533 18.6603ZM48.3001 18.5706C48.3542 18.5515 48.4116 18.5439 48.4685 18.5484L48.5106 18.01C48.3782 17.9996 48.2451 18.0172 48.1199 18.0616L48.3001 18.5706ZM48.4896 18.5492H52.914V18.0092H48.4896V18.5492ZM52.9234 18.549C53.1074 18.5426 53.2908 18.5731 53.4632 18.639L53.656 18.1346C53.4162 18.0429 53.1608 18.0004 52.9045 18.0093L52.9234 18.549ZM53.4632 18.639C53.6357 18.705 53.7939 18.805 53.9287 18.9336L54.3015 18.5429C54.1152 18.3652 53.8959 18.2263 53.656 18.1346L53.4632 18.639ZM53.9287 18.9336C54.0635 19.0622 54.1722 19.2169 54.2483 19.3889L54.7421 19.1703C54.6375 18.934 54.4878 18.7207 54.3015 18.5429L53.9287 18.9336ZM54.2483 19.3889C54.3244 19.5608 54.3663 19.7465 54.3716 19.9352L54.9114 19.9201C54.9042 19.6614 54.8466 19.4066 54.7421 19.1703L54.2483 19.3889ZM40.0774 25.0975C40.1448 25.0999 40.212 25.0888 40.2751 25.0647L40.083 24.5601C40.0872 24.5585 40.0918 24.5577 40.0963 24.5579L40.0774 25.0975ZM40.2751 25.0647C40.338 25.0408 40.3955 25.0046 40.4444 24.9582L40.0725 24.5666C40.0754 24.5639 40.0789 24.5616 40.083 24.5601L40.2751 25.0647ZM40.4444 24.9582C40.4932 24.9118 40.5322 24.8564 40.5595 24.7954L40.0664 24.5751C40.0677 24.5723 40.0696 24.5694 40.0725 24.5666L40.4444 24.9582ZM40.5595 24.7954C40.5868 24.7343 40.6019 24.6685 40.6041 24.6017L40.0644 24.584C40.0645 24.5811 40.0651 24.578 40.0664 24.5751L40.5595 24.7954ZM40.6042 24.5929V23.4265H40.0642V24.5929H40.6042ZM40.3342 23.1565H37.8686V23.6965H40.3342V23.1565ZM37.5986 23.4265V24.5929H38.1386V23.4265H37.5986ZM37.5987 24.6018C37.6031 24.7351 37.6589 24.8621 37.7554 24.9552L38.1304 24.5667C38.1358 24.5719 38.1382 24.5782 38.1384 24.5839L37.5987 24.6018ZM37.7554 24.9552C37.852 25.0485 37.9817 25.1001 38.1167 25.0977L38.1071 24.5578C38.1165 24.5576 38.1248 24.5612 38.1304 24.5667L37.7554 24.9552ZM38.1119 25.0977H40.0868V24.5577H38.1119V25.0977ZM47.2405 40.8777H42.8121V41.4177H47.2405V40.8777ZM42.5421 41.1477V44.181H43.0821V41.1477H42.5421ZM42.5422 44.1898C42.5444 44.2567 42.5597 44.3228 42.5874 44.384L43.0794 44.1616C43.081 44.1651 43.0818 44.1687 43.0819 44.1722L42.5422 44.1898ZM42.5874 44.384C42.6151 44.4454 42.6547 44.5006 42.7039 44.5465L43.0723 44.1517C43.0754 44.1546 43.0778 44.158 43.0794 44.1616L42.5874 44.384ZM42.7039 44.5465C42.7534 44.5927 42.8115 44.6283 42.8749 44.6515L43.0602 44.1443C43.0647 44.1459 43.0688 44.1485 43.0723 44.1517L42.7039 44.5465ZM42.8749 44.6515C42.9384 44.6747 43.006 44.6849 43.0738 44.6813L43.0451 44.142C43.0504 44.1418 43.0555 44.1426 43.0602 44.1443L42.8749 44.6515ZM43.0594 44.6817H47.0053V44.1417H43.0594V44.6817ZM46.9909 44.6813C47.0587 44.6849 47.1263 44.6747 47.1898 44.6515L47.0045 44.1443C47.0092 44.1426 47.0143 44.1418 47.0196 44.142L46.9909 44.6813ZM47.1898 44.6515C47.2532 44.6283 47.3113 44.5927 47.3608 44.5465L46.9925 44.1517C46.9959 44.1485 47 44.1459 47.0045 44.1443L47.1898 44.6515ZM47.3608 44.5465C47.41 44.5006 47.4496 44.4454 47.4774 44.384L46.9853 44.1616C46.9869 44.158 46.9893 44.1546 46.9925 44.1517L47.3608 44.5465ZM47.4774 44.384C47.505 44.3228 47.5203 44.2567 47.5225 44.1898L46.9828 44.1722C46.9829 44.1687 46.9837 44.1651 46.9853 44.1616L47.4774 44.384ZM47.5227 44.1799L47.5105 41.1466L46.9705 41.1488L46.9827 44.182L47.5227 44.1799ZM50.2009 25.9549H49.9535V26.4949H50.2009V25.9549ZM49.9448 25.955C49.7612 25.961 49.5781 25.93 49.406 25.8639L49.2122 26.3679C49.4515 26.4599 49.7064 26.503 49.9623 26.4947L49.9448 25.955ZM49.406 25.8639C49.2338 25.7977 49.076 25.6977 48.9417 25.5691L48.5684 25.9594C48.7543 26.1371 48.973 26.276 49.2122 26.3679L49.406 25.8639ZM48.9417 25.5691C48.8072 25.4406 48.6989 25.286 48.623 25.1143L48.129 25.3326C48.2333 25.5685 48.3826 25.7816 48.5684 25.9594L48.9417 25.5691ZM48.623 25.1143C48.5471 24.9426 48.5052 24.7572 48.4999 24.5688L47.9601 24.584C47.9674 24.8423 48.0248 25.0966 48.129 25.3326L48.623 25.1143ZM48.5 24.5764V23.41H47.96V24.5764H48.5ZM48.23 23.14H41.8266V23.68H48.23V23.14ZM41.5566 23.41V24.5764H42.0966V23.41H41.5566ZM41.5567 24.5688C41.5514 24.7576 41.5094 24.9432 41.4333 25.1152L41.9271 25.3337C42.0317 25.0974 42.0892 24.8426 42.0965 24.584L41.5567 24.5688ZM41.4333 25.1152C41.3572 25.2871 41.2485 25.4418 41.1138 25.5704L41.4866 25.9611C41.6729 25.7833 41.8225 25.57 41.9271 25.3337L41.4333 25.1152ZM41.1138 25.5704C40.979 25.699 40.8208 25.7989 40.6483 25.8649L40.8411 26.3693C41.0808 26.2777 41.3002 26.1389 41.4866 25.9611L41.1138 25.5704ZM40.6483 25.8649C40.4758 25.9308 40.2923 25.9615 40.1085 25.955L40.0896 26.4947C40.3459 26.5037 40.6013 26.4609 40.8411 26.3693L40.6483 25.8649ZM40.099 25.9549H39.8516V26.4949H40.099V25.9549ZM39.5816 26.2249V28.3225H40.1216V26.2249H39.5816ZM39.5818 28.3313C39.584 28.3981 39.5991 28.464 39.6264 28.5251L40.1194 28.3048C40.1207 28.3077 40.1214 28.3107 40.1215 28.3136L39.5818 28.3313ZM39.6264 28.5251C39.6537 28.5861 39.6927 28.6415 39.7415 28.6879L40.1133 28.2963C40.1162 28.2991 40.1182 28.302 40.1194 28.3048L39.6264 28.5251ZM39.7415 28.6879C39.7903 28.7343 39.8478 28.7705 39.9107 28.7945L40.1029 28.2898C40.1069 28.2913 40.1105 28.2936 40.1133 28.2963L39.7415 28.6879ZM39.9107 28.7945C39.9739 28.8185 40.0411 28.8296 40.1085 28.8273L40.0896 28.2876C40.0941 28.2874 40.0986 28.2882 40.1029 28.2898L39.9107 28.7945ZM40.099 28.8274H44.5599V28.2874H40.099V28.8274ZM44.5809 28.8266C44.6379 28.8221 44.6953 28.8297 44.7494 28.8489L44.9296 28.3398C44.8044 28.2955 44.6713 28.2779 44.5389 28.2882L44.5809 28.8266ZM44.7494 28.8489C44.8035 28.868 44.8535 28.8985 44.8961 28.9386L45.2662 28.5453C45.1694 28.4542 45.0549 28.3842 44.9296 28.3398L44.7494 28.8489ZM44.8961 28.9386C44.9387 28.9787 44.973 29.0275 44.9965 29.0821L45.4926 28.8688C45.44 28.7465 45.363 28.6364 45.2662 28.5453L44.8961 28.9386ZM44.9965 29.0821C45.02 29.1368 45.0322 29.196 45.0322 29.256H45.5722C45.5722 29.1229 45.5451 28.9911 45.4926 28.8688L44.9965 29.0821ZM45.0322 29.256C45.0322 29.316 45.02 29.3752 44.9965 29.4299L45.4926 29.6431C45.5451 29.5209 45.5722 29.3891 45.5722 29.256H45.0322ZM44.9965 29.4299C44.973 29.4845 44.9387 29.5333 44.8961 29.5734L45.2662 29.9667C45.363 29.8756 45.44 29.7654 45.4926 29.6431L44.9965 29.4299ZM44.8961 29.5734C44.8535 29.6135 44.8035 29.644 44.7494 29.6631L44.9296 30.1722C45.0549 30.1278 45.1694 30.0577 45.2662 29.9667L44.8961 29.5734ZM44.7494 29.6631C44.6953 29.6823 44.6379 29.6898 44.5809 29.6854L44.5389 30.2237C44.6713 30.2341 44.8044 30.2165 44.9296 30.1722L44.7494 29.6631ZM44.5599 29.6846H41.8469V30.2246H44.5599V29.6846ZM41.5769 29.9546V32.2871H42.1169V29.9546H41.5769ZM41.8469 32.5571H44.5599V32.0171H41.8469V32.5571ZM44.5599 32.5571C44.6698 32.5571 44.776 32.6014 44.855 32.6817L45.2399 32.3029C45.0602 32.1204 44.8157 32.0171 44.5599 32.0171V32.5571ZM44.855 32.6817C44.9341 32.7621 44.9793 32.8721 44.9793 32.9877H45.5193C45.5193 32.7317 45.4193 32.4853 45.2399 32.3029L44.855 32.6817ZM44.9793 32.9877C44.9793 33.1033 44.9341 33.2134 44.855 33.2938L45.2399 33.6725C45.4193 33.4901 45.5193 33.2437 45.5193 32.9877H44.9793ZM44.855 33.2938C44.776 33.374 44.6698 33.4183 44.5599 33.4183V33.9583C44.8157 33.9583 45.0602 33.855 45.2399 33.6725L44.855 33.2938ZM44.5599 33.4183H40.3788V33.9583H44.5599V33.4183ZM40.3856 33.4184C40.3084 33.4164 40.2323 33.4316 40.1624 33.4621L40.378 33.9572C40.3766 33.9578 40.3746 33.9583 40.3721 33.9582L40.3856 33.4184ZM40.1624 33.4621C40.0921 33.4927 40.0295 33.5382 39.9786 33.5952L40.3816 33.9546C40.3809 33.9555 40.3797 33.9564 40.378 33.9572L40.1624 33.4621ZM39.9693 33.6062C39.9199 33.6679 39.8862 33.7405 39.8707 33.8177L40.4002 33.924C40.3988 33.9308 40.3957 33.9376 40.3909 33.9436L39.9693 33.6062ZM39.8707 33.8177C39.8552 33.8948 39.8583 33.9746 39.8798 34.0504L40.3994 33.9033C40.4013 33.9101 40.4015 33.9172 40.4002 33.924L39.8707 33.8177ZM39.8785 34.0457L41.3547 39.6422L41.8768 39.5045L40.4006 33.908L39.8785 34.0457ZM41.3574 39.6519C41.3898 39.7586 41.4556 39.8526 41.5457 39.9193L41.8671 39.4854C41.871 39.4883 41.8731 39.4918 41.8741 39.4949L41.3574 39.6519ZM41.5457 39.9193C41.6357 39.986 41.7452 40.022 41.8582 40.0206L41.8518 39.4807C41.858 39.4806 41.8633 39.4826 41.8671 39.4854L41.5457 39.9193ZM41.855 40.0207H48.2097V39.4807H41.855V40.0207ZM48.2065 40.0206C48.3195 40.022 48.4291 39.986 48.519 39.9193L48.1976 39.4854C48.2014 39.4826 48.2067 39.4806 48.213 39.4807L48.2065 40.0206ZM48.519 39.9193C48.6092 39.8526 48.6749 39.7586 48.7073 39.6519L48.1907 39.4949C48.1916 39.4918 48.1937 39.4883 48.1976 39.4854L48.519 39.9193ZM48.71 39.6424L50.1902 34.0459L49.6682 33.9078L48.188 39.5043L48.71 39.6424ZM50.1902 34.046C50.2105 33.9695 50.2121 33.8893 50.1951 33.8121L49.6678 33.9285C49.6663 33.9217 49.6664 33.9146 49.6682 33.9078L50.1902 34.046ZM50.1951 33.8121C50.178 33.7349 50.1427 33.6626 50.0917 33.6017L49.6775 33.9481C49.6725 33.9422 49.6693 33.9354 49.6678 33.9285L50.1951 33.8121ZM50.0886 33.5981C50.0386 33.5404 49.9765 33.4942 49.9064 33.463L49.687 33.9564C49.6842 33.9552 49.6821 33.9535 49.6806 33.9518L50.0886 33.5981ZM49.9064 33.463C49.8367 33.432 49.7606 33.4165 49.6834 33.4184L49.6965 33.9582C49.6927 33.9583 49.6895 33.9575 49.687 33.9564L49.9064 33.463ZM49.6899 33.4183H47.5001V33.9583H49.6899V33.4183ZM47.5001 33.4183C47.3902 33.4183 47.284 33.374 47.205 33.2938L46.8201 33.6725C46.9997 33.855 47.2442 33.9583 47.5001 33.9583V33.4183ZM47.205 33.2938C47.1259 33.2133 47.0806 33.1033 47.0806 32.9877H46.5406C46.5406 33.2437 46.6407 33.4902 46.8201 33.6725L47.205 33.2938ZM47.0806 32.9877C47.0806 32.8721 47.1259 32.7621 47.205 32.6817L46.8201 32.3029C46.6407 32.4853 46.5406 32.7317 46.5406 32.9877H47.0806ZM47.205 32.6817C47.284 32.6014 47.3902 32.5571 47.5001 32.5571V32.0171C47.2442 32.0171 46.9997 32.1204 46.8201 32.3029L47.205 32.6817ZM47.5001 32.5571H48.2422V32.0171H47.5001V32.5571ZM48.5122 32.2871V29.9546H47.9722V32.2871H48.5122ZM48.2422 29.6846H47.5001V30.2246H48.2422V29.6846ZM47.479 29.6854C47.422 29.6898 47.3647 29.6823 47.3105 29.6631L47.1304 30.1722C47.2556 30.2165 47.3886 30.2341 47.5211 30.2237L47.479 29.6854ZM47.3105 29.6631C47.2564 29.6439 47.2064 29.6135 47.1638 29.5734L46.7937 29.9667C46.8905 30.0578 47.0051 30.1278 47.1304 30.1722L47.3105 29.6631ZM47.1638 29.5734C47.1212 29.5333 47.087 29.4845 47.0635 29.4299L46.5674 29.6431C46.62 29.7654 46.697 29.8756 46.7937 29.9667L47.1638 29.5734ZM47.0635 29.4299C47.04 29.3752 47.0278 29.316 47.0278 29.256H46.4878C46.4878 29.3891 46.5148 29.5209 46.5674 29.6431L47.0635 29.4299ZM47.0278 29.256C47.0278 29.196 47.04 29.1368 47.0635 29.0821L46.5674 28.8688C46.5148 28.9911 46.4878 29.1229 46.4878 29.256H47.0278ZM47.0635 29.0821C47.087 29.0275 47.1212 28.9787 47.1638 28.9386L46.7937 28.5453C46.697 28.6364 46.62 28.7465 46.5674 28.8688L47.0635 29.0821ZM47.1638 28.9386C47.2064 28.8985 47.2564 28.868 47.3105 28.8489L47.1304 28.3398C47.0051 28.3842 46.8905 28.4542 46.7937 28.5453L47.1638 28.9386ZM47.3105 28.8489C47.3647 28.8297 47.422 28.8221 47.479 28.8266L47.5211 28.2882C47.3886 28.2779 47.2556 28.2955 47.1304 28.3398L47.3105 28.8489ZM47.5001 28.8274H49.9657V28.2874H47.5001V28.8274ZM49.9562 28.8273C50.0236 28.8296 50.0908 28.8185 50.154 28.7945L49.9618 28.2898C49.9661 28.2882 49.9706 28.2874 49.9752 28.2876L49.9562 28.8273ZM50.154 28.7945C50.2169 28.7705 50.2744 28.7343 50.3232 28.6879L49.9514 28.2963C49.9543 28.2936 49.9578 28.2913 49.9618 28.2898L50.154 28.7945ZM50.3232 28.6879C50.3721 28.6415 50.4111 28.5861 50.4383 28.5251L49.9453 28.3048C49.9466 28.302 49.9485 28.2991 49.9514 28.2963L50.3232 28.6879ZM50.4383 28.5251C50.4656 28.464 50.4808 28.3981 50.4829 28.3313L49.9432 28.3136C49.9433 28.3107 49.944 28.3077 49.9453 28.3048L50.4383 28.5251ZM50.4831 28.3209L50.4709 26.2233L49.9309 26.2264L49.9431 28.3241L50.4831 28.3209ZM52.1759 23.1565H49.7102V23.6965H52.1759V23.1565ZM49.4402 23.4265V24.5929H49.9802V23.4265H49.4402ZM49.4404 24.6018C49.4448 24.7352 49.5007 24.8621 49.597 24.9552L49.9721 24.5667C49.9774 24.5718 49.9799 24.5781 49.9801 24.5839L49.4404 24.6018ZM49.597 24.9552C49.6937 25.0485 49.8234 25.1001 49.9584 25.0977L49.9487 24.5578C49.9581 24.5576 49.9665 24.5612 49.9721 24.5667L49.597 24.9552ZM49.9535 25.0977H51.9285V24.5577H49.9535V25.0977ZM51.9236 25.0977C52.0581 25.1001 52.1877 25.0494 52.2849 24.957L51.9131 24.5654C51.918 24.5607 51.9253 24.5576 51.9334 24.5578L51.9236 25.0977ZM52.2849 24.957C52.3819 24.8649 52.439 24.7389 52.4455 24.6061L51.9062 24.5796C51.9064 24.5751 51.9084 24.5699 51.9131 24.5654L52.2849 24.957ZM52.4459 24.5929V23.4265H51.9059V24.5929H52.4459ZM29.0183 59.7918C29.2107 59.9709 29.4629 60.0709 29.7254 60.0709V59.5309C29.6006 59.5309 29.4795 59.4834 29.3862 59.3966L29.0183 59.7918ZM29.7254 60.0709C29.9879 60.0709 30.2401 59.9709 30.4325 59.7918L30.0646 59.3966C29.9713 59.4834 29.8502 59.5309 29.7254 59.5309V60.0709ZM30.4311 59.7932C30.5268 59.7053 30.603 59.5983 30.655 59.4793L30.1603 59.263C30.1381 59.3136 30.1059 59.3587 30.066 59.3953L30.4311 59.7932ZM30.655 59.4793C30.7071 59.3603 30.7339 59.2317 30.7339 59.1017H30.1939C30.1939 59.1574 30.1824 59.2123 30.1603 59.263L30.655 59.4793ZM30.7339 59.1017C30.7339 58.9717 30.7071 58.8431 30.655 58.7241L30.1603 58.9404C30.1824 58.991 30.1939 59.046 30.1939 59.1017H30.7339ZM30.655 58.7241C30.6029 58.6049 30.5267 58.4981 30.4311 58.4103L30.066 58.8082C30.106 58.8449 30.1381 58.8899 30.1603 58.9404L30.655 58.7241ZM30.4341 58.4132L26.4882 54.6793L26.1171 55.0716L30.063 58.8054L30.4341 58.4132ZM26.4847 54.6761C26.2918 54.4999 26.0407 54.4016 25.7795 54.4016V54.9416C25.9047 54.9416 26.0262 54.9886 26.1206 55.0748L26.4847 54.6761ZM25.7795 54.4016C25.5184 54.4016 25.2673 54.4999 25.0743 54.6761L25.4385 55.0748C25.5328 54.9887 25.6544 54.9416 25.7795 54.9416V54.4016ZM25.0734 54.6769C24.9778 54.765 24.9016 54.8723 24.8496 54.9916L25.3446 55.2074C25.3668 55.1564 25.3992 55.111 25.4394 55.074L25.0734 54.6769ZM24.8496 54.9916C24.7976 55.1109 24.7708 55.2398 24.7708 55.37H25.3108C25.3108 55.3138 25.3223 55.2585 25.3446 55.2074L24.8496 54.9916ZM24.7708 55.37C24.7708 55.5001 24.7976 55.629 24.8496 55.7483L25.3446 55.5325C25.3223 55.4815 25.3108 55.4261 25.3108 55.37H24.7708ZM24.8496 55.7483C24.9016 55.8677 24.9778 55.9749 25.0734 56.063L25.4394 55.666C25.3992 55.6289 25.3668 55.5835 25.3446 55.5325L24.8496 55.7483ZM25.0709 56.0607L29.0168 59.7904L29.3877 59.398L25.4418 55.6683L25.0709 56.0607ZM32.6938 50.6698C32.4322 50.6621 32.179 50.7597 31.9891 50.94L32.3609 51.3316C32.4474 51.2495 32.5613 51.2061 32.6778 51.2096L32.6938 50.6698ZM31.9891 50.94C31.7993 51.1201 31.688 51.3681 31.6779 51.6299L32.2175 51.6507C32.2222 51.5284 32.2742 51.4138 32.3609 51.3316L31.9891 50.94ZM31.6777 51.6403V57.2204H32.2177V51.6403H31.6777ZM31.6784 57.24C31.6971 57.4966 31.8107 57.7374 31.9975 57.9137L32.3681 57.521C32.2804 57.4382 32.226 57.3239 32.217 57.2008L31.6784 57.24ZM31.9975 57.9137C32.1845 58.0901 32.431 58.1889 32.6878 58.1889V57.6489C32.57 57.6489 32.4557 57.6036 32.3681 57.521L31.9975 57.9137ZM32.6878 58.1889C32.9446 58.1889 33.1912 58.0901 33.3782 57.9137L33.0075 57.521C32.92 57.6036 32.8057 57.6489 32.6878 57.6489V58.1889ZM33.3782 57.9137C33.565 57.7374 33.6785 57.4966 33.6972 57.24L33.1587 57.2008C33.1497 57.3239 33.0952 57.4382 33.0075 57.521L33.3782 57.9137ZM33.6979 57.2204V51.6238H33.1579V57.2204H33.6979ZM33.6977 51.6134C33.6877 51.3506 33.5755 51.1017 33.3846 50.9214L33.0139 51.3141C33.1011 51.3964 33.1534 51.5113 33.1581 51.6341L33.6977 51.6134ZM33.3846 50.9214C33.1934 50.741 32.9388 50.6441 32.6763 50.6534L32.6953 51.193C32.8122 51.1889 32.9268 51.2319 33.0139 51.3141L33.3846 50.9214Z" fill="white" mask="url(#path-2-inside-1_1168_89533)"/>
</svg>
