<svg width="80" height="80" viewBox="0 0 80 80" fill="none" xmlns="http://www.w3.org/2000/svg">
<circle cx="40" cy="40" r="40" fill="#533CBF"/>
<mask id="path-2-inside-1_1168_89541" fill="white">
<path d="M14.2578 50.3632L15.0544 51.75L16.947 50.6557L18.2365 52.8975L21.5066 50.9924L23.6016 54.6521L26.6208 52.9019C26.778 53.1757 26.9872 53.4156 27.2365 53.6079C27.4858 53.8003 27.7704 53.9413 28.0738 54.023C28.3773 54.1046 28.6937 54.1253 29.0051 54.0839C29.3165 54.0424 29.6168 53.9397 29.8887 53.7814C30.1606 53.6232 30.3989 53.4125 30.59 53.1615C30.7811 52.9105 30.9212 52.6242 31.0023 52.3187C31.0834 52.0132 31.104 51.6947 31.0628 51.3812C31.0216 51.0677 30.9195 50.7655 30.7623 50.4917L33.5131 48.8924C33.8419 49.4216 34.3618 49.8017 34.9635 49.9529C35.5651 50.104 36.2015 50.0142 36.7387 49.7024C37.276 49.3907 37.6721 48.8814 37.8438 48.2816C38.0154 47.6817 37.9492 47.0382 37.659 46.4865L40.401 44.8916C40.5579 45.1654 40.7668 45.4053 41.0159 45.5977C41.2649 45.7902 41.5492 45.9314 41.8524 46.0133C42.1557 46.0952 42.472 46.116 42.7832 46.0749C43.0945 46.0337 43.3947 45.9313 43.6667 45.7733C43.9386 45.6153 44.177 45.4049 44.3681 45.1542C44.5593 44.9035 44.6996 44.6174 44.7809 44.3122C44.8623 44.0069 44.8831 43.6885 44.8421 43.3751C44.8012 43.0618 44.6994 42.7595 44.5425 42.4858L46.994 41.0592L49.5599 54.3507C50.3621 53.9979 51.092 53.4976 51.7121 52.8754C52.6079 51.8839 53.1364 50.6116 53.2085 49.2733L53.1248 43.7441L57.7813 47.603C59.4494 49.229 62.7195 50.1107 64.9509 49.1848L48.0943 32.0874L49.309 31.383L50.8978 26.5536L49.3574 26.1372L47.9358 30.324L46.9279 30.9089C46.4502 30.3909 45.811 30.0527 45.1162 29.9504C44.4215 29.8481 43.7129 29.9877 43.1077 30.3462L42.3199 30.7892L40.7311 28.0069L16.4276 42.1358L18.3157 45.4321L15.0412 47.3373L16.1503 49.2645L14.2578 50.3632ZM40.3041 38.2148L25.1068 47.0448L21.6166 40.975L36.814 32.145L40.3041 38.2148ZM48.4596 40.1997L48.7104 40.0534L51.492 42.3617L51.6064 49.167C51.5581 50.0635 51.2283 50.9214 50.6646 51.6171L48.4596 40.1997ZM18.6062 42.7472L20.2479 41.7903L24.5258 49.26L42.4827 38.8173L38.2048 31.3564L40.1501 30.2221L41.7565 33.0001L43.9571 31.7329C44.2448 31.5648 44.5806 31.4996 44.9098 31.5478C45.239 31.5961 45.5423 31.755 45.7704 31.9988L61.2847 47.7182C60.4006 47.4951 59.5845 47.057 58.908 46.4423L48.8909 38.1262L42.3815 41.9099L43.1825 43.2966C43.2761 43.4797 43.2962 43.6919 43.2386 43.8895C43.1809 44.087 43.0501 44.2547 42.873 44.3578C42.696 44.4609 42.4863 44.4914 42.2875 44.4432C42.0886 44.3949 41.9159 44.2715 41.8049 44.0985L41.0083 42.7117L35.5024 45.9105L36.299 47.3018C36.3926 47.4849 36.4127 47.6971 36.3551 47.8947C36.2975 48.0922 36.1666 48.26 35.9895 48.363C35.8125 48.4661 35.6028 48.4966 35.404 48.4484C35.2052 48.4001 35.0324 48.2767 34.9215 48.1037L34.1161 46.7125L28.5969 49.9158L29.398 51.3026C29.4506 51.3936 29.4848 51.4942 29.4988 51.5986C29.5128 51.703 29.5062 51.8091 29.4794 51.9109C29.4527 52.0127 29.4062 52.1083 29.3428 52.192C29.2793 52.2758 29.2001 52.3461 29.1097 52.399C29.0192 52.452 28.9193 52.4865 28.8156 52.5006C28.7119 52.5147 28.6065 52.508 28.5053 52.481C28.4042 52.4541 28.3093 52.4074 28.2261 52.3436C28.1429 52.2797 28.073 52.1999 28.0204 52.1088L27.2194 50.7221L24.2001 52.4722L18.6062 42.7472ZM17.2198 47.9398L19.1167 46.841L20.7056 49.6234L18.8131 50.7266L17.2198 47.9398Z"/>
</mask>
<path d="M14.2578 50.3632L15.0544 51.75L16.947 50.6557L18.2365 52.8975L21.5066 50.9924L23.6016 54.6521L26.6208 52.9019C26.778 53.1757 26.9872 53.4156 27.2365 53.6079C27.4858 53.8003 27.7704 53.9413 28.0738 54.023C28.3773 54.1046 28.6937 54.1253 29.0051 54.0839C29.3165 54.0424 29.6168 53.9397 29.8887 53.7814C30.1606 53.6232 30.3989 53.4125 30.59 53.1615C30.7811 52.9105 30.9212 52.6242 31.0023 52.3187C31.0834 52.0132 31.104 51.6947 31.0628 51.3812C31.0216 51.0677 30.9195 50.7655 30.7623 50.4917L33.5131 48.8924C33.8419 49.4216 34.3618 49.8017 34.9635 49.9529C35.5651 50.104 36.2015 50.0142 36.7387 49.7024C37.276 49.3907 37.6721 48.8814 37.8438 48.2816C38.0154 47.6817 37.9492 47.0382 37.659 46.4865L40.401 44.8916C40.5579 45.1654 40.7668 45.4053 41.0159 45.5977C41.2649 45.7902 41.5492 45.9314 41.8524 46.0133C42.1557 46.0952 42.472 46.116 42.7832 46.0749C43.0945 46.0337 43.3947 45.9313 43.6667 45.7733C43.9386 45.6153 44.177 45.4049 44.3681 45.1542C44.5593 44.9035 44.6996 44.6174 44.7809 44.3122C44.8623 44.0069 44.8831 43.6885 44.8421 43.3751C44.8012 43.0618 44.6994 42.7595 44.5425 42.4858L46.994 41.0592L49.5599 54.3507C50.3621 53.9979 51.092 53.4976 51.7121 52.8754C52.6079 51.8839 53.1364 50.6116 53.2085 49.2733L53.1248 43.7441L57.7813 47.603C59.4494 49.229 62.7195 50.1107 64.9509 49.1848L48.0943 32.0874L49.309 31.383L50.8978 26.5536L49.3574 26.1372L47.9358 30.324L46.9279 30.9089C46.4502 30.3909 45.811 30.0527 45.1162 29.9504C44.4215 29.8481 43.7129 29.9877 43.1077 30.3462L42.3199 30.7892L40.7311 28.0069L16.4276 42.1358L18.3157 45.4321L15.0412 47.3373L16.1503 49.2645L14.2578 50.3632ZM40.3041 38.2148L25.1068 47.0448L21.6166 40.975L36.814 32.145L40.3041 38.2148ZM48.4596 40.1997L48.7104 40.0534L51.492 42.3617L51.6064 49.167C51.5581 50.0635 51.2283 50.9214 50.6646 51.6171L48.4596 40.1997ZM18.6062 42.7472L20.2479 41.7903L24.5258 49.26L42.4827 38.8173L38.2048 31.3564L40.1501 30.2221L41.7565 33.0001L43.9571 31.7329C44.2448 31.5648 44.5806 31.4996 44.9098 31.5478C45.239 31.5961 45.5423 31.755 45.7704 31.9988L61.2847 47.7182C60.4006 47.4951 59.5845 47.057 58.908 46.4423L48.8909 38.1262L42.3815 41.9099L43.1825 43.2966C43.2761 43.4797 43.2962 43.6919 43.2386 43.8895C43.1809 44.087 43.0501 44.2547 42.873 44.3578C42.696 44.4609 42.4863 44.4914 42.2875 44.4432C42.0886 44.3949 41.9159 44.2715 41.8049 44.0985L41.0083 42.7117L35.5024 45.9105L36.299 47.3018C36.3926 47.4849 36.4127 47.6971 36.3551 47.8947C36.2975 48.0922 36.1666 48.26 35.9895 48.363C35.8125 48.4661 35.6028 48.4966 35.404 48.4484C35.2052 48.4001 35.0324 48.2767 34.9215 48.1037L34.1161 46.7125L28.5969 49.9158L29.398 51.3026C29.4506 51.3936 29.4848 51.4942 29.4988 51.5986C29.5128 51.703 29.5062 51.8091 29.4794 51.9109C29.4527 52.0127 29.4062 52.1083 29.3428 52.192C29.2793 52.2758 29.2001 52.3461 29.1097 52.399C29.0192 52.452 28.9193 52.4865 28.8156 52.5006C28.7119 52.5147 28.6065 52.508 28.5053 52.481C28.4042 52.4541 28.3093 52.4074 28.2261 52.3436C28.1429 52.2797 28.073 52.1999 28.0204 52.1088L27.2194 50.7221L24.2001 52.4722L18.6062 42.7472ZM17.2198 47.9398L19.1167 46.841L20.7056 49.6234L18.8131 50.7266L17.2198 47.9398Z" fill="white" stroke="white" stroke-width="0.54" mask="url(#path-2-inside-1_1168_89541)"/>
</svg>
