<svg width="40" height="40" viewBox="0 0 40 40" fill="none" xmlns="http://www.w3.org/2000/svg">
<path d="M36.25 27.266V9.01328C36.25 7.5457 35.0559 6.35156 33.5883 6.35156H21.0391V5.21094C21.0391 4.58125 20.5281 4.07031 19.8984 4.07031C19.2688 4.07031 18.7578 4.58125 18.7578 5.21094V6.35156H6.20859C4.74102 6.35156 3.54688 7.5457 3.54688 9.01328V27.2664C3.54688 28.734 4.74102 29.9281 6.20859 29.9281H9.53906L5.40195 34.0648C4.95625 34.5105 4.95625 35.2324 5.40195 35.6781C5.62461 35.9008 5.9168 36.0125 6.20859 36.0125C6.50039 36.0125 6.79219 35.9012 7.01523 35.6781L12.7652 29.9281H28.5523L34.3023 35.6781C34.525 35.9008 34.8172 36.0125 35.109 36.0125C35.4008 36.0125 35.6926 35.9012 35.9156 35.6781C36.3613 35.2324 36.3613 34.5105 35.9156 34.0648L31.7785 29.9281H33.5879C35.0555 29.9281 36.25 28.7336 36.25 27.266ZM5.82812 27.266V9.01328C5.82812 8.80664 6.00195 8.6332 6.2082 8.6332H33.5875C33.7941 8.6332 33.9676 8.80703 33.9676 9.01328V27.2664C33.9676 27.473 33.7938 27.6465 33.5875 27.6465H6.20859C6.00195 27.6465 5.82812 27.4727 5.82812 27.266Z" fill="#333333"/>
<path d="M10.7719 16.2383H19.8984C20.5281 16.2383 21.0391 15.7273 21.0391 15.0977C21.0391 14.468 20.5281 13.957 19.8984 13.957H10.7719C10.1422 13.957 9.63125 14.468 9.63125 15.0977C9.63086 15.7273 10.1418 16.2383 10.7719 16.2383ZM27.1234 21.1816C27.1234 20.552 26.6125 20.041 25.9828 20.041H10.7719C10.1422 20.041 9.63125 20.552 9.63125 21.1816C9.63125 21.8113 10.1422 22.3223 10.7719 22.3223H25.9828C26.6125 22.3227 27.1234 21.8117 27.1234 21.1816Z" fill="#333333"/>
<path d="M36.25 27.266V9.01328C36.25 7.5457 35.0559 6.35156 33.5883 6.35156H21.0391V5.21094C21.0391 4.58125 20.5281 4.07031 19.8984 4.07031C19.2688 4.07031 18.7578 4.58125 18.7578 5.21094V6.35156H6.20859C4.74102 6.35156 3.54688 7.5457 3.54688 9.01328V27.2664C3.54688 28.734 4.74102 29.9281 6.20859 29.9281H9.53906L5.40195 34.0648C4.95625 34.5105 4.95625 35.2324 5.40195 35.6781C5.62461 35.9008 5.9168 36.0125 6.20859 36.0125C6.50039 36.0125 6.79219 35.9012 7.01523 35.6781L12.7652 29.9281H28.5523L34.3023 35.6781C34.525 35.9008 34.8172 36.0125 35.109 36.0125C35.4008 36.0125 35.6926 35.9012 35.9156 35.6781C36.3613 35.2324 36.3613 34.5105 35.9156 34.0648L31.7785 29.9281H33.5879C35.0555 29.9281 36.25 28.7336 36.25 27.266ZM5.82812 27.266V9.01328C5.82812 8.80664 6.00195 8.6332 6.2082 8.6332H33.5875C33.7941 8.6332 33.9676 8.80703 33.9676 9.01328V27.2664C33.9676 27.473 33.7938 27.6465 33.5875 27.6465H6.20859C6.00195 27.6465 5.82812 27.4727 5.82812 27.266Z" stroke="#333333" stroke-width="0.4"/>
<path d="M10.7719 16.2383H19.8984C20.5281 16.2383 21.0391 15.7273 21.0391 15.0977C21.0391 14.468 20.5281 13.957 19.8984 13.957H10.7719C10.1422 13.957 9.63125 14.468 9.63125 15.0977C9.63086 15.7273 10.1418 16.2383 10.7719 16.2383ZM27.1234 21.1816C27.1234 20.552 26.6125 20.041 25.9828 20.041H10.7719C10.1422 20.041 9.63125 20.552 9.63125 21.1816C9.63125 21.8113 10.1422 22.3223 10.7719 22.3223H25.9828C26.6125 22.3227 27.1234 21.8117 27.1234 21.1816Z" stroke="#333333" stroke-width="0.4"/>
</svg>
