<svg width="40" height="40" viewBox="0 0 40 40" fill="none" xmlns="http://www.w3.org/2000/svg">
<path d="M33.6667 36.5C33.1665 36.5 32.8335 36.0823 32.8335 35.6645C32.8335 28.6466 27.0833 22.8821 20.0833 22.8821H19.9167C12.9167 22.8821 7.1667 28.6466 7.1667 35.6645C7.1667 36.1655 6.75003 36.5 6.33335 36.5C5.91668 36.5 5.5 36.0823 5.5 35.6645C5.5 29.3151 9.5835 23.7175 15.5833 21.7962L16.0832 21.6291L15.5833 21.3785C12.75 19.6239 11.0833 16.5329 11.0833 13.191C11.0833 7.84423 15.4166 3.5 20.7501 3.5C26.0834 3.5 30.4167 7.84423 30.4167 13.191C30.4167 16.7 28.5002 20.0418 25.3333 21.7126L24.8332 21.963L25.3333 22.1303C30.9168 24.3024 34.5 29.6492 34.5 35.5809C34.5 36.0823 34.0833 36.5 33.6667 36.5ZM20.7501 5.25419C16.4166 5.25419 12.8335 8.84662 12.8335 13.1908C12.8335 17.5353 16.4166 21.1273 20.7501 21.1273C25.0834 21.1273 28.6667 17.5353 28.6667 13.1908C28.6667 8.84662 25.0834 5.25419 20.7501 5.25419Z" fill="white" stroke="white" stroke-width="0.6"/>
<path d="M18.5 34.0919L19.0527 25.4681C19.0527 24.94 19.4475 24.5 20 24.5C20.4736 24.5 20.9475 24.94 20.9475 25.4681L21.5 34.0919L19.9209 35.5L18.5 34.0919Z" fill="white"/>
</svg>
