<svg width="40" height="40" viewBox="0 0 40 40" fill="none" xmlns="http://www.w3.org/2000/svg">
<g clip-path="url(#clip0_769_21924)">
<path fill-rule="evenodd" clip-rule="evenodd" d="M4 10.75C4.69036 10.75 5.25 11.3096 5.25 12V32.5C5.25 32.9142 5.58579 33.25 6 33.25H27C27.6904 33.25 28.25 33.8096 28.25 34.5C28.25 35.1904 27.6904 35.75 27 35.75H6C4.20507 35.75 2.75 34.2949 2.75 32.5V12C2.75 11.3096 3.30964 10.75 4 10.75Z" fill="white"/>
<path fill-rule="evenodd" clip-rule="evenodd" d="M32.1582 6.23437H12.2793C12.0032 6.23437 11.7793 6.45822 11.7793 6.73437V26.6482C11.7793 26.9243 12.0032 27.1482 12.2793 27.1482H32.1582C32.4343 27.1482 32.6582 26.9243 32.6582 26.6482V6.73437C32.6582 6.45822 32.4343 6.23437 32.1582 6.23437ZM12.2793 3.73438C10.6224 3.73438 9.2793 5.07751 9.2793 6.73437V26.6482C9.2793 28.305 10.6224 29.6482 12.2793 29.6482H32.1582C33.8151 29.6482 35.1582 28.305 35.1582 26.6482V6.73437C35.1582 5.07751 33.8151 3.73438 32.1582 3.73438H12.2793Z" fill="white"/>
<path fill-rule="evenodd" clip-rule="evenodd" d="M15.8848 11.6299C15.8848 10.9395 16.4444 10.3799 17.1348 10.3799H27.3066C27.997 10.3799 28.5566 10.9395 28.5566 11.6299C28.5566 12.3202 27.997 12.8799 27.3066 12.8799H17.1348C16.4444 12.8799 15.8848 12.3202 15.8848 11.6299Z" fill="white"/>
<path fill-rule="evenodd" clip-rule="evenodd" d="M15.8848 16.6667C15.8848 15.9764 16.4444 15.4167 17.1348 15.4167H27.3066C27.997 15.4167 28.5566 15.9764 28.5566 16.6667C28.5566 17.3571 27.997 17.9167 27.3066 17.9167H17.1348C16.4444 17.9167 15.8848 17.3571 15.8848 16.6667Z" fill="white"/>
<path fill-rule="evenodd" clip-rule="evenodd" d="M15.8887 21.6572C15.8887 20.9669 16.4483 20.4072 17.1387 20.4072H20.5723C21.2626 20.4072 21.8223 20.9669 21.8223 21.6572C21.8223 22.3476 21.2626 22.9072 20.5723 22.9072H17.1387C16.4483 22.9072 15.8887 22.3476 15.8887 21.6572Z" fill="white"/>
</g>
<defs>
<clipPath id="clip0_769_21924">
<rect width="40" height="40" fill="white"/>
</clipPath>
</defs>
</svg>
