<svg width="36" height="36" viewBox="0 0 36 36" fill="none" xmlns="http://www.w3.org/2000/svg">
<path d="M31.9553 13.0397H30.3167V12.427C30.3167 9.12007 29.0288 6.00646 26.6943 3.64915C24.3597 1.29738 21.2633 0 17.9807 0C14.698 0 11.6071 1.29738 9.26707 3.64915C6.93251 6.00091 5.64462 9.12011 5.64462 12.427V13.0397H4.05536C1.66598 13.0397 0 14.718 0 17.125V24.1307C0 26.3831 1.81942 28.2159 4.05536 28.2159H6.14332V28.2269C6.14332 31.3903 8.70258 33.9684 11.8428 33.9684H13.7389C13.8266 35.1002 14.7747 36 15.9255 36H20.1015C21.3072 36 22.2936 35.0063 22.2936 33.7918V32.3674C22.2936 31.1529 21.3072 30.1592 20.1015 30.1592H15.9255C14.7747 30.1592 13.8266 31.0645 13.7389 32.2018H11.8428C9.66715 32.2018 7.89704 30.4187 7.89704 28.227V27.8295L7.93542 27.7908C7.95732 27.7688 7.97927 27.7412 7.99566 27.7191C8.00117 27.7135 8.00117 27.7081 8.00659 27.7025C8.02849 27.6749 8.04497 27.6528 8.06141 27.6252C8.06141 27.6197 8.06692 27.6197 8.06692 27.6142C8.08336 27.5866 8.09984 27.5645 8.11623 27.5369C8.11623 27.5314 8.12174 27.5314 8.12174 27.5259C8.13817 27.4983 8.14915 27.4707 8.16558 27.4376C8.16558 27.432 8.17109 27.4266 8.17109 27.421C8.18202 27.3934 8.19299 27.3603 8.20401 27.3327C8.20401 27.3271 8.20952 27.3217 8.20952 27.3217C8.22045 27.2941 8.23142 27.261 8.23693 27.2278V27.2223C8.24786 27.1891 8.25337 27.1561 8.25883 27.1229C8.25883 27.1173 8.25883 27.1119 8.26434 27.1063C8.26985 27.0732 8.27527 27.0401 8.27527 27.0069V26.9904C8.27527 26.9572 8.28078 26.9186 8.28078 26.8855V12.4269C8.28078 7.03878 12.6321 2.65536 17.9808 2.65536C23.3296 2.65536 27.6809 7.03873 27.6809 12.4269V26.891C27.6805 27.0651 27.7142 27.2376 27.7802 27.3985C27.8461 27.5595 27.943 27.7057 28.0652 27.8288C28.1874 27.9519 28.3326 28.0495 28.4924 28.1159C28.6521 28.1824 28.8233 28.2164 28.9962 28.2159H31.9446C34.1805 28.2159 35.9999 26.3831 35.9999 24.1307V17.125C36.0109 14.718 34.3449 13.0397 31.9555 13.0397H31.9553ZM2.63047 24.1307V17.125C2.63047 15.9381 3.40322 15.6897 4.05532 15.6897H5.65004V25.5661H4.05532C3.26617 25.5661 2.63047 24.9202 2.63047 24.1307ZM33.3801 24.1307C33.3801 24.9202 32.739 25.5661 31.9553 25.5661H30.3167V15.6896H31.9553C32.6074 15.6896 33.3801 15.938 33.3801 17.125V24.1307V24.1307Z" fill="white"/>
</svg>
