<svg width="30" height="30" viewBox="0 0 30 30" fill="none" xmlns="http://www.w3.org/2000/svg">
<path d="M20.5714 22.394V19.144C20.5714 18.8876 20.7793 18.6797 21.0357 18.6797H27.5357C27.7921 18.6797 28 18.8876 28 19.144V21.4654C28 24.0296 25.9213 26.1083 23.3571 26.1083H6.64286C4.07868 26.1083 2 24.0296 2 21.4654V19.144C2 18.8876 2.20787 18.6797 2.46429 18.6797H8.96429C9.2207 18.6797 9.42857 18.8876 9.42857 19.144V22.394M8.5 22.394H21.5" stroke="#3D99ED" stroke-linecap="round"/>
<path d="M12.5 4.07543V2.93217C12.5 2.69569 12.6917 2.50391 12.9286 2.50391H17.0714C17.3081 2.50391 17.5 2.69578 17.5 2.93248V4.07533C17.5 4.31203 17.3081 4.50391 17.0714 4.50391H12.9286C12.6918 4.50391 12.5 4.31206 12.5 4.07543Z" stroke="#3D99ED"/>
<path d="M13.6072 4.28516V6.1423" stroke="#3D99ED"/>
<path d="M16.3928 4.28516V6.1423" stroke="#3D99ED"/>
<path d="M4.01124 18.6797C3.90992 18.0757 3.85718 17.4553 3.85718 16.8225C3.85718 10.6685 8.846 5.67969 15 5.67969C21.1541 5.67969 26.1429 10.6685 26.1429 16.8225C26.1429 17.4553 26.0902 18.0757 25.9888 18.6797M15 27.9654C12.7757 27.9654 10.7036 27.3137 8.96432 26.1908L21.113 26.1404C19.3579 27.2942 17.2574 27.9654 15 27.9654Z" stroke="#3D99ED" stroke-linecap="round"/>
<path d="M11.2856 11.2539H13.1428C13.6556 11.2539 14.0714 11.6696 14.0714 12.1825V13.111C14.0714 13.6239 13.6556 14.0396 13.1428 14.0396H12.2142C11.7014 14.0396 11.2856 14.4554 11.2856 14.9682V15.8968C11.2856 16.4096 11.7014 16.8253 12.2142 16.8253H14.0714" stroke="#3D99ED" stroke-linecap="round"/>
<path d="M15.9285 11.2539V13.111C15.9285 13.6239 16.3442 14.0396 16.857 14.0396H18.7142" stroke="#3D99ED" stroke-linecap="round"/>
<path d="M18.7144 11.2539V16.8253" stroke="#3D99ED" stroke-linecap="round"/>
</svg>
