<svg width="30" height="30" viewBox="0 0 30 30" fill="none" xmlns="http://www.w3.org/2000/svg">
<g clip-path="url(#clip0_226_11110)">
<path d="M23.5 12V12.5C23.5 13.0523 23.9477 13.5 24.5 13.5V13.5C25.0523 13.5 25.5 13.0523 25.5 12.5V12" stroke="#3D99ED"/>
<path d="M23 6.5L23.3773 9.14142C23.4477 9.63407 23.8696 10 24.3673 10H24.6327C25.1304 10 25.5523 9.63407 25.6227 9.14142L26 6.5" stroke="#3D99ED"/>
<path d="M25 12H24C23.4477 12 23 11.5523 23 11C23 10.4477 23.4477 10 24 10H25C25.5523 10 26 10.4477 26 11C26 11.5523 25.5523 12 25 12Z" stroke="#3D99ED"/>
<rect x="2.5" y="21.5" width="25" height="7" rx="3.5" stroke="#3D99ED"/>
<path d="M23.5 12V12.5C23.5 13.0523 23.9477 13.5 24.5 13.5V13.5C25.0523 13.5 25.5 13.0523 25.5 12.5V12" stroke="#3D99ED"/>
<path d="M23 6.5L23.3773 9.14142C23.4477 9.63407 23.8696 10 24.3673 10H24.6327C25.1304 10 25.5523 9.63407 25.6227 9.14142L26 6.5" stroke="#3D99ED"/>
<path d="M25 12H24C23.4477 12 23 11.5523 23 11C23 10.4477 23.4477 10 24 10H25C25.5523 10 26 10.4477 26 11C26 11.5523 25.5523 12 25 12Z" stroke="#3D99ED"/>
<rect x="2.5" y="21.5" width="25" height="7" rx="3.5" stroke="#3D99ED"/>
<path d="M2.5 18V20C2.5 20.8284 3.17157 21.5 4 21.5H16C16.8284 21.5 17.5 20.8284 17.5 20V18C17.5 17.1716 16.8284 16.5 16 16.5H4C3.17157 16.5 2.5 17.1716 2.5 18Z" stroke="#3D99ED"/>
<path d="M4.5 16.5L5.40119 12.4446C5.46396 12.1622 5.646 11.9207 5.90029 11.7827L23 2.5M12 16.5L22.5 6" stroke="#3D99ED"/>
<circle cx="24.5" cy="4.5" r="2.5" stroke="#3D99ED"/>
<circle cx="6" cy="25" r="1.5" stroke="#3D99ED"/>
<circle cx="12" cy="25" r="1.5" stroke="#3D99ED"/>
<circle cx="18" cy="25" r="1.5" stroke="#3D99ED"/>
<circle cx="24" cy="25" r="1.5" stroke="#3D99ED"/>
<path d="M2.5 18V20C2.5 20.8284 3.17157 21.5 4 21.5H16C16.8284 21.5 17.5 20.8284 17.5 20V18C17.5 17.1716 16.8284 16.5 16 16.5H4C3.17157 16.5 2.5 17.1716 2.5 18Z" stroke="#3D99ED"/>
<path d="M4.5 16.5L5.40119 12.4446C5.46396 12.1622 5.646 11.9207 5.90029 11.7827L23 2.5M12 16.5L22.5 6" stroke="#3D99ED"/>
<circle cx="24.5" cy="4.5" r="2.5" stroke="#3D99ED"/>
<circle cx="6" cy="25" r="1.5" stroke="#3D99ED"/>
<circle cx="12" cy="25" r="1.5" stroke="#3D99ED"/>
<circle cx="18" cy="25" r="1.5" stroke="#3D99ED"/>
<circle cx="24" cy="25" r="1.5" stroke="#3D99ED"/>
</g>
<defs>
<clipPath id="clip0_226_11110">
<rect width="30" height="30" fill="white"/>
</clipPath>
</defs>
</svg>
