<svg width="30" height="30" viewBox="0 0 30 30" fill="none" xmlns="http://www.w3.org/2000/svg">
<path d="M1.93335 9.53553V4.0022C1.93335 3.44991 2.38106 3.0022 2.93335 3.0022H11.1153C11.4941 3.0022 11.8404 3.2162 12.0097 3.55498L12.857 5.24941C13.0263 5.58819 13.3726 5.8022 13.7514 5.8022H27.0667C27.619 5.8022 28.0667 6.24991 28.0667 6.8022V9.53553" stroke="#3D99ED" stroke-linecap="round"/>
<path d="M4.7334 7.99634H25.2667" stroke="#3D99ED" stroke-linecap="round"/>
<path d="M1.93335 27.0656V11.998C1.93335 11.4458 2.38106 10.998 2.93335 10.998H27.0667C27.619 10.998 28.0667 11.4416 28.0667 11.9939V27.0682C28.0667 27.6205 27.619 28.0656 27.0667 28.0656H2.93335C2.38106 28.0656 1.93335 27.6179 1.93335 27.0656Z" stroke="#3D99ED" stroke-linecap="round"/>
<path d="M9.83325 18.2963V19.163C9.83325 19.7153 10.281 20.163 10.8333 20.163H13.5666V22.8963C13.5666 23.4486 14.0143 23.8963 14.5666 23.8963H15.4333C15.9855 23.8963 16.4333 23.4486 16.4333 22.8963V20.163L19.1666 20.163C19.7189 20.163 20.1666 19.7153 20.1666 19.163V18.2963C20.1666 17.744 19.7189 17.2963 19.1666 17.2963H16.4333L16.4333 14.563C16.4333 14.0107 15.9855 13.563 15.4333 13.563H14.5666C14.0143 13.563 13.5666 14.0107 13.5666 14.563V17.2963H10.8333C10.281 17.2963 9.83325 17.744 9.83325 18.2963Z" stroke="#3D99ED" stroke-linecap="round"/>
</svg>
