<svg width="30" height="30" viewBox="0 0 30 30" fill="none" xmlns="http://www.w3.org/2000/svg">
<g clip-path="url(#clip0_226_11071)">
<path d="M4.5 13.5H10.5" stroke="#3D99ED" stroke-linecap="round"/>
<path d="M11.5 16H27C27.5523 16 28 16.4477 28 17V27" stroke="#3D99ED" stroke-linecap="round"/>
<path d="M16 20.3V18.2C16 18.0895 16.0895 18 16.2 18H18.3C18.4105 18 18.5 18.0895 18.5 18.2V20.3C18.5 20.4105 18.4105 20.5 18.3 20.5H16.2C16.0895 20.5 16 20.4105 16 20.3Z" stroke="#3D99ED" stroke-linecap="round"/>
<path d="M16 25.3V23.2C16 23.0895 16.0895 23 16.2 23H18.3C18.4105 23 18.5 23.0895 18.5 23.2V25.3C18.5 25.4105 18.4105 25.5 18.3 25.5H16.2C16.0895 25.5 16 25.4105 16 25.3Z" stroke="#3D99ED" stroke-linecap="round"/>
<path d="M21 20.3V18.2C21 18.0895 21.0895 18 21.2 18H23.3C23.4105 18 23.5 18.0895 23.5 18.2V20.3C23.5 20.4105 23.4105 20.5 23.3 20.5H21.2C21.0895 20.5 21 20.4105 21 20.3Z" stroke="#3D99ED" stroke-linecap="round"/>
<path d="M21 25.3V23.2C21 23.0895 21.0895 23 21.2 23H23.3C23.4105 23 23.5 23.0895 23.5 23.2V25.3C23.5 25.4105 23.4105 25.5 23.3 25.5H21.2C21.0895 25.5 21 25.4105 21 25.3Z" stroke="#3D99ED" stroke-linecap="round"/>
<path d="M2.5 27L4.47761 10.6847C4.49039 10.5793 4.57988 10.5 4.68608 10.5H10.3139C10.4201 10.5 10.5096 10.5793 10.5224 10.6847L12.5 27" stroke="#3D99ED" stroke-linecap="round"/>
<path d="M0.5 29.2V27.3C0.5 27.1343 0.634314 27 0.799999 27H29.2C29.3657 27 29.5 27.1343 29.5 27.3V29.2C29.5 29.3657 29.3657 29.5 29.2 29.5H0.8C0.634315 29.5 0.5 29.3657 0.5 29.2Z" stroke="#3D99ED" stroke-linecap="round"/>
<path d="M8.81639 5.08196L8.85355 5.26777C8.94732 5.73661 8.851 6.2235 8.58579 6.62132L7.32334 8.51499C7.21771 8.67344 7.37234 8.87589 7.55299 8.81567L9.01472 8.32843C9.58007 8.13998 10.198 8.39592 10.4645 8.92893C10.7602 9.52047 11.4795 9.76023 12.0711 9.46447L12.2361 9.38197C12.7043 9.14787 13.2645 9.19839 13.6833 9.51246L13.7158 9.53685C14.4026 10.052 15.3842 9.85967 15.8259 9.12352L16.045 8.75825C16.3196 8.30074 16.8459 8.05766 17.3722 8.14537C18.3376 8.30627 19.1274 7.38207 18.8179 6.45358L18.7712 6.31358C18.605 5.81496 18.7348 5.26524 19.1064 4.89359L19.1963 4.80367C20.1339 3.8661 19.583 2.26037 18.2673 2.09591L18.0748 2.07185C17.7023 2.02528 17.3559 1.85587 17.0904 1.59041L16.7382 1.23822C16.1093 0.609265 15.0567 0.738842 14.5991 1.50156C14.2538 2.07699 13.542 2.31679 12.9189 2.06756L12.4489 1.87954C11.9341 1.67363 11.3522 1.94353 11.1768 2.4695C11.0675 2.79755 10.7907 3.04185 10.4517 3.10967L10.082 3.18361C9.20827 3.35835 8.64165 4.20827 8.81639 5.08196Z" stroke="#3D99ED" stroke-linecap="round"/>
</g>
<defs>
<clipPath id="clip0_226_11071">
<rect width="30" height="30" fill="white"/>
</clipPath>
</defs>
</svg>
