<svg width="30" height="30" viewBox="0 0 30 30" fill="none" xmlns="http://www.w3.org/2000/svg">
<path d="M11.7074 9.29387L11.9906 9.01063C12.295 8.70627 12.7599 8.63082 13.1449 8.82331L13.2593 8.8805C13.8698 9.18575 14.0018 9.99939 13.5192 10.482L13.2074 10.7939C12.8168 11.1844 12.1837 11.1844 11.7931 10.7939L11.7074 10.7081C11.3168 10.3176 11.3168 9.68439 11.7074 9.29387Z" stroke="#3D99ED" stroke-linecap="round"/>
<path d="M21 9.99756H23C23.5523 9.99756 24 10.4453 24 10.9976V22.9976C24 23.5498 23.5523 23.9976 23 23.9976H16C15.4477 23.9976 15 24.4453 15 24.9976V25.9976" stroke="#3D99ED" stroke-linecap="round"/>
<path d="M8 14H13" stroke="#3D99ED" stroke-linecap="round"/>
<path d="M10 20.0034H22" stroke="#3D99ED" stroke-linecap="round"/>
<path d="M11 9.99756H7C6.44772 9.99756 6 10.4453 6 10.9976V22.9976C6 23.5498 6.44772 23.9976 7 23.9976H14C14.5523 23.9976 15 24.4453 15 24.9976V25.9976" stroke="#3D99ED" stroke-linecap="round"/>
<path d="M6 10.998H4C3.44772 10.998 3 11.4458 3 11.998V24.998C3 25.5503 3.44772 25.998 4 25.998H12C12.5523 25.998 13 26.4458 13 26.998V27.498C13 28.0503 13.4477 28.498 14 28.498H16C16.5523 28.498 17 28.0503 17 27.498V26.998C17 26.4458 17.4477 25.998 18 25.998H26C26.5523 25.998 27 25.5503 27 24.998V11.998C27 11.4458 26.5523 10.998 26 10.998H24" stroke="#3D99ED" stroke-linecap="round"/>
<circle cx="18" cy="8.50464" r="1.5" stroke="#3D99ED" stroke-linecap="round"/>
<path d="M13 19.9968C13.5 18.8302 14.5 16.4968 16.5 16.4968C18.1502 16.4968 19.5 18.9968 19.5 19.9968" stroke="#3D99ED" stroke-linecap="round"/>
<path d="M10.0906 14.0061C10.456 15.9953 11.8916 17.6101 13.7784 18.2314M19.4999 9.2312C20.4298 10.2162 20.9999 11.5446 20.9999 13.0061C20.9999 14.9369 20.005 16.6352 18.5 17.6166" stroke="#3D99ED" stroke-linecap="round"/>
<path d="M12.4322 6.92738L15.8449 2.26467C16.1711 1.819 16.7968 1.72214 17.2425 2.04833L19.0522 3.37287C19.4978 3.69905 19.5958 4.32329 19.2696 4.76896L15.8552 9.43396C15.5291 9.87963 14.9039 9.97568 14.4583 9.64949L12.6486 8.32495C12.2029 7.99877 12.106 7.37305 12.4322 6.92738Z" stroke="#3D99ED" stroke-linecap="round"/>
</svg>
