<svg width="40" height="40" viewBox="0 0 40 40" fill="none" xmlns="http://www.w3.org/2000/svg">
<path d="M34.321 18.6307H28.866C28.6851 18.6307 28.5115 18.7028 28.3835 18.8312C28.2556 18.9596 28.1837 19.1338 28.1837 19.3153C28.1837 19.4969 28.2556 19.6711 28.3835 19.7995C28.5115 19.9279 28.6851 20 28.866 20H33.6376V31.6329H26.1379V8.36712C26.1379 7.61161 25.5284 7 24.7755 7H15.2278C14.4749 7 13.8655 7.61161 13.8655 8.36712V31.6295H6.36573V16.5788H11.1374C11.3183 16.5788 11.4919 16.5067 11.6198 16.3783C11.7478 16.2499 11.8196 16.0757 11.8196 15.8941C11.8196 15.7125 11.7478 15.5384 11.6198 15.41C11.4919 15.2816 11.3183 15.2094 11.1374 15.2094H5.68231C5.59266 15.2094 5.50387 15.2269 5.42102 15.2613C5.33818 15.2956 5.2629 15.3461 5.19952 15.4097C5.13613 15.4733 5.08587 15.5488 5.05164 15.632C5.01741 15.7151 4.99985 15.8042 5 15.8941V32.3154C5 32.6942 5.30474 33 5.68231 33H34.3177C34.4073 33.0002 34.4961 32.9826 34.579 32.9482C34.6618 32.9139 34.7371 32.8634 34.8004 32.7998C34.8638 32.7362 34.9141 32.6607 34.9483 32.5775C34.9826 32.4944 35.0002 32.4053 35 32.3154V19.3153C34.9997 19.1339 34.9277 18.9599 34.7998 18.8315C34.672 18.7032 34.4986 18.6309 34.3177 18.6307H34.321ZM24.7767 31.6295H15.229V9.73424C15.229 8.97873 15.8384 8.36712 16.5913 8.36712H23.4076C24.1605 8.36712 24.77 8.97873 24.77 9.73424V31.6295H24.7767ZM17.957 13.1565V13.8412H20.0017V17.2635H21.3674V11.1047H20.0017L17.957 13.1565Z" fill="white"/>
</svg>
