<svg width="40" height="40" viewBox="0 0 40 40" fill="none" xmlns="http://www.w3.org/2000/svg">
<path d="M16.6105 5H7.46283C6.10241 5 5 6.10243 5 7.46286V16.5872C5 17.9711 6.10241 19.0735 7.46283 19.0735H16.5871C17.9709 19.0735 19.0733 17.9711 19.0733 16.6106V7.46286C19.0733 6.10243 17.9709 5 16.6105 5ZM17.1969 15.391C17.1969 16.3995 16.376 17.197 15.3908 17.197H8.68252C7.67393 17.197 6.87645 16.3761 6.87645 15.391V8.68256C6.87645 7.67397 7.69739 6.87647 8.68252 6.87647H15.3673C16.376 6.87647 17.1734 7.69742 17.1734 8.68256V15.391H17.1969ZM16.6105 20.95H7.46283C6.10241 20.95 5 22.0524 5 23.4129V32.5371C5 33.8976 6.10241 35 7.46283 35H16.5871C17.9475 35 19.0499 33.8976 19.0499 32.5371V23.4129C19.0733 22.0524 17.9709 20.95 16.6105 20.95ZM17.1969 31.3409C17.1969 32.3495 16.376 33.147 15.3908 33.147H8.68252C7.67393 33.147 6.87645 32.326 6.87645 31.3409V24.6325C6.87645 23.624 7.69739 22.8264 8.68252 22.8264H15.3673C16.376 22.8264 17.1734 23.6474 17.1734 24.6325V31.3409H17.1969ZM32.5603 5H23.4126C22.0522 5 20.9498 6.10243 20.9498 7.46286V16.5872C20.9498 17.9711 22.0522 19.0735 23.4126 19.0735H32.5368C33.8973 19.0735 34.9996 17.9711 34.9996 16.6106V7.46286C35.0231 6.10243 33.9207 5 32.5603 5ZM33.1467 15.391C33.1467 16.3995 32.3257 17.197 31.3406 17.197H24.6323C23.6237 17.197 22.8262 16.3761 22.8262 15.391V8.68256C22.8262 7.67397 23.6472 6.87647 24.6323 6.87647H31.3171C32.3257 6.87647 33.1232 7.69742 33.1232 8.68256V15.391H33.1467Z" fill="white"/>
<path d="M35 21.9334C35 21.42 34.58 21 34.0667 21H21.9334C21.42 21 21 21.42 21 21.9334C21 22.4467 21.42 22.8667 21.9334 22.8667H34.0667C34.58 22.8667 35 22.4467 35 21.9334ZM32.5034 28C32.5034 27.4867 32.0834 27.0667 31.57 27.0667H21.9334C21.42 27.0667 21 27.4867 21 28C21 28.5134 21.42 28.9334 21.9334 28.9334H31.57C32.0834 28.9334 32.5034 28.5134 32.5034 28ZM27.2067 34.0667C27.2067 33.5534 26.7867 33.1334 26.2734 33.1334H21.9334C21.42 33.1334 21 33.5534 21 34.0667C21 34.58 21.42 35 21.9334 35H26.2734C26.81 35 27.2067 34.58 27.2067 34.0667Z" fill="white"/>
</svg>
