<svg width="40" height="40" viewBox="0 0 40 40" fill="none" xmlns="http://www.w3.org/2000/svg">
<path d="M19.5258 35C18.8655 35 18.1765 34.9425 17.5161 34.8564C16.8845 34.7701 16.4539 34.1956 16.54 33.5635C16.6262 32.9314 17.2003 32.5004 17.8319 32.5866C19.5544 32.8165 21.277 32.7016 22.9709 32.2418C26.3872 31.3225 29.2294 29.139 30.9807 26.0936C31.641 24.9731 32.1003 23.7664 32.3875 22.5023L30.6362 24.1974C30.1768 24.6284 29.4591 24.6284 28.9997 24.1687C28.5404 23.7089 28.5691 22.9907 29.0285 22.531L33.0765 18.6524C33.421 18.3364 33.909 18.2502 34.3109 18.4226C34.7416 18.595 35 19.0259 35 19.4856C35 22.1863 34.2822 24.887 32.9329 27.2428C30.8659 30.8341 27.5069 33.3911 23.5163 34.4829C22.2244 34.8276 20.875 35 19.5258 35ZM12.3484 33.0751C12.1475 33.0751 11.9465 33.0176 11.7743 32.9314C9.42013 31.581 7.46791 29.5987 6.08987 27.2428C3.76443 23.2206 3.3625 18.4514 4.97021 14.0843C5.65923 12.2456 6.66406 10.5505 7.98468 9.114C8.41531 8.65431 9.13304 8.59685 9.59238 9.0278C10.0517 9.45875 10.1091 10.177 9.67851 10.6367C8.55885 11.8721 7.69758 13.3086 7.1234 14.8888C5.74536 18.595 6.08987 22.6746 8.0708 26.0936C8.73112 27.2141 9.53497 28.2484 10.4537 29.1103L9.87947 26.7544C9.73593 26.151 10.1091 25.5189 10.7121 25.3753C11.3149 25.2317 11.9465 25.6052 12.09 26.2085L13.4107 31.6673C13.5256 32.127 13.3533 32.5866 12.98 32.8452C12.8365 32.9888 12.5781 33.0751 12.3484 33.0751ZM18.3774 22.9332C18.0616 22.9332 17.7745 22.8184 17.5735 22.5885L15.2768 20.2901C14.8175 19.8303 14.8175 19.1121 15.2768 18.6524C15.7362 18.1928 16.4539 18.1928 16.9132 18.6524L18.4061 20.1464L22.1957 16.3541C22.655 15.8943 23.3728 15.8943 23.8321 16.3541C24.2915 16.8137 24.2915 17.532 23.8321 17.9916L19.2387 22.5885C18.9803 22.8184 18.6932 22.9332 18.3774 22.9332ZM33.0765 15.923C32.5884 15.923 32.1578 15.6358 31.9855 15.1473C31.4687 13.6534 30.6936 12.303 29.6888 11.0677C27.1911 8.02224 23.4876 6.2697 19.5258 6.2697C18.2338 6.2697 16.9419 6.4708 15.7074 6.8443L18.0328 7.53382C18.6358 7.70621 18.9803 8.33828 18.808 8.97034C18.6358 9.57367 18.0041 9.91844 17.3725 9.74605L11.9753 8.16589C11.5446 8.05097 11.2001 7.64874 11.1714 7.18907C11.114 6.72938 11.3437 6.29843 11.7456 6.06858C14.0997 4.71826 16.7697 4 19.4971 4C24.1479 4 28.483 6.06858 31.4687 9.63114C32.6459 11.0677 33.5646 12.6765 34.1674 14.4291C34.3684 15.0324 34.0525 15.6932 33.4497 15.8943C33.3349 15.8943 33.22 15.923 33.0765 15.923Z" fill="white"/>
</svg>
