<svg width="24" height="24" viewBox="0 0 24 24" fill="none" xmlns="http://www.w3.org/2000/svg">
<path d="M14.6774 6.55625C16.4174 6.55625 17.8334 7.86425 17.8334 9.48425C17.8334 9.98825 17.6894 10.4803 17.4254 10.9242C17.0294 11.5723 16.3934 12.0522 15.6254 12.2802C15.4214 12.3403 15.2654 12.3642 15.1214 12.3642C14.7854 12.3642 14.5214 12.1003 14.5214 11.7642C14.5214 11.4283 14.7854 11.1642 15.1214 11.1642C15.1454 11.1642 15.1934 11.1642 15.2534 11.1402C15.7694 10.9962 16.1774 10.6962 16.4054 10.3002C16.5614 10.0482 16.6334 9.77225 16.6334 9.48425C16.6334 8.53625 15.7574 7.75625 14.6894 7.75625C14.3174 7.75625 13.9574 7.85225 13.6334 8.03225C13.0694 8.35625 12.7334 8.89625 12.7334 9.48425V14.5123C12.7334 15.5323 12.1694 16.4683 11.2334 16.9963C10.7294 17.2843 10.1654 17.4283 9.58944 17.4283C7.84944 17.4283 6.43344 16.1202 6.43344 14.5002C6.43344 13.9963 6.57744 13.5043 6.84144 13.0603C7.23744 12.4123 7.87344 11.9323 8.64144 11.7043C8.85744 11.6442 9.00144 11.6202 9.14544 11.6202C9.48144 11.6202 9.74544 11.8842 9.74544 12.2203C9.74544 12.5562 9.48144 12.8202 9.14544 12.8202C9.12144 12.8202 9.07344 12.8203 9.01344 12.8443C8.49744 13.0003 8.08944 13.3003 7.86144 13.6842C7.70544 13.9363 7.63344 14.2122 7.63344 14.5002C7.63344 15.4482 8.50944 16.2283 9.58944 16.2283C9.96144 16.2283 10.3214 16.1323 10.6454 15.9523C11.2094 15.6283 11.5454 15.0883 11.5454 14.5002V9.48425C11.5454 8.46425 12.1094 7.52825 13.0454 7.00025C13.5374 6.70025 14.1014 6.55625 14.6774 6.55625ZM2.47344 11.9562C2.47344 17.2603 6.76944 21.5563 12.0734 21.5563C17.3774 21.5563 21.6734 17.2603 21.6734 11.9562C21.6734 6.65225 17.3774 2.35625 12.0734 2.35625C6.76944 2.35625 2.47344 6.65225 2.47344 11.9562ZM1.27344 11.9562C1.27344 5.99225 6.10944 1.15625 12.0734 1.15625C18.0374 1.15625 22.8734 5.99225 22.8734 11.9562C22.8734 17.9202 18.0374 22.7563 12.0734 22.7563C6.10944 22.7563 1.27344 17.9202 1.27344 11.9562Z" fill="white" stroke="white" stroke-width="0.6"/>
</svg>
