<svg width="40" height="40" viewBox="0 0 40 40" fill="none" xmlns="http://www.w3.org/2000/svg">
<path d="M20.354 25C20.0466 25 19.767 24.8838 19.5714 24.6515L17.3354 22.3278C16.8882 21.8631 16.8882 21.137 17.3354 20.6722C17.7826 20.2075 18.4813 20.2075 18.9286 20.6722L20.3819 22.1826L24.0715 18.3485C24.5186 17.8838 25.2174 17.8838 25.6646 18.3485C26.1118 18.8133 26.1118 19.5394 25.6646 20.0042L21.1926 24.6515C20.941 24.8838 20.6615 25 20.354 25Z" fill="white"/>
<path d="M32.6466 8.11927C32.5407 8.03198 32.4164 7.97024 32.2832 7.93878C32.1501 7.90731 32.0116 7.90695 31.8783 7.9377C29.5733 8.47355 23.1326 7.33986 20.6498 4.36172C20.5947 4.25133 20.5099 4.15887 20.405 4.09501C20.3002 4.03115 20.1796 3.99849 20.057 4.0008C19.9385 3.99574 19.8201 4.01469 19.7089 4.05652C19.5977 4.09835 19.4958 4.16222 19.4095 4.24437C16.2176 7.33986 10.486 8.47355 8.06248 7.9377C7.92918 7.9098 7.79145 7.91139 7.65881 7.94235C7.52617 7.97331 7.40176 8.03291 7.29416 8.11705C7.11854 8.23662 7 8.53555 7 8.77247V21.7678C7 30.0512 19.1746 34.7609 19.7059 34.9402C19.7629 35 19.8815 35 20 35C20.1185 35 20.2371 35 20.2963 34.9402C20.8276 34.7609 33 30.1132 33 21.7655V8.77468C33 8.53776 32.8815 8.23884 32.6466 8.11927ZM31.2263 21.7678C31.2263 28.2024 21.8308 32.3739 20 33.1511C18.1692 32.3762 8.77153 28.2024 8.77153 21.7678V9.84194C11.7285 10.0235 16.6918 8.88982 19.9408 6.1486C22.7792 8.83225 28.0367 10.0833 31.2263 9.84194V21.7678Z" fill="white"/>
</svg>
