<svg width="300" height="100" viewBox="0 0 300 100" fill="none" xmlns="http://www.w3.org/2000/svg">
<path d="M175.747 33.2422H165.338C159.361 33.2422 154.516 38.2402 154.516 44.4055V55.5428C154.516 61.7081 159.361 66.7061 165.338 66.7061H175.747C181.724 66.7061 186.569 61.7081 186.569 55.5428V44.4055C186.569 38.2402 181.724 33.2422 175.747 33.2422Z" stroke="#006FB0" stroke-width="3.91" stroke-miterlimit="10"/>
<path d="M159.709 63.0135C159.679 63.0284 159.646 63.0351 159.613 63.0327C159.58 63.0303 159.548 63.0189 159.52 62.9998C159.492 62.9807 159.47 62.9545 159.455 62.9238C159.441 62.893 159.434 62.8588 159.436 62.8246C159.461 62.3764 159.486 61.5542 159.486 61.2838C159.486 57.7467 159.386 46.8797 159.386 46.8797C159.386 46.1735 159.521 45.4741 159.783 44.8217C160.045 44.1692 160.429 43.5763 160.913 43.0769C161.397 42.5776 161.972 42.1814 162.604 41.9112C163.237 41.6409 163.915 41.5018 164.599 41.5018H167.544C167.84 41.5067 168.129 41.4063 168.361 41.2174C168.594 41.0286 168.757 40.7628 168.822 40.4647C168.863 40.2731 168.862 40.0745 168.818 39.8836C168.775 39.6926 168.69 39.5141 168.571 39.3613C168.452 39.2084 168.301 39.0851 168.129 39.0005C167.958 38.9158 167.77 38.8719 167.58 38.8721H163.529C163.211 38.8723 162.896 38.9412 162.604 39.0745C162.313 39.2079 162.052 39.4026 161.838 39.6462L161.479 39.9499C160.959 40.3908 160.343 40.6958 159.684 40.8388C158.538 41.0721 158.517 40.5981 158.607 40.4981L160.553 38.3943C160.933 37.9642 161.396 37.6208 161.912 37.3861C162.429 37.1514 162.987 37.0305 163.551 37.0313H167.501C168.287 37.0274 169.045 37.329 169.626 37.876C170.206 38.423 170.565 39.1753 170.632 39.9832C170.66 40.4141 170.602 40.8463 170.461 41.2531C170.321 41.66 170.101 42.0327 169.815 42.3483C169.529 42.6639 169.184 42.9157 168.8 43.0879C168.416 43.2602 168.002 43.3494 167.583 43.35H164.603C164.153 43.3495 163.706 43.4407 163.29 43.6182C162.874 43.7958 162.496 44.0564 162.177 44.3849C161.859 44.7135 161.606 45.1036 161.434 45.5329C161.262 45.9623 161.174 46.4225 161.174 46.8871V59.943C161.131 62.0431 160.219 62.7728 159.709 63.0135Z" fill="#006FB0"/>
<path d="M159.709 63.0135C159.679 63.0284 159.646 63.0351 159.613 63.0327C159.58 63.0303 159.548 63.0189 159.52 62.9998C159.492 62.9807 159.47 62.9545 159.455 62.9238C159.441 62.893 159.434 62.8588 159.436 62.8246C159.461 62.3764 159.486 61.5542 159.486 61.2838C159.486 57.7467 159.386 46.8797 159.386 46.8797C159.386 46.1735 159.521 45.4741 159.783 44.8217C160.045 44.1692 160.429 43.5763 160.913 43.0769C161.397 42.5776 161.972 42.1814 162.604 41.9112C163.237 41.6409 163.915 41.5018 164.599 41.5018H167.544C167.84 41.5067 168.129 41.4063 168.361 41.2174C168.594 41.0286 168.757 40.7628 168.822 40.4647C168.863 40.2731 168.862 40.0745 168.818 39.8836C168.775 39.6926 168.69 39.5141 168.571 39.3613C168.452 39.2084 168.301 39.0851 168.129 39.0005C167.958 38.9158 167.77 38.8719 167.58 38.8721H163.529C163.211 38.8723 162.896 38.9412 162.604 39.0745C162.313 39.2079 162.052 39.4026 161.838 39.6462L161.479 39.9499C160.959 40.3908 160.343 40.6958 159.684 40.8388C158.538 41.0721 158.517 40.5981 158.607 40.4981L160.553 38.3943C160.933 37.9642 161.396 37.6208 161.912 37.3861C162.429 37.1514 162.987 37.0305 163.551 37.0313H167.501C168.287 37.0274 169.045 37.329 169.626 37.876C170.206 38.423 170.565 39.1753 170.632 39.9832C170.66 40.4141 170.602 40.8463 170.461 41.2531C170.321 41.66 170.101 42.0327 169.815 42.3483C169.529 42.6639 169.184 42.9157 168.8 43.0879C168.416 43.2602 168.002 43.3494 167.583 43.35H164.603C164.153 43.3495 163.706 43.4407 163.29 43.6182C162.874 43.7958 162.496 44.0564 162.177 44.3849C161.859 44.7135 161.606 45.1036 161.434 45.5329C161.262 45.9623 161.174 46.4225 161.174 46.8871V59.943C161.131 62.0431 160.219 62.7728 159.709 63.0135Z" fill="#006FB0"/>
<path d="M169.488 45.3286C170.059 45.3027 170.375 46.2768 170.375 47.6954C170.375 50.2288 170.286 58.4031 170.286 61.2809C170.286 61.5513 170.311 62.3921 170.336 62.8254C170.337 62.8587 170.331 62.8918 170.316 62.9216C170.302 62.9514 170.28 62.9769 170.254 62.9958C170.227 63.0147 170.196 63.0263 170.164 63.0295C170.132 63.0328 170.1 63.0275 170.07 63.0143C169.578 62.7773 168.634 62.0513 168.602 59.9327V47.688C168.602 45.9657 169.029 45.3509 169.488 45.3286Z" fill="#006FB0"/>
<path d="M165.095 63.0267C164.571 63.0267 164.137 61.0637 164.137 60.0266V47.3485C164.137 46.5559 164.496 45.6484 164.998 45.6484C165.501 45.6484 165.921 46.7262 165.921 47.5559V60.1044C165.921 61.1267 165.627 63.0267 165.095 63.0267Z" fill="#006FB0"/>
<path d="M177.867 57.5958H175.95C174.848 57.5948 173.791 57.144 173.01 56.3418C172.229 55.5396 171.787 54.4511 171.781 53.3142V45.4917C171.783 44.3522 172.223 43.26 173.005 42.4546C173.786 41.6491 174.845 41.1963 175.95 41.1953H177.867C178.972 41.1963 180.031 41.6493 180.812 42.4548C181.592 43.2603 182.032 44.3526 182.033 45.4917V53.3142C182.027 54.4505 181.586 55.5384 180.805 56.3405C180.025 57.1426 178.969 57.5938 177.867 57.5958ZM175.95 43.0843C175.331 43.0843 174.737 43.3378 174.298 43.7892C173.86 44.2405 173.613 44.8529 173.612 45.4917V53.3142C173.613 53.953 173.86 54.5654 174.298 55.0167C174.737 55.4681 175.331 55.7217 175.95 55.7216H177.867C178.486 55.7207 179.079 55.4667 179.517 55.0154C179.954 54.5642 180.2 53.9524 180.201 53.3142V45.4917C180.2 44.8535 179.954 44.2417 179.517 43.7905C179.079 43.3392 178.486 43.0852 177.867 43.0843H175.95Z" fill="#006FB0"/>
<path d="M177.811 62.1274H176.016V39.4157C176.016 38.4564 176.396 37.0156 176.91 37.0156C177.488 37.0156 177.8 38.4971 177.8 39.3898L177.811 62.1274Z" fill="#006FB0"/>
<path d="M178.8 61.3549H174.222C173.609 61.3547 173.001 61.2431 172.426 61.0252L172.143 60.9215C172.099 60.9059 172.052 60.9022 172.006 60.9107C171.96 60.9192 171.917 60.9396 171.881 60.9701C171.845 61.0005 171.817 61.0399 171.8 61.0846C171.783 61.1292 171.777 61.1776 171.784 61.2252C171.784 61.7363 172.642 63.0771 174.531 63.0771H178.775L178.8 61.3549Z" fill="#006FB0"/>
<path d="M175.07 61.3549H179.641C180.254 61.3547 180.862 61.2431 181.437 61.0252L181.72 60.9215C181.764 60.9059 181.811 60.9022 181.857 60.9107C181.903 60.9192 181.946 60.9396 181.982 60.9701C182.018 61.0005 182.046 61.0399 182.063 61.0846C182.08 61.1292 182.085 61.1776 182.079 61.2252C182.079 61.7363 181.221 63.0771 179.332 63.0771H175.07V61.3549Z" fill="#006FB0"/>
<path d="M91.3292 33.4219H80.9199C74.9429 33.4219 70.0977 38.4198 70.0977 44.5852V55.7225C70.0977 61.8878 74.9429 66.8858 80.9199 66.8858H91.3292C97.3061 66.8858 102.151 61.8878 102.151 55.7225V44.5852C102.151 38.4198 97.3061 33.4219 91.3292 33.4219Z" stroke="#006FB0" stroke-width="3.91" stroke-miterlimit="10"/>
<path d="M133.517 33.1094H123.107C117.13 33.1094 112.285 38.1073 112.285 44.2727V55.41C112.285 61.5753 117.13 66.5733 123.107 66.5733H133.517C139.494 66.5733 144.339 61.5753 144.339 55.41V44.2727C144.339 38.1073 139.494 33.1094 133.517 33.1094Z" stroke="#006FB0" stroke-width="3.91" stroke-miterlimit="10"/>
<path d="M139.83 61.6547C136.433 56.7574 134.615 50.883 134.631 44.8616C134.631 44.0801 134.663 43.2875 134.724 42.5023C134.735 42.3831 134.7 42.2642 134.627 42.1713C134.554 42.0784 134.448 42.019 134.333 42.006C134.134 41.9877 133.933 42.0114 133.743 42.0755C133.553 42.1397 133.378 42.2429 133.228 42.379C133.078 42.5151 132.956 42.6813 132.87 42.8673C132.784 43.0534 132.736 43.2556 132.728 43.4616C132.706 43.9282 132.695 44.3949 132.695 44.8616C132.695 50.9877 134.193 55.5545 137.431 60.6213C137.902 61.3621 139.069 62.8436 139.74 62.2917C139.832 62.2177 139.892 62.1103 139.909 61.9917C139.925 61.8731 139.897 61.7524 139.83 61.6547Z" fill="#006FB0"/>
<path d="M136.492 36.9256C131.731 37.0701 130.51 36.8516 128.306 36.8516C126.744 36.8516 123.871 37.522 122.787 38.7257C122.227 39.3566 121.795 40.0961 121.515 40.9012C121.235 41.7062 121.113 42.5607 121.157 43.4147C121.178 43.8962 121.193 44.3777 121.193 44.8666C121.193 50.9408 120.607 56.7188 117.207 61.6597C117.139 61.7567 117.109 61.8773 117.125 61.9962C117.141 62.115 117.202 62.2228 117.293 62.2967C117.968 62.8301 119.089 61.6189 119.552 60.8856C122.783 55.8188 123.124 50.9927 123.124 44.8666C123.124 44.3444 123.124 43.8258 123.089 43.311C123.058 42.7317 123.14 42.1521 123.329 41.6058C123.519 41.0595 123.811 40.5576 124.191 40.1294C124.51 39.7591 125.821 39.1924 126.633 39.0998C126.82 39.0864 127.004 39.149 127.147 39.2743C127.29 39.3996 127.38 39.5775 127.397 39.7702C127.397 39.7702 127.487 57.4818 127.487 57.6188C127.487 60.193 127.789 62.5782 128.36 62.6078C129.146 62.6449 129.498 60.5226 129.534 57.6188C129.595 53.0298 129.333 39.4702 129.333 39.4702C129.333 39.4005 129.347 39.3315 129.374 39.2674C129.4 39.2033 129.439 39.1453 129.487 39.0967C129.536 39.0481 129.593 39.0099 129.656 38.9844C129.719 38.9588 129.786 38.9464 129.853 38.9479C130.708 38.9479 132.561 38.9146 133.914 38.8183C136.474 38.6331 136.737 36.9182 136.492 36.9256Z" fill="#006FB0"/>
<path d="M85.0114 55.9709V60.3525C85.0066 60.4178 85.0066 60.4835 85.0114 60.5488C85.0114 60.6895 85.0114 60.8303 85.0114 60.9673C85.0114 61.7562 85.41 63.2637 85.9845 63.2489C86.6057 63.3118 86.9539 61.6933 86.9611 60.9488C86.9611 59.0969 86.9863 57.7265 86.9899 55.8672" fill="#006FB0"/>
<path d="M87.0264 56.8457C87.0264 56.8457 87.0264 50.764 87.0264 50.7751C87.0264 49.5751 87.0264 47.9269 87.0264 47.9232C87.0659 47.1232 86.8648 44.475 86.0533 44.4379C85.3352 44.4046 85.0228 46.3417 85.0228 47.901C85.0228 47.901 85.0228 49.6677 85.0228 50.7566C76.5848 50.7566 76.1467 50.3418 75.1306 50.1307C74.1144 49.9196 74.2616 51.564 76.5058 52.1826C78.5525 52.753 81.3891 52.6048 85.0228 52.6011V57.2605" fill="#006FB0"/>
<path d="M79.8196 48.0377C80.0135 45.5895 79.062 44.1191 83.9237 43.7931C83.9237 43.7931 86.8573 43.6783 87.1014 43.682C87.5431 43.682 91.2486 43.7302 92.2792 43.0153C92.4031 42.9529 92.523 42.8824 92.6382 42.8042C94.2289 41.7227 94.6957 39.1782 93.1194 37.7633C92.4952 37.1954 91.6895 36.8855 90.8573 36.8929H81.299C81.1194 36.9189 80.0279 36.83 79.8268 36.9855C78.9974 37.2337 79.5934 38.4078 80.3726 38.5411C80.6867 38.6212 81.0079 38.6683 81.3313 38.6819C81.6903 38.8004 87.0189 38.5967 90.0135 38.5967C91.0907 38.5967 92.0027 39.1671 92.0745 39.7708C92.102 39.9993 92.1104 40.2298 92.0996 40.4597C92.0673 40.856 91.2774 41.5931 90.0027 41.6709C88.8645 41.7412 86.6203 41.7227 86.3366 41.7783C78.053 41.7783 78.0243 44.0635 77.9489 48.0081C77.927 48.4514 77.8234 48.8863 77.6437 49.2896C77.4965 49.5303 79.7334 50.2007 79.8196 48.0377Z" fill="#006FB0"/>
<path d="M92.527 43.8319L91.3672 44.2578C93.1266 44.9282 92.6383 46.2097 92.7819 48.0357C92.8681 50.1987 95.1051 49.5172 94.9578 49.2765C94.7256 48.7154 94.6036 48.1124 94.5988 47.5024C94.6069 46.5185 94.4689 45.5392 94.1894 44.5986C94.0634 44.2728 93.8193 44.0106 93.509 43.8674C93.1986 43.7243 92.8463 43.7115 92.527 43.8319Z" fill="#006FB0"/>
<path d="M207.531 36.9297C207.079 36.9297 206.63 37.863 206.59 38.8853V58.6266C206.54 60.0155 206.472 61.2193 204.659 61.6267C204.167 61.7415 202.824 61.4822 202.612 61.9971C202.361 62.6119 203.549 63.1638 204.91 63.0156C207.064 62.7749 208.389 61.1637 208.425 58.7599V38.8742C208.404 38.0001 208.131 36.9297 207.531 36.9297Z" fill="#006FB0"/>
<path d="M207.544 40.9062C205.156 41.1581 202.912 40.9063 202.384 40.9951C201.558 41.247 202.811 42.2655 203.63 42.5248C204.369 42.7322 207.098 42.7137 207.544 42.6693V40.9062Z" fill="#006FB0"/>
<path d="M207.544 49.8125C205.156 50.0681 202.912 49.8125 202.384 49.9051C201.558 50.157 202.811 51.1755 203.63 51.4348C204.369 51.6385 207.098 51.6237 207.544 51.5792V49.8125Z" fill="#006FB0"/>
<path d="M220.504 46.4091H213.883C213.519 46.4091 213.17 46.26 212.913 45.9947C212.656 45.7293 212.511 45.3695 212.511 44.9942V40.946C212.511 40.7413 212.433 40.545 212.293 40.3999C212.153 40.2548 211.963 40.1729 211.764 40.1719H211.477C211.278 40.1719 211.087 40.2534 210.946 40.3986C210.806 40.5438 210.727 40.7407 210.727 40.946V44.9942C210.727 45.8577 211.059 46.6858 211.651 47.2963C212.243 47.9069 213.046 48.2499 213.883 48.2499H220.622C221.495 48.2499 222.917 47.8795 222.917 47.3276C222.917 46.6832 220.996 46.4091 220.504 46.4091Z" fill="#006FB0"/>
<path d="M216.123 42.9973H211.129V41.1454H216.123C217.66 41.1454 218.723 40.6083 219.965 39.7416C220.309 39.5042 220.716 39.3818 221.13 39.3911C221.543 39.4004 221.944 39.5409 222.278 39.7935C222.32 39.8247 222.355 39.8658 222.378 39.9135C222.402 39.9612 222.414 40.014 222.414 40.0676C222.414 40.1212 222.402 40.174 222.378 40.2217C222.355 40.2693 222.32 40.3105 222.278 40.3417C220.49 41.6713 218.511 42.9973 216.123 42.9973Z" fill="#006FB0"/>
<path d="M217.95 33.1875H207.541C201.564 33.1875 196.719 38.1855 196.719 44.3508V55.4881C196.719 61.6534 201.564 66.6514 207.541 66.6514H217.95C223.927 66.6514 228.772 61.6534 228.772 55.4881V44.3508C228.772 38.1855 223.927 33.1875 217.95 33.1875Z" stroke="#006FB0" stroke-width="3.91" stroke-miterlimit="10"/>
<path d="M219.024 49.5156H214.715C213.655 49.5176 212.638 49.9529 211.889 50.7263C211.139 51.4996 210.717 52.548 210.715 53.6417V58.8714C210.717 59.9651 211.139 61.0135 211.889 61.7868C212.638 62.5602 213.655 62.9955 214.715 62.9975H219.024C220.084 62.9955 221.1 62.5602 221.85 61.7868C222.6 61.0135 223.022 59.9651 223.024 58.8714V53.6417C223.022 52.548 222.6 51.4996 221.85 50.7263C221.1 49.9529 220.084 49.5176 219.024 49.5156ZM221.178 58.8863C221.178 59.4756 220.951 60.0409 220.547 60.4577C220.143 60.8744 219.595 61.1085 219.024 61.1085H214.715C214.143 61.1085 213.595 60.8744 213.191 60.4577C212.787 60.0409 212.56 59.4756 212.56 58.8863V53.6417C212.56 53.0523 212.787 52.487 213.191 52.0703C213.595 51.6535 214.143 51.4194 214.715 51.4194H219.024C219.595 51.4194 220.143 51.6535 220.547 52.0703C220.951 52.487 221.178 53.0523 221.178 53.6417V58.8863Z" fill="#006FB0"/>
<path d="M216.95 55.6257H216.544C214.709 55.6257 213.672 54.9405 213.359 55.4813C213.122 55.8813 213.891 56.6813 215.029 57.0258C215.666 57.1844 216.317 57.2774 216.972 57.3036" fill="#006FB0"/>
<path d="M216.951 55.6257H217.353C219.191 55.6257 220.226 54.9405 220.538 55.4813C220.779 55.8813 220.01 56.6813 218.868 57.0258C218.231 57.1844 217.581 57.2774 216.926 57.3036" fill="#006FB0"/>
<path d="M85.0041 55.9087C80.1137 56.0236 78.8713 57.8236 78.6487 59.9644C78.2214 61.9348 77.0221 62.483 76.4943 62.6867C76.1568 62.8126 76.0813 62.483 76.1819 62.1274C76.3147 61.6496 76.7456 60.9718 76.9216 59.6829C77.4099 56.0939 78.8497 54.1939 85.0113 53.9531L85.0041 55.9087Z" fill="#006FB0"/>
<path d="M87.0108 55.9087C91.8976 56.0236 93.1436 57.8236 93.3626 59.9644C93.7899 61.9348 94.9928 62.483 95.517 62.6867C95.8509 62.8126 95.9264 62.483 95.8294 62.1274C95.693 61.6496 95.2657 60.9718 95.0897 59.6829C94.5978 56.0939 93.1616 54.1939 87 53.9531L87.0108 55.9087Z" fill="#006FB0"/>
<path d="M86.9688 52.599C90.6025 52.599 93.4319 52.7508 95.4858 52.1805C97.7263 51.5619 97.8987 49.9137 96.861 50.1285C95.8233 50.3434 95.4247 50.7397 86.9688 50.7545V52.599Z" fill="#006FB0"/>
<path d="M165.032 50.4519H164.673C163.1 50.4519 162.22 49.8482 161.944 50.3223C161.739 50.6704 162.396 51.3742 163.38 51.6742C163.924 51.8156 164.481 51.8975 165.042 51.9186" fill="#006FB0"/>
<path d="M165.03 50.4519H165.389C166.962 50.4519 167.841 49.8482 168.118 50.3223C168.323 50.6704 167.666 51.3742 166.682 51.6742C166.136 51.8155 165.578 51.8974 165.016 51.9186" fill="#006FB0"/>
<path d="M165.032 55.0128H164.673C163.1 55.0128 162.22 54.4128 161.944 54.8832C161.739 55.235 162.396 55.9387 163.38 56.2388C163.925 56.3783 164.482 56.4602 165.042 56.4832" fill="#006FB0"/>
<path d="M165.03 55.0128H165.389C166.962 55.0128 167.841 54.4128 168.118 54.8832C168.323 55.235 167.666 55.9387 166.682 56.2388C166.136 56.3782 165.578 56.4601 165.016 56.4832" fill="#006FB0"/>
<path d="M212.51 43.1837H210.715V39.3688C210.715 38.4095 211.095 36.9688 211.609 36.9688C212.187 36.9688 212.499 38.4503 212.499 39.3429L212.51 43.1837Z" fill="#006FB0"/>
</svg>
