<svg width="64" height="64" viewBox="0 0 64 64" fill="none" xmlns="http://www.w3.org/2000/svg">
<path d="M54.1116 24C55.707 24 57 25.3635 57 27.0455V45.5415C57 46.1355 56.8353 46.7164 56.5262 47.2129C56.217 47.7094 55.777 48.0997 55.2601 48.3359L39.037 55.7489C38.6744 55.9145 38.2835 56 37.8884 56C36.2932 56 35 54.6365 35 52.9545V34.0825C35 33.4789 35.1702 32.889 35.4888 32.3876C35.8074 31.8862 36.2601 31.4959 36.7895 31.2662L53.0127 24.229C53.3613 24.0778 53.7346 24 54.1116 24ZM54.1116 25.6612C53.9403 25.6612 53.7706 25.6965 53.6122 25.7653L37.389 32.8023C37.1483 32.9066 36.9425 33.0841 36.7977 33.312C36.6528 33.5399 36.5755 33.8081 36.5755 34.0825V52.9545C36.5755 53.184 36.6297 53.41 36.7331 53.6119C36.8365 53.8139 36.986 53.9856 37.168 54.1116C37.3499 54.2375 37.5588 54.3138 37.7757 54.3335C37.9926 54.3532 38.2107 54.3157 38.4104 54.2245L54.6339 46.8118C54.8688 46.7044 55.0688 46.5269 55.2092 46.3012C55.3497 46.0756 55.4245 45.8115 55.4245 45.5415V27.0455C55.4245 26.6783 55.2862 26.3262 55.04 26.0666C54.7937 25.807 54.4598 25.6612 54.1116 25.6612Z" fill="white" stroke="white"/>
<path d="M15.7745 15.3811L32.3843 8L50 15.6787L32.2271 23.3568L15.7745 15.3811ZM32.3905 9.77564L19.6324 15.4455L32.2654 21.5695L45.9172 15.6719L32.3905 9.77564ZM9.94519 24.6193C8.31864 24.6193 7 25.9565 7 27.6058V45.7439C7 46.3264 7.16794 46.8961 7.48315 47.383C7.79835 47.8698 8.24707 48.2526 8.77407 48.4842L25.3164 55.7537C25.686 55.9162 26.0844 56 26.4872 56C28.114 56 29.4324 54.6628 29.4324 53.0135V34.5067C29.4324 33.9148 29.259 33.3363 28.9341 32.8446C28.6093 32.3529 28.1477 31.9701 27.608 31.7449L11.0657 24.8438C10.7102 24.6956 10.3296 24.6193 9.94519 24.6193ZM9.94519 26.2483C10.1199 26.2483 10.2929 26.283 10.4544 26.3504L26.9968 33.2512C27.2421 33.3536 27.4519 33.5276 27.5995 33.7511C27.7472 33.9747 27.826 34.2376 27.826 34.5067V53.0135C27.8259 53.2385 27.7707 53.4601 27.6652 53.6582C27.5598 53.8562 27.4074 54.0246 27.2219 54.1481C27.0363 54.2716 26.8233 54.3464 26.6022 54.3657C26.381 54.3851 26.1586 54.3483 25.955 54.2588L9.41291 46.9896C9.17334 46.8843 8.96936 46.7103 8.82608 46.489C8.68279 46.2677 8.60645 46.0087 8.60646 45.7439V27.6058C8.60646 27.2458 8.74751 26.9005 8.99857 26.6459C9.24963 26.3913 9.59014 26.2483 9.94519 26.2483Z" fill="white" stroke="white"/>
<path d="M33.4191 8.24576L51.2831 16.489C51.9461 16.7949 52.4759 17.3626 52.764 18.0759C53.3877 19.6212 52.7326 21.4195 51.3006 22.0928L32.8949 30.7459C32.5353 30.915 32.147 31.0015 31.7548 31C31.3626 30.9985 30.9749 30.9089 30.6164 30.737L12.68 22.1325C12.0188 21.8153 11.4955 21.2368 11.2176 20.5159C10.6178 18.9595 11.3006 17.1735 12.7427 16.5265L31.2212 8.23411C31.5697 8.07762 31.9438 7.99804 32.3214 8.00004C32.6989 8.00204 33.0722 8.08559 33.4194 8.24576H33.4191ZM31.8135 9.77079L13.3351 18.0632C13.103 18.1673 12.9044 18.3426 12.7636 18.5672C12.6229 18.7919 12.5463 19.0562 12.5433 19.3274C12.5403 19.5985 12.611 19.8647 12.7467 20.0929C12.8824 20.3212 13.0771 20.5015 13.3068 20.6116L31.2427 29.2158C31.4057 29.294 31.5819 29.3347 31.7601 29.3354C31.9384 29.3362 32.1149 29.2968 32.2784 29.22L50.6843 20.567C50.9145 20.4588 51.1103 20.2803 51.2475 20.0535C51.3848 19.8266 51.4575 19.5614 51.4566 19.2905C51.4558 19.0196 51.3814 18.7548 51.2428 18.529C51.1041 18.3032 50.9072 18.1261 50.6763 18.0196L32.8124 9.77634C32.6546 9.70351 32.4849 9.6655 32.3133 9.66454C32.1417 9.66359 31.9717 9.69972 31.8133 9.77079H31.8135Z" fill="white" stroke="white"/>
</svg>
