<svg width="44" height="44" viewBox="0 0 44 44" fill="none" xmlns="http://www.w3.org/2000/svg">
<path d="M36.5355 13.1794C36.9445 12.876 37.5252 12.9764 37.7978 13.3496C38.1045 13.7557 38.0024 14.332 37.5933 14.6026L23.1272 25.0328C22.7864 25.2697 22.3773 25.2359 22.0693 25.0328L7.57024 14.6027C7.16114 14.332 7.09298 13.7558 7.36574 13.3497C7.67368 12.9765 8.21901 12.876 8.62801 13.1795L22.5819 23.2035L36.5355 13.1794ZM7.12715 6.94922H38.0364C39.0601 6.94922 39.9815 7.3553 40.6294 8.03194C41.2782 8.67594 41.6871 9.59068 41.6871 10.573V33.432C41.6871 34.4131 41.2781 35.3278 40.6294 36.0056C39.9476 36.6486 39.0601 37.0545 38.0364 37.0545H7.12715C6.13736 37.0545 5.21711 36.6485 4.56842 36.0056C3.88666 35.3278 3.47656 34.447 3.47656 33.432V10.5729C3.47656 9.59059 3.88666 8.67585 4.56842 8.03185C5.21711 7.35521 6.13745 6.94922 7.12715 6.94922ZM38.0364 8.7436H7.12715C6.61581 8.7436 6.17153 8.9466 5.8307 9.28492C5.48986 9.62324 5.28527 10.0643 5.28527 10.5729V33.4319C5.28527 33.9394 5.48986 34.413 5.8307 34.7187C6.17153 35.0571 6.61581 35.26 7.12715 35.26H38.0364C38.5488 35.26 39.0261 35.0572 39.367 34.7187C39.6737 34.4131 39.8794 33.9394 39.8794 33.4319V10.5729C39.8794 10.0643 39.6737 9.62324 39.367 9.28492C39.0261 8.9466 38.5488 8.7436 38.0364 8.7436ZM22.0693 25.0328C21.9683 24.9652 21.9001 24.8975 21.8648 24.8298Z" fill="#5039BF"/>
</svg>
