<svg width="44" height="44" viewBox="0 0 44 44" fill="none" xmlns="http://www.w3.org/2000/svg">
<path d="M30.3888 26.0905C29.953 25.6557 29.3626 25.4116 28.747 25.4116C28.1314 25.4116 27.541 25.6557 27.1052 26.0905L25.4634 27.7323C24.5346 28.661 21.5273 27.7366 18.8963 25.1054C16.2654 22.4742 15.3393 19.4683 16.2695 18.5384L16.2715 18.5364L17.9113 16.8966C18.346 16.4608 18.5902 15.8704 18.5902 15.2548C18.5902 14.6392 18.346 14.0488 17.9113 13.613L10.6872 6.38917C10.2514 5.95444 9.66103 5.7103 9.0455 5.7103C8.42997 5.7103 7.83957 5.95444 7.40381 6.38917L5.76198 8.03099C4.54882 9.24415 3.8099 10.8398 3.56523 12.7739C3.33827 14.5678 3.54753 16.5797 4.18691 18.7526C5.46943 23.1177 8.36186 27.7067 12.329 31.6727C16.2962 35.6387 20.8844 38.5323 25.248 39.8148C26.8556 40.2876 28.3744 40.5253 29.782 40.5253C30.2653 40.5261 30.7483 40.4964 31.2279 40.4365C33.162 40.1918 34.7577 39.4529 35.9708 38.2397L37.6127 36.5979C38.0474 36.1621 38.2915 35.5717 38.2915 34.9562C38.2915 34.3407 38.0474 33.7503 37.6127 33.3145L30.3888 26.0905ZM36.2991 35.2846L34.6575 36.9264C32.8039 38.7798 29.6485 39.1728 25.7722 38.0328C21.7014 36.8356 17.3938 34.1104 13.6426 30.3591C9.89137 26.6079 7.16612 22.3004 5.96892 18.2296C4.82889 14.3536 5.22187 11.198 7.07527 9.34427L8.7171 7.70274C8.76022 7.65961 8.81142 7.6254 8.86777 7.60205C8.92411 7.57871 8.98451 7.56669 9.0455 7.56669C9.10649 7.56669 9.16688 7.57871 9.22323 7.60205C9.27957 7.6254 9.33077 7.65961 9.37389 7.70274L16.5977 14.9265C16.6408 14.9697 16.6751 15.0208 16.6984 15.0772C16.7217 15.1335 16.7338 15.1939 16.7338 15.2549C16.7338 15.3159 16.7217 15.3763 16.6984 15.4327C16.6751 15.489 16.6408 15.5402 16.5977 15.5833L14.9559 17.2249C13.9926 18.1872 13.799 19.7321 14.4129 21.5716C14.9539 23.1943 16.0797 24.9156 17.5828 26.4184C19.0859 27.9212 20.8075 29.0473 22.4296 29.5883C23.1354 29.8237 23.7974 29.9401 24.4 29.9401C25.3679 29.9401 26.1826 29.6391 26.7764 29.0453L28.4179 27.4035C28.461 27.3603 28.5122 27.3261 28.5686 27.3028C28.6249 27.2794 28.6853 27.2674 28.7463 27.2674C28.8073 27.2674 28.8677 27.2794 28.924 27.3028C28.9804 27.3261 29.0316 27.3603 29.0747 27.4035L36.2985 34.6272C36.3418 34.6703 36.3761 34.7215 36.3995 34.7779C36.423 34.8343 36.4351 34.8948 36.4351 34.9558C36.4352 35.0169 36.4232 35.0773 36.3999 35.1338C36.3765 35.1902 36.3423 35.2414 36.2991 35.2846ZM24.7407 9.97378C24.7407 9.85182 24.7647 9.73105 24.8114 9.61837C24.8581 9.50569 24.9265 9.40331 25.0127 9.31707C25.099 9.23083 25.2013 9.16242 25.314 9.11574C25.4267 9.06907 25.5475 9.04505 25.6694 9.04505C26.8891 9.04505 28.0967 9.28527 29.2235 9.752C30.3503 10.2187 31.3742 10.9028 32.2366 11.7652C33.099 12.6276 33.7831 13.6515 34.2498 14.7783C34.7166 15.9051 34.9568 17.1127 34.9568 18.3324C34.9568 18.5787 34.8589 18.8149 34.6848 18.9891C34.5106 19.1632 34.2744 19.2611 34.028 19.2611C33.7817 19.2611 33.5455 19.1632 33.3713 18.9891C33.1972 18.8149 33.0993 18.5787 33.0993 18.3324C33.0993 14.2355 29.7663 10.9025 25.6694 10.9025C25.4231 10.9025 25.1869 10.8047 25.0127 10.6305C24.8385 10.4563 24.7407 10.2201 24.7407 9.97378ZM24.7407 15.5462C24.7407 15.4242 24.7647 15.3034 24.8114 15.1908C24.8581 15.0781 24.9265 14.9757 25.0127 14.8895C25.099 14.8032 25.2013 14.7348 25.314 14.6881C25.4267 14.6415 25.5475 14.6174 25.6694 14.6174C26.6544 14.6185 27.5986 15.0103 28.2951 15.7067C28.9915 16.4032 29.3833 17.3474 29.3844 18.3324C29.3844 18.5787 29.2865 18.8149 29.1123 18.9891C28.9382 19.1632 28.7019 19.2611 28.4556 19.2611C28.2093 19.2611 27.9731 19.1632 27.7989 18.9891C27.6247 18.8149 27.5269 18.5787 27.5269 18.3324C27.5264 17.8399 27.3305 17.3678 26.9823 17.0195C26.634 16.6713 26.1619 16.4754 25.6694 16.4749C25.4231 16.4749 25.1869 16.3771 25.0127 16.2029C24.8385 16.0287 24.7407 15.7925 24.7407 15.5462ZM40.5292 18.3324C40.5292 18.5787 40.4313 18.8149 40.2572 18.9891C40.083 19.1632 39.8468 19.2611 39.6005 19.2611C39.3541 19.2611 39.1179 19.1632 38.9437 18.9891C38.7696 18.8149 38.6717 18.5787 38.6717 18.3324C38.6717 11.1637 32.8381 5.33012 25.6694 5.33012C25.4231 5.33012 25.1869 5.23228 25.0127 5.0581C24.8385 4.88393 24.7407 4.64771 24.7407 4.40139C24.7407 4.15508 24.8385 3.91885 25.0127 3.74468C25.1869 3.57051 25.4231 3.47266 25.6694 3.47266C27.6213 3.47117 29.5542 3.85451 31.3578 4.60076C33.1613 5.347 34.8 6.4415 36.1802 7.82165C37.5603 9.20179 38.6548 10.8405 39.4011 12.644C40.1473 14.4476 40.5307 16.3805 40.5292 18.3324Z" fill="#5039BF"/>
</svg>
