<svg width="64" height="64" viewBox="0 0 64 64" fill="none" xmlns="http://www.w3.org/2000/svg">
<path d="M55.4583 43.2308L53.1041 42.369C53.4947 41.3466 53.8104 40.3296 53.9655 39.227L56.475 39.7783C56.2449 40.9559 55.9292 42.1335 55.4583 43.2308ZM56.9512 36.01L54.3615 35.8547V34.5968C54.3615 33.8903 54.3615 33.1837 54.2812 32.4771L56.7907 32.2416C56.8709 33.0285 56.8709 33.81 56.8709 34.5968C57.0261 35.0679 57.0261 35.5389 56.9512 36.01ZM53.8104 29.1799C53.5749 28.0825 53.1843 26.9799 52.7135 25.9629L55.0678 24.9405C55.5386 26.1181 55.9292 27.2957 56.2449 28.5482L53.8104 29.1799ZM51.1458 22.9814C50.5566 22.021 49.9004 21.1034 49.1821 20.2354L51.1458 18.5868C51.9323 19.5289 52.6386 20.5512 53.3449 21.5682V21.6485L51.1458 22.9814ZM46.8278 17.7999C45.9664 17.0934 45.0996 16.3868 44.1579 15.7605L45.4902 13.6408C46.5121 14.3474 47.5287 15.054 48.4704 15.9157L46.8278 17.7999ZM41.1776 14.1922C40.1556 13.7211 39.0587 13.3304 37.9618 13.0949L38.5879 10.6594C39.765 10.9752 41.0224 11.4462 42.1193 11.9172L41.1776 14.1922ZM52.7135 46.132C52.7135 46.132 52.6332 46.2123 52.5583 46.3675C52.4781 46.5227 52.3229 46.7583 52.1677 47.0741C51.7771 47.7004 51.3063 48.5675 50.4395 49.5845C50.3592 49.6648 50.3592 49.7398 50.2843 49.82C50.204 49.9003 50.204 49.9753 50.1291 50.0556C50.0489 50.2108 49.8937 50.2911 49.8135 50.4463C49.578 50.6818 49.3426 50.9976 49.0269 51.3081C48.4758 51.8594 47.8498 52.4857 47.1435 53.112C46.4372 53.7383 45.6507 54.2896 44.7892 54.9159C44.709 54.9159 44.709 54.9961 44.6341 54.9961H44.5538C44.4735 55.0764 44.3184 55.1514 44.2381 55.2317C44.1579 55.312 44.0027 55.3869 43.9224 55.4672C43.8422 55.5475 43.687 55.6224 43.6067 55.7027C43.4516 55.783 43.3713 55.8579 43.2161 55.9382C43.061 56.0185 42.9807 56.0935 42.8256 56.1738C42.5901 56.329 42.3547 56.4093 42.039 56.5645C40.0004 57.5869 37.5659 58.3684 34.9762 58.7645C33.6439 58.9197 32.3062 59 30.899 59C29.4918 59 28.0739 58.8448 26.6613 58.529C23.8362 57.9776 20.9362 56.8803 18.3465 55.1567C17.0142 54.2949 15.837 53.3529 14.6599 52.3305C13.563 51.2332 12.4608 50.0556 11.5994 48.7977L11.2837 48.3266L10.968 47.8556L10.6523 47.3845V47.224L10.572 47.0687L10.4169 46.8332C10.0263 46.1266 9.63034 45.4201 9.32 44.7135C8.69398 43.3004 8.14286 41.807 7.75227 40.2386C6.99016 37.2428 6.80494 34.1292 7.20651 31.064C7.28677 30.2772 7.44193 29.5706 7.5971 28.864C7.75227 28.1575 7.91279 27.4509 8.14822 26.7444C8.53881 25.3312 9.08992 23.9984 9.71595 22.8208C10.9733 20.3104 12.5411 18.1907 14.264 16.4617L14.5797 16.1459C17.0784 13.5498 20.9308 11.3177 24.0716 10.1027C24.7672 9.83503 25.4039 9.71192 25.8748 9.55133C26.1102 9.47104 26.4259 9.3961 26.6613 9.3961C26.8968 9.31581 27.1322 9.31581 27.2874 9.24087C27.4425 9.24087 27.678 9.16058 27.7582 9.16058C27.9134 9.16058 27.9936 9.08029 28.1488 9.08029C28.3842 9.08029 28.4645 9 28.4645 9L29.1708 13.7854H28.6197C28.4591 13.7854 28.3842 13.7854 28.2291 13.8656C28.0739 13.8656 27.9134 13.9459 27.678 13.9459C27.5228 13.9459 27.2874 14.0262 27.0519 14.1012C26.5811 14.1815 26.1049 14.3153 25.5591 14.4919C23.5794 15.145 19.5718 16.2101 16.6931 19.122C15.2003 20.5352 13.7129 22.2641 12.616 24.3035C12.0649 25.3259 11.5191 26.4232 11.1232 27.6008C10.8877 28.2271 10.7326 28.7784 10.572 29.4047C10.4169 30.0309 10.2564 30.6626 10.1814 31.2888C9.71059 33.8796 9.71059 36.6255 10.2617 39.3715C10.4971 40.7043 10.968 42.0425 11.4388 43.3753C11.6743 44.0016 11.99 44.7082 12.3003 45.3398L12.4555 45.5753L12.5357 45.6556V45.8162L12.7711 46.2872L13.0066 46.7583L13.3223 47.2293C14.1088 48.4069 14.9702 49.5845 15.9922 50.6015C17.0142 51.6239 18.0308 52.566 19.2079 53.3475C21.4819 54.9961 24.0716 56.1738 26.7416 56.8C28.0739 57.1158 29.4116 57.3514 30.6636 57.4263C31.9959 57.5066 33.2533 57.5066 34.5053 57.4263C37.0148 57.1908 39.3691 56.5645 41.4076 55.6974C41.6431 55.6171 41.8785 55.4618 42.1942 55.3815C42.3493 55.3013 42.4296 55.3013 42.5848 55.2263C42.7399 55.146 42.8202 55.0711 42.9754 55.0711C43.1305 54.9908 43.2108 54.9159 43.2911 54.9159C43.3713 54.8356 43.5265 54.7606 43.6067 54.7606C43.687 54.6803 43.8422 54.6054 43.9224 54.6054L44.0027 54.5251H44.0829C44.1632 54.5251 44.1632 54.4448 44.2381 54.4448C45.0996 53.8935 45.8861 53.3475 46.5924 52.7962C47.2987 52.2448 47.9247 51.6989 48.4758 51.1475C48.7915 50.912 49.0269 50.5962 49.2623 50.3607L49.6529 49.9699C49.7332 49.8896 49.7332 49.8147 49.8081 49.8147C49.8884 49.7344 49.8884 49.6595 49.9633 49.6595C50.8247 48.6371 51.3758 47.8556 51.7664 47.224C51.9216 46.9081 52.0821 46.6726 52.157 46.5174C52.7135 46.2123 52.7135 46.132 52.7135 46.132Z" fill="white"/>
<path d="M28 5L28.4677 17L34 10.7172L28 5Z" fill="white"/>
<path d="M21.7939 39.9543H27.5601C28.1152 39.9543 28.5894 40.1129 28.902 40.3535C29.2199 40.5941 29.3762 40.9167 29.3762 41.3159C29.3762 41.715 29.2199 41.9556 28.9828 42.2782C28.7457 42.5188 28.3523 42.6774 27.8781 42.6774H19.7407C19.1856 42.6774 18.7114 42.5188 18.4742 42.1962C18.1563 41.8736 18 41.5564 18 41.0753C18 40.8347 18.0808 40.4355 18.318 40.0309C18.5551 39.5497 18.7114 39.2271 18.9485 38.9865C19.8969 37.9421 20.8454 37.0618 21.6376 36.34C22.4298 35.6182 22.9795 35.137 23.3782 34.8964C24.0088 34.4973 24.483 34.0161 24.8818 33.6115C25.2806 33.2068 25.5931 32.7311 25.8302 32.2499C26.0674 31.7687 26.1482 31.3696 26.1482 30.8884C26.1482 30.4072 26.0674 30.008 25.8302 29.6034C25.5931 29.2042 25.2752 28.9637 24.8818 28.7231C24.4884 28.4825 24.0896 28.4005 23.6154 28.4005C22.6669 28.4005 21.8747 28.7996 21.325 29.6854C21.2442 29.7674 21.0879 30.0846 20.9316 30.6478C20.798 31.0454 20.6112 31.4226 20.3766 31.7687C20.1394 32.0093 19.8215 32.1679 19.4281 32.1679C19.0347 32.1679 18.7167 32.0093 18.4796 31.7687C18.2425 31.5281 18.0862 31.2055 18.0862 30.7243C18.0862 30.2432 18.1671 29.68 18.4042 29.1222C18.6413 28.559 18.9592 28.0778 19.4335 27.5967C19.9077 27.1155 20.4628 26.7929 21.1741 26.4757C21.8855 26.1531 22.6777 26.0766 23.6261 26.0766C24.7309 26.0766 25.7602 26.2351 26.5524 26.6398C27.1074 26.8803 27.5008 27.203 27.8942 27.6021C28.2876 28.0013 28.6056 28.4825 28.8427 29.0457C29.0798 29.6089 29.1607 30.1666 29.1607 30.7298C29.1607 31.6922 28.9235 32.496 28.4493 33.2943C27.9751 34.0981 27.5008 34.6558 27.0266 35.0605C26.5524 35.4596 25.7602 36.1814 24.6554 37.0672C23.5507 38.0296 22.7585 38.6693 22.3651 39.2326C22.1873 39.4731 21.9502 39.7137 21.7939 39.9543ZM38.2304 41.2338V39.1505H32.615C31.9037 39.1505 31.3486 38.992 31.036 38.6693C30.7235 38.3467 30.481 37.8656 30.481 37.3844C30.481 37.2258 30.481 37.0618 30.5618 36.9852C30.6426 36.8266 30.7181 36.6626 30.7989 36.504C30.8798 36.3454 31.036 36.1814 31.1169 36.0228C31.1977 35.8643 31.354 35.7002 31.5103 35.4596L37.4382 27.4436C37.8316 26.8803 38.1495 26.5632 38.3867 26.3226C38.6238 26.082 38.9417 26 39.2543 26C40.359 26 40.9141 26.6398 40.9141 27.9247V36.6626H41.3883C41.9434 36.6626 42.4177 36.7446 42.7302 36.9032C43.0482 37.0618 43.2853 37.3844 43.2853 37.9476C43.2853 38.3467 43.129 38.6693 42.8919 38.9099C42.5739 39.0685 42.1805 39.2326 41.6255 39.2326H40.9141V41.3159C40.9141 41.8791 40.7578 42.3602 40.5207 42.6008C40.2836 42.9234 39.9656 43 39.4914 43C39.098 43 38.7801 42.8414 38.4621 42.6008C38.3867 42.1962 38.2304 41.797 38.2304 41.2338ZM33.4072 36.586H38.225V30.008L33.4072 36.586ZM46.6049 26.6452V28.652L47.0792 28.1708C47.2354 28.0888 47.3971 27.9302 47.6342 27.9302C47.7905 27.8482 48.0276 27.8482 48.2647 27.8482C48.5827 27.8482 48.8953 27.9302 49.1324 28.0888C49.3695 28.2473 49.6066 28.4114 49.7629 28.7285C49.8437 28.8871 49.9192 29.0511 49.9192 29.2917C49.9192 29.4503 50 29.6909 50 30.0135V32.578C50 32.8186 49.9192 33.0592 49.8437 33.2178C49.6874 33.3763 49.5258 33.4583 49.3695 33.4583C48.8953 33.4583 48.739 33.2178 48.739 32.6545V30.4072C48.739 30.008 48.6581 29.6034 48.5827 29.4448C48.4264 29.2042 48.1893 29.1222 47.8713 29.1222C47.6342 29.1222 47.3971 29.2042 47.2408 29.3628C47.0845 29.5214 46.9229 29.6854 46.8474 29.926C46.7666 30.1666 46.7666 30.4892 46.7666 30.9704V32.7366C46.7666 32.9772 46.6858 33.2178 46.6103 33.3763C46.5295 33.5349 46.2924 33.6169 46.1361 33.6169C45.6618 33.6169 45.5056 33.3763 45.5056 32.8131V26.9624C45.5056 26.7218 45.5864 26.4812 45.6618 26.3226C45.7427 26.164 45.899 26.082 46.1361 26.082C46.3732 26.082 46.5295 26.164 46.6103 26.3226C46.5241 26.164 46.6049 26.3226 46.6049 26.6452Z" fill="white"/>
</svg>
