<svg width="40" height="40" viewBox="0 0 40 40" fill="none" xmlns="http://www.w3.org/2000/svg">
<path d="M12.125 16.625H18.875C19.4962 16.625 20 16.1212 20 15.5C20 14.8788 19.4962 14.375 18.875 14.375H12.125C11.5038 14.375 11 14.8788 11 15.5C11 16.1212 11.5038 16.625 12.125 16.625ZM12.125 22.25H24.5C25.1219 22.25 25.625 21.7469 25.625 21.125C25.625 20.5031 25.1219 20 24.5 20H12.125C11.5038 20 11 20.5031 11 21.125C11 21.7469 11.5038 22.25 12.125 22.25ZM18.875 25.625H12.125C11.5038 25.625 11 26.1281 11 26.75C11 27.3719 11.5038 27.875 12.125 27.875H18.875C19.4962 27.875 20 27.3719 20 26.75C20 26.1281 19.4962 25.625 18.875 25.625ZM35.0462 24.6814L31.0686 20.7038C30.8489 20.4841 30.5609 20.3744 30.273 20.3744C29.9851 20.3744 29.6971 20.4841 29.4774 20.7038L21.4544 28.7272C21.2435 28.9381 21.125 29.2243 21.125 29.5228V33.5C21.125 34.1212 21.6288 34.625 22.25 34.625H26.2276C26.5261 34.625 26.8122 34.5065 27.0232 34.2956L35.0462 26.2726C35.4853 25.8331 35.4853 25.1209 35.0462 24.6814ZM25.7614 32.375H23.375V29.9886L30.273 23.0902L32.6594 25.4766L25.7614 32.375Z" fill="#333333"/>
<path d="M17.75 32.375H8.75V7.625H22.2451L22.2489 12.1282C22.2511 13.3667 23.2607 14.375 24.4989 14.375H29V17.1875C29 17.8087 29.5038 18.3125 30.125 18.3125C30.7462 18.3125 31.25 17.8087 31.25 17.1875V11.6634C31.25 11.3618 31.1287 11.0728 30.9139 10.8611L25.6633 5.69773C25.4529 5.49094 25.1698 5.37504 24.8748 5.375H7.625C7.00379 5.375 6.5 5.87879 6.5 6.5V33.5C6.5 34.1212 7.00379 34.625 7.625 34.625H17.75C18.3712 34.625 18.875 34.1212 18.875 33.5C18.875 32.8788 18.3712 32.375 17.75 32.375ZM28.9902 12.125H24.4989L24.4954 7.7048L28.9902 12.125Z" fill="#333333"/>
</svg>
