<svg width="40" height="40" viewBox="0 0 40 40" fill="none" xmlns="http://www.w3.org/2000/svg">
<path d="M29.3405 26.0799C31.6005 24.5399 33.0805 21.9199 33.0805 18.9799C33.0805 14.2399 29.2205 10.3799 24.4805 10.3799C19.7405 10.3799 15.8805 14.2399 15.8805 18.9799C15.8805 21.9199 17.3605 24.5399 19.6205 26.0799C14.7405 27.9599 11.2405 32.5799 10.9805 38.0599H13.3805C13.7005 32.2399 18.5205 27.6199 24.4005 27.5799H24.5205C30.4005 27.6199 35.2205 32.2399 35.5405 38.0599H37.9405C37.7205 32.5799 34.2205 27.9599 29.3405 26.0799ZM24.5405 25.1799H24.4205C21.0405 25.1399 18.2805 22.3799 18.2805 18.9799C18.2805 15.5599 21.0605 12.7799 24.4805 12.7799C27.9005 12.7799 30.6805 15.5599 30.6805 18.9799C30.6805 22.3799 27.9405 25.1399 24.5405 25.1799Z" fill="white"/>
<path d="M13.8409 18.1201C13.8409 17.6401 13.8809 17.1601 13.9409 16.7001C11.2609 16.0401 9.26094 13.6001 9.26094 10.6801C9.26094 7.26008 12.0409 4.48008 15.4609 4.48008C17.9409 4.48008 20.0809 5.94008 21.0809 8.04008C21.8209 7.72008 22.6009 7.48008 23.4009 7.36008C22.1009 4.26008 19.0409 2.08008 15.4609 2.08008C10.7209 2.08008 6.86094 5.94008 6.86094 10.6801C6.86094 13.6201 8.34094 16.2401 10.6009 17.7801C5.72094 19.6601 2.22094 24.2801 1.96094 29.7601H4.36094C4.66094 24.4401 8.72094 20.1001 13.9209 19.4001C13.8809 18.9801 13.8409 18.5601 13.8409 18.1201Z" fill="white"/>
</svg>
