<svg width="24" height="24" viewBox="0 0 24 24" fill="none" xmlns="http://www.w3.org/2000/svg">
<path d="M12.4553 2.19695C12.3346 2.07081 12.1708 2 12 2C11.8292 2 11.6655 2.07081 11.5447 2.19695L6.85263 7.09452C6.60121 7.35697 6.60121 7.78251 6.85263 8.04496C7.10421 8.30747 7.51179 8.30747 7.76322 8.04496L12 3.62261L16.2365 8.04496C16.3623 8.17626 16.5272 8.24191 16.6919 8.24191C16.8566 8.24191 17.0215 8.17626 17.1473 8.04496C17.3987 7.78251 17.3987 7.35697 17.1473 7.09452L12.4553 2.19695ZM0 14.6602H2.75421V21.9999H4.04195V14.6602H6.79616V13.3162H0V14.6602ZM13.8985 13.3162H10.4871C10.0753 13.3162 9.66328 13.4802 9.34905 13.8082C9.03468 14.1363 8.87758 14.5662 8.87758 14.9964V20.3196C8.87758 20.7498 9.03465 21.1798 9.34905 21.5079C9.66328 21.836 10.0753 22 10.4871 22H13.8985C14.3104 22 14.7224 21.836 15.0368 21.5079C15.3511 21.1798 15.5081 20.7498 15.5081 20.3196V14.9965C15.5081 14.5662 15.3511 14.1364 15.0368 13.8081C14.7224 13.4802 14.3104 13.3162 13.8985 13.3162ZM14.2205 20.3196C14.2205 20.3832 14.2038 20.4761 14.1262 20.5574C14.0483 20.6387 13.9592 20.6558 13.8985 20.6558H10.4871C10.4263 20.6558 10.3375 20.6387 10.2596 20.5574C10.1817 20.4761 10.1653 20.3832 10.1653 20.3196V14.9965C10.1653 14.9329 10.1817 14.84 10.2596 14.7587C10.3375 14.6774 10.4263 14.6602 10.4871 14.6602H13.8985C13.9592 14.6602 14.0483 14.6774 14.1259 14.7587C14.2038 14.84 14.2205 14.9329 14.2205 14.9965V20.3196ZM23.5285 13.8081C23.2142 13.4804 22.8021 13.3162 22.3902 13.3162H17.9754V21.9999H19.2629V18.1912H22.3902C22.8023 18.1912 23.2142 18.0272 23.5285 17.6991C23.8428 17.371 24 16.941 24 16.511V14.9963C24 14.5662 23.8428 14.1364 23.5285 13.8081ZM22.7123 16.5111C22.7123 16.5745 22.6959 16.6674 22.618 16.7487C22.5401 16.83 22.451 16.8471 22.3904 16.8471H19.2632V14.6602H22.3904C22.4511 14.6602 22.5401 14.6774 22.618 14.7587C22.6959 14.84 22.7123 14.9329 22.7123 14.9965V16.5111Z" fill="white"/>
</svg>
