<svg width="18" height="18" viewBox="0 0 18 18" fill="none" xmlns="http://www.w3.org/2000/svg">
<g clip-path="url(#clip0_1157_12916)">
<path d="M17.7679 17.7895C17.4315 18.1263 16.7025 17.9579 16.7025 17.9579L13.2258 14.477C9.74905 17.2842 4.59006 16.7227 1.78626 13.2418C-1.01754 9.76087 -0.456781 4.59562 3.01993 1.78842C6.49664 -1.01877 11.6556 -0.457335 14.4594 3.02359C16.8146 5.99922 16.8146 10.21 14.4594 13.1857L17.9361 16.6666C17.9922 16.7227 18.1044 17.5087 17.7679 17.7895ZM14.5716 8.18884C14.5716 4.65177 11.7117 1.78842 8.17892 1.78842C4.64613 1.78842 1.78626 4.65177 1.78626 8.18884C1.78626 11.7259 4.64613 14.5893 8.17892 14.5893C11.7117 14.5893 14.5716 11.7259 14.5716 8.18884Z" fill="white"/>
</g>
<defs>
<clipPath id="clip0_1157_12916">
<rect width="18" height="18" fill="white"/>
</clipPath>
</defs>
</svg>
