<svg width="20" height="20" viewBox="0 0 20 20" fill="none" xmlns="http://www.w3.org/2000/svg">
<path d="M17.1513 14.284C17.066 14.4261 16.9277 14.5286 16.7669 14.5688C16.606 14.6089 16.4358 14.5836 16.2937 14.4983C16.1516 14.413 16.0491 14.2747 16.0089 14.1139C15.9688 13.953 15.9941 13.7828 16.0794 13.6407C16.7393 12.5416 17.0869 11.2833 17.0846 10.0013C17.0846 6.08922 13.9134 2.91797 10.0013 2.91797C6.08922 2.91797 2.91797 6.08922 2.91797 10.0013C2.91797 13.9134 6.08922 17.0846 10.0013 17.0846C11.2831 17.0869 12.5412 16.7395 13.6403 16.0798C13.7106 16.0376 13.7886 16.0097 13.8698 15.9976C13.951 15.9855 14.0338 15.9895 14.1134 16.0094C14.193 16.0293 14.268 16.0647 14.3339 16.1136C14.3999 16.1625 14.4555 16.2238 14.4978 16.2942C14.54 16.3646 14.5679 16.4426 14.58 16.5238C14.5921 16.605 14.5881 16.6877 14.5682 16.7674C14.5483 16.847 14.5129 16.9219 14.464 16.9879C14.4151 17.0538 14.3538 17.1095 14.2834 17.1517C12.9901 17.9279 11.5097 18.3369 10.0013 18.3346C5.39901 18.3346 1.66797 14.6036 1.66797 10.0013C1.66797 5.39901 5.39901 1.66797 10.0013 1.66797C14.6036 1.66797 18.3346 5.39901 18.3346 10.0013C18.3346 11.5305 17.9215 13.0007 17.1513 14.284ZM6.43443 12.6844L9.3763 9.74234V6.2513C9.3763 6.08554 9.44215 5.92657 9.55936 5.80936C9.67657 5.69215 9.83554 5.6263 10.0013 5.6263C10.1671 5.6263 10.326 5.69215 10.4432 5.80936C10.5605 5.92657 10.6263 6.08554 10.6263 6.2513V10.0013C10.6263 10.167 10.5604 10.326 10.4432 10.4432L7.31818 13.5682C7.26052 13.6279 7.19156 13.6755 7.1153 13.7082C7.03905 13.741 6.95704 13.7582 6.87405 13.759C6.79107 13.7597 6.70877 13.7439 6.63196 13.7124C6.55515 13.681 6.48536 13.6346 6.42668 13.5759C6.368 13.5172 6.32159 13.4475 6.29016 13.3706C6.25874 13.2938 6.24292 13.2115 6.24365 13.1286C6.24437 13.0456 6.26161 12.9636 6.29436 12.8873C6.32712 12.811 6.37473 12.7421 6.43443 12.6844Z" fill="#666666"/>
</svg>
