<svg width="274" height="127" viewBox="0 0 274 127" fill="none" xmlns="http://www.w3.org/2000/svg">
<path d="M49.7321 122.913C48.931 122.586 48.1506 122.218 47.3944 121.812C46.6521 121.399 45.9391 120.96 45.2261 120.521C44.9515 120.351 44.6885 120.177 44.4255 119.992L44.2151 119.812C43.6684 119.318 43.1643 118.787 42.7073 118.224C42.321 117.749 41.9658 117.254 41.6436 116.742C42.2888 115.476 42.5297 114.071 42.3391 112.688C42.1053 109.565 40.2001 105.394 36.6818 100.287L36.6117 100.186L36.5533 100.292C35.5171 102.166 34.9674 104.23 34.9461 106.326C34.9527 108.586 35.6397 110.802 36.9331 112.735C37.9996 114.368 39.4502 115.769 41.1819 116.837C41.4564 117.373 41.7748 117.89 42.1345 118.383C42.1813 118.451 42.2339 118.515 42.2865 118.578C40.5332 117.382 38.8325 116.133 37.2312 114.831C35.1081 113.108 33.0945 111.277 31.1999 109.348L30.9018 108.93C30.5206 108.36 30.1903 107.764 29.9142 107.146C29.6881 106.627 29.493 106.097 29.3297 105.558C30.2707 104.476 30.876 103.186 31.083 101.822C31.7142 98.7412 30.9895 94.4118 28.9207 88.8915L28.8797 88.7803L28.7979 88.8756C26.5784 91.2085 25.3369 94.1748 25.2914 97.254C25.3003 100.326 26.564 103.285 28.8388 105.564C28.9513 106.124 29.1095 106.676 29.3122 107.215C29.359 107.331 29.4232 107.448 29.4758 107.564C27.6925 105.628 26.0302 103.603 24.4965 101.499C23.4037 100.001 22.3926 98.466 21.4458 96.9047C21.3932 96.7935 21.3348 96.6824 21.288 96.5659L21.1127 96.1002C20.8926 95.4817 20.7285 94.848 20.6218 94.2054C20.528 93.6586 20.4713 93.1071 20.4523 92.554C21.6398 91.7001 22.5571 90.5772 23.1115 89.299C24.5199 86.4198 24.8647 82.085 24.2102 76.4218V76.3054L24.1108 76.3742C19.2367 79.8674 18.325 83.9639 18.325 86.5362C18.325 86.8467 18.3367 87.1325 18.3601 87.3936C18.483 89.1773 19.0505 90.9127 20.0198 92.4694C19.9871 93.027 20.0007 93.5861 20.0607 94.1419C20.0607 94.3059 20.1133 94.4753 20.1426 94.6711C18.6098 91.9163 17.2783 89.0733 16.1568 86.1604C15.7671 85.1301 15.4029 84.091 15.0639 83.043C15.0639 82.9901 15.0639 82.9372 15.0639 82.8842C15.0639 82.7254 14.9938 82.5614 14.9704 82.4026C14.947 82.2438 14.9295 82.0797 14.912 81.921C14.8536 81.2799 14.8536 80.6355 14.912 79.9944C14.9558 79.4472 15.0358 78.9028 15.1516 78.3642C16.5141 77.7675 17.6777 76.8544 18.5237 75.7178C20.5984 73.1879 21.9777 69.0543 22.6147 63.4281V63.3117L22.4978 63.3593C16.2678 66.1063 14.684 70.5522 14.3158 72.9551C14.216 73.5524 14.1652 74.1557 14.1639 74.7599C14.1655 75.9251 14.3626 77.0833 14.7483 78.1949C14.5791 78.7252 14.456 79.2667 14.3801 79.8145C14.3509 80.0209 14.3451 80.2378 14.3275 80.4496C13.2939 76.8826 12.5709 73.2477 12.1651 69.5783C12.1184 69.1125 12.0833 68.6468 12.0424 68.181C12.0424 68.181 12.0424 68.1387 12.0424 68.1122C12.0482 68.0329 12.0482 67.9534 12.0424 67.874C12.0424 67.71 12.0424 67.5459 12.0424 67.3871L12.095 66.9055C12.1843 66.2698 12.3289 65.6416 12.5275 65.0266C12.6978 64.5042 12.9027 63.9917 13.1411 63.4916C14.6067 63.1699 15.9543 62.5077 17.0509 61.5704C19.6633 59.5062 21.966 55.7484 23.9004 50.3551L23.9413 50.2439H23.8186C13.7898 52.6415 12.8022 60.0514 12.7379 62.2373C12.7379 62.2373 12.7379 62.3325 12.7379 62.4649C12.7339 62.7516 12.7534 63.0382 12.7963 63.3223C12.5251 63.7883 12.2908 64.2711 12.095 64.7672C12.0073 64.9842 11.9431 65.2171 11.8729 65.4447C11.7109 61.3078 11.9417 57.166 12.5625 53.065L12.6093 52.9538C12.6093 52.8744 12.6619 52.8003 12.6853 52.7209C12.7086 52.6416 12.7671 52.4034 12.8197 52.2499C12.8723 52.0964 12.9307 51.9429 12.9833 51.7894C13.2158 51.185 13.5032 50.599 13.8424 50.0375C14.1281 49.5562 14.4462 49.0914 14.7951 48.6455C16.3017 48.6244 17.7746 48.2388 19.0614 47.5288C22.0828 46.0151 25.2329 42.7653 28.4122 37.8325L28.4765 37.7319H28.3479C21.4108 37.8801 17.9393 41.3468 16.484 43.4004C15.4103 44.8833 14.7246 46.5686 14.4795 48.328C14.0881 48.7488 13.7307 49.1945 13.41 49.6617C13.2756 49.8629 13.1528 50.0799 13.0359 50.2916C13.8341 46.2248 15.025 42.2293 16.5951 38.3512C16.6302 38.2982 16.6652 38.2506 16.6944 38.1977L16.8289 37.986C16.9107 37.8378 16.9808 37.6896 17.0685 37.5467L17.3432 37.1232C17.7132 36.5736 18.1335 36.0531 18.5997 35.5672C18.9969 35.1502 19.4203 34.7544 19.8679 34.3816C21.3526 34.6543 22.8911 34.5592 24.3212 34.1064C27.6174 33.2119 31.5213 30.6026 35.9338 26.3472L36.0273 26.2573H35.8987C29.02 25.0664 24.7537 27.8451 22.8192 29.5652C21.4022 30.819 20.319 32.3484 19.6516 34.0376C19.1635 34.3742 18.7044 34.744 18.2782 35.1438C18.0971 35.3184 17.9276 35.509 17.7581 35.673C19.5534 31.7548 21.7446 27.9951 24.3037 24.4418H24.3329L24.5141 24.2566C24.6368 24.1243 24.7478 23.992 24.8647 23.8702L25.2388 23.505C25.7475 23.0346 26.2945 22.5994 26.8752 22.203C27.3758 21.8681 27.8967 21.5589 28.4356 21.2768C29.8321 21.8334 31.3692 22.0364 32.8831 21.8643C36.3896 21.6102 40.8371 19.8213 46.506 16.3969L46.6171 16.3281L46.4943 16.2805C39.9663 13.7823 34.9987 15.693 32.6201 17.0585C30.8922 18.0245 29.423 19.3261 28.3187 20.8692C27.7499 21.1121 27.2011 21.3916 26.6764 21.7055C26.4777 21.8272 26.2849 21.9649 26.092 22.1025C26.2907 21.8484 26.4836 21.5732 26.6764 21.3403C28.6016 18.9493 30.6984 16.6756 32.9532 14.5339C33.672 13.8511 34.4201 13.1842 35.1799 12.5279C35.6708 12.4327 36.2961 12.2686 36.3078 12.2633C37.7181 11.8656 39.0777 11.3334 40.3637 10.6755C44.2034 8.78596 48.6333 5.34037 53.9107 0.137616L54.0451 0H53.8523C44.8112 1.13265 39.902 4.67879 37.3773 7.45218C36.1163 8.77823 35.2067 10.3478 34.7181 12.041C33.9389 12.7079 33.1908 13.3889 32.474 14.084C30.2167 16.2355 28.1143 18.5161 26.1797 20.9116C25.9693 21.1762 25.7647 21.4409 25.5543 21.7161C25.642 21.4885 25.7297 21.2609 25.7998 21.0334C25.981 20.4564 26.1271 19.8848 26.244 19.3185L26.2907 19.2656C30.9311 14.4386 33.1285 7.94969 32.4798 0.995037V0.852155L32.3688 0.952718C26.9278 5.95435 24.1868 10.6437 24.1868 14.9149C24.1868 15.0896 24.1868 15.2642 24.1868 15.4442C24.2384 16.8666 24.7982 18.2354 25.7823 19.345C25.6128 19.9113 25.4316 20.4776 25.1978 21.0334C24.9646 21.6682 24.6954 22.2918 24.3913 22.9017C24.3095 23.0552 24.2335 23.2086 24.1576 23.3621C24.0816 23.5156 23.9822 23.6585 23.8946 23.8067C23.8069 23.9549 23.8186 23.9602 23.7835 24.0343C23.7655 24.0687 23.7498 24.104 23.7368 24.1402C21.1773 27.7193 18.9899 31.5057 17.2029 35.4508C17.2321 35.1914 17.2613 34.9215 17.273 34.678C17.273 34.0905 17.273 33.5083 17.273 32.942V32.8944C20.5283 27.3952 20.9257 20.7687 18.3951 14.2428L18.3425 14.1104L18.2607 14.2322C14.8009 19.4455 13.7665 23.4415 13.7665 26.3578C13.7581 27.4546 13.9214 28.547 14.2515 29.6023C14.6771 30.9757 15.5811 32.1879 16.8289 33.0584C16.8289 33.6353 16.7704 34.2123 16.712 34.7892C16.6535 35.3661 16.5308 36.0912 16.4022 36.7369C16.3613 36.901 16.3204 37.0597 16.2853 37.2238C16.2503 37.3879 16.1918 37.5414 16.1451 37.7002C16.0983 37.8589 16.1042 37.8642 16.0925 37.9436L16.0574 38.1236C14.4738 42.0455 13.2712 46.085 12.4632 50.1963C12.434 49.9475 12.3989 49.7041 12.3522 49.4606C12.2436 48.897 12.1031 48.3387 11.9314 47.7881V47.7405C13.784 41.802 12.5158 35.3396 8.42482 29.5387L8.34299 29.4223L8.29624 29.5546C7.19916 32.4276 6.60751 35.4388 6.54296 38.4782C6.46358 40.798 7.04739 43.097 8.2378 45.1523C8.97811 46.3926 10.1344 47.3879 11.5398 47.9945C11.6625 48.5555 11.7619 49.1219 11.8437 49.6935C11.9345 50.3397 11.9872 50.9899 12.0015 51.6412C12.0015 51.8053 12.0015 51.9694 12.0015 52.1334C12.0015 52.2975 12.0015 52.4616 12.0015 52.6256C12.0015 52.705 12.0015 52.7897 12.0015 52.8691C12.0015 52.9485 12.0015 52.9856 12.0015 53.0385C11.3767 57.1535 11.1421 61.3093 11.3002 65.4605C11.2184 65.2312 11.1307 65.0089 11.0372 64.7937C10.7917 64.2644 10.5229 63.7351 10.2365 63.2429V63.1953C10.6749 57.0557 7.93389 51.022 2.51626 46.2003L2.41107 46.105V46.2426C2.27081 47.5393 2.20651 48.7408 2.20651 49.8576C2.20651 56.0765 4.18189 59.5221 5.99945 61.3799C7.01252 62.4428 8.37428 63.1846 9.88588 63.4969C10.1313 64.0262 10.3651 64.5555 10.5697 65.0848C10.8095 65.6994 11.0143 66.3247 11.1833 66.9584C11.2184 67.1172 11.2593 67.276 11.3002 67.4347C11.3411 67.5935 11.3586 67.7576 11.3879 67.9164C11.4171 68.0751 11.4288 68.0805 11.4521 68.1598C11.4755 68.2392 11.4814 68.2551 11.4931 68.3028C11.5281 68.7421 11.5632 69.1866 11.6099 69.6312C11.9912 73.3216 12.6809 76.9806 13.673 80.5766C13.5444 80.3861 13.4158 80.1955 13.2814 80.0103C12.9191 79.5339 12.5333 79.0788 12.1125 78.65V78.5918C11.1015 72.4893 7.0222 67.1278 0.628574 63.4916L0.5 63.4228V63.5552C1.58703 72.0817 4.91826 75.9243 7.51311 77.6444C8.7394 78.5125 10.2522 78.9822 11.8086 78.9782C12.171 79.444 12.5217 79.915 12.8489 80.4072C13.2268 80.962 13.5721 81.5344 13.8834 82.1221L14.1113 82.5719C14.1814 82.7201 14.2457 82.8789 14.3158 83.0271C14.386 83.1753 14.386 83.1806 14.4269 83.2494C14.7541 84.2709 15.1048 85.2924 15.4847 86.3033C16.6023 89.274 17.9378 92.1739 19.4822 94.9834C19.3419 94.8511 19.2075 94.7188 19.0614 94.5918C18.5974 94.1959 18.1117 93.8214 17.6061 93.4697V93.4009C15.134 87.5789 9.87419 83.1171 2.80847 80.8095L2.66822 80.7671L2.71496 80.8942C5.76567 89.045 9.94432 92.1783 12.9074 93.3744C14.3139 93.9869 15.9066 94.1546 17.4308 93.8508C17.8984 94.2371 18.3601 94.6394 18.8042 95.0575C19.3092 95.5327 19.7871 96.0308 20.2361 96.5501L20.5692 96.947C20.6802 97.0846 20.7737 97.2275 20.8848 97.3598C21.814 98.8947 22.8017 100.408 23.8653 101.885C25.4101 104.031 27.0861 106.096 28.8856 108.072C28.7512 107.993 28.6226 107.908 28.4882 107.834C27.9271 107.538 27.3661 107.268 26.805 107.024C25.6421 105.454 24.2547 104.03 22.679 102.79C18.9211 99.8157 14.4561 98.0267 9.03261 97.3545H8.88067L8.96248 97.471C13.9418 104.923 18.8451 107.215 22.0829 107.824C23.6123 108.159 25.222 108.02 26.6531 107.427C27.2375 107.718 27.7752 108.025 28.3245 108.358C28.8739 108.692 29.546 109.141 30.1362 109.56L30.5687 109.893L30.6973 109.994C32.5671 111.909 34.5533 113.729 36.6467 115.445C38.2831 116.784 40.0072 118.091 41.8014 119.298C41.6903 119.266 41.5793 119.224 41.4741 119.187C40.8254 118.997 40.1825 118.838 39.5513 118.7C37.9614 117.375 36.1944 116.235 34.2915 115.308C29.7205 113.071 24.5214 112.108 19.3477 112.539H19.1899L19.301 112.64C26.1271 119.06 31.6148 120.389 35.0454 120.389C36.6445 120.437 38.2138 119.989 39.4929 119.118C40.1416 119.304 40.7903 119.505 41.4332 119.727C42.0761 119.949 42.8884 120.256 43.6014 120.579L43.9696 120.748L44.6768 121.209C45.3956 121.659 46.132 122.088 46.8625 122.532C47.5931 122.977 48.3061 123.453 49.0307 123.935C49.7554 124.416 50.486 124.893 51.2516 125.327C52.0173 125.777 52.8344 126.151 53.6886 126.443L54.4425 125.104C53.6981 124.658 52.9165 124.266 52.1048 123.929C51.31 123.564 50.5035 123.252 49.7321 122.913Z" fill="url(#paint0_linear_1601_9334)"/>
<path d="M259.437 83.2485C259.482 83.177 259.521 83.1027 259.554 83.0262C259.624 82.8781 259.688 82.7193 259.758 82.5712L259.985 82.1214C260.296 81.5339 260.641 80.9617 261.018 80.4071C261.345 79.915 261.695 79.4441 262.056 78.9785C263.61 78.9809 265.119 78.5114 266.344 77.6451C268.94 75.9255 272.265 72.0788 273.344 63.56V63.4277L273.222 63.4965C266.805 67.1315 262.768 72.4915 261.759 78.5922V78.6504C261.362 79.079 260.983 79.5341 260.621 80.0103C260.481 80.1955 260.359 80.3859 260.23 80.5764C261.221 76.9815 261.909 73.3236 262.29 69.6342C262.336 69.1898 262.371 68.7453 262.406 68.3062C262.406 68.2586 262.435 68.2109 262.447 68.1633C262.473 68.0835 262.492 68.0021 262.505 67.9199C262.54 67.7612 262.564 67.5971 262.599 67.4384C262.634 67.2797 262.68 67.1209 262.715 66.9622C262.872 66.3286 263.067 65.7033 263.299 65.0891C263.503 64.56 263.736 64.0309 263.981 63.5018C265.491 63.1913 266.851 62.4494 267.861 61.3853C270.002 59.2 272.358 54.8031 271.443 46.2578V46.1202L271.332 46.2155C265.93 51.0305 263.165 57.0677 263.625 63.2055V63.2002C263.34 63.6975 263.071 64.2108 262.826 64.7505C262.733 64.9692 262.645 65.1914 262.564 65.4172C262.719 61.2672 262.484 57.1128 261.864 52.9988C261.864 52.9458 261.864 52.8877 261.864 52.8295C261.864 52.7713 261.864 52.6654 261.864 52.5861C261.864 52.422 261.864 52.258 261.864 52.094C261.864 51.93 261.864 51.7659 261.864 51.6019C261.878 50.9508 261.931 50.3008 262.021 49.6548C262.097 49.0833 262.202 48.5171 262.319 47.9563C263.724 47.3529 264.879 46.3572 265.615 45.1149C267.201 42.5434 268.473 37.7549 265.533 29.543L265.486 29.4107L265.405 29.5271C262.639 33.2926 261.13 37.7019 261.059 42.2259C261.056 44.0828 261.337 45.9311 261.893 47.7182V47.7658C261.724 48.2949 261.584 48.8663 261.467 49.4378C261.426 49.6812 261.391 49.9246 261.362 50.1733C260.555 46.0632 259.355 42.0248 257.774 38.1041L257.739 37.9242C257.739 37.8448 257.704 37.7655 257.681 37.6808C257.658 37.5961 257.588 37.3633 257.547 37.2046C257.506 37.0459 257.471 36.8818 257.43 36.7178C257.302 36.0723 257.179 35.4215 257.121 34.7707C257.063 34.1198 257.028 33.6172 257.004 33.0404C258.233 32.1678 259.121 30.9604 259.536 29.5959C260.464 26.7386 260.522 21.7543 255.534 14.2514L255.458 14.1297L255.406 14.262C254.335 16.9796 253.779 19.842 253.761 22.7279C253.738 26.2785 254.688 29.7786 256.526 32.9134L256.555 32.961C256.523 33.5392 256.523 34.1184 256.555 34.6966C256.555 34.9505 256.596 35.2257 256.625 35.4691C254.839 31.5261 252.656 27.741 250.103 24.1618L250.056 24.056C250.021 23.9819 249.981 23.9026 249.94 23.8285C249.899 23.7544 249.765 23.5322 249.683 23.384C249.601 23.2359 249.531 23.0771 249.45 22.9237C249.146 22.314 248.878 21.6906 248.645 21.0559C248.435 20.5003 248.254 19.9342 248.061 19.368C249.044 18.2588 249.602 16.8904 249.654 15.4684C249.887 11.0608 247.134 6.19297 241.487 0.991733L241.376 0.891199V1.03407C241.3 1.83304 241.265 2.62142 241.265 3.40981C241.177 9.22212 243.425 14.8648 247.589 19.2834L247.636 19.3363C247.752 19.9024 247.898 20.4739 248.079 21.0506C248.149 21.2781 248.236 21.5057 248.324 21.7332C248.114 21.4633 247.91 21.204 247.694 20.9289C245.766 18.5315 243.668 16.2515 241.411 14.1033C240.688 13.3978 239.943 12.717 239.177 12.0609C238.689 10.3682 237.781 8.79909 236.523 7.47343C234.002 4.70085 229.102 1.15575 220.078 0.0234375H219.879L220.013 0.161013C225.264 5.36225 229.709 8.80682 233.536 10.6958C234.821 11.3546 236.18 11.8868 237.59 12.2831C237.59 12.2831 238.226 12.4524 238.716 12.5477C239.474 13.2038 240.215 13.8722 240.939 14.553C243.181 16.6788 245.27 18.934 247.192 21.3046C247.396 21.5586 247.589 21.8337 247.776 22.0665C247.583 21.929 247.391 21.7914 247.192 21.6697C246.668 21.3558 246.121 21.0764 245.553 20.8337C244.451 19.291 242.984 17.9897 241.259 17.024C238.885 15.6589 233.921 13.7488 227.405 16.2462L227.282 16.2938L227.393 16.3626C233.051 19.786 237.503 21.5744 240.991 21.8284C242.504 22.0004 244.04 21.7974 245.436 21.2411C245.972 21.5231 246.49 21.8323 246.988 22.1671C247.57 22.5606 248.116 22.9959 248.621 23.4687L248.995 23.8338C249.117 23.9555 249.228 24.0878 249.345 24.22C249.461 24.3523 249.467 24.3417 249.531 24.4052C252.086 27.9574 254.273 31.716 256.065 35.6331C255.896 35.4479 255.727 35.2574 255.546 35.104C255.121 34.7044 254.662 34.3347 254.175 33.9981C253.509 32.3094 252.428 30.7804 251.013 29.5271C249.082 27.781 244.824 25.0296 237.958 26.2201H237.829L237.917 26.3101C242.321 30.543 246.224 33.1886 249.514 34.0669C250.941 34.5196 252.477 34.6147 253.959 34.3421C254.404 34.7161 254.827 35.1118 255.225 35.5273C255.69 36.0131 256.11 36.5335 256.479 37.0829L256.748 37.5062C256.835 37.649 256.911 37.7972 256.993 37.9454L257.127 38.157C257.127 38.2099 257.191 38.2575 257.226 38.3105C258.793 42.1979 259.98 46.2029 260.773 50.2791C260.65 50.0675 260.534 49.8505 260.399 49.6495C260.079 49.1811 259.72 48.7353 259.326 48.3161C259.087 46.5568 258.405 44.8711 257.331 43.39C255.878 41.337 252.413 37.8713 245.489 37.7231H245.36L245.425 37.8236C248.61 42.7444 251.754 46.0038 254.758 47.5118C256.044 48.2246 257.516 48.612 259.023 48.6335C259.369 49.0805 259.686 49.5451 259.974 50.0251C260.312 50.5864 260.599 51.1722 260.831 51.7765C260.884 51.9299 260.942 52.0834 260.994 52.2369C261.047 52.3903 261.082 52.549 261.129 52.7077C261.175 52.8665 261.175 52.8612 261.205 52.9406L261.245 53.0517C261.87 57.1512 262.102 61.292 261.94 65.4278C261.87 65.2002 261.805 64.9674 261.718 64.7505C261.522 64.2546 261.289 63.7719 261.018 63.306C261.062 62.9548 261.079 62.6012 261.07 62.2478C261.006 60.036 260.02 52.6443 249.957 50.3003H249.829L249.87 50.4114C251.807 55.7872 254.105 59.5598 256.713 61.6234C257.807 62.5605 259.152 63.2225 260.615 63.5441C260.843 64.0446 261.038 64.5569 261.199 65.0785C261.398 65.6929 261.54 66.3212 261.625 66.9569C261.625 67.1156 261.665 67.2744 261.683 67.4384C261.7 67.6024 261.683 67.7612 261.683 67.9252C261.683 68.0046 261.683 68.0839 261.683 68.1633C261.683 68.2427 261.683 68.2109 261.683 68.2321C261.642 68.6977 261.607 69.1633 261.56 69.629C261.182 73.2827 260.49 76.9041 259.489 80.46C259.489 80.2484 259.489 80.0314 259.437 79.8251C259.361 79.2775 259.238 78.7361 259.069 78.206C259.642 76.5107 259.784 74.7197 259.484 72.9677C259.093 70.5655 257.518 66.1209 251.317 63.3748L251.2 63.3272V63.4436C251.847 69.0681 253.224 73.2005 255.283 75.7297C256.131 76.8653 257.294 77.7778 258.655 78.3753C258.769 78.9138 258.847 79.458 258.889 80.005C258.947 80.6459 258.947 81.2901 258.889 81.931C258.889 82.0897 258.848 82.2484 258.83 82.4125C258.813 82.5765 258.766 82.7352 258.737 82.8939C258.737 82.9468 258.737 82.9998 258.737 83.0527C258.399 84.1109 258.037 85.1374 257.64 86.1692C256.525 89.0819 255.198 91.9243 253.667 94.6774C253.667 94.5081 253.732 94.3388 253.749 94.1483C253.807 93.5925 253.819 93.0336 253.784 92.4763C254.754 90.9207 255.323 89.1857 255.447 87.402C255.645 84.9681 255.155 80.296 249.706 76.3858L249.607 76.317V76.4334C249.395 78.127 249.284 79.8297 249.275 81.5341C249.275 84.7617 249.753 87.3544 250.698 89.3016C251.252 90.5806 252.168 91.7047 253.352 92.5609C253.335 93.1137 253.281 93.6651 253.189 94.2118C253.083 94.8542 252.919 95.4877 252.699 96.106C252.641 96.2648 252.582 96.4182 252.518 96.5717C252.454 96.7251 252.419 96.7992 252.367 96.9103C251.416 98.4977 250.406 100.006 249.321 101.503C247.791 103.607 246.131 105.631 244.351 107.567C244.404 107.45 244.468 107.334 244.515 107.218C244.714 106.678 244.872 106.126 244.987 105.567C246.333 104.217 247.33 102.612 247.904 100.868C248.709 98.5082 249.409 93.8044 244.987 88.8836L244.905 88.7883L244.865 88.8994C243.278 93.1324 242.484 96.6563 242.484 99.4818C242.479 100.273 242.553 101.063 242.706 101.842C242.913 103.206 243.517 104.495 244.456 105.577C244.296 106.116 244.101 106.646 243.873 107.165C243.595 107.781 243.265 108.377 242.887 108.948L242.589 109.366C240.698 111.295 238.688 113.125 236.569 114.847C234.967 116.149 233.285 117.398 231.523 118.594C231.576 118.53 231.628 118.467 231.675 118.398C232.034 117.905 232.352 117.389 232.626 116.853C234.354 115.785 235.802 114.385 236.867 112.752C238.319 110.572 240.297 106.053 237.246 100.313L237.188 100.207L237.118 100.307C233.617 105.413 231.704 109.583 231.471 112.704C231.441 113.006 231.424 113.297 231.424 113.567C231.39 114.663 231.642 115.751 232.159 116.742C231.889 117.252 231.587 117.749 231.255 118.228C230.799 118.792 230.295 119.322 229.75 119.816L229.54 119.996C229.271 120.165 229.015 120.34 228.74 120.525C228.029 120.964 227.311 121.403 226.57 121.816C225.816 122.223 225.037 122.59 224.237 122.916C223.438 123.255 222.633 123.578 221.833 123.927C221.023 124.263 220.243 124.656 219.5 125.102L220.253 126.44C221.103 126.148 221.917 125.774 222.679 125.324C223.449 124.89 224.184 124.414 224.902 123.932C225.619 123.451 226.337 122.975 227.066 122.53C227.795 122.086 228.53 121.657 229.248 121.207L229.954 120.747L230.321 120.578C231.033 120.271 231.756 119.969 232.48 119.726C233.203 119.482 233.775 119.303 234.417 119.117C235.695 119.989 237.264 120.437 238.862 120.387C242.263 120.387 247.764 119.064 254.613 112.646L254.718 112.546H254.566C249.402 112.114 244.212 113.077 239.649 115.313C237.75 116.24 235.986 117.38 234.399 118.705C233.769 118.842 233.127 119.001 232.48 119.191C232.375 119.229 232.264 119.271 232.153 119.303C233.944 118.07 235.653 116.789 237.298 115.451C239.388 113.735 241.371 111.916 243.237 110.001L243.359 109.9L243.797 109.567C244.38 109.149 244.964 108.725 245.605 108.366C246.247 108.006 246.708 107.725 247.268 107.434C248.698 108.028 250.307 108.168 251.836 107.831C255.068 107.223 259.962 104.926 264.932 97.4817L265.008 97.3653H264.862C259.449 98.0479 254.992 99.8257 251.235 102.799C249.673 104.041 248.3 105.464 247.151 107.032C246.591 107.276 246.031 107.546 245.471 107.842L245.069 108.08C246.867 106.105 248.542 104.04 250.086 101.895C251.147 100.418 252.133 98.9051 253.055 97.3706C253.166 97.2383 253.259 97.0955 253.37 96.9579L253.702 96.5611C254.151 96.042 254.628 95.544 255.132 95.0689C255.575 94.6509 256.036 94.2488 256.503 93.8626C258.024 94.1663 259.614 93.9986 261.018 93.3864C263.975 92.1906 268.141 89.0582 271.192 80.9097L271.238 80.7828L271.098 80.8251C264.04 83.132 258.795 87.6031 256.328 93.4128L256.298 93.4816C255.794 93.8332 255.309 94.2076 254.846 94.6033C254.7 94.7303 254.566 94.8626 254.426 94.9949C255.961 92.2013 257.29 89.3184 258.404 86.365C258.76 85.2909 259.11 84.2697 259.437 83.2485Z" fill="url(#paint1_linear_1601_9334)"/>
<defs>
<linearGradient id="paint0_linear_1601_9334" x1="27.4713" y1="0" x2="27.4713" y2="126.443" gradientUnits="userSpaceOnUse">
<stop stop-color="#E7C15E"/>
<stop offset="1" stop-color="#AE7423"/>
</linearGradient>
<linearGradient id="paint1_linear_1601_9334" x1="246.422" y1="0.0234375" x2="246.422" y2="126.44" gradientUnits="userSpaceOnUse">
<stop stop-color="#E7C15E"/>
<stop offset="1" stop-color="#AE7423"/>
</linearGradient>
</defs>
</svg>
