<svg width="22" height="22" viewBox="0 0 22 22" fill="none" xmlns="http://www.w3.org/2000/svg">
<g clip-path="url(#clip0_1182_72951)">
<path d="M10.9888 4.595C12.0103 4.595 12.99 5.00081 13.7123 5.72314C14.4346 6.44547 14.8404 7.42516 14.8404 8.4467C14.8404 9.46823 14.4346 10.4479 13.7123 11.1703C12.99 11.8926 12.0103 12.2984 10.9888 12.2984C9.96722 12.2984 8.98753 11.8926 8.2652 11.1703C7.54287 10.4479 7.13706 9.46823 7.13706 8.4467C7.13706 7.42516 7.54287 6.44547 8.2652 5.72314C8.98753 5.00081 9.96722 4.595 10.9888 4.595ZM19.4384 8.44839C19.4384 7.13292 19.1312 5.83564 18.5414 4.65984C17.9515 3.48403 17.0952 2.46219 16.0408 1.67568C14.9864 0.889164 13.7629 0.359705 12.4677 0.12946C11.1725 -0.100785 9.84151 -0.0254552 8.5806 0.349451C7.31969 0.724357 6.16373 1.38848 5.20477 2.28895C4.2458 3.18941 3.51032 4.30133 3.05689 5.53618C2.60346 6.77103 2.44461 8.09469 2.59298 9.40176C2.74135 10.7088 3.19285 11.9632 3.91153 13.065L10.2323 21.4927C10.3025 21.6335 10.4105 21.752 10.5443 21.8347C10.6781 21.9175 10.8323 21.9614 10.9896 21.9614C11.1469 21.9614 11.3011 21.9175 11.4349 21.8347C11.5687 21.752 11.6767 21.6335 11.7469 21.4927L18.0795 13.065C18.9324 11.7348 19.4384 10.1542 19.4384 8.44839Z" fill="#5039BF"/>
</g>
<defs>
<clipPath id="clip0_1182_72951">
<rect width="22" height="22" fill="white"/>
</clipPath>
</defs>
</svg>
