<svg width="20" height="21" viewBox="0 0 20 21" fill="none" xmlns="http://www.w3.org/2000/svg">
<path d="M9.99175 1.46094C6.60275 1.46094 3.85842 4.12327 3.84375 7.43627C3.84375 8.62594 4.19775 9.75861 4.85475 10.7266L4.91908 10.8183L4.95642 10.8803L4.98708 10.9269C5.00775 10.9573 5.02975 10.9863 5.05442 11.0149L5.06975 11.0316L8.97942 15.5789C9.10483 15.7247 9.26029 15.8416 9.43513 15.9217C9.60997 16.0017 9.80006 16.043 9.99235 16.0427C10.1846 16.0424 10.3746 16.0005 10.5492 15.9198C10.7237 15.8392 10.8788 15.7218 11.0038 15.5756L14.8921 11.0276L14.8664 11.0559C14.9048 11.0158 14.9397 10.9726 14.9707 10.9266L15.0008 10.8806C15.0131 10.8613 15.0371 10.8206 15.0364 10.8219C15.7258 9.85861 16.1124 8.68461 16.1268 7.44727C16.1268 4.1306 13.3751 1.46094 9.99175 1.46094ZM9.99175 2.79427C12.6474 2.79427 14.7934 4.87627 14.7934 7.43927C14.7844 8.38414 14.4844 9.30328 13.9344 10.0716L13.8767 10.1629L9.99008 14.7096L6.08008 10.1623L6.04242 10.0999L6.02308 10.0716C5.47162 9.30479 5.17563 8.38379 5.17708 7.43927C5.18875 4.87094 7.32908 2.79427 9.99175 2.79427Z" fill="#666666"/>
<path d="M15.3049 14.0909C15.4498 14.0063 15.6212 13.9795 15.785 14.0158C15.9488 14.052 16.0929 14.1487 16.1886 14.2865L16.2166 14.3305L17.6499 16.7862C17.7647 16.9828 17.8272 17.2056 17.8315 17.4332C17.8358 17.6608 17.7817 17.8858 17.6744 18.0866C17.5671 18.2874 17.4102 18.4574 17.2186 18.5804C17.027 18.7034 16.8071 18.7753 16.5799 18.7892L16.4909 18.7915L3.48222 18.7205C3.25547 18.7193 3.03278 18.6602 2.83522 18.5489C2.63765 18.4376 2.47173 18.2778 2.35314 18.0845C2.23455 17.8913 2.1672 17.671 2.15748 17.4444C2.14775 17.2179 2.19596 16.9926 2.29755 16.7899L2.33922 16.7129L3.70522 14.3835C3.79209 14.2344 3.93344 14.1247 4.09951 14.0777C4.26559 14.0306 4.44344 14.0498 4.59566 14.1312C4.74788 14.2126 4.86259 14.3498 4.91566 14.5141C4.96873 14.6784 4.95603 14.8568 4.88022 15.0119L4.85555 15.0579L3.48955 17.3872L16.4982 17.4582L15.0649 15.0025C14.9758 14.8498 14.9511 14.668 14.9961 14.497C15.0411 14.326 15.1522 14.1799 15.3049 14.0909Z" fill="#666666"/>
<path d="M9.99479 4.89844C9.64456 4.89848 9.29776 4.96751 8.9742 5.10158C8.65064 5.23565 8.35666 5.43213 8.10904 5.67982C7.86141 5.9275 7.665 6.22154 7.53101 6.54513C7.39702 6.86872 7.32808 7.21554 7.32813 7.56577C7.32817 7.91601 7.3972 8.2628 7.53127 8.58636C7.66534 8.90992 7.86182 9.2039 8.10951 9.45153C8.35719 9.69915 8.65122 9.89556 8.97482 10.0296C9.29841 10.1635 9.64522 10.2325 9.99546 10.2324C10.7028 10.2323 11.3811 9.95128 11.8812 9.45106C12.3813 8.95083 12.6622 8.27244 12.6621 7.5651C12.662 6.85777 12.381 6.17945 11.8807 5.67935C11.3805 5.17925 10.7021 4.89835 9.99479 4.89844ZM9.99479 6.23177C10.3485 6.23186 10.6877 6.37246 10.9377 6.62263C11.1878 6.8728 11.3282 7.21206 11.3281 7.56577C11.328 7.91948 11.1874 8.25867 10.9373 8.50872C10.6871 8.75877 10.3478 8.89919 9.99413 8.8991C9.64041 8.89902 9.30123 8.75842 9.05118 8.50825C8.80113 8.25807 8.6607 7.91881 8.66079 7.5651C8.66088 7.21139 8.80148 6.87221 9.05165 6.62216C9.30182 6.37211 9.64108 6.23168 9.99479 6.23177Z" fill="#666666"/>
</svg>
