<svg width="20" height="20" viewBox="0 0 20 20" fill="none" xmlns="http://www.w3.org/2000/svg">
<path d="M14.3475 12.3772C14.1476 12.1777 13.8767 12.0657 13.5943 12.0657C13.3118 12.0657 13.0409 12.1777 12.841 12.3772L12.0877 13.1305C11.6616 13.5566 10.2818 13.1325 9.07469 11.9253C7.86761 10.718 7.44269 9.33892 7.86947 8.91228L7.8704 8.91135L8.62275 8.159C8.82222 7.95905 8.93423 7.68815 8.93423 7.40572C8.93423 7.12329 8.82222 6.85239 8.62275 6.65244L5.30828 3.33812C5.10835 3.13866 4.83747 3.02665 4.55507 3.02665C4.27266 3.02665 4.00178 3.13866 3.80185 3.33812L3.04857 4.09139C2.49196 4.648 2.15294 5.38011 2.04068 6.26748C1.93655 7.09053 2.03256 8.01359 2.32591 9.01055C2.91434 11.0133 4.24141 13.1188 6.06156 14.9384C7.88172 16.758 9.98684 18.0856 11.9889 18.674C12.7265 18.8909 13.4233 19 14.0691 19C14.2909 19.0004 14.5124 18.9867 14.7325 18.9592C15.6199 18.847 16.352 18.508 16.9086 17.9514L17.6619 17.1981C17.8613 16.9982 17.9733 16.7273 17.9733 16.4449C17.9733 16.1625 17.8613 15.8916 17.6619 15.6917L14.3475 12.3772ZM17.0592 16.5955L16.306 17.3488C15.4556 18.1992 14.0079 18.3795 12.2294 17.8564C10.3617 17.3071 8.38533 16.0568 6.66424 14.3357C4.94316 12.6146 3.69279 10.6383 3.14351 8.7706C2.62046 6.99226 2.80076 5.54442 3.65111 4.69394L4.4044 3.94079C4.42418 3.921 4.44767 3.90531 4.47352 3.8946C4.49937 3.88389 4.52708 3.87837 4.55507 3.87837C4.58305 3.87837 4.61076 3.88389 4.63661 3.8946C4.66246 3.90531 4.68595 3.921 4.70574 3.94079L8.02007 7.25512C8.03986 7.2749 8.05556 7.29839 8.06627 7.32424C8.07698 7.35009 8.08249 7.3778 8.08249 7.40579C8.08249 7.43377 8.07698 7.46148 8.06627 7.48733C8.05556 7.51318 8.03986 7.53667 8.02007 7.55645L7.26679 8.3096C6.82483 8.75116 6.73602 9.45996 7.01765 10.3039C7.26586 11.0484 7.78238 11.8382 8.47202 12.5277C9.16165 13.2172 9.95155 13.7338 10.6958 13.982C11.0196 14.09 11.3234 14.1434 11.5998 14.1434C12.0439 14.1434 12.4177 14.0053 12.6901 13.7329L13.4433 12.9796C13.463 12.9598 13.4865 12.9441 13.5124 12.9334C13.5382 12.9227 13.5659 12.9172 13.5939 12.9172C13.6219 12.9172 13.6496 12.9227 13.6755 12.9334C13.7013 12.9441 13.7248 12.9598 13.7446 12.9796L17.0589 16.2939C17.0788 16.3137 17.0945 16.3372 17.1053 16.3631C17.116 16.3889 17.1216 16.4167 17.1216 16.4447C17.1216 16.4727 17.1161 16.5004 17.1054 16.5263C17.0947 16.5522 17.079 16.5757 17.0592 16.5955ZM11.7561 4.98276C11.7561 4.9268 11.7671 4.87139 11.7886 4.8197C11.81 4.768 11.8414 4.72102 11.8809 4.68146C11.9205 4.64189 11.9675 4.6105 12.0192 4.58909C12.0709 4.56767 12.1263 4.55665 12.1822 4.55665C12.7418 4.55665 13.2959 4.66687 13.8129 4.88101C14.3299 5.09515 14.7996 5.40902 15.1953 5.80469C15.591 6.20037 15.9048 6.67011 16.119 7.18709C16.3331 7.70407 16.4433 8.25816 16.4433 8.81774C16.4433 8.93075 16.3984 9.03913 16.3185 9.11904C16.2386 9.19895 16.1302 9.24384 16.0172 9.24384C15.9042 9.24384 15.7958 9.19895 15.7159 9.11904C15.636 9.03913 15.5911 8.93075 15.5911 8.81774C15.5911 6.93806 14.0619 5.40887 12.1822 5.40887C12.0692 5.40887 11.9608 5.36398 11.8809 5.28406C11.801 5.20415 11.7561 5.09577 11.7561 4.98276ZM11.7561 7.53941C11.7561 7.48345 11.7671 7.42804 11.7886 7.37635C11.81 7.32465 11.8414 7.27767 11.8809 7.23811C11.9205 7.19854 11.9675 7.16715 12.0192 7.14574C12.0709 7.12432 12.1263 7.1133 12.1822 7.1133C12.6341 7.1138 13.0674 7.29353 13.3869 7.61306C13.7064 7.9326 13.8862 8.36584 13.8867 8.81774C13.8867 8.93075 13.8418 9.03913 13.7619 9.11904C13.682 9.19895 13.5736 9.24384 13.4606 9.24384C13.3476 9.24384 13.2392 9.19895 13.1593 9.11904C13.0794 9.03913 13.0345 8.93075 13.0345 8.81774C13.0342 8.59179 12.9443 8.37517 12.7846 8.2154C12.6248 8.05563 12.4082 7.96577 12.1822 7.96552C12.0692 7.96552 11.9608 7.92063 11.8809 7.84071C11.801 7.7608 11.7561 7.65242 11.7561 7.53941ZM19 8.81774C19 8.93075 18.9551 9.03913 18.8752 9.11904C18.7953 9.19895 18.6869 9.24384 18.5739 9.24384C18.4609 9.24384 18.3525 9.19895 18.2726 9.11904C18.1927 9.03913 18.1478 8.93075 18.1478 8.81774C18.1478 5.52871 15.4713 2.85222 12.1822 2.85222C12.0692 2.85222 11.9608 2.80733 11.8809 2.72741C11.801 2.6475 11.7561 2.53912 11.7561 2.42611C11.7561 2.3131 11.801 2.20472 11.8809 2.12481C11.9608 2.0449 12.0692 2 12.1822 2C13.0777 1.99932 13.9646 2.1752 14.7921 2.51758C15.6196 2.85996 16.3714 3.36213 17.0046 3.99535C17.6379 4.62857 18.14 5.38042 18.4824 6.20789C18.8248 7.03537 19.0007 7.92223 19 8.81774Z" fill="#666666" stroke="#666666" stroke-width="0.4"/>
</svg>
