<svg width="64" height="64" viewBox="0 0 64 64" fill="none" xmlns="http://www.w3.org/2000/svg">
<mask id="path-1-inside-1_1157_11959" fill="white">
<path d="M13.9075 28.6749L12.1201 25.446C12.0329 25.2872 12.0004 25.1051 12.0272 24.9268C12.054 24.7484 12.1388 24.5833 12.2691 24.4557L16.8045 20.016V16.1863C16.655 15.7062 16.6216 15.1988 16.7069 14.704C16.7923 14.2091 16.994 13.7403 17.2963 13.3345C17.5985 12.9287 17.9931 12.5971 18.4488 12.3655C18.9046 12.1339 19.4091 12.0088 19.9228 12C20.458 12.0011 20.9845 12.1317 21.4554 12.3802H33.1641C33.6111 12.1595 34.1047 12.0439 34.6055 12.0423C35.3945 12.0441 36.1562 12.3244 36.7504 12.8315C37.3446 13.3386 37.7312 14.0383 37.8389 14.8018L47.8419 26.8962C49.0705 27.0759 50.2283 27.5702 51.1978 28.3289C52.1673 29.0876 52.9139 30.0835 53.3615 31.2155C53.8091 32.3474 53.9419 33.5751 53.7462 34.7734C53.5506 35.9717 53.0335 37.098 52.2476 38.0378L54.1214 45.7862H55.14C55.3681 45.7862 55.5868 45.8748 55.748 46.0323C55.9093 46.1899 56 46.4035 56 46.6263V51.1599C56 51.3827 55.9093 51.5965 55.748 51.754C55.5868 51.9115 55.3681 52 55.14 52H12.86C12.6319 52 12.4132 51.9115 12.252 51.754C12.0907 51.5965 12 51.3827 12 51.1599C12 50.9371 12.0907 50.7235 12.252 50.5659C12.4132 50.4084 12.6319 50.3199 12.86 50.3199H39.1506V46.6263C39.1506 46.4035 39.2412 46.1899 39.4025 46.0323C39.5638 45.8748 39.7825 45.7862 40.0106 45.7862H41.3654V38.0988C40.5236 37.1167 39.981 35.9233 39.7992 34.6547C39.6175 33.3861 39.8037 32.0932 40.3372 30.923L38.0022 26.9853C37.9439 26.8897 37.9056 26.7838 37.8896 26.6736C37.8736 26.5635 37.8803 26.4513 37.9091 26.3437C37.9378 26.236 37.9881 26.1349 38.0571 26.0464C38.1261 25.9579 38.2125 25.8837 38.3112 25.8281C38.4098 25.7724 38.5187 25.7365 38.6316 25.7223C38.7446 25.7081 38.8594 25.716 38.9692 25.7456C39.0791 25.7751 39.1819 25.8257 39.2716 25.8943C39.3613 25.9629 39.436 26.0482 39.4917 26.1453L41.3654 29.3038C42.4483 28.028 43.967 27.1779 45.6414 26.9103L37.3728 16.9138C37.1062 17.3316 36.7449 17.6839 36.3166 17.9435C35.8884 18.2031 35.4048 18.363 34.9032 18.4108L36.4215 20.9687C36.535 21.1612 36.5659 21.3896 36.5074 21.6042C36.4488 21.8188 36.3057 22.002 36.1093 22.1138C35.979 22.1912 35.8294 22.2318 35.6769 22.2312C35.5258 22.2304 35.3775 22.191 35.2469 22.1169C35.1162 22.0428 35.0076 21.9366 34.9321 21.8088L32.7268 18.087H23.0216V20.0207L27.5573 24.4557C27.6882 24.5829 27.7735 24.7482 27.8003 24.9267C27.8272 25.1052 27.794 25.2874 27.706 25.446L25.9189 28.6702H25.9669C26.503 28.6714 27.0166 28.88 27.3956 29.2503C27.7747 29.6206 27.9884 30.1224 27.9896 30.646V33.9735C27.9846 34.2083 27.9195 34.4381 27.8003 34.642C27.6812 34.8459 27.5116 35.0175 27.3072 35.1411C27.1028 35.2647 26.8701 35.3363 26.6301 35.3496C26.3902 35.3629 26.1505 35.3174 25.9332 35.2172C25.7336 35.1189 25.5129 35.069 25.2894 35.0717H25.1932C24.811 35.0717 24.4445 35.2201 24.1742 35.4841C23.9038 35.7482 23.7519 36.1062 23.7519 36.4796C23.7519 36.853 23.9038 37.2111 24.1742 37.4752C24.4445 37.7392 24.811 37.8876 25.1932 37.8876H25.2894C25.5129 37.8902 25.7336 37.8404 25.9332 37.7422C26.1505 37.6419 26.3902 37.5964 26.6301 37.6097C26.8701 37.623 27.1028 37.6946 27.3072 37.8182C27.5116 37.9418 27.6812 38.1134 27.8003 38.3174C27.9195 38.5213 27.9846 38.7511 27.9896 38.9858V42.3133C27.9884 42.8365 27.7746 43.3379 27.3954 43.7074C27.0162 44.0769 26.5026 44.2844 25.9669 44.2844H22.9496C23.085 44.6355 23.1551 45.0075 23.1562 45.3827V45.4765C23.1728 45.8925 23.1032 46.3075 22.9517 46.6966C22.8002 47.0857 22.5698 47.4408 22.2744 47.7408C21.979 48.0409 21.6247 48.2796 21.2325 48.4426C20.8404 48.6057 20.4186 48.6898 19.9925 48.6898C19.5663 48.6898 19.1445 48.6057 18.7524 48.4426C18.3603 48.2796 18.0057 48.0409 17.7103 47.7408C17.4149 47.4408 17.1846 47.0857 17.033 46.6966C16.8815 46.3075 16.8121 45.8925 16.8287 45.4765V45.3827C16.8298 45.0075 16.8997 44.6355 17.0351 44.2844H14.018C13.4828 44.2844 12.9696 44.0767 12.5912 43.7071C12.2128 43.3374 12 42.8361 12 42.3133V30.646C12.0004 30.1417 12.1983 29.6568 12.5529 29.2903C12.9076 28.9238 13.3921 28.7036 13.9075 28.6749ZM21.3257 18.1152C20.8891 18.319 20.4113 18.4247 19.9275 18.4247C19.4436 18.4247 18.9661 18.319 18.5295 18.1152V19.5232H21.3257V18.1152ZM18.3806 15.2337C18.3806 15.6345 18.5434 16.0188 18.8336 16.3022C19.1237 16.5856 19.5172 16.7449 19.9275 16.7449C20.3378 16.7449 20.7313 16.5856 21.0214 16.3022C21.3115 16.0188 21.4747 15.6345 21.4747 15.2337C21.4747 14.8329 21.3115 14.4484 21.0214 14.165C20.7313 13.8816 20.3378 13.7224 19.9275 13.7224C19.5172 13.7224 19.1237 13.8816 18.8336 14.165C18.5434 14.4484 18.3806 14.8329 18.3806 15.2337ZM40.8946 50.3199H54.2992V47.4664H40.8946V50.3199ZM52.3727 45.7862L50.8208 39.3519C49.6956 40.1158 48.3665 40.5422 46.9967 40.5789C45.6268 40.6156 44.2758 40.2609 43.1094 39.5584V45.805L52.3727 45.7862ZM42.163 31.1529C42.1309 31.2518 42.0804 31.3441 42.0141 31.4252C41.658 32.1334 41.4738 32.9122 41.4759 33.7013C41.4733 34.9691 41.9437 36.1945 42.799 37.1481C43.6543 38.1016 44.836 38.7181 46.123 38.8821C47.41 39.0462 48.7142 38.7466 49.7914 38.0394C50.8686 37.3322 51.645 36.2658 51.9755 35.0398C52.306 33.8138 52.1681 32.5121 51.5872 31.3783C51.0064 30.2445 50.0225 29.3563 48.8197 28.8799C47.6169 28.4034 46.2775 28.3715 45.0523 28.7898C43.8271 29.2082 42.8 30.0483 42.163 31.1529ZM36.167 15.2337C36.167 14.9346 36.0761 14.6422 35.9059 14.3936C35.7357 14.145 35.4937 13.9513 35.2108 13.8371C34.9278 13.7228 34.6165 13.6931 34.3162 13.7518C34.016 13.8105 33.7404 13.9549 33.5242 14.1667C33.3081 14.3785 33.1611 14.6483 33.102 14.9417C33.0428 15.2352 33.074 15.5391 33.1918 15.8152C33.3096 16.0912 33.5087 16.327 33.7638 16.4924C34.0188 16.6579 34.3185 16.7458 34.6247 16.7449C35.0334 16.7424 35.4243 16.5821 35.7123 16.2989C36.0004 16.0158 36.162 15.6328 36.162 15.2337H36.167ZM31.5881 16.407C31.2806 15.6536 31.2806 14.8137 31.5881 14.0604H22.9688C23.2407 14.74 23.2679 15.4896 23.0457 16.1863V16.407H31.5881ZM24.0113 28.6373L25.9332 25.1973L21.8493 21.2034H18.0441L13.9603 25.1973L15.8821 28.6373C15.8837 28.6482 15.8837 28.6593 15.8821 28.6702H17.0785C16.9427 28.3192 16.8726 27.9472 16.8719 27.572V27.4781C16.9037 26.6793 17.2509 25.9237 17.8408 25.3695C18.4306 24.8154 19.2173 24.5058 20.0356 24.5058C20.854 24.5058 21.6407 24.8154 22.2305 25.3695C22.8204 25.9237 23.1675 26.6793 23.1994 27.4781V27.572C23.1987 27.9472 23.1288 28.3192 22.993 28.6702H24.0113V28.6373ZM13.7393 42.318C13.7406 42.3956 13.773 42.4696 13.8296 42.524C13.8862 42.5785 13.9625 42.6089 14.0419 42.6089H15.4594V38.9764C15.4594 38.7536 15.55 38.54 15.7113 38.3824C15.8726 38.2249 16.0913 38.1363 16.3194 38.1363C16.5475 38.1363 16.7662 38.2249 16.9275 38.3824C17.0887 38.54 17.1794 38.7536 17.1794 38.9764V42.6089H17.5252C17.7755 42.6108 18.0209 42.6762 18.2375 42.7988C18.454 42.9214 18.6342 43.097 18.7601 43.3082C18.8851 43.5177 18.9509 43.7557 18.9509 43.9981C18.9509 44.2405 18.8851 44.4787 18.7601 44.6881C18.6348 44.9008 18.5683 45.1419 18.5678 45.3874V45.4812C18.5678 45.8546 18.7197 46.2128 18.99 46.4768C19.2603 46.7408 19.6269 46.8892 20.0091 46.8892C20.3914 46.8892 20.7581 46.7408 21.0284 46.4768C21.2988 46.2128 21.4505 45.8546 21.4505 45.4812V45.3874C21.4514 45.1423 21.387 44.9013 21.2633 44.6881C21.1384 44.4787 21.0726 44.2405 21.0726 43.9981C21.0726 43.7557 21.1384 43.5177 21.2633 43.3082C21.3892 43.097 21.5692 42.9214 21.7857 42.7988C22.0022 42.6762 22.2477 42.6108 22.498 42.6089H25.9813C26.0607 42.6089 26.1369 42.5785 26.1936 42.524C26.2502 42.4696 26.2826 42.3956 26.2839 42.318V39.4222C25.9733 39.52 25.6493 39.5707 25.323 39.5725H25.227C24.4093 39.5413 23.6356 39.2021 23.0683 38.6259C22.501 38.0497 22.1841 37.2814 22.1841 36.482C22.1841 35.6826 22.501 34.9143 23.0683 34.3381C23.6356 33.7619 24.4093 33.4227 25.227 33.3916H25.323C25.6493 33.3933 25.9733 33.444 26.2839 33.5418V30.646C26.2839 30.5676 26.252 30.4925 26.1952 30.437C26.1384 30.3816 26.0615 30.3504 25.9813 30.3504H22.498C22.2482 30.3491 22.0031 30.2843 21.7867 30.1625C21.5702 30.0407 21.3898 29.8662 21.2633 29.6558C21.1339 29.4427 21.0655 29.1996 21.0655 28.9518C21.0655 28.7041 21.1339 28.4609 21.2633 28.2479C21.387 28.0347 21.4514 27.7936 21.4505 27.5486V27.4546C21.4505 27.0812 21.2988 26.7231 21.0284 26.459C20.7581 26.195 20.3914 26.0467 20.0091 26.0467C19.6269 26.0467 19.2603 26.195 18.99 26.459C18.7197 26.7231 18.5678 27.0812 18.5678 27.4546V27.5486C18.5683 27.7941 18.6348 28.0351 18.7601 28.2479C18.8895 28.4609 18.9577 28.7041 18.9577 28.9518C18.9577 29.1996 18.8895 29.4427 18.7601 29.6558C18.6336 29.8662 18.4532 30.0407 18.2367 30.1625C18.0203 30.2843 17.775 30.3491 17.5252 30.3504H14.0419C13.9617 30.3504 13.8847 30.3816 13.828 30.437C13.7712 30.4925 13.7393 30.5676 13.7393 30.646V42.318Z"/>
</mask>
<path d="M13.9075 28.6749L12.1201 25.446C12.0329 25.2872 12.0004 25.1051 12.0272 24.9268C12.054 24.7484 12.1388 24.5833 12.2691 24.4557L16.8045 20.016V16.1863C16.655 15.7062 16.6216 15.1988 16.7069 14.704C16.7923 14.2091 16.994 13.7403 17.2963 13.3345C17.5985 12.9287 17.9931 12.5971 18.4488 12.3655C18.9046 12.1339 19.4091 12.0088 19.9228 12C20.458 12.0011 20.9845 12.1317 21.4554 12.3802H33.1641C33.6111 12.1595 34.1047 12.0439 34.6055 12.0423C35.3945 12.0441 36.1562 12.3244 36.7504 12.8315C37.3446 13.3386 37.7312 14.0383 37.8389 14.8018L47.8419 26.8962C49.0705 27.0759 50.2283 27.5702 51.1978 28.3289C52.1673 29.0876 52.9139 30.0835 53.3615 31.2155C53.8091 32.3474 53.9419 33.5751 53.7462 34.7734C53.5506 35.9717 53.0335 37.098 52.2476 38.0378L54.1214 45.7862H55.14C55.3681 45.7862 55.5868 45.8748 55.748 46.0323C55.9093 46.1899 56 46.4035 56 46.6263V51.1599C56 51.3827 55.9093 51.5965 55.748 51.754C55.5868 51.9115 55.3681 52 55.14 52H12.86C12.6319 52 12.4132 51.9115 12.252 51.754C12.0907 51.5965 12 51.3827 12 51.1599C12 50.9371 12.0907 50.7235 12.252 50.5659C12.4132 50.4084 12.6319 50.3199 12.86 50.3199H39.1506V46.6263C39.1506 46.4035 39.2412 46.1899 39.4025 46.0323C39.5638 45.8748 39.7825 45.7862 40.0106 45.7862H41.3654V38.0988C40.5236 37.1167 39.981 35.9233 39.7992 34.6547C39.6175 33.3861 39.8037 32.0932 40.3372 30.923L38.0022 26.9853C37.9439 26.8897 37.9056 26.7838 37.8896 26.6736C37.8736 26.5635 37.8803 26.4513 37.9091 26.3437C37.9378 26.236 37.9881 26.1349 38.0571 26.0464C38.1261 25.9579 38.2125 25.8837 38.3112 25.8281C38.4098 25.7724 38.5187 25.7365 38.6316 25.7223C38.7446 25.7081 38.8594 25.716 38.9692 25.7456C39.0791 25.7751 39.1819 25.8257 39.2716 25.8943C39.3613 25.9629 39.436 26.0482 39.4917 26.1453L41.3654 29.3038C42.4483 28.028 43.967 27.1779 45.6414 26.9103L37.3728 16.9138C37.1062 17.3316 36.7449 17.6839 36.3166 17.9435C35.8884 18.2031 35.4048 18.363 34.9032 18.4108L36.4215 20.9687C36.535 21.1612 36.5659 21.3896 36.5074 21.6042C36.4488 21.8188 36.3057 22.002 36.1093 22.1138C35.979 22.1912 35.8294 22.2318 35.6769 22.2312C35.5258 22.2304 35.3775 22.191 35.2469 22.1169C35.1162 22.0428 35.0076 21.9366 34.9321 21.8088L32.7268 18.087H23.0216V20.0207L27.5573 24.4557C27.6882 24.5829 27.7735 24.7482 27.8003 24.9267C27.8272 25.1052 27.794 25.2874 27.706 25.446L25.9189 28.6702H25.9669C26.503 28.6714 27.0166 28.88 27.3956 29.2503C27.7747 29.6206 27.9884 30.1224 27.9896 30.646V33.9735C27.9846 34.2083 27.9195 34.4381 27.8003 34.642C27.6812 34.8459 27.5116 35.0175 27.3072 35.1411C27.1028 35.2647 26.8701 35.3363 26.6301 35.3496C26.3902 35.3629 26.1505 35.3174 25.9332 35.2172C25.7336 35.1189 25.5129 35.069 25.2894 35.0717H25.1932C24.811 35.0717 24.4445 35.2201 24.1742 35.4841C23.9038 35.7482 23.7519 36.1062 23.7519 36.4796C23.7519 36.853 23.9038 37.2111 24.1742 37.4752C24.4445 37.7392 24.811 37.8876 25.1932 37.8876H25.2894C25.5129 37.8902 25.7336 37.8404 25.9332 37.7422C26.1505 37.6419 26.3902 37.5964 26.6301 37.6097C26.8701 37.623 27.1028 37.6946 27.3072 37.8182C27.5116 37.9418 27.6812 38.1134 27.8003 38.3174C27.9195 38.5213 27.9846 38.7511 27.9896 38.9858V42.3133C27.9884 42.8365 27.7746 43.3379 27.3954 43.7074C27.0162 44.0769 26.5026 44.2844 25.9669 44.2844H22.9496C23.085 44.6355 23.1551 45.0075 23.1562 45.3827V45.4765C23.1728 45.8925 23.1032 46.3075 22.9517 46.6966C22.8002 47.0857 22.5698 47.4408 22.2744 47.7408C21.979 48.0409 21.6247 48.2796 21.2325 48.4426C20.8404 48.6057 20.4186 48.6898 19.9925 48.6898C19.5663 48.6898 19.1445 48.6057 18.7524 48.4426C18.3603 48.2796 18.0057 48.0409 17.7103 47.7408C17.4149 47.4408 17.1846 47.0857 17.033 46.6966C16.8815 46.3075 16.8121 45.8925 16.8287 45.4765V45.3827C16.8298 45.0075 16.8997 44.6355 17.0351 44.2844H14.018C13.4828 44.2844 12.9696 44.0767 12.5912 43.7071C12.2128 43.3374 12 42.8361 12 42.3133V30.646C12.0004 30.1417 12.1983 29.6568 12.5529 29.2903C12.9076 28.9238 13.3921 28.7036 13.9075 28.6749ZM21.3257 18.1152C20.8891 18.319 20.4113 18.4247 19.9275 18.4247C19.4436 18.4247 18.9661 18.319 18.5295 18.1152V19.5232H21.3257V18.1152ZM18.3806 15.2337C18.3806 15.6345 18.5434 16.0188 18.8336 16.3022C19.1237 16.5856 19.5172 16.7449 19.9275 16.7449C20.3378 16.7449 20.7313 16.5856 21.0214 16.3022C21.3115 16.0188 21.4747 15.6345 21.4747 15.2337C21.4747 14.8329 21.3115 14.4484 21.0214 14.165C20.7313 13.8816 20.3378 13.7224 19.9275 13.7224C19.5172 13.7224 19.1237 13.8816 18.8336 14.165C18.5434 14.4484 18.3806 14.8329 18.3806 15.2337ZM40.8946 50.3199H54.2992V47.4664H40.8946V50.3199ZM52.3727 45.7862L50.8208 39.3519C49.6956 40.1158 48.3665 40.5422 46.9967 40.5789C45.6268 40.6156 44.2758 40.2609 43.1094 39.5584V45.805L52.3727 45.7862ZM42.163 31.1529C42.1309 31.2518 42.0804 31.3441 42.0141 31.4252C41.658 32.1334 41.4738 32.9122 41.4759 33.7013C41.4733 34.9691 41.9437 36.1945 42.799 37.1481C43.6543 38.1016 44.836 38.7181 46.123 38.8821C47.41 39.0462 48.7142 38.7466 49.7914 38.0394C50.8686 37.3322 51.645 36.2658 51.9755 35.0398C52.306 33.8138 52.1681 32.5121 51.5872 31.3783C51.0064 30.2445 50.0225 29.3563 48.8197 28.8799C47.6169 28.4034 46.2775 28.3715 45.0523 28.7898C43.8271 29.2082 42.8 30.0483 42.163 31.1529ZM36.167 15.2337C36.167 14.9346 36.0761 14.6422 35.9059 14.3936C35.7357 14.145 35.4937 13.9513 35.2108 13.8371C34.9278 13.7228 34.6165 13.6931 34.3162 13.7518C34.016 13.8105 33.7404 13.9549 33.5242 14.1667C33.3081 14.3785 33.1611 14.6483 33.102 14.9417C33.0428 15.2352 33.074 15.5391 33.1918 15.8152C33.3096 16.0912 33.5087 16.327 33.7638 16.4924C34.0188 16.6579 34.3185 16.7458 34.6247 16.7449C35.0334 16.7424 35.4243 16.5821 35.7123 16.2989C36.0004 16.0158 36.162 15.6328 36.162 15.2337H36.167ZM31.5881 16.407C31.2806 15.6536 31.2806 14.8137 31.5881 14.0604H22.9688C23.2407 14.74 23.2679 15.4896 23.0457 16.1863V16.407H31.5881ZM24.0113 28.6373L25.9332 25.1973L21.8493 21.2034H18.0441L13.9603 25.1973L15.8821 28.6373C15.8837 28.6482 15.8837 28.6593 15.8821 28.6702H17.0785C16.9427 28.3192 16.8726 27.9472 16.8719 27.572V27.4781C16.9037 26.6793 17.2509 25.9237 17.8408 25.3695C18.4306 24.8154 19.2173 24.5058 20.0356 24.5058C20.854 24.5058 21.6407 24.8154 22.2305 25.3695C22.8204 25.9237 23.1675 26.6793 23.1994 27.4781V27.572C23.1987 27.9472 23.1288 28.3192 22.993 28.6702H24.0113V28.6373ZM13.7393 42.318C13.7406 42.3956 13.773 42.4696 13.8296 42.524C13.8862 42.5785 13.9625 42.6089 14.0419 42.6089H15.4594V38.9764C15.4594 38.7536 15.55 38.54 15.7113 38.3824C15.8726 38.2249 16.0913 38.1363 16.3194 38.1363C16.5475 38.1363 16.7662 38.2249 16.9275 38.3824C17.0887 38.54 17.1794 38.7536 17.1794 38.9764V42.6089H17.5252C17.7755 42.6108 18.0209 42.6762 18.2375 42.7988C18.454 42.9214 18.6342 43.097 18.7601 43.3082C18.8851 43.5177 18.9509 43.7557 18.9509 43.9981C18.9509 44.2405 18.8851 44.4787 18.7601 44.6881C18.6348 44.9008 18.5683 45.1419 18.5678 45.3874V45.4812C18.5678 45.8546 18.7197 46.2128 18.99 46.4768C19.2603 46.7408 19.6269 46.8892 20.0091 46.8892C20.3914 46.8892 20.7581 46.7408 21.0284 46.4768C21.2988 46.2128 21.4505 45.8546 21.4505 45.4812V45.3874C21.4514 45.1423 21.387 44.9013 21.2633 44.6881C21.1384 44.4787 21.0726 44.2405 21.0726 43.9981C21.0726 43.7557 21.1384 43.5177 21.2633 43.3082C21.3892 43.097 21.5692 42.9214 21.7857 42.7988C22.0022 42.6762 22.2477 42.6108 22.498 42.6089H25.9813C26.0607 42.6089 26.1369 42.5785 26.1936 42.524C26.2502 42.4696 26.2826 42.3956 26.2839 42.318V39.4222C25.9733 39.52 25.6493 39.5707 25.323 39.5725H25.227C24.4093 39.5413 23.6356 39.2021 23.0683 38.6259C22.501 38.0497 22.1841 37.2814 22.1841 36.482C22.1841 35.6826 22.501 34.9143 23.0683 34.3381C23.6356 33.7619 24.4093 33.4227 25.227 33.3916H25.323C25.6493 33.3933 25.9733 33.444 26.2839 33.5418V30.646C26.2839 30.5676 26.252 30.4925 26.1952 30.437C26.1384 30.3816 26.0615 30.3504 25.9813 30.3504H22.498C22.2482 30.3491 22.0031 30.2843 21.7867 30.1625C21.5702 30.0407 21.3898 29.8662 21.2633 29.6558C21.1339 29.4427 21.0655 29.1996 21.0655 28.9518C21.0655 28.7041 21.1339 28.4609 21.2633 28.2479C21.387 28.0347 21.4514 27.7936 21.4505 27.5486V27.4546C21.4505 27.0812 21.2988 26.7231 21.0284 26.459C20.7581 26.195 20.3914 26.0467 20.0091 26.0467C19.6269 26.0467 19.2603 26.195 18.99 26.459C18.7197 26.7231 18.5678 27.0812 18.5678 27.4546V27.5486C18.5683 27.7941 18.6348 28.0351 18.7601 28.2479C18.8895 28.4609 18.9577 28.7041 18.9577 28.9518C18.9577 29.1996 18.8895 29.4427 18.7601 29.6558C18.6336 29.8662 18.4532 30.0407 18.2367 30.1625C18.0203 30.2843 17.775 30.3491 17.5252 30.3504H14.0419C13.9617 30.3504 13.8847 30.3816 13.828 30.437C13.7712 30.4925 13.7393 30.5676 13.7393 30.646V42.318Z" fill="white" stroke="white" stroke-width="0.8" mask="url(#path-1-inside-1_1157_11959)"/>
</svg>
