<svg width="64" height="64" viewBox="0 0 64 64" fill="none" xmlns="http://www.w3.org/2000/svg">
<path d="M31.1107 16.6244L31.0278 16.6244L31.022 16.6302C30.0426 16.6541 29.1085 17.0533 28.4138 17.7471C27.6994 18.4605 27.2962 19.4276 27.2923 20.4372L27.2923 20.4377C27.2913 21.1931 27.5144 21.9319 27.9334 22.5605C28.3524 23.189 28.9484 23.6792 29.646 23.969C30.3436 24.2587 31.1115 24.3351 31.8525 24.1883C32.5936 24.0415 33.2744 23.6782 33.8089 23.1444C34.3434 22.6106 34.7076 21.9303 34.8553 21.1894C35.003 20.4486 34.9277 19.6807 34.6389 18.9827C34.35 18.2847 33.8606 17.688 33.2326 17.2682C32.6045 16.8484 31.8661 16.6244 31.1107 16.6244ZM33.9626 24.7109C33.1185 25.275 32.1261 25.576 31.1109 25.576C29.7497 25.5748 28.4447 25.0337 27.4822 24.0712C26.5198 23.1088 25.9786 21.8037 25.9773 20.4426C25.9774 19.4274 26.2784 18.4349 26.8425 17.5908C27.4065 16.7466 28.2082 16.0887 29.1462 15.7002C30.0842 15.3116 31.1164 15.2099 32.1121 15.408C33.1079 15.6061 34.0226 16.095 34.7405 16.8129C35.4584 17.5308 35.9473 18.4456 36.1454 19.4413C36.3434 20.4371 36.2418 21.4692 35.8533 22.4072C35.4647 23.3451 34.8068 24.1469 33.9626 24.7109Z" fill="white" stroke="white" stroke-width="0.4"/>
<path d="M45.5568 20.9855V21.1855H45.7568H47.9804C48.1692 21.1866 48.3487 21.2592 48.4805 21.3855C48.6118 21.5114 48.6852 21.6803 48.6876 21.8555C48.6864 24.8376 47.8671 27.7668 46.312 30.3461C44.7567 32.9259 42.5206 35.0643 39.8297 36.5436L39.7356 36.5953L39.7267 36.7023L38.785 48.0473L38.785 48.0473L38.5147 51.314C38.5146 51.3142 38.5146 51.3145 38.5146 51.3147C38.2864 53.8088 36.2925 55.8004 34.1154 55.8004H28.1043C25.9273 55.8004 23.9382 53.809 23.71 51.3195C23.71 51.3192 23.71 51.319 23.71 51.3188L22.4879 36.7022L22.4789 36.5954L22.3851 36.5437C19.6972 35.0626 17.4636 32.9244 15.9094 30.3459C14.3554 27.7677 13.5355 24.8404 13.532 21.8598C13.5332 21.6831 13.6068 21.5125 13.7392 21.3855C13.872 21.2582 14.0533 21.1855 14.2437 21.1855H16.4628H16.6994L16.66 20.9522C16.6282 20.7637 16.6277 20.5823 16.6277 20.3724C16.6277 16.6751 18.1517 13.1277 20.8668 10.5109C23.5822 7.89399 27.2666 6.42266 31.1098 6.42266C34.953 6.42266 38.6374 7.89399 41.3528 10.5109C44.068 13.1277 45.5919 16.6751 45.5919 20.3724C45.5919 20.4662 45.584 20.559 45.5751 20.6617L45.5748 20.6653C45.5662 20.7644 45.5568 20.873 45.5568 20.9855ZM31.1097 7.7847L31.1095 7.7847C27.6506 7.78989 24.3336 9.11662 21.8861 11.4763C19.4384 13.8362 18.0601 17.0369 18.0561 20.377V20.3772C18.0561 22.8697 18.8231 25.3056 20.2592 27.3767C21.6952 29.4477 23.7354 31.0607 26.121 32.0127C28.5066 32.9648 31.1311 33.2135 33.663 32.7277C36.1948 32.242 38.5214 31.0434 40.3479 29.2824C42.1745 27.5213 43.4191 25.2768 43.923 22.8324C44.4268 20.3878 44.1671 17.8543 43.177 15.5525C42.1869 13.2507 40.5113 11.2849 38.3633 9.90268C36.2154 8.52052 33.6911 7.78373 31.1097 7.7847ZM37.1047 51.2053L37.1048 51.2041L38.2469 37.6722L38.2743 37.3472L37.9722 37.4701C35.8079 38.3509 33.4821 38.8047 31.1323 38.8047C28.7826 38.8047 26.4568 38.3509 24.2925 37.4701L23.9909 37.3474L24.0178 37.6719L25.1398 51.2135L25.14 51.2151C25.2192 52.085 25.5935 52.8884 26.1279 53.4762C26.6614 54.0629 27.3679 54.4481 28.1143 54.4481H34.1254C34.8741 54.4481 35.5819 54.063 36.1162 53.4749C36.6514 52.8858 37.0255 52.0799 37.1047 51.2053ZM31.1147 37.445H31.1148C35.2374 37.4458 39.2059 35.9292 42.2089 33.2032C45.2121 30.477 47.0229 26.7467 47.2689 22.7744L47.282 22.5621H47.0692H45.5665H45.3985L45.3695 22.7275C44.8001 25.9713 43.057 28.9176 40.4471 31.0431C37.8371 33.1687 34.5292 34.3358 31.1098 34.3358C27.6904 34.3358 24.3825 33.1687 21.7725 31.0431C19.1626 28.9176 17.4195 25.9713 16.8501 22.7275L16.8211 22.5621H16.6532H15.1804H14.9677L14.9808 22.7744C15.2253 26.7437 17.033 30.4718 20.0321 33.1978C23.031 35.9236 26.9952 37.442 31.1147 37.445Z" fill="white" stroke="white" stroke-width="0.4"/>
</svg>
