<svg width="64" height="64" viewBox="0 0 64 64" fill="none" xmlns="http://www.w3.org/2000/svg">
<mask id="path-1-inside-1_1188_84281" fill="white">
<path d="M52.1816 51.3438H15.1232C14.9165 51.3597 14.7233 51.4531 14.5824 51.6053C14.4415 51.7574 14.3633 51.9572 14.3633 52.1645C14.3633 52.3719 14.4415 52.5717 14.5824 52.7238C14.7233 52.876 14.9165 52.9694 15.1232 52.9853H52.1816C52.3987 52.9853 52.6068 52.8991 52.7603 52.7456C52.9137 52.5921 52.9999 52.384 52.9999 52.1669C52.9999 51.9499 52.9137 51.7417 52.7603 51.5883C52.6068 51.4348 52.3987 51.3486 52.1816 51.3486"/>
</mask>
<path d="M52.1816 51.3438H15.1232C14.9165 51.3597 14.7233 51.4531 14.5824 51.6053C14.4415 51.7574 14.3633 51.9572 14.3633 52.1645C14.3633 52.3719 14.4415 52.5717 14.5824 52.7238C14.7233 52.876 14.9165 52.9694 15.1232 52.9853H52.1816C52.3987 52.9853 52.6068 52.8991 52.7603 52.7456C52.9137 52.5921 52.9999 52.384 52.9999 52.1669C52.9999 51.9499 52.9137 51.7417 52.7603 51.5883C52.6068 51.4348 52.3987 51.3486 52.1816 51.3486" fill="white"/>
<path d="M15.1232 51.3438V51.0737H15.1128L15.1025 51.0745L15.1232 51.3438ZM15.1232 52.9853L15.1025 53.2545L15.1128 53.2553H15.1232V52.9853ZM52.1816 52.9853V53.2553V52.9853ZM52.1816 51.0737H15.1232V51.6138H52.1816V51.0737ZM15.1025 51.0745C14.8279 51.0957 14.5714 51.2198 14.3843 51.4218L14.7805 51.7887C14.8752 51.6864 15.005 51.6237 15.144 51.613L15.1025 51.0745ZM14.3843 51.4218C14.1972 51.6239 14.0933 51.8892 14.0933 52.1645H14.6333C14.6333 52.0252 14.6859 51.8909 14.7805 51.7887L14.3843 51.4218ZM14.0933 52.1645C14.0933 52.4399 14.1972 52.7052 14.3843 52.9073L14.7805 52.5404C14.6859 52.4381 14.6333 52.3039 14.6333 52.1645H14.0933ZM14.3843 52.9073C14.5714 53.1093 14.8279 53.2334 15.1025 53.2545L15.144 52.7161C15.005 52.7054 14.8752 52.6426 14.7805 52.5404L14.3843 52.9073ZM15.1232 53.2553H52.1816V52.7153H15.1232V53.2553ZM52.1816 53.2553C52.4703 53.2553 52.7471 53.1406 52.9512 52.9365L52.5693 52.5547C52.4665 52.6575 52.327 52.7153 52.1816 52.7153V53.2553ZM52.9512 52.9365C53.1553 52.7324 53.2699 52.4556 53.2699 52.1669H52.7299C52.7299 52.3123 52.6722 52.4518 52.5693 52.5547L52.9512 52.9365ZM53.2699 52.1669C53.2699 51.8783 53.1553 51.6014 52.9512 51.3973L52.5693 51.7792C52.6722 51.882 52.7299 52.0215 52.7299 52.1669H53.2699ZM52.9512 51.3973C52.747 51.1932 52.4702 51.0786 52.1816 51.0786V51.6186C52.3271 51.6186 52.4665 51.6764 52.5693 51.7792L52.9512 51.3973Z" fill="white" mask="url(#path-1-inside-1_1188_84281)"/>
<path d="M11.8476 51.3516C11.6844 51.3506 11.5245 51.3983 11.3884 51.4883C11.2523 51.5784 11.146 51.7068 11.0831 51.8575C11.0202 52.0081 11.0035 52.1741 11.0351 52.3342C11.0667 52.4944 11.1452 52.6414 11.2606 52.7569C11.3761 52.8723 11.5232 52.9507 11.6833 52.9823C11.8435 53.0139 12.0094 52.9973 12.16 52.9344C12.3106 52.8715 12.4391 52.7651 12.5292 52.629C12.6193 52.4929 12.6669 52.3331 12.6659 52.1699C12.6659 51.9528 12.5797 51.7447 12.4262 51.5912C12.2727 51.4377 12.0646 51.3516 11.8476 51.3516Z" fill="white"/>
<mask id="path-4-inside-2_1188_84281" fill="white">
<path d="M52.1841 11.0029H37.4251C37.317 11.0029 37.2099 11.0242 37.1101 11.0656C37.0102 11.1069 36.9194 11.1676 36.843 11.2441C36.7666 11.3205 36.7059 11.4113 36.6646 11.5112C36.6232 11.611 36.6019 11.7181 36.6019 11.8262V15.1481C36.6019 15.1773 36.6019 15.1969 36.6019 15.2164V15.2455C36.5992 15.2665 36.5992 15.2879 36.6019 15.3089L38.6623 22.6154H25.3109L27.3714 15.3089C27.3984 15.2007 27.4066 15.0887 27.3957 14.9777V11.8067C27.3957 11.5897 27.3095 11.3815 27.1561 11.228C27.0026 11.0746 26.7944 10.9883 26.5774 10.9883H11.8183C11.6017 10.9896 11.3943 11.0763 11.2411 11.2295C11.0879 11.3826 11.0013 11.5901 11 11.8067V15.0215C11.0019 15.1179 11.0116 15.2141 11.0292 15.3089L14.3123 26.9505C14.3602 27.1229 14.4633 27.2749 14.6058 27.3831C14.7484 27.4913 14.9224 27.5498 15.1014 27.5496H16.7429V37.1017C16.7442 38.189 17.1767 39.2315 17.9456 40.0004C18.7145 40.7692 19.7569 41.2017 20.8443 41.203H27.8585C27.9754 41.3443 28.0923 41.4807 28.2238 41.6122C28.6057 42.0048 29.0481 42.3337 29.5341 42.5864V45.6503C29.5354 45.8677 29.6227 46.0758 29.7769 46.2292C29.9312 46.3825 30.1398 46.4686 30.3573 46.4686H33.6355C33.8525 46.4686 34.0606 46.3824 34.2141 46.2289C34.3676 46.0755 34.4538 45.8673 34.4538 45.6503V42.5864C34.9378 42.3305 35.3797 42.002 35.7641 41.6122C35.8907 41.4856 36.0125 41.3491 36.1294 41.2079H43.1436C44.2305 41.2066 45.2725 40.7739 46.0406 40.0049C46.8087 39.2359 47.2401 38.1935 47.2401 37.1065V27.5935H48.8816C49.0606 27.5937 49.2346 27.5351 49.3771 27.4269C49.5197 27.3187 49.6228 27.1668 49.6707 26.9944L52.9489 15.3528C52.9685 15.2814 52.9783 15.2075 52.9781 15.1335V11.8505C52.9781 11.6334 52.8919 11.4254 52.7384 11.2719C52.585 11.1184 52.3768 11.0322 52.1598 11.0322M39.1397 24.3153L39.6024 25.9569H35.2965C35.0794 25.9569 34.8713 26.0431 34.7178 26.1965C34.5644 26.35 34.4781 26.5582 34.4781 26.7752C34.4781 26.9922 34.5644 27.2004 34.7178 27.3539C34.8713 27.5073 35.0794 27.5935 35.2965 27.5935H42.3594V29.2351H21.6821V27.5935H28.7206C28.9274 27.5776 29.1205 27.4842 29.2614 27.332C29.4023 27.1798 29.4806 26.9801 29.4806 26.7727C29.4806 26.5653 29.4023 26.3656 29.2614 26.2134C29.1205 26.0613 28.9274 25.968 28.7206 25.952H24.3952L24.8531 24.3153H39.1397ZM12.6464 12.6494H25.798V14.2908H12.6464V12.6494ZM15.7346 25.9277L12.9143 15.9275H25.5058L22.6904 25.9277H15.7346ZM20.854 39.5664C20.2011 39.5664 19.575 39.3074 19.1129 38.8462C18.6508 38.3851 18.3906 37.7594 18.3893 37.1065V27.5935H20.0308V36.2883C20.0321 36.7228 20.2056 37.139 20.5133 37.4458C20.821 37.7526 21.2378 37.9248 21.6723 37.9248H26.6748C26.6839 38.4817 26.7792 39.0339 26.9573 39.5615L20.854 39.5664ZM32.822 44.8125H31.1854V43.1076C31.7278 43.1904 32.2796 43.1904 32.822 43.1076V44.8125ZM29.4123 40.4286C28.8325 39.8308 28.4669 39.0579 28.3726 38.2305C28.2783 37.403 28.4606 36.5676 28.8911 35.8547L33.9862 40.9399C33.2782 41.3843 32.4406 41.5757 31.61 41.4828C30.7793 41.3899 30.0046 41.0183 29.4123 40.4286ZM35.1406 39.7807L30.0504 34.6954C30.7583 34.2511 31.596 34.0598 32.4266 34.1527C33.2573 34.2456 34.0319 34.6172 34.6243 35.2069C35.2071 35.8031 35.5743 36.5767 35.6678 37.4052C35.7614 38.2336 35.5758 39.0696 35.1406 39.7807ZM35.7836 34.0476C34.7805 33.0555 33.4266 32.4991 32.0159 32.4991C30.6051 32.4991 29.2512 33.0555 28.2482 34.0476C27.6282 34.6629 27.1712 35.4229 26.9184 36.259H21.6869V30.8424H42.3594V36.2541H37.1133C36.8605 35.418 36.4035 34.658 35.7836 34.0427M45.6278 37.0724C45.6265 37.7244 45.3669 38.3494 44.9059 38.8104C44.4449 39.2715 43.82 39.531 43.168 39.5323H37.0646C37.2407 39.0042 37.3344 38.4522 37.3423 37.8956H42.3594C42.5747 37.8962 42.7881 37.8545 42.9872 37.7725C43.1863 37.6905 43.3673 37.57 43.5198 37.418C43.6723 37.266 43.7933 37.0853 43.8759 36.8864C43.9584 36.6875 44.0009 36.4743 44.0009 36.259V27.5642H45.6375V37.1017L45.6278 37.0724ZM48.2825 25.9179H41.3267L38.5065 15.9129H51.1272L48.2825 25.9179ZM51.361 14.2762H38.2434V12.6347H51.361V14.2762Z"/>
</mask>
<path d="M52.1841 11.0029H37.4251C37.317 11.0029 37.2099 11.0242 37.1101 11.0656C37.0102 11.1069 36.9194 11.1676 36.843 11.2441C36.7666 11.3205 36.7059 11.4113 36.6646 11.5112C36.6232 11.611 36.6019 11.7181 36.6019 11.8262V15.1481C36.6019 15.1773 36.6019 15.1969 36.6019 15.2164V15.2455C36.5992 15.2665 36.5992 15.2879 36.6019 15.3089L38.6623 22.6154H25.3109L27.3714 15.3089C27.3984 15.2007 27.4066 15.0887 27.3957 14.9777V11.8067C27.3957 11.5897 27.3095 11.3815 27.1561 11.228C27.0026 11.0746 26.7944 10.9883 26.5774 10.9883H11.8183C11.6017 10.9896 11.3943 11.0763 11.2411 11.2295C11.0879 11.3826 11.0013 11.5901 11 11.8067V15.0215C11.0019 15.1179 11.0116 15.2141 11.0292 15.3089L14.3123 26.9505C14.3602 27.1229 14.4633 27.2749 14.6058 27.3831C14.7484 27.4913 14.9224 27.5498 15.1014 27.5496H16.7429V37.1017C16.7442 38.189 17.1767 39.2315 17.9456 40.0004C18.7145 40.7692 19.7569 41.2017 20.8443 41.203H27.8585C27.9754 41.3443 28.0923 41.4807 28.2238 41.6122C28.6057 42.0048 29.0481 42.3337 29.5341 42.5864V45.6503C29.5354 45.8677 29.6227 46.0758 29.7769 46.2292C29.9312 46.3825 30.1398 46.4686 30.3573 46.4686H33.6355C33.8525 46.4686 34.0606 46.3824 34.2141 46.2289C34.3676 46.0755 34.4538 45.8673 34.4538 45.6503V42.5864C34.9378 42.3305 35.3797 42.002 35.7641 41.6122C35.8907 41.4856 36.0125 41.3491 36.1294 41.2079H43.1436C44.2305 41.2066 45.2725 40.7739 46.0406 40.0049C46.8087 39.2359 47.2401 38.1935 47.2401 37.1065V27.5935H48.8816C49.0606 27.5937 49.2346 27.5351 49.3771 27.4269C49.5197 27.3187 49.6228 27.1668 49.6707 26.9944L52.9489 15.3528C52.9685 15.2814 52.9783 15.2075 52.9781 15.1335V11.8505C52.9781 11.6334 52.8919 11.4254 52.7384 11.2719C52.585 11.1184 52.3768 11.0322 52.1598 11.0322M39.1397 24.3153L39.6024 25.9569H35.2965C35.0794 25.9569 34.8713 26.0431 34.7178 26.1965C34.5644 26.35 34.4781 26.5582 34.4781 26.7752C34.4781 26.9922 34.5644 27.2004 34.7178 27.3539C34.8713 27.5073 35.0794 27.5935 35.2965 27.5935H42.3594V29.2351H21.6821V27.5935H28.7206C28.9274 27.5776 29.1205 27.4842 29.2614 27.332C29.4023 27.1798 29.4806 26.9801 29.4806 26.7727C29.4806 26.5653 29.4023 26.3656 29.2614 26.2134C29.1205 26.0613 28.9274 25.968 28.7206 25.952H24.3952L24.8531 24.3153H39.1397ZM12.6464 12.6494H25.798V14.2908H12.6464V12.6494ZM15.7346 25.9277L12.9143 15.9275H25.5058L22.6904 25.9277H15.7346ZM20.854 39.5664C20.2011 39.5664 19.575 39.3074 19.1129 38.8462C18.6508 38.3851 18.3906 37.7594 18.3893 37.1065V27.5935H20.0308V36.2883C20.0321 36.7228 20.2056 37.139 20.5133 37.4458C20.821 37.7526 21.2378 37.9248 21.6723 37.9248H26.6748C26.6839 38.4817 26.7792 39.0339 26.9573 39.5615L20.854 39.5664ZM32.822 44.8125H31.1854V43.1076C31.7278 43.1904 32.2796 43.1904 32.822 43.1076V44.8125ZM29.4123 40.4286C28.8325 39.8308 28.4669 39.0579 28.3726 38.2305C28.2783 37.403 28.4606 36.5676 28.8911 35.8547L33.9862 40.9399C33.2782 41.3843 32.4406 41.5757 31.61 41.4828C30.7793 41.3899 30.0046 41.0183 29.4123 40.4286ZM35.1406 39.7807L30.0504 34.6954C30.7583 34.2511 31.596 34.0598 32.4266 34.1527C33.2573 34.2456 34.0319 34.6172 34.6243 35.2069C35.2071 35.8031 35.5743 36.5767 35.6678 37.4052C35.7614 38.2336 35.5758 39.0696 35.1406 39.7807ZM35.7836 34.0476C34.7805 33.0555 33.4266 32.4991 32.0159 32.4991C30.6051 32.4991 29.2512 33.0555 28.2482 34.0476C27.6282 34.6629 27.1712 35.4229 26.9184 36.259H21.6869V30.8424H42.3594V36.2541H37.1133C36.8605 35.418 36.4035 34.658 35.7836 34.0427M45.6278 37.0724C45.6265 37.7244 45.3669 38.3494 44.9059 38.8104C44.4449 39.2715 43.82 39.531 43.168 39.5323H37.0646C37.2407 39.0042 37.3344 38.4522 37.3423 37.8956H42.3594C42.5747 37.8962 42.7881 37.8545 42.9872 37.7725C43.1863 37.6905 43.3673 37.57 43.5198 37.418C43.6723 37.266 43.7933 37.0853 43.8759 36.8864C43.9584 36.6875 44.0009 36.4743 44.0009 36.259V27.5642H45.6375V37.1017L45.6278 37.0724ZM48.2825 25.9179H41.3267L38.5065 15.9129H51.1272L48.2825 25.9179ZM51.361 14.2762H38.2434V12.6347H51.361V14.2762Z" fill="white"/>
<path d="M36.6019 11.8262H36.3319H36.6019ZM36.6019 15.2455L36.8697 15.2799L36.8719 15.2628V15.2455H36.6019ZM36.6019 15.3089L36.3341 15.3433L36.3366 15.363L36.342 15.3822L36.6019 15.3089ZM38.6623 22.6154V22.8854H39.019L38.9222 22.5421L38.6623 22.6154ZM25.3109 22.6154L25.0511 22.5421L24.9543 22.8854H25.3109V22.6154ZM27.3714 15.3089L27.6313 15.3822L27.6333 15.3743L27.3714 15.3089ZM27.3957 14.9777H27.1257V14.9909L27.127 15.0041L27.3957 14.9777ZM27.3957 11.8067H27.6657H27.3957ZM11.8183 10.9883V10.7183L11.8167 10.7183L11.8183 10.9883ZM11 11.8067L10.73 11.8051V11.8067H11ZM11 15.0215H10.7299L10.7301 15.0267L11 15.0215ZM11.0292 15.3089L10.7638 15.3581L10.766 15.3703L10.7694 15.3822L11.0292 15.3089ZM14.3123 26.9505L14.5724 26.8782L14.5721 26.8772L14.3123 26.9505ZM15.1014 27.5496V27.2796H15.1011L15.1014 27.5496ZM16.7429 27.5496H17.0129V27.2796H16.7429V27.5496ZM16.7429 37.1017H16.4729L16.4729 37.102L16.7429 37.1017ZM20.8443 41.203L20.8439 41.473H20.8443V41.203ZM27.8585 41.203L28.0665 41.0309L27.9855 40.933H27.8585V41.203ZM28.2238 41.6122L28.4173 41.4239L28.4147 41.4213L28.2238 41.6122ZM29.5341 42.5864H29.8041V42.4225L29.6586 42.3468L29.5341 42.5864ZM29.5341 45.6503H29.2641L29.2641 45.6519L29.5341 45.6503ZM30.3573 46.4686V46.1986H30.3573L30.3573 46.4686ZM34.4538 45.6503H34.7238H34.4538ZM34.4538 42.5864L34.3276 42.3477L34.1838 42.4237V42.5864H34.4538ZM35.7641 41.6122L35.5732 41.4213L35.5719 41.4226L35.7641 41.6122ZM36.1294 41.2079V40.9379H36.0024L35.9214 41.0357L36.1294 41.2079ZM43.1436 41.2079V41.4779L43.1439 41.4779L43.1436 41.2079ZM47.2401 37.1065H46.9701H47.2401ZM47.2401 27.5935V27.3235H46.9701V27.5935H47.2401ZM48.8816 27.5935L48.8819 27.3235H48.8816V27.5935ZM49.6707 26.9944L49.4108 26.9212L49.4106 26.9221L49.6707 26.9944ZM52.9489 15.3528L53.2088 15.426L53.2092 15.4243L52.9489 15.3528ZM52.9781 15.1335H52.7081V15.1343L52.9781 15.1335ZM52.9781 11.8505H53.2481H52.9781ZM39.1397 24.3153L39.3995 24.2421L39.3441 24.0453H39.1397V24.3153ZM39.6024 25.9569V26.2269H39.9591L39.8623 25.8837L39.6024 25.9569ZM35.2965 25.9569V26.2269V25.9569ZM35.2965 27.5935V27.3235V27.5935ZM42.3594 27.5935H42.6294V27.3235H42.3594V27.5935ZM42.3594 29.2351V29.5051H42.6294V29.2351H42.3594ZM21.6821 29.2351H21.4121V29.5051H21.6821V29.2351ZM21.6821 27.5935V27.3235H21.4121V27.5935H21.6821ZM28.7206 27.5935V27.8635H28.731L28.7414 27.8627L28.7206 27.5935ZM28.7206 25.952L28.7414 25.6828L28.731 25.682H28.7206V25.952ZM24.3952 25.952L24.1352 25.8793L24.0393 26.222H24.3952V25.952ZM24.8531 24.3153V24.0453H24.6482L24.5931 24.2426L24.8531 24.3153ZM12.6464 12.6494V12.3794H12.3764V12.6494H12.6464ZM25.798 12.6494H26.068V12.3794H25.798V12.6494ZM25.798 14.2908V14.5608H26.068V14.2908H25.798ZM12.6464 14.2908H12.3764V14.5608H12.6464V14.2908ZM15.7346 25.9277L15.4747 26.001L15.5302 26.1977H15.7346V25.9277ZM12.9143 15.9275V15.6575H12.5576L12.6544 16.0008L12.9143 15.9275ZM25.5058 15.9275L25.7657 16.0007L25.8623 15.6575H25.5058V15.9275ZM22.6904 25.9277V26.1977H22.8948L22.9503 26.0008L22.6904 25.9277ZM20.854 39.5664L20.854 39.8364H20.8542L20.854 39.5664ZM18.3893 37.1065H18.1193L18.1193 37.1071L18.3893 37.1065ZM18.3893 27.5935V27.3235H18.1193V27.5935H18.3893ZM20.0308 27.5935H20.3008V27.3235H20.0308V27.5935ZM20.0308 36.2883H19.7608L19.7608 36.2891L20.0308 36.2883ZM21.6723 37.9248V37.6548H21.6723L21.6723 37.9248ZM26.6748 37.9248L26.9448 37.9204L26.9404 37.6548H26.6748V37.9248ZM26.9573 39.5615L26.9576 39.8315L27.3334 39.8312L27.2132 39.4752L26.9573 39.5615ZM32.822 44.8125V45.0825H33.092V44.8125H32.822ZM31.1854 44.8125H30.9153V45.0825H31.1854V44.8125ZM31.1854 43.1076L31.2261 42.8407L30.9153 42.7933V43.1076H31.1854ZM32.822 43.1076H33.092V42.7933L32.7812 42.8407L32.822 43.1076ZM29.4123 40.4286L29.2185 40.6166L29.2218 40.6199L29.4123 40.4286ZM28.8911 35.8547L29.0818 35.6636L28.838 35.4202L28.66 35.7151L28.8911 35.8547ZM33.9862 40.9399L34.1297 41.1686L34.4169 40.9884L34.1769 40.7488L33.9862 40.9399ZM35.1406 39.7807L34.9498 39.9717L35.1921 40.2138L35.3709 39.9217L35.1406 39.7807ZM30.0504 34.6954L29.9069 34.4667L29.6198 34.6469L29.8596 34.8864L30.0504 34.6954ZM34.6243 35.2069L34.8174 35.0182L34.8148 35.0156L34.6243 35.2069ZM28.2482 34.0476L28.0583 33.8556L28.058 33.8559L28.2482 34.0476ZM26.9184 36.259V36.529H27.1188L27.1768 36.3371L26.9184 36.259ZM21.6869 36.259H21.4169V36.529H21.6869V36.259ZM21.6869 30.8424V30.5724H21.4169V30.8424H21.6869ZM42.3594 30.8424H42.6294V30.5724H42.3594V30.8424ZM42.3594 36.2541V36.5241H42.6294V36.2541H42.3594ZM37.1133 36.2541L36.8549 36.3323L36.9129 36.5241H37.1133V36.2541ZM45.6278 37.0724L45.884 36.9873L45.3578 37.0719L45.6278 37.0724ZM43.168 39.5323V39.8023H43.1685L43.168 39.5323ZM37.0646 39.5323L36.8085 39.4469L36.69 39.8023H37.0646V39.5323ZM37.3423 37.8956V37.6256H37.0761L37.0723 37.8917L37.3423 37.8956ZM42.3594 37.8956L42.3602 37.6256H42.3594V37.8956ZM44.0009 36.259H43.7309H44.0009ZM44.0009 27.5642V27.2942H43.7309V27.5642H44.0009ZM45.6375 27.5642H45.9075V27.2942H45.6375V27.5642ZM45.6375 37.1017L45.3813 37.1868L45.9075 37.1017H45.6375ZM48.2825 25.9179V26.1879H48.4864L48.5422 25.9918L48.2825 25.9179ZM41.3267 25.9179L41.0669 25.9912L41.1223 26.1879H41.3267V25.9179ZM38.5065 15.9129V15.6429H38.1498L38.2466 15.9862L38.5065 15.9129ZM51.1272 15.9129L51.3869 15.9867L51.4846 15.6429H51.1272V15.9129ZM51.361 14.2762V14.5462H51.6309V14.2762H51.361ZM38.2434 14.2762H37.9734V14.5462H38.2434V14.2762ZM38.2434 12.6347V12.3647H37.9734V12.6347H38.2434ZM51.361 12.6347H51.6309V12.3647H51.361V12.6347ZM52.1841 10.7329H37.4251V11.2729H52.1841V10.7329ZM37.4251 10.7329C37.2815 10.7329 37.1393 10.7612 37.0067 10.8161L37.2134 11.315C37.2805 11.2872 37.3524 11.2729 37.4251 11.2729V10.7329ZM37.0067 10.8161C36.874 10.8711 36.7535 10.9517 36.6521 11.0532L37.0339 11.435C37.0853 11.3836 37.1463 11.3428 37.2134 11.315L37.0067 10.8161ZM36.6521 11.0532C36.5505 11.1547 36.47 11.2753 36.4151 11.4078L36.914 11.6145C36.9418 11.5473 36.9826 11.4863 37.0339 11.435L36.6521 11.0532ZM36.4151 11.4078C36.3602 11.5405 36.3319 11.6826 36.3319 11.8262H36.8719C36.8719 11.7536 36.8862 11.6816 36.914 11.6145L36.4151 11.4078ZM36.3319 11.8262V15.1481H36.8719V11.8262H36.3319ZM36.3319 15.1481C36.3319 15.1482 36.3319 15.1482 36.3319 15.1483C36.3319 15.1483 36.3319 15.1484 36.3319 15.1485C36.3319 15.1485 36.3319 15.1486 36.3319 15.1486C36.3319 15.1487 36.3319 15.1487 36.3319 15.1488C36.3319 15.1489 36.3319 15.1489 36.3319 15.149C36.3319 15.149 36.3319 15.1491 36.3319 15.1491C36.3319 15.1492 36.3319 15.1493 36.3319 15.1493C36.3319 15.1494 36.3319 15.1494 36.3319 15.1495C36.3319 15.1495 36.3319 15.1496 36.3319 15.1497C36.3319 15.1497 36.3319 15.1498 36.3319 15.1498C36.3319 15.1499 36.3319 15.1499 36.3319 15.15C36.3319 15.15 36.3319 15.1501 36.3319 15.1502C36.3319 15.1502 36.3319 15.1503 36.3319 15.1503C36.3319 15.1504 36.3319 15.1504 36.3319 15.1505C36.3319 15.1506 36.3319 15.1506 36.3319 15.1507C36.3319 15.1507 36.3319 15.1508 36.3319 15.1508C36.3319 15.1509 36.3319 15.1509 36.3319 15.151C36.3319 15.1511 36.3319 15.1511 36.3319 15.1512C36.3319 15.1512 36.3319 15.1513 36.3319 15.1513C36.3319 15.1514 36.3319 15.1514 36.3319 15.1515C36.3319 15.1516 36.3319 15.1516 36.3319 15.1517C36.3319 15.1517 36.3319 15.1518 36.3319 15.1518C36.3319 15.1519 36.3319 15.1519 36.3319 15.152C36.3319 15.1521 36.3319 15.1521 36.3319 15.1522C36.3319 15.1522 36.3319 15.1523 36.3319 15.1523C36.3319 15.1524 36.3319 15.1524 36.3319 15.1525C36.3319 15.1526 36.3319 15.1526 36.3319 15.1527C36.3319 15.1527 36.3319 15.1528 36.3319 15.1528C36.3319 15.1529 36.3319 15.1529 36.3319 15.153C36.3319 15.153 36.3319 15.1531 36.3319 15.1532C36.3319 15.1532 36.3319 15.1533 36.3319 15.1533C36.3319 15.1534 36.3319 15.1534 36.3319 15.1535C36.3319 15.1535 36.3319 15.1536 36.3319 15.1537C36.3319 15.1537 36.3319 15.1538 36.3319 15.1538C36.3319 15.1539 36.3319 15.1539 36.3319 15.154C36.3319 15.154 36.3319 15.1541 36.3319 15.1541C36.3319 15.1542 36.3319 15.1543 36.3319 15.1543C36.3319 15.1544 36.3319 15.1544 36.3319 15.1545C36.3319 15.1545 36.3319 15.1546 36.3319 15.1546C36.3319 15.1547 36.3319 15.1547 36.3319 15.1548C36.3319 15.1549 36.3319 15.1549 36.3319 15.155C36.3319 15.155 36.3319 15.1551 36.3319 15.1551C36.3319 15.1552 36.3319 15.1552 36.3319 15.1553C36.3319 15.1553 36.3319 15.1554 36.3319 15.1554C36.3319 15.1555 36.3319 15.1556 36.3319 15.1556C36.3319 15.1557 36.3319 15.1557 36.3319 15.1558C36.3319 15.1558 36.3319 15.1559 36.3319 15.1559C36.3319 15.156 36.3319 15.156 36.3319 15.1561C36.3319 15.1561 36.3319 15.1562 36.3319 15.1563C36.3319 15.1563 36.3319 15.1564 36.3319 15.1564C36.3319 15.1565 36.3319 15.1565 36.3319 15.1566C36.3319 15.1566 36.3319 15.1567 36.3319 15.1567C36.3319 15.1568 36.3319 15.1568 36.3319 15.1569C36.3319 15.1569 36.3319 15.157 36.3319 15.1571C36.3319 15.1571 36.3319 15.1572 36.3319 15.1572C36.3319 15.1573 36.3319 15.1573 36.3319 15.1574C36.3319 15.1574 36.3319 15.1575 36.3319 15.1575C36.3319 15.1576 36.3319 15.1576 36.3319 15.1577C36.3319 15.1577 36.3319 15.1578 36.3319 15.1579C36.3319 15.1579 36.3319 15.158 36.3319 15.158C36.3319 15.1581 36.3319 15.1581 36.3319 15.1582C36.3319 15.1582 36.3319 15.1583 36.3319 15.1583C36.3319 15.1584 36.3319 15.1584 36.3319 15.1585C36.3319 15.1585 36.3319 15.1586 36.3319 15.1586C36.3319 15.1587 36.3319 15.1587 36.3319 15.1588C36.3319 15.1589 36.3319 15.1589 36.3319 15.159C36.3319 15.159 36.3319 15.1591 36.3319 15.1591C36.3319 15.1592 36.3319 15.1592 36.3319 15.1593C36.3319 15.1593 36.3319 15.1594 36.3319 15.1594C36.3319 15.1595 36.3319 15.1595 36.3319 15.1596C36.3319 15.1596 36.3319 15.1597 36.3319 15.1597C36.3319 15.1598 36.3319 15.1598 36.3319 15.1599C36.3319 15.16 36.3319 15.16 36.3319 15.1601C36.3319 15.1601 36.3319 15.1602 36.3319 15.1602C36.3319 15.1603 36.3319 15.1603 36.3319 15.1604C36.3319 15.1604 36.3319 15.1605 36.3319 15.1605C36.3319 15.1606 36.3319 15.1606 36.3319 15.1607C36.3319 15.1607 36.3319 15.1608 36.3319 15.1608C36.3319 15.1609 36.3319 15.1609 36.3319 15.161C36.3319 15.161 36.3319 15.1611 36.3319 15.1611C36.3319 15.1612 36.3319 15.1613 36.3319 15.1613C36.3319 15.1614 36.3319 15.1614 36.3319 15.1615C36.3319 15.1615 36.3319 15.1616 36.3319 15.1616C36.3319 15.1617 36.3319 15.1617 36.3319 15.1618C36.3319 15.1618 36.3319 15.1619 36.3319 15.1619C36.3319 15.162 36.3319 15.162 36.3319 15.1621C36.3319 15.1621 36.3319 15.1622 36.3319 15.1622C36.3319 15.1623 36.3319 15.1623 36.3319 15.1624C36.3319 15.1624 36.3319 15.1625 36.3319 15.1625C36.3319 15.1626 36.3319 15.1626 36.3319 15.1627C36.3319 15.1627 36.3319 15.1628 36.3319 15.1628C36.3319 15.1629 36.3319 15.1629 36.3319 15.163C36.3319 15.163 36.3319 15.1631 36.3319 15.1631C36.3319 15.1632 36.3319 15.1632 36.3319 15.1633C36.3319 15.1633 36.3319 15.1634 36.3319 15.1634C36.3319 15.1635 36.3319 15.1636 36.3319 15.1636C36.3319 15.1637 36.3319 15.1637 36.3319 15.1638C36.3319 15.1638 36.3319 15.1639 36.3319 15.1639C36.3319 15.164 36.3319 15.164 36.3319 15.1641C36.3319 15.1641 36.3319 15.1642 36.3319 15.1642C36.3319 15.1643 36.3319 15.1643 36.3319 15.1644C36.3319 15.1644 36.3319 15.1645 36.3319 15.1645C36.3319 15.1646 36.3319 15.1646 36.3319 15.1647C36.3319 15.1647 36.3319 15.1648 36.3319 15.1648C36.3319 15.1649 36.3319 15.1649 36.3319 15.165C36.3319 15.165 36.3319 15.1651 36.3319 15.1651C36.3319 15.1652 36.3319 15.1652 36.3319 15.1653C36.3319 15.1653 36.3319 15.1654 36.3319 15.1654C36.3319 15.1655 36.3319 15.1655 36.3319 15.1656C36.3319 15.1656 36.3319 15.1657 36.3319 15.1657C36.3319 15.1658 36.3319 15.1658 36.3319 15.1659C36.3319 15.1659 36.3319 15.166 36.3319 15.166C36.3319 15.1661 36.3319 15.1661 36.3319 15.1662C36.3319 15.1662 36.3319 15.1663 36.3319 15.1663C36.3319 15.1664 36.3319 15.1664 36.3319 15.1665C36.3319 15.1665 36.3319 15.1666 36.3319 15.1666C36.3319 15.1667 36.3319 15.1667 36.3319 15.1668C36.3319 15.1668 36.3319 15.1669 36.3319 15.1669C36.3319 15.167 36.3319 15.167 36.3319 15.167C36.3319 15.1671 36.3319 15.1671 36.3319 15.1672C36.3319 15.1672 36.3319 15.1673 36.3319 15.1673C36.3319 15.1674 36.3319 15.1674 36.3319 15.1675C36.3319 15.1675 36.3319 15.1676 36.3319 15.1676C36.3319 15.1677 36.3319 15.1677 36.3319 15.1678C36.3319 15.1678 36.3319 15.1679 36.3319 15.1679C36.3319 15.168 36.3319 15.168 36.3319 15.1681C36.3319 15.1681 36.3319 15.1682 36.3319 15.1682C36.3319 15.1683 36.3319 15.1683 36.3319 15.1684C36.3319 15.1684 36.3319 15.1685 36.3319 15.1685C36.3319 15.1686 36.3319 15.1686 36.3319 15.1687C36.3319 15.1687 36.3319 15.1688 36.3319 15.1688C36.3319 15.1689 36.3319 15.1689 36.3319 15.169C36.3319 15.169 36.3319 15.1691 36.3319 15.1691C36.3319 15.1692 36.3319 15.1692 36.3319 15.1693C36.3319 15.1693 36.3319 15.1693 36.3319 15.1694C36.3319 15.1694 36.3319 15.1695 36.3319 15.1695C36.3319 15.1696 36.3319 15.1696 36.3319 15.1697C36.3319 15.1697 36.3319 15.1698 36.3319 15.1698C36.3319 15.1699 36.3319 15.1699 36.3319 15.17C36.3319 15.17 36.3319 15.1701 36.3319 15.1701C36.3319 15.1702 36.3319 15.1702 36.3319 15.1703C36.3319 15.1703 36.3319 15.1704 36.3319 15.1704C36.3319 15.1705 36.3319 15.1705 36.3319 15.1706C36.3319 15.1706 36.3319 15.1706 36.3319 15.1707C36.3319 15.1707 36.3319 15.1708 36.3319 15.1708C36.3319 15.1709 36.3319 15.1709 36.3319 15.171C36.3319 15.171 36.3319 15.1711 36.3319 15.1711C36.3319 15.1712 36.3319 15.1712 36.3319 15.1713C36.3319 15.1713 36.3319 15.1714 36.3319 15.1714C36.3319 15.1715 36.3319 15.1715 36.3319 15.1716C36.3319 15.1716 36.3319 15.1717 36.3319 15.1717C36.3319 15.1717 36.3319 15.1718 36.3319 15.1718C36.3319 15.1719 36.3319 15.1719 36.3319 15.172C36.3319 15.172 36.3319 15.1721 36.3319 15.1721C36.3319 15.1722 36.3319 15.1722 36.3319 15.1723C36.3319 15.1723 36.3319 15.1724 36.3319 15.1724C36.3319 15.1725 36.3319 15.1725 36.3319 15.1726C36.3319 15.1726 36.3319 15.1726 36.3319 15.1727C36.3319 15.1727 36.3319 15.1728 36.3319 15.1728C36.3319 15.1729 36.3319 15.1729 36.3319 15.173C36.3319 15.173 36.3319 15.1731 36.3319 15.1731C36.3319 15.1732 36.3319 15.1732 36.3319 15.1733C36.3319 15.1733 36.3319 15.1734 36.3319 15.1734C36.3319 15.1734 36.3319 15.1735 36.3319 15.1735C36.3319 15.1736 36.3319 15.1736 36.3319 15.1737C36.3319 15.1737 36.3319 15.1738 36.3319 15.1738C36.3319 15.1739 36.3319 15.1739 36.3319 15.174C36.3319 15.174 36.3319 15.1741 36.3319 15.1741C36.3319 15.1741 36.3319 15.1742 36.3319 15.1742C36.3319 15.1743 36.3319 15.1743 36.3319 15.1744C36.3319 15.1744 36.3319 15.1745 36.3319 15.1745C36.3319 15.1746 36.3319 15.1746 36.3319 15.1747C36.3319 15.1747 36.3319 15.1748 36.3319 15.1748C36.3319 15.1748 36.3319 15.1749 36.3319 15.1749C36.3319 15.175 36.3319 15.175 36.3319 15.1751C36.3319 15.1751 36.3319 15.1752 36.3319 15.1752C36.3319 15.1753 36.3319 15.1753 36.3319 15.1754C36.3319 15.1754 36.3319 15.1754 36.3319 15.1755C36.3319 15.1755 36.3319 15.1756 36.3319 15.1756C36.3319 15.1757 36.3319 15.1757 36.3319 15.1758C36.3319 15.1758 36.3319 15.1759 36.3319 15.1759C36.3319 15.176 36.3319 15.176 36.3319 15.176C36.3319 15.1761 36.3319 15.1761 36.3319 15.1762C36.3319 15.1762 36.3319 15.1763 36.3319 15.1763C36.3319 15.1764 36.3319 15.1764 36.3319 15.1765C36.3319 15.1765 36.3319 15.1766 36.3319 15.1766C36.3319 15.1766 36.3319 15.1767 36.3319 15.1767C36.3319 15.1768 36.3319 15.1768 36.3319 15.1769C36.3319 15.1769 36.3319 15.177 36.3319 15.177C36.3319 15.1771 36.3319 15.1771 36.3319 15.1771C36.3319 15.1772 36.3319 15.1772 36.3319 15.1773C36.3319 15.1773 36.3319 15.1774 36.3319 15.1774C36.3319 15.1775 36.3319 15.1775 36.3319 15.1776C36.3319 15.1776 36.3319 15.1777 36.3319 15.1777C36.3319 15.1777 36.3319 15.1778 36.3319 15.1778C36.3319 15.1779 36.3319 15.1779 36.3319 15.178C36.3319 15.178 36.3319 15.1781 36.3319 15.1781C36.3319 15.1781 36.3319 15.1782 36.3319 15.1782C36.3319 15.1783 36.3319 15.1783 36.3319 15.1784C36.3319 15.1784 36.3319 15.1785 36.3319 15.1785C36.3319 15.1786 36.3319 15.1786 36.3319 15.1786C36.3319 15.1787 36.3319 15.1787 36.3319 15.1788C36.3319 15.1788 36.3319 15.1789 36.3319 15.1789C36.3319 15.179 36.3319 15.179 36.3319 15.1791C36.3319 15.1791 36.3319 15.1791 36.3319 15.1792C36.3319 15.1792 36.3319 15.1793 36.3319 15.1793C36.3319 15.1794 36.3319 15.1794 36.3319 15.1795C36.3319 15.1795 36.3319 15.1795 36.3319 15.1796C36.3319 15.1796 36.3319 15.1797 36.3319 15.1797C36.3319 15.1798 36.3319 15.1798 36.3319 15.1799C36.3319 15.1799 36.3319 15.18 36.3319 15.18C36.3319 15.18 36.3319 15.1801 36.3319 15.1801C36.3319 15.1802 36.3319 15.1802 36.3319 15.1803C36.3319 15.1803 36.3319 15.1804 36.3319 15.1804C36.3319 15.1804 36.3319 15.1805 36.3319 15.1805C36.3319 15.1806 36.3319 15.1806 36.3319 15.1807C36.3319 15.1807 36.3319 15.1808 36.3319 15.1808C36.3319 15.1808 36.3319 15.1809 36.3319 15.1809C36.3319 15.181 36.3319 15.181 36.3319 15.1811C36.3319 15.1811 36.3319 15.1812 36.3319 15.1812C36.3319 15.1812 36.3319 15.1813 36.3319 15.1813C36.3319 15.1814 36.3319 15.1814 36.3319 15.1815C36.3319 15.1815 36.3319 15.1816 36.3319 15.1816C36.3319 15.1816 36.3319 15.1817 36.3319 15.1817C36.3319 15.1818 36.3319 15.1818 36.3319 15.1819C36.3319 15.1819 36.3319 15.1819 36.3319 15.182C36.3319 15.182 36.3319 15.1821 36.3319 15.1821C36.3319 15.1822 36.3319 15.1822 36.3319 15.1823C36.3319 15.1823 36.3319 15.1823 36.3319 15.1824C36.3319 15.1824 36.3319 15.1825 36.3319 15.1825C36.3319 15.1826 36.3319 15.1826 36.3319 15.1827C36.3319 15.1827 36.3319 15.1827 36.3319 15.1828C36.3319 15.1828 36.3319 15.1829 36.3319 15.1829C36.3319 15.183 36.3319 15.183 36.3319 15.183C36.3319 15.1831 36.3319 15.1831 36.3319 15.1832C36.3319 15.1832 36.3319 15.1833 36.3319 15.1833C36.3319 15.1834 36.3319 15.1834 36.3319 15.1834C36.3319 15.1835 36.3319 15.1835 36.3319 15.1836C36.3319 15.1836 36.3319 15.1837 36.3319 15.1837C36.3319 15.1837 36.3319 15.1838 36.3319 15.1838C36.3319 15.1839 36.3319 15.1839 36.3319 15.184C36.3319 15.184 36.3319 15.184 36.3319 15.1841C36.3319 15.1841 36.3319 15.1842 36.3319 15.1842C36.3319 15.1843 36.3319 15.1843 36.3319 15.1844C36.3319 15.1844 36.3319 15.1844 36.3319 15.1845C36.3319 15.1845 36.3319 15.1846 36.3319 15.1846C36.3319 15.1847 36.3319 15.1847 36.3319 15.1847C36.3319 15.1848 36.3319 15.1848 36.3319 15.1849C36.3319 15.1849 36.3319 15.185 36.3319 15.185C36.3319 15.185 36.3319 15.1851 36.3319 15.1851C36.3319 15.1852 36.3319 15.1852 36.3319 15.1853C36.3319 15.1853 36.3319 15.1853 36.3319 15.1854C36.3319 15.1854 36.3319 15.1855 36.3319 15.1855C36.3319 15.1856 36.3319 15.1856 36.3319 15.1856C36.3319 15.1857 36.3319 15.1857 36.3319 15.1858C36.3319 15.1858 36.3319 15.1859 36.3319 15.1859C36.3319 15.1859 36.3319 15.186 36.3319 15.186C36.3319 15.1861 36.3319 15.1861 36.3319 15.1862C36.3319 15.1862 36.3319 15.1862 36.3319 15.1863C36.3319 15.1863 36.3319 15.1864 36.3319 15.1864C36.3319 15.1865 36.3319 15.1865 36.3319 15.1865C36.3319 15.1866 36.3319 15.1866 36.3319 15.1867C36.3319 15.1867 36.3319 15.1868 36.3319 15.1868C36.3319 15.1868 36.3319 15.1869 36.3319 15.1869C36.3319 15.187 36.3319 15.187 36.3319 15.1871C36.3319 15.1871 36.3319 15.1871 36.3319 15.1872C36.3319 15.1872 36.3319 15.1873 36.3319 15.1873C36.3319 15.1874 36.3319 15.1874 36.3319 15.1874C36.3319 15.1875 36.3319 15.1875 36.3319 15.1876C36.3319 15.1876 36.3319 15.1877 36.3319 15.1877C36.3319 15.1877 36.3319 15.1878 36.3319 15.1878C36.3319 15.1879 36.3319 15.1879 36.3319 15.1879C36.3319 15.188 36.3319 15.188 36.3319 15.1881C36.3319 15.1881 36.3319 15.1882 36.3319 15.1882C36.3319 15.1882 36.3319 15.1883 36.3319 15.1883C36.3319 15.1884 36.3319 15.1884 36.3319 15.1885C36.3319 15.1885 36.3319 15.1885 36.3319 15.1886C36.3319 15.1886 36.3319 15.1887 36.3319 15.1887C36.3319 15.1887 36.3319 15.1888 36.3319 15.1888C36.3319 15.1889 36.3319 15.1889 36.3319 15.189C36.3319 15.189 36.3319 15.189 36.3319 15.1891C36.3319 15.1891 36.3319 15.1892 36.3319 15.1892C36.3319 15.1893 36.3319 15.1893 36.3319 15.1893C36.3319 15.1894 36.3319 15.1894 36.3319 15.1895C36.3319 15.1895 36.3319 15.1895 36.3319 15.1896C36.3319 15.1896 36.3319 15.1897 36.3319 15.1897C36.3319 15.1898 36.3319 15.1898 36.3319 15.1898C36.3319 15.1899 36.3319 15.1899 36.3319 15.19C36.3319 15.19 36.3319 15.19 36.3319 15.1901C36.3319 15.1901 36.3319 15.1902 36.3319 15.1902C36.3319 15.1903 36.3319 15.1903 36.3319 15.1903C36.3319 15.1904 36.3319 15.1904 36.3319 15.1905C36.3319 15.1905 36.3319 15.1905 36.3319 15.1906C36.3319 15.1906 36.3319 15.1907 36.3319 15.1907C36.3319 15.1908 36.3319 15.1908 36.3319 15.1908C36.3319 15.1909 36.3319 15.1909 36.3319 15.191C36.3319 15.191 36.3319 15.191 36.3319 15.1911C36.3319 15.1911 36.3319 15.1912 36.3319 15.1912C36.3319 15.1913 36.3319 15.1913 36.3319 15.1913C36.3319 15.1914 36.3319 15.1914 36.3319 15.1915C36.3319 15.1915 36.3319 15.1915 36.3319 15.1916C36.3319 15.1916 36.3319 15.1917 36.3319 15.1917C36.3319 15.1917 36.3319 15.1918 36.3319 15.1918C36.3319 15.1919 36.3319 15.1919 36.3319 15.192C36.3319 15.192 36.3319 15.192 36.3319 15.1921C36.3319 15.1921 36.3319 15.1922 36.3319 15.1922C36.3319 15.1922 36.3319 15.1923 36.3319 15.1923C36.3319 15.1924 36.3319 15.1924 36.3319 15.1925C36.3319 15.1925 36.3319 15.1925 36.3319 15.1926C36.3319 15.1926 36.3319 15.1927 36.3319 15.1927C36.3319 15.1927 36.3319 15.1928 36.3319 15.1928C36.3319 15.1929 36.3319 15.1929 36.3319 15.1929C36.3319 15.193 36.3319 15.193 36.3319 15.1931C36.3319 15.1931 36.3319 15.1931 36.3319 15.1932C36.3319 15.1932 36.3319 15.1933 36.3319 15.1933C36.3319 15.1934 36.3319 15.1934 36.3319 15.1934C36.3319 15.1935 36.3319 15.1935 36.3319 15.1936C36.3319 15.1936 36.3319 15.1936 36.3319 15.1937C36.3319 15.1937 36.3319 15.1938 36.3319 15.1938C36.3319 15.1938 36.3319 15.1939 36.3319 15.1939C36.3319 15.194 36.3319 15.194 36.3319 15.194C36.3319 15.1941 36.3319 15.1941 36.3319 15.1942C36.3319 15.1942 36.3319 15.1943 36.3319 15.1943C36.3319 15.1943 36.3319 15.1944 36.3319 15.1944C36.3319 15.1945 36.3319 15.1945 36.3319 15.1945C36.3319 15.1946 36.3319 15.1946 36.3319 15.1947C36.3319 15.1947 36.3319 15.1947 36.3319 15.1948C36.3319 15.1948 36.3319 15.1949 36.3319 15.1949C36.3319 15.1949 36.3319 15.195 36.3319 15.195C36.3319 15.1951 36.3319 15.1951 36.3319 15.1951C36.3319 15.1952 36.3319 15.1952 36.3319 15.1953C36.3319 15.1953 36.3319 15.1953 36.3319 15.1954C36.3319 15.1954 36.3319 15.1955 36.3319 15.1955C36.3319 15.1955 36.3319 15.1956 36.3319 15.1956C36.3319 15.1957 36.3319 15.1957 36.3319 15.1958C36.3319 15.1958 36.3319 15.1958 36.3319 15.1959C36.3319 15.1959 36.3319 15.196 36.3319 15.196C36.3319 15.196 36.3319 15.1961 36.3319 15.1961C36.3319 15.1962 36.3319 15.1962 36.3319 15.1962C36.3319 15.1963 36.3319 15.1963 36.3319 15.1964C36.3319 15.1964 36.3319 15.1964 36.3319 15.1965C36.3319 15.1965 36.3319 15.1966 36.3319 15.1966C36.3319 15.1966 36.3319 15.1967 36.3319 15.1967C36.3319 15.1968 36.3319 15.1968 36.3319 15.1968C36.3319 15.1969 36.3319 15.1969 36.3319 15.197C36.3319 15.197 36.3319 15.197 36.3319 15.1971C36.3319 15.1971 36.3319 15.1972 36.3319 15.1972C36.3319 15.1972 36.3319 15.1973 36.3319 15.1973C36.3319 15.1974 36.3319 15.1974 36.3319 15.1974C36.3319 15.1975 36.3319 15.1975 36.3319 15.1976C36.3319 15.1976 36.3319 15.1976 36.3319 15.1977C36.3319 15.1977 36.3319 15.1978 36.3319 15.1978C36.3319 15.1978 36.3319 15.1979 36.3319 15.1979C36.3319 15.198 36.3319 15.198 36.3319 15.198C36.3319 15.1981 36.3319 15.1981 36.3319 15.1982C36.3319 15.1982 36.3319 15.1982 36.3319 15.1983C36.3319 15.1983 36.3319 15.1984 36.3319 15.1984C36.3319 15.1984 36.3319 15.1985 36.3319 15.1985C36.3319 15.1986 36.3319 15.1986 36.3319 15.1986C36.3319 15.1987 36.3319 15.1987 36.3319 15.1988C36.3319 15.1988 36.3319 15.1988 36.3319 15.1989C36.3319 15.1989 36.3319 15.199 36.3319 15.199C36.3319 15.199 36.3319 15.1991 36.3319 15.1991C36.3319 15.1992 36.3319 15.1992 36.3319 15.1992C36.3319 15.1993 36.3319 15.1993 36.3319 15.1994C36.3319 15.1994 36.3319 15.1994 36.3319 15.1995C36.3319 15.1995 36.3319 15.1996 36.3319 15.1996C36.3319 15.1996 36.3319 15.1997 36.3319 15.1997C36.3319 15.1997 36.3319 15.1998 36.3319 15.1998C36.3319 15.1999 36.3319 15.1999 36.3319 15.1999C36.3319 15.2 36.3319 15.2 36.3319 15.2001C36.3319 15.2001 36.3319 15.2001 36.3319 15.2002C36.3319 15.2002 36.3319 15.2003 36.3319 15.2003C36.3319 15.2003 36.3319 15.2004 36.3319 15.2004C36.3319 15.2005 36.3319 15.2005 36.3319 15.2005C36.3319 15.2006 36.3319 15.2006 36.3319 15.2007C36.3319 15.2007 36.3319 15.2007 36.3319 15.2008C36.3319 15.2008 36.3319 15.2009 36.3319 15.2009C36.3319 15.2009 36.3319 15.201 36.3319 15.201C36.3319 15.2011 36.3319 15.2011 36.3319 15.2011C36.3319 15.2012 36.3319 15.2012 36.3319 15.2013C36.3319 15.2013 36.3319 15.2013 36.3319 15.2014C36.3319 15.2014 36.3319 15.2014 36.3319 15.2015C36.3319 15.2015 36.3319 15.2016 36.3319 15.2016C36.3319 15.2016 36.3319 15.2017 36.3319 15.2017C36.3319 15.2018 36.3319 15.2018 36.3319 15.2018C36.3319 15.2019 36.3319 15.2019 36.3319 15.202C36.3319 15.202 36.3319 15.202 36.3319 15.2021C36.3319 15.2021 36.3319 15.2022 36.3319 15.2022C36.3319 15.2022 36.3319 15.2023 36.3319 15.2023C36.3319 15.2023 36.3319 15.2024 36.3319 15.2024C36.3319 15.2025 36.3319 15.2025 36.3319 15.2025C36.3319 15.2026 36.3319 15.2026 36.3319 15.2027C36.3319 15.2027 36.3319 15.2027 36.3319 15.2028C36.3319 15.2028 36.3319 15.2029 36.3319 15.2029C36.3319 15.2029 36.3319 15.203 36.3319 15.203C36.3319 15.2031 36.3319 15.2031 36.3319 15.2031C36.3319 15.2032 36.3319 15.2032 36.3319 15.2032C36.3319 15.2033 36.3319 15.2033 36.3319 15.2034C36.3319 15.2034 36.3319 15.2034 36.3319 15.2035C36.3319 15.2035 36.3319 15.2036 36.3319 15.2036C36.3319 15.2036 36.3319 15.2037 36.3319 15.2037C36.3319 15.2038 36.3319 15.2038 36.3319 15.2038C36.3319 15.2039 36.3319 15.2039 36.3319 15.204C36.3319 15.204 36.3319 15.204 36.3319 15.2041C36.3319 15.2041 36.3319 15.2041 36.3319 15.2042C36.3319 15.2042 36.3319 15.2043 36.3319 15.2043C36.3319 15.2043 36.3319 15.2044 36.3319 15.2044C36.3319 15.2045 36.3319 15.2045 36.3319 15.2045C36.3319 15.2046 36.3319 15.2046 36.3319 15.2047C36.3319 15.2047 36.3319 15.2047 36.3319 15.2048C36.3319 15.2048 36.3319 15.2048 36.3319 15.2049C36.3319 15.2049 36.3319 15.205 36.3319 15.205C36.3319 15.205 36.3319 15.2051 36.3319 15.2051C36.3319 15.2052 36.3319 15.2052 36.3319 15.2052C36.3319 15.2053 36.3319 15.2053 36.3319 15.2053C36.3319 15.2054 36.3319 15.2054 36.3319 15.2055C36.3319 15.2055 36.3319 15.2055 36.3319 15.2056C36.3319 15.2056 36.3319 15.2057 36.3319 15.2057C36.3319 15.2057 36.3319 15.2058 36.3319 15.2058C36.3319 15.2059 36.3319 15.2059 36.3319 15.2059C36.3319 15.206 36.3319 15.206 36.3319 15.206C36.3319 15.2061 36.3319 15.2061 36.3319 15.2062C36.3319 15.2062 36.3319 15.2062 36.3319 15.2063C36.3319 15.2063 36.3319 15.2064 36.3319 15.2064C36.3319 15.2064 36.3319 15.2065 36.3319 15.2065C36.3319 15.2065 36.3319 15.2066 36.3319 15.2066C36.3319 15.2067 36.3319 15.2067 36.3319 15.2067C36.3319 15.2068 36.3319 15.2068 36.3319 15.2069C36.3319 15.2069 36.3319 15.2069 36.3319 15.207C36.3319 15.207 36.3319 15.2071 36.3319 15.2071C36.3319 15.2071 36.3319 15.2072 36.3319 15.2072C36.3319 15.2072 36.3319 15.2073 36.3319 15.2073C36.3319 15.2074 36.3319 15.2074 36.3319 15.2074C36.3319 15.2075 36.3319 15.2075 36.3319 15.2076C36.3319 15.2076 36.3319 15.2076 36.3319 15.2077C36.3319 15.2077 36.3319 15.2077 36.3319 15.2078C36.3319 15.2078 36.3319 15.2079 36.3319 15.2079C36.3319 15.2079 36.3319 15.208 36.3319 15.208C36.3319 15.2081 36.3319 15.2081 36.3319 15.2081C36.3319 15.2082 36.3319 15.2082 36.3319 15.2082C36.3319 15.2083 36.3319 15.2083 36.3319 15.2084C36.3319 15.2084 36.3319 15.2084 36.3319 15.2085C36.3319 15.2085 36.3319 15.2086 36.3319 15.2086C36.3319 15.2086 36.3319 15.2087 36.3319 15.2087C36.3319 15.2087 36.3319 15.2088 36.3319 15.2088C36.3319 15.2089 36.3319 15.2089 36.3319 15.2089C36.3319 15.209 36.3319 15.209 36.3319 15.2091C36.3319 15.2091 36.3319 15.2091 36.3319 15.2092C36.3319 15.2092 36.3319 15.2092 36.3319 15.2093C36.3319 15.2093 36.3319 15.2094 36.3319 15.2094C36.3319 15.2094 36.3319 15.2095 36.3319 15.2095C36.3319 15.2095 36.3319 15.2096 36.3319 15.2096C36.3319 15.2097 36.3319 15.2097 36.3319 15.2097C36.3319 15.2098 36.3319 15.2098 36.3319 15.2099C36.3319 15.2099 36.3319 15.2099 36.3319 15.21C36.3319 15.21 36.3319 15.21 36.3319 15.2101C36.3319 15.2101 36.3319 15.2102 36.3319 15.2102C36.3319 15.2102 36.3319 15.2103 36.3319 15.2103C36.3319 15.2104 36.3319 15.2104 36.3319 15.2104C36.3319 15.2105 36.3319 15.2105 36.3319 15.2105C36.3319 15.2106 36.3319 15.2106 36.3319 15.2107C36.3319 15.2107 36.3319 15.2107 36.3319 15.2108C36.3319 15.2108 36.3319 15.2109 36.3319 15.2109C36.3319 15.2109 36.3319 15.211 36.3319 15.211C36.3319 15.211 36.3319 15.2111 36.3319 15.2111C36.3319 15.2112 36.3319 15.2112 36.3319 15.2112C36.3319 15.2113 36.3319 15.2113 36.3319 15.2113C36.3319 15.2114 36.3319 15.2114 36.3319 15.2115C36.3319 15.2115 36.3319 15.2115 36.3319 15.2116C36.3319 15.2116 36.3319 15.2117 36.3319 15.2117C36.3319 15.2117 36.3319 15.2118 36.3319 15.2118C36.3319 15.2118 36.3319 15.2119 36.3319 15.2119C36.3319 15.212 36.3319 15.212 36.3319 15.212C36.3319 15.2121 36.3319 15.2121 36.3319 15.2122C36.3319 15.2122 36.3319 15.2122 36.3319 15.2123C36.3319 15.2123 36.3319 15.2123 36.3319 15.2124C36.3319 15.2124 36.3319 15.2125 36.3319 15.2125C36.3319 15.2125 36.3319 15.2126 36.3319 15.2126C36.3319 15.2126 36.3319 15.2127 36.3319 15.2127C36.3319 15.2128 36.3319 15.2128 36.3319 15.2128C36.3319 15.2129 36.3319 15.2129 36.3319 15.213C36.3319 15.213 36.3319 15.213 36.3319 15.2131C36.3319 15.2131 36.3319 15.2131 36.3319 15.2132C36.3319 15.2132 36.3319 15.2133 36.3319 15.2133C36.3319 15.2133 36.3319 15.2134 36.3319 15.2134C36.3319 15.2134 36.3319 15.2135 36.3319 15.2135C36.3319 15.2136 36.3319 15.2136 36.3319 15.2136C36.3319 15.2137 36.3319 15.2137 36.3319 15.2138C36.3319 15.2138 36.3319 15.2138 36.3319 15.2139C36.3319 15.2139 36.3319 15.2139 36.3319 15.214C36.3319 15.214 36.3319 15.2141 36.3319 15.2141C36.3319 15.2141 36.3319 15.2142 36.3319 15.2142C36.3319 15.2142 36.3319 15.2143 36.3319 15.2143C36.3319 15.2144 36.3319 15.2144 36.3319 15.2144C36.3319 15.2145 36.3319 15.2145 36.3319 15.2146C36.3319 15.2146 36.3319 15.2146 36.3319 15.2147C36.3319 15.2147 36.3319 15.2147 36.3319 15.2148C36.3319 15.2148 36.3319 15.2149 36.3319 15.2149C36.3319 15.2149 36.3319 15.215 36.3319 15.215C36.3319 15.215 36.3319 15.2151 36.3319 15.2151C36.3319 15.2152 36.3319 15.2152 36.3319 15.2152C36.3319 15.2153 36.3319 15.2153 36.3319 15.2154C36.3319 15.2154 36.3319 15.2154 36.3319 15.2155C36.3319 15.2155 36.3319 15.2155 36.3319 15.2156C36.3319 15.2156 36.3319 15.2157 36.3319 15.2157C36.3319 15.2157 36.3319 15.2158 36.3319 15.2158C36.3319 15.2158 36.3319 15.2159 36.3319 15.2159C36.3319 15.216 36.3319 15.216 36.3319 15.216C36.3319 15.2161 36.3319 15.2161 36.3319 15.2162C36.3319 15.2162 36.3319 15.2162 36.3319 15.2163C36.3319 15.2163 36.3319 15.2163 36.3319 15.2164H36.8719C36.8719 15.2163 36.8719 15.2163 36.8719 15.2163C36.8719 15.2162 36.8719 15.2162 36.8719 15.2162C36.8719 15.2161 36.8719 15.2161 36.8719 15.216C36.8719 15.216 36.8719 15.216 36.8719 15.2159C36.8719 15.2159 36.8719 15.2158 36.8719 15.2158C36.8719 15.2158 36.8719 15.2157 36.8719 15.2157C36.8719 15.2157 36.8719 15.2156 36.8719 15.2156C36.8719 15.2155 36.8719 15.2155 36.8719 15.2155C36.8719 15.2154 36.8719 15.2154 36.8719 15.2154C36.8719 15.2153 36.8719 15.2153 36.8719 15.2152C36.8719 15.2152 36.8719 15.2152 36.8719 15.2151C36.8719 15.2151 36.8719 15.215 36.8719 15.215C36.8719 15.215 36.8719 15.2149 36.8719 15.2149C36.8719 15.2149 36.8719 15.2148 36.8719 15.2148C36.8719 15.2147 36.8719 15.2147 36.8719 15.2147C36.8719 15.2146 36.8719 15.2146 36.8719 15.2146C36.8719 15.2145 36.8719 15.2145 36.8719 15.2144C36.8719 15.2144 36.8719 15.2144 36.8719 15.2143C36.8719 15.2143 36.8719 15.2142 36.8719 15.2142C36.8719 15.2142 36.8719 15.2141 36.8719 15.2141C36.8719 15.2141 36.8719 15.214 36.8719 15.214C36.8719 15.2139 36.8719 15.2139 36.8719 15.2139C36.8719 15.2138 36.8719 15.2138 36.8719 15.2138C36.8719 15.2137 36.8719 15.2137 36.8719 15.2136C36.8719 15.2136 36.8719 15.2136 36.8719 15.2135C36.8719 15.2135 36.8719 15.2134 36.8719 15.2134C36.8719 15.2134 36.8719 15.2133 36.8719 15.2133C36.8719 15.2133 36.8719 15.2132 36.8719 15.2132C36.8719 15.2131 36.8719 15.2131 36.8719 15.2131C36.8719 15.213 36.8719 15.213 36.8719 15.213C36.8719 15.2129 36.8719 15.2129 36.8719 15.2128C36.8719 15.2128 36.8719 15.2128 36.8719 15.2127C36.8719 15.2127 36.8719 15.2126 36.8719 15.2126C36.8719 15.2126 36.8719 15.2125 36.8719 15.2125C36.8719 15.2125 36.8719 15.2124 36.8719 15.2124C36.8719 15.2123 36.8719 15.2123 36.8719 15.2123C36.8719 15.2122 36.8719 15.2122 36.8719 15.2122C36.8719 15.2121 36.8719 15.2121 36.8719 15.212C36.8719 15.212 36.8719 15.212 36.8719 15.2119C36.8719 15.2119 36.8719 15.2118 36.8719 15.2118C36.8719 15.2118 36.8719 15.2117 36.8719 15.2117C36.8719 15.2117 36.8719 15.2116 36.8719 15.2116C36.8719 15.2115 36.8719 15.2115 36.8719 15.2115C36.8719 15.2114 36.8719 15.2114 36.8719 15.2113C36.8719 15.2113 36.8719 15.2113 36.8719 15.2112C36.8719 15.2112 36.8719 15.2112 36.8719 15.2111C36.8719 15.2111 36.8719 15.211 36.8719 15.211C36.8719 15.211 36.8719 15.2109 36.8719 15.2109C36.8719 15.2109 36.8719 15.2108 36.8719 15.2108C36.8719 15.2107 36.8719 15.2107 36.8719 15.2107C36.8719 15.2106 36.8719 15.2106 36.8719 15.2105C36.8719 15.2105 36.8719 15.2105 36.8719 15.2104C36.8719 15.2104 36.8719 15.2104 36.8719 15.2103C36.8719 15.2103 36.8719 15.2102 36.8719 15.2102C36.8719 15.2102 36.8719 15.2101 36.8719 15.2101C36.8719 15.21 36.8719 15.21 36.8719 15.21C36.8719 15.2099 36.8719 15.2099 36.8719 15.2099C36.8719 15.2098 36.8719 15.2098 36.8719 15.2097C36.8719 15.2097 36.8719 15.2097 36.8719 15.2096C36.8719 15.2096 36.8719 15.2095 36.8719 15.2095C36.8719 15.2095 36.8719 15.2094 36.8719 15.2094C36.8719 15.2094 36.8719 15.2093 36.8719 15.2093C36.8719 15.2092 36.8719 15.2092 36.8719 15.2092C36.8719 15.2091 36.8719 15.2091 36.8719 15.2091C36.8719 15.209 36.8719 15.209 36.8719 15.2089C36.8719 15.2089 36.8719 15.2089 36.8719 15.2088C36.8719 15.2088 36.8719 15.2087 36.8719 15.2087C36.8719 15.2087 36.8719 15.2086 36.8719 15.2086C36.8719 15.2086 36.8719 15.2085 36.8719 15.2085C36.8719 15.2084 36.8719 15.2084 36.8719 15.2084C36.8719 15.2083 36.8719 15.2083 36.8719 15.2082C36.8719 15.2082 36.8719 15.2082 36.8719 15.2081C36.8719 15.2081 36.8719 15.2081 36.8719 15.208C36.8719 15.208 36.8719 15.2079 36.8719 15.2079C36.8719 15.2079 36.8719 15.2078 36.8719 15.2078C36.8719 15.2077 36.8719 15.2077 36.8719 15.2077C36.8719 15.2076 36.8719 15.2076 36.8719 15.2076C36.8719 15.2075 36.8719 15.2075 36.8719 15.2074C36.8719 15.2074 36.8719 15.2074 36.8719 15.2073C36.8719 15.2073 36.8719 15.2072 36.8719 15.2072C36.8719 15.2072 36.8719 15.2071 36.8719 15.2071C36.8719 15.2071 36.8719 15.207 36.8719 15.207C36.8719 15.2069 36.8719 15.2069 36.8719 15.2069C36.8719 15.2068 36.8719 15.2068 36.8719 15.2067C36.8719 15.2067 36.8719 15.2067 36.8719 15.2066C36.8719 15.2066 36.8719 15.2065 36.8719 15.2065C36.8719 15.2065 36.8719 15.2064 36.8719 15.2064C36.8719 15.2064 36.8719 15.2063 36.8719 15.2063C36.8719 15.2062 36.8719 15.2062 36.8719 15.2062C36.8719 15.2061 36.8719 15.2061 36.8719 15.206C36.8719 15.206 36.8719 15.206 36.8719 15.2059C36.8719 15.2059 36.8719 15.2059 36.8719 15.2058C36.8719 15.2058 36.8719 15.2057 36.8719 15.2057C36.8719 15.2057 36.8719 15.2056 36.8719 15.2056C36.8719 15.2055 36.8719 15.2055 36.8719 15.2055C36.8719 15.2054 36.8719 15.2054 36.8719 15.2053C36.8719 15.2053 36.8719 15.2053 36.8719 15.2052C36.8719 15.2052 36.8719 15.2052 36.8719 15.2051C36.8719 15.2051 36.8719 15.205 36.8719 15.205C36.8719 15.205 36.8719 15.2049 36.8719 15.2049C36.8719 15.2048 36.8719 15.2048 36.8719 15.2048C36.8719 15.2047 36.8719 15.2047 36.8719 15.2047C36.8719 15.2046 36.8719 15.2046 36.8719 15.2045C36.8719 15.2045 36.8719 15.2045 36.8719 15.2044C36.8719 15.2044 36.8719 15.2043 36.8719 15.2043C36.8719 15.2043 36.8719 15.2042 36.8719 15.2042C36.8719 15.2041 36.8719 15.2041 36.8719 15.2041C36.8719 15.204 36.8719 15.204 36.8719 15.204C36.8719 15.2039 36.8719 15.2039 36.8719 15.2038C36.8719 15.2038 36.8719 15.2038 36.8719 15.2037C36.8719 15.2037 36.8719 15.2036 36.8719 15.2036C36.8719 15.2036 36.8719 15.2035 36.8719 15.2035C36.8719 15.2034 36.8719 15.2034 36.8719 15.2034C36.8719 15.2033 36.8719 15.2033 36.8719 15.2032C36.8719 15.2032 36.8719 15.2032 36.8719 15.2031C36.8719 15.2031 36.8719 15.2031 36.8719 15.203C36.8719 15.203 36.8719 15.2029 36.8719 15.2029C36.8719 15.2029 36.8719 15.2028 36.8719 15.2028C36.8719 15.2027 36.8719 15.2027 36.8719 15.2027C36.8719 15.2026 36.8719 15.2026 36.8719 15.2025C36.8719 15.2025 36.8719 15.2025 36.8719 15.2024C36.8719 15.2024 36.8719 15.2023 36.8719 15.2023C36.8719 15.2023 36.8719 15.2022 36.8719 15.2022C36.8719 15.2022 36.8719 15.2021 36.8719 15.2021C36.8719 15.202 36.8719 15.202 36.8719 15.202C36.8719 15.2019 36.8719 15.2019 36.8719 15.2018C36.8719 15.2018 36.8719 15.2018 36.8719 15.2017C36.8719 15.2017 36.8719 15.2016 36.8719 15.2016C36.8719 15.2016 36.8719 15.2015 36.8719 15.2015C36.8719 15.2014 36.8719 15.2014 36.8719 15.2014C36.8719 15.2013 36.8719 15.2013 36.8719 15.2013C36.8719 15.2012 36.8719 15.2012 36.8719 15.2011C36.8719 15.2011 36.8719 15.2011 36.8719 15.201C36.8719 15.201 36.8719 15.2009 36.8719 15.2009C36.8719 15.2009 36.8719 15.2008 36.8719 15.2008C36.8719 15.2007 36.8719 15.2007 36.8719 15.2007C36.8719 15.2006 36.8719 15.2006 36.8719 15.2005C36.8719 15.2005 36.8719 15.2005 36.8719 15.2004C36.8719 15.2004 36.8719 15.2003 36.8719 15.2003C36.8719 15.2003 36.8719 15.2002 36.8719 15.2002C36.8719 15.2001 36.8719 15.2001 36.8719 15.2001C36.8719 15.2 36.8719 15.2 36.8719 15.1999C36.8719 15.1999 36.8719 15.1999 36.8719 15.1998C36.8719 15.1998 36.8719 15.1997 36.8719 15.1997C36.8719 15.1997 36.8719 15.1996 36.8719 15.1996C36.8719 15.1996 36.8719 15.1995 36.8719 15.1995C36.8719 15.1994 36.8719 15.1994 36.8719 15.1994C36.8719 15.1993 36.8719 15.1993 36.8719 15.1992C36.8719 15.1992 36.8719 15.1992 36.8719 15.1991C36.8719 15.1991 36.8719 15.199 36.8719 15.199C36.8719 15.199 36.8719 15.1989 36.8719 15.1989C36.8719 15.1988 36.8719 15.1988 36.8719 15.1988C36.8719 15.1987 36.8719 15.1987 36.8719 15.1986C36.8719 15.1986 36.8719 15.1986 36.8719 15.1985C36.8719 15.1985 36.8719 15.1984 36.8719 15.1984C36.8719 15.1984 36.8719 15.1983 36.8719 15.1983C36.8719 15.1982 36.8719 15.1982 36.8719 15.1982C36.8719 15.1981 36.8719 15.1981 36.8719 15.198C36.8719 15.198 36.8719 15.198 36.8719 15.1979C36.8719 15.1979 36.8719 15.1978 36.8719 15.1978C36.8719 15.1978 36.8719 15.1977 36.8719 15.1977C36.8719 15.1976 36.8719 15.1976 36.8719 15.1976C36.8719 15.1975 36.8719 15.1975 36.8719 15.1974C36.8719 15.1974 36.8719 15.1974 36.8719 15.1973C36.8719 15.1973 36.8719 15.1972 36.8719 15.1972C36.8719 15.1972 36.8719 15.1971 36.8719 15.1971C36.8719 15.197 36.8719 15.197 36.8719 15.197C36.8719 15.1969 36.8719 15.1969 36.8719 15.1968C36.8719 15.1968 36.8719 15.1968 36.8719 15.1967C36.8719 15.1967 36.8719 15.1966 36.8719 15.1966C36.8719 15.1966 36.8719 15.1965 36.8719 15.1965C36.8719 15.1964 36.8719 15.1964 36.8719 15.1964C36.8719 15.1963 36.8719 15.1963 36.8719 15.1962C36.8719 15.1962 36.8719 15.1962 36.8719 15.1961C36.8719 15.1961 36.8719 15.196 36.8719 15.196C36.8719 15.196 36.8719 15.1959 36.8719 15.1959C36.8719 15.1958 36.8719 15.1958 36.8719 15.1958C36.8719 15.1957 36.8719 15.1957 36.8719 15.1956C36.8719 15.1956 36.8719 15.1955 36.8719 15.1955C36.8719 15.1955 36.8719 15.1954 36.8719 15.1954C36.8719 15.1953 36.8719 15.1953 36.8719 15.1953C36.8719 15.1952 36.8719 15.1952 36.8719 15.1951C36.8719 15.1951 36.8719 15.1951 36.8719 15.195C36.8719 15.195 36.8719 15.1949 36.8719 15.1949C36.8719 15.1949 36.8719 15.1948 36.8719 15.1948C36.8719 15.1947 36.8719 15.1947 36.8719 15.1947C36.8719 15.1946 36.8719 15.1946 36.8719 15.1945C36.8719 15.1945 36.8719 15.1945 36.8719 15.1944C36.8719 15.1944 36.8719 15.1943 36.8719 15.1943C36.8719 15.1943 36.8719 15.1942 36.8719 15.1942C36.8719 15.1941 36.8719 15.1941 36.8719 15.194C36.8719 15.194 36.8719 15.194 36.8719 15.1939C36.8719 15.1939 36.8719 15.1938 36.8719 15.1938C36.8719 15.1938 36.8719 15.1937 36.8719 15.1937C36.8719 15.1936 36.8719 15.1936 36.8719 15.1936C36.8719 15.1935 36.8719 15.1935 36.8719 15.1934C36.8719 15.1934 36.8719 15.1934 36.8719 15.1933C36.8719 15.1933 36.8719 15.1932 36.8719 15.1932C36.8719 15.1931 36.8719 15.1931 36.8719 15.1931C36.8719 15.193 36.8719 15.193 36.8719 15.1929C36.8719 15.1929 36.8719 15.1929 36.8719 15.1928C36.8719 15.1928 36.8719 15.1927 36.8719 15.1927C36.8719 15.1927 36.8719 15.1926 36.8719 15.1926C36.8719 15.1925 36.8719 15.1925 36.8719 15.1925C36.8719 15.1924 36.8719 15.1924 36.8719 15.1923C36.8719 15.1923 36.8719 15.1922 36.8719 15.1922C36.8719 15.1922 36.8719 15.1921 36.8719 15.1921C36.8719 15.192 36.8719 15.192 36.8719 15.192C36.8719 15.1919 36.8719 15.1919 36.8719 15.1918C36.8719 15.1918 36.8719 15.1917 36.8719 15.1917C36.8719 15.1917 36.8719 15.1916 36.8719 15.1916C36.8719 15.1915 36.8719 15.1915 36.8719 15.1915C36.8719 15.1914 36.8719 15.1914 36.8719 15.1913C36.8719 15.1913 36.8719 15.1913 36.8719 15.1912C36.8719 15.1912 36.8719 15.1911 36.8719 15.1911C36.8719 15.191 36.8719 15.191 36.8719 15.191C36.8719 15.1909 36.8719 15.1909 36.8719 15.1908C36.8719 15.1908 36.8719 15.1908 36.8719 15.1907C36.8719 15.1907 36.8719 15.1906 36.8719 15.1906C36.8719 15.1905 36.8719 15.1905 36.8719 15.1905C36.8719 15.1904 36.8719 15.1904 36.8719 15.1903C36.8719 15.1903 36.8719 15.1903 36.8719 15.1902C36.8719 15.1902 36.8719 15.1901 36.8719 15.1901C36.8719 15.19 36.8719 15.19 36.8719 15.19C36.8719 15.1899 36.8719 15.1899 36.8719 15.1898C36.8719 15.1898 36.8719 15.1898 36.8719 15.1897C36.8719 15.1897 36.8719 15.1896 36.8719 15.1896C36.8719 15.1895 36.8719 15.1895 36.8719 15.1895C36.8719 15.1894 36.8719 15.1894 36.8719 15.1893C36.8719 15.1893 36.8719 15.1893 36.8719 15.1892C36.8719 15.1892 36.8719 15.1891 36.8719 15.1891C36.8719 15.189 36.8719 15.189 36.8719 15.189C36.8719 15.1889 36.8719 15.1889 36.8719 15.1888C36.8719 15.1888 36.8719 15.1887 36.8719 15.1887C36.8719 15.1887 36.8719 15.1886 36.8719 15.1886C36.8719 15.1885 36.8719 15.1885 36.8719 15.1885C36.8719 15.1884 36.8719 15.1884 36.8719 15.1883C36.8719 15.1883 36.8719 15.1882 36.8719 15.1882C36.8719 15.1882 36.8719 15.1881 36.8719 15.1881C36.8719 15.188 36.8719 15.188 36.8719 15.1879C36.8719 15.1879 36.8719 15.1879 36.8719 15.1878C36.8719 15.1878 36.8719 15.1877 36.8719 15.1877C36.8719 15.1877 36.8719 15.1876 36.8719 15.1876C36.8719 15.1875 36.8719 15.1875 36.8719 15.1874C36.8719 15.1874 36.8719 15.1874 36.8719 15.1873C36.8719 15.1873 36.8719 15.1872 36.8719 15.1872C36.8719 15.1871 36.8719 15.1871 36.8719 15.1871C36.8719 15.187 36.8719 15.187 36.8719 15.1869C36.8719 15.1869 36.8719 15.1868 36.8719 15.1868C36.8719 15.1868 36.8719 15.1867 36.8719 15.1867C36.8719 15.1866 36.8719 15.1866 36.8719 15.1865C36.8719 15.1865 36.8719 15.1865 36.8719 15.1864C36.8719 15.1864 36.8719 15.1863 36.8719 15.1863C36.8719 15.1862 36.8719 15.1862 36.8719 15.1862C36.8719 15.1861 36.8719 15.1861 36.8719 15.186C36.8719 15.186 36.8719 15.1859 36.8719 15.1859C36.8719 15.1859 36.8719 15.1858 36.8719 15.1858C36.8719 15.1857 36.8719 15.1857 36.8719 15.1856C36.8719 15.1856 36.8719 15.1856 36.8719 15.1855C36.8719 15.1855 36.8719 15.1854 36.8719 15.1854C36.8719 15.1853 36.8719 15.1853 36.8719 15.1853C36.8719 15.1852 36.8719 15.1852 36.8719 15.1851C36.8719 15.1851 36.8719 15.185 36.8719 15.185C36.8719 15.185 36.8719 15.1849 36.8719 15.1849C36.8719 15.1848 36.8719 15.1848 36.8719 15.1847C36.8719 15.1847 36.8719 15.1847 36.8719 15.1846C36.8719 15.1846 36.8719 15.1845 36.8719 15.1845C36.8719 15.1844 36.8719 15.1844 36.8719 15.1844C36.8719 15.1843 36.8719 15.1843 36.8719 15.1842C36.8719 15.1842 36.8719 15.1841 36.8719 15.1841C36.8719 15.184 36.8719 15.184 36.8719 15.184C36.8719 15.1839 36.8719 15.1839 36.8719 15.1838C36.8719 15.1838 36.8719 15.1837 36.8719 15.1837C36.8719 15.1837 36.8719 15.1836 36.8719 15.1836C36.8719 15.1835 36.8719 15.1835 36.8719 15.1834C36.8719 15.1834 36.8719 15.1834 36.8719 15.1833C36.8719 15.1833 36.8719 15.1832 36.8719 15.1832C36.8719 15.1831 36.8719 15.1831 36.8719 15.183C36.8719 15.183 36.8719 15.183 36.8719 15.1829C36.8719 15.1829 36.8719 15.1828 36.8719 15.1828C36.8719 15.1827 36.8719 15.1827 36.8719 15.1827C36.8719 15.1826 36.8719 15.1826 36.8719 15.1825C36.8719 15.1825 36.8719 15.1824 36.8719 15.1824C36.8719 15.1823 36.8719 15.1823 36.8719 15.1823C36.8719 15.1822 36.8719 15.1822 36.8719 15.1821C36.8719 15.1821 36.8719 15.182 36.8719 15.182C36.8719 15.1819 36.8719 15.1819 36.8719 15.1819C36.8719 15.1818 36.8719 15.1818 36.8719 15.1817C36.8719 15.1817 36.8719 15.1816 36.8719 15.1816C36.8719 15.1816 36.8719 15.1815 36.8719 15.1815C36.8719 15.1814 36.8719 15.1814 36.8719 15.1813C36.8719 15.1813 36.8719 15.1812 36.8719 15.1812C36.8719 15.1812 36.8719 15.1811 36.8719 15.1811C36.8719 15.181 36.8719 15.181 36.8719 15.1809C36.8719 15.1809 36.8719 15.1808 36.8719 15.1808C36.8719 15.1808 36.8719 15.1807 36.8719 15.1807C36.8719 15.1806 36.8719 15.1806 36.8719 15.1805C36.8719 15.1805 36.8719 15.1804 36.8719 15.1804C36.8719 15.1804 36.8719 15.1803 36.8719 15.1803C36.8719 15.1802 36.8719 15.1802 36.8719 15.1801C36.8719 15.1801 36.8719 15.18 36.8719 15.18C36.8719 15.18 36.8719 15.1799 36.8719 15.1799C36.8719 15.1798 36.8719 15.1798 36.8719 15.1797C36.8719 15.1797 36.8719 15.1796 36.8719 15.1796C36.8719 15.1795 36.8719 15.1795 36.8719 15.1795C36.8719 15.1794 36.8719 15.1794 36.8719 15.1793C36.8719 15.1793 36.8719 15.1792 36.8719 15.1792C36.8719 15.1791 36.8719 15.1791 36.8719 15.1791C36.8719 15.179 36.8719 15.179 36.8719 15.1789C36.8719 15.1789 36.8719 15.1788 36.8719 15.1788C36.8719 15.1787 36.8719 15.1787 36.8719 15.1786C36.8719 15.1786 36.8719 15.1786 36.8719 15.1785C36.8719 15.1785 36.8719 15.1784 36.8719 15.1784C36.8719 15.1783 36.8719 15.1783 36.8719 15.1782C36.8719 15.1782 36.8719 15.1781 36.8719 15.1781C36.8719 15.1781 36.8719 15.178 36.8719 15.178C36.8719 15.1779 36.8719 15.1779 36.8719 15.1778C36.8719 15.1778 36.8719 15.1777 36.8719 15.1777C36.8719 15.1777 36.8719 15.1776 36.8719 15.1776C36.8719 15.1775 36.8719 15.1775 36.8719 15.1774C36.8719 15.1774 36.8719 15.1773 36.8719 15.1773C36.8719 15.1772 36.8719 15.1772 36.8719 15.1771C36.8719 15.1771 36.8719 15.1771 36.8719 15.177C36.8719 15.177 36.8719 15.1769 36.8719 15.1769C36.8719 15.1768 36.8719 15.1768 36.8719 15.1767C36.8719 15.1767 36.8719 15.1766 36.8719 15.1766C36.8719 15.1766 36.8719 15.1765 36.8719 15.1765C36.8719 15.1764 36.8719 15.1764 36.8719 15.1763C36.8719 15.1763 36.8719 15.1762 36.8719 15.1762C36.8719 15.1761 36.8719 15.1761 36.8719 15.176C36.8719 15.176 36.8719 15.176 36.8719 15.1759C36.8719 15.1759 36.8719 15.1758 36.8719 15.1758C36.8719 15.1757 36.8719 15.1757 36.8719 15.1756C36.8719 15.1756 36.8719 15.1755 36.8719 15.1755C36.8719 15.1754 36.8719 15.1754 36.8719 15.1754C36.8719 15.1753 36.8719 15.1753 36.8719 15.1752C36.8719 15.1752 36.8719 15.1751 36.8719 15.1751C36.8719 15.175 36.8719 15.175 36.8719 15.1749C36.8719 15.1749 36.8719 15.1748 36.8719 15.1748C36.8719 15.1748 36.8719 15.1747 36.8719 15.1747C36.8719 15.1746 36.8719 15.1746 36.8719 15.1745C36.8719 15.1745 36.8719 15.1744 36.8719 15.1744C36.8719 15.1743 36.8719 15.1743 36.8719 15.1742C36.8719 15.1742 36.8719 15.1741 36.8719 15.1741C36.8719 15.1741 36.8719 15.174 36.8719 15.174C36.8719 15.1739 36.8719 15.1739 36.8719 15.1738C36.8719 15.1738 36.8719 15.1737 36.8719 15.1737C36.8719 15.1736 36.8719 15.1736 36.8719 15.1735C36.8719 15.1735 36.8719 15.1734 36.8719 15.1734C36.8719 15.1734 36.8719 15.1733 36.8719 15.1733C36.8719 15.1732 36.8719 15.1732 36.8719 15.1731C36.8719 15.1731 36.8719 15.173 36.8719 15.173C36.8719 15.1729 36.8719 15.1729 36.8719 15.1728C36.8719 15.1728 36.8719 15.1727 36.8719 15.1727C36.8719 15.1726 36.8719 15.1726 36.8719 15.1726C36.8719 15.1725 36.8719 15.1725 36.8719 15.1724C36.8719 15.1724 36.8719 15.1723 36.8719 15.1723C36.8719 15.1722 36.8719 15.1722 36.8719 15.1721C36.8719 15.1721 36.8719 15.172 36.8719 15.172C36.8719 15.1719 36.8719 15.1719 36.8719 15.1718C36.8719 15.1718 36.8719 15.1717 36.8719 15.1717C36.8719 15.1717 36.8719 15.1716 36.8719 15.1716C36.8719 15.1715 36.8719 15.1715 36.8719 15.1714C36.8719 15.1714 36.8719 15.1713 36.8719 15.1713C36.8719 15.1712 36.8719 15.1712 36.8719 15.1711C36.8719 15.1711 36.8719 15.171 36.8719 15.171C36.8719 15.1709 36.8719 15.1709 36.8719 15.1708C36.8719 15.1708 36.8719 15.1707 36.8719 15.1707C36.8719 15.1706 36.8719 15.1706 36.8719 15.1706C36.8719 15.1705 36.8719 15.1705 36.8719 15.1704C36.8719 15.1704 36.8719 15.1703 36.8719 15.1703C36.8719 15.1702 36.8719 15.1702 36.8719 15.1701C36.8719 15.1701 36.8719 15.17 36.8719 15.17C36.8719 15.1699 36.8719 15.1699 36.8719 15.1698C36.8719 15.1698 36.8719 15.1697 36.8719 15.1697C36.8719 15.1696 36.8719 15.1696 36.8719 15.1695C36.8719 15.1695 36.8719 15.1694 36.8719 15.1694C36.8719 15.1693 36.8719 15.1693 36.8719 15.1693C36.8719 15.1692 36.8719 15.1692 36.8719 15.1691C36.8719 15.1691 36.8719 15.169 36.8719 15.169C36.8719 15.1689 36.8719 15.1689 36.8719 15.1688C36.8719 15.1688 36.8719 15.1687 36.8719 15.1687C36.8719 15.1686 36.8719 15.1686 36.8719 15.1685C36.8719 15.1685 36.8719 15.1684 36.8719 15.1684C36.8719 15.1683 36.8719 15.1683 36.8719 15.1682C36.8719 15.1682 36.8719 15.1681 36.8719 15.1681C36.8719 15.168 36.8719 15.168 36.8719 15.1679C36.8719 15.1679 36.8719 15.1678 36.8719 15.1678C36.8719 15.1677 36.8719 15.1677 36.8719 15.1676C36.8719 15.1676 36.8719 15.1675 36.8719 15.1675C36.8719 15.1674 36.8719 15.1674 36.8719 15.1673C36.8719 15.1673 36.8719 15.1672 36.8719 15.1672C36.8719 15.1671 36.8719 15.1671 36.8719 15.167C36.8719 15.167 36.8719 15.167 36.8719 15.1669C36.8719 15.1669 36.8719 15.1668 36.8719 15.1668C36.8719 15.1667 36.8719 15.1667 36.8719 15.1666C36.8719 15.1666 36.8719 15.1665 36.8719 15.1665C36.8719 15.1664 36.8719 15.1664 36.8719 15.1663C36.8719 15.1663 36.8719 15.1662 36.8719 15.1662C36.8719 15.1661 36.8719 15.1661 36.8719 15.166C36.8719 15.166 36.8719 15.1659 36.8719 15.1659C36.8719 15.1658 36.8719 15.1658 36.8719 15.1657C36.8719 15.1657 36.8719 15.1656 36.8719 15.1656C36.8719 15.1655 36.8719 15.1655 36.8719 15.1654C36.8719 15.1654 36.8719 15.1653 36.8719 15.1653C36.8719 15.1652 36.8719 15.1652 36.8719 15.1651C36.8719 15.1651 36.8719 15.165 36.8719 15.165C36.8719 15.1649 36.8719 15.1649 36.8719 15.1648C36.8719 15.1648 36.8719 15.1647 36.8719 15.1647C36.8719 15.1646 36.8719 15.1646 36.8719 15.1645C36.8719 15.1645 36.8719 15.1644 36.8719 15.1644C36.8719 15.1643 36.8719 15.1643 36.8719 15.1642C36.8719 15.1642 36.8719 15.1641 36.8719 15.1641C36.8719 15.164 36.8719 15.164 36.8719 15.1639C36.8719 15.1639 36.8719 15.1638 36.8719 15.1638C36.8719 15.1637 36.8719 15.1637 36.8719 15.1636C36.8719 15.1636 36.8719 15.1635 36.8719 15.1634C36.8719 15.1634 36.8719 15.1633 36.8719 15.1633C36.8719 15.1632 36.8719 15.1632 36.8719 15.1631C36.8719 15.1631 36.8719 15.163 36.8719 15.163C36.8719 15.1629 36.8719 15.1629 36.8719 15.1628C36.8719 15.1628 36.8719 15.1627 36.8719 15.1627C36.8719 15.1626 36.8719 15.1626 36.8719 15.1625C36.8719 15.1625 36.8719 15.1624 36.8719 15.1624C36.8719 15.1623 36.8719 15.1623 36.8719 15.1622C36.8719 15.1622 36.8719 15.1621 36.8719 15.1621C36.8719 15.162 36.8719 15.162 36.8719 15.1619C36.8719 15.1619 36.8719 15.1618 36.8719 15.1618C36.8719 15.1617 36.8719 15.1617 36.8719 15.1616C36.8719 15.1616 36.8719 15.1615 36.8719 15.1615C36.8719 15.1614 36.8719 15.1614 36.8719 15.1613C36.8719 15.1613 36.8719 15.1612 36.8719 15.1611C36.8719 15.1611 36.8719 15.161 36.8719 15.161C36.8719 15.1609 36.8719 15.1609 36.8719 15.1608C36.8719 15.1608 36.8719 15.1607 36.8719 15.1607C36.8719 15.1606 36.8719 15.1606 36.8719 15.1605C36.8719 15.1605 36.8719 15.1604 36.8719 15.1604C36.8719 15.1603 36.8719 15.1603 36.8719 15.1602C36.8719 15.1602 36.8719 15.1601 36.8719 15.1601C36.8719 15.16 36.8719 15.16 36.8719 15.1599C36.8719 15.1598 36.8719 15.1598 36.8719 15.1597C36.8719 15.1597 36.8719 15.1596 36.8719 15.1596C36.8719 15.1595 36.8719 15.1595 36.8719 15.1594C36.8719 15.1594 36.8719 15.1593 36.8719 15.1593C36.8719 15.1592 36.8719 15.1592 36.8719 15.1591C36.8719 15.1591 36.8719 15.159 36.8719 15.159C36.8719 15.1589 36.8719 15.1589 36.8719 15.1588C36.8719 15.1587 36.8719 15.1587 36.8719 15.1586C36.8719 15.1586 36.8719 15.1585 36.8719 15.1585C36.8719 15.1584 36.8719 15.1584 36.8719 15.1583C36.8719 15.1583 36.8719 15.1582 36.8719 15.1582C36.8719 15.1581 36.8719 15.1581 36.8719 15.158C36.8719 15.158 36.8719 15.1579 36.8719 15.1579C36.8719 15.1578 36.8719 15.1577 36.8719 15.1577C36.8719 15.1576 36.8719 15.1576 36.8719 15.1575C36.8719 15.1575 36.8719 15.1574 36.8719 15.1574C36.8719 15.1573 36.8719 15.1573 36.8719 15.1572C36.8719 15.1572 36.8719 15.1571 36.8719 15.1571C36.8719 15.157 36.8719 15.1569 36.8719 15.1569C36.8719 15.1568 36.8719 15.1568 36.8719 15.1567C36.8719 15.1567 36.8719 15.1566 36.8719 15.1566C36.8719 15.1565 36.8719 15.1565 36.8719 15.1564C36.8719 15.1564 36.8719 15.1563 36.8719 15.1563C36.8719 15.1562 36.8719 15.1561 36.8719 15.1561C36.8719 15.156 36.8719 15.156 36.8719 15.1559C36.8719 15.1559 36.8719 15.1558 36.8719 15.1558C36.8719 15.1557 36.8719 15.1557 36.8719 15.1556C36.8719 15.1556 36.8719 15.1555 36.8719 15.1554C36.8719 15.1554 36.8719 15.1553 36.8719 15.1553C36.8719 15.1552 36.8719 15.1552 36.8719 15.1551C36.8719 15.1551 36.8719 15.155 36.8719 15.155C36.8719 15.1549 36.8719 15.1549 36.8719 15.1548C36.8719 15.1547 36.8719 15.1547 36.8719 15.1546C36.8719 15.1546 36.8719 15.1545 36.8719 15.1545C36.8719 15.1544 36.8719 15.1544 36.8719 15.1543C36.8719 15.1543 36.8719 15.1542 36.8719 15.1541C36.8719 15.1541 36.8719 15.154 36.8719 15.154C36.8719 15.1539 36.8719 15.1539 36.8719 15.1538C36.8719 15.1538 36.8719 15.1537 36.8719 15.1537C36.8719 15.1536 36.8719 15.1535 36.8719 15.1535C36.8719 15.1534 36.8719 15.1534 36.8719 15.1533C36.8719 15.1533 36.8719 15.1532 36.8719 15.1532C36.8719 15.1531 36.8719 15.153 36.8719 15.153C36.8719 15.1529 36.8719 15.1529 36.8719 15.1528C36.8719 15.1528 36.8719 15.1527 36.8719 15.1527C36.8719 15.1526 36.8719 15.1526 36.8719 15.1525C36.8719 15.1524 36.8719 15.1524 36.8719 15.1523C36.8719 15.1523 36.8719 15.1522 36.8719 15.1522C36.8719 15.1521 36.8719 15.1521 36.8719 15.152C36.8719 15.1519 36.8719 15.1519 36.8719 15.1518C36.8719 15.1518 36.8719 15.1517 36.8719 15.1517C36.8719 15.1516 36.8719 15.1516 36.8719 15.1515C36.8719 15.1514 36.8719 15.1514 36.8719 15.1513C36.8719 15.1513 36.8719 15.1512 36.8719 15.1512C36.8719 15.1511 36.8719 15.1511 36.8719 15.151C36.8719 15.1509 36.8719 15.1509 36.8719 15.1508C36.8719 15.1508 36.8719 15.1507 36.8719 15.1507C36.8719 15.1506 36.8719 15.1506 36.8719 15.1505C36.8719 15.1504 36.8719 15.1504 36.8719 15.1503C36.8719 15.1503 36.8719 15.1502 36.8719 15.1502C36.8719 15.1501 36.8719 15.15 36.8719 15.15C36.8719 15.1499 36.8719 15.1499 36.8719 15.1498C36.8719 15.1498 36.8719 15.1497 36.8719 15.1497C36.8719 15.1496 36.8719 15.1495 36.8719 15.1495C36.8719 15.1494 36.8719 15.1494 36.8719 15.1493C36.8719 15.1493 36.8719 15.1492 36.8719 15.1491C36.8719 15.1491 36.8719 15.149 36.8719 15.149C36.8719 15.1489 36.8719 15.1489 36.8719 15.1488C36.8719 15.1487 36.8719 15.1487 36.8719 15.1486C36.8719 15.1486 36.8719 15.1485 36.8719 15.1485C36.8719 15.1484 36.8719 15.1483 36.8719 15.1483C36.8719 15.1482 36.8719 15.1482 36.8719 15.1481H36.3319ZM36.3319 15.2164V15.2455H36.8719V15.2164H36.3319ZM36.3341 15.2111C36.3284 15.255 36.3284 15.2994 36.3341 15.3433L36.8697 15.2745C36.8699 15.2763 36.8699 15.2781 36.8697 15.2799L36.3341 15.2111ZM36.342 15.3822L38.4024 22.6887L38.9222 22.5421L36.8617 15.2356L36.342 15.3822ZM38.6623 22.3454H25.3109V22.8854H38.6623V22.3454ZM25.5708 22.6887L27.6312 15.3822L27.1115 15.2356L25.0511 22.5421L25.5708 22.6887ZM27.6333 15.3743C27.6678 15.2362 27.6784 15.0931 27.6644 14.9513L27.127 15.0041C27.1349 15.0843 27.1289 15.1652 27.1094 15.2435L27.6333 15.3743ZM27.6657 14.9777V11.8067H27.1257V14.9777H27.6657ZM27.6657 11.8067C27.6657 11.5181 27.5511 11.2412 27.347 11.0371L26.9651 11.4189C27.068 11.5218 27.1257 11.6613 27.1257 11.8067H27.6657ZM27.347 11.0371C27.1429 10.833 26.8661 10.7183 26.5774 10.7183V11.2583C26.7228 11.2583 26.8623 11.3161 26.9651 11.4189L27.347 11.0371ZM26.5774 10.7183H11.8183V11.2583H26.5774V10.7183ZM11.8167 10.7183C11.529 10.72 11.2536 10.8351 11.0502 11.0385L11.432 11.4204C11.535 11.3174 11.6744 11.2591 11.8199 11.2583L11.8167 10.7183ZM11.0502 11.0385C10.8468 11.242 10.7317 11.5174 10.73 11.8051L11.27 11.8083C11.2709 11.6627 11.3291 11.5233 11.432 11.4204L11.0502 11.0385ZM10.73 11.8067V15.0215H11.27V11.8067H10.73ZM10.7301 15.0267C10.7322 15.1379 10.7435 15.2488 10.7638 15.3581L11.2947 15.2597C11.2798 15.1794 11.2715 15.0979 11.2699 15.0162L10.7301 15.0267ZM10.7694 15.3822L14.0524 27.0238L14.5721 26.8772L11.2891 15.2356L10.7694 15.3822ZM14.0521 27.0228C14.1159 27.2521 14.253 27.4542 14.4426 27.5982L14.7691 27.1681C14.6736 27.0956 14.6045 26.9937 14.5724 26.8782L14.0521 27.0228ZM14.4426 27.5982C14.6322 27.7421 14.8637 27.8198 15.1016 27.8196L15.1011 27.2796C14.9812 27.2797 14.8646 27.2405 14.7691 27.1681L14.4426 27.5982ZM15.1014 27.8196H16.7429V27.2796H15.1014V27.8196ZM16.4729 27.5496V37.1017H17.0129V27.5496H16.4729ZM16.4729 37.102C16.4743 38.2608 16.9352 39.3718 17.7547 40.1913L18.1365 39.8094C17.4182 39.0911 17.0141 38.1172 17.0129 37.1013L16.4729 37.102ZM17.7547 40.1913C18.5741 41.0107 19.6851 41.4716 20.8439 41.473L20.8446 40.933C19.8287 40.9318 18.8548 40.5278 18.1365 39.8094L17.7547 40.1913ZM20.8443 41.473H27.8585V40.933H20.8443V41.473ZM27.6505 41.3751C27.7689 41.5182 27.8922 41.6625 28.0329 41.8031L28.4147 41.4213C28.2923 41.2989 28.1818 41.1703 28.0665 41.0309L27.6505 41.3751ZM28.0303 41.8005C28.4323 42.2138 28.898 42.56 29.4095 42.826L29.6586 42.3468C29.1982 42.1075 28.7792 41.7959 28.4173 41.4239L28.0303 41.8005ZM29.2641 42.5864V45.6503H29.8041V42.5864H29.2641ZM29.2641 45.6519C29.2658 45.9407 29.3818 46.2171 29.5866 46.4207L29.9673 46.0377C29.8636 45.9346 29.8049 45.7948 29.8041 45.6487L29.2641 45.6519ZM29.5866 46.4207C29.7914 46.6243 30.0685 46.7386 30.3573 46.7386L30.3573 46.1986C30.2111 46.1986 30.0709 46.1407 29.9673 46.0377L29.5866 46.4207ZM30.3573 46.7386H33.6355V46.1986H30.3573V46.7386ZM33.6355 46.7386C33.9241 46.7386 34.2009 46.624 34.405 46.4199L34.0232 46.038C33.9204 46.1408 33.7809 46.1986 33.6355 46.1986V46.7386ZM34.405 46.4199C34.6091 46.2157 34.7238 45.9389 34.7238 45.6503H34.1838C34.1838 45.7957 34.126 45.9352 34.0232 46.038L34.405 46.4199ZM34.7238 45.6503V42.5864H34.1838V45.6503H34.7238ZM34.58 42.8251C35.0883 42.5563 35.5525 42.2112 35.9563 41.8018L35.5719 41.4226C35.2068 41.7927 34.7872 42.1047 34.3276 42.3477L34.58 42.8251ZM35.955 41.8031C36.0889 41.6693 36.2164 41.5263 36.3374 41.38L35.9214 41.0357C35.8087 41.172 35.6926 41.3019 35.5732 41.4213L35.955 41.8031ZM36.1294 41.4779H43.1436V40.9379H36.1294V41.4779ZM43.1439 41.4779C44.3024 41.4765 45.4129 41.0153 46.2316 40.1957L45.8495 39.8141C45.132 40.5325 44.1586 40.9367 43.1433 40.9379L43.1439 41.4779ZM46.2316 40.1957C47.0503 39.376 47.5101 38.265 47.5101 37.1065H46.9701C46.9701 38.1219 46.5671 39.0957 45.8495 39.8141L46.2316 40.1957ZM47.5101 37.1065V27.5935H46.9701V37.1065H47.5101ZM47.2401 27.8635H48.8816V27.3235H47.2401V27.8635ZM48.8814 27.8635C49.1194 27.8637 49.3509 27.7858 49.5404 27.6419L49.2139 27.2119C49.1183 27.2844 49.0017 27.3236 48.8819 27.3235L48.8814 27.8635ZM49.5404 27.6419C49.7299 27.498 49.8671 27.296 49.9309 27.0667L49.4106 26.9221C49.3785 27.0375 49.3094 27.1393 49.2139 27.2119L49.5404 27.6419ZM49.9306 27.0676L53.2088 15.426L52.689 15.2796L49.4108 26.9212L49.9306 27.0676ZM53.2092 15.4243C53.2353 15.3293 53.2484 15.2311 53.2481 15.1327L52.7081 15.1343C52.7083 15.1839 52.7017 15.2334 52.6885 15.2813L53.2092 15.4243ZM53.2481 15.1335V11.8505H52.7081V15.1335H53.2481ZM53.2481 11.8505C53.2481 11.5618 53.1334 11.2851 52.9294 11.081L52.5475 11.4628C52.6504 11.5657 52.7081 11.7051 52.7081 11.8505H53.2481ZM52.9294 11.081C52.7253 10.8769 52.4485 10.7622 52.1598 10.7622V11.3022C52.3052 11.3022 52.4446 11.36 52.5475 11.4628L52.9294 11.081ZM38.8798 24.3886L39.3425 26.0302L39.8623 25.8837L39.3995 24.2421L38.8798 24.3886ZM39.6024 25.6869H35.2965V26.2269H39.6024V25.6869ZM35.2965 25.6869C35.0079 25.6869 34.731 25.8015 34.5269 26.0056L34.9087 26.3875C35.0115 26.2847 35.151 26.2269 35.2965 26.2269V25.6869ZM34.5269 26.0056C34.3228 26.2097 34.2081 26.4866 34.2081 26.7752H34.7481C34.7481 26.6298 34.8059 26.4903 34.9087 26.3875L34.5269 26.0056ZM34.2081 26.7752C34.2081 27.0638 34.3228 27.3407 34.5269 27.5448L34.9087 27.163C34.8059 27.0601 34.7481 26.9206 34.7481 26.7752H34.2081ZM34.5269 27.5448C34.731 27.7489 35.0079 27.8635 35.2965 27.8635V27.3235C35.151 27.3235 35.0115 27.2658 34.9087 27.163L34.5269 27.5448ZM35.2965 27.8635H42.3594V27.3235H35.2965V27.8635ZM42.0894 27.5935V29.2351H42.6294V27.5935H42.0894ZM42.3594 28.9651H21.6821V29.5051H42.3594V28.9651ZM21.9521 29.2351V27.5935H21.4121V29.2351H21.9521ZM21.6821 27.8635H28.7206V27.3235H21.6821V27.8635ZM28.7414 27.8627C29.016 27.8415 29.2724 27.7175 29.4595 27.5154L29.0633 27.1486C28.9686 27.2508 28.8388 27.3136 28.6999 27.3243L28.7414 27.8627ZM29.4595 27.5154C29.6466 27.3134 29.7506 27.0481 29.7506 26.7727H29.2106C29.2106 26.9121 29.158 27.0463 29.0633 27.1486L29.4595 27.5154ZM29.7506 26.7727C29.7506 26.4973 29.6466 26.2321 29.4595 26.03L29.0633 26.3969C29.158 26.4991 29.2106 26.6334 29.2106 26.7727H29.7506ZM29.4595 26.03C29.2724 25.8279 29.0159 25.704 28.7414 25.6828L28.6999 26.2212C28.8389 26.232 28.9687 26.2947 29.0633 26.3969L29.4595 26.03ZM28.7206 25.682H24.3952V26.222H28.7206V25.682ZM24.6552 26.0248L25.1131 24.3881L24.5931 24.2426L24.1352 25.8793L24.6552 26.0248ZM24.8531 24.5853H39.1397V24.0453H24.8531V24.5853ZM12.6464 12.9194H25.798V12.3794H12.6464V12.9194ZM25.528 12.6494V14.2908H26.068V12.6494H25.528ZM25.798 14.0208H12.6464V14.5608H25.798V14.0208ZM12.9164 14.2908V12.6494H12.3764V14.2908H12.9164ZM15.9945 25.8544L13.1742 15.8542L12.6544 16.0008L15.4747 26.001L15.9945 25.8544ZM12.9143 16.1975H25.5058V15.6575H12.9143V16.1975ZM25.2459 15.8544L22.4305 25.8545L22.9503 26.0008L25.7657 16.0007L25.2459 15.8544ZM22.6904 25.6577H15.7346V26.1977H22.6904V25.6577ZM20.854 39.2964C20.2727 39.2964 19.7151 39.0658 19.3036 38.6551L18.9222 39.0373C19.4349 39.549 20.1296 39.8364 20.854 39.8364L20.854 39.2964ZM19.3036 38.6551C18.8922 38.2445 18.6604 37.6873 18.6593 37.106L18.1193 37.1071C18.1207 37.8314 18.4095 38.5257 18.9222 39.0373L19.3036 38.6551ZM18.6593 37.1065V27.5935H18.1193V37.1065H18.6593ZM18.3893 27.8635H20.0308V27.3235H18.3893V27.8635ZM19.7608 27.5935V36.2883H20.3008V27.5935H19.7608ZM19.7608 36.2891C19.7623 36.795 19.9644 37.2798 20.3227 37.637L20.7039 37.2546C20.4468 36.9983 20.3019 36.6505 20.3008 36.2875L19.7608 36.2891ZM20.3227 37.637C20.681 37.9943 21.1664 38.1948 21.6723 38.1948L21.6723 37.6548C21.3093 37.6548 20.961 37.5109 20.7039 37.2546L20.3227 37.637ZM21.6723 38.1948H26.6748V37.6548H21.6723V38.1948ZM26.4049 37.9292C26.4144 38.514 26.5145 39.0938 26.7015 39.6479L27.2132 39.4752C27.0439 38.9739 26.9534 38.4494 26.9448 37.9204L26.4049 37.9292ZM26.9571 39.2915L20.8538 39.2964L20.8542 39.8364L26.9576 39.8315L26.9571 39.2915ZM32.822 44.5425H31.1854V45.0825H32.822V44.5425ZM31.4554 44.8125V43.1076H30.9153V44.8125H31.4554ZM31.1446 43.3745C31.714 43.4615 32.2933 43.4615 32.8627 43.3745L32.7812 42.8407C32.2658 42.9194 31.7415 42.9194 31.2261 42.8407L31.1446 43.3745ZM32.552 43.1076V44.8125H33.092V43.1076H32.552ZM29.6061 40.2406C29.0678 39.6856 28.7284 38.9681 28.6408 38.1999L28.1043 38.261C28.2054 39.1477 28.5971 39.976 29.2185 40.6166L29.6061 40.2406ZM28.6408 38.1999C28.5533 37.4317 28.7226 36.6561 29.1222 35.9942L28.66 35.7151C28.1987 36.4791 28.0033 37.3743 28.1043 38.261L28.6408 38.1999ZM28.7004 36.0458L33.7954 41.131L34.1769 40.7488L29.0818 35.6636L28.7004 36.0458ZM33.8426 40.7113C33.1864 41.1231 32.4099 41.3006 31.64 41.2145L31.58 41.7511C32.4713 41.8508 33.3701 41.6454 34.1297 41.1686L33.8426 40.7113ZM31.64 41.2145C30.87 41.1284 30.1519 40.7839 29.6028 40.2373L29.2218 40.6199C29.8574 41.2527 30.6886 41.6515 31.58 41.7511L31.64 41.2145ZM35.3314 39.5897L30.2412 34.5044L29.8596 34.8864L34.9498 39.9717L35.3314 39.5897ZM30.1939 34.9241C30.8502 34.5122 31.6266 34.3349 32.3966 34.421L32.4566 33.8844C31.5653 33.7847 30.6665 33.99 29.9069 34.4667L30.1939 34.9241ZM32.3966 34.421C33.1666 34.5071 33.8847 34.8516 34.4338 35.3982L34.8148 35.0156C34.1792 34.3828 33.348 33.984 32.4566 33.8844L32.3966 34.421ZM34.4312 35.3956C34.972 35.9489 35.3128 36.6667 35.3996 37.4354L35.9361 37.3749C35.8359 36.4867 35.4422 35.6573 34.8173 35.0182L34.4312 35.3956ZM35.3996 37.4354C35.4863 38.2042 35.3142 38.9799 34.9103 39.6398L35.3709 39.9217C35.8375 39.1593 36.0364 38.2631 35.9361 37.3749L35.3996 37.4354ZM35.9734 33.8556C34.9198 32.8136 33.4977 32.2291 32.0159 32.2291V32.7691C33.3555 32.7691 34.6412 33.2975 35.5937 34.2395L35.9734 33.8556ZM32.0159 32.2291C30.534 32.2291 29.1119 32.8136 28.0583 33.8556L28.438 34.2395C29.3906 33.2975 30.6762 32.7691 32.0159 32.7691V32.2291ZM28.058 33.8559C27.4062 34.5028 26.9257 35.3018 26.6599 36.1809L27.1768 36.3371C27.4166 35.5439 27.8502 34.8229 28.4384 34.2392L28.058 33.8559ZM26.9184 35.989H21.6869V36.529H26.9184V35.989ZM21.9569 36.259V30.8424H21.4169V36.259H21.9569ZM21.6869 31.1124H42.3594V30.5724H21.6869V31.1124ZM42.0894 30.8424V36.2541H42.6294V30.8424H42.0894ZM42.3594 35.9841H37.1133V36.5241H42.3594V35.9841ZM37.3718 36.176C37.106 35.297 36.6256 34.4979 35.9738 33.851L35.5934 34.2343C36.1815 34.818 36.6151 35.5391 36.8549 36.3323L37.3718 36.176ZM45.3578 37.0719C45.3567 37.6525 45.1255 38.209 44.715 38.6195L45.0968 39.0014C45.6084 38.4898 45.8964 37.7964 45.8978 37.0729L45.3578 37.0719ZM44.715 38.6195C44.3045 39.03 43.748 39.2611 43.1674 39.2623L43.1685 39.8023C43.8919 39.8009 44.5853 39.5129 45.0968 39.0014L44.715 38.6195ZM43.168 39.2623H37.0646V39.8023H43.168V39.2623ZM37.3208 39.6177C37.5056 39.0633 37.604 38.4837 37.6123 37.8994L37.0723 37.8917C37.0648 38.4206 36.9758 38.9451 36.8085 39.4469L37.3208 39.6177ZM37.3423 38.1656H42.3594V37.6256H37.3423V38.1656ZM42.3586 38.1656C42.6094 38.1663 42.8579 38.1177 43.09 38.0222L42.8844 37.5228C42.7182 37.5912 42.5401 37.6261 42.3602 37.6256L42.3586 38.1656ZM43.09 38.0222C43.322 37.9267 43.5328 37.7863 43.7104 37.6092L43.3292 37.2268C43.2018 37.3538 43.0507 37.4544 42.8844 37.5228L43.09 38.0222ZM43.7104 37.6092C43.8881 37.4321 44.0291 37.2216 44.1252 36.9899L43.6265 36.7829C43.5576 36.949 43.4565 37.0998 43.3292 37.2268L43.7104 37.6092ZM44.1252 36.9899C44.2214 36.7582 44.2709 36.5099 44.2709 36.259L43.7309 36.259C43.7309 36.4388 43.6954 36.6168 43.6265 36.7829L44.1252 36.9899ZM44.2709 36.259V27.5642H43.7309V36.259H44.2709ZM44.0009 27.8342H45.6375V27.2942H44.0009V27.8342ZM45.3675 27.5642V37.1017H45.9075V27.5642H45.3675ZM45.8938 37.0165L45.884 36.9873L45.3716 37.1576L45.3813 37.1868L45.8938 37.0165ZM48.2825 25.6479H41.3267V26.1879H48.2825V25.6479ZM41.5866 25.8447L38.7663 15.8396L38.2466 15.9862L41.0669 25.9912L41.5866 25.8447ZM38.5065 16.1829H51.1272V15.6429H38.5065V16.1829ZM50.8674 15.8391L48.0228 25.8441L48.5422 25.9918L51.3869 15.9867L50.8674 15.8391ZM51.361 14.0062H38.2434V14.5462H51.361V14.0062ZM38.5134 14.2762V12.6347H37.9734V14.2762H38.5134ZM38.2434 12.9047H51.361V12.3647H38.2434V12.9047ZM51.091 12.6347V14.2762H51.6309V12.6347H51.091Z" fill="white" mask="url(#path-4-inside-2_1188_84281)"/>
<path d="M32.0185 27.5663C32.1801 27.5653 32.3379 27.5166 32.4718 27.4261C32.6057 27.3356 32.7098 27.2074 32.771 27.0578C32.8322 26.9082 32.8478 26.7438 32.8156 26.5854C32.7835 26.427 32.7052 26.2816 32.5905 26.1677C32.4759 26.0537 32.3301 25.9762 32.1715 25.945C32.0129 25.9139 31.8486 25.9304 31.6994 25.9925C31.5501 26.0546 31.4226 26.1594 31.3329 26.2938C31.2432 26.4283 31.1953 26.5864 31.1953 26.748C31.1953 26.8559 31.2166 26.9627 31.2581 27.0623C31.2995 27.1619 31.3602 27.2523 31.4367 27.3283C31.5132 27.4044 31.604 27.4646 31.7038 27.5054C31.8037 27.5462 31.9106 27.5669 32.0185 27.5663Z" fill="white"/>
<path d="M35.9565 48.8849C35.9405 48.6781 35.8471 48.4851 35.695 48.3442C35.5428 48.2033 35.3431 48.125 35.1357 48.125C34.9283 48.125 34.7286 48.2033 34.5764 48.3442C34.4243 48.4851 34.3309 48.6781 34.3149 48.8849C34.3062 48.998 34.321 49.1117 34.3583 49.2188C34.3956 49.326 34.4546 49.4242 34.5317 49.5075C34.6087 49.5907 34.7022 49.6572 34.8061 49.7026C34.9101 49.748 35.0223 49.7715 35.1357 49.7715C35.2491 49.7715 35.3614 49.748 35.4653 49.7026C35.5693 49.6572 35.6627 49.5907 35.7397 49.5075C35.8168 49.4242 35.8758 49.326 35.9131 49.2188C35.9504 49.1117 35.9652 48.998 35.9565 48.8849Z" fill="white"/>
<path d="M32.6776 48.8818C32.6776 48.7187 32.6292 48.5594 32.5386 48.4239C32.4479 48.2884 32.319 48.183 32.1683 48.1208C32.0176 48.0586 31.8519 48.0426 31.6921 48.0748C31.5323 48.1069 31.3856 48.1858 31.2706 48.3014C31.1557 48.417 31.0777 48.5642 31.0465 48.7242C31.0153 48.8842 31.0323 49.0499 31.0953 49.2002C31.1584 49.3506 31.2646 49.4788 31.4007 49.5686C31.5367 49.6585 31.6963 49.7059 31.8593 49.7049C31.9672 49.7049 32.074 49.6837 32.1736 49.6423C32.2732 49.6008 32.3636 49.5401 32.4397 49.4636C32.5157 49.3871 32.5759 49.2963 32.6168 49.1964C32.6576 49.0966 32.6783 48.9896 32.6776 48.8818Z" fill="white"/>
<path d="M39.2382 48.8886C39.2382 48.7268 39.1902 48.5686 39.1003 48.434C39.0104 48.2994 38.8826 48.1946 38.7331 48.1326C38.5835 48.0707 38.419 48.0544 38.2603 48.086C38.1015 48.1176 37.9557 48.1955 37.8412 48.31C37.7268 48.4244 37.6489 48.5703 37.6173 48.729C37.5857 48.8878 37.6019 49.0523 37.6639 49.2019C37.7258 49.3514 37.8307 49.4792 37.9652 49.5691C38.0998 49.659 38.2581 49.707 38.4199 49.707C38.6369 49.707 38.8451 49.6208 38.9985 49.4673C39.152 49.3138 39.2382 49.1057 39.2382 48.8886Z" fill="white"/>
</svg>
