<svg width="64" height="64" viewBox="0 0 64 64" fill="none" xmlns="http://www.w3.org/2000/svg">
<mask id="path-1-inside-1_1188_84252" fill="white">
<path d="M49 56.208C48.9916 56.4244 48.8994 56.6287 48.7433 56.7766C48.5872 56.9245 48.3798 57.004 48.1663 56.9977H26.4205C26.3135 57.006 26.206 56.9918 26.1046 56.9561C26.0033 56.9203 25.9104 56.8636 25.8316 56.7897C25.7529 56.7157 25.6901 56.6261 25.6472 56.5264C25.6042 56.4267 25.582 56.319 25.582 56.2102C25.582 56.1014 25.6042 55.9938 25.6472 55.8941C25.6901 55.7944 25.7529 55.7047 25.8316 55.6308C25.9104 55.5568 26.0033 55.5003 26.1046 55.4645C26.206 55.4287 26.3135 55.4145 26.4205 55.4229H48.1571C48.3702 55.4153 48.5776 55.4937 48.7338 55.6409C48.8901 55.788 48.9825 55.9919 48.9909 56.208M23.0764 55.4229H15.8385C15.7315 55.4145 15.624 55.4287 15.5226 55.4645C15.4213 55.5003 15.3284 55.5568 15.2496 55.6308C15.1709 55.7047 15.1081 55.7944 15.0651 55.8941C15.0222 55.9938 15 56.1014 15 56.2102C15 56.319 15.0222 56.4267 15.0651 56.5264C15.1081 56.6261 15.1709 56.7157 15.2496 56.7897C15.3284 56.8636 15.4213 56.9203 15.5226 56.9561C15.624 56.9918 15.7315 57.006 15.8385 56.9977H23.0855C23.1925 57.006 23.3001 56.9918 23.4014 56.9561C23.5027 56.9203 23.5956 56.8636 23.6744 56.7897C23.7531 56.7157 23.8159 56.6261 23.8589 56.5264C23.9018 56.4267 23.924 56.319 23.924 56.2102C23.924 56.1014 23.9018 55.9938 23.8589 55.8941C23.8159 55.7944 23.7531 55.7047 23.6744 55.6308C23.5956 55.5568 23.5027 55.5003 23.4014 55.4645C23.3001 55.4287 23.1925 55.4145 23.0855 55.4229M49 8.89763V11.016C48.9929 11.3716 48.8839 11.7173 48.6862 12.011C48.4885 12.3047 48.2107 12.5337 47.8868 12.6699V14.1657C47.8797 14.4179 47.8235 14.6662 47.7215 14.8962C47.6194 15.1263 47.4735 15.3337 47.2922 15.5064C47.1108 15.6791 46.8976 15.8137 46.6647 15.9025C46.4318 15.9913 46.184 16.0326 45.9353 16.0239H45.6605V18.3886C45.6534 18.6408 45.5972 18.889 45.4951 19.1191C45.3931 19.3492 45.2472 19.5565 45.0658 19.7292C44.8844 19.9019 44.6712 20.0365 44.4384 20.1253C44.2055 20.2141 43.9576 20.2555 43.709 20.2468H43.4342V22.8761C43.72 22.8795 44.0019 22.9446 44.261 23.0671C44.5201 23.1897 44.7505 23.3669 44.9367 23.5869C45.1178 23.8002 45.2447 24.0553 45.3062 24.3298C45.3677 24.6043 45.3619 24.89 45.2894 25.1617L43.6174 31.4704C43.5283 31.7824 43.362 32.0662 43.1343 32.2947C42.9066 32.5232 42.625 32.6888 42.3164 32.7758V36.2831C42.3068 36.6386 42.1968 36.9838 41.9995 37.2778C41.8022 37.5718 41.5258 37.8022 41.2032 37.9416V41.5373C41.1876 41.7513 41.0927 41.9514 40.9377 42.0974C40.7826 42.2435 40.5788 42.3246 40.3672 42.3246C40.1556 42.3246 39.9518 42.2435 39.7967 42.0974C39.6417 41.9514 39.5468 41.7513 39.5312 41.5373V38.1182H36.7459V45.7415C36.7409 46.0933 36.6357 46.436 36.4431 46.7286C36.2505 47.0212 35.9787 47.2511 35.6603 47.3907L30.7678 49.6856C30.559 49.7771 30.3808 49.9281 30.2548 50.1202C30.1287 50.3123 30.0603 50.5373 30.0577 50.768C30.0592 50.9684 30.1114 51.165 30.2092 51.3391C30.3071 51.5131 30.4473 51.6588 30.6166 51.7621C30.7958 51.8764 30.9985 51.9472 31.2091 51.969C31.4197 51.9908 31.6324 51.9629 31.8306 51.8876L38.6516 49.3279C38.9041 49.2403 39.1239 49.0761 39.2812 48.8575C39.4385 48.639 39.5258 48.3767 39.5312 48.1061V44.6916C39.5468 44.4776 39.6417 44.2775 39.7967 44.1315C39.9518 43.9854 40.1556 43.9043 40.3672 43.9043C40.5788 43.9043 40.7826 43.9854 40.9377 44.1315C41.0927 44.2775 41.1876 44.4776 41.2032 44.6916V48.1061C41.1929 48.7011 41.0016 49.2783 40.6556 49.7589C40.3096 50.2394 39.8257 50.6 39.27 50.7913L32.4444 53.2905C32.0919 53.4205 31.72 53.488 31.345 53.4903C30.7571 53.4976 30.1792 53.3366 29.6775 53.0257C29.2826 52.7843 28.9559 52.4437 28.7288 52.0368C28.5017 51.6299 28.3819 51.1705 28.3811 50.7029C28.3877 50.1709 28.5461 49.6523 28.8371 49.2096C29.1282 48.7669 29.5394 48.4191 30.0211 48.2083L34.9136 45.9135C34.9586 45.8929 34.9968 45.8595 35.0236 45.8175C35.0504 45.7755 35.0647 45.7266 35.0647 45.6765V37.8766C34.7421 37.7372 34.4658 37.5068 34.2685 37.2128C34.0712 36.9188 33.9612 36.5736 33.9516 36.2181V32.7107C33.6429 32.6237 33.3614 32.4581 33.1337 32.2296C32.906 32.0011 32.7396 31.7173 32.6506 31.4053L31.0014 25.1153C30.9277 24.8437 30.9213 24.5577 30.9829 24.283C31.0444 24.0082 31.172 23.7531 31.3542 23.5404C31.5404 23.3204 31.7708 23.1433 32.0298 23.0207C32.2889 22.8982 32.5708 22.833 32.8567 22.8296V20.2003H32.5773C32.3286 20.209 32.0808 20.1678 31.8479 20.0789C31.6151 19.9901 31.4018 19.8555 31.2205 19.6828C31.0391 19.5101 30.8932 19.3027 30.7911 19.0726C30.6891 18.8425 30.6329 18.5943 30.6258 18.3421V15.9774H30.3464C30.0981 15.9855 29.8507 15.9438 29.6184 15.8547C29.3861 15.7656 29.1734 15.6309 28.9925 15.4582C28.8116 15.2856 28.6661 15.0785 28.5644 14.8487C28.4626 14.6189 28.4066 14.371 28.3994 14.1192V12.6234C28.0743 12.4884 27.7953 12.2599 27.5967 11.966C27.398 11.6721 27.2886 11.3257 27.2817 10.9695V8.86054C27.2888 8.60836 27.345 8.36 27.447 8.12991C27.5491 7.89983 27.695 7.69254 27.8764 7.51984C28.0577 7.34715 28.271 7.2125 28.5038 7.12368C28.7367 7.03486 28.9845 6.99365 29.2332 7.00232H38.7066C38.8136 6.99398 38.9211 7.00816 39.0224 7.04395C39.1238 7.07974 39.2167 7.13628 39.2954 7.21022C39.3742 7.28415 39.437 7.37386 39.4799 7.47357C39.5229 7.57328 39.545 7.68085 39.545 7.78966C39.545 7.89847 39.5229 8.00616 39.4799 8.10587C39.437 8.20558 39.3742 8.29517 39.2954 8.36911C39.2167 8.44304 39.1238 8.4997 39.0224 8.53549C38.9211 8.57128 38.8136 8.58545 38.7066 8.57711H29.2148C29.1796 8.57524 29.1443 8.58053 29.1111 8.59265C29.0778 8.60477 29.0473 8.62344 29.0213 8.64766C28.9953 8.67188 28.9743 8.70119 28.9595 8.73374C28.9448 8.76629 28.9366 8.80149 28.9354 8.83729V11.016C28.939 11.0879 28.9703 11.1555 29.0226 11.2042C29.0748 11.2529 29.1439 11.2787 29.2148 11.2762H47.0348C47.1057 11.2787 47.1748 11.2529 47.2271 11.2042C47.2793 11.1555 47.3106 11.0879 47.3142 11.016V8.90693C47.313 8.87113 47.3049 8.83593 47.2901 8.80338C47.2754 8.77083 47.2544 8.74163 47.2283 8.71741C47.2023 8.69319 47.1718 8.67441 47.1386 8.66229C47.1053 8.65017 47.0701 8.64488 47.0348 8.64675H42.037C41.93 8.65509 41.8225 8.64092 41.7211 8.60513C41.6198 8.56934 41.5269 8.51279 41.4481 8.43886C41.3694 8.36493 41.3066 8.27522 41.2636 8.17551C41.2207 8.07579 41.1985 7.96822 41.1985 7.85941C41.1985 7.7506 41.2207 7.64292 41.2636 7.54321C41.3066 7.4435 41.3694 7.3539 41.4481 7.27997C41.5269 7.20603 41.6198 7.14937 41.7211 7.11358C41.8225 7.07779 41.93 7.06362 42.037 7.07196H47.0348C47.2834 7.06328 47.5313 7.1045 47.7641 7.19332C47.997 7.28214 48.2102 7.41679 48.3916 7.58948C48.573 7.76218 48.7189 7.96958 48.8209 8.19966C48.923 8.42975 48.9792 8.67799 48.9863 8.93018M32.5452 14.4537C32.5807 14.4549 32.6161 14.4491 32.6494 14.4365C32.6826 14.4238 32.7131 14.4047 32.7391 14.3801C32.765 14.3555 32.7859 14.3259 32.8006 14.2931C32.8153 14.2603 32.8235 14.225 32.8246 14.189V12.8742H30.0394V14.189C30.0418 14.2609 30.072 14.3288 30.1234 14.3784C30.1748 14.4279 30.2434 14.4549 30.3143 14.4537H32.5452ZM40.626 32.8501H35.6236V36.2693C35.6248 36.3051 35.633 36.3403 35.6477 36.3728C35.6625 36.4054 35.6835 36.4346 35.7095 36.4588C35.7355 36.483 35.766 36.5017 35.7993 36.5138C35.8325 36.5259 35.8678 36.5312 35.9031 36.5294H40.3603C40.3956 36.5312 40.4309 36.5259 40.4641 36.5138C40.4973 36.5017 40.5279 36.483 40.5539 36.4588C40.5799 36.4346 40.6009 36.4054 40.6157 36.3728C40.6304 36.3403 40.6386 36.3051 40.6398 36.2693L40.626 32.8501ZM43.9701 16.0286H43.6907C43.4424 16.0366 43.195 15.9949 42.9627 15.9058C42.7304 15.8167 42.5177 15.682 42.3368 15.5094C42.156 15.3367 42.0105 15.1295 41.9087 14.8998C41.8069 14.67 41.7509 14.4222 41.7438 14.1704V12.8556H34.5104V14.1704C34.5033 14.4226 34.4472 14.6708 34.3451 14.9009C34.243 15.131 34.0971 15.3384 33.9158 15.5111C33.7344 15.6838 33.5212 15.8183 33.2883 15.9071C33.0554 15.9959 32.8076 16.0373 32.559 16.0286H32.2795V18.3931C32.2807 18.4291 32.2889 18.4645 32.3035 18.4973C32.3182 18.5301 32.3392 18.5597 32.3651 18.5843C32.3911 18.6089 32.4216 18.6281 32.4548 18.6407C32.4881 18.6533 32.5235 18.6592 32.559 18.6579H37.598C37.705 18.6496 37.8125 18.6638 37.9139 18.6996C38.0152 18.7353 38.1081 18.792 38.1868 18.8659C38.2655 18.9399 38.3284 19.0295 38.3713 19.1292C38.4143 19.2289 38.4365 19.3366 38.4365 19.4454C38.4365 19.5542 38.4143 19.6619 38.3713 19.7616C38.3284 19.8613 38.2655 19.9509 38.1868 20.0248C38.1081 20.0988 38.0152 20.1554 37.9139 20.1912C37.8125 20.227 37.705 20.2412 37.598 20.2328H34.5334V22.8622H37.598C37.8046 22.8622 38.0026 22.9453 38.1487 23.0934C38.2947 23.2415 38.3768 23.4424 38.3768 23.6519C38.3768 23.8614 38.2947 24.0623 38.1487 24.2104C38.0026 24.3585 37.8046 24.4416 37.598 24.4416H32.875C32.8329 24.4406 32.791 24.4488 32.7523 24.4657C32.7136 24.4825 32.6789 24.5076 32.6506 24.5393C32.6254 24.5707 32.6081 24.6077 32.6001 24.6474C32.5921 24.687 32.5937 24.728 32.6048 24.7669L34.2722 31.0755C34.29 31.1339 34.3259 31.1849 34.3747 31.2209C34.4234 31.2569 34.4822 31.276 34.5425 31.2753H41.7209C41.7811 31.276 41.84 31.2569 41.8887 31.2209C41.9374 31.1849 41.9734 31.1339 41.9911 31.0755L43.6632 24.7669C43.6736 24.7277 43.6745 24.6864 43.6657 24.6468C43.6569 24.6071 43.6388 24.5702 43.6128 24.5393C43.5854 24.5077 43.5515 24.4826 43.5135 24.4658C43.4755 24.4489 43.4344 24.4406 43.3929 24.4416H40.9192C40.7127 24.4416 40.5146 24.3585 40.3685 24.2104C40.2225 24.0623 40.1404 23.8614 40.1404 23.6519C40.1404 23.4424 40.2225 23.2415 40.3685 23.0934C40.5146 22.9453 40.7127 22.8622 40.9192 22.8622H41.7575V20.2328H40.9192C40.8122 20.2412 40.7047 20.227 40.6034 20.1912C40.502 20.1554 40.4091 20.0988 40.3304 20.0248C40.2516 19.9509 40.1888 19.8613 40.1459 19.7616C40.1029 19.6619 40.0807 19.5542 40.0807 19.4454C40.0807 19.3366 40.1029 19.2289 40.1459 19.1292C40.1888 19.0295 40.2516 18.9399 40.3304 18.8659C40.4091 18.792 40.502 18.7353 40.6034 18.6996C40.7047 18.6638 40.8122 18.6496 40.9192 18.6579H43.7044C43.7399 18.6592 43.7753 18.6533 43.8086 18.6407C43.8418 18.6281 43.8723 18.6089 43.8983 18.5843C43.9242 18.5597 43.9451 18.5301 43.9598 18.4973C43.9745 18.4645 43.9827 18.4291 43.9839 18.3931L43.9701 16.0286ZM46.201 12.8742H43.4158V14.189C43.4182 14.2609 43.4484 14.3288 43.4998 14.3784C43.5512 14.4279 43.6198 14.4549 43.6907 14.4537H45.9216C45.993 14.455 46.062 14.4281 46.1142 14.3787C46.1663 14.3293 46.1975 14.2613 46.201 14.189V12.8742ZM20.2499 53.6436C20.4113 53.7934 20.6221 53.8766 20.8409 53.8766C21.0596 53.8766 21.2705 53.7934 21.4318 53.6436C21.5084 53.5735 21.5696 53.4878 21.6115 53.3922C21.6534 53.2965 21.6751 53.1931 21.6751 53.0884C21.6751 52.9838 21.6534 52.8803 21.6115 52.7847C21.5696 52.6891 21.5084 52.6035 21.4318 52.5334L16.9745 48.3245C16.8122 48.1766 16.6018 48.0947 16.3836 48.0947C16.1654 48.0947 15.9549 48.1766 15.7926 48.3245C15.7159 48.395 15.6546 48.481 15.6127 48.577C15.5707 48.6731 15.5491 48.7769 15.5491 48.8819C15.5491 48.9869 15.5707 49.0908 15.6127 49.1868C15.6546 49.2828 15.7159 49.3688 15.7926 49.4394L20.2499 53.6436ZM24.185 43.8879C23.9714 43.8817 23.7641 43.9611 23.6079 44.109C23.4518 44.2569 23.3596 44.4612 23.3512 44.6777V50.9678C23.3669 51.1818 23.4617 51.3819 23.6168 51.5279C23.7718 51.674 23.9756 51.7551 24.1872 51.7551C24.3989 51.7551 24.6027 51.674 24.7577 51.5279C24.9128 51.3819 25.0076 51.1818 25.0233 50.9678V44.6591C25.0149 44.4418 24.922 44.2367 24.7649 44.0887C24.6078 43.9407 24.3993 43.8618 24.185 43.8693"/>
</mask>
<path d="M49 56.208C48.9916 56.4244 48.8994 56.6287 48.7433 56.7766C48.5872 56.9245 48.3798 57.004 48.1663 56.9977H26.4205C26.3135 57.006 26.206 56.9918 26.1046 56.9561C26.0033 56.9203 25.9104 56.8636 25.8316 56.7897C25.7529 56.7157 25.6901 56.6261 25.6472 56.5264C25.6042 56.4267 25.582 56.319 25.582 56.2102C25.582 56.1014 25.6042 55.9938 25.6472 55.8941C25.6901 55.7944 25.7529 55.7047 25.8316 55.6308C25.9104 55.5568 26.0033 55.5003 26.1046 55.4645C26.206 55.4287 26.3135 55.4145 26.4205 55.4229H48.1571C48.3702 55.4153 48.5776 55.4937 48.7338 55.6409C48.8901 55.788 48.9825 55.9919 48.9909 56.208M23.0764 55.4229H15.8385C15.7315 55.4145 15.624 55.4287 15.5226 55.4645C15.4213 55.5003 15.3284 55.5568 15.2496 55.6308C15.1709 55.7047 15.1081 55.7944 15.0651 55.8941C15.0222 55.9938 15 56.1014 15 56.2102C15 56.319 15.0222 56.4267 15.0651 56.5264C15.1081 56.6261 15.1709 56.7157 15.2496 56.7897C15.3284 56.8636 15.4213 56.9203 15.5226 56.9561C15.624 56.9918 15.7315 57.006 15.8385 56.9977H23.0855C23.1925 57.006 23.3001 56.9918 23.4014 56.9561C23.5027 56.9203 23.5956 56.8636 23.6744 56.7897C23.7531 56.7157 23.8159 56.6261 23.8589 56.5264C23.9018 56.4267 23.924 56.319 23.924 56.2102C23.924 56.1014 23.9018 55.9938 23.8589 55.8941C23.8159 55.7944 23.7531 55.7047 23.6744 55.6308C23.5956 55.5568 23.5027 55.5003 23.4014 55.4645C23.3001 55.4287 23.1925 55.4145 23.0855 55.4229M49 8.89763V11.016C48.9929 11.3716 48.8839 11.7173 48.6862 12.011C48.4885 12.3047 48.2107 12.5337 47.8868 12.6699V14.1657C47.8797 14.4179 47.8235 14.6662 47.7215 14.8962C47.6194 15.1263 47.4735 15.3337 47.2922 15.5064C47.1108 15.6791 46.8976 15.8137 46.6647 15.9025C46.4318 15.9913 46.184 16.0326 45.9353 16.0239H45.6605V18.3886C45.6534 18.6408 45.5972 18.889 45.4951 19.1191C45.3931 19.3492 45.2472 19.5565 45.0658 19.7292C44.8844 19.9019 44.6712 20.0365 44.4384 20.1253C44.2055 20.2141 43.9576 20.2555 43.709 20.2468H43.4342V22.8761C43.72 22.8795 44.0019 22.9446 44.261 23.0671C44.5201 23.1897 44.7505 23.3669 44.9367 23.5869C45.1178 23.8002 45.2447 24.0553 45.3062 24.3298C45.3677 24.6043 45.3619 24.89 45.2894 25.1617L43.6174 31.4704C43.5283 31.7824 43.362 32.0662 43.1343 32.2947C42.9066 32.5232 42.625 32.6888 42.3164 32.7758V36.2831C42.3068 36.6386 42.1968 36.9838 41.9995 37.2778C41.8022 37.5718 41.5258 37.8022 41.2032 37.9416V41.5373C41.1876 41.7513 41.0927 41.9514 40.9377 42.0974C40.7826 42.2435 40.5788 42.3246 40.3672 42.3246C40.1556 42.3246 39.9518 42.2435 39.7967 42.0974C39.6417 41.9514 39.5468 41.7513 39.5312 41.5373V38.1182H36.7459V45.7415C36.7409 46.0933 36.6357 46.436 36.4431 46.7286C36.2505 47.0212 35.9787 47.2511 35.6603 47.3907L30.7678 49.6856C30.559 49.7771 30.3808 49.9281 30.2548 50.1202C30.1287 50.3123 30.0603 50.5373 30.0577 50.768C30.0592 50.9684 30.1114 51.165 30.2092 51.3391C30.3071 51.5131 30.4473 51.6588 30.6166 51.7621C30.7958 51.8764 30.9985 51.9472 31.2091 51.969C31.4197 51.9908 31.6324 51.9629 31.8306 51.8876L38.6516 49.3279C38.9041 49.2403 39.1239 49.0761 39.2812 48.8575C39.4385 48.639 39.5258 48.3767 39.5312 48.1061V44.6916C39.5468 44.4776 39.6417 44.2775 39.7967 44.1315C39.9518 43.9854 40.1556 43.9043 40.3672 43.9043C40.5788 43.9043 40.7826 43.9854 40.9377 44.1315C41.0927 44.2775 41.1876 44.4776 41.2032 44.6916V48.1061C41.1929 48.7011 41.0016 49.2783 40.6556 49.7589C40.3096 50.2394 39.8257 50.6 39.27 50.7913L32.4444 53.2905C32.0919 53.4205 31.72 53.488 31.345 53.4903C30.7571 53.4976 30.1792 53.3366 29.6775 53.0257C29.2826 52.7843 28.9559 52.4437 28.7288 52.0368C28.5017 51.6299 28.3819 51.1705 28.3811 50.7029C28.3877 50.1709 28.5461 49.6523 28.8371 49.2096C29.1282 48.7669 29.5394 48.4191 30.0211 48.2083L34.9136 45.9135C34.9586 45.8929 34.9968 45.8595 35.0236 45.8175C35.0504 45.7755 35.0647 45.7266 35.0647 45.6765V37.8766C34.7421 37.7372 34.4658 37.5068 34.2685 37.2128C34.0712 36.9188 33.9612 36.5736 33.9516 36.2181V32.7107C33.6429 32.6237 33.3614 32.4581 33.1337 32.2296C32.906 32.0011 32.7396 31.7173 32.6506 31.4053L31.0014 25.1153C30.9277 24.8437 30.9213 24.5577 30.9829 24.283C31.0444 24.0082 31.172 23.7531 31.3542 23.5404C31.5404 23.3204 31.7708 23.1433 32.0298 23.0207C32.2889 22.8982 32.5708 22.833 32.8567 22.8296V20.2003H32.5773C32.3286 20.209 32.0808 20.1678 31.8479 20.0789C31.6151 19.9901 31.4018 19.8555 31.2205 19.6828C31.0391 19.5101 30.8932 19.3027 30.7911 19.0726C30.6891 18.8425 30.6329 18.5943 30.6258 18.3421V15.9774H30.3464C30.0981 15.9855 29.8507 15.9438 29.6184 15.8547C29.3861 15.7656 29.1734 15.6309 28.9925 15.4582C28.8116 15.2856 28.6661 15.0785 28.5644 14.8487C28.4626 14.6189 28.4066 14.371 28.3994 14.1192V12.6234C28.0743 12.4884 27.7953 12.2599 27.5967 11.966C27.398 11.6721 27.2886 11.3257 27.2817 10.9695V8.86054C27.2888 8.60836 27.345 8.36 27.447 8.12991C27.5491 7.89983 27.695 7.69254 27.8764 7.51984C28.0577 7.34715 28.271 7.2125 28.5038 7.12368C28.7367 7.03486 28.9845 6.99365 29.2332 7.00232H38.7066C38.8136 6.99398 38.9211 7.00816 39.0224 7.04395C39.1238 7.07974 39.2167 7.13628 39.2954 7.21022C39.3742 7.28415 39.437 7.37386 39.4799 7.47357C39.5229 7.57328 39.545 7.68085 39.545 7.78966C39.545 7.89847 39.5229 8.00616 39.4799 8.10587C39.437 8.20558 39.3742 8.29517 39.2954 8.36911C39.2167 8.44304 39.1238 8.4997 39.0224 8.53549C38.9211 8.57128 38.8136 8.58545 38.7066 8.57711H29.2148C29.1796 8.57524 29.1443 8.58053 29.1111 8.59265C29.0778 8.60477 29.0473 8.62344 29.0213 8.64766C28.9953 8.67188 28.9743 8.70119 28.9595 8.73374C28.9448 8.76629 28.9366 8.80149 28.9354 8.83729V11.016C28.939 11.0879 28.9703 11.1555 29.0226 11.2042C29.0748 11.2529 29.1439 11.2787 29.2148 11.2762H47.0348C47.1057 11.2787 47.1748 11.2529 47.2271 11.2042C47.2793 11.1555 47.3106 11.0879 47.3142 11.016V8.90693C47.313 8.87113 47.3049 8.83593 47.2901 8.80338C47.2754 8.77083 47.2544 8.74163 47.2283 8.71741C47.2023 8.69319 47.1718 8.67441 47.1386 8.66229C47.1053 8.65017 47.0701 8.64488 47.0348 8.64675H42.037C41.93 8.65509 41.8225 8.64092 41.7211 8.60513C41.6198 8.56934 41.5269 8.51279 41.4481 8.43886C41.3694 8.36493 41.3066 8.27522 41.2636 8.17551C41.2207 8.07579 41.1985 7.96822 41.1985 7.85941C41.1985 7.7506 41.2207 7.64292 41.2636 7.54321C41.3066 7.4435 41.3694 7.3539 41.4481 7.27997C41.5269 7.20603 41.6198 7.14937 41.7211 7.11358C41.8225 7.07779 41.93 7.06362 42.037 7.07196H47.0348C47.2834 7.06328 47.5313 7.1045 47.7641 7.19332C47.997 7.28214 48.2102 7.41679 48.3916 7.58948C48.573 7.76218 48.7189 7.96958 48.8209 8.19966C48.923 8.42975 48.9792 8.67799 48.9863 8.93018M32.5452 14.4537C32.5807 14.4549 32.6161 14.4491 32.6494 14.4365C32.6826 14.4238 32.7131 14.4047 32.7391 14.3801C32.765 14.3555 32.7859 14.3259 32.8006 14.2931C32.8153 14.2603 32.8235 14.225 32.8246 14.189V12.8742H30.0394V14.189C30.0418 14.2609 30.072 14.3288 30.1234 14.3784C30.1748 14.4279 30.2434 14.4549 30.3143 14.4537H32.5452ZM40.626 32.8501H35.6236V36.2693C35.6248 36.3051 35.633 36.3403 35.6477 36.3728C35.6625 36.4054 35.6835 36.4346 35.7095 36.4588C35.7355 36.483 35.766 36.5017 35.7993 36.5138C35.8325 36.5259 35.8678 36.5312 35.9031 36.5294H40.3603C40.3956 36.5312 40.4309 36.5259 40.4641 36.5138C40.4973 36.5017 40.5279 36.483 40.5539 36.4588C40.5799 36.4346 40.6009 36.4054 40.6157 36.3728C40.6304 36.3403 40.6386 36.3051 40.6398 36.2693L40.626 32.8501ZM43.9701 16.0286H43.6907C43.4424 16.0366 43.195 15.9949 42.9627 15.9058C42.7304 15.8167 42.5177 15.682 42.3368 15.5094C42.156 15.3367 42.0105 15.1295 41.9087 14.8998C41.8069 14.67 41.7509 14.4222 41.7438 14.1704V12.8556H34.5104V14.1704C34.5033 14.4226 34.4472 14.6708 34.3451 14.9009C34.243 15.131 34.0971 15.3384 33.9158 15.5111C33.7344 15.6838 33.5212 15.8183 33.2883 15.9071C33.0554 15.9959 32.8076 16.0373 32.559 16.0286H32.2795V18.3931C32.2807 18.4291 32.2889 18.4645 32.3035 18.4973C32.3182 18.5301 32.3392 18.5597 32.3651 18.5843C32.3911 18.6089 32.4216 18.6281 32.4548 18.6407C32.4881 18.6533 32.5235 18.6592 32.559 18.6579H37.598C37.705 18.6496 37.8125 18.6638 37.9139 18.6996C38.0152 18.7353 38.1081 18.792 38.1868 18.8659C38.2655 18.9399 38.3284 19.0295 38.3713 19.1292C38.4143 19.2289 38.4365 19.3366 38.4365 19.4454C38.4365 19.5542 38.4143 19.6619 38.3713 19.7616C38.3284 19.8613 38.2655 19.9509 38.1868 20.0248C38.1081 20.0988 38.0152 20.1554 37.9139 20.1912C37.8125 20.227 37.705 20.2412 37.598 20.2328H34.5334V22.8622H37.598C37.8046 22.8622 38.0026 22.9453 38.1487 23.0934C38.2947 23.2415 38.3768 23.4424 38.3768 23.6519C38.3768 23.8614 38.2947 24.0623 38.1487 24.2104C38.0026 24.3585 37.8046 24.4416 37.598 24.4416H32.875C32.8329 24.4406 32.791 24.4488 32.7523 24.4657C32.7136 24.4825 32.6789 24.5076 32.6506 24.5393C32.6254 24.5707 32.6081 24.6077 32.6001 24.6474C32.5921 24.687 32.5937 24.728 32.6048 24.7669L34.2722 31.0755C34.29 31.1339 34.3259 31.1849 34.3747 31.2209C34.4234 31.2569 34.4822 31.276 34.5425 31.2753H41.7209C41.7811 31.276 41.84 31.2569 41.8887 31.2209C41.9374 31.1849 41.9734 31.1339 41.9911 31.0755L43.6632 24.7669C43.6736 24.7277 43.6745 24.6864 43.6657 24.6468C43.6569 24.6071 43.6388 24.5702 43.6128 24.5393C43.5854 24.5077 43.5515 24.4826 43.5135 24.4658C43.4755 24.4489 43.4344 24.4406 43.3929 24.4416H40.9192C40.7127 24.4416 40.5146 24.3585 40.3685 24.2104C40.2225 24.0623 40.1404 23.8614 40.1404 23.6519C40.1404 23.4424 40.2225 23.2415 40.3685 23.0934C40.5146 22.9453 40.7127 22.8622 40.9192 22.8622H41.7575V20.2328H40.9192C40.8122 20.2412 40.7047 20.227 40.6034 20.1912C40.502 20.1554 40.4091 20.0988 40.3304 20.0248C40.2516 19.9509 40.1888 19.8613 40.1459 19.7616C40.1029 19.6619 40.0807 19.5542 40.0807 19.4454C40.0807 19.3366 40.1029 19.2289 40.1459 19.1292C40.1888 19.0295 40.2516 18.9399 40.3304 18.8659C40.4091 18.792 40.502 18.7353 40.6034 18.6996C40.7047 18.6638 40.8122 18.6496 40.9192 18.6579H43.7044C43.7399 18.6592 43.7753 18.6533 43.8086 18.6407C43.8418 18.6281 43.8723 18.6089 43.8983 18.5843C43.9242 18.5597 43.9451 18.5301 43.9598 18.4973C43.9745 18.4645 43.9827 18.4291 43.9839 18.3931L43.9701 16.0286ZM46.201 12.8742H43.4158V14.189C43.4182 14.2609 43.4484 14.3288 43.4998 14.3784C43.5512 14.4279 43.6198 14.4549 43.6907 14.4537H45.9216C45.993 14.455 46.062 14.4281 46.1142 14.3787C46.1663 14.3293 46.1975 14.2613 46.201 14.189V12.8742ZM20.2499 53.6436C20.4113 53.7934 20.6221 53.8766 20.8409 53.8766C21.0596 53.8766 21.2705 53.7934 21.4318 53.6436C21.5084 53.5735 21.5696 53.4878 21.6115 53.3922C21.6534 53.2965 21.6751 53.1931 21.6751 53.0884C21.6751 52.9838 21.6534 52.8803 21.6115 52.7847C21.5696 52.6891 21.5084 52.6035 21.4318 52.5334L16.9745 48.3245C16.8122 48.1766 16.6018 48.0947 16.3836 48.0947C16.1654 48.0947 15.9549 48.1766 15.7926 48.3245C15.7159 48.395 15.6546 48.481 15.6127 48.577C15.5707 48.6731 15.5491 48.7769 15.5491 48.8819C15.5491 48.9869 15.5707 49.0908 15.6127 49.1868C15.6546 49.2828 15.7159 49.3688 15.7926 49.4394L20.2499 53.6436ZM24.185 43.8879C23.9714 43.8817 23.7641 43.9611 23.6079 44.109C23.4518 44.2569 23.3596 44.4612 23.3512 44.6777V50.9678C23.3669 51.1818 23.4617 51.3819 23.6168 51.5279C23.7718 51.674 23.9756 51.7551 24.1872 51.7551C24.3989 51.7551 24.6027 51.674 24.7577 51.5279C24.9128 51.3819 25.0076 51.1818 25.0233 50.9678V44.6591C25.0149 44.4418 24.922 44.2367 24.7649 44.0887C24.6078 43.9407 24.3993 43.8618 24.185 43.8693" fill="white"/>
<path d="M48.1663 56.9977L48.1742 56.7277H48.1663V56.9977ZM26.4205 56.9977V56.7277H26.41L26.3995 56.7285L26.4205 56.9977ZM25.582 56.2102H25.852H25.582ZM26.4205 55.4229L26.3995 55.6921L26.41 55.6929H26.4205V55.4229ZM48.1571 55.4229V55.6931L48.1667 55.6927L48.1571 55.4229ZM15.8385 55.4229L15.8175 55.6921L15.828 55.6929H15.8385V55.4229ZM15 56.2102H15.27H15ZM15.8385 56.9977V56.7277H15.828L15.8175 56.7285L15.8385 56.9977ZM23.0855 56.9977L23.1065 56.7285L23.096 56.7277H23.0855V56.9977ZM23.924 56.2102H23.654H23.924ZM49 11.016L49.27 11.0214V11.016H49ZM47.8868 12.6699L47.7822 12.421L47.6168 12.4905V12.6699H47.8868ZM47.8868 14.1657L48.1568 14.1733V14.1657H47.8868ZM45.9353 16.0239L45.9448 15.7539H45.9353V16.0239ZM45.6605 16.0239V15.7539H45.3905V16.0239H45.6605ZM45.6605 18.3886L45.9305 18.3962V18.3886H45.6605ZM43.709 20.2468L43.7184 19.9768H43.709V20.2468ZM43.4342 20.2468V19.9768H43.1642V20.2468H43.4342ZM43.4342 22.8761H43.1642V23.143L43.431 23.1461L43.4342 22.8761ZM44.9367 23.5869L44.7306 23.7614L44.7309 23.7617L44.9367 23.5869ZM45.2894 25.1617L45.0286 25.0921L45.0284 25.0925L45.2894 25.1617ZM43.6174 31.4704L43.877 31.5445L43.8784 31.5396L43.6174 31.4704ZM42.3164 32.7758L42.2431 32.516L42.0464 32.5714V32.7758H42.3164ZM42.3164 36.2831L42.5864 36.2904V36.2831H42.3164ZM41.2032 37.9416L41.0961 37.6938L40.9332 37.7642V37.9416H41.2032ZM41.2032 41.5373L41.4725 41.5569L41.4732 41.5471V41.5373H41.2032ZM39.5312 41.5373H39.2612V41.5471L39.2619 41.5569L39.5312 41.5373ZM39.5312 38.1182H39.8012V37.8482H39.5312V38.1182ZM36.7459 38.1182V37.8482H36.4759V38.1182H36.7459ZM36.7459 45.7415L37.0159 45.7454V45.7415H36.7459ZM35.6603 47.3907L35.5518 47.1434L35.5456 47.1463L35.6603 47.3907ZM30.7678 49.6856L30.8762 49.9329L30.8825 49.93L30.7678 49.6856ZM30.0577 50.768L29.7877 50.765L29.7878 50.77L30.0577 50.768ZM30.6166 51.7621L30.7619 51.5345L30.7573 51.5317L30.6166 51.7621ZM31.2091 51.969L31.1814 52.2376L31.2091 51.969ZM31.8306 51.8876L31.7357 51.6348L31.7347 51.6352L31.8306 51.8876ZM38.6516 49.3279L38.5631 49.0727L38.5568 49.0751L38.6516 49.3279ZM39.5312 48.1061L39.8012 48.1115V48.1061H39.5312ZM39.5312 44.6916L39.2619 44.6719L39.2612 44.6818V44.6916H39.5312ZM41.2032 44.6916H41.4732V44.6818L41.4725 44.6719L41.2032 44.6916ZM41.2032 48.1061L41.4732 48.1109V48.1061H41.2032ZM39.27 50.7913L39.1822 50.5359L39.1772 50.5377L39.27 50.7913ZM32.4444 53.2905L32.3516 53.037L32.3511 53.0372L32.4444 53.2905ZM31.345 53.4903L31.3434 53.2203L31.3416 53.2203L31.345 53.4903ZM29.6775 53.0257L29.8197 52.7962L29.8183 52.7953L29.6775 53.0257ZM28.3811 50.7029L28.1111 50.6996L28.1111 50.7034L28.3811 50.7029ZM30.0211 48.2083L30.1294 48.4558L30.1358 48.4528L30.0211 48.2083ZM34.9136 45.9135L34.8014 45.6679L34.7989 45.669L34.9136 45.9135ZM35.0647 45.6765L35.3347 45.6768V45.6765H35.0647ZM35.0647 37.8766H35.3347V37.6992L35.1719 37.6288L35.0647 37.8766ZM33.9516 36.2181H33.6815L33.6817 36.2254L33.9516 36.2181ZM33.9516 32.7107H34.2216V32.5063L34.0248 32.4509L33.9516 32.7107ZM32.6506 31.4053L32.3893 31.4738L32.3909 31.4794L32.6506 31.4053ZM31.0014 25.1153L31.2626 25.0468L31.262 25.0446L31.0014 25.1153ZM31.3542 23.5404L31.5592 23.7161L31.5602 23.7149L31.3542 23.5404ZM32.8567 22.8296L32.8599 23.0996L33.1267 23.0965V22.8296H32.8567ZM32.8567 20.2003H33.1267V19.9303H32.8567V20.2003ZM32.5773 20.2003V19.9301L32.5679 19.9305L32.5773 20.2003ZM30.6258 18.3421H30.3557L30.3559 18.3497L30.6258 18.3421ZM30.6258 15.9774H30.8958V15.7074H30.6258V15.9774ZM30.3464 15.9774V15.7073L30.3376 15.7076L30.3464 15.9774ZM28.3994 14.1192H28.1293L28.1296 14.1268L28.3994 14.1192ZM28.3994 12.6234H28.6694V12.4431L28.503 12.374L28.3994 12.6234ZM27.2817 10.9695H27.0116L27.0117 10.9747L27.2817 10.9695ZM27.2817 8.86054L27.0117 8.85294V8.86054H27.2817ZM29.2332 7.00232L29.2238 7.27232H29.2332V7.00232ZM38.7066 7.00232V7.27232H38.7171L38.7276 7.27151L38.7066 7.00232ZM39.545 7.78966H39.275H39.545ZM38.7066 8.57711L38.7276 8.30793L38.7171 8.30711H38.7066V8.57711ZM29.2148 8.57711L29.2005 8.84673L29.2077 8.84711H29.2148V8.57711ZM28.9354 8.83729L28.6654 8.82847V8.83729H28.9354ZM28.9354 11.016H28.6651L28.6657 11.0294L28.9354 11.016ZM29.2148 11.2762V11.006L29.2052 11.0064L29.2148 11.2762ZM47.0348 11.2762L47.0444 11.0062H47.0348V11.2762ZM47.3142 11.016L47.5842 11.0294V11.016H47.3142ZM47.3142 8.90693H47.5844L47.5841 8.89811L47.3142 8.90693ZM47.0348 8.64675V8.91675H47.0419L47.0491 8.91637L47.0348 8.64675ZM42.037 8.64675V8.37675H42.0265L42.016 8.37757L42.037 8.64675ZM41.1985 7.85941H41.4685H41.1985ZM42.037 7.07196L42.016 7.34114L42.0265 7.34196H42.037V7.07196ZM47.0348 7.07196V7.34212L47.0442 7.3418L47.0348 7.07196ZM32.5452 14.4537L32.5546 14.1837H32.5452V14.4537ZM32.8246 14.189L33.0946 14.1978V14.189H32.8246ZM32.8246 12.8742H33.0946V12.6042H32.8246V12.8742ZM30.0394 12.8742V12.6042H29.7694V12.8742H30.0394ZM30.0394 14.189H29.7693L29.7696 14.198L30.0394 14.189ZM30.3143 14.4537V14.1836L30.3095 14.1837L30.3143 14.4537ZM40.626 32.8501L40.896 32.849L40.8949 32.5801H40.626V32.8501ZM35.6236 32.8501V32.5801H35.3536V32.8501H35.6236ZM35.6236 36.2693H35.3535L35.3538 36.2781L35.6236 36.2693ZM35.9031 36.5294V36.2594H35.8959L35.8887 36.2597L35.9031 36.5294ZM40.3603 36.5294L40.3746 36.2597L40.3675 36.2594H40.3603V36.5294ZM40.6398 36.2693L40.9098 36.2781L40.9097 36.2682L40.6398 36.2693ZM43.9701 16.0286L44.2401 16.027L44.2386 15.7586H43.9701V16.0286ZM43.6907 16.0286V15.7585L43.6819 15.7587L43.6907 16.0286ZM41.7438 14.1704H41.4737L41.4739 14.178L41.7438 14.1704ZM41.7438 12.8556H42.0138V12.5856H41.7438V12.8556ZM34.5104 12.8556V12.5856H34.2404V12.8556H34.5104ZM34.5104 14.1704L34.7804 14.178V14.1704H34.5104ZM32.559 16.0286L32.5684 15.7586H32.559V16.0286ZM32.2795 16.0286V15.7586H32.0095V16.0286H32.2795ZM32.2795 18.3931H32.0094L32.0096 18.402L32.2795 18.3931ZM32.559 18.6579V18.3878L32.5495 18.3881L32.559 18.6579ZM37.598 18.6579V18.9279H37.6085L37.619 18.9271L37.598 18.6579ZM38.4365 19.4454H38.1665H38.4365ZM37.598 20.2328L37.619 19.9637L37.6085 19.9628H37.598V20.2328ZM34.5334 20.2328V19.9628H34.2634V20.2328H34.5334ZM34.5334 22.8622H34.2634V23.1322H34.5334V22.8622ZM37.598 22.8622V23.1322V22.8622ZM32.875 24.4416L32.8683 24.7116H32.875V24.4416ZM32.6506 24.5393L32.4492 24.3593L32.4444 24.3647L32.4399 24.3704L32.6506 24.5393ZM32.6048 24.7669L32.8658 24.6979L32.8645 24.6932L32.6048 24.7669ZM34.2722 31.0755L34.011 31.1445L34.0139 31.1541L34.2722 31.0755ZM34.5425 31.2753V31.0053L34.5393 31.0053L34.5425 31.2753ZM41.7209 31.2753L41.7241 31.0053H41.7209V31.2753ZM41.9911 31.0755L42.2496 31.1542L42.2521 31.1447L41.9911 31.0755ZM43.6632 24.7669L43.4022 24.6977L43.4022 24.6977L43.6632 24.7669ZM43.6128 24.5393L43.8198 24.3658L43.8167 24.3622L43.6128 24.5393ZM43.3929 24.4416V24.7117L43.3994 24.7115L43.3929 24.4416ZM41.7575 22.8622V23.1322H42.0275V22.8622H41.7575ZM41.7575 20.2328H42.0275V19.9628H41.7575V20.2328ZM40.9192 20.2328V19.9628H40.9087L40.8982 19.9637L40.9192 20.2328ZM40.0807 19.4454H40.3507H40.0807ZM40.9192 18.6579L40.8982 18.9271L40.9087 18.9279H40.9192V18.6579ZM43.7044 18.6579L43.7139 18.3879H43.7044V18.6579ZM43.9839 18.3931L44.2539 18.402L44.2539 18.3915L43.9839 18.3931ZM46.201 12.8742H46.471V12.6042H46.201V12.8742ZM43.4158 12.8742V12.6042H43.1458V12.8742H43.4158ZM43.4158 14.189H43.1457L43.146 14.198L43.4158 14.189ZM43.6907 14.4537V14.1836L43.6859 14.1837L43.6907 14.4537ZM45.9216 14.4537L45.9265 14.1837H45.9216V14.4537ZM46.201 14.189L46.471 14.2023V14.189H46.201ZM20.2499 53.6436L20.0647 53.84L20.0662 53.8414L20.2499 53.6436ZM21.4318 53.6436L21.2495 53.4445L21.2481 53.4458L21.4318 53.6436ZM21.4318 52.5334L21.2464 52.7297L21.2495 52.7325L21.4318 52.5334ZM16.9745 48.3245L17.1599 48.1281L17.1564 48.1249L16.9745 48.3245ZM16.3836 48.0947V47.8247V48.0947ZM15.7926 48.3245L15.6108 48.1249L15.6099 48.1257L15.7926 48.3245ZM15.7926 49.4394L15.9779 49.2429L15.9754 49.2406L15.7926 49.4394ZM23.3512 44.6777L23.0812 44.6672V44.6777H23.3512ZM23.3512 50.9678H23.0812V50.9776L23.0819 50.9874L23.3512 50.9678ZM25.0233 50.9678L25.2926 50.9874L25.2933 50.9776V50.9678H25.0233ZM25.0233 44.6591H25.2935L25.2931 44.6487L25.0233 44.6591ZM48.7302 56.1975C48.7245 56.3441 48.6621 56.4816 48.5576 56.5806L48.929 56.9726C49.1367 56.7759 49.2587 56.5048 49.2698 56.2184L48.7302 56.1975ZM48.5576 56.5806C48.4532 56.6795 48.3154 56.7319 48.1742 56.7278L48.1583 57.2676C48.4442 57.276 48.7211 57.1695 48.929 56.9726L48.5576 56.5806ZM48.1663 56.7277H26.4205V57.2677H48.1663V56.7277ZM26.3995 56.7285C26.3301 56.7339 26.2604 56.7247 26.1946 56.7015L26.0147 57.2106C26.1515 57.259 26.2968 57.2781 26.4414 57.2669L26.3995 56.7285ZM26.1946 56.7015C26.1287 56.6782 26.0681 56.6413 26.0165 56.5929L25.6468 56.9865C25.7527 57.0859 25.8779 57.1623 26.0147 57.2106L26.1946 56.7015ZM26.0165 56.5929C25.9649 56.5444 25.9235 56.4855 25.8951 56.4196L25.3992 56.6333C25.4567 56.7668 25.5409 56.8871 25.6468 56.9865L26.0165 56.5929ZM25.8951 56.4196C25.8667 56.3537 25.852 56.2824 25.852 56.2102H25.312C25.312 56.3557 25.3416 56.4997 25.3992 56.6333L25.8951 56.4196ZM25.852 56.2102C25.852 56.1381 25.8667 56.0669 25.8951 56.001L25.3992 55.7873C25.3417 55.9208 25.312 56.0648 25.312 56.2102H25.852ZM25.8951 56.001C25.9235 55.935 25.9649 55.876 26.0165 55.8276L25.6468 55.434C25.5409 55.5334 25.4567 55.6539 25.3992 55.7873L25.8951 56.001ZM26.0165 55.8276C26.0679 55.7793 26.1286 55.7424 26.1946 55.7191L26.0147 55.2099C25.878 55.2582 25.7528 55.3344 25.6468 55.434L26.0165 55.8276ZM26.1946 55.7191C26.2604 55.6958 26.3301 55.6867 26.3995 55.6921L26.4414 55.1537C26.2968 55.1424 26.1515 55.1616 26.0147 55.2099L26.1946 55.7191ZM26.4205 55.6929H48.1571V55.1529H26.4205V55.6929ZM48.1667 55.6927C48.3072 55.6877 48.4446 55.7394 48.5487 55.8374L48.9189 55.4443C48.7106 55.2481 48.4333 55.1429 48.1476 55.1531L48.1667 55.6927ZM48.5487 55.8374C48.653 55.9356 48.7154 56.0725 48.7211 56.2184L49.2607 56.1975C49.2496 55.9113 49.1271 55.6404 48.9189 55.4443L48.5487 55.8374ZM23.0764 55.1529H15.8385V55.6929H23.0764V55.1529ZM15.8594 55.1537C15.7148 55.1424 15.5695 55.1616 15.4327 55.2099L15.6126 55.7191C15.6784 55.6958 15.7481 55.6867 15.8175 55.6921L15.8594 55.1537ZM15.4327 55.2099C15.296 55.2582 15.1708 55.3344 15.0648 55.434L15.4345 55.8276C15.4859 55.7793 15.5466 55.7424 15.6126 55.7191L15.4327 55.2099ZM15.0648 55.434C14.9589 55.5334 14.8747 55.6538 14.8171 55.7873L15.3131 56.001C15.3415 55.935 15.3829 55.876 15.4345 55.8276L15.0648 55.434ZM14.8171 55.7873C14.7596 55.9208 14.73 56.0648 14.73 56.2102H15.27C15.27 56.1381 15.2847 56.0669 15.3131 56.001L14.8171 55.7873ZM14.73 56.2102C14.73 56.3557 14.7596 56.4997 14.8171 56.6333L15.3131 56.4196C15.2847 56.3537 15.27 56.2824 15.27 56.2102H14.73ZM14.8171 56.6333C14.8747 56.7668 14.959 56.8871 15.0648 56.9865L15.4345 56.5929C15.3828 56.5444 15.3414 56.4854 15.3131 56.4196L14.8171 56.6333ZM15.0648 56.9865C15.1706 57.0859 15.2959 57.1623 15.4327 57.2106L15.6126 56.7015C15.5467 56.6782 15.4861 56.6413 15.4345 56.5929L15.0648 56.9865ZM15.4327 57.2106C15.5695 57.259 15.7148 57.2781 15.8594 57.2669L15.8175 56.7285C15.7481 56.7339 15.6784 56.7247 15.6126 56.7015L15.4327 57.2106ZM15.8385 57.2677H23.0855V56.7277H15.8385V57.2677ZM23.0645 57.2669C23.2092 57.2781 23.3545 57.259 23.4913 57.2106L23.3115 56.7015C23.2456 56.7247 23.1758 56.7339 23.1065 56.7285L23.0645 57.2669ZM23.4913 57.2106C23.6282 57.1623 23.7533 57.0859 23.8592 56.9865L23.4895 56.5929C23.4379 56.6413 23.3773 56.6782 23.3115 56.7015L23.4913 57.2106ZM23.8592 56.9865C23.965 56.8871 24.0493 56.7668 24.1068 56.6333L23.6109 56.4196C23.5825 56.4854 23.5411 56.5444 23.4895 56.5929L23.8592 56.9865ZM24.1068 56.6333C24.1644 56.4997 24.194 56.3557 24.194 56.2102H23.654C23.654 56.2824 23.6393 56.3537 23.6109 56.4196L24.1068 56.6333ZM24.194 56.2102C24.194 56.0648 24.1643 55.9208 24.1068 55.7873L23.6109 56.001C23.6393 56.0669 23.654 56.1381 23.654 56.2102H24.194ZM24.1068 55.7873C24.0493 55.6538 23.9651 55.5334 23.8592 55.434L23.4895 55.8276C23.5411 55.876 23.5825 55.935 23.6109 56.001L24.1068 55.7873ZM23.8592 55.434C23.7532 55.3344 23.628 55.2582 23.4913 55.2099L23.3115 55.7191C23.3774 55.7424 23.438 55.7792 23.4895 55.8276L23.8592 55.434ZM23.4913 55.2099C23.3545 55.1616 23.2092 55.1424 23.0645 55.1537L23.1065 55.6921C23.1758 55.6867 23.2456 55.6958 23.3115 55.7191L23.4913 55.2099ZM48.73 8.89763V11.016H49.27V8.89763H48.73ZM48.7301 11.0107C48.724 11.3146 48.6308 11.6098 48.4622 11.8603L48.9102 12.1618C49.137 11.8248 49.2618 11.4285 49.2699 11.0214L48.7301 11.0107ZM48.4622 11.8603C48.2937 12.1107 48.0572 12.3053 47.7822 12.421L47.9915 12.9188C48.3643 12.762 48.6834 12.4988 48.9102 12.1618L48.4622 11.8603ZM47.6168 12.6699V14.1657H48.1568V12.6699H47.6168ZM47.6169 14.1581C47.6108 14.3753 47.5624 14.5889 47.4747 14.7868L47.9683 15.0057C48.0846 14.7434 48.1486 14.4606 48.1567 14.1733L47.6169 14.1581ZM47.4747 14.7868C47.3869 14.9847 47.2615 15.1628 47.106 15.3109L47.4784 15.702C47.6855 15.5047 47.852 15.268 47.9683 15.0057L47.4747 14.7868ZM47.106 15.3109C46.9505 15.459 46.7678 15.5742 46.5685 15.6502L46.7609 16.1547C47.0273 16.0531 47.2712 15.8993 47.4784 15.702L47.106 15.3109ZM46.5685 15.6502C46.3692 15.7262 46.1572 15.7615 45.9448 15.7541L45.9259 16.2938C46.2107 16.3037 46.4945 16.2564 46.7609 16.1547L46.5685 15.6502ZM45.9353 15.7539H45.6605V16.2939H45.9353V15.7539ZM45.3905 16.0239V18.3886H45.9305V16.0239H45.3905ZM45.3906 18.381C45.3845 18.5981 45.3361 18.8117 45.2483 19.0096L45.7419 19.2286C45.8583 18.9663 45.9223 18.6834 45.9304 18.3962L45.3906 18.381ZM45.2483 19.0096C45.1606 19.2075 45.0352 19.3855 44.8796 19.5336L45.252 19.9247C45.4591 19.7275 45.6256 19.4909 45.7419 19.2286L45.2483 19.0096ZM44.8796 19.5336C44.724 19.6818 44.5414 19.7971 44.3421 19.8731L44.5346 20.3776C44.8011 20.2759 45.0449 20.1219 45.252 19.9247L44.8796 19.5336ZM44.3421 19.8731C44.1429 19.9491 43.9309 19.9844 43.7184 19.977L43.6996 20.5166C43.9844 20.5266 44.2682 20.4792 44.5346 20.3776L44.3421 19.8731ZM43.709 19.9768H43.4342V20.5168H43.709V19.9768ZM43.1642 20.2468V22.8761H43.7042V20.2468H43.1642ZM43.431 23.1461C43.6779 23.149 43.9215 23.2052 44.1456 23.3112L44.3765 22.8231C44.0823 22.6839 43.7621 22.61 43.4373 22.6062L43.431 23.1461ZM44.1456 23.3112C44.3696 23.4172 44.5691 23.5706 44.7306 23.7614L45.1428 23.4125C44.9318 23.1633 44.6706 22.9622 44.3765 22.8231L44.1456 23.3112ZM44.7309 23.7617C44.8836 23.9415 44.9908 24.1567 45.0427 24.3888L45.5697 24.2708C45.4987 23.9538 45.3521 23.659 45.1425 23.4121L44.7309 23.7617ZM45.0427 24.3888C45.0947 24.6209 45.0898 24.8624 45.0286 25.0921L45.5503 25.2313C45.634 24.9175 45.6407 24.5878 45.5697 24.2708L45.0427 24.3888ZM45.0284 25.0925L43.3564 31.4012L43.8784 31.5396L45.5504 25.2309L45.0284 25.0925ZM43.3577 31.3963C43.2811 31.6646 43.1382 31.9083 42.943 32.1041L43.3255 32.4853C43.5857 32.2242 43.7754 31.9003 43.877 31.5445L43.3577 31.3963ZM42.943 32.1041C42.7479 32.3 42.5069 32.4416 42.2431 32.516L42.3897 33.0357C42.7432 32.936 43.0653 32.7464 43.3255 32.4853L42.943 32.1041ZM42.0464 32.7758V36.2831H42.5864V32.7758H42.0464ZM42.0465 36.2758C42.0383 36.5805 41.944 36.876 41.7753 37.1273L42.2237 37.4283C42.4496 37.0917 42.5753 36.6968 42.5863 36.2904L42.0465 36.2758ZM41.7753 37.1273C41.6066 37.3786 41.3707 37.5751 41.0961 37.6938L41.3104 38.1895C41.6809 38.0293 41.9977 37.7649 42.2237 37.4283L41.7753 37.1273ZM40.9332 37.9416V41.5373H41.4732V37.9416H40.9332ZM40.9339 41.5176C40.9232 41.6648 40.858 41.8016 40.7526 41.9009L41.1228 42.294C41.3275 42.1012 41.452 41.8378 41.4725 41.5569L40.9339 41.5176ZM40.7526 41.9009C40.6472 42.0001 40.5095 42.0546 40.3672 42.0546V42.5946C40.6481 42.5946 40.918 42.4869 41.1228 42.294L40.7526 41.9009ZM40.3672 42.0546C40.2249 42.0546 40.0872 42.0001 39.9818 41.9009L39.6116 42.294C39.8164 42.4869 40.0863 42.5946 40.3672 42.5946V42.0546ZM39.9818 41.9009C39.8764 41.8016 39.8112 41.6648 39.8004 41.5176L39.2619 41.5569C39.2824 41.8378 39.4069 42.1012 39.6116 42.294L39.9818 41.9009ZM39.8012 41.5373V38.1182H39.2612V41.5373H39.8012ZM39.5312 37.8482H36.7459V38.3882H39.5312V37.8482ZM36.4759 38.1182V45.7415H37.0159V38.1182H36.4759ZM36.476 45.7376C36.4716 46.0382 36.3818 46.3307 36.2176 46.5801L36.6686 46.877C36.8897 46.5413 37.0101 46.1483 37.0159 45.7454L36.476 45.7376ZM36.2176 46.5801C36.0534 46.8295 35.8221 47.0249 35.5518 47.1434L35.7687 47.638C36.1352 47.4773 36.4476 47.2128 36.6686 46.877L36.2176 46.5801ZM35.5456 47.1463L30.6531 49.4411L30.8825 49.93L35.7749 47.6352L35.5456 47.1463ZM30.6594 49.4383C30.4023 49.551 30.1835 49.7366 30.029 49.9721L30.4805 50.2683C30.5781 50.1196 30.7157 50.0032 30.8762 49.9329L30.6594 49.4383ZM30.029 49.9721C29.8745 50.2075 29.7909 50.483 29.7878 50.765L30.3277 50.771C30.3297 50.5917 30.3829 50.417 30.4805 50.2683L30.029 49.9721ZM29.7878 50.77C29.7896 51.0159 29.8536 51.2574 29.9739 51.4714L30.4446 51.2068C30.3692 51.0727 30.3289 50.9209 30.3277 50.766L29.7878 50.77ZM29.9739 51.4714C30.0942 51.6855 30.267 51.865 30.4759 51.9926L30.7573 51.5317C30.6277 51.4526 30.52 51.3408 30.4446 51.2068L29.9739 51.4714ZM30.4714 51.9898C30.6858 52.1266 30.9288 52.2115 31.1814 52.2376L31.2369 51.7004C31.0683 51.683 30.9057 51.6263 30.7618 51.5345L30.4714 51.9898ZM31.1814 52.2376C31.4339 52.2637 31.689 52.2302 31.9265 52.14L31.7347 51.6352C31.5758 51.6955 31.4054 51.7178 31.2369 51.7004L31.1814 52.2376ZM31.9254 52.1404L38.7465 49.5807L38.5568 49.0751L31.7357 51.6348L31.9254 52.1404ZM38.7401 49.5829C39.0456 49.477 39.3108 49.2786 39.5003 49.0153L39.0621 48.6998C38.937 48.8736 38.7626 49.0036 38.5631 49.0728L38.7401 49.5829ZM39.5003 49.0153C39.6898 48.752 39.7947 48.4365 39.8011 48.1115L39.2612 48.1008C39.2569 48.3168 39.1872 48.5259 39.0621 48.6998L39.5003 49.0153ZM39.8012 48.1061V44.6916H39.2612V48.1061H39.8012ZM39.8004 44.7113C39.8112 44.5641 39.8764 44.4273 39.9818 44.328L39.6116 43.9349C39.4069 44.1277 39.2824 44.3911 39.2619 44.6719L39.8004 44.7113ZM39.9818 44.328C40.0872 44.2288 40.2249 44.1743 40.3672 44.1743V43.6343C40.0863 43.6343 39.8164 43.742 39.6116 43.9349L39.9818 44.328ZM40.3672 44.1743C40.5095 44.1743 40.6472 44.2288 40.7526 44.328L41.1228 43.9349C40.918 43.742 40.6481 43.6343 40.3672 43.6343V44.1743ZM40.7526 44.328C40.858 44.4273 40.9232 44.5641 40.9339 44.7113L41.4725 44.6719C41.452 44.3911 41.3275 44.1277 41.1228 43.9349L40.7526 44.328ZM40.9332 44.6916V48.1061H41.4732V44.6916H40.9332ZM40.9333 48.1014C40.9238 48.6417 40.7502 49.1654 40.4365 49.6011L40.8747 49.9166C41.253 49.3911 41.4619 48.7605 41.4732 48.1109L40.9333 48.1014ZM40.4365 49.6011C40.1228 50.0368 39.6846 50.3631 39.1822 50.536L39.3579 51.0466C39.9668 50.837 40.4964 50.4421 40.8747 49.9166L40.4365 49.6011ZM39.1772 50.5377L32.3516 53.037L32.5373 53.5441L39.3629 51.0448L39.1772 50.5377ZM32.3511 53.0372C32.0279 53.1563 31.6871 53.2182 31.3434 53.2203L31.3466 53.7603C31.753 53.7578 32.156 53.6846 32.5378 53.5439L32.3511 53.0372ZM31.3416 53.2203C30.8054 53.227 30.2779 53.0801 29.8197 52.7962L29.5353 53.2552C30.0805 53.593 30.7089 53.7682 31.3484 53.7602L31.3416 53.2203ZM29.8183 52.7953C29.4634 52.5784 29.1692 52.2719 28.9645 51.9052L28.493 52.1684C28.7426 52.6156 29.1019 52.9903 29.5367 53.2561L29.8183 52.7953ZM28.9645 51.9052C28.7599 51.5386 28.6519 51.1243 28.6511 50.7025L28.1111 50.7034C28.112 51.2167 28.2434 51.7213 28.493 52.1684L28.9645 51.9052ZM28.6511 50.7063C28.6571 50.2256 28.8002 49.7573 29.0627 49.3579L28.6115 49.0613C28.292 49.5472 28.1184 50.1162 28.1112 50.6996L28.6511 50.7063ZM29.0627 49.3579C29.3253 48.9585 29.6959 48.6454 30.1293 48.4557L29.9128 47.961C29.3829 48.1929 28.931 48.5752 28.6115 49.0613L29.0627 49.3579ZM30.1358 48.4528L35.0282 46.1579L34.7989 45.669L29.9064 47.9639L30.1358 48.4528ZM35.0257 46.159C35.1187 46.1166 35.1967 46.0481 35.2512 45.9627L34.796 45.6723C34.7968 45.671 34.7984 45.6692 34.8014 45.6679L35.0257 46.159ZM35.2512 45.9627C35.3057 45.8773 35.3346 45.7781 35.3347 45.6768L34.7947 45.6762C34.7947 45.6751 34.7951 45.6737 34.796 45.6723L35.2512 45.9627ZM35.3347 45.6765V37.8766H34.7947V45.6765H35.3347ZM35.1719 37.6288C34.8972 37.5101 34.6614 37.3136 34.4927 37.0623L34.0443 37.3633C34.2703 37.6999 34.5871 37.9643 34.9576 38.1245L35.1719 37.6288ZM34.4927 37.0623C34.324 36.811 34.2297 36.5155 34.2215 36.2108L33.6817 36.2254C33.6926 36.6318 33.8184 37.0267 34.0443 37.3633L34.4927 37.0623ZM34.2216 36.2181V32.7107H33.6816V36.2181H34.2216ZM34.0248 32.4509C33.7611 32.3765 33.5201 32.2349 33.3249 32.039L32.9424 32.4202C33.2027 32.6813 33.5248 32.8709 33.8783 32.9706L34.0248 32.4509ZM33.3249 32.039C33.1297 31.8431 32.9868 31.5995 32.9102 31.3312L32.3909 31.4794C32.4925 31.8352 32.6822 32.1591 32.9424 32.4202L33.3249 32.039ZM32.9117 31.3368L31.2626 25.0468L30.7403 25.1838L32.3894 31.4738L32.9117 31.3368ZM31.262 25.0446C31.1998 24.8153 31.1944 24.5739 31.2463 24.342L30.7194 24.2239C30.6483 24.5415 30.6556 24.872 30.7409 25.186L31.262 25.0446ZM31.2463 24.342C31.2983 24.11 31.4059 23.8951 31.5592 23.7161L31.1491 23.3648C30.938 23.6112 30.7905 23.9064 30.7194 24.2239L31.2463 24.342ZM31.5602 23.7149C31.7217 23.5241 31.9212 23.3708 32.1453 23.2648L31.9144 22.7767C31.6203 22.9158 31.3591 23.1167 31.1481 23.366L31.5602 23.7149ZM32.1453 23.2648C32.3694 23.1588 32.613 23.1025 32.8599 23.0996L32.8535 22.5596C32.5287 22.5635 32.2085 22.6375 31.9144 22.7767L32.1453 23.2648ZM33.1267 22.8296V20.2003H32.5867V22.8296H33.1267ZM32.8567 19.9303H32.5773V20.4703H32.8567V19.9303ZM32.5679 19.9305C32.3553 19.9379 32.1433 19.9026 31.9441 19.8267L31.7517 20.3312C32.0182 20.4329 32.302 20.4801 32.5867 20.4701L32.5679 19.9305ZM31.9441 19.8267C31.7449 19.7507 31.5622 19.6354 31.4067 19.4872L31.0343 19.8783C31.2414 20.0756 31.4852 20.2296 31.7517 20.3312L31.9441 19.8267ZM31.4067 19.4872C31.2511 19.3391 31.1257 19.161 31.0379 18.9631L30.5443 19.1821C30.6607 19.4443 30.8271 19.681 31.0343 19.8783L31.4067 19.4872ZM31.0379 18.9631C30.9502 18.7652 30.9018 18.5516 30.8957 18.3345L30.3559 18.3497C30.364 18.6369 30.428 18.9198 30.5443 19.1821L31.0379 18.9631ZM30.8958 18.3421V15.9774H30.3558V18.3421H30.8958ZM30.6258 15.7074H30.3464V16.2474H30.6258V15.7074ZM30.3376 15.7076C30.1253 15.7145 29.9138 15.6789 29.7151 15.6026L29.5217 16.1068C29.7876 16.2088 30.0708 16.2565 30.3551 16.2473L30.3376 15.7076ZM29.7151 15.6026C29.5163 15.5264 29.3341 15.411 29.1789 15.2629L28.8061 15.6535C29.0127 15.8507 29.2558 16.0048 29.5217 16.1068L29.7151 15.6026ZM29.1789 15.2629C29.0237 15.1148 28.8987 14.937 28.8112 14.7394L28.3175 14.9581C28.4335 15.22 28.5995 15.4564 28.8061 15.6535L29.1789 15.2629ZM28.8112 14.7394C28.7237 14.5418 28.6755 14.3284 28.6693 14.1116L28.1296 14.1268C28.1376 14.4136 28.2015 14.6961 28.3175 14.9581L28.8112 14.7394ZM28.6694 14.1192V12.6234H28.1294V14.1192H28.6694ZM28.503 12.374C28.2271 12.2594 27.9896 12.0653 27.8204 11.8148L27.373 12.1172C27.6009 12.4545 27.9216 12.7173 28.2959 12.8727L28.503 12.374ZM27.8204 11.8148C27.6511 11.5643 27.5575 11.2687 27.5516 10.9643L27.0117 10.9747C27.0196 11.3828 27.145 11.7799 27.373 12.1172L27.8204 11.8148ZM27.5517 10.9695V8.86054H27.0117V10.9695H27.5517ZM27.5516 8.86814C27.5577 8.651 27.6061 8.43725 27.6939 8.23939L27.2002 8.02044C27.0839 8.28274 27.0199 8.56571 27.0118 8.85295L27.5516 8.86814ZM27.6939 8.23939C27.7816 8.04155 27.907 7.86353 28.0626 7.71538L27.6902 7.32431C27.483 7.52154 27.3166 7.75811 27.2002 8.02044L27.6939 8.23939ZM28.0626 7.71538C28.2181 7.56724 28.4008 7.45194 28.6 7.37595L28.4076 6.87141C28.1411 6.97306 27.8973 7.12706 27.6902 7.32431L28.0626 7.71538ZM28.6 7.37595C28.7992 7.29997 29.0112 7.26474 29.2238 7.27216L29.2426 6.73249C28.9579 6.72255 28.6741 6.76975 28.4076 6.87141L28.6 7.37595ZM29.2332 7.27232H38.7066V6.73232H29.2332V7.27232ZM38.7276 7.27151C38.7969 7.2661 38.8667 7.27528 38.9325 7.29853L39.1124 6.78936C38.9755 6.74104 38.8302 6.72187 38.6856 6.73314L38.7276 7.27151ZM38.9325 7.29853C38.9985 7.32184 39.0591 7.35869 39.1106 7.40703L39.4803 7.0134C39.3743 6.91387 39.249 6.83764 39.1124 6.78936L38.9325 7.29853ZM39.1106 7.40703C39.1621 7.45542 39.2035 7.51442 39.2319 7.58039L39.7279 7.36675C39.6704 7.23329 39.5862 7.11288 39.4803 7.0134L39.1106 7.40703ZM39.2319 7.58039C39.2603 7.6463 39.275 7.71751 39.275 7.78966H39.815C39.815 7.64419 39.7854 7.50026 39.7279 7.36675L39.2319 7.58039ZM39.275 7.78966C39.275 7.86185 39.2603 7.93318 39.2319 7.99904L39.7279 8.21269C39.7854 8.07914 39.815 7.93509 39.815 7.78966H39.275ZM39.2319 7.99904C39.2036 8.06491 39.1622 8.12383 39.1106 8.17229L39.4803 8.56592C39.5861 8.46652 39.6704 8.34625 39.7279 8.21269L39.2319 7.99904ZM39.1106 8.17229C39.059 8.22075 38.9983 8.25765 38.9325 8.2809L39.1124 8.79008C39.2492 8.74175 39.3744 8.66534 39.4803 8.56592L39.1106 8.17229ZM38.9325 8.2809C38.8667 8.30416 38.7969 8.31334 38.7276 8.30793L38.6856 8.8463C38.8302 8.85757 38.9755 8.8384 39.1124 8.79008L38.9325 8.2809ZM38.7066 8.30711H29.2148V8.84711H38.7066V8.30711ZM29.2292 8.30749C29.1574 8.30369 29.0858 8.31446 29.0186 8.33899L29.2036 8.84631C29.2027 8.84661 29.2017 8.8468 29.2005 8.84673L29.2292 8.30749ZM29.0186 8.33899C28.9515 8.36346 28.8898 8.40116 28.8373 8.45004L29.2052 8.84528C29.2048 8.84572 29.2042 8.84608 29.2036 8.84631L29.0186 8.33899ZM28.8373 8.45004C28.7848 8.49888 28.7429 8.55758 28.7136 8.62234L29.2055 8.84515L29.2052 8.84528L28.8373 8.45004ZM28.7136 8.62234C28.6841 8.6873 28.6679 8.75737 28.6656 8.82848L29.2053 8.84611L29.2055 8.84515L28.7136 8.62234ZM28.6654 8.83729V11.016H29.2054V8.83729H28.6654ZM28.6657 11.0294C28.6728 11.1709 28.7344 11.3048 28.8386 11.4018L29.2065 11.0066C29.2062 11.0062 29.2052 11.0049 29.2051 11.0027L28.6657 11.0294ZM28.8386 11.4018C28.9429 11.4989 29.0814 11.5511 29.2245 11.546L29.2052 11.0064C29.2064 11.0063 29.2068 11.0068 29.2065 11.0066L28.8386 11.4018ZM29.2148 11.5462H47.0348V11.0062H29.2148V11.5462ZM47.0252 11.546C47.1682 11.5511 47.3067 11.4989 47.411 11.4018L47.0431 11.0066C47.0428 11.0068 47.0432 11.0063 47.0444 11.0064L47.0252 11.546ZM47.411 11.4018C47.5152 11.3048 47.5769 11.1709 47.5839 11.0294L47.0445 11.0027C47.0444 11.0049 47.0434 11.0062 47.0431 11.0066L47.411 11.4018ZM47.5842 11.016V8.90693H47.0442V11.016H47.5842ZM47.5841 8.89811C47.5817 8.82701 47.5655 8.75693 47.5361 8.69197L47.0442 8.91479L47.0444 8.91575L47.5841 8.89811ZM47.5361 8.69197C47.5066 8.6269 47.4645 8.56839 47.4123 8.51979L47.0444 8.91503L47.0442 8.91479L47.5361 8.69197ZM47.4123 8.51979C47.3602 8.47125 47.2986 8.43327 47.2311 8.40863L47.0461 8.91595C47.045 8.91555 47.0445 8.91512 47.0444 8.91503L47.4123 8.51979ZM47.2311 8.40863C47.1638 8.38409 47.0922 8.37332 47.0205 8.37713L47.0491 8.91637C47.0479 8.91643 47.0469 8.91625 47.0461 8.91595L47.2311 8.40863ZM47.0348 8.37675H42.037V8.91675H47.0348V8.37675ZM42.016 8.37757C41.9466 8.38297 41.8769 8.3738 41.8111 8.35054L41.6312 8.85971C41.768 8.90804 41.9133 8.92721 42.0579 8.91594L42.016 8.37757ZM41.8111 8.35054C41.7451 8.32724 41.6844 8.29038 41.633 8.24205L41.2633 8.63567C41.3693 8.7352 41.4945 8.81144 41.6312 8.85971L41.8111 8.35054ZM41.633 8.24205C41.5814 8.19363 41.54 8.13461 41.5116 8.06868L41.0157 8.28233C41.0732 8.41582 41.1574 8.53622 41.2633 8.63567L41.633 8.24205ZM41.5116 8.06868C41.4832 8.00278 41.4685 7.93156 41.4685 7.85941H40.9285C40.9285 8.00488 40.9581 8.14881 41.0157 8.28233L41.5116 8.06868ZM41.4685 7.85941C41.4685 7.78722 41.4832 7.7159 41.5116 7.65003L41.0157 7.43638C40.9581 7.56994 40.9285 7.71398 40.9285 7.85941H41.4685ZM41.5116 7.65003C41.5399 7.5842 41.5813 7.52527 41.633 7.47678L41.2633 7.08315C41.1575 7.18253 41.0732 7.30279 41.0157 7.43638L41.5116 7.65003ZM41.633 7.47678C41.6846 7.42833 41.7452 7.39142 41.8111 7.36817L41.6312 6.859C41.4944 6.90733 41.3692 6.98374 41.2633 7.08315L41.633 7.47678ZM41.8111 7.36817C41.8769 7.34491 41.9466 7.33574 42.016 7.34114L42.0579 6.80278C41.9133 6.7915 41.768 6.81067 41.6312 6.859L41.8111 7.36817ZM42.037 7.34196H47.0348V6.80196H42.037V7.34196ZM47.0442 7.3418C47.2568 7.33438 47.4687 7.36961 47.6679 7.44559L47.8604 6.94105C47.5939 6.83939 47.3101 6.79219 47.0254 6.80212L47.0442 7.3418ZM47.6679 7.44559C47.8671 7.52158 48.0498 7.63688 48.2054 7.78502L48.5778 7.39395C48.3706 7.1967 48.1269 7.0427 47.8604 6.94105L47.6679 7.44559ZM48.2054 7.78502C48.361 7.93314 48.4863 8.11125 48.5741 8.30914L49.0677 8.09019C48.9514 7.82791 48.785 7.59121 48.5778 7.39395L48.2054 7.78502ZM48.5741 8.30914C48.6619 8.50702 48.7103 8.72066 48.7164 8.93778L49.2562 8.92258C49.2481 8.63533 49.1841 8.35247 49.0677 8.09019L48.5741 8.30914ZM32.5358 14.7235C32.6071 14.726 32.6783 14.7143 32.7453 14.6888L32.5534 14.1841C32.5539 14.1839 32.5543 14.1838 32.5546 14.1839L32.5358 14.7235ZM32.7453 14.6888C32.8119 14.6635 32.8729 14.6252 32.9248 14.5761L32.5533 14.1841L32.5534 14.1841L32.7453 14.6888ZM32.9248 14.5761C32.9766 14.527 33.018 14.4682 33.047 14.4034L32.5542 14.1827C32.5538 14.1836 32.5534 14.184 32.5533 14.1841L32.9248 14.5761ZM33.047 14.4034C33.0761 14.3386 33.0922 14.2688 33.0945 14.1978L32.5548 14.1801C32.5547 14.1812 32.5545 14.182 32.5542 14.1827L33.047 14.4034ZM33.0946 14.189V12.8742H32.5546V14.189H33.0946ZM32.8246 12.6042H30.0394V13.1442H32.8246V12.6042ZM29.7694 12.8742V14.189H30.3094V12.8742H29.7694ZM29.7696 14.198C29.7743 14.3395 29.8337 14.4742 29.9361 14.5728L30.3107 14.1839C30.3103 14.1835 30.3094 14.1822 30.3093 14.18L29.7696 14.198ZM29.9361 14.5728C30.0387 14.6717 30.1762 14.7262 30.3191 14.7236L30.3095 14.1837C30.3106 14.1837 30.311 14.1842 30.3107 14.1839L29.9361 14.5728ZM30.3143 14.7237H32.5452V14.1837H30.3143V14.7237ZM40.626 32.5801H35.6236V33.1201H40.626V32.5801ZM35.3536 32.8501V36.2693H35.8936V32.8501H35.3536ZM35.3538 36.2781C35.3561 36.3492 35.3724 36.4193 35.4018 36.4842L35.8937 36.2614L35.8935 36.2605L35.3538 36.2781ZM35.4018 36.4842C35.4313 36.5493 35.4733 36.6078 35.5255 36.6564L35.8935 36.2612L35.8937 36.2614L35.4018 36.4842ZM35.5255 36.6564C35.578 36.7053 35.6397 36.743 35.7068 36.7675L35.8918 36.2602C35.8924 36.2604 35.893 36.2608 35.8935 36.2612L35.5255 36.6564ZM35.7068 36.7675C35.7741 36.792 35.8457 36.8028 35.9174 36.799L35.8887 36.2597C35.8899 36.2597 35.891 36.2599 35.8918 36.2602L35.7068 36.7675ZM35.9031 36.7994H40.3603V36.2594H35.9031V36.7994ZM40.346 36.799C40.4177 36.8028 40.4893 36.792 40.5566 36.7675L40.3716 36.2602C40.3724 36.2599 40.3735 36.2597 40.3746 36.2597L40.346 36.799ZM40.5566 36.7675C40.6237 36.743 40.6854 36.7053 40.7379 36.6564L40.3699 36.2612C40.3704 36.2608 40.371 36.2604 40.3716 36.2602L40.5566 36.7675ZM40.7379 36.6564C40.7901 36.6078 40.8321 36.5493 40.8616 36.4842L40.3697 36.2614L40.3699 36.2612L40.7379 36.6564ZM40.8616 36.4842C40.891 36.4193 40.9073 36.3492 40.9096 36.2781L40.3699 36.2605L40.3697 36.2614L40.8616 36.4842ZM40.9097 36.2682L40.896 32.849L40.356 32.8512L40.3698 36.2704L40.9097 36.2682ZM43.9701 15.7586H43.6907V16.2986H43.9701V15.7586ZM43.6819 15.7587C43.4698 15.7656 43.2582 15.7299 43.0594 15.6537L42.866 16.1579C43.1319 16.2598 43.4151 16.3077 43.6994 16.2985L43.6819 15.7587ZM43.0594 15.6537C42.8606 15.5774 42.6784 15.4621 42.5233 15.3141L42.1504 15.7047C42.357 15.9019 42.6002 16.0559 42.866 16.1579L43.0594 15.6537ZM42.5233 15.3141C42.3681 15.166 42.2431 14.988 42.1556 14.7904L41.6618 15.0091C41.7778 15.271 41.9438 15.5075 42.1504 15.7047L42.5233 15.3141ZM42.1556 14.7904C42.068 14.5928 42.0198 14.3795 42.0137 14.1628L41.4739 14.178C41.482 14.4648 41.5458 14.7472 41.6618 15.0091L42.1556 14.7904ZM42.0138 14.1704V12.8556H41.4738V14.1704H42.0138ZM41.7438 12.5856H34.5104V13.1256H41.7438V12.5856ZM34.2404 12.8556V14.1704H34.7804V12.8556H34.2404ZM34.2405 14.1628C34.2344 14.3799 34.1861 14.5936 34.0983 14.7914L34.5919 15.0104C34.7083 14.7481 34.7722 14.4652 34.7803 14.178L34.2405 14.1628ZM34.0983 14.7914C34.0105 14.9893 33.8851 15.1674 33.7296 15.3155L34.102 15.7066C34.3091 15.5093 34.4756 15.2726 34.5919 15.0104L34.0983 14.7914ZM33.7296 15.3155C33.5741 15.4636 33.3914 15.5788 33.1921 15.6549L33.3845 16.1594C33.6509 16.0578 33.8948 15.9039 34.102 15.7066L33.7296 15.3155ZM33.1921 15.6549C32.9928 15.7309 32.7809 15.7662 32.5684 15.7588L32.5495 16.2984C32.8343 16.3084 33.1181 16.261 33.3845 16.1594L33.1921 15.6549ZM32.559 15.7586H32.2795V16.2986H32.559V15.7586ZM32.0095 16.0286V18.3931H32.5495V16.0286H32.0095ZM32.0096 18.402C32.012 18.4729 32.0281 18.5428 32.0571 18.6077L32.55 18.387C32.5496 18.3862 32.5494 18.3853 32.5494 18.3842L32.0096 18.402ZM32.0571 18.6077C32.0861 18.6724 32.1276 18.7312 32.1794 18.7803L32.5508 18.3883C32.5508 18.3883 32.5503 18.3878 32.55 18.387L32.0571 18.6077ZM32.1794 18.7803C32.2312 18.8294 32.2922 18.8678 32.3589 18.8931L32.5507 18.3883L32.5508 18.3883L32.1794 18.7803ZM32.3589 18.8931C32.4258 18.9185 32.497 18.9303 32.5684 18.9278L32.5495 18.3881C32.5499 18.3881 32.5503 18.3882 32.5507 18.3883L32.3589 18.8931ZM32.559 18.9279H37.598V18.3879H32.559V18.9279ZM37.619 18.9271C37.6883 18.9217 37.7581 18.9309 37.8239 18.9541L38.0038 18.445C37.867 18.3966 37.7217 18.3775 37.577 18.3888L37.619 18.9271ZM37.8239 18.9541C37.8897 18.9774 37.9504 19.0143 38.002 19.0628L38.3717 18.6691C38.2658 18.5697 38.1406 18.4933 38.0038 18.445L37.8239 18.9541ZM38.002 19.0628C38.0536 19.1112 38.095 19.1702 38.1234 19.236L38.6193 19.0224C38.5618 18.8888 38.4775 18.7685 38.3717 18.6691L38.002 19.0628ZM38.1234 19.236C38.1517 19.3019 38.1665 19.3732 38.1665 19.4454H38.7065C38.7065 19.3 38.6768 19.1559 38.6193 19.0224L38.1234 19.236ZM38.1665 19.4454C38.1665 19.5176 38.1517 19.5889 38.1234 19.6548L38.6193 19.8684C38.6768 19.7349 38.7065 19.5908 38.7065 19.4454H38.1665ZM38.1234 19.6548C38.095 19.7206 38.0536 19.7795 38.002 19.828L38.3717 20.2216C38.4775 20.1223 38.5618 20.002 38.6193 19.8684L38.1234 19.6548ZM38.002 19.828C37.9504 19.8765 37.8897 19.9134 37.8239 19.9366L38.0038 20.4458C38.1406 20.3975 38.2658 20.321 38.3717 20.2216L38.002 19.828ZM37.8239 19.9366C37.7581 19.9599 37.6883 19.9691 37.619 19.9637L37.577 20.502C37.7217 20.5133 37.867 20.4941 38.0038 20.4458L37.8239 19.9366ZM37.598 19.9628H34.5334V20.5028H37.598V19.9628ZM34.2634 20.2328V22.8622H34.8034V20.2328H34.2634ZM34.5334 23.1322H37.598V22.5922H34.5334V23.1322ZM37.598 23.1322C37.7318 23.1322 37.8608 23.186 37.9564 23.283L38.3409 22.9039C38.1445 22.7047 37.8773 22.5922 37.598 22.5922V23.1322ZM37.9564 23.283C38.0523 23.3802 38.1068 23.5128 38.1068 23.6519H38.6468C38.6468 23.3721 38.5372 23.1029 38.3409 22.9039L37.9564 23.283ZM38.1068 23.6519C38.1068 23.791 38.0523 23.9236 37.9564 24.0208L38.3409 24.3999C38.5372 24.2009 38.6468 23.9317 38.6468 23.6519H38.1068ZM37.9564 24.0208C37.8608 24.1178 37.7318 24.1716 37.598 24.1716V24.7116C37.8773 24.7116 38.1445 24.5991 38.3409 24.3999L37.9564 24.0208ZM37.598 24.1716H32.875V24.7116H37.598V24.1716ZM32.8818 24.1717C32.7999 24.1697 32.719 24.1857 32.6447 24.218L32.8599 24.7133C32.8631 24.7119 32.8659 24.7115 32.8683 24.7115L32.8818 24.1717ZM32.6447 24.218C32.57 24.2505 32.5034 24.2988 32.4492 24.3593L32.8519 24.7192C32.8543 24.7164 32.8571 24.7145 32.8599 24.7133L32.6447 24.218ZM32.4399 24.3704C32.3876 24.4356 32.3519 24.5124 32.3354 24.5941L32.8648 24.7006C32.8643 24.7031 32.8632 24.7057 32.8612 24.7082L32.4399 24.3704ZM32.3354 24.5941C32.319 24.6758 32.3222 24.7603 32.345 24.8406L32.8645 24.6932C32.8652 24.6957 32.8653 24.6982 32.8648 24.7006L32.3354 24.5941ZM32.3437 24.8359L34.0112 31.1445L34.5333 31.0065L32.8658 24.6979L32.3437 24.8359ZM34.0139 31.1541C34.0485 31.2675 34.1185 31.3673 34.2142 31.438L34.5351 31.0038C34.5334 31.0025 34.5316 31.0002 34.5305 30.9968L34.0139 31.1541ZM34.2142 31.438C34.3097 31.5086 34.426 31.5467 34.5457 31.5453L34.5393 31.0053C34.5385 31.0054 34.537 31.0051 34.5351 31.0038L34.2142 31.438ZM34.5425 31.5453H41.7209V31.0053H34.5425V31.5453ZM41.7177 31.5453C41.8374 31.5467 41.9536 31.5086 42.0492 31.438L41.7282 31.0038C41.7264 31.0051 41.7249 31.0054 41.7241 31.0053L41.7177 31.5453ZM42.0492 31.438C42.1449 31.3673 42.2149 31.2675 42.2494 31.1541L41.7328 30.9968C41.7318 31.0002 41.7299 31.0025 41.7282 31.0038L42.0492 31.438ZM42.2521 31.1447L43.9242 24.8361L43.4022 24.6977L41.7302 31.0063L42.2521 31.1447ZM43.9242 24.8361C43.9456 24.7552 43.9474 24.6702 43.9293 24.5884L43.4021 24.7052C43.4015 24.7027 43.4016 24.7001 43.4022 24.6977L43.9242 24.8361ZM43.9293 24.5884C43.9112 24.5067 43.8737 24.4303 43.8197 24.3658L43.4059 24.7127C43.4038 24.7102 43.4026 24.7076 43.4021 24.7052L43.9293 24.5884ZM43.8167 24.3622C43.7634 24.301 43.6974 24.252 43.623 24.219L43.404 24.7126C43.4056 24.7133 43.4074 24.7145 43.409 24.7163L43.8167 24.3622ZM43.623 24.219C43.549 24.1861 43.4682 24.1697 43.3864 24.1717L43.3994 24.7115C43.4005 24.7115 43.4021 24.7117 43.404 24.7126L43.623 24.219ZM43.3929 24.1716H40.9192V24.7116H43.3929V24.1716ZM40.9192 24.1716C40.7855 24.1716 40.6565 24.1178 40.5608 24.0208L40.1763 24.3999C40.3727 24.5991 40.6399 24.7116 40.9192 24.7116V24.1716ZM40.5608 24.0208C40.465 23.9236 40.4104 23.791 40.4104 23.6519H39.8704C39.8704 23.9317 39.98 24.2009 40.1763 24.3999L40.5608 24.0208ZM40.4104 23.6519C40.4104 23.5128 40.465 23.3802 40.5608 23.283L40.1763 22.9039C39.98 23.1029 39.8704 23.3721 39.8704 23.6519H40.4104ZM40.5608 23.283C40.6565 23.186 40.7855 23.1322 40.9192 23.1322V22.5922C40.6399 22.5922 40.3727 22.7047 40.1763 22.9039L40.5608 23.283ZM40.9192 23.1322H41.7575V22.5922H40.9192V23.1322ZM42.0275 22.8622V20.2328H41.4875V22.8622H42.0275ZM41.7575 19.9628H40.9192V20.5028H41.7575V19.9628ZM40.8982 19.9637C40.8289 19.9691 40.7591 19.9599 40.6933 19.9366L40.5135 20.4458C40.6503 20.4941 40.7956 20.5133 40.9402 20.502L40.8982 19.9637ZM40.6933 19.9366C40.6275 19.9134 40.5668 19.8765 40.5152 19.828L40.1455 20.2216C40.2514 20.3211 40.3766 20.3975 40.5135 20.4458L40.6933 19.9366ZM40.5152 19.828C40.4636 19.7795 40.4222 19.7206 40.3938 19.6548L39.8979 19.8684C39.9554 20.002 40.0397 20.1223 40.1455 20.2216L40.5152 19.828ZM40.3938 19.6548C40.3655 19.5889 40.3507 19.5176 40.3507 19.4454H39.8107C39.8107 19.5908 39.8404 19.7349 39.8979 19.8684L40.3938 19.6548ZM40.3507 19.4454C40.3507 19.3732 40.3655 19.3019 40.3938 19.236L39.8979 19.0224C39.8404 19.1559 39.8107 19.3 39.8107 19.4454H40.3507ZM40.3938 19.236C40.4222 19.1702 40.4636 19.1112 40.5152 19.0628L40.1455 18.6691C40.0397 18.7685 39.9554 18.8888 39.8979 19.0224L40.3938 19.236ZM40.5152 19.0628C40.5668 19.0143 40.6275 18.9774 40.6933 18.9541L40.5135 18.445C40.3766 18.4933 40.2514 18.5697 40.1455 18.6691L40.5152 19.0628ZM40.6933 18.9541C40.7591 18.9309 40.8289 18.9217 40.8982 18.9271L40.9402 18.3888C40.7956 18.3775 40.6503 18.3966 40.5135 18.445L40.6933 18.9541ZM40.9192 18.9279H43.7044V18.3879H40.9192V18.9279ZM43.695 18.9278C43.7663 18.9303 43.8375 18.9185 43.9045 18.8931L43.7127 18.3883C43.7131 18.3882 43.7135 18.3881 43.7138 18.3881L43.695 18.9278ZM43.9045 18.8931C43.9711 18.8678 44.0321 18.8294 44.084 18.7803L43.7125 18.3883L43.7127 18.3883L43.9045 18.8931ZM44.084 18.7803C44.1358 18.7312 44.1773 18.6724 44.2062 18.6077L43.7134 18.387C43.713 18.3878 43.7126 18.3883 43.7125 18.3883L44.084 18.7803ZM44.2062 18.6077C44.2353 18.5428 44.2514 18.4729 44.2537 18.402L43.714 18.3842C43.714 18.3853 43.7137 18.3862 43.7134 18.387L44.2062 18.6077ZM44.2539 18.3915L44.2401 16.027L43.7001 16.0302L43.7139 18.3947L44.2539 18.3915ZM46.201 12.6042H43.4158V13.1442H46.201V12.6042ZM43.1458 12.8742V14.189H43.6858V12.8742H43.1458ZM43.146 14.198C43.1507 14.3396 43.2101 14.4742 43.3125 14.5728L43.6871 14.1839C43.6866 14.1834 43.6857 14.1821 43.6857 14.18L43.146 14.198ZM43.3125 14.5728C43.4151 14.6717 43.5526 14.7262 43.6955 14.7236L43.6859 14.1837C43.687 14.1837 43.6874 14.1842 43.6871 14.1839L43.3125 14.5728ZM43.6907 14.7237H45.9216V14.1837H43.6907V14.7237ZM45.9167 14.7236C46.0592 14.7262 46.1966 14.6726 46.2999 14.5747L45.9285 14.1827C45.9275 14.1837 45.9267 14.1837 45.9265 14.1837L45.9167 14.7236ZM46.2999 14.5747C46.403 14.4771 46.4638 14.3434 46.4707 14.2022L45.9314 14.1757C45.9312 14.1791 45.9297 14.1815 45.9285 14.1827L46.2999 14.5747ZM46.471 14.189V12.8742H45.931V14.189H46.471ZM20.0662 53.8414C20.2771 54.0373 20.5534 54.1466 20.8409 54.1466V53.6066C20.6907 53.6066 20.5454 53.5496 20.4337 53.4458L20.0662 53.8414ZM20.8409 54.1466C21.1283 54.1466 21.4046 54.0373 21.6155 53.8414L21.2481 53.4458C21.1363 53.5496 20.991 53.6066 20.8409 53.6066V54.1466ZM21.6141 53.8427C21.7186 53.747 21.8019 53.6304 21.8588 53.5005L21.3642 53.2838C21.3373 53.3452 21.2981 53.3999 21.2495 53.4445L21.6141 53.8427ZM21.8588 53.5005C21.9157 53.3707 21.9451 53.2303 21.9451 53.0884H21.4051C21.4051 53.1559 21.3911 53.2224 21.3642 53.2838L21.8588 53.5005ZM21.9451 53.0884C21.9451 52.9466 21.9157 52.8062 21.8588 52.6763L21.3642 52.8931C21.3911 52.9544 21.4051 53.021 21.4051 53.0884H21.9451ZM21.8588 52.6763C21.8019 52.5464 21.7186 52.4298 21.6141 52.3342L21.2495 52.7325C21.2982 52.7771 21.3374 52.8318 21.3642 52.8931L21.8588 52.6763ZM21.6172 52.3371L17.1599 48.1282L16.7892 48.5208L21.2464 52.7297L21.6172 52.3371ZM17.1564 48.1249C16.9448 47.9321 16.6696 47.8247 16.3836 47.8247V48.3647C16.534 48.3647 16.6797 48.4211 16.7927 48.524L17.1564 48.1249ZM16.3836 47.8247C16.0976 47.8247 15.8224 47.9321 15.6108 48.1249L15.9745 48.524C16.0875 48.4211 16.2332 48.3647 16.3836 48.3647V47.8247ZM15.6099 48.1257C15.5054 48.2218 15.4222 48.3387 15.3653 48.4689L15.8601 48.6852C15.8871 48.6233 15.9265 48.5682 15.9754 48.5232L15.6099 48.1257ZM15.3653 48.4689C15.3084 48.5991 15.2791 48.7398 15.2791 48.8819H15.8191C15.8191 48.814 15.8331 48.747 15.8601 48.6852L15.3653 48.4689ZM15.2791 48.8819C15.2791 49.024 15.3084 49.1647 15.3653 49.2949L15.8601 49.0787C15.8331 49.0169 15.8191 48.9498 15.8191 48.8819H15.2791ZM15.3653 49.2949C15.4222 49.4251 15.5054 49.542 15.6099 49.6381L15.9754 49.2406C15.9265 49.1956 15.8871 49.1405 15.8601 49.0787L15.3653 49.2949ZM15.6074 49.6358L20.0647 53.84L20.4352 53.4472L15.9779 49.2429L15.6074 49.6358ZM24.1929 43.6181C23.907 43.6096 23.6301 43.7161 23.4223 43.913L23.7936 44.305C23.898 44.2062 24.0358 44.1537 24.177 44.1578L24.1929 43.6181ZM23.4223 43.913C23.2145 44.1097 23.0925 44.3809 23.0814 44.6672L23.621 44.6881C23.6267 44.5415 23.6891 44.404 23.7936 44.305L23.4223 43.913ZM23.0812 44.6777V50.9678H23.6212V44.6777H23.0812ZM23.0819 50.9874C23.1025 51.2683 23.227 51.5317 23.4317 51.7245L23.8019 51.3314C23.6964 51.2321 23.6312 51.0952 23.6205 50.9481L23.0819 50.9874ZM23.4317 51.7245C23.6365 51.9174 23.9063 52.0251 24.1872 52.0251V51.4851C24.0449 51.4851 23.9072 51.4306 23.8019 51.3314L23.4317 51.7245ZM24.1872 52.0251C24.4682 52.0251 24.738 51.9174 24.9428 51.7245L24.5726 51.3314C24.4673 51.4306 24.3296 51.4851 24.1872 51.4851V52.0251ZM24.9428 51.7245C25.1475 51.5317 25.272 51.2683 25.2926 50.9874L24.754 50.9481C24.7432 51.0952 24.678 51.2321 24.5726 51.3314L24.9428 51.7245ZM25.2933 50.9678V44.6591H24.7533V50.9678H25.2933ZM25.2931 44.6487C25.282 44.3612 25.1591 44.0891 24.95 43.8922L24.5798 44.2852C24.6849 44.3843 24.7478 44.5223 24.7535 44.6694L25.2931 44.6487ZM24.95 43.8922C24.7408 43.6951 24.4624 43.5894 24.1755 43.5995L24.1944 44.1392C24.3362 44.1342 24.4747 44.1863 24.5798 44.2852L24.95 43.8922Z" fill="white" mask="url(#path-1-inside-1_1188_84252)"/>
</svg>
