<svg width="64" height="64" viewBox="0 0 64 64" fill="none" xmlns="http://www.w3.org/2000/svg">
<path d="M50.3411 49.0382V42.3952H43.8247V45.705H37.7769V49.0382H29.0833V47.3989L29.8393 39.171C29.8393 39.171 29.8393 39.1438 29.8393 39.1282C29.8384 38.4107 29.6699 37.704 29.3483 37.0676C29.0266 36.4313 28.5611 35.8839 27.991 35.4718L19.8832 22.8048L30.7162 21.2706C31.3921 21.9917 32.3165 22.4094 33.2893 22.4335C34.262 22.4575 35.2048 22.086 35.9135 21.3992L43.4732 21.551L43.4467 25.3321H43.8247V26.4145H44.3236V27.1933L40.8121 29.7555L43.458 33.1043L43.6546 32.9368V38.7583H49.2752V32.9174L49.5171 33.1199L52.163 29.7711L48.6024 27.1739V26.4535H49.0446V25.3709H49.4226L49.4869 15.6361C49.4869 15.3441 49.3621 14.7951 48.4814 14.3901C47.8578 14.1275 47.1897 13.9952 46.5159 14.0007C45.004 13.9774 43.5639 14.5225 43.5261 15.5583V15.8854L35.9248 15.823C35.3143 15.225 34.5235 14.8603 33.6839 14.7895C32.8443 14.7186 32.0065 14.946 31.3097 15.4337L15.6158 16.1891C15.0989 15.9341 14.5333 15.8011 13.9602 15.7997C13.103 15.7974 12.2682 16.0825 11.5821 16.6119C10.896 17.1413 10.3956 17.8863 10.1566 18.7344C9.91761 19.5825 9.95294 20.4877 10.2572 21.3133C10.5615 22.1389 11.1183 22.8401 11.8435 23.3111L20.8508 39.1749L17.9555 46.9627C17.8768 47.0647 17.8329 47.1907 17.8308 47.321V49.3886C17.8308 49.4689 17.8461 49.5484 17.8759 49.6226C17.9058 49.6968 17.9495 49.7642 18.0046 49.821C18.0597 49.8778 18.1251 49.9228 18.1971 49.9535C18.2691 49.9842 18.3463 50 18.4242 50H54V49.0382H50.3411ZM47.374 26.582V28.3576C47.374 28.3885 47.362 28.4183 47.3407 28.4402C47.3195 28.4621 47.2906 28.4744 47.2605 28.4744H45.6466C45.6315 28.4749 45.6166 28.4723 45.6026 28.4666C45.5886 28.4609 45.5758 28.4524 45.5652 28.4414C45.5546 28.4304 45.5462 28.4173 45.5407 28.4029C45.5352 28.3885 45.5326 28.373 45.5332 28.3576V26.582H47.374ZM48.0354 37.485H44.8679V31.8544H48.0354V37.485ZM49.2639 31.3987V30.5927H43.6433V31.3443L42.5736 29.997L44.3728 28.6847C44.4426 28.9793 44.6057 29.2415 44.8364 29.4298C45.0671 29.6181 45.3522 29.7217 45.6466 29.7243H47.2605C47.5591 29.7211 47.8479 29.614 48.0798 29.4203C48.3118 29.2266 48.4733 28.9577 48.5381 28.6574L50.3751 29.997L49.2639 31.3987ZM45.0531 43.6451H49.1164V48.6488H45.0531V43.6451ZM39.0054 46.9549H43.0687V48.6488H39.0319L39.0054 46.9549ZM28.2291 46.6785H19.0403L21.3611 40.4287C21.5801 41.1771 21.9866 41.8528 22.5396 42.3879C23.0927 42.9231 23.7727 43.2988 24.5114 43.4772C25.2501 43.6556 26.0214 43.6305 26.7477 43.4043C27.4739 43.1781 28.1296 42.7589 28.6486 42.1888L28.2291 46.6785ZM28.917 39.1009L28.8868 39.4202C28.815 40.329 28.4041 41.1736 27.7405 41.7768C27.0768 42.3801 26.2121 42.6948 25.3279 42.655C24.4437 42.6152 23.6089 42.2239 22.9989 41.5633C22.3889 40.9028 22.0511 40.0243 22.0566 39.1126C22.0618 38.755 22.1204 38.4004 22.2305 38.0613L22.4044 37.594C22.7367 36.8706 23.2982 36.2854 23.9964 35.9344C24.6946 35.5835 25.4879 35.4878 26.2459 35.6632C27.0039 35.8386 27.6813 36.2746 28.1668 36.8994C28.6523 37.5242 28.9169 38.3006 28.917 39.1009ZM19.3238 21.9093L17.895 19.682C17.8584 18.6977 17.4756 17.7607 16.8178 17.0458L30.3382 16.4071C29.9024 17.0471 29.6688 17.81 29.6692 18.5917C29.6726 19.2214 29.8299 19.84 30.1266 20.3906L19.3238 21.9093ZM44.3803 24.3702L44.4295 17.2249V16.7576L44.5202 16.8043C45.1431 17.0695 45.8117 17.2019 46.4857 17.1937H46.5273C47.2204 17.2124 47.9096 17.0797 48.5495 16.8043L48.4966 24.417L44.3803 24.3702ZM46.4743 14.9158H46.5121C47.0594 14.9105 47.6025 15.0149 48.111 15.2234C48.4436 15.3752 48.5608 15.5311 48.5684 15.5856C48.5684 15.7608 47.8313 16.1891 46.5008 16.2319C45.9547 16.2383 45.4126 16.1338 44.9057 15.9243C44.558 15.7685 44.4446 15.605 44.4446 15.5349C44.4559 15.4064 45.1552 14.9235 46.4857 14.9235L46.4743 14.9158ZM43.5072 17.1937L43.4354 20.5853L36.6317 20.4491C36.9475 19.8855 37.1138 19.2463 37.1138 18.5956C37.1138 17.9448 36.9475 17.3056 36.6317 16.7421L43.511 16.7965L43.5072 17.1937ZM36.1894 18.5839C36.1894 19.1553 36.0249 19.7139 35.7167 20.1891C35.4086 20.6642 34.9705 21.0346 34.4581 21.2532C33.9456 21.4719 33.3817 21.5291 32.8376 21.4176C32.2936 21.3061 31.7938 21.0309 31.4016 20.6269C31.0094 20.2228 30.7422 19.708 30.634 19.1475C30.5258 18.5871 30.5814 18.0061 30.7936 17.4782C31.0059 16.9502 31.3654 16.499 31.8266 16.1815C32.2878 15.8641 32.8301 15.6946 33.3848 15.6946C33.7545 15.6936 34.1209 15.7677 34.4627 15.9129C34.8046 16.0581 35.1152 16.2714 35.3769 16.5406C35.6385 16.8098 35.846 17.1295 35.9873 17.4815C36.1287 17.8335 36.2013 18.2107 36.2008 18.5917L36.1894 18.5839ZM10.9174 19.8494C10.9174 19.2333 11.0948 18.631 11.427 18.1187C11.7593 17.6064 12.2316 17.2071 12.7841 16.9714C13.3367 16.7356 13.9447 16.6739 14.5312 16.7941C15.1178 16.9143 15.6566 17.211 16.0795 17.6466C16.5024 18.0823 16.7904 18.6374 16.9071 19.2416C17.0237 19.8459 16.9639 20.4723 16.735 21.0415C16.5061 21.6107 16.1186 22.0972 15.6213 22.4395C15.124 22.7818 14.5394 22.9645 13.9413 22.9645C13.1426 22.9615 12.3775 22.6329 11.8131 22.0508C11.2487 21.4686 10.9308 20.68 10.9288 19.8572L10.9174 19.8494ZM13.2269 23.8485C13.4659 23.8983 13.7089 23.9243 13.9526 23.9263C14.7874 23.9238 15.6 23.6488 16.2736 23.1409C16.9473 22.633 17.4474 21.9183 17.7022 21.0993L26.4299 34.7281C26.1212 34.6546 25.8055 34.6167 25.4887 34.6151C24.6746 34.6181 23.8777 34.8566 23.1887 35.3034C22.4997 35.7502 21.9464 36.3873 21.5917 37.1423L21.5652 37.2162C21.5007 37.3649 21.4439 37.517 21.3951 37.6719L21.278 37.995L13.2269 23.8485ZM27.6697 49.0382H18.753V47.6442H28.1799V49.0382H27.6697Z" fill="white"/>
</svg>
