<svg width="36" height="36" viewBox="0 0 36 36" fill="none" xmlns="http://www.w3.org/2000/svg">
<path d="M32.8779 30.5869L29.293 15.8545C29.0199 14.7108 27.9956 13.9084 26.8177 13.9084H21.2354C22.3015 13.2049 23.1126 12.1768 23.5488 10.9763C23.985 9.77582 24.023 8.4668 23.6572 7.24304C23.2914 6.01928 22.5413 4.94583 21.5179 4.18163C20.4944 3.41744 19.2521 3.00311 17.9749 3C14.6972 3 12.0341 5.66309 12.0341 8.94074C12.0341 11.0063 13.1096 12.8329 14.7143 13.9084H9.13205C7.95414 13.9084 6.94695 14.7108 6.65674 15.8545L3.07181 30.5869C2.88403 31.3551 3.07181 32.1403 3.5498 32.7549C4.02779 33.3695 4.76185 33.728 5.54712 33.728H30.4197C31.205 33.728 31.939 33.3695 32.417 32.7549C32.895 32.1403 33.0657 31.338 32.895 30.5869H32.8779ZM17.9749 5.3046C19.9893 5.3046 21.611 6.94342 21.611 8.94074C21.611 10.9381 19.9722 12.5769 17.9749 12.5769C15.9776 12.5769 14.3387 10.9381 14.3387 8.94074C14.3387 6.94342 15.9776 5.3046 17.9749 5.3046ZM30.5904 31.3209C30.5904 31.3209 30.505 31.4063 30.4026 31.4063H5.54712C5.44469 31.4063 5.39348 31.3551 5.35934 31.3209C5.33622 31.2927 5.31965 31.2597 5.31079 31.2242C5.30194 31.1888 5.30103 31.1519 5.30812 31.1161L8.89305 16.3837C8.92719 16.2813 9.01255 16.196 9.13205 16.196H26.8348C26.9543 16.196 27.0396 16.2642 27.0738 16.3837L30.6587 31.1161C30.6758 31.2014 30.6587 31.2868 30.6075 31.3209H30.5904Z" fill="white"/>
<path fill-rule="evenodd" clip-rule="evenodd" d="M32.5451 30.9109L28.9039 15.9474C28.6742 14.9853 27.8121 14.3084 26.8177 14.3084H19.9031L21.0151 13.5746C22.0094 12.9184 22.766 11.9594 23.1729 10.8397C23.5797 9.71999 23.6151 8.49903 23.274 7.35759C22.9328 6.21616 22.2331 5.21493 21.2785 4.50214C20.3241 3.78945 19.1655 3.40301 17.9744 3.4C14.9179 3.40026 12.4341 5.88417 12.4341 8.94074C12.4341 10.8641 13.4356 12.5699 14.937 13.5761L16.0296 14.3084H9.13205C8.14248 14.3084 7.29189 14.9811 7.04492 15.9511C7.04476 15.9517 7.04461 15.9523 7.04445 15.9529L3.46047 30.6815C3.30324 31.3247 3.45849 31.986 3.86554 32.5093C4.26729 33.0259 4.88453 33.328 5.54712 33.328H30.4197C31.0823 33.328 31.6995 33.0259 32.1013 32.5093C32.4549 32.0546 32.6101 31.4759 32.5451 30.9109ZM6.65674 15.8545C6.94695 14.7108 7.95414 13.9084 9.13205 13.9084H14.7143C14.5298 13.7848 14.3523 13.6512 14.1826 13.5084C12.8765 12.4097 12.0341 10.7688 12.0341 8.94074C12.0341 5.66309 14.6972 3 17.9749 3C19.2521 3.00311 20.4944 3.41744 21.5179 4.18163C22.5413 4.94583 23.2914 6.01928 23.6572 7.24304C24.023 8.4668 23.985 9.77582 23.5488 10.9763C23.1893 11.9659 22.5749 12.8384 21.773 13.5084C21.6021 13.6512 21.4227 13.7848 21.2354 13.9084H26.8177C27.9956 13.9084 29.0199 14.7108 29.293 15.8545L32.8779 30.5869H32.895C33.0657 31.338 32.895 32.1403 32.417 32.7549C31.939 33.3695 31.205 33.728 30.4197 33.728H5.54712C4.76185 33.728 4.02779 33.3695 3.5498 32.7549C3.07181 32.1403 2.88403 31.3551 3.07181 30.5869L6.65674 15.8545ZM5.30812 31.1161L8.89305 16.3837C8.92719 16.2813 9.01255 16.196 9.13205 16.196H26.8348C26.9543 16.196 27.0396 16.2642 27.0738 16.3837L30.6587 31.1161C30.6758 31.2014 30.6587 31.2868 30.6075 31.3209H30.5904C30.5904 31.3209 30.505 31.4063 30.4026 31.4063H5.54712C5.44469 31.4063 5.39348 31.3551 5.35934 31.3209C5.33622 31.2927 5.31965 31.2597 5.31079 31.2242C5.30194 31.1888 5.30103 31.1519 5.30812 31.1161ZM30.7163 31.7209H30.7286L30.8294 31.6538C30.9673 31.5618 31.0253 31.4259 31.0481 31.3293C31.0717 31.2286 31.0688 31.1272 31.0509 31.0376L31.0493 31.0295L27.4605 16.2815L27.4584 16.2738C27.4225 16.1484 27.3518 16.024 27.2341 15.9311C27.1149 15.837 26.9736 15.796 26.8348 15.796H9.13205C8.79346 15.796 8.58569 16.0409 8.51358 16.2572L8.50832 16.273L4.91743 31.0299L4.91576 31.0383C4.89719 31.132 4.89957 31.2286 4.92273 31.3213C4.9459 31.4139 4.98927 31.5003 5.04973 31.5742L5.06237 31.5897L5.07763 31.6049C5.12856 31.6559 5.27895 31.8063 5.54712 31.8063H30.4026C30.538 31.8063 30.6474 31.7596 30.7163 31.7209ZM17.9749 4.9046C20.2114 4.9046 22.011 6.72373 22.011 8.94074C22.011 11.159 20.1931 12.9769 17.9749 12.9769C15.7566 12.9769 13.9387 11.159 13.9387 8.94074C13.9387 6.72251 15.7566 4.9046 17.9749 4.9046ZM21.611 8.94074C21.611 6.94342 19.9893 5.3046 17.9749 5.3046C15.9776 5.3046 14.3387 6.94342 14.3387 8.94074C14.3387 10.9381 15.9776 12.5769 17.9749 12.5769C19.9722 12.5769 21.611 10.9381 21.611 8.94074Z" fill="#533CBF"/>
</svg>
