<svg width="36" height="36" viewBox="0 0 36 36" fill="none" xmlns="http://www.w3.org/2000/svg">
<path d="M32.6775 30.0418L29.1457 15.5277C28.8766 14.4009 27.8675 13.6105 26.707 13.6105H21.2075C22.2577 12.9174 23.0569 11.9045 23.4866 10.7218C23.9163 9.53909 23.9537 8.24946 23.5934 7.04383C23.233 5.83819 22.494 4.78065 21.4857 4.02778C20.4774 3.2749 19.2535 2.86671 17.9952 2.86365C14.7661 2.86365 12.1425 5.48728 12.1425 8.71637C12.1425 10.7514 13.202 12.5509 14.7829 13.6105H9.28339C8.12294 13.6105 7.13066 14.4009 6.84475 15.5277L3.31294 30.0418C3.12794 30.7986 3.31294 31.5723 3.78384 32.1777C4.25475 32.7832 4.97794 33.1364 5.75157 33.1364H30.2557C31.0293 33.1364 31.7525 32.7832 32.2234 32.1777C32.6943 31.5723 32.8625 30.7818 32.6943 30.0418H32.6775ZM17.9952 5.1341C19.9798 5.1341 21.5775 6.74865 21.5775 8.71637C21.5775 10.6841 19.9629 12.2986 17.9952 12.2986C16.0275 12.2986 14.4129 10.6841 14.4129 8.71637C14.4129 6.74865 16.0275 5.1341 17.9952 5.1341ZM30.4238 30.765C30.4238 30.765 30.3398 30.8491 30.2388 30.8491H5.75157C5.65066 30.8491 5.60021 30.7986 5.56657 30.765C5.5438 30.7372 5.52747 30.7046 5.51875 30.6698C5.51002 30.6349 5.50912 30.5985 5.51612 30.5632L9.04794 16.0491C9.08157 15.9482 9.16566 15.8641 9.28339 15.8641H26.7238C26.8416 15.8641 26.9257 15.9314 26.9593 16.0491L30.4911 30.5632C30.5079 30.6473 30.4911 30.7314 30.4407 30.765H30.4238Z" fill="#4B4D5A" stroke="white" stroke-width="0.4"/>
</svg>
