<svg width="36" height="36" viewBox="0 0 36 36" fill="none" xmlns="http://www.w3.org/2000/svg">
<path d="M12.312 7.5741H14.4683V14.2333H12.312V7.5741ZM12.312 30.9802H14.4683V34.6135H12.312V30.9802Z" fill="#4B4D5A"/>
<path d="M17.6895 8.83285L13.3914 1.3866L9.08967 8.83285H17.6895ZM21.8475 21.5296H28.9811V23.6858H21.8475V21.5296ZM0.827637 21.5296H5.09342V23.6858H0.827637V21.5296Z" fill="#4B4D5A"/>
<path d="M27.7261 26.9047L35.1723 22.6066L27.7261 18.3085V26.9047Z" fill="#4B4D5A"/>
<path d="M18.4722 22.1271H8.49956C8.01081 22.1271 7.58315 21.7964 7.45737 21.3257C7.33159 20.8513 7.54362 20.3553 7.96768 20.1146L11.6549 18.0194L12.7186 19.8953L12.5785 19.9744H18.4686V22.1271H18.4722Z" fill="#4B4D5A"/>
<path d="M15.3169 27.5994L14.2531 25.7235L14.3897 25.6444H8.49951V23.4882H18.4722C18.9609 23.4882 19.3886 23.8188 19.5144 24.2896C19.6401 24.7639 19.4281 25.2599 19.004 25.5043L15.3169 27.5994Z" fill="#4B4D5A"/>
<path d="M13.4703 32.0625C13.4272 32.0625 13.384 32.0625 13.3445 32.0589C8.19826 31.9907 4.01514 27.7608 4.01514 22.6074C4.01514 17.4539 8.19467 13.2205 13.3445 13.1558C13.3876 13.1522 13.4272 13.1522 13.4703 13.1522C18.6848 13.1522 22.9254 17.3928 22.9254 22.6074C22.9254 27.8219 18.6848 32.0625 13.4703 32.0625ZM13.4883 15.3085C13.4595 15.3121 13.4272 15.3121 13.3984 15.3121C9.41295 15.348 6.17139 18.6219 6.17139 22.6074C6.17139 26.5928 9.41295 29.8668 13.3984 29.9027C13.42 29.9027 13.4415 29.9027 13.4667 29.9063C17.5025 29.8991 20.7692 26.6288 20.7692 22.6074C20.7692 18.5824 17.4953 15.3085 13.4703 15.3085H13.4883Z" fill="#4B4D5A"/>
</svg>
