<svg width="36" height="36" viewBox="0 0 36 36" fill="none" xmlns="http://www.w3.org/2000/svg">
<path d="M17.9277 24.0442C14.5554 24.0442 11.8112 21.3008 11.8112 17.9293C11.8112 14.5573 14.5553 11.814 17.9277 11.814C18.8887 11.814 19.7957 12.043 20.6056 12.4396L20.6047 12.4416C20.8243 12.553 20.9748 12.7802 20.9748 13.0429C20.9748 13.4155 20.6728 13.7192 20.2994 13.7192C20.2117 13.7192 20.1283 13.702 20.0514 13.6715L20.0479 13.6794C19.4082 13.3599 18.6903 13.1749 17.9277 13.1749C15.3055 13.1749 13.1729 15.3076 13.1729 17.9293C13.1729 20.5507 15.3055 22.6825 17.9277 22.6825C20.55 22.6825 22.6842 20.5507 22.6842 17.9293C22.6842 17.4613 22.6129 17.0095 22.4868 16.5822L22.4989 16.5775C22.4861 16.5254 22.4785 16.4713 22.4785 16.4153C22.4785 16.0428 22.7805 15.7407 23.1539 15.7407C23.4113 15.7407 23.6347 15.8842 23.7487 16.0955L23.7605 16.0909C23.7721 16.1278 23.7834 16.1649 23.7944 16.2021C23.7997 16.2181 23.8042 16.2344 23.8084 16.2509C23.9611 16.7846 24.0443 17.3472 24.0443 17.9293C24.0443 21.3008 21.301 24.0442 17.9277 24.0442ZM32.4013 21.3054H30.0729C29.9526 21.746 29.804 22.1891 29.6198 22.6522L29.4837 22.9791C29.3045 23.3948 29.0987 23.8039 28.8746 24.1981L30.5202 25.8437C30.6894 26.013 30.7832 26.2378 30.7832 26.4768C30.7832 26.7158 30.6895 26.9407 30.5202 27.11L27.1105 30.5189C26.771 30.8583 26.181 30.8583 25.8433 30.5189L24.1978 28.8734C23.7979 29.1007 23.3762 29.3107 22.9049 29.5148L22.5996 29.6393C22.178 29.8053 21.7449 29.9505 21.3051 30.0717V32.3983C21.3051 32.8921 20.9035 33.2937 20.4089 33.2937H15.5877C15.0931 33.2937 14.6915 32.8912 14.6915 32.3983V30.0715C14.2516 29.9504 13.8176 29.806 13.3986 29.6392L13.0202 29.4823C12.6053 29.3031 12.1953 29.0982 11.8004 28.8733L10.1541 30.5188C9.81548 30.8574 9.22628 30.8574 8.88692 30.5188L5.47801 27.1099C5.30871 26.9414 5.21496 26.7157 5.21496 26.4767C5.21496 26.2377 5.30788 26.0137 5.47801 25.8435L7.12354 24.198C6.89617 23.7981 6.68539 23.3732 6.4763 22.8902L6.35596 22.5989C6.18918 22.179 6.04564 21.7459 5.9253 21.3053H3.59681C3.10308 21.3053 2.70142 20.9028 2.70142 20.4099V15.5887C2.70142 15.0958 3.10308 14.6942 3.59681 14.6942H5.9253C6.04646 14.2519 6.1958 13.8079 6.38086 13.3399L6.51443 13.0196C6.69536 12.603 6.89948 12.1947 7.12354 11.8022L5.47884 10.1563C5.12948 9.80778 5.12948 9.2385 5.47884 8.88997L8.88771 5.4811C9.22628 5.14423 9.81548 5.14257 10.154 5.4811L11.8003 7.12749C12.1953 6.90182 12.6028 6.69765 13.0152 6.51839L13.294 6.40222L13.4002 6.35909C13.8201 6.19313 14.2533 6.04873 14.6931 5.92925V3.60246C14.6931 3.10786 15.0947 2.70623 15.5893 2.70623H20.4105C20.9051 2.70623 21.3067 3.10955 21.3067 3.60246V5.92925C21.7482 6.05038 22.1904 6.19813 22.651 6.38067L22.9796 6.51673C23.3962 6.69765 23.8045 6.90181 24.1995 7.12752L25.8459 5.48114C26.1836 5.14426 26.7736 5.14261 27.1121 5.48114L30.5226 8.89001C30.8712 9.23854 30.8712 9.80782 30.5226 10.1563L28.8763 11.8023C29.102 12.1981 29.3112 12.618 29.512 13.0827L29.5651 13.2088L29.6431 13.4013C29.8099 13.8237 29.9543 14.2569 30.0746 14.6942H32.4031C32.8968 14.6942 33.2985 15.095 33.2985 15.5887V20.41C33.2968 20.9029 32.8951 21.3054 32.4013 21.3054ZM31.8728 16.119H28.9527L28.79 15.427C28.668 14.9124 28.5071 14.4054 28.2988 13.8802L28.2491 13.7557L28.1777 13.5872C27.9685 13.1043 27.7237 12.6346 27.449 12.1915L27.0757 11.5866L29.1394 9.52239L26.4782 6.86202L24.4152 8.92494L23.8095 8.55317C23.3547 8.2727 22.89 8.03206 22.3473 7.79469L22.0751 7.68518C21.5839 7.49102 21.0777 7.33169 20.5707 7.21052L19.8794 7.04626V4.13194H16.1163V7.04626L15.4251 7.21052C14.9006 7.33665 14.3944 7.49764 13.8318 7.72008L13.5812 7.82459C13.1032 8.03206 12.6352 8.27766 12.1863 8.55317L11.5813 8.92494L9.5184 6.86202L6.85717 9.52239L8.92009 11.5866L8.54749 12.1915C8.2695 12.6404 8.02469 13.1134 7.79815 13.6353L7.68033 13.9266C7.487 14.4145 7.32849 14.9191 7.20815 15.4286L7.04306 16.119H4.12627V19.8814H7.04306L7.20815 20.5718C7.3318 21.0929 7.49527 21.6066 7.70688 22.1393L7.82057 22.4123C8.02721 22.8903 8.27202 23.36 8.54832 23.8089L8.92171 24.4138L6.85879 26.476L9.52002 29.1363L11.5821 27.0742L12.1879 27.4468C12.636 27.7232 13.1074 27.9672 13.6293 28.1928L13.9264 28.3148C14.4043 28.5048 14.9088 28.6641 15.425 28.7878L16.117 28.9504V31.8681H19.8811V28.9504L20.5731 28.7878C21.091 28.665 21.5905 28.5065 22.1415 28.2891L22.4137 28.1746C22.8975 27.9655 23.368 27.7206 23.8111 27.4468L24.416 27.0742L26.4781 29.1363L29.1401 26.4759L27.0772 24.4138L27.4489 23.8097C27.7261 23.3591 27.9717 22.8853 28.2 22.3592L28.3186 22.072C28.5111 21.5833 28.6705 21.0788 28.7916 20.5734L28.9543 19.8814H31.8727V16.119H31.8728Z" fill="#4B4D5A"/>
</svg>
