<svg width="36" height="36" viewBox="0 0 36 36" fill="none" xmlns="http://www.w3.org/2000/svg">
<path d="M17.924 24.4949C14.3742 24.4949 11.4855 21.547 11.4855 17.9241C11.4855 14.3007 14.3741 11.3528 17.924 11.3528C18.9355 11.3528 19.8902 11.5989 20.7428 12.0251L20.7419 12.0272C20.973 12.147 21.1315 12.391 21.1315 12.6734C21.1315 13.0738 20.8136 13.4001 20.4204 13.4001C20.3282 13.4001 20.2403 13.3816 20.1595 13.3488L20.1557 13.3574C19.4823 13.014 18.7267 12.8152 17.924 12.8152C15.1638 12.8152 12.9189 15.1069 12.9189 17.9241C12.9189 20.741 15.1638 23.0317 17.924 23.0317C20.6843 23.0317 22.9309 20.741 22.9309 17.9241C22.9309 17.4212 22.8558 16.9357 22.723 16.4765L22.7358 16.4714C22.7222 16.4156 22.7143 16.3574 22.7143 16.2973C22.7143 15.8969 23.0322 15.5723 23.4253 15.5723C23.6961 15.5723 23.9314 15.7265 24.0514 15.9535L24.0637 15.9486C24.076 15.9883 24.0879 16.0281 24.0994 16.0681C24.1051 16.0853 24.1098 16.1028 24.1141 16.1206C24.2749 16.6941 24.3625 17.2986 24.3625 17.9241C24.3625 21.547 21.4748 24.4949 17.924 24.4949ZM33.1594 21.5519H30.7084C30.5817 22.0254 30.4253 22.5015 30.2314 22.9991L30.0882 23.3504C29.8996 23.7971 29.6829 24.2368 29.447 24.6603L31.1792 26.4286C31.3574 26.6105 31.456 26.8521 31.456 27.1089C31.456 27.3657 31.3574 27.6074 31.1792 27.7893L27.59 31.4524C27.2327 31.8171 26.6117 31.8171 26.2562 31.4524L24.524 29.6842C24.1031 29.9285 23.6593 30.1541 23.1631 30.3734L22.8417 30.5072C22.3979 30.6856 21.942 30.8416 21.4791 30.9718V33.472C21.4791 34.0025 21.0563 34.4341 20.5357 34.4341H15.4608C14.9401 34.4341 14.5174 34.0016 14.5174 33.472V30.9716C14.0544 30.8415 13.5976 30.6863 13.1565 30.507L12.7582 30.3385C12.3215 30.1459 11.8899 29.9257 11.4741 29.6841L9.74118 31.4523C9.38479 31.8161 8.76457 31.8161 8.40735 31.4523L4.81903 27.7892C4.64082 27.6082 4.54213 27.3656 4.54213 27.1088C4.54213 26.852 4.63995 26.6113 4.81903 26.4284L6.55116 24.6602C6.31183 24.2305 6.08995 23.7739 5.86986 23.2549L5.74319 22.9419C5.56763 22.4907 5.41653 22.0253 5.28986 21.5518H2.83882C2.31911 21.5518 1.8963 21.1193 1.8963 20.5896V15.4089C1.8963 14.8793 2.31911 14.4477 2.83882 14.4477H5.28986C5.4174 13.9725 5.57459 13.4954 5.76939 12.9925L5.91 12.6483C6.10044 12.2007 6.31531 11.7619 6.55116 11.3402L4.8199 9.57154C4.45216 9.19702 4.45216 8.58529 4.8199 8.21077L8.40819 4.54774C8.76457 4.18574 9.38479 4.18396 9.74114 4.54774L11.4741 6.31688C11.8899 6.07438 12.3188 5.85499 12.7529 5.66236L13.0464 5.53753L13.1582 5.49118C13.6002 5.31285 14.0562 5.15768 14.5191 5.0293V2.52901C14.5191 1.99754 14.9418 1.56597 15.4625 1.56597H20.5374C21.0581 1.56597 21.4808 1.99936 21.4808 2.52901V5.0293C21.9455 5.15946 22.4111 5.31823 22.8959 5.51438L23.2418 5.66058C23.6803 5.855 24.1101 6.07438 24.5258 6.31692L26.2589 4.54777C26.6144 4.18578 27.2354 4.184 27.5917 4.54777L31.1818 8.21081C31.5487 8.58533 31.5487 9.19706 31.1818 9.57158L29.4488 11.3402C29.6864 11.7656 29.9066 12.2167 30.1179 12.7161L30.1738 12.8517L30.256 13.0585C30.4315 13.5124 30.5835 13.9779 30.7101 14.4478H33.1612C33.6809 14.4478 34.1037 14.8785 34.1037 15.409V20.5897C34.1019 21.1194 33.6792 21.5519 33.1594 21.5519ZM32.603 15.9788H29.5292L29.358 15.2352C29.2295 14.6823 29.0602 14.1375 28.8409 13.5731L28.7886 13.4393L28.7134 13.2583C28.4933 12.7393 28.2356 12.2346 27.9464 11.7585L27.5534 11.1084L29.7258 8.89034L26.9244 6.03162L24.753 8.24835L24.1153 7.84886C23.6366 7.54748 23.1474 7.2889 22.5762 7.03383L22.2897 6.91616C21.7726 6.70752 21.2398 6.5363 20.7061 6.4061L19.9784 6.22959V3.09798H16.0172V6.22959L15.2896 6.4061C14.7375 6.54164 14.2047 6.71463 13.6125 6.95366L13.3487 7.06596C12.8455 7.2889 12.3529 7.55281 11.8804 7.84886L11.2436 8.24835L9.07207 6.03162L6.27078 8.89034L8.44227 11.1084L8.05006 11.7585C7.75744 12.2409 7.49974 12.7491 7.26128 13.31L7.13726 13.623C6.93375 14.1473 6.7669 14.6895 6.64023 15.2369L6.46645 15.9788H3.39614V20.0218H6.46645L6.64023 20.7636C6.77039 21.3236 6.94246 21.8755 7.16521 22.448L7.28488 22.7414C7.5024 23.255 7.76009 23.7597 8.05093 24.2421L8.44397 24.8921L6.27248 27.108L9.07377 29.9667L11.2444 27.7509L11.8821 28.1513C12.3538 28.4482 12.8499 28.7104 13.3993 28.9529L13.712 29.084C14.2151 29.2882 14.7462 29.4593 15.2896 29.5922L16.018 29.767V32.9022H19.9802V29.767L20.7086 29.5922C21.2537 29.4602 21.7796 29.2899 22.3595 29.0563L22.6461 28.9332C23.1553 28.7086 23.6506 28.4455 24.117 28.1512L24.7538 27.7508L26.9244 29.9667L29.7265 27.108L27.555 24.8921L27.9463 24.2429C28.2381 23.7588 28.4966 23.2496 28.7369 22.6843L28.8617 22.3757C29.0644 21.8505 29.2322 21.3084 29.3597 20.7653L29.5309 20.0217H32.6029V15.9788H32.603Z" fill="white"/>
</svg>
