<svg width="36" height="36" viewBox="0 0 36 36" fill="none" xmlns="http://www.w3.org/2000/svg">
<path d="M12.2267 7.42163H14.4154V14.181H12.2267V7.42163ZM12.2267 31.1797H14.4154V34.8676H12.2267V31.1797Z" fill="white"/>
<path d="M17.6859 8.69079L13.3232 1.13257L8.95677 8.69079H17.6859ZM21.9064 21.5784H29.1473V23.7671H21.9064V21.5784ZM0.570496 21.5784H4.90042V23.7671H0.570496V21.5784Z" fill="white"/>
<path d="M27.8713 27.0456L35.4295 22.6828L27.8713 18.3201V27.0456Z" fill="white"/>
<path d="M18.4789 22.1848H8.35629C7.86019 22.1848 7.4261 21.8492 7.29842 21.3714C7.17075 20.8898 7.38597 20.3864 7.81641 20.142L11.559 18.0154L12.6388 19.9195L12.4965 19.9998H18.4753V22.1848H18.4789Z" fill="white"/>
<path d="M15.2755 27.7353L14.1958 25.8312L14.3344 25.7509H8.35565V23.5623H18.4783C18.9744 23.5623 19.4085 23.8979 19.5361 24.3757C19.6638 24.8572 19.4486 25.3606 19.0181 25.6087L15.2755 27.7353Z" fill="white"/>
<path d="M13.4061 32.2726C13.3623 32.2726 13.3186 32.2726 13.2784 32.2689C8.05481 32.1996 3.80878 27.9062 3.80878 22.6752C3.80878 17.4443 8.05116 13.1472 13.2784 13.0815C13.3222 13.0779 13.3623 13.0779 13.4061 13.0779C18.6991 13.0779 23.0035 17.3823 23.0035 22.6752C23.0035 27.9682 18.6991 32.2726 13.4061 32.2726ZM13.4244 15.2666C13.3952 15.2702 13.3623 15.2702 13.3332 15.2702C9.28776 15.3067 5.99745 18.6298 5.99745 22.6752C5.99745 26.7206 9.28776 30.0438 13.3332 30.0802C13.355 30.0802 13.3769 30.0802 13.4025 30.0839C17.4989 30.0766 20.8148 26.7571 20.8148 22.6752C20.8148 18.5897 17.4916 15.2666 13.4061 15.2666H13.4244Z" fill="white"/>
</svg>
