<svg width="36" height="36" viewBox="0 0 36 36" fill="none" xmlns="http://www.w3.org/2000/svg">
<path d="M34.9678 22.8891C35.1116 21.8825 35.2554 21.0197 35.2554 20.0132C35.2554 15.8431 33.8174 11.9607 31.2291 8.94099C28.0656 5.20233 23.3204 2.90161 18.1438 2.90161C12.8234 2.90161 8.22195 5.34612 5.05847 9.08478C2.32637 11.9607 0.744629 15.8431 0.744629 20.0132C0.744629 21.0197 0.888424 22.0263 1.03222 22.8891C1.6074 26.4839 3.47673 29.7912 6.20883 32.3795C6.78401 32.9547 7.64678 32.9547 8.22195 32.3795C8.79713 31.8044 8.79713 30.9416 8.22195 30.3664C6.35262 28.4971 4.91468 26.3402 4.1957 23.7518L6.9278 23.3205C7.64678 23.1767 8.22195 22.4577 8.07816 21.5949C7.93437 20.876 7.21539 20.3008 6.35262 20.4446L3.62052 21.0197V20.0132C3.62052 16.9935 4.48329 14.2614 6.06503 11.9607L8.22195 13.83C8.50954 14.1176 8.79713 14.1176 9.08472 14.1176C9.51611 14.1176 9.94749 13.9738 10.2351 13.5424C10.8103 12.9672 10.6665 11.9607 10.0913 11.5293L7.93437 9.65996C10.2351 7.50304 13.2548 5.9213 16.562 5.63371V8.36581C16.562 9.22858 17.1372 9.80376 18 9.80376C18.8628 9.80376 19.4379 9.22858 19.4379 8.36581V5.77751C22.7452 6.0651 25.7649 7.64684 28.0656 9.80376L25.9087 11.5293C25.3335 12.1045 25.1897 12.9672 25.7649 13.5424C26.0525 13.83 26.4839 14.1176 26.9153 14.1176C27.2029 14.1176 27.6342 13.9738 27.778 13.83L29.935 12.1045C31.5167 14.4052 32.3795 17.1373 32.3795 20.157V21.1635L29.6474 20.7322C28.9284 20.5884 28.0656 21.1635 27.9218 21.8825C27.778 22.6015 28.3532 23.4643 29.0722 23.6081L31.8043 24.0394C31.0853 26.4839 29.7912 28.7847 27.778 30.654C27.2029 31.2292 27.2029 32.0919 27.778 32.6671C28.0656 32.9547 28.497 33.0985 28.7846 33.0985C29.0722 33.0985 29.5036 32.9547 29.7912 32.6671C32.5233 29.935 34.3926 26.6277 34.9678 22.8891C34.9678 23.0329 34.9678 23.0329 34.9678 22.8891Z" fill="white"/>
<path d="M19.4418 18.7135V14.112C19.4418 13.2493 18.8666 12.6741 18.0038 12.6741C17.1411 12.6741 16.5659 13.2493 16.5659 14.112V18.7135C14.8404 19.2886 13.69 20.8704 13.69 22.7397C13.69 25.1842 15.5593 27.0535 18.0038 27.0535C20.4484 27.0535 22.3177 25.1842 22.3177 22.7397C22.3177 20.8704 21.1673 19.2886 19.4418 18.7135ZM18.0038 24.1777C17.1411 24.1777 16.5659 23.6025 16.5659 22.7397C16.5659 21.8769 17.1411 21.3018 18.0038 21.3018C18.8666 21.3018 19.4418 21.8769 19.4418 22.7397C19.4418 23.6025 18.8666 24.1777 18.0038 24.1777Z" fill="white"/>
</svg>
