<svg width="40" height="40" viewBox="0 0 40 40" fill="none" xmlns="http://www.w3.org/2000/svg">
<path d="M34.7306 14.7642H33.001V14.1173C33.001 10.6267 31.6415 7.34015 29.1773 4.85188C26.713 2.36946 23.4446 1 19.9796 1C16.5146 1 13.252 2.36946 10.7819 4.85188C8.31765 7.33429 6.95821 10.6268 6.95821 14.1173V14.7642H5.28066C2.75854 14.7642 1 16.5357 1 19.0764V26.4713C1 28.8488 2.9205 30.7835 5.28066 30.7835H7.48462V30.7951C7.48462 34.1342 10.1861 36.8556 13.5007 36.8556H15.5022C15.5948 38.0502 16.5956 39 17.8103 39H22.2183C23.4909 39 24.5321 37.9511 24.5321 36.6691V35.1656C24.5321 33.8836 23.4909 32.8347 22.2183 32.8347H17.8103C16.5955 32.8347 15.5947 33.7903 15.5022 34.9908H13.5007C11.2042 34.9908 9.33577 33.1086 9.33577 30.7952V30.3756L9.37628 30.3348C9.3994 30.3115 9.42256 30.2823 9.43987 30.259C9.44568 30.2532 9.44568 30.2474 9.4514 30.2415C9.47452 30.2124 9.49192 30.1891 9.50927 30.16C9.50927 30.1541 9.51508 30.1541 9.51508 30.1483C9.53243 30.1192 9.54983 30.0959 9.56713 30.0668C9.56713 30.0609 9.57295 30.0609 9.57295 30.0551C9.5903 30.026 9.60188 29.9968 9.61923 29.9619C9.61923 29.956 9.62504 29.9503 9.62504 29.9444C9.63658 29.9153 9.64816 29.8804 9.65979 29.8512C9.65979 29.8453 9.66561 29.8395 9.66561 29.8395C9.67714 29.8104 9.68872 29.7755 9.69454 29.7405V29.7346C9.70607 29.6996 9.71189 29.6647 9.71766 29.6297C9.71766 29.6239 9.71766 29.6181 9.72347 29.6122C9.72929 29.5772 9.735 29.5423 9.735 29.5073V29.4898C9.735 29.4548 9.74082 29.4141 9.74082 29.3791V14.1173C9.74082 8.42982 14.3339 3.80288 19.9798 3.80288C25.6257 3.80288 30.2188 8.42978 30.2188 14.1173V29.3849C30.2183 29.5687 30.2539 29.7508 30.3235 29.9207C30.3932 30.0905 30.4954 30.2449 30.6244 30.3748C30.7534 30.5048 30.9066 30.6078 31.0753 30.6779C31.2439 30.7481 31.4246 30.7839 31.6071 30.7835H34.7193C37.0794 30.7835 38.9999 28.8488 38.9999 26.4713V19.0764C39.0115 16.5357 37.2527 14.7642 34.7306 14.7642ZM3.7766 26.4713V19.0764C3.7766 17.8235 4.59229 17.5613 5.28061 17.5613H6.96393V27.9865H5.28061C4.44762 27.9865 3.7766 27.3046 3.7766 26.4713ZM36.2346 26.4713C36.2346 27.3046 35.5578 27.9864 34.7306 27.9864H33.001V17.5613H34.7306C35.419 17.5613 36.2346 17.8235 36.2346 19.0764V26.4713Z" fill="white"/>
</svg>
