<svg width="40" height="40" viewBox="0 0 40 40" fill="none" xmlns="http://www.w3.org/2000/svg">
<path d="M6.11458 35.1208C5.78583 35.1208 5.47053 34.9902 5.23807 34.7578C5.0056 34.5253 4.875 34.21 4.875 33.8813C4.875 33.5525 5.0056 33.2372 5.23807 33.0047C5.47053 32.7723 5.78583 32.6417 6.11458 32.6417H33.8813C34.21 32.6417 34.5253 32.7723 34.7578 33.0047C34.9902 33.2372 35.1208 33.5525 35.1208 33.8813C35.1208 34.21 34.9902 34.5253 34.7578 34.7578C34.5253 34.9902 34.21 35.1208 33.8813 35.1208H6.11458ZM8.09792 4.875H31.8979C33.677 4.875 35.1208 6.31887 35.1208 8.09792V27.9313C35.1208 29.7103 33.677 31.1542 31.8979 31.1542H8.09792C7.67468 31.1542 7.25558 31.0708 6.86456 30.9088C6.47354 30.7469 6.11825 30.5095 5.81897 30.2102C5.21456 29.6058 4.875 28.786 4.875 27.9313V8.09792C4.875 6.31887 6.31887 4.875 8.09792 4.875ZM8.09792 7.35417C7.90066 7.35417 7.71149 7.43253 7.57201 7.57201C7.43253 7.71149 7.35417 7.90066 7.35417 8.09792V27.9313C7.35417 28.3418 7.68737 28.675 8.09792 28.675H31.8979C32.0952 28.675 32.2844 28.5966 32.4238 28.4572C32.5633 28.3177 32.6417 28.1285 32.6417 27.9313V8.09792C32.6417 7.90066 32.5633 7.71149 32.4238 7.57201C32.2844 7.43253 32.0952 7.35417 31.8979 7.35417H8.09792ZM11.0729 24.7083C10.9752 24.8386 10.8529 24.9483 10.7128 25.0312C10.5727 25.1142 10.4177 25.1687 10.2566 25.1917C10.0954 25.2147 9.9313 25.2058 9.77361 25.1654C9.61592 25.125 9.46773 25.0539 9.3375 24.9563C9.20727 24.8586 9.09756 24.7362 9.01462 24.5961C8.93168 24.4561 8.87715 24.301 8.85413 24.1399C8.8311 23.9787 8.84005 23.8146 8.88045 23.6569C8.92085 23.4993 8.99191 23.3511 9.08958 23.2208L14.0479 16.6124C14.5006 16.0087 15.1507 15.583 15.8849 15.4094C16.6192 15.2358 17.3911 15.3253 18.0662 15.6624L23.0384 18.1495C23.1941 18.2276 23.3724 18.2485 23.542 18.2087C23.7117 18.1688 23.8619 18.0706 23.9666 17.9313L28.9229 11.3189C29.1202 11.0558 29.4138 10.882 29.7393 10.8355C30.0647 10.789 30.3953 10.8737 30.6583 11.0709C30.9213 11.2682 31.0952 11.5618 31.1417 11.8873C31.1882 12.2128 31.1035 12.5433 30.9063 12.8064L25.9479 19.4168C25.4953 20.0205 24.8452 20.4462 24.1109 20.6198C23.3766 20.7934 22.6047 20.7039 21.9297 20.3668L16.9575 17.8797C16.8017 17.8016 16.6234 17.7806 16.4538 17.8205C16.2842 17.8604 16.1339 17.9585 16.0293 18.0979L11.0729 24.7103V24.7083Z" fill="#333333"/>
</svg>
