<svg width="40" height="40" viewBox="0 0 40 40" fill="none" xmlns="http://www.w3.org/2000/svg">
<path d="M15.9658 8.979V17.1138H7.61572V8.979H15.9658ZM16.2188 7H7.36279C6.40918 7 5.63672 7.77246 5.63672 8.72607V17.3633C5.63672 18.3169 6.40918 19.0894 7.36279 19.0894H16.2188C17.1724 19.0894 17.9448 18.3169 17.9448 17.3633V8.72607C17.9482 7.77246 17.1724 7 16.2188 7Z" fill="#333333"/>
<path d="M15.9658 24.9634V33.0981H7.61572V24.9634H15.9658ZM16.2188 22.9844H7.36279C6.40918 22.9844 5.63672 23.7568 5.63672 24.7104V33.3477C5.63672 34.3013 6.40918 35.0737 7.36279 35.0737H16.2188C17.1724 35.0737 17.9448 34.3013 17.9448 33.3477V24.7139C17.9482 23.7603 17.1724 22.9844 16.2188 22.9844Z" fill="#333333"/>
<path d="M32.165 24.9634V33.0981H23.8149V24.9634H32.165ZM32.418 22.9844H23.562C22.6084 22.9844 21.8359 23.7568 21.8359 24.7104V33.3477C21.8359 34.3013 22.6084 35.0737 23.562 35.0737H32.418C33.3716 35.0737 34.144 34.3013 34.144 33.3477V24.7139C34.144 23.7603 33.3716 22.9844 32.418 22.9844Z" fill="#333333"/>
<path d="M28.526 7.00684L34.2784 12.7593L28.3756 18.6655L22.6198 12.9131L28.526 7.00684ZM28.526 4.92188C28.0851 4.92188 27.6407 5.08936 27.3058 5.42773L21.0441 11.6895C20.3707 12.3662 20.3707 13.4565 21.0441 14.1333L27.152 20.2412C27.4904 20.5796 27.9313 20.7471 28.3722 20.7471C28.8131 20.7471 29.2574 20.5796 29.5924 20.2412L35.8541 13.9795C36.5275 13.3027 36.5275 12.209 35.8541 11.5356L29.7496 5.43115C29.4113 5.09277 28.9669 4.92188 28.526 4.92188Z" fill="#333333"/>
</svg>
