<svg width="40" height="40" viewBox="0 0 40 40" fill="none" xmlns="http://www.w3.org/2000/svg">
<path d="M16.6911 16.9973L10.1619 18.2474L10.721 20.6979L17.1844 19.4478L16.6911 16.9973ZM20.2105 23.4935C18.6153 26.9143 17.1845 24.3323 17.1845 24.3323L16.1156 25.0232C16.1156 25.0232 18.2205 27.9013 20.2271 25.7139C22.5954 27.9013 24.4044 25.0068 24.4044 25.0068L23.434 24.3818C23.4341 24.3653 21.7401 26.8157 20.2105 23.4935ZM23.4341 19.4477L29.9139 20.6977L30.4566 18.2473L23.944 16.9972L23.4341 19.4477ZM36.3001 14.6361C36.197 10.0714 32.2156 9.19604 32.2156 9.19604C32.2156 9.19604 29.1094 9.17892 25.0764 9.14451L28.0111 6.31294C28.0111 6.31294 28.4744 5.72938 27.685 5.07743C26.8955 4.42536 26.844 4.71705 26.5695 4.88874C26.3292 5.06026 22.8111 8.50968 22.1934 9.12758C20.5975 9.12758 18.9327 9.11028 17.3196 9.11028H17.8859C17.8859 9.11028 13.6814 4.95726 13.4068 4.76857C13.1321 4.57982 13.0978 4.30538 12.2912 4.95726C11.5018 5.6094 11.9652 6.19283 11.9652 6.19283L14.9684 9.11028C11.7078 9.11028 8.89311 9.12758 7.58897 9.17892C3.36718 10.3975 3.69334 14.6362 3.69334 14.6362C3.69334 14.6362 3.74475 23.7318 3.69334 28.3311C4.15666 32.9304 7.6919 33.6681 7.6919 33.6681C7.6919 33.6681 9.0991 33.7024 10.1461 33.7024C10.2489 33.9942 10.3347 35.4357 11.948 35.4357C13.544 35.4357 13.7499 33.7024 13.7499 33.7024C13.7499 33.7024 25.5055 33.651 26.4836 33.651C26.5352 34.1486 26.7755 35.4701 28.3886 35.453C29.9845 35.4186 30.1046 33.5481 30.1046 33.5481C30.1046 33.5481 30.6539 33.4966 32.2841 33.5481C36.094 32.8444 36.317 28.3825 36.317 28.3825C36.317 28.3825 36.2486 19.201 36.3001 14.6361ZM33.0222 29.1891C33.0222 29.9099 32.4559 30.4933 31.7523 30.4933H8.58456C7.88096 30.4933 7.31464 29.9099 7.31464 29.1891V13.8296C7.31464 13.1088 7.88102 12.5253 8.58456 12.5253H31.7523C32.4559 12.5253 33.0222 13.1088 33.0222 13.8296V29.1891Z" fill="#333333"/>
</svg>
