<svg width="40" height="41" viewBox="0 0 40 41" fill="none" xmlns="http://www.w3.org/2000/svg">
<path d="M16.6911 17.9797L10.1619 19.2298L10.721 21.6803L17.1844 20.4302L16.6911 17.9797ZM20.2105 24.476C18.6153 27.8967 17.1845 25.3148 17.1845 25.3148L16.1156 26.0056C16.1156 26.0056 18.2205 28.8837 20.2271 26.6963C22.5954 28.8837 24.4044 25.9892 24.4044 25.9892L23.434 25.3642C23.4341 25.3477 21.7401 27.7981 20.2105 24.476ZM23.4341 20.4301L29.9139 21.6802L30.4566 19.2297L23.944 17.9796L23.4341 20.4301ZM36.3001 15.6185C36.197 11.0538 32.2156 10.1785 32.2156 10.1785C32.2156 10.1785 29.1094 10.1613 25.0764 10.1269L28.0111 7.29536C28.0111 7.29536 28.4744 6.7118 27.685 6.05986C26.8955 5.40778 26.844 5.69947 26.5695 5.87117C26.3292 6.04268 22.8111 9.4921 22.1934 10.11C20.5975 10.11 18.9327 10.0927 17.3196 10.0927H17.8859C17.8859 10.0927 13.6814 5.93969 13.4068 5.751C13.1321 5.56224 13.0978 5.2878 12.2912 5.93969C11.5018 6.59182 11.9652 7.17525 11.9652 7.17525L14.9684 10.0927C11.7078 10.0927 8.89311 10.11 7.58897 10.1613C3.36718 11.3799 3.69334 15.6186 3.69334 15.6186C3.69334 15.6186 3.74475 24.7142 3.69334 29.3135C4.15666 33.9128 7.6919 34.6505 7.6919 34.6505C7.6919 34.6505 9.0991 34.6848 10.1461 34.6848C10.2489 34.9766 10.3347 36.4181 11.948 36.4181C13.544 36.4181 13.7499 34.6848 13.7499 34.6848C13.7499 34.6848 25.5055 34.6334 26.4836 34.6334C26.5352 35.131 26.7755 36.4525 28.3886 36.4354C29.9845 36.401 30.1046 34.5306 30.1046 34.5306C30.1046 34.5306 30.6539 34.479 32.2841 34.5306C36.094 33.8268 36.317 29.365 36.317 29.365C36.317 29.365 36.2486 20.1834 36.3001 15.6185ZM33.0222 30.1716C33.0222 30.8923 32.4559 31.4757 31.7523 31.4757H8.58456C7.88096 31.4757 7.31464 30.8923 7.31464 30.1716V14.812C7.31464 14.0912 7.88102 13.5077 8.58456 13.5077H31.7523C32.4559 13.5077 33.0222 14.0912 33.0222 14.812V30.1716Z" fill="#DB639B"/>
</svg>
