<svg width="22" height="22" viewBox="0 0 22 22" fill="none" xmlns="http://www.w3.org/2000/svg">
<path d="M17.7381 7.2123C17.93 7.06994 18.2025 7.11705 18.3304 7.29218C18.4743 7.48271 18.4264 7.75313 18.2344 7.88009L11.4468 12.774C11.2869 12.8852 11.0949 12.8693 10.9504 12.774L4.14735 7.88013C3.9554 7.75313 3.92341 7.48276 4.05139 7.29222C4.19588 7.11709 4.45176 7.06998 4.64367 7.21234L11.1909 11.9157L17.7381 7.2123ZM3.93945 4.28906H18.4423C18.9226 4.28906 19.355 4.4796 19.659 4.79709C19.9634 5.09925 20.1553 5.52846 20.1553 5.98937V16.715C20.1553 17.1753 19.9633 17.6045 19.659 17.9225C19.339 18.2242 18.9226 18.4147 18.4423 18.4147H3.93945C3.47503 18.4147 3.04324 18.2242 2.73887 17.9225C2.41898 17.6045 2.22656 17.1913 2.22656 16.715V5.98933C2.22656 5.52842 2.41898 5.09921 2.73887 4.79704C3.04324 4.47956 3.47507 4.28906 3.93945 4.28906ZM18.4423 5.131H3.93945C3.69952 5.131 3.49107 5.22625 3.33114 5.38499C3.17122 5.54374 3.07522 5.7507 3.07522 5.98933V16.7149C3.07522 16.9531 3.17122 17.1753 3.33114 17.3187C3.49107 17.4775 3.69952 17.5727 3.93945 17.5727H18.4423C18.6828 17.5727 18.9067 17.4776 19.0667 17.3187C19.2106 17.1753 19.3071 16.9531 19.3071 16.7149V5.98933C19.3071 5.7507 19.2106 5.54374 19.0667 5.38499C18.9067 5.22625 18.6828 5.131 18.4423 5.131ZM10.9504 12.774C10.903 12.7423 10.871 12.7105 10.8545 12.6788Z" fill="white"/>
<path d="M10.9504 12.774C11.0949 12.8693 11.2869 12.8852 11.4468 12.774L18.2344 7.88009C18.4264 7.75313 18.4743 7.48271 18.3304 7.29218C18.2025 7.11705 17.93 7.06994 17.7381 7.2123L11.1909 11.9157L4.64367 7.21234C4.45176 7.06998 4.19588 7.11709 4.05139 7.29222C3.92341 7.48276 3.9554 7.75313 4.14735 7.88013L10.9504 12.774ZM10.9504 12.774C10.903 12.7423 10.871 12.7105 10.8545 12.6788M3.93945 4.28906H18.4423C18.9226 4.28906 19.355 4.4796 19.659 4.79709C19.9634 5.09925 20.1553 5.52846 20.1553 5.98937V16.715C20.1553 17.1753 19.9633 17.6045 19.659 17.9225C19.339 18.2242 18.9226 18.4147 18.4423 18.4147H3.93945C3.47503 18.4147 3.04324 18.2242 2.73887 17.9225C2.41898 17.6045 2.22656 17.1913 2.22656 16.715V5.98933C2.22656 5.52842 2.41898 5.09921 2.73887 4.79704C3.04324 4.47956 3.47507 4.28906 3.93945 4.28906ZM18.4423 5.131H3.93945C3.69952 5.131 3.49107 5.22625 3.33114 5.38499C3.17122 5.54374 3.07522 5.7507 3.07522 5.98933V16.7149C3.07522 16.9531 3.17122 17.1753 3.33114 17.3187C3.49107 17.4775 3.69952 17.5727 3.93945 17.5727H18.4423C18.6828 17.5727 18.9067 17.4776 19.0667 17.3187C19.2106 17.1753 19.3071 16.9531 19.3071 16.7149V5.98933C19.3071 5.7507 19.2106 5.54374 19.0667 5.38499C18.9067 5.22625 18.6828 5.131 18.4423 5.131Z" stroke="white" stroke-width="0.4"/>
</svg>
