<svg width="40" height="40" viewBox="0 0 40 40" fill="none" xmlns="http://www.w3.org/2000/svg">
<g clip-path="url(#clip0_1176_17888)">
<path d="M25.9468 14.3938C26.3381 14.3938 26.7239 14.4224 27.1059 14.464C26.065 9.66671 20.881 6.10156 14.9643 6.10156C8.34893 6.10156 2.92969 10.5638 2.92969 16.2295C2.92969 19.4993 4.73302 22.1849 7.74538 24.2679L6.54192 27.8511L10.7485 25.763C12.2547 26.0574 13.4618 26.361 14.9643 26.361C15.3418 26.361 15.7155 26.3426 16.0874 26.3131C15.8521 25.5176 15.7155 24.6833 15.7155 23.8185C15.7155 18.6161 20.2304 14.3938 25.9468 14.3938ZM19.4773 11.1646C20.3835 11.1646 20.9834 11.7552 20.9834 12.6514C20.9834 13.5438 20.3835 14.1419 19.4773 14.1419C18.5746 14.1419 17.6702 13.5438 17.6702 12.6514C17.6702 11.7552 18.5747 11.1646 19.4773 11.1646ZM11.0549 14.1418C10.1523 14.1418 9.24229 13.5438 9.24229 12.6514C9.24229 11.7552 10.1523 11.1646 11.0549 11.1646C11.9565 11.1646 12.5574 11.7552 12.5574 12.6514C12.5574 13.5438 11.9565 14.1418 11.0549 14.1418ZM36.9312 23.6754C36.9312 18.9142 32.1164 15.0334 26.7091 15.0334C20.9834 15.0334 16.4741 18.9142 16.4741 23.6754C16.4741 28.4436 20.9834 32.3161 26.7091 32.3161C27.907 32.3161 29.1161 32.0189 30.3194 31.7199L33.6208 33.5085L32.7153 30.533C35.1316 28.7389 36.9312 26.361 36.9312 23.6754ZM23.3903 22.1849C22.7914 22.1849 22.1869 21.5952 22.1869 20.9935C22.1869 20.4001 22.7914 19.803 23.3903 19.803C24.3003 19.803 24.8965 20.4001 24.8965 20.9935C24.8965 21.5952 24.3003 22.1849 23.3903 22.1849ZM30.0094 22.1849C29.4151 22.1849 28.8143 21.5952 28.8143 20.9935C28.8143 20.4001 29.4151 19.803 30.0094 19.803C30.912 19.803 31.5155 20.4001 31.5155 20.9935C31.5155 21.5952 30.912 22.1849 30.0094 22.1849Z" fill="#333333"/>
</g>
<defs>
<clipPath id="clip0_1176_17888">
<rect width="40" height="40" fill="white"/>
</clipPath>
</defs>
</svg>
