<svg width="40" height="40" viewBox="0 0 40 40" fill="none" xmlns="http://www.w3.org/2000/svg">
<path fill-rule="evenodd" clip-rule="evenodd" d="M34.1396 6.00908C34.9628 6.06736 36.4791 6.46565 37.3863 8.49498C38.6368 11.2927 37.6971 16.7677 37.0251 19.7821C36.0108 24.3333 34.3769 28.8669 32.8628 31.3315C31.8548 32.9703 30.8489 33.8067 29.696 33.9621C29.51 33.9873 29.3222 34 29.1342 34C25.7249 34 22.4793 29.8811 20.5 26.7434C18.5207 29.8811 15.2741 34 11.8658 34C11.6781 33.9999 11.4907 33.9873 11.3051 33.9621C10.15 33.8067 9.14414 32.9712 8.13718 31.3315C6.62306 28.8669 4.98924 24.3333 3.97493 19.7811C3.30293 16.7677 2.36317 11.2937 3.61373 8.49498C4.52094 6.46565 6.03715 6.06639 6.86036 6.00908C9.91904 5.79925 13.5563 9.27795 19.0027 17.643C19.5539 18.4881 20.0621 19.275 20.5 19.955C20.941 19.2711 21.4492 18.4842 21.9973 17.643C27.4427 9.2799 31.0631 5.7973 34.1386 6.00908H34.1396ZM6.98636 9.69567L6.94436 9.7695L6.89291 9.89579C6.22511 11.6687 6.71336 16.3869 8.10463 21.5054C9.44234 26.4248 10.8914 29.2011 11.6463 30.2551C11.7364 30.3834 11.8753 30.4759 12.0354 30.5142C12.1956 30.5525 12.3655 30.5339 12.5115 30.462C13.1772 30.1327 14.3375 29.2701 16.0133 27.0144C17.0633 25.601 17.9327 24.1506 18.4336 23.2695C17.5988 21.9649 16.7588 20.6632 15.9136 19.3644C11.178 12.0903 8.67268 10.092 7.66467 9.54316C7.55232 9.48217 7.41874 9.46399 7.29217 9.49245C7.16559 9.52091 7.05593 9.59379 6.98636 9.69567V9.69567ZM34.0504 9.76173C34.0251 9.69978 33.9854 9.64377 33.9339 9.59771C33.8825 9.55166 33.8207 9.5167 33.753 9.49534C33.6852 9.47399 33.6132 9.46676 33.5421 9.47419C33.471 9.48162 33.4025 9.50351 33.3416 9.5383C32.342 10.0804 29.8346 12.0679 25.0854 19.3644C24.238 20.6658 23.3959 21.9701 22.5591 23.2773C24.5856 26.9299 26.9156 29.5887 28.3331 30.4037C28.5058 30.505 28.7148 30.5392 28.9146 30.499C29.1144 30.4589 29.2892 30.3475 29.4009 30.1891C30.1643 29.0913 31.5818 26.3276 32.8933 21.5054C34.3202 16.2597 34.7969 11.4326 34.0535 9.77047L34.0504 9.76173Z" fill="#333333"/>
</svg>
