<svg width="80" height="80" viewBox="0 0 80 80" fill="none" xmlns="http://www.w3.org/2000/svg">
<circle cx="40" cy="40" r="40" fill="#533CBF"/>
<path d="M57.125 34.9456L57.2609 35.5656C57.5353 36.8171 57.6751 38.0977 57.6751 39.3961C57.6751 49.2195 49.7117 57.1829 39.8883 57.1829C35.2308 57.1887 30.758 55.3619 27.4363 52.0971L26.9828 51.6525C26.7422 51.4166 26.6052 51.0948 26.6019 50.7579C26.5985 50.421 26.7291 50.0966 26.965 49.856L27.8543 48.9489C28.0902 48.7083 28.412 48.5713 28.7489 48.568C29.0858 48.5647 29.4102 48.6953 29.6508 48.9311L30.1043 49.3758C32.7136 51.942 36.2286 53.3774 39.8883 53.3714C47.6065 53.3714 53.8636 47.1143 53.8636 39.3961C53.8636 38.3721 53.7544 37.3646 53.5384 36.3838L53.4025 35.7626C53.3306 35.4337 53.3922 35.0898 53.5737 34.8063C53.7553 34.5229 54.0418 34.323 54.3706 34.2507L55.6118 33.9775C55.9409 33.9053 56.2851 33.9667 56.5688 34.1483C56.8526 34.3298 57.0526 34.6166 57.125 34.9456ZM39.8883 21.6094C44.673 21.6094 49.1616 23.51 52.475 26.8285L52.9235 27.2783C53.1615 27.5167 53.2951 27.8399 53.2948 28.1768C53.2946 28.5136 53.1606 28.8366 52.9222 29.0747L52.0227 29.9717C51.7845 30.2099 51.4614 30.3437 51.1245 30.3437C50.7876 30.3437 50.4645 30.2099 50.2262 29.9717L49.7778 29.5219C48.4815 28.2196 46.9403 27.1867 45.243 26.4828C43.5457 25.779 41.7258 25.418 39.8883 25.4208C32.1701 25.4208 25.913 31.678 25.913 39.3961C25.913 40.471 26.0337 41.528 26.2713 42.5546L26.4136 43.1733C26.4512 43.336 26.4564 43.5045 26.4289 43.6691C26.4014 43.8338 26.3417 43.9915 26.2532 44.1331C26.1647 44.2747 26.0491 44.3974 25.9132 44.4943C25.7772 44.5913 25.6234 44.6604 25.4607 44.6979L24.2233 44.9824C24.0607 45.0199 23.8923 45.025 23.7278 44.9974C23.5632 44.9697 23.4057 44.91 23.2643 44.8215C23.1228 44.733 23.0002 44.6176 22.9033 44.4817C22.8065 44.3458 22.7374 44.1922 22.7 44.0296L22.5577 43.4109C22.254 42.0942 22.101 40.7473 22.1016 39.3961C22.1016 29.5728 30.065 21.6094 39.8883 21.6094Z" fill="white" stroke="#533CBF" stroke-width="2"/>
<path d="M41.0762 28.7188L41.0755 28.7188L38.8102 28.7188H38.8095C38.7297 28.7187 38.6509 28.737 38.5793 28.7722C38.5792 28.7723 38.579 28.7723 38.5789 28.7724L37.2483 29.4301L37.2474 29.4305C37.1809 29.4633 37.1222 29.5098 37.0752 29.567C37.0282 29.6243 36.9939 29.6909 36.9747 29.7624C36.9555 29.834 36.9518 29.9088 36.9638 29.9819C36.9758 30.055 37.0033 30.1246 37.0444 30.1863L37.0761 30.2338L37.1002 30.2856L38.5377 33.369L38.6399 33.5883L38.5947 33.826L36.2527 46.1459L36.2435 46.1941L36.2281 46.2408C36.1901 46.3561 36.185 46.4797 36.2135 46.5977C36.242 46.7157 36.3029 46.8234 36.3893 46.9087L36.3901 46.9095L39.3878 49.8743L39.4836 49.9583C39.7516 50.1515 40.1313 50.1272 40.3719 49.8897L40.372 49.8896L43.3912 46.9084C43.3913 46.9083 43.3914 46.9082 43.3916 46.9081C43.5708 46.7303 43.6316 46.4728 43.5555 46.2405L43.5405 46.1947L43.5315 46.1474L41.1856 33.8288L41.1396 33.587L41.2458 33.3649L42.7277 30.2662L42.7507 30.218L42.7804 30.1736C42.8212 30.1123 42.8486 30.0432 42.8608 29.9706C42.8608 29.9706 42.8608 29.9706 42.8608 29.9706L41.0762 28.7188ZM41.0762 28.7188C41.158 28.7187 41.2387 28.7379 41.3117 28.7748M41.0762 28.7188L41.3117 28.7748M41.3117 28.7748C41.3118 28.7748 41.3119 28.7749 41.312 28.775L41.3117 28.7748Z" stroke="white" stroke-width="1.5"/>
</svg>
