<svg width="80" height="80" viewBox="0 0 80 80" fill="none" xmlns="http://www.w3.org/2000/svg">
<circle cx="40" cy="40" r="40" fill="#533CBF"/>
<g clip-path="url(#clip0_1165_19628)">
<path d="M55.1558 47.923C54.9446 44.8271 53.8573 41.8552 52.0208 39.354C52.2862 38.5948 52.3038 37.7709 52.0711 37.001C51.8385 36.2311 51.3675 35.5549 50.7261 35.0697C50.0847 34.5844 49.3058 34.3153 48.5017 34.3008C47.6975 34.2864 46.9096 34.5275 46.2511 34.9894C45.5927 35.4514 45.0979 36.1103 44.8378 36.8713C44.5777 37.6324 44.5658 38.4564 44.8037 39.2246C45.0417 39.9929 45.5173 40.6658 46.1621 41.1466C46.8069 41.6274 47.5876 41.8912 48.3918 41.9C48.6319 41.9229 48.8737 41.9229 49.1138 41.9C50.3294 43.5808 51.1005 45.5415 51.3558 47.6H43.7558V45.7C43.7558 44.2252 43.4124 42.7706 42.7528 41.4515C42.0933 40.1323 41.1357 38.9849 39.9558 38.1C41.5509 36.9037 42.7292 35.2358 43.3237 33.3326C43.9182 31.4294 43.8988 29.3874 43.2683 27.4958C42.6378 25.6043 41.4281 23.959 39.8105 22.7932C38.193 21.6274 36.2497 21 34.2558 21C32.2619 21 30.3186 21.6274 28.701 22.7932C27.0835 23.959 25.8738 25.6043 25.2433 27.4958C24.6128 29.3874 24.5934 31.4294 25.1879 33.3326C25.7824 35.2358 26.9607 36.9037 28.5558 38.1C27.3759 38.9849 26.4183 40.1323 25.7587 41.4515C25.0992 42.7706 24.7558 44.2252 24.7558 45.7V47.942C23.4992 48.398 22.4428 49.2811 21.7713 50.4369C21.0998 51.5928 20.856 52.9479 21.0823 54.2654C21.3087 55.5829 21.9909 56.7789 23.0097 57.6443C24.0285 58.5098 25.3191 58.9896 26.6558 59H53.2558C54.6019 59.002 55.9053 58.5275 56.9351 57.6606C57.9649 56.7938 58.6547 55.5904 58.8822 54.2636C59.1098 52.9369 58.8605 51.5724 58.1784 50.4119C57.4964 49.2514 56.4256 48.3697 55.1558 47.923ZM28.5558 30.5C28.5558 29.3726 28.8901 28.2706 29.5164 27.3332C30.1427 26.3959 31.033 25.6653 32.0745 25.2339C33.116 24.8025 34.2621 24.6896 35.3678 24.9095C36.4735 25.1295 37.4891 25.6723 38.2863 26.4695C39.0835 27.2667 39.6263 28.2823 39.8463 29.388C40.0662 30.4937 39.9533 31.6398 39.5219 32.6813C39.0905 33.7228 38.3599 34.6131 37.4225 35.2394C36.4852 35.8657 35.3831 36.2 34.2558 36.2C32.7441 36.2 31.2942 35.5995 30.2253 34.5305C29.1563 33.4616 28.5558 32.0117 28.5558 30.5ZM34.2558 40C35.7675 40 37.2173 40.6005 38.2863 41.6695C39.3553 42.7384 39.9558 44.1883 39.9558 45.7V47.6H28.5558V45.7C28.5558 44.1883 29.1563 42.7384 30.2253 41.6695C31.2942 40.6005 32.7441 40 34.2558 40ZM53.2558 55.2H26.6558C26.1519 55.2 25.6686 54.9998 25.3123 54.6435C24.956 54.2872 24.7558 53.8039 24.7558 53.3C24.7558 52.7961 24.956 52.3128 25.3123 51.9565C25.6686 51.6002 26.1519 51.4 26.6558 51.4H53.2558C53.7597 51.4 54.243 51.6002 54.5993 51.9565C54.9556 52.3128 55.1558 52.7961 55.1558 53.3C55.1558 53.8039 54.9556 54.2872 54.5993 54.6435C54.243 54.9998 53.7597 55.2 53.2558 55.2Z" fill="white" stroke="#533CBF" stroke-width="2"/>
</g>
<defs>
<clipPath id="clip0_1165_19628">
<rect width="40" height="40" fill="white" transform="translate(20 20)"/>
</clipPath>
</defs>
</svg>
