<svg width="21" height="21" viewBox="0 0 21 21" fill="none" xmlns="http://www.w3.org/2000/svg">
<path d="M16.7381 6.2123C16.93 6.06994 17.2025 6.11705 17.3304 6.29218C17.4743 6.48271 17.4264 6.75313 17.2344 6.88009L10.4468 11.774C10.2869 11.8852 10.0949 11.8693 9.95045 11.774L3.14735 6.88013C2.9554 6.75313 2.92341 6.48276 3.05139 6.29222C3.19588 6.11709 3.45176 6.06998 3.64367 6.21234L10.1909 10.9157L16.7381 6.2123ZM2.93945 3.28906H17.4423C17.9226 3.28906 18.355 3.4796 18.659 3.79709C18.9634 4.09925 19.1553 4.52846 19.1553 4.98937V15.715C19.1553 16.1753 18.9633 16.6045 18.659 16.9225C18.339 17.2242 17.9226 17.4147 17.4423 17.4147H2.93945C2.47503 17.4147 2.04324 17.2242 1.73887 16.9225C1.41898 16.6045 1.22656 16.1913 1.22656 15.715V4.98933C1.22656 4.52842 1.41898 4.09921 1.73887 3.79704C2.04324 3.47956 2.47507 3.28906 2.93945 3.28906ZM17.4423 4.131H2.93945C2.69952 4.131 2.49107 4.22625 2.33114 4.38499C2.17122 4.54374 2.07522 4.7507 2.07522 4.98933V15.7149C2.07522 15.9531 2.17122 16.1753 2.33114 16.3187C2.49107 16.4775 2.69952 16.5727 2.93945 16.5727H17.4423C17.6828 16.5727 17.9067 16.4776 18.0667 16.3187C18.2106 16.1753 18.3071 15.9531 18.3071 15.7149V4.98933C18.3071 4.7507 18.2106 4.54374 18.0667 4.38499C17.9067 4.22625 17.6828 4.131 17.4423 4.131ZM9.95045 11.774C9.90303 11.7423 9.87104 11.7105 9.85449 11.6788L9.95045 11.774Z" fill="#5039BF"/>
<path d="M9.95045 11.774C10.0949 11.8693 10.2869 11.8852 10.4468 11.774L17.2344 6.88009C17.4264 6.75313 17.4743 6.48271 17.3304 6.29218C17.2025 6.11705 16.93 6.06994 16.7381 6.2123L10.1909 10.9157L3.64367 6.21234C3.45176 6.06998 3.19588 6.11709 3.05139 6.29222C2.92341 6.48276 2.9554 6.75313 3.14735 6.88013L9.95045 11.774ZM9.95045 11.774C9.90303 11.7423 9.87104 11.7105 9.85449 11.6788M2.93945 3.28906H17.4423C17.9226 3.28906 18.355 3.4796 18.659 3.79709C18.9634 4.09925 19.1553 4.52846 19.1553 4.98937V15.715C19.1553 16.1753 18.9633 16.6045 18.659 16.9225C18.339 17.2242 17.9226 17.4147 17.4423 17.4147H2.93945C2.47503 17.4147 2.04324 17.2242 1.73887 16.9225C1.41898 16.6045 1.22656 16.1913 1.22656 15.715V4.98933C1.22656 4.52842 1.41898 4.09921 1.73887 3.79704C2.04324 3.47956 2.47507 3.28906 2.93945 3.28906ZM17.4423 4.131H2.93945C2.69952 4.131 2.49107 4.22625 2.33114 4.38499C2.17122 4.54374 2.07522 4.7507 2.07522 4.98933V15.7149C2.07522 15.9531 2.17122 16.1753 2.33114 16.3187C2.49107 16.4775 2.69952 16.5727 2.93945 16.5727H17.4423C17.6828 16.5727 17.9067 16.4776 18.0667 16.3187C18.2106 16.1753 18.3071 15.9531 18.3071 15.7149V4.98933C18.3071 4.7507 18.2106 4.54374 18.0667 4.38499C17.9067 4.22625 17.6828 4.131 17.4423 4.131Z" stroke="#5039BF" stroke-width="0.4"/>
</svg>
