<svg width="80" height="80" viewBox="0 0 80 80" fill="none" xmlns="http://www.w3.org/2000/svg">
<circle cx="40" cy="40" r="40" fill="#533CBF"/>
<g clip-path="url(#clip0_1165_19619)">
<path d="M29.3333 58.5V54.3333H37.6667V47.875C35.9653 47.4931 34.4458 46.7722 33.1083 45.7125C31.7708 44.6528 30.7903 43.325 30.1667 41.7292C27.5625 41.4167 25.3833 40.2799 23.6292 38.3187C21.875 36.3576 20.9986 34.0569 21 31.4167V29.3333C21 28.1875 21.4083 27.2062 22.225 26.3896C23.0417 25.5729 24.0222 25.1653 25.1667 25.1667H29.3333V21H50.1667V25.1667H54.3333C55.4792 25.1667 56.4604 25.575 57.2771 26.3917C58.0938 27.2083 58.5014 28.1889 58.5 29.3333V31.4167C58.5 34.0556 57.6229 36.3562 55.8687 38.3187C54.1146 40.2812 51.9361 41.4181 49.3333 41.7292C48.7083 43.3264 47.7271 44.6549 46.3896 45.7146C45.0521 46.7743 43.5333 47.4944 41.8333 47.875V54.3333H50.1667V58.5H29.3333ZM29.3333 37.25V29.3333H25.1667V31.4167C25.1667 32.7361 25.5486 33.9257 26.3125 34.9854C27.0764 36.0451 28.0833 36.8 29.3333 37.25ZM39.75 43.9167C41.4861 43.9167 42.9618 43.309 44.1771 42.0938C45.3924 40.8785 46 39.4028 46 37.6667V25.1667H33.5V37.6667C33.5 39.4028 34.1076 40.8785 35.3229 42.0938C36.5382 43.309 38.0139 43.9167 39.75 43.9167ZM50.1667 37.25C51.4167 36.7986 52.4236 36.0431 53.1875 34.9833C53.9514 33.9236 54.3333 32.7347 54.3333 31.4167V29.3333H50.1667V37.25Z" fill="white" stroke="#533CBF" stroke-width="2"/>
</g>
<defs>
<clipPath id="clip0_1165_19619">
<rect width="40" height="40" fill="white" transform="translate(20 20)"/>
</clipPath>
</defs>
</svg>
