<svg width="80" height="80" viewBox="0 0 80 80" fill="none" xmlns="http://www.w3.org/2000/svg">
<circle cx="40" cy="40" r="40" fill="#533CBF"/>
<path d="M48.4836 38.8146L50.9276 35.388L51.3391 37.0173C51.3517 37.0719 51.4609 37.0971 51.5827 37.0635L53.4513 36.5848C53.5689 36.5554 53.6571 36.484 53.6403 36.4252L52.3637 31.3904V31.3862C52.3553 31.2644 52.2965 31.1678 52.2377 31.172L47.0181 31.5919C46.9593 31.5961 46.9215 31.7011 46.9299 31.8229L47.0895 33.7461C47.0979 33.8679 47.1567 33.9645 47.2155 33.9603L49.1345 33.8049L46.636 37.3071L44.2424 35.5686C44.1962 35.535 44.0997 35.5854 44.0283 35.6904L43.5706 36.3286C43.5706 36.3286 43.5664 36.3286 43.5622 36.3328L43.1716 36.8787L42.8987 37.2567C42.8945 37.2651 42.8903 37.2693 42.8861 37.2777L40.5177 40.5951C40.4841 40.6412 40.5387 40.7378 40.6395 40.8092L42.2142 41.9262C42.315 41.9976 42.4242 42.0144 42.4578 41.9682L44.6917 38.8356L47.0895 40.5741C47.1357 40.6077 47.2323 40.5531 47.3079 40.4565L48.4374 38.8902C48.4584 38.865 48.4752 38.8398 48.4836 38.8146Z" fill="white" stroke="#533CBF"/>
<path d="M23.7734 23V29.198H26.4441V25.5531H55.7421V50.4671H47.3688V53.016H58.417V23H23.7734Z" fill="white" stroke="#533CBF"/>
<path d="M36.8814 43.1439C38.0992 41.8422 38.8467 40.0911 38.8467 38.1721C38.8467 34.1576 35.5797 30.8906 31.5652 30.8906C27.5508 30.8906 24.2838 34.1576 24.2838 38.1721C24.2838 40.0995 25.0354 41.8506 26.2616 43.1565C25.4806 43.6101 24.7583 44.1686 24.1032 44.8236C22.1044 46.8225 21 49.4806 21 52.3066C21 54.0199 21.4241 55.2377 22.2892 56.0229C23.6791 57.2827 25.7535 57.0644 28.1471 56.8208C29.2473 56.7116 30.3811 56.5898 31.582 56.5898C32.7788 56.5898 33.9168 56.7032 35.017 56.8208C35.9534 56.9174 36.8395 57.0056 37.6541 57.0056C38.9265 57.0056 40.0267 56.7872 40.8707 56.0188C41.7399 55.2377 42.1599 54.0199 42.1599 52.3024C42.1599 49.4764 41.0555 46.8225 39.0608 44.8194C38.4058 44.1602 37.6709 43.6017 36.8814 43.1439ZM31.5652 33.2674C34.2695 33.2674 36.4699 35.4678 36.4699 38.1721C36.4699 40.8764 34.2695 43.0768 31.5652 43.0768C28.8609 43.0768 26.6605 40.8764 26.6605 38.1721C26.6605 35.4678 28.8609 33.2674 31.5652 33.2674ZM39.2834 54.2551C38.6745 54.8052 37.0158 54.633 35.2605 54.4566C34.1562 54.3475 32.9048 54.2173 31.5862 54.2173C30.2677 54.2173 29.0163 54.3475 27.9119 54.4566C26.1566 54.633 24.4979 54.8052 23.8891 54.2551C23.5531 53.9527 23.3852 53.2977 23.3852 52.3024C23.3852 48.9011 25.468 45.9784 28.42 44.7354C29.3732 45.1974 30.444 45.4535 31.5694 45.4535C32.7998 45.4535 33.9546 45.147 34.975 44.6053C34.933 44.6599 34.891 44.7187 34.8406 44.769C37.7507 46.033 39.7915 48.9347 39.7915 52.2982C39.7873 53.2935 39.6193 53.9527 39.2834 54.2551Z" fill="white" stroke="#533CBF"/>
</svg>
