<svg width="40" height="40" viewBox="0 0 40 40" fill="none" xmlns="http://www.w3.org/2000/svg">
<g clip-path="url(#clip0_1176_17922)">
<path d="M20 3C16.6377 3 13.3509 3.99703 10.5553 5.86502C7.75968 7.733 5.58074 10.388 4.29406 13.4944C3.00737 16.6007 2.67071 20.0189 3.32666 23.3165C3.98261 26.6142 5.6017 29.6433 7.97919 32.0208C10.3567 34.3983 13.3858 36.0174 16.6835 36.6733C19.9811 37.3293 23.3993 36.9926 26.5056 35.7059C29.612 34.4193 32.267 32.2403 34.135 29.4447C36.003 26.6491 37 23.3623 37 20C37 15.4913 35.2089 11.1673 32.0208 7.97918C28.8327 4.79107 24.5087 3 20 3ZM28.5238 18.2796C27.8613 19.3418 26.8277 20.1198 25.6236 20.4624C25.3611 20.5481 25.0871 20.5939 24.811 20.5984C24.5559 20.5969 24.3117 20.4945 24.1319 20.3136C23.952 20.1327 23.8511 19.8879 23.8511 19.6328C23.8511 19.3777 23.952 19.1329 24.1319 18.952C24.3117 18.7711 24.5559 18.6687 24.811 18.6672C24.8845 18.6689 24.9575 18.655 25.0252 18.6264C25.7985 18.4342 26.4652 17.9457 26.8816 17.2664C27.1238 16.8704 27.251 16.4148 27.2488 15.9506C27.2488 14.424 25.8378 13.166 24.1174 13.166C23.5221 13.1673 22.9369 13.3206 22.4174 13.6114C21.9892 13.8369 21.6289 14.1725 21.3737 14.5837C21.1185 14.995 20.9776 15.4668 20.9656 15.9506V24.0596C20.9572 24.881 20.7288 25.6851 20.3043 26.3882C19.8797 27.0914 19.2745 27.668 18.5516 28.058C17.7434 28.5124 16.8302 28.7469 15.903 28.738C13.1014 28.738 10.803 26.63 10.803 24.0222C10.808 23.2041 11.0347 22.4027 11.4592 21.7034C12.1217 20.6412 13.1554 19.8632 14.3594 19.5206C14.6223 19.4362 14.896 19.3904 15.172 19.3846C15.2993 19.3839 15.4255 19.4083 15.5433 19.4565C15.6611 19.5047 15.7682 19.5757 15.8585 19.6654C15.9487 19.7552 16.0204 19.8619 16.0692 19.9794C16.1181 20.0969 16.1433 20.2229 16.1433 20.3502C16.1433 20.4775 16.1181 20.6035 16.0692 20.721C16.0204 20.8386 15.9487 20.9453 15.8585 21.035C15.7682 21.1247 15.6611 21.1957 15.5433 21.2439C15.4255 21.2921 15.2993 21.3165 15.172 21.3158C15.0985 21.3141 15.0255 21.328 14.9578 21.3566C14.1912 21.5628 13.5292 22.0478 13.1014 22.7166C12.8592 23.1126 12.732 23.5682 12.7342 24.0324C12.7342 25.559 14.1452 26.817 15.886 26.817C16.4814 26.8157 17.0665 26.6624 17.586 26.3716C18.0136 26.1457 18.3732 25.8098 18.6278 25.3986C18.8824 24.9875 19.0227 24.5158 19.0344 24.0324V15.9608C19.0436 15.1388 19.2727 14.3342 19.6977 13.6305C20.1228 12.9268 20.7285 12.3497 21.4518 11.959C22.2454 11.4835 23.1549 11.2364 24.08 11.245C26.8816 11.245 29.18 13.353 29.18 15.9608C29.175 16.7789 28.9483 17.5803 28.5238 18.2796V18.2796Z" fill="#333333"/>
</g>
<defs>
<clipPath id="clip0_1176_17922">
<rect width="40" height="40" fill="white"/>
</clipPath>
</defs>
</svg>
