<svg width="44" height="44" viewBox="0 0 44 44" fill="none" xmlns="http://www.w3.org/2000/svg">
<path d="M36.5355 13.1833C36.9445 12.8799 37.5252 12.9803 37.7978 13.3535C38.1045 13.7596 38.0024 14.3359 37.5933 14.6065L23.1272 25.0367C22.7864 25.2736 22.3773 25.2398 22.0693 25.0367L7.57024 14.6066C7.16114 14.3359 7.09298 13.7597 7.36574 13.3536C7.67368 12.9804 8.21901 12.88 8.62801 13.1834L22.5819 23.2074L36.5355 13.1833ZM7.12715 6.95312H38.0364C39.0601 6.95312 39.9815 7.3592 40.6294 8.03585C41.2782 8.67984 41.6871 9.59459 41.6871 10.5769V33.4359C41.6871 34.417 41.2781 35.3317 40.6294 36.0095C39.9476 36.6525 39.0601 37.0584 38.0364 37.0584H7.12715C6.13736 37.0584 5.21711 36.6524 4.56842 36.0095C3.88666 35.3317 3.47656 34.4509 3.47656 33.4359V10.5768C3.47656 9.5945 3.88666 8.67975 4.56842 8.03576C5.21711 7.35911 6.13745 6.95312 7.12715 6.95312ZM38.0364 8.74751H7.12715C6.61581 8.74751 6.17153 8.9505 5.8307 9.28883C5.48986 9.62715 5.28527 10.0682 5.28527 10.5768V33.4358C5.28527 33.9433 5.48986 34.4169 5.8307 34.7226C6.17153 35.061 6.61581 35.2639 7.12715 35.2639H38.0364C38.5488 35.2639 39.0261 35.0611 39.367 34.7226C39.6737 34.417 39.8794 33.9433 39.8794 33.4358V10.5768C39.8794 10.0682 39.6737 9.62715 39.367 9.28883C39.0261 8.9505 38.5488 8.74751 38.0364 8.74751ZM22.0693 25.0367C21.9683 24.9691 21.9001 24.9014 21.8648 24.8337Z" fill="white"/>
</svg>
