<svg width="40" height="41" viewBox="0 0 40 41" fill="none" xmlns="http://www.w3.org/2000/svg">
<g clip-path="url(#clip0_1191_78159)">
<path d="M20 2.90161C16.4399 2.90161 12.9598 3.95729 9.99974 5.93516C7.03966 7.91302 4.73255 10.7242 3.37018 14.0133C2.0078 17.3024 1.65134 20.9216 2.34587 24.4132C3.04041 27.9049 4.75474 31.1122 7.27209 33.6295C9.78943 36.1469 12.9967 37.8612 16.4884 38.5557C19.98 39.2503 23.5992 38.8938 26.8883 37.5314C30.1774 36.1691 32.9886 33.862 34.9665 30.9019C36.9443 27.9418 38 24.4617 38 20.9016C38 16.1277 36.1036 11.5493 32.7279 8.17369C29.3523 4.79803 24.7739 2.90161 20 2.90161ZM29.0252 19.08C28.3238 20.2047 27.2293 21.0284 25.9544 21.3912C25.6764 21.4819 25.3864 21.5304 25.094 21.5352C24.8239 21.5336 24.5654 21.4252 24.3749 21.2336C24.1845 21.0421 24.0776 20.7829 24.0776 20.5128C24.0776 20.2427 24.1845 19.9835 24.3749 19.792C24.5654 19.6004 24.8239 19.492 25.094 19.4904C25.1718 19.4922 25.2491 19.4775 25.3208 19.4472C26.1396 19.2437 26.8455 18.7265 27.2864 18.0072C27.5429 17.5879 27.6775 17.1055 27.6752 16.614C27.6752 14.9976 26.1812 13.6656 24.3596 13.6656C23.7293 13.6669 23.1097 13.8293 22.5596 14.1372C22.1062 14.376 21.7247 14.7314 21.4545 15.1668C21.1843 15.6021 21.0351 16.1018 21.0224 16.614V25.2C21.0135 26.0697 20.7717 26.9211 20.3222 27.6656C19.8727 28.4102 19.2319 29.0207 18.4664 29.4336C17.6107 29.9148 16.6437 30.163 15.662 30.1536C12.6956 30.1536 10.262 27.9216 10.262 25.1604C10.2673 24.2942 10.5074 23.4457 10.9568 22.7052C11.6582 21.5805 12.7527 20.7568 14.0276 20.394C14.3059 20.3046 14.5957 20.2561 14.888 20.25C15.0228 20.2492 15.1564 20.2751 15.2811 20.3261C15.4058 20.3771 15.5193 20.4523 15.6148 20.5473C15.7104 20.6424 15.7863 20.7553 15.838 20.8798C15.8898 21.0042 15.9164 21.1376 15.9164 21.2724C15.9164 21.4072 15.8898 21.5406 15.838 21.6651C15.7863 21.7895 15.7104 21.9025 15.6148 21.9975C15.5193 22.0925 15.4058 22.1677 15.2811 22.2187C15.1564 22.2697 15.0228 22.2956 14.888 22.2948C14.8102 22.293 14.7329 22.3078 14.6612 22.338C13.8495 22.5563 13.1485 23.0699 12.6956 23.778C12.4391 24.1973 12.3045 24.6797 12.3068 25.1712C12.3068 26.7876 13.8008 28.1196 15.644 28.1196C16.2744 28.1183 16.894 27.956 17.444 27.648C17.8967 27.4088 18.2775 27.0532 18.5471 26.6178C18.8166 26.1825 18.9652 25.6831 18.9776 25.1712V16.6249C18.9874 15.7544 19.2299 14.9025 19.68 14.1574C20.1301 13.4124 20.7713 12.8013 21.5372 12.3876C22.3775 11.8841 23.3405 11.6225 24.32 11.6316C27.2864 11.6316 29.72 13.8636 29.72 16.6249C29.7148 17.491 29.4746 18.3396 29.0252 19.0801V19.08Z" fill="#00B240"/>
</g>
<defs>
<clipPath id="clip0_1191_78159">
<rect width="40" height="40" fill="white" transform="translate(0 0.901611)"/>
</clipPath>
</defs>
</svg>
