<svg width="40" height="41" viewBox="0 0 40 41" fill="none" xmlns="http://www.w3.org/2000/svg">
<path fill-rule="evenodd" clip-rule="evenodd" d="M34.1396 6.34807C34.9628 6.40635 36.4791 6.80464 37.3863 8.83397C38.6368 11.6317 37.6971 17.1067 37.0251 20.1211C36.0108 24.6722 34.3769 29.2059 32.8628 31.6705C31.8548 33.3093 30.8489 34.1457 29.696 34.3011C29.51 34.3263 29.3222 34.3389 29.1342 34.339C25.7249 34.339 22.4793 30.2201 20.5 27.0824C18.5207 30.2201 15.2741 34.339 11.8658 34.339C11.6781 34.3389 11.4907 34.3263 11.3051 34.3011C10.15 34.1457 9.14414 33.3102 8.13718 31.6705C6.62306 29.2059 4.98924 24.6722 3.97493 20.1201C3.30293 17.1067 2.36317 11.6327 3.61373 8.83397C4.52094 6.80464 6.03715 6.40538 6.86036 6.34807C9.91904 6.13824 13.5563 9.61694 19.0027 17.982C19.5539 18.8271 20.0621 19.614 20.5 20.294C20.941 19.6101 21.4492 18.8232 21.9973 17.982C27.4427 9.61889 31.0631 6.13629 34.1386 6.34807H34.1396ZM6.98636 10.0347L6.94436 10.1085L6.89291 10.2348C6.22511 12.0076 6.71336 16.7259 8.10463 21.8444C9.44234 26.7637 10.8914 29.5401 11.6463 30.5941C11.7364 30.7224 11.8753 30.8149 12.0354 30.8532C12.1956 30.8915 12.3655 30.8729 12.5115 30.801C13.1772 30.4717 14.3375 29.6091 16.0133 27.3534C17.0633 25.94 17.9327 24.4896 18.4336 23.6085C17.5988 22.3039 16.7588 21.0022 15.9136 19.7034C11.178 12.4292 8.67268 10.431 7.66467 9.88215C7.55232 9.82116 7.41874 9.80298 7.29217 9.83144C7.16559 9.8599 7.05593 9.93277 6.98636 10.0347ZM34.0504 10.1007C34.0251 10.0388 33.9854 9.98276 33.9339 9.9367C33.8825 9.89065 33.8207 9.85569 33.753 9.83433C33.6852 9.81298 33.6132 9.80575 33.5421 9.81318C33.471 9.82061 33.4025 9.8425 33.3416 9.87729C32.342 10.4193 29.8346 12.4069 25.0854 19.7034C24.238 21.0048 23.3959 22.3091 22.5591 23.6163C24.5856 27.2689 26.9156 29.9277 28.3331 30.7427C28.5058 30.844 28.7148 30.8782 28.9146 30.838C29.1144 30.7978 29.2892 30.6865 29.4009 30.528C30.1643 29.4303 31.5818 26.6666 32.8933 21.8444C34.3202 16.5986 34.7969 11.7716 34.0535 10.1095L34.0504 10.1007Z" fill="#F09742"/>
</svg>
