<svg width="40" height="40" viewBox="0 0 40 40" fill="none" xmlns="http://www.w3.org/2000/svg">
<g clip-path="url(#clip0_1176_17911)">
<path d="M25.9362 15.4081C25.9362 18.3797 25.9362 21.3512 25.9764 24.3227C25.9764 24.7206 25.9965 25.1184 25.9563 25.5163C25.8558 26.9734 25.3512 28.3746 24.5842 29.6428C23.9046 30.75 22.9971 31.7039 21.9203 32.4428C20.527 33.4089 18.792 33.9584 17.0559 33.9957C16.1684 34.0144 15.2796 33.977 14.4323 33.788C13.2228 33.5446 12.0715 33.0753 11.0404 32.4055C11.0215 32.3868 10.9813 32.3682 10.9813 32.3495C9.90265 31.6428 8.99315 30.7124 8.31628 29.623C7.40632 28.1982 6.94942 26.537 7.00445 24.8536C7.05296 23.306 7.52773 21.8007 8.37773 20.4995C9.16589 19.287 10.2391 18.2804 11.506 17.5653C13.3848 16.4918 15.5697 16.0596 17.7225 16.3356V17.4708C17.7426 17.9445 17.7225 18.417 17.7426 18.8708V21.2754C17.0961 21.0677 16.3894 21.0677 15.724 21.2194C14.9369 21.3897 14.1699 21.7105 13.5435 22.2029C13.1606 22.5062 12.838 22.8656 12.6158 23.2821C12.2381 23.9912 12.0833 24.7956 12.1714 25.5921C12.273 26.3481 12.6158 27.0866 13.1405 27.6735C13.5033 28.0701 13.9477 28.412 14.4323 28.6768C15.7441 29.3581 17.4388 29.3021 18.7105 28.545C19.9419 27.8251 20.729 26.5196 20.729 25.1756V12.9838C20.7491 10.6562 20.729 8.3287 20.7491 6H25.8759C25.8558 6.41651 25.9161 6.81434 25.9965 7.23085H26.0166C26.1584 7.91219 26.4207 8.55503 26.7635 9.17921C27.2882 10.1266 28.0552 10.9782 29.0243 11.5277C29.0846 11.5651 29.1248 11.6211 29.185 11.6596C29.9119 12.0761 30.699 12.3981 31.5263 12.5498C32.0108 12.6431 32.5154 12.6816 33 12.7014V17.4895C30.488 17.5056 28.0283 16.7808 25.9362 15.4081Z" fill="#333333"/>
</g>
<defs>
<clipPath id="clip0_1176_17911">
<rect width="40" height="40" fill="white"/>
</clipPath>
</defs>
</svg>
