<svg width="44" height="44" viewBox="0 0 44 44" fill="none" xmlns="http://www.w3.org/2000/svg">
<path d="M30.3888 26.0866C29.953 25.6518 29.3626 25.4077 28.747 25.4077C28.1314 25.4077 27.541 25.6518 27.1052 26.0866L25.4634 27.7284C24.5346 28.6571 21.5273 27.7327 18.8963 25.1015C16.2654 22.4703 15.3393 19.4644 16.2695 18.5345L16.2715 18.5325L17.9113 16.8927C18.346 16.4569 18.5902 15.8664 18.5902 15.2509C18.5902 14.6353 18.346 14.0449 17.9113 13.6091L10.6872 6.38526C10.2514 5.95054 9.66103 5.7064 9.0455 5.7064C8.42997 5.7064 7.83957 5.95054 7.40381 6.38526L5.76198 8.02708C4.54882 9.24024 3.8099 10.8359 3.56523 12.77C3.33827 14.5639 3.54753 16.5758 4.18691 18.7487C5.46943 23.1137 8.36186 27.7028 12.329 31.6688C16.2962 35.6348 20.8844 38.5284 25.248 39.8109C26.8556 40.2837 28.3744 40.5214 29.782 40.5214C30.2653 40.5222 30.7483 40.4925 31.2279 40.4326C33.162 40.1879 34.7577 39.449 35.9708 38.2358L37.6127 36.594C38.0474 36.1582 38.2915 35.5678 38.2915 34.9523C38.2915 34.3368 38.0474 33.7464 37.6127 33.3106L30.3888 26.0866ZM36.2991 35.2807L34.6575 36.9225C32.8039 38.7759 29.6485 39.1689 25.7722 38.0289C21.7014 36.8317 17.3938 34.1064 13.6426 30.3552C9.89137 26.604 7.16612 22.2965 5.96892 18.2257C4.82889 14.3497 5.22187 11.1941 7.07527 9.34037L8.7171 7.69884C8.76022 7.6557 8.81142 7.62149 8.86777 7.59815C8.92411 7.5748 8.98451 7.56279 9.0455 7.56279C9.10649 7.56279 9.16688 7.5748 9.22323 7.59815C9.27957 7.62149 9.33077 7.6557 9.37389 7.69884L16.5977 14.9226C16.6408 14.9657 16.6751 15.0169 16.6984 15.0733C16.7217 15.1296 16.7338 15.19 16.7338 15.251C16.7338 15.312 16.7217 15.3724 16.6984 15.4287C16.6751 15.4851 16.6408 15.5363 16.5977 15.5794L14.9559 17.2209C13.9926 18.1833 13.799 19.7282 14.4129 21.5677C14.9539 23.1904 16.0797 24.9117 17.5828 26.4145C19.0859 27.9173 20.8075 29.0434 22.4296 29.5844C23.1354 29.8198 23.7974 29.9361 24.4 29.9361C25.3679 29.9361 26.1826 29.6352 26.7764 29.0414L28.4179 27.3996C28.461 27.3564 28.5122 27.3222 28.5686 27.2989C28.6249 27.2755 28.6853 27.2635 28.7463 27.2635C28.8073 27.2635 28.8677 27.2755 28.924 27.2989C28.9804 27.3222 29.0316 27.3564 29.0747 27.3996L36.2985 34.6233C36.3418 34.6664 36.3761 34.7176 36.3995 34.774C36.423 34.8304 36.4351 34.8908 36.4351 34.9519C36.4352 35.013 36.4232 35.0734 36.3999 35.1299C36.3765 35.1863 36.3423 35.2375 36.2991 35.2807ZM24.7407 9.96987C24.7407 9.84791 24.7647 9.72714 24.8114 9.61446C24.8581 9.50178 24.9265 9.3994 25.0127 9.31316C25.099 9.22692 25.2013 9.15851 25.314 9.11184C25.4267 9.06516 25.5475 9.04114 25.6694 9.04114C26.8891 9.04114 28.0967 9.28137 29.2235 9.7481C30.3503 10.2148 31.3742 10.8989 32.2366 11.7613C33.099 12.6237 33.7831 13.6476 34.2498 14.7744C34.7166 15.9011 34.9568 17.1088 34.9568 18.3285C34.9568 18.5748 34.8589 18.811 34.6848 18.9852C34.5106 19.1593 34.2744 19.2572 34.028 19.2572C33.7817 19.2572 33.5455 19.1593 33.3713 18.9852C33.1972 18.811 33.0993 18.5748 33.0993 18.3285C33.0993 14.2316 29.7663 10.8986 25.6694 10.8986C25.4231 10.8986 25.1869 10.8008 25.0127 10.6266C24.8385 10.4524 24.7407 10.2162 24.7407 9.96987ZM24.7407 15.5423C24.7407 15.4203 24.7647 15.2995 24.8114 15.1869C24.8581 15.0742 24.9265 14.9718 25.0127 14.8856C25.099 14.7993 25.2013 14.7309 25.314 14.6842C25.4267 14.6376 25.5475 14.6135 25.6694 14.6135C26.6544 14.6146 27.5986 15.0063 28.2951 15.7028C28.9915 16.3992 29.3833 17.3435 29.3844 18.3285C29.3844 18.5748 29.2865 18.811 29.1123 18.9852C28.9382 19.1593 28.7019 19.2572 28.4556 19.2572C28.2093 19.2572 27.9731 19.1593 27.7989 18.9852C27.6247 18.811 27.5269 18.5748 27.5269 18.3285C27.5264 17.836 27.3305 17.3639 26.9823 17.0156C26.634 16.6674 26.1619 16.4715 25.6694 16.471C25.4231 16.471 25.1869 16.3731 25.0127 16.199C24.8385 16.0248 24.7407 15.7886 24.7407 15.5423ZM40.5292 18.3285C40.5292 18.5748 40.4313 18.811 40.2572 18.9852C40.083 19.1593 39.8468 19.2572 39.6005 19.2572C39.3541 19.2572 39.1179 19.1593 38.9437 18.9852C38.7696 18.811 38.6717 18.5748 38.6717 18.3285C38.6717 11.1598 32.8381 5.32622 25.6694 5.32622C25.4231 5.32622 25.1869 5.22837 25.0127 5.0542C24.8385 4.88003 24.7407 4.6438 24.7407 4.39749C24.7407 4.15117 24.8385 3.91494 25.0127 3.74077C25.1869 3.5666 25.4231 3.46875 25.6694 3.46875C27.6213 3.46727 29.5542 3.85061 31.3578 4.59685C33.1613 5.34309 34.8 6.43759 36.1802 7.81774C37.5603 9.19789 38.6548 10.8366 39.4011 12.6401C40.1473 14.4437 40.5307 16.3766 40.5292 18.3285Z" fill="white"/>
</svg>
