<svg width="40" height="41" viewBox="0 0 40 41" fill="none" xmlns="http://www.w3.org/2000/svg">
<g clip-path="url(#clip0_1191_78043)">
<path d="M16.6822 16.9816V15.677C16.2251 15.6226 15.768 15.5864 15.2926 15.5864C9.62542 15.5861 5 20.153 5 25.7888C5 29.2319 6.73671 32.2945 9.38762 34.1428C7.66914 32.3127 6.62706 29.8842 6.62706 27.2024C6.64529 21.6392 11.1246 17.1089 16.6822 16.9818V16.9816Z" fill="#00FAF0"/>
<path d="M16.9201 31.8231C19.4431 31.8231 21.5091 29.8298 21.6005 27.3471V5.14823H25.6956C25.6042 4.69534 25.5675 4.22393 25.5675 3.73486H19.9732V25.9338C19.8817 28.4164 17.8158 30.4097 15.2928 30.4097C14.5067 30.4097 13.7571 30.2103 13.1172 29.866C13.9764 31.062 15.366 31.8231 16.9198 31.8231H16.9201ZM33.3542 12.6871V11.4548C31.8003 11.4548 30.3376 11.0019 29.1127 10.2044C30.2094 11.4366 31.6904 12.3247 33.3542 12.6871Z" fill="#00FAF0"/>
<path d="M29.1322 10.2048C27.944 8.84584 27.2126 7.08782 27.2126 5.14893H25.7135C26.1156 7.25103 27.3772 9.06318 29.1322 10.2048ZM15.2924 21.113C12.6961 21.113 10.5938 23.1969 10.5938 25.7701C10.5938 27.5643 11.6176 29.1044 13.1168 29.8838C12.5683 29.1227 12.2211 28.1804 12.2211 27.1655C12.2211 24.5923 14.3235 22.5084 16.9197 22.5084C17.395 22.5084 17.8704 22.5808 18.3092 22.7258V17.072C17.8521 17.0176 17.395 16.9814 16.9197 16.9814H16.6822V21.3306C16.2433 21.1856 15.7865 21.1133 15.2926 21.1133L15.2924 21.113Z" fill="#FF0050"/>
<path d="M33.3559 12.688V17.001C30.4492 17.001 27.7798 16.0767 25.586 14.5184V25.7718C25.586 31.3893 20.9788 35.9741 15.2931 35.9741C13.0992 35.9741 11.0698 35.2856 9.40625 34.1258C11.2893 36.1191 13.9585 37.3875 16.9383 37.3875C22.6058 37.3875 27.2313 32.8209 27.2313 27.1851V15.9317C29.4251 17.4901 32.1124 18.4144 35.0012 18.4144V12.8691C34.4344 12.8509 33.8859 12.7968 33.3556 12.688H33.3559Z" fill="#FF0050"/>
<path d="M25.5858 25.7712V14.5178C27.7796 16.0762 30.467 17.0005 33.3557 17.0005V12.6875C31.6737 12.3251 30.2113 11.437 29.1142 10.2048C27.359 9.08141 26.0976 7.26926 25.7137 5.14893H21.6186V27.3478C21.5272 29.8305 19.4612 31.8238 16.9385 31.8238C15.3661 31.8238 13.9769 31.0627 13.1358 29.8849C11.6367 29.1056 10.6128 27.5472 10.6128 25.7712C10.6128 23.198 12.7152 21.1141 15.3114 21.1141C15.7868 21.1141 16.2621 21.1865 16.701 21.3315V16.9823C11.1431 17.109 6.66406 21.6397 6.66406 27.1664C6.66406 29.8484 7.70614 32.2946 9.42462 34.107C11.0884 35.2669 13.1358 35.9554 15.3114 35.9554C20.9607 35.9736 25.5861 31.3885 25.5861 25.771L25.5858 25.7712Z" fill="#111111"/>
</g>
<defs>
<clipPath id="clip0_1191_78043">
<rect width="40" height="40" fill="white" transform="translate(0 0.562988)"/>
</clipPath>
</defs>
</svg>
