<svg width="64" height="64" viewBox="0 0 64 64" fill="none" xmlns="http://www.w3.org/2000/svg">
<mask id="path-1-inside-1_1157_11953" fill="white">
<path d="M5 42.4878L5.84858 43.9468L7.86457 42.7955L9.23824 45.154L12.7217 43.1498L14.9533 47L18.1695 45.1587C18.3369 45.4467 18.5598 45.6991 18.8254 45.9015C19.091 46.1038 19.394 46.2522 19.7173 46.3381C20.0405 46.4241 20.3776 46.4458 20.7093 46.4022C21.0411 46.3586 21.3609 46.2505 21.6506 46.084C21.9402 45.9175 22.1941 45.6959 22.3976 45.4318C22.6012 45.1678 22.7504 44.8665 22.8368 44.5451C22.9232 44.2237 22.9451 43.8886 22.9013 43.5588C22.8574 43.229 22.7486 42.911 22.5812 42.623L25.5114 40.9403C25.8616 41.4972 26.4155 41.8971 27.0564 42.056C27.6973 42.215 28.3752 42.1206 28.9475 41.7926C29.5197 41.4646 29.9417 40.9288 30.1246 40.2977C30.3074 39.6666 30.2368 38.9896 29.9278 38.4092L32.8486 36.7312C33.0157 37.0192 33.2383 37.2716 33.5036 37.4741C33.7689 37.6766 34.0717 37.8252 34.3947 37.9113C34.7178 37.9974 35.0547 38.0194 35.3863 37.9761C35.7179 37.9327 36.0376 37.825 36.3273 37.6588C36.617 37.4926 36.8709 37.2713 37.0746 37.0075C37.2782 36.7438 37.4276 36.4427 37.5143 36.1216C37.6009 35.8004 37.6231 35.4654 37.5795 35.1357C37.5359 34.806 37.4274 34.4881 37.2603 34.2L39.8717 32.6991L42.605 46.683C43.4596 46.3117 44.237 45.7854 44.8975 45.1308C45.8518 44.0877 46.4148 42.7491 46.4916 41.3412L46.4025 35.5239L51.3627 39.5838C53.1396 41.2945 56.623 42.2222 59 41.2479L41.0438 23.2601L42.3377 22.519L44.0302 17.4381L42.3893 17L40.875 21.4049L39.8014 22.0202C39.2924 21.4752 38.6115 21.1195 37.8715 21.0118C37.1314 20.9042 36.3765 21.0511 35.7319 21.4282L34.8927 21.8943L33.2002 18.967L7.31135 33.8319L9.32263 37.2999L5.83452 39.3042L7.01598 41.3318L5 42.4878ZM32.7454 29.7066L16.5567 38.9965L12.8389 32.6106L29.0276 23.3207L32.7454 29.7066ZM41.4329 31.7949L41.7001 31.641L44.6631 34.0695L44.785 41.2293C44.7335 42.1725 44.3822 43.075 43.7817 43.807L41.4329 31.7949ZM9.63206 34.4751L11.3808 33.4683L15.9378 41.3272L35.0662 30.3405L30.5091 22.491L32.5814 21.2977L34.2926 24.2203L36.6367 22.8871C36.9432 22.7103 37.3009 22.6416 37.6515 22.6924C38.0022 22.7432 38.3253 22.9104 38.5683 23.1669L55.0946 39.705C54.1529 39.4703 53.2836 39.0094 52.5629 38.3626L41.8923 29.6134L34.9583 33.5942L35.8116 35.0531C35.9113 35.2457 35.9327 35.469 35.8713 35.6768C35.8099 35.8847 35.6705 36.0612 35.4819 36.1696C35.2933 36.278 35.07 36.3102 34.8582 36.2594C34.6464 36.2086 34.4623 36.0788 34.3441 35.8968L33.4956 34.4378L27.6305 37.8032L28.4791 39.2669C28.5788 39.4595 28.6001 39.6828 28.5388 39.8906C28.4774 40.0985 28.338 40.275 28.1494 40.3834C27.9608 40.4918 27.7374 40.524 27.5256 40.4732C27.3138 40.4224 27.1298 40.2926 27.0116 40.1106L26.1537 38.6469L20.2745 42.017L21.1278 43.4761C21.1838 43.5718 21.2203 43.6777 21.2352 43.7875C21.2501 43.8973 21.2431 44.0089 21.2146 44.1161C21.1861 44.2232 21.1366 44.3237 21.069 44.4118C21.0014 44.5 20.9171 44.5739 20.8207 44.6296C20.7244 44.6854 20.6179 44.7217 20.5075 44.7365C20.397 44.7513 20.2847 44.7443 20.1769 44.7159C20.0692 44.6876 19.9681 44.6385 19.8795 44.5713C19.7908 44.5041 19.7164 44.4201 19.6604 44.3243L18.8071 42.8654L15.5909 44.7066L9.63206 34.4751ZM8.15524 39.9381L10.1759 38.7821L11.8684 41.7094L9.85241 42.8701L8.15524 39.9381Z"/>
</mask>
<path d="M5 42.4878L5.84858 43.9468L7.86457 42.7955L9.23824 45.154L12.7217 43.1498L14.9533 47L18.1695 45.1587C18.3369 45.4467 18.5598 45.6991 18.8254 45.9015C19.091 46.1038 19.394 46.2522 19.7173 46.3381C20.0405 46.4241 20.3776 46.4458 20.7093 46.4022C21.0411 46.3586 21.3609 46.2505 21.6506 46.084C21.9402 45.9175 22.1941 45.6959 22.3976 45.4318C22.6012 45.1678 22.7504 44.8665 22.8368 44.5451C22.9232 44.2237 22.9451 43.8886 22.9013 43.5588C22.8574 43.229 22.7486 42.911 22.5812 42.623L25.5114 40.9403C25.8616 41.4972 26.4155 41.8971 27.0564 42.056C27.6973 42.215 28.3752 42.1206 28.9475 41.7926C29.5197 41.4646 29.9417 40.9288 30.1246 40.2977C30.3074 39.6666 30.2368 38.9896 29.9278 38.4092L32.8486 36.7312C33.0157 37.0192 33.2383 37.2716 33.5036 37.4741C33.7689 37.6766 34.0717 37.8252 34.3947 37.9113C34.7178 37.9974 35.0547 38.0194 35.3863 37.9761C35.7179 37.9327 36.0376 37.825 36.3273 37.6588C36.617 37.4926 36.8709 37.2713 37.0746 37.0075C37.2782 36.7438 37.4276 36.4427 37.5143 36.1216C37.6009 35.8004 37.6231 35.4654 37.5795 35.1357C37.5359 34.806 37.4274 34.4881 37.2603 34.2L39.8717 32.6991L42.605 46.683C43.4596 46.3117 44.237 45.7854 44.8975 45.1308C45.8518 44.0877 46.4148 42.7491 46.4916 41.3412L46.4025 35.5239L51.3627 39.5838C53.1396 41.2945 56.623 42.2222 59 41.2479L41.0438 23.2601L42.3377 22.519L44.0302 17.4381L42.3893 17L40.875 21.4049L39.8014 22.0202C39.2924 21.4752 38.6115 21.1195 37.8715 21.0118C37.1314 20.9042 36.3765 21.0511 35.7319 21.4282L34.8927 21.8943L33.2002 18.967L7.31135 33.8319L9.32263 37.2999L5.83452 39.3042L7.01598 41.3318L5 42.4878ZM32.7454 29.7066L16.5567 38.9965L12.8389 32.6106L29.0276 23.3207L32.7454 29.7066ZM41.4329 31.7949L41.7001 31.641L44.6631 34.0695L44.785 41.2293C44.7335 42.1725 44.3822 43.075 43.7817 43.807L41.4329 31.7949ZM9.63206 34.4751L11.3808 33.4683L15.9378 41.3272L35.0662 30.3405L30.5091 22.491L32.5814 21.2977L34.2926 24.2203L36.6367 22.8871C36.9432 22.7103 37.3009 22.6416 37.6515 22.6924C38.0022 22.7432 38.3253 22.9104 38.5683 23.1669L55.0946 39.705C54.1529 39.4703 53.2836 39.0094 52.5629 38.3626L41.8923 29.6134L34.9583 33.5942L35.8116 35.0531C35.9113 35.2457 35.9327 35.469 35.8713 35.6768C35.8099 35.8847 35.6705 36.0612 35.4819 36.1696C35.2933 36.278 35.07 36.3102 34.8582 36.2594C34.6464 36.2086 34.4623 36.0788 34.3441 35.8968L33.4956 34.4378L27.6305 37.8032L28.4791 39.2669C28.5788 39.4595 28.6001 39.6828 28.5388 39.8906C28.4774 40.0985 28.338 40.275 28.1494 40.3834C27.9608 40.4918 27.7374 40.524 27.5256 40.4732C27.3138 40.4224 27.1298 40.2926 27.0116 40.1106L26.1537 38.6469L20.2745 42.017L21.1278 43.4761C21.1838 43.5718 21.2203 43.6777 21.2352 43.7875C21.2501 43.8973 21.2431 44.0089 21.2146 44.1161C21.1861 44.2232 21.1366 44.3237 21.069 44.4118C21.0014 44.5 20.9171 44.5739 20.8207 44.6296C20.7244 44.6854 20.6179 44.7217 20.5075 44.7365C20.397 44.7513 20.2847 44.7443 20.1769 44.7159C20.0692 44.6876 19.9681 44.6385 19.8795 44.5713C19.7908 44.5041 19.7164 44.4201 19.6604 44.3243L18.8071 42.8654L15.5909 44.7066L9.63206 34.4751ZM8.15524 39.9381L10.1759 38.7821L11.8684 41.7094L9.85241 42.8701L8.15524 39.9381Z" fill="white" stroke="white" stroke-width="0.54" mask="url(#path-1-inside-1_1157_11953)"/>
</svg>
