<svg width="300" height="100" viewBox="0 0 300 100" fill="none" xmlns="http://www.w3.org/2000/svg">
<g clip-path="url(#clip0_1160_55036)">
<path d="M149.433 35.7018L143.614 42.0466L149.919 48.7398V48.9044H146.871L141.388 43.0204V48.9044H138.93V35.625H141.388V41.2401L146.365 35.625H149.433V35.7018Z" fill="#191417"/>
<path d="M162.063 35.625V42.9656C162.063 46.8909 159.687 48.8989 156.393 48.8989C153.251 48.8989 150.574 46.9787 150.574 42.9656V35.625H153.033V42.9656C153.033 45.3548 154.382 46.6249 156.42 46.6249C158.458 46.6249 159.619 45.2533 159.619 42.9656V35.625H162.063Z" fill="#191417"/>
<path d="M173.083 35.625H175.541V48.9044H174.006L167.123 39.9564V48.9044H164.664V35.625H166.677L173.097 43.8543L173.083 35.625Z" fill="#191417"/>
<path d="M191.962 48.9044H189.866L188.227 44.7321L186.853 40.5379L185.488 44.765L183.887 48.9044H181.792L176.992 35.625H179.762L182.849 45.2012L186.031 35.625H187.64L190.918 45.2012L193.923 35.625H196.69L191.962 48.9044Z" fill="#191417"/>
<path d="M209.547 48.9044V35.625H212.005V48.9044H209.547Z" fill="#191417"/>
<path d="M202.628 35.625H198.438V38.2118H202.628V35.625Z" fill="#E7211C"/>
<path d="M202.628 40.9688H198.438V43.5555H202.628V40.9688Z" fill="#E7211C"/>
<path d="M202.628 46.3125H198.438V48.8993H202.628V46.3125Z" fill="#E7211C"/>
<path d="M207.452 35.625H203.262V38.2118H207.452V35.625Z" fill="#E7211C"/>
<path d="M207.452 40.9688H203.262V43.5555H207.452V40.9688Z" fill="#E7211C"/>
<path d="M207.452 46.3125H203.262V48.8993H207.452V46.3125Z" fill="#E7211C"/>
<path d="M111.411 31.2533L120.51 47.0783C120.618 47.2675 120.675 47.482 120.675 47.7001C120.675 47.9183 120.617 48.1325 120.508 48.3214C120.4 48.5103 120.244 48.6672 120.055 48.7764C119.867 48.8856 119.654 48.9433 119.437 48.9436H113.102C112.62 48.9448 112.146 48.8187 111.727 48.578C111.309 48.3373 110.96 47.9904 110.717 47.5721L101.818 32.0818C101.693 31.8721 101.627 31.6328 101.625 31.3886C101.623 31.1445 101.687 30.9043 101.808 30.693C101.93 30.4816 102.106 30.3067 102.317 30.1863C102.529 30.0658 102.768 30.0043 103.011 30.008H109.267C109.702 30.0081 110.129 30.1232 110.505 30.3419C110.882 30.5605 111.194 30.8749 111.411 31.2533Z" fill="#E7211C"/>
<path d="M123.114 31.2533L132.213 47.0783C132.322 47.2675 132.378 47.482 132.378 47.7001C132.378 47.9183 132.32 48.1325 132.212 48.3214C132.103 48.5103 131.947 48.6672 131.759 48.7764C131.57 48.8856 131.357 48.9433 131.14 48.9436H124.805C124.323 48.9448 123.849 48.8187 123.43 48.578C123.012 48.3373 122.664 47.9904 122.42 47.5721L113.521 32.0818C113.396 31.8721 113.33 31.6328 113.328 31.3886C113.327 31.1445 113.39 30.9043 113.511 30.693C113.633 30.4816 113.809 30.3067 114.02 30.1863C114.232 30.0658 114.471 30.0043 114.715 30.008H120.97C121.405 30.0081 121.832 30.1232 122.208 30.3419C122.585 30.5605 122.897 30.8749 123.114 31.2533Z" fill="#E7211C"/>
<path d="M113.104 51.0625H131.133C131.35 51.0629 131.563 51.1205 131.751 51.2297C131.939 51.3389 132.095 51.4958 132.204 51.6847C132.313 51.8736 132.37 52.0879 132.371 52.306C132.371 52.5242 132.314 52.7386 132.206 52.9278L129.037 58.436C128.794 58.8543 128.446 59.2012 128.028 59.4419C127.609 59.6826 127.135 59.8087 126.653 59.8075H109.34C109.05 59.8074 108.765 59.7307 108.514 59.5852C108.263 59.4396 108.054 59.2302 107.909 58.9782C107.764 58.7261 107.688 58.4401 107.688 58.149C107.687 57.8579 107.763 57.5718 107.908 57.3195L110.719 52.4313C110.963 52.0137 111.311 51.6675 111.729 51.4273C112.148 51.1872 112.622 51.0614 113.104 51.0625Z" fill="#E7211C"/>
<path d="M107.252 61.25H125.281C125.498 61.2504 125.712 61.308 125.9 61.4172C126.088 61.5264 126.244 61.6833 126.353 61.8722C126.461 62.0611 126.519 62.2753 126.519 62.4935C126.519 62.7117 126.463 62.9261 126.354 63.1153L123.186 68.6235C122.943 69.0418 122.595 69.3887 122.176 69.6294C121.757 69.8701 121.283 69.9962 120.801 69.995H103.488C103.198 69.9949 102.913 69.9182 102.662 69.7726C102.411 69.6271 102.203 69.4177 102.058 69.1657C101.913 68.9136 101.836 68.6276 101.836 68.3365C101.836 68.0453 101.912 67.7593 102.057 67.507L104.867 62.6216C105.111 62.2034 105.459 61.8567 105.877 61.616C106.296 61.3754 106.77 61.2491 107.252 61.25Z" fill="#E7211C"/>
<path d="M108.594 51.3857L99.694 66.865C99.5753 67.0774 99.4024 67.2542 99.1931 67.3773C98.9837 67.5003 98.7456 67.5652 98.503 67.5652C98.2605 67.5652 98.0223 67.5003 97.813 67.3773C97.6037 67.2542 97.4308 67.0774 97.312 66.865L94.1761 61.4117C93.9584 61.0371 93.8438 60.6111 93.8438 60.1773C93.8438 59.7436 93.9584 59.3176 94.1761 58.9429L103.341 43.0027C103.443 42.8238 103.591 42.6752 103.769 42.5718C103.947 42.4685 104.149 42.4141 104.354 42.4141C104.56 42.4141 104.762 42.4685 104.94 42.5718C105.117 42.6752 105.265 42.8238 105.368 43.0027L108.594 48.6288C108.834 49.048 108.961 49.5234 108.961 50.0072C108.961 50.4911 108.834 50.9665 108.594 51.3857Z" fill="#A91F24"/>
<path d="M102.758 41.2197L93.8582 56.699C93.7395 56.9114 93.5666 57.0882 93.3573 57.2113C93.1479 57.3343 92.9098 57.3992 92.6672 57.3992C92.4247 57.3992 92.1865 57.3343 91.9772 57.2113C91.7679 57.0882 91.5949 56.9114 91.4762 56.699L88.3294 51.232C88.1136 50.8567 88 50.431 88 49.9976C88 49.5643 88.1136 49.1385 88.3294 48.7632L97.494 32.8203C97.5971 32.6421 97.7449 32.4941 97.9228 32.3913C98.1006 32.2885 98.3022 32.2344 98.5075 32.2344C98.7127 32.2344 98.9143 32.2885 99.0922 32.3913C99.27 32.4941 99.4179 32.6421 99.5209 32.8203L102.758 38.4437C103.002 38.8651 103.131 39.344 103.131 39.8317C103.131 40.3193 103.002 40.7982 102.758 41.2197Z" fill="#A91F24"/>
<path d="M132.515 32.6937C132.51 33.0786 132.43 33.4588 132.28 33.8129C132.119 34.1823 131.878 34.5114 131.576 34.7769C131.274 35.0424 130.917 35.2378 130.531 35.3491C130.24 35.4337 129.936 35.4671 129.633 35.4478C129.421 35.4344 129.212 35.3957 129.01 35.3326C128.473 35.1683 128.001 34.8405 127.658 34.3945C127.443 34.124 127.285 33.8122 127.193 33.4783C127.149 33.3221 127.118 33.1624 127.1 33.001C127.084 32.8718 127.079 32.7415 127.084 32.6114C127.108 32.2185 127.212 31.8347 127.39 31.484C127.593 31.0952 127.885 30.7605 128.242 30.5075C128.45 30.3573 128.68 30.2389 128.923 30.1564C129.121 30.0791 129.33 30.0355 129.543 30.0274C129.605 30.0274 129.671 30 129.734 30C129.945 30.0004 130.156 30.0243 130.362 30.0713C130.593 30.1181 130.817 30.1975 131.026 30.3072C131.567 30.5841 132 31.0338 132.258 31.5855C132.367 31.8114 132.441 32.0529 132.476 32.3015C132.493 32.4441 132.504 32.6005 132.515 32.6937ZM129.799 30.6172C129.382 30.6167 128.974 30.7406 128.627 30.9733C128.28 31.2059 128.01 31.5369 127.85 31.9241C127.691 32.3113 127.65 32.7373 127.732 33.1481C127.814 33.5589 128.016 33.936 128.311 34.2315C128.607 34.527 128.984 34.7276 129.393 34.8079C129.803 34.8882 130.227 34.8445 130.611 34.6824C130.996 34.5203 131.324 34.2471 131.554 33.8974C131.784 33.5478 131.905 33.1374 131.903 32.7184C131.897 32.161 131.673 31.6283 131.28 31.2351C130.886 30.842 130.354 30.6201 129.799 30.6172Z" fill="#E7211C"/>
<path d="M131.077 34.1815H130.986H130.508C130.418 34.1815 130.413 34.1815 130.394 34.0855C130.346 33.8783 130.318 33.6671 130.309 33.4546C130.313 33.3454 130.289 33.237 130.241 33.1392C130.222 33.0998 130.193 33.0667 130.156 33.0438C130.119 33.0209 130.076 33.0093 130.033 33.0102C129.834 33.0102 129.634 33.0102 129.432 33.0102C129.375 33.0102 129.367 33.0102 129.367 33.098V33.814C129.367 33.9127 129.367 34.0142 129.367 34.1157C129.367 34.2172 129.367 34.2035 129.282 34.2035H128.831C128.749 34.2035 128.738 34.1898 128.738 34.1102V31.3753C128.738 31.2739 128.738 31.2656 128.853 31.2656H130.161C130.294 31.267 130.425 31.295 130.547 31.3479C130.682 31.4022 130.797 31.4967 130.877 31.6186C130.957 31.7405 130.998 31.8841 130.994 32.03C130.991 32.176 130.943 32.3174 130.857 32.4352C130.771 32.553 130.651 32.6417 130.514 32.6893C130.476 32.6893 130.476 32.6893 130.456 32.7469H130.487C130.577 32.7549 130.662 32.7917 130.73 32.8519C130.798 32.9121 130.845 32.9926 130.863 33.0816C130.894 33.2052 130.916 33.3308 130.929 33.4574C130.956 33.6302 130.981 33.8057 131.011 33.9813C131.027 34.0499 131.049 34.1169 131.077 34.1815ZM129.364 32.1379V32.4424C129.364 32.5165 129.364 32.5329 129.449 32.5329H129.97C130.072 32.5313 130.169 32.4923 130.243 32.4232C130.293 32.3671 130.326 32.298 130.339 32.2239C130.352 32.1498 130.343 32.0735 130.315 32.004C130.286 31.9344 130.239 31.8743 130.178 31.8306C130.117 31.7868 130.045 31.7612 129.97 31.7566H129.459C129.377 31.7566 129.367 31.7566 129.367 31.8472L129.364 32.1379Z" fill="#E7211C"/>
<path d="M211.67 66.676C210.48 66.2033 209.353 65.5851 208.313 64.8354C209.453 63.6281 210.295 62.169 210.772 60.5753L210.785 58.7457H207.589V57.3741H210.78V55.2126H207.589V52.25H205.51V55.2126H202.028V57.3769H205.51V58.7484H202.028V60.8798H202.945C203.377 62.394 204.161 63.579 205.278 64.8217C204.122 65.6413 202.847 66.277 201.498 66.7062L201.156 66.8214L202.186 68.7196L202.416 68.6373C203.996 68.0781 205.479 67.2737 206.811 66.2536C207.995 67.1792 209.285 67.9583 210.654 68.5742L210.884 68.6785L212.001 66.8104L211.67 66.676ZM206.772 63.4885C205.972 62.6464 205.385 61.9085 205.019 60.8771H208.543C208.113 61.8471 207.514 62.7317 206.772 63.4885Z" fill="#191417"/>
<path d="M201.443 58.9835C201.009 59.2221 200.588 59.4416 200.189 59.6391V57.3815H201.861V55.2117H200.189V52.2656H198.004V55.2117H196.078V57.3815H198.004V60.5608C197.638 60.687 197.272 60.7994 196.911 60.9037C196.638 60.9832 196.365 61.0545 196.092 61.1176V63.441H196.25L196.559 63.3396L196.919 63.2134C197.247 63.1009 197.602 62.972 198.012 62.8101V66.7053H196.1V68.7106H198.242C199.493 68.7106 200.184 67.9946 200.184 66.6916V61.8939C200.801 61.5949 201.323 61.3453 201.73 61.1149L201.888 61.0271V58.7339L201.443 58.9835Z" fill="#191417"/>
<path d="M143.312 62.0703V58.7786H145.052V56.5841H143.312V52.25H141.099V56.6006H138.914V58.7951H141.099V63.0002C140.403 63.1566 139.684 63.302 138.914 63.4254V65.7132L139.144 65.6693C141.087 65.3202 142.997 64.7998 144.85 64.1139L145.049 64.0399V61.8234L144.64 61.9743C144.212 62.1298 143.768 62.2779 143.309 62.4187V62.0703H143.312Z" fill="#191417"/>
<path d="M189.075 59.6799C188.308 58.8304 187.46 58.0578 186.543 57.373L186.437 57.2907L186.259 57.1562L186.144 57.2742L185.074 58.3714L184.891 58.5607L185.074 58.6896L185.145 58.7472C186.01 59.4049 186.814 60.1394 187.549 60.9417L187.691 61.0954L187.874 61.3093L188.147 61.0185L189.239 59.8802L189.075 59.6799Z" fill="#191417"/>
<path d="M189.079 55.2106C188.36 54.4168 187.567 53.6948 186.71 53.0546L186.612 52.9777L186.445 52.8516L186.339 52.9613L185.336 53.9872L185.164 54.16L185.336 54.2835L185.404 54.3356C186.212 54.9511 186.965 55.6367 187.653 56.3847L187.784 56.5301L187.956 56.7303L188.229 56.456L189.256 55.3917L189.079 55.2106Z" fill="#191417"/>
<path d="M185.253 61.3736C184.444 60.5644 183.591 59.8016 182.697 59.0886V58.8801H184.784V56.7185H182.691V54.9163L182.877 54.8889C183.508 54.7682 184.164 54.6146 184.827 54.4335L185.147 54.3457L184.374 52.25L184.101 52.3296C182.202 52.8667 180.253 53.2059 178.285 53.3418L177.944 53.3692L178.372 55.4896L178.646 55.4677C179.121 55.4293 179.76 55.3552 180.558 55.251V56.7185H178.009V58.8801H180.32C179.411 60.3089 178.375 61.6522 177.225 62.8933L177.031 63.099L178.539 64.7449L178.76 64.498C179.225 63.9878 179.659 63.4721 180.052 62.9618L180.544 62.2788V68.6949H182.697V61.5903C183.044 62.01 183.467 62.5367 183.961 63.1676L184.213 63.4913L184.527 62.9893L184.696 62.715L184.948 62.3145L185.434 61.5409L185.253 61.3736Z" fill="#191417"/>
<path d="M192.944 61.4943L191.578 61.7329V52.25H189.426V52.3707V55.7036V56.1205V58.0846V62.106L184.656 62.9344L185.025 65.0685L189.426 64.306V64.6296V64.7695V68.7004H191.578V64.7695V64.6296V63.9302L192.944 63.6942V61.4943Z" fill="#191417"/>
<path d="M161.923 55.8152L161.756 56.1444C161.57 56.5037 161.368 56.8713 161.163 57.2416C160.89 57.291 160.595 57.3404 160.3 57.3815L160.376 57.2608L161.543 55.3022C161.86 54.7344 162.168 54.1255 162.463 53.4891L162.606 53.1818L160.743 52.2656L160.625 52.5399C159.881 54.1801 158.993 55.7508 157.973 57.2334V59.9518C158.579 59.8915 159.147 59.8147 159.683 59.7214C159.172 60.5251 158.628 61.3371 158.044 62.1655L157.975 62.2643V64.5849C159.735 64.4179 161.476 64.0966 163.179 63.6248L163.242 63.6056V61.5236C162.559 61.7019 161.439 61.8473 160.677 61.9653L160.863 61.6909L161.062 61.3782L162.453 59.2139C162.488 59.1563 162.521 59.096 162.554 59.0411C162.802 58.6296 163.048 58.199 163.294 57.7601C163.444 57.4858 163.594 57.2114 163.742 56.9371L163.944 56.5558L161.923 55.8152Z" fill="#191417"/>
<path d="M157.973 66.0964V68.343C159.565 68.0687 162.376 67.5941 163.772 67.1799V65.0156C162.401 65.4134 159.573 65.8605 157.973 66.0964Z" fill="#191417"/>
<path d="M173.278 65.6062H171.025V64.0426H173.278V61.9633H171.025V60.6713H173.278V58.5921H171.025V57.2562H173.357V55.1358H170.997C170.82 54.4335 170.555 53.5557 170.202 52.5243L170.115 52.25L168.042 52.8507L168.178 53.1744C168.451 53.7971 168.692 54.4555 168.916 55.1358H166.886C167.116 54.4692 167.315 53.7889 167.476 53.1059L167.55 52.7986L165.523 52.3762C164.94 55.0978 163.865 57.689 162.352 60.0212L163.523 61.3407L163.797 60.9676L163.865 60.8771C164.1 60.5644 164.346 60.2132 164.594 59.8292V68.7141H166.643V67.7019H173.887V65.6062H173.278ZM168.97 65.6062H166.643V64.0426H168.97V65.6062ZM168.97 60.6686V61.9606H166.643V60.6713H168.97V60.6686ZM168.97 58.5893H166.637V57.2534H168.97V58.5893Z" fill="#191417"/>
<path d="M151.123 54.7188V52.25H148.938V54.7188H145.305V63.9302V64.9067H146.944V63.9302H148.924V68.7032H151.109V63.9302H153.142V64.9067H154.794V63.9302V54.7188H151.123ZM148.938 61.8262H147.449V60.3312H148.938V61.8262ZM148.938 58.2601H147.449V56.8173H148.938V58.2601ZM152.658 61.8262H151.118V60.3312H152.658V61.8262ZM152.658 58.2601H151.118V56.8173H152.658V58.2601Z" fill="#191417"/>
</g>
<defs>
<clipPath id="clip0_1160_55036">
<rect width="124" height="40" fill="white" transform="translate(88 30)"/>
</clipPath>
</defs>
</svg>
