<svg width="300" height="100" viewBox="0 0 300 100" fill="none" xmlns="http://www.w3.org/2000/svg">
<g clip-path="url(#clip0_1160_54909)">
<path d="M147.506 38.5156H138.394L137.176 39.7335V47.0291H123.215L122 48.2453V59.2745L123.22 60.494H147.508L148.728 59.2745V39.7335L147.506 38.5156ZM137.176 56.862H133.551V50.7061H137.176V56.862Z" fill="#D7000F"/>
<path d="M177.999 48.2487L176.78 47.0291H162.825V39.7352L161.605 38.5156H152.493L151.273 39.7352V59.2745L152.493 60.4923H161.608L162.825 59.2778V50.6861H166.45V59.2745L167.666 60.4923H176.781L177.999 59.2745V48.2487Z" fill="#D7000F"/>
<path d="M150.021 27.9999C145.62 27.9872 141.265 28.8931 137.234 30.6597C133.203 32.4262 129.586 35.0144 126.613 38.2587C133.738 31.1361 150.117 30.9581 150.117 30.9581C150.117 30.9581 166.237 31.1793 173.385 38.2587C170.416 35.0214 166.805 32.4374 162.783 30.6712C158.76 28.905 154.414 27.9953 150.021 27.9999Z" fill="#004294"/>
<path d="M138.32 64.8335H137.787C137.755 64.8338 137.723 64.8241 137.697 64.8055C137.671 64.787 137.651 64.7607 137.641 64.7303L137.348 63.8984H138.203L138.468 64.6322C138.476 64.6554 138.478 64.6803 138.475 64.7046C138.471 64.729 138.461 64.752 138.447 64.7719C138.432 64.7917 138.413 64.8077 138.391 64.8184C138.369 64.8291 138.344 64.8343 138.32 64.8335Z" fill="#004294"/>
<path d="M137.262 65.8594H136.445V66.8377H137.262V65.8594Z" fill="#004294"/>
<path d="M139.27 65.8594H138.453V66.8377H139.27V65.8594Z" fill="#004294"/>
<path d="M142.134 65.3817H141.448V64.9341H134.498V65.3817H133.812V64.2969H142.134V65.3817Z" fill="#004294"/>
<path d="M141.067 67.1604H134.883V65.3203H141.067V67.1604ZM135.505 66.5232H140.446V65.9659H135.505V66.5232Z" fill="#004294"/>
<path d="M141.116 69.9939H134.617V68.2969H141.116V69.9939ZM135.271 69.3567H140.465V68.9408H135.273L135.271 69.3567Z" fill="#004294"/>
<path d="M141.613 67.4141H134.086V68.0513H141.613V67.4141Z" fill="#004294"/>
<path d="M134.16 71.6526L134.012 71.032C135.569 70.6793 136.791 69.4664 136.804 69.4531L137.274 69.8973C137.219 69.9606 135.904 71.2583 134.16 71.6526Z" fill="#004294"/>
<path d="M137.866 72.0019H136.368C136.206 72.0124 136.045 71.9584 135.922 71.8516C135.799 71.7447 135.723 71.5937 135.711 71.4312V70.5078H136.443V71.1151C136.448 71.1863 136.482 71.2526 136.535 71.2994C136.589 71.3462 136.66 71.3697 136.731 71.3647H137.563L137.866 72.0019Z" fill="#004294"/>
<path d="M139.899 71.27L139.68 70.6693L139.861 70.6594C140.32 70.6316 140.759 70.4612 141.116 70.1719L141.334 70.7725L141.299 70.7925C140.941 71.073 140.504 71.2352 140.049 71.2567L139.899 71.27Z" fill="#004294"/>
<path d="M140.088 70.9133L138.299 69.3594L137.863 69.8335L139.727 71.459C140.135 71.812 140.656 72.0058 141.195 72.0048H141.55L141.283 71.4607C140.742 71.4607 140.491 71.2661 140.088 70.9133Z" fill="#004294"/>
<path d="M150.246 64.7812H146.68V65.5233H150.246V64.7812Z" fill="#004294"/>
<path d="M148.929 63.8906H148.004V71.9982H148.929V63.8906Z" fill="#004294"/>
<path d="M146.679 71.5843L145.98 71.4745L146.005 71.413C146.703 69.6759 147.009 67.8063 146.901 65.9375L147.6 66.0473V66.0806C147.703 67.9492 147.393 69.8176 146.691 71.5527L146.679 71.5843Z" fill="#004294"/>
<path d="M154.11 72.0022H152.945C152.885 72.0031 152.826 71.9921 152.77 71.9699C152.714 71.9477 152.663 71.9147 152.62 71.8728C152.577 71.8309 152.543 71.781 152.519 71.7258C152.496 71.6706 152.483 71.6113 152.483 71.5513V65.0394H151.514V72.0022H150.57V64.3672H153.413V71.0639C153.413 71.0994 153.421 71.1345 153.435 71.1671C153.449 71.1998 153.469 71.2293 153.495 71.2541C153.52 71.2788 153.55 71.2983 153.583 71.3113C153.617 71.3243 153.652 71.3307 153.687 71.3301H153.831L154.11 72.0022Z" fill="#004294"/>
<path d="M149.718 70.7086C148.946 69.1946 149.26 66.1515 149.274 66.0234L149.924 66.0883C149.924 66.1183 149.617 69.0831 150.304 70.4258L149.718 70.7086Z" fill="#004294"/>
<path d="M166.008 67.2422H158.223V67.8794H166.008V67.2422Z" fill="#004294"/>
<path d="M165.163 66.2812L165.704 66.8985L165.26 67.3028L164.719 66.6839L165.163 66.2812Z" fill="#004294"/>
<path d="M158.225 69.3589L158.215 68.6186C159.713 68.5004 160.803 68.0878 161.347 67.4256C161.798 66.8733 161.733 66.6021 161.733 66.5938H162.507C162.507 66.6287 162.605 67.0812 161.941 67.8915C161.254 68.7284 159.969 69.2225 158.225 69.3589Z" fill="#004294"/>
<path d="M164.958 69.3777C164.113 69.4035 163.282 69.1484 162.597 68.6523C162.219 68.3766 161.913 68.015 161.703 67.5975L162.404 67.3047C162.434 67.3712 163.297 68.9518 165.799 68.5791V69.3129C165.521 69.3551 165.24 69.3768 164.958 69.3777Z" fill="#004294"/>
<path d="M158.223 63.8906V66.3397H161.957V63.8906H158.223ZM161.01 65.6609H159.17V64.5694H161.01V65.6609Z" fill="#004294"/>
<path d="M162.266 63.8906V66.3397H166V63.8906H162.266ZM165.053 65.6609H163.218V64.5694H165.058L165.053 65.6609Z" fill="#004294"/>
<path d="M158.223 69.5469V71.9943H161.957V69.5469H158.223ZM161.01 71.3155H159.17V70.2257H161.01V71.3155Z" fill="#004294"/>
<path d="M162.266 69.5469V71.9943H166V69.5469H162.266ZM165.053 71.3155H163.218V70.2257H165.058L165.053 71.3155Z" fill="#004294"/>
<path d="M171.691 71.9982H170.359C172.099 70.737 172.977 68.7022 173.521 66.6641C173.765 65.761 173.863 64.8246 173.809 63.8906H174.73C174.793 64.8878 174.687 65.8885 174.417 66.8505C174.019 68.4044 173.022 70.8801 171.691 71.9982Z" fill="#004294"/>
<path d="M174.845 66.6649C174.764 66.3557 174.699 66.0425 174.65 65.7266L173.793 65.7432C173.818 66.1153 173.867 66.4854 173.939 66.8513C174.342 68.4052 175.339 70.8809 176.67 71.999H178.002C176.261 70.7378 175.384 68.703 174.845 66.6649Z" fill="#004294"/>
<path d="M129.81 65.625H122V66.4735H129.81V65.625Z" fill="#004294"/>
<path d="M123.331 71.9982H122C123.739 70.737 124.618 68.7022 125.162 66.6641C125.406 65.761 125.503 64.8246 125.45 63.8906H126.37C126.437 64.8867 126.334 65.8868 126.067 66.8488C125.653 68.4044 124.663 70.8801 123.331 71.9982Z" fill="#004294"/>
<path d="M126.651 66.6646C126.634 66.6013 126.619 66.5381 126.604 66.4766H125.652C125.679 66.5997 125.709 66.7245 125.742 66.8509C126.152 68.4049 127.15 70.8806 128.482 71.9986H129.813C128.07 70.7375 127.192 68.7027 126.651 66.6646Z" fill="#004294"/>
</g>
<defs>
<clipPath id="clip0_1160_54909">
<rect width="56" height="44" fill="white" transform="translate(122 28)"/>
</clipPath>
</defs>
</svg>
