<svg width="300" height="100" viewBox="0 0 300 100" fill="none" xmlns="http://www.w3.org/2000/svg">
<g clip-path="url(#clip0_1160_54982)">
<path fill-rule="evenodd" clip-rule="evenodd" d="M93.5938 39.1582V40.8116C93.5938 41.2869 93.6139 41.693 93.6139 42.1654H101.122C101.376 42.1644 101.622 42.2566 101.813 42.4247C101.923 42.5282 102.009 42.6549 102.064 42.7956C102.119 42.9364 102.143 43.0876 102.132 43.2384C102.122 43.3892 102.078 43.5358 102.004 43.6676C101.93 43.7993 101.827 43.913 101.704 44.0003C101.39 44.2048 101.168 44.1644 100.679 44.1644H95.9554C95.1605 44.1644 94.4174 44.1846 93.6139 44.1846L93.6341 46.7079C94.7011 46.7281 95.7631 46.8613 96.8021 47.1054C97.6995 47.3106 98.5588 47.6567 99.348 48.1308L99.9989 48.5917C100.367 48.8889 100.696 49.2316 100.978 49.6114L101.491 50.4525C101.603 50.7405 101.638 50.7693 101.741 51.0891C101.933 51.6614 102.021 52.2631 102.003 52.8663C102.003 52.97 101.983 52.9585 101.983 53.0478C102.07 53.0737 102.597 53.405 102.709 53.4712C102.954 53.6181 103.17 53.7593 103.409 53.9263C104.201 54.4623 104.964 55.0392 105.696 55.6546L106.318 56.1817C106.482 56.3286 107.21 56.9681 107.271 56.9854L107.668 55.9081C108.067 54.7198 108.344 53.4941 108.495 52.2499C108.515 52.1059 108.535 51.9475 108.544 51.815C108.576 51.3282 108.624 50.9018 108.624 50.3747C108.652 49.3439 108.59 48.3125 108.437 47.2926C108.333 46.5983 108.193 45.91 108.017 45.2302C107.922 44.9134 107.841 44.5821 107.729 44.2739L106.842 42.0502C106.585 41.4937 106.296 40.9523 105.978 40.4285C105.595 39.7881 105.173 39.1724 104.713 38.585L104.022 37.741C103.775 37.476 103.524 37.1822 103.265 36.923L102.954 36.609L102.49 36.1625C102.442 36.1023 102.382 36.0523 102.314 36.0156C102.098 36.398 101.835 36.7521 101.531 37.0699L101.168 37.4328C100.837 37.7262 100.485 37.9948 100.114 38.2365L99.397 38.6311C98.0693 39.1813 97.98 39.0862 96.4997 39.0862H93.7349C93.66 39.0862 93.5966 39.0718 93.5966 39.1496" fill="#EDB611"/>
<path fill-rule="evenodd" clip-rule="evenodd" d="M79.8021 34.4327C79.9018 34.4672 79.9982 34.5106 80.0901 34.5624C80.7546 34.8758 81.3575 35.3061 81.8699 35.8326C82.1558 36.1412 82.3892 36.4944 82.5611 36.8783C83.1371 38.065 82.8693 39.5398 82.3135 40.6459L82.1032 41.0434C82.0702 41.1096 82.0337 41.174 81.9938 41.2364C81.4572 42.0929 80.8452 42.8998 80.165 43.6473C79.9202 43.9066 79.7013 44.1917 79.4479 44.4452C79.3931 44.4971 79.3327 44.5316 79.3125 44.6094C79.4204 44.5968 79.5272 44.5766 79.6322 44.5489C79.733 44.5288 79.8597 44.5057 79.9605 44.4913C80.6335 44.3712 81.3256 44.4177 81.9765 44.6267C82.8981 44.9983 83.4453 45.8941 83.4453 46.9944C83.4246 47.6924 83.2609 48.3786 82.9643 49.0108C82.9244 49.0949 82.8897 49.1815 82.8607 49.27C82.9787 49.2412 83.6008 48.8696 83.7707 48.7832C84.3151 48.5124 84.8968 48.2474 85.4728 48.0228C85.9077 47.8528 86.3368 47.7174 86.789 47.5648C87.7396 47.2678 88.7136 47.052 89.7007 46.9195L91.6303 46.7265C91.6303 46.5595 91.6101 46.4759 91.6101 46.3031V44.1831H84.2431C84.0356 44.1791 83.8344 44.1112 83.6669 43.9886C83.4995 43.866 83.3739 43.6947 83.3074 43.4981C83.241 43.3014 83.2368 43.0891 83.2955 42.89C83.3542 42.6909 83.4729 42.5148 83.6354 42.3857C83.9522 42.1581 84.0904 42.1841 84.6059 42.1841H90.4408C90.8411 42.1841 91.1839 42.1639 91.5928 42.1639V39.1567C91.5928 39.0501 91.3279 39.0962 91.2472 39.0962C90.7922 39.0962 88.6552 39.0703 88.4277 39.0962C88.0994 39.1394 85.0178 39.1106 84.3237 39.1106C84.055 39.1228 83.792 39.031 83.5893 38.8542L83.4712 38.7304C83.3683 38.6005 83.2989 38.4473 83.2692 38.2842C83.2396 38.1212 83.2506 37.9533 83.3013 37.7955C83.352 37.6377 83.4408 37.4949 83.5599 37.3796C83.6789 37.2643 83.8245 37.1802 83.9839 37.1346C84.2719 37.0482 87.1519 37.0914 87.4946 37.0914H96.5579C96.9871 37.1136 97.4174 37.1049 97.8453 37.0655C98.5469 36.8863 99.19 36.528 99.7115 36.0256L99.8843 35.873C100.158 35.5849 100.627 35.1327 100.717 34.7496C100.676 34.7208 100.648 34.6949 100.599 34.6632L99.6799 34.0669C99.317 33.8509 98.9714 33.6435 98.5826 33.4505L97.7186 33.0328C97.6264 32.9868 97.5083 32.932 97.4162 32.8946C96.5892 32.5409 95.7397 32.2426 94.8731 32.0016C93.1646 31.5329 91.3969 31.3156 89.6258 31.3564C87.7552 31.3915 85.9007 31.709 84.125 32.2983C82.9585 32.6795 81.8349 33.1815 80.7727 33.7962L80.2658 34.0842C80.188 34.1303 79.8136 34.3377 79.7935 34.4183" fill="#EDB611"/>
<path fill-rule="evenodd" clip-rule="evenodd" d="M90.3813 70.1848C89.7337 70.1991 89.0858 70.1799 88.4402 70.1272C88.0572 70.0869 87.7058 70.0696 87.3199 70.0149C86.5768 69.9112 85.9 69.7816 85.229 69.6231C85.0591 69.5828 84.9093 69.5396 84.748 69.4993C84.5868 69.459 84.414 69.4071 84.2613 69.361C83.3337 69.0859 82.4279 68.7422 81.5512 68.3327C81.4706 68.2981 81.4216 68.2808 81.3439 68.2405C80.6671 67.9006 80.0047 67.5434 79.3596 67.1546C78.7863 66.802 78.2334 66.4174 77.7036 66.0024L76.5256 65.0202C76.4663 64.9723 76.4096 64.9214 76.3557 64.8675L76.0332 64.5622L75.7192 64.2511L75.2642 63.8075C75.077 63.6059 74.8552 63.3725 74.6882 63.1565L74.2677 62.6467C73.9423 62.2434 73.6226 61.8315 73.3375 61.3994C72.7466 60.5177 72.2164 59.5967 71.7506 58.6428L71.4626 58.0062C71.3272 57.7182 71.2149 57.41 71.1026 57.1133C70.8159 56.334 70.5717 55.5398 70.3711 54.734C70.2876 54.397 70.2213 54.0744 70.1522 53.723C70.0831 53.3716 70.0341 53 69.9823 52.6399C69.9005 52.0729 69.8514 51.5016 69.8354 50.9289C69.8354 50.8022 69.8152 50.7648 69.8124 50.6409L69.87 48.4518C69.9218 48.06 69.9276 47.7115 69.9852 47.3168C70.0792 46.6075 70.2109 45.9037 70.3797 45.2084C70.661 44.0881 71.0308 42.9921 71.4856 41.9304C71.5173 41.8555 71.5404 41.7921 71.5778 41.7201C71.7506 41.3802 71.8888 40.9971 72.0847 40.6745L73.7724 37.9784L73.902 37.8056L75.1893 36.2674C75.4428 36.0168 75.8517 35.5358 76.1138 35.3341C76.2146 35.2564 76.7157 34.758 76.9317 34.5967C76.9922 34.5506 77.0498 34.5017 77.1074 34.4498C77.6766 33.9664 78.277 33.5209 78.9045 33.1162C79.2847 32.8627 79.6764 32.638 80.0565 32.4018C80.5958 32.0925 81.1504 31.8108 81.7183 31.5578C84.3278 30.3868 87.1554 29.7812 90.0156 29.7806L90.9228 29.8008C91.2108 29.8008 91.5247 29.8526 91.8127 29.8613C91.9912 29.8613 92.1986 29.9073 92.3887 29.9217C93.286 30.0179 94.1747 30.1826 95.0469 30.4143L96.0204 30.7024L96.4898 30.8608C97.1176 31.0682 97.6936 31.3274 98.3013 31.5722C98.3733 31.6011 98.4367 31.6385 98.5058 31.6702C99.8335 32.2775 101.089 33.0311 102.25 33.9169C102.374 34.0091 102.483 34.0984 102.601 34.205C102.95 34.493 103.304 34.7811 103.624 35.0691L105.038 36.4806C105.49 36.9749 105.913 37.4952 106.305 38.0389C106.4 38.1714 106.486 38.2866 106.576 38.4133C106.976 38.965 107.34 39.5423 107.664 40.1416L107.889 40.5449C107.926 40.6169 107.955 40.6832 107.995 40.7609C108.283 41.337 108.551 41.9131 108.787 42.4892C109.034 43.0976 109.249 43.7187 109.43 44.35C109.628 45.0219 109.788 45.7047 109.908 46.3951L110.078 47.5012C110.104 47.6942 110.109 47.867 110.138 48.0773L110.17 48.5094C110.305 50.1867 110.22 51.8744 109.919 53.53C109.79 54.2156 109.631 54.8809 109.453 55.5463C109.081 56.8557 108.578 58.1239 107.949 59.3313C107.671 59.8749 107.364 60.4028 107.028 60.9126C106.982 60.9846 106.938 61.0422 106.901 61.1085C106.584 61.6097 106.235 62.0907 105.858 62.5487L104.39 64.2108C103.556 65.0479 102.653 65.813 101.691 66.4978L101.331 66.7456C101.199 66.832 101.092 66.9069 100.951 66.9933L99.5772 67.7998C99.5092 67.8412 99.4391 67.8787 99.3669 67.9121C98.814 68.2002 98.2524 68.4681 97.6735 68.6985C97.0946 68.9289 96.4466 69.1507 95.8216 69.3524C94.0642 69.8854 92.2406 70.1685 90.4044 70.1935M89.3762 29.0029H90.6866C91.397 29.0214 92.1057 29.0811 92.8092 29.1815C93.581 29.2909 94.2751 29.4177 94.972 29.5847C96.2814 29.9117 97.5585 30.3561 98.788 30.9126C98.8716 30.9558 98.9292 30.976 99.0127 31.0134L99.6578 31.3389C99.9458 31.483 100.208 31.627 100.493 31.7969C100.902 32.0187 101.299 32.2808 101.685 32.5401C102.357 32.9755 102.998 33.4567 103.603 33.9803C103.745 34.1042 103.891 34.2194 104.038 34.3548C104.063 34.3828 104.09 34.4088 104.119 34.4325L105.792 36.1291C106.298 36.7003 106.771 37.2994 107.209 37.9237C107.434 38.2492 107.653 38.5574 107.854 38.8944L108.675 40.3346L108.891 40.7667C109.41 41.8051 109.833 42.8888 110.155 44.0043C110.354 44.6928 110.521 45.3581 110.659 46.0638C110.807 46.812 110.903 47.5694 110.947 48.3308C110.947 48.5958 111.002 48.9213 111.008 49.1949V50.2693C110.993 51.1304 110.931 51.99 110.824 52.8445C110.728 53.581 110.587 54.3111 110.403 55.0307C110.273 55.5521 110.135 56.0446 109.965 56.5516C109.911 56.7216 109.85 56.8771 109.798 57.0326C109.426 58.1173 108.954 59.1654 108.39 60.1637C108.16 60.5814 107.921 60.9933 107.656 61.3908C107.065 62.2963 106.409 63.1579 105.694 63.9688C105.585 64.0869 105.493 64.1906 105.38 64.3029C105.314 64.3663 105.291 64.4124 105.231 64.4758L104.24 65.4436C103.731 65.9137 103.198 66.3578 102.644 66.7744C102.394 66.9616 102.155 67.1402 101.89 67.3159C101.366 67.6654 100.832 67.9986 100.289 68.3154C100.15 68.3932 100.001 68.4594 99.868 68.543C99.1403 68.9292 98.3902 69.2716 97.6216 69.5684C96.654 69.9341 95.6642 70.2382 94.6581 70.4786C93.5383 70.7376 92.3985 70.9014 91.2511 70.9683C90.8364 70.9683 90.4216 71.0086 89.9983 71.0086C89.7564 71.0086 89.5749 70.9856 89.3503 70.9885C87.6159 70.9375 85.8952 70.6655 84.2296 70.1791C83.4023 69.9446 82.5912 69.656 81.8018 69.3149L81.3554 69.1191C81.2632 69.0816 81.2085 69.047 81.1192 69.0067C81.03 68.9664 80.9839 68.9491 80.9004 68.9059C79.9016 68.41 78.9392 67.8441 78.0204 67.2122C77.6316 66.9472 77.2572 66.662 76.8914 66.3653C76.7704 66.2645 76.6524 66.1752 76.5372 66.0773L75.3276 64.9856L74.3656 63.9688C74.3138 63.9025 74.2706 63.8737 74.213 63.7988C74.1554 63.724 74.118 63.6923 74.0632 63.626L72.5052 61.5694C72.0607 60.906 71.6587 60.2153 71.3013 59.5012C71.0824 59.0663 70.8578 58.6083 70.6706 58.1531C70.6072 57.9947 70.5468 57.8651 70.4834 57.6952C70.42 57.5252 70.3653 57.3783 70.302 57.2112C69.5236 55.092 69.0946 52.8603 69.0319 50.6035C69.0319 50.3759 69.0117 50.2146 69.0117 49.9784L69.0405 49.0163C69.0578 48.9069 69.0405 48.8176 69.0549 48.7081C69.1379 47.5623 69.3005 46.4237 69.5416 45.3005C69.6972 44.6185 69.8895 43.9454 70.1176 43.2842C70.276 42.8032 70.469 42.3308 70.6533 41.8613C70.8712 41.3324 71.1163 40.8151 71.3877 40.3116C71.4252 40.2396 71.454 40.1733 71.4943 40.0955L71.6095 39.8881L72.7298 38.0821C73.2899 37.251 73.919 36.4686 74.6104 35.7432C74.6738 35.6827 74.6968 35.6366 74.7631 35.5732C75.2527 35.0893 75.7308 34.5823 76.2578 34.133C76.2981 34.0984 76.3068 34.1013 76.3471 34.0638C76.6034 33.8248 76.8856 33.6174 77.1564 33.3985L78.389 32.5084L78.4898 32.4479C79.2185 31.9763 79.9723 31.5446 80.7477 31.1546C80.8917 31.0797 81.0357 30.9962 81.1797 30.9414L81.6405 30.734C82.2568 30.4662 82.8818 30.2271 83.5269 30.0168C83.7026 29.9592 83.8524 29.9189 84.0223 29.8641C85.0702 29.5444 86.1435 29.315 87.2306 29.1786C87.9351 29.0783 88.6447 29.0187 89.356 29" fill="#EDB611"/>
<path fill-rule="evenodd" clip-rule="evenodd" d="M74.3516 60.1122C74.4927 60.3225 74.6396 60.5327 74.7749 60.7401C75.0578 61.1508 75.3626 61.546 75.6879 61.924C75.901 62.1602 76.0911 62.4079 76.3157 62.6326L76.6988 63.0359C77.0127 63.3498 77.3151 63.6638 77.6492 63.9432C77.8736 64.1622 78.1219 64.3555 78.3893 64.5193C78.7424 63.9298 79.135 63.3649 79.5644 62.8285C79.6767 62.696 79.7631 62.5663 79.8783 62.4367C80.1663 62.1199 80.4226 61.78 80.7164 61.4775C80.7596 61.4314 80.7596 61.4199 80.797 61.3767C80.9756 61.1664 81.373 60.7833 81.6034 60.5673C81.7301 60.4434 81.8424 60.3484 81.9663 60.2245L82.1592 60.0517C82.1914 60.0231 82.2251 59.9962 82.26 59.9711L83.988 58.6172C84.1349 58.5135 84.2588 58.43 84.4085 58.3292L84.8492 58.0411C84.9212 57.9893 84.9816 57.9547 85.0594 57.9086C85.6728 57.5457 86.2892 57.2 86.9314 56.8918C87.0178 56.8486 87.084 56.8112 87.1733 56.7709C87.3461 56.6902 87.5016 56.6268 87.6773 56.5491C88.9016 56.0096 90.1799 55.6021 91.4904 55.3335C91.6517 55.3018 91.6978 55.3508 91.692 55.1693L91.669 53.1098C91.4857 53.1233 91.3036 53.1512 91.1247 53.1933C88.8892 53.5917 86.7249 54.3187 84.7023 55.3508C84.459 55.5186 84.1712 55.6098 83.8757 55.6129C83.6996 55.5985 83.5304 55.5381 83.3851 55.4377C83.2397 55.3373 83.1232 55.2005 83.0474 55.0409C82.9716 54.8813 82.939 54.7046 82.953 54.5285C82.9669 54.3523 83.0269 54.1829 83.1269 54.0373C83.3101 53.8263 83.5412 53.6623 83.8008 53.5591L85.6412 52.7123C85.8255 52.6345 86.0012 52.5625 86.1884 52.4963L87.902 51.9058L89.725 51.4276L91.0152 51.1856C91.1132 51.1856 91.237 51.1453 91.3464 51.1309C91.4562 51.1258 91.5648 51.1054 91.669 51.0704C91.669 50.8486 91.6488 50.7046 91.6488 50.4943V48.7344C90.5933 48.787 89.5446 48.9345 88.5154 49.1751C87.819 49.3326 87.1347 49.5396 86.4677 49.7944C85.8305 50.0297 85.209 50.3058 84.6072 50.6211L84.3192 50.7766C83.1417 51.4348 82.0255 52.1974 80.9842 53.0551C80.7653 53.2279 80.1202 53.7723 79.9128 53.9797C79.8783 54.0191 79.8408 54.0557 79.8005 54.0892L79.4405 54.4146C79.2147 54.6346 79.0049 54.8705 78.8127 55.1204C78.4584 55.5207 78.1272 55.9413 77.7615 56.333L77.03 57.1684C76.9965 57.2086 76.9599 57.2462 76.9205 57.2807L76.3964 57.8568C76.3618 57.8971 76.3244 57.9288 76.2869 57.9691L75.852 58.4444C75.7751 58.5156 75.7039 58.5926 75.6389 58.6748C75.4834 58.8678 75.1292 59.1789 74.9794 59.369C74.9103 59.4583 74.8354 59.5102 74.7663 59.5995L74.4783 59.9682C74.4437 60.0143 74.3976 60.0632 74.3717 60.1036" fill="#EDB611"/>
<path fill-rule="evenodd" clip-rule="evenodd" d="M93.6719 57.0238C93.6719 57.9744 93.692 58.8673 93.692 59.8092V62.635C93.692 62.8884 93.7122 63.067 93.7122 63.3234L93.7324 68.249L94.0837 68.177C94.2047 68.1482 94.3055 68.128 94.4264 68.0963C95.1015 67.9298 95.7669 67.7259 96.4194 67.4857C96.8456 67.3272 97.2402 67.1774 97.6405 66.9902C98.2856 66.7022 98.7436 66.4573 99.3455 66.1261L100.146 65.6335C100.241 65.5759 100.328 65.5183 100.414 65.4578L102.142 64.1443L102.827 63.5193C102.58 63.3357 102.317 63.1738 102.041 63.0353C101.961 62.995 101.914 62.9605 101.831 62.9201C101.747 62.8798 101.69 62.8596 101.609 62.8193C101.462 62.7415 101.321 62.6868 101.16 62.6206C99.82 62.0919 98.4104 61.761 96.9752 61.6383C96.9032 61.6383 96.7621 61.6383 96.6872 61.6124C96.333 61.5577 95.878 61.6758 95.5208 61.1659C95.4321 61.0387 95.374 60.8926 95.3509 60.7392C95.3278 60.5858 95.3405 60.4291 95.3879 60.2814C95.4352 60.1337 95.5161 59.9989 95.6241 59.8875C95.732 59.7761 95.8643 59.6912 96.0104 59.6393C96.2943 59.576 96.5879 59.5691 96.8744 59.6191L97.4159 59.6623C97.8662 59.704 98.3141 59.7684 98.758 59.8553C100.165 60.0982 101.531 60.5404 102.813 61.1688C103.23 61.3808 103.633 61.6194 104.02 61.8832C104.097 61.935 104.167 61.9955 104.241 62.0445L105.249 60.754L105.391 60.5495C105.661 60.1693 105.932 59.7372 106.171 59.3311C106.258 59.1909 106.335 59.0446 106.401 58.8932C106.347 58.8155 106.324 58.8184 106.255 58.7579L103.429 56.393C103.366 56.3469 103.326 56.3095 103.262 56.2605C102.747 55.8745 102.421 55.6671 101.903 55.3157L101.171 54.875L100.356 55.575C100.293 55.6239 100.25 55.6556 100.181 55.7017C98.934 56.5226 97.465 56.94 95.973 56.8971H95.3653L94.7893 56.9259C94.6223 56.9461 94.4092 56.9259 94.2133 56.9633L93.6719 57.0238Z" fill="#EDB611"/>
<path fill-rule="evenodd" clip-rule="evenodd" d="M80.0039 65.7292L81.0119 66.3053C81.1818 66.4032 81.3575 66.4954 81.5389 66.5933C81.7148 66.6908 81.8955 66.7793 82.0804 66.8583L82.6362 67.1118L83.2122 67.348C84.4353 67.8239 85.7045 68.1714 86.9994 68.385L89.194 68.6125C89.482 68.6125 89.7009 68.6327 89.9831 68.6327C90.2653 68.6327 90.7089 68.6327 90.9537 68.5952L91.5297 68.5578C91.7457 68.5319 91.7284 68.6039 91.7255 68.3504C91.7255 68.2064 91.7255 68.0796 91.7111 67.9615C91.6852 67.7945 91.7111 64.1939 91.7111 63.8684C91.7111 63.7128 91.6881 63.6437 91.6909 63.4853C91.6909 61.4402 91.6679 59.4094 91.6679 57.3672C91.4967 57.395 91.3274 57.4335 91.161 57.4824C90.6685 57.6063 90.1933 57.7705 89.721 57.9202C89.3466 58.0441 88.7303 58.2745 88.3674 58.4445C88.2205 58.5136 88.0794 58.5683 87.9383 58.6375L87.1031 59.0551C86.169 59.5553 85.2788 60.1334 84.442 60.7834L82.7889 62.2409C82.5729 62.457 82.3828 62.6557 82.1725 62.8775C81.4709 63.6469 80.8296 64.4694 80.2545 65.3374C80.1651 65.4613 80.0861 65.5923 80.0183 65.7292" fill="#EDB611"/>
<path fill-rule="evenodd" clip-rule="evenodd" d="M71.3651 50.5193C71.3968 50.6605 71.3853 50.9168 71.4026 51.0695C71.4371 51.3892 71.4458 51.7982 71.4919 52.1698C71.6954 53.9654 72.1652 55.7206 72.8858 57.3777L73.2602 58.213C73.3437 58.1929 73.3581 58.141 73.4099 58.0776C73.6835 57.7349 74.0723 57.2481 74.3661 56.9255C74.4122 56.8736 74.4611 56.816 74.5043 56.7584L76.6384 54.3705C77.2144 53.7483 77.5024 53.5784 78.1043 52.8266L79.9159 50.4012L80.3795 49.6725C80.6965 49.1614 80.9701 48.6248 81.1975 48.068C81.3184 47.7339 81.5949 46.9591 81.3357 46.5731C81.2925 46.5097 81.281 46.5126 81.2003 46.4867C80.5725 46.2994 79.2794 46.6941 78.7207 46.8813C78.2541 47.0368 77.8279 47.2039 77.3872 47.3883L76.7536 47.6619L76.601 47.731C76.313 47.8491 75.7975 48.117 75.5037 48.2466L74.608 48.7046C74.2394 48.889 74.0522 49.0244 73.7267 49.2173C73.2515 49.5054 72.7936 49.7934 72.2867 50.0642C72.1802 50.1189 72.0851 50.1679 71.9843 50.2255C71.7885 50.3378 71.561 50.4214 71.3594 50.528" fill="#EDB611"/>
<path fill-rule="evenodd" clip-rule="evenodd" d="M80.8918 38.3909C80.8851 38.1946 80.8492 38.0004 80.7852 37.8148C80.726 37.6559 80.6456 37.5057 80.5462 37.3683L80.2207 37.0082C80.0854 36.8959 79.9615 36.798 79.8233 36.6972C79.5335 36.5105 79.2269 36.3514 78.9075 36.2219C78.8268 36.1844 78.7462 36.1556 78.6598 36.1239C78.5734 36.0923 78.4956 36.0606 78.4063 36.0375C78.224 35.9715 78.036 35.9223 77.8447 35.8906C77.7929 35.8906 76.7158 36.9103 76.6179 37.0284C76.5769 37.0811 76.5326 37.1311 76.4854 37.1782L76.3356 37.328L75.5119 38.2814C74.891 39.0518 74.3297 39.8684 73.8329 40.724C73.7523 40.8565 73.6975 40.9775 73.6169 41.1129C73.4211 41.4384 73.1993 41.9252 73.0409 42.2852C72.9747 42.4293 72.9199 42.5531 72.8537 42.7029C72.822 42.7749 72.8019 42.8297 72.7702 42.9045C72.7385 42.9794 72.7097 43.0399 72.6809 43.1177C72.6319 43.2588 72.5743 43.4057 72.5196 43.5411C72.1872 44.4424 71.9243 45.3678 71.7334 46.3093C71.6585 46.6866 71.526 47.4614 71.4915 47.8445C71.4915 47.8935 71.4598 48.0663 71.4655 48.1124C71.4713 48.1585 71.4396 48.1671 71.6268 48.0577L72.3756 47.6371C72.8854 47.3756 73.372 47.0711 73.83 46.7269C74.0604 46.557 74.2937 46.4043 74.5155 46.2228C74.6278 46.1307 74.7343 46.0529 74.8438 45.9665L75.1692 45.7072L77.0614 44.0222L77.9254 43.1436C77.9801 43.0803 78.0003 43.0486 78.0665 42.9823L79.0313 41.8906C79.4962 41.3551 79.9171 40.7829 80.2899 40.1796C80.6308 39.6417 80.8354 39.0287 80.886 38.3937" fill="#EDB611"/>
<path fill-rule="evenodd" clip-rule="evenodd" d="M93.6328 49.1949C93.6328 49.8026 93.653 50.347 93.653 50.9519L94.157 50.9318C95.6774 50.9231 97.1904 51.1455 98.644 51.5914C98.9522 51.6778 99.8594 52.0235 99.9314 52.0407C99.8642 51.7392 99.7557 51.4484 99.6088 51.1766C99.3319 50.6749 98.9364 50.2487 98.4568 49.9351C98.2111 49.7673 97.9497 49.6236 97.6763 49.5059C97.3961 49.3787 97.1074 49.271 96.8123 49.1833C96.1489 48.9868 95.468 48.8556 94.7791 48.7916L93.6501 48.7109L93.6328 49.1949Z" fill="#EDB611"/>
<path fill-rule="evenodd" clip-rule="evenodd" d="M93.6513 52.9449L93.6715 55.0073C93.7976 55.0057 93.9236 54.997 94.0488 54.9814L94.8206 54.9238C95.0654 54.9238 95.1086 54.9065 95.2238 54.9036C95.4974 54.9036 95.7768 54.9036 96.0532 54.9036C96.3105 54.8974 96.5672 54.8772 96.8222 54.8431C97.6333 54.7603 98.4112 54.4772 99.0859 54.0193C99.1326 53.994 99.1722 53.9574 99.2011 53.9128C98.4558 53.609 97.6847 53.3728 96.8971 53.207C96.3559 53.0963 95.8087 53.0175 95.2584 52.9708L94.8984 52.942C94.6334 52.942 94.4145 52.9219 94.1524 52.9219C93.9624 52.9219 93.8443 52.942 93.6484 52.942" fill="#EDB611"/>
<path d="M124.137 43.8166L123.684 45.0063L132.169 44.9832V46.2852C131.313 47.9847 130.061 50.2622 128.413 53.1177C129.867 56.1594 132.114 59.759 135.155 63.9165H130.133C128.576 61.5219 127.18 59.2175 125.945 57.0034C124.464 59.4266 122.807 61.7372 120.986 63.9165H115.301C117.182 61.712 118.883 59.5929 120.401 57.5593C121.92 55.5257 123.247 53.6112 124.381 51.8157C125.51 50.024 126.502 48.2833 127.356 46.5934L123.169 46.5704C122.332 48.4081 121.413 50.194 120.413 51.928H115.476C117.216 49.3972 118.631 46.6575 119.687 43.7734L124.137 43.8166Z" fill="#EDB611"/>
<path d="M158.212 43.8594L158.341 45.2276C157.786 45.2996 156.832 45.3774 155.487 45.458C154.142 45.5387 152.708 45.5934 151.167 45.6222V47.3188H159.11V48.664L151.176 48.7302V50.2511H158.163V53.2065H159.508V54.5949L158.163 54.615L158.097 57.6568L151.156 57.6136L151.222 63.9506H147.256V57.4753L140.425 57.5416V56.1301L147.256 56.0869V54.5949L139.48 54.5718L139.414 53.2065L147.19 53.1834V51.5963L140.102 51.5732V50.3174L147.265 50.2511V48.8109L139.642 48.7446V47.4455L147.265 47.3995L147.288 45.7691C143.365 45.7691 141.081 45.7547 140.434 45.7259V44.3577C145.929 44.3903 149.517 44.3577 151.199 44.2598C152.881 44.1618 154.105 44.0956 154.871 44.061C155.639 44.0245 156.756 43.9621 158.22 43.8738M151.188 53.2209H154.01V51.6107H151.188V53.2209ZM151.211 56.2626H154.01V54.6294H151.211V56.2626ZM146.726 58.0773C145.968 60.1134 145.085 62.1008 144.083 64.0284H139.699C140.523 62.7917 141.559 60.7859 142.807 58.0111L146.726 58.0773ZM156.23 58.2962C156.434 58.6035 156.893 59.5185 157.607 61.0413C158.321 62.5641 158.766 63.5377 158.94 63.9621L154.402 63.8959C153.71 62.3385 152.821 60.472 151.735 58.2962H156.23Z" fill="#EDB611"/>
<path d="M192.476 52.0634C192.119 52.2689 191.076 52.7605 189.348 53.5382C188.311 53.9739 187.3 54.4672 186.318 55.0159H192.444C193.032 54.6933 194.442 53.9731 196.675 52.8555L199.342 54.1777C199.678 54.339 200.295 54.6184 201.194 55.0159L207.098 54.9064C205.984 54.4936 203.67 53.5459 200.157 52.0634H192.476ZM194.204 54.0797C194.296 54.5241 194.429 54.9589 194.601 55.3788H187.747V64.1297H192.257L196.355 63.2396V61.7418C195.445 62.0221 194.043 62.3678 192.147 62.7787V60.8373H205.347V55.3471H199.175C198.965 54.9327 198.781 54.5055 198.625 54.0682L194.204 54.0797ZM201.058 56.482V57.4297H192.168V56.459L201.058 56.482ZM201.058 58.5329V59.495H192.168V58.5444L201.058 58.5329ZM205.476 60.99C205.111 61.1225 204.039 61.4604 202.259 62.0039C201.833 61.7811 201.326 61.4873 200.739 61.1225H195.123C196.659 61.8253 198.598 62.8392 200.94 64.1642L206.317 64.1412C205.561 63.7135 204.781 63.3288 203.981 62.989L206.185 62.2833L205.476 60.99ZM187.096 48.7336L189.236 50.2775L186.148 52.1066H191.364C193.847 50.6088 195.756 49.0293 197.092 47.3683V46.2881H194.878V45.5824H196.577V44.4791H194.878V43.7734H191.243V46.2881H190.561L190.912 45.0524H187.744C187.433 46.2321 187.02 47.3828 186.511 48.4916H189.809L190.296 47.3222H193.314L191.419 48.9986L190.978 48.7105L187.096 48.7336ZM203.604 44.0615H196.885V45.2137H202.901C202.542 45.7073 202.145 46.1716 201.712 46.6021L200.831 45.8733H197.018C198.047 46.7547 198.928 47.5708 199.661 48.3217C198.123 49.5461 196.519 50.6865 194.858 51.7379H199.572L201.49 50.482L202.68 51.6947L206.824 51.7379L203.693 48.4311C204.268 47.977 204.786 47.4558 205.237 46.8786C205.668 46.2929 206.044 45.6691 206.36 45.0149V44.0672L203.604 44.0615Z" fill="#EDB611"/>
<path d="M216.606 51.8304L212.618 51.8535L212.675 64.1041H216.488L218.936 62.6639L218.957 61.0335L216.598 62.1569L216.606 51.8304ZM220.926 43.8746C220.882 43.9917 220.317 46.3211 219.23 50.8626L221.822 50.9058C221.486 54.491 221.064 57.2092 220.555 59.0604C220.091 60.784 219.521 62.4771 218.847 64.13L223.475 64.0638C224.228 61.6699 224.766 59.2137 225.082 56.7243C226.234 61.2063 226.837 63.5242 226.891 63.6778C226.936 63.837 227.003 63.9892 227.09 64.13L230.989 64.0638C230.653 62.7983 230.365 61.792 230.125 61.045C229.885 60.298 229.184 57.5866 228.023 52.9106H225.664L225.923 50.854L223.21 50.7877L224.115 46.6859H226.583L226.185 50.347H230.022L230.598 45.1017H224.483L224.771 43.866L220.926 43.8746ZM215.397 43.8516H211.759L210.438 51.1247H214.294L215.066 46.4958L216.166 46.4325L215.374 51.1247H218.79L219.386 46.6744V44.9317H215.267L215.397 43.8516Z" fill="#EDB611"/>
<path d="M173.659 61.7125L168.812 50.2051L164.933 59.3534H169.273L170.376 61.7125H160.414L166.851 46.5469H170.75L177.184 61.7125H173.659Z" fill="#EDB611"/>
<path d="M184.541 46.5312H181.016V61.717H184.541V46.5312Z" fill="#EDB611"/>
</g>
<defs>
<clipPath id="clip0_1160_54982">
<rect width="162" height="42" fill="white" transform="translate(69 29)"/>
</clipPath>
</defs>
</svg>
