<svg width="300" height="100" viewBox="0 0 300 100" fill="none" xmlns="http://www.w3.org/2000/svg">
<g clip-path="url(#clip0_1160_54943)">
<path fill-rule="evenodd" clip-rule="evenodd" d="M107.959 35.7386C108.11 35.7084 108.246 35.6293 108.345 35.514C108.445 35.3986 108.502 35.2537 108.508 35.1025C108.514 34.9941 108.492 34.8858 108.444 34.7879C108.396 34.6901 108.324 34.6059 108.233 34.5436C107.961 34.3693 107.636 34.2943 107.313 34.3316C106.974 34.3142 106.634 34.3142 106.295 34.3316V36.9914H106.961V35.9313H107.254C107.587 35.9313 107.763 36.0663 107.803 36.3361C107.837 36.5647 107.91 36.7861 108.018 36.9914H108.664C108.572 36.7818 108.506 36.5616 108.468 36.3361C108.351 36.0277 108.214 35.8157 107.959 35.7386ZM107.215 35.5458H106.961V34.7749H107.313C107.705 34.7749 107.881 34.9291 107.881 35.1604C107.881 35.3917 107.568 35.5458 107.215 35.5458ZM57.3418 51.6785C57.3418 47.0141 63.9602 42.9279 73.8096 40.7307C72.1192 42.5419 71.1644 44.9018 71.1269 47.361C71.1269 53.5674 77.3146 58.598 84.9513 58.598C92.588 58.598 98.7756 53.5674 98.7756 47.361C98.7332 44.7183 97.6359 42.1981 95.721 40.3452C95.5525 41.0164 95.1785 41.6205 94.6496 42.0756C94.1207 42.5307 93.4626 42.8147 92.7642 42.8894C93.592 43.8626 94.049 45.0895 94.0566 46.3588C94.0566 49.8089 90.6299 52.6037 86.4003 52.6037C82.1708 52.6037 78.7245 49.8089 78.7245 46.3588C78.7245 42.9087 82.1512 40.1332 86.4003 40.1332C87.3106 40.128 88.216 40.2647 89.0829 40.5379C88.9753 40.214 88.9159 39.8764 88.9067 39.5356C88.9021 39.0332 89.0103 38.536 89.2235 38.0796C89.4368 37.6231 89.7499 37.2186 90.1403 36.8951C88.4654 36.3552 86.7137 36.082 84.9513 36.0855H83.4631C64.4106 36.0855 48.9414 42.9858 48.9414 51.505C48.9414 60.0243 64.4106 66.9245 83.4631 66.9245C91.854 67.0934 100.189 65.5444 107.94 62.3758C102.213 63.68 96.3514 64.3268 90.4732 64.3032C72.2039 64.361 57.3418 58.6751 57.3418 51.6785ZM107.352 33.0402C106.82 33.0516 106.302 33.2177 105.865 33.5177C105.428 33.8177 105.091 34.2381 104.896 34.7261C104.701 35.2141 104.657 35.748 104.77 36.2606C104.882 36.7732 105.146 37.2417 105.528 37.6071C105.91 37.9725 106.393 38.2186 106.917 38.3145C107.441 38.4103 107.982 38.3516 108.472 38.1458C108.962 37.9399 109.379 37.5961 109.671 37.1575C109.963 36.7189 110.117 36.2052 110.113 35.6808C110.111 35.3265 110.036 34.9763 109.895 34.6507C109.753 34.3251 109.546 34.0307 109.287 33.7847C109.028 33.5387 108.722 33.3462 108.386 33.2183C108.051 33.0905 107.692 33.0299 107.333 33.0402H107.352ZM107.352 37.801C106.819 37.7507 106.324 37.5067 105.963 37.1164C105.603 36.7262 105.403 36.2178 105.403 35.6904C105.403 35.1631 105.603 34.6546 105.963 34.2644C106.324 33.8741 106.819 33.6301 107.352 33.5799C107.631 33.5823 107.906 33.6394 108.162 33.7478C108.418 33.8562 108.649 34.0137 108.842 34.2111C109.035 34.4085 109.187 34.6419 109.287 34.8975C109.388 35.1532 109.436 35.426 109.428 35.7C109.433 35.9707 109.383 36.2396 109.281 36.4909C109.179 36.7422 109.026 36.9707 108.833 37.163C108.639 37.3553 108.409 37.5074 108.154 37.6104C107.9 37.7133 107.627 37.765 107.352 37.7624V37.801ZM179.176 39.7284V38.3985H172.93V39.7284H163.57V38.3985H157.343V39.7284H153.133V41.8293H183.151V39.6898L179.176 39.7284ZM119.258 45.7805L121.216 51.3123H127.227L125.054 45.7805H119.258ZM126.816 44.2386L124.584 39.0538H118.709L120.667 44.2L126.816 44.2386ZM173.008 53.8758L175.495 49.5776L177.805 54.0107H182.583L179.313 48.2284V46.8406H171.481V48.2284L168.191 53.8951L173.008 53.8758ZM171.677 55.0323H164.588V56.1694H153.114V58.0969H164.588V65.2477H171.677V58.0969H183.112V56.1694H171.677V55.0323ZM164.725 42.6774V43.6989H153.623V45.7998H182.74V43.7567H171.814V42.6774H164.725ZM118.122 64.9007H124.349L127.364 53.0855H121.49L118.122 64.9007ZM157.01 46.7828V48.1706L153.623 53.9529H158.44L161.142 49.115L163.1 53.7794H167.662L165.156 48.1127V46.725L157.01 46.7828ZM135.471 41.3667H147.787V39.0538H128.5V64.9393H148.081V62.6263H135.451L135.471 41.3667Z" fill="#1D24AA"/>
<path d="M195.838 61.0812H209.252V63.1243H195.838V61.0812ZM195.838 56.8409H209.252V58.9225H195.838V56.8409ZM188.163 54.6822V65.3023H216.966V62.6039V54.7014L188.163 54.6822ZM210.074 42.308H211.562V51.9452H210.074V42.308ZM204.2 40.1493V54.0268H217.652V40.1493H204.2ZM187.986 38.4917L187.242 44.4089H192.216L192.451 42.4815H192.764V46.1436H187.242V48.3023H191.472L187.242 54.0846H193.704L195.662 51.4633L196.954 54.0846H203.299L200.44 48.3023H203.299V46.1436H199.265V42.5007H202.711V40.3806H192.705L192.94 38.4531L187.986 38.4917Z" fill="#1D24AA"/>
<path d="M238.155 52.6057V65.5003H251.059V63.3415H245.185V57.9833L251.059 56.6533V54.4946L245.185 55.8245V52.6057H238.155ZM228.051 55.9016H231.066V58.6964H228.051V55.9016ZM228.051 51.2758H231.066V53.7429H228.051V51.2758ZM222.177 49.117V65.3846H228.051V60.8551H231.066V63.3415L233.984 65.3846L236.921 62.6862V49.1941L222.177 49.117ZM223.469 38.5547L221.863 48.0377H234.239L230.322 45.8597H228.364L229.676 38.5547H223.469ZM238.135 38.5547V51.4493H251.039V49.2712H245.165V44.6068L251.039 43.2769V41.176L245.165 42.5059V38.6511L238.135 38.5547Z" fill="#1D24AA"/>
<path d="M236.646 45.8594H228.344V48.0181H236.646V45.8594Z" fill="#1D24AA"/>
<path d="M237.725 48.0177H231.752L230.812 42.3125H236.785L237.725 48.0177Z" fill="#1D24AA"/>
<path d="M236.843 60.6562H231.008V65.3785H236.843V60.6562Z" fill="#1D24AA"/>
</g>
<defs>
<clipPath id="clip0_1160_54943">
<rect width="202" height="34" fill="white" transform="translate(49 33)"/>
</clipPath>
</defs>
</svg>
