<svg width="300" height="100" viewBox="0 0 300 100" fill="none" xmlns="http://www.w3.org/2000/svg">
<g clip-path="url(#clip0_1160_54875)">
<path d="M93 36.6875V41.6268H105.884L93 52.7109V57.6502H113.867V52.7109H101.1L113.867 41.6268V36.6875H93Z" fill="#0086D1"/>
<path d="M185.562 52.75H173.878V49.619H185.562V44.7188H173.878V41.5905H185.562V36.6875H168.867V57.6502H185.562V52.75Z" fill="#0086D1"/>
<path d="M133.021 49.8227L127.179 36.6875H122.168V57.6502H127.179V48.3018L131.46 57.6502H134.585L138.863 48.3018V57.6502H143.874V36.6875H138.863L133.021 49.8227Z" fill="#0086D1"/>
<path d="M156.369 49.8227L150.524 36.6875H145.516V57.6502H150.524V48.3018L154.805 57.6502H157.93L162.21 48.3018V57.6502H167.219V36.6875H162.21L156.369 49.8227Z" fill="#0086D1"/>
<path d="M118.016 36.6907H115.516V57.6422H120.516V36.6907H118.016ZM115.516 35.0359H120.516V30.0156H115.516V35.0359Z" fill="#0086D1"/>
<path d="M206.631 42.5142C206.465 40.9156 205.715 39.4354 204.526 38.3594C203.338 37.2834 201.795 36.6878 200.195 36.6875H187.211V57.6391H192.211V49.5464H196.414L201.372 57.6391H206.992L201.781 49.4906C205.025 48.8041 206.973 45.8266 206.631 42.5142ZM200.114 44.8387H192.219V41.4315H200.114C200.343 41.4222 200.571 41.4594 200.784 41.5408C200.998 41.6222 201.193 41.7462 201.358 41.9053C201.523 42.0644 201.654 42.2554 201.744 42.4667C201.834 42.678 201.88 42.9054 201.88 43.1351C201.88 43.3648 201.834 43.5922 201.744 43.8035C201.654 44.0148 201.523 44.2058 201.358 44.3649C201.193 44.524 200.998 44.648 200.784 44.7294C200.571 44.8109 200.343 44.848 200.114 44.8387Z" fill="#0086D1"/>
<path d="M199.917 60.7735C199.505 61.3501 199.246 62.0222 199.164 62.7269V69.801H199.917V65.2803C202.1 68.3778 206.956 66.8263 206.956 63.0283C206.956 59.2303 202.1 57.6788 199.917 60.7735ZM206.114 63.779C205.965 64.3815 205.642 64.9262 205.185 65.3442C204.728 65.7622 204.158 66.0347 203.547 66.1274C202.936 66.22 202.312 66.1286 201.752 65.8646C201.193 65.6006 200.724 65.176 200.405 64.6444C200.086 64.1128 199.931 63.4981 199.959 62.878C199.988 62.2578 200.199 61.6601 200.566 61.1604C200.932 60.6607 201.438 60.2814 202.019 60.0705C202.601 59.8596 203.231 59.8265 203.831 59.9754C204.229 60.0744 204.605 60.2513 204.935 60.4961C205.266 60.7408 205.545 61.0486 205.757 61.4018C205.969 61.7551 206.11 62.1468 206.171 62.5547C206.232 62.9626 206.213 63.3786 206.114 63.779Z" fill="#0086D1"/>
<path d="M168.512 63.0282C168.512 66.8261 173.365 68.3777 175.548 65.2801V66.1173C175.548 69.5692 170.803 70.4901 169.52 67.2866H168.723C170.056 71.5338 176.295 70.5683 176.301 66.1173V62.7184C176.221 62.0133 175.961 61.3406 175.548 60.765C173.365 57.6703 168.512 59.2246 168.512 63.0198M175.473 63.4998C175.378 64.113 175.104 64.6842 174.686 65.1412C174.268 65.5981 173.725 65.9204 173.124 66.0672C172.524 66.2141 171.894 66.1789 171.314 65.9661C170.733 65.7533 170.229 65.3725 169.864 64.8718C169.499 64.371 169.29 63.7729 169.263 63.1528C169.236 62.5328 169.393 61.9187 169.714 61.3881C170.034 60.8576 170.504 60.4344 171.064 60.172C171.624 59.9096 172.248 59.8198 172.859 59.9139C173.265 59.9765 173.655 60.119 174.006 60.3332C174.358 60.5474 174.664 60.8291 174.906 61.1621C175.149 61.4952 175.324 61.8731 175.421 62.2743C175.519 62.6754 175.536 63.0918 175.473 63.4998Z" fill="#0086D1"/>
<path d="M185.911 59.1252C185.118 59.1252 184.343 59.3615 183.684 59.8041C183.024 60.2467 182.511 60.8757 182.207 61.6117C181.904 62.3477 181.825 63.1575 181.98 63.9387C182.134 64.7199 182.516 65.4374 183.077 66.0004C183.638 66.5634 184.353 66.9467 185.13 67.1018C185.908 67.2569 186.714 67.1767 187.447 66.8715C188.179 66.5663 188.805 66.0497 189.245 65.3872C189.685 64.7246 189.92 63.9458 189.919 63.1493C189.92 62.6205 189.816 62.0968 189.615 61.6083C189.413 61.1197 189.118 60.6758 188.746 60.3021C188.373 59.9283 187.931 59.6319 187.445 59.43C186.958 59.2281 186.437 59.1245 185.911 59.1252ZM185.911 66.4226C185.266 66.4226 184.636 66.2306 184.1 65.8709C183.565 65.5113 183.147 65 182.9 64.4019C182.654 63.8038 182.589 63.1456 182.715 62.5107C182.841 61.8757 183.151 61.2924 183.607 60.8346C184.062 60.3769 184.643 60.0651 185.275 59.9388C185.907 59.8125 186.562 59.8773 187.158 60.1251C187.753 60.3728 188.262 60.7924 188.62 61.3307C188.978 61.869 189.169 62.5018 189.169 63.1493C189.169 64.0174 188.826 64.85 188.215 65.4639C187.604 66.0777 186.775 66.4226 185.911 66.4226Z" fill="#0086D1"/>
<path d="M177.719 61.8793V67.0083H178.472V61.8793C178.472 61.3901 178.665 60.9209 179.009 60.575C179.354 60.229 179.821 60.0347 180.308 60.0347H181.872V59.2813H180.308C179.622 59.2812 178.963 59.5549 178.478 60.042C177.993 60.5292 177.719 61.19 177.719 61.8793Z" fill="#0086D1"/>
<path d="M197.19 63.7183C197.202 64.0801 197.141 64.4406 197.011 64.7783C196.881 65.1161 196.685 65.4241 196.435 65.6842C196.184 65.9443 195.884 66.1511 195.552 66.2923C195.22 66.4336 194.863 66.5063 194.503 66.5063C194.142 66.5063 193.786 66.4336 193.454 66.2923C193.122 66.1511 192.822 65.9443 192.571 65.6842C192.32 65.4241 192.124 65.1161 191.995 64.7783C191.865 64.4406 191.804 64.0801 191.815 63.7183V59.2812H191.062V63.7155C191.062 64.6317 191.425 65.5104 192.07 66.1583C192.715 66.8062 193.589 67.1702 194.501 67.1702C195.414 67.1702 196.288 66.8062 196.933 66.1583C197.578 65.5104 197.94 64.6317 197.94 63.7155V59.2812H197.19V63.7183Z" fill="#0086D1"/>
</g>
<defs>
<clipPath id="clip0_1160_54875">
<rect width="114" height="40" fill="white" transform="translate(93 30)"/>
</clipPath>
</defs>
</svg>
