<svg width="300" height="100" viewBox="0 0 300 100" fill="none" xmlns="http://www.w3.org/2000/svg">
<g clip-path="url(#clip0_1160_54853)">
<path d="M203.645 62.8144L202.87 61.4929H202.22V62.8144H201.93V59.7812H202.809C203.376 59.7812 203.792 60.0503 203.792 60.606C203.813 60.795 203.763 60.9851 203.651 61.1411C203.538 61.2971 203.372 61.4084 203.181 61.4545L204.002 62.8144H203.645ZM202.763 60.0237H202.22V61.2564H202.766C202.86 61.2689 202.955 61.261 203.045 61.2335C203.135 61.2059 203.217 61.1594 203.287 61.0971C203.356 61.0349 203.41 60.9586 203.445 60.8737C203.48 60.7887 203.495 60.6973 203.489 60.606C203.489 60.2158 203.16 60.0237 202.763 60.0237Z" fill="#0074BE"/>
<path d="M202.697 63.586C203 63.5861 203.3 63.5285 203.579 63.4164C203.859 63.3043 204.113 63.1399 204.327 62.9327C204.648 62.6204 204.867 62.2228 204.956 61.7903C205.044 61.3577 204.998 60.9095 204.824 60.5022C204.649 60.0948 204.354 59.7466 203.976 59.5016C203.597 59.2565 203.152 59.1254 202.697 59.125C202.101 59.146 201.536 59.3902 201.122 59.8062C200.708 60.2222 200.477 60.7776 200.477 61.3555C200.477 61.9334 200.708 62.4888 201.122 62.9048C201.536 63.3208 202.101 63.565 202.697 63.586ZM200.542 61.3599C200.563 60.8196 200.8 60.3082 201.202 59.9331C201.604 59.558 202.14 59.3484 202.699 59.3484C203.257 59.3484 203.794 59.558 204.196 59.9331C204.598 60.3082 204.834 60.8196 204.855 61.3599C204.866 61.6408 204.818 61.921 204.715 62.1836C204.611 62.4462 204.454 62.6859 204.253 62.8884C204.052 63.0908 203.81 63.2519 203.543 63.3619C203.276 63.4719 202.989 63.5286 202.699 63.5286C202.408 63.5286 202.121 63.4719 201.854 63.3619C201.587 63.2519 201.346 63.0908 201.144 62.8884C200.943 62.6859 200.786 62.4462 200.683 62.1836C200.579 61.921 200.531 61.6408 200.542 61.3599Z" fill="#0074BE"/>
<path d="M95 50.0036C94.9963 46.535 96.088 43.1483 98.1286 40.298C100.169 37.4476 103.061 35.27 106.416 34.0573C109.772 32.8446 113.43 32.6549 116.899 33.5136C120.369 34.3724 123.484 36.2384 125.828 38.8614H114.553C113.155 38.8614 111.62 39.7897 110.89 40.5199C110.161 41.2501 103.058 48.1352 102.127 48.9778C101.196 49.8203 100.531 50.0036 99.3128 50.0036H95ZM102.713 54.8578C103.934 54.8578 104.602 54.7277 105.527 53.8852C106.452 53.0426 113.533 46.2255 114.293 45.4362C115.004 44.6941 116.555 43.754 117.956 43.754H128.944C128.445 42.5526 127.808 41.4092 127.046 40.3455H118.643C117.518 40.3806 116.447 40.8226 115.642 41.5841C114.956 42.2286 107.67 49.2704 106.977 49.9622C106.509 50.4635 105.935 50.8612 105.294 51.128C104.653 51.3949 103.96 51.5246 103.262 51.5083H95.0641C95.1685 52.6503 95.3987 53.7781 95.7509 54.8726L102.713 54.8578ZM106.486 59.8007C107.707 59.8007 108.375 59.6203 109.303 58.7719C110.371 57.7904 117.22 51.0176 118.06 50.1455C118.777 49.4064 120.325 48.49 121.722 48.49H130.098C130.001 47.3744 129.78 46.2722 129.439 45.2026H122.44C121.296 45.2503 120.206 45.688 119.363 46.4383C118.582 47.1449 111.458 54.0921 110.719 54.7868C110.265 55.2909 109.701 55.6908 109.067 55.9577C108.434 56.2246 107.747 56.3518 107.056 56.33H96.2636C96.7778 57.5561 97.4396 58.719 98.2354 59.7947L106.486 59.8007ZM99.4654 61.2788C101.114 63.0734 103.135 64.5103 105.397 65.4951C107.659 66.4799 110.11 66.9905 112.59 66.9932C122.235 66.9932 130.064 59.2774 130.156 49.9888H125.855C124.704 50.0091 123.603 50.4518 122.775 51.2275C122.141 51.872 114.885 59.0911 114.211 59.7386C113.728 60.2362 113.144 60.6308 112.495 60.897C111.845 61.1633 111.146 61.2953 110.441 61.2847L99.4654 61.2788ZM154.034 52.0198C153.39 50.9703 152.562 49.3591 148.845 48.4456C144.959 47.4878 143.39 47.1212 142.346 46.8995C141.303 46.6778 139.627 46.1427 139.627 43.9639C139.627 41.9685 141.672 40.9131 143.836 40.9131C145.921 40.9131 148.671 41.7763 149.107 44.9011H154.034V52.0198ZM180.017 37.5548H171.7L167.021 55.0558L162.342 37.5548H154.021V43.1717C151.491 36.6679 145.896 36.4048 144.199 36.4048C136.926 36.4048 134.313 40.8096 134.313 44.0467C134.313 49.2557 138.76 50.8461 139.981 51.1418C141.028 51.3989 146.296 52.6199 147.328 52.9155C148.601 53.291 149.611 54.3582 149.611 55.6885C149.611 56.9449 148.601 59.0439 144.776 59.0439C140.952 59.0439 139.132 57.0188 138.821 54.5828H133.678C133.678 54.5828 133.486 63.5758 145.09 63.5758C150.05 63.5758 152.657 61.5655 154.034 59.437V62.6328H159.222L159.015 43.7895L164.405 62.6328H169.667L175.033 43.8161L174.825 62.6594H180.014V57.9885C181.196 60.315 183.933 63.6054 189.849 63.6054C196.521 63.6054 199.839 59.5967 200.409 54.5562H195.434C195.08 57.0099 192.815 58.9906 189.879 58.9906C189.061 58.9906 183.241 58.559 183.241 49.9592C183.241 44.0467 186.375 40.6707 189.858 40.6707C190.96 40.6707 194.632 41.1171 195.135 45.3386H200.061C199.686 39.2871 194.567 36.3959 189.864 36.3959C184.336 36.3959 181.26 39.2014 180.017 41.4984V37.5548Z" fill="#0074BE"/>
</g>
<defs>
<clipPath id="clip0_1160_54853">
<rect width="110" height="34" fill="white" transform="translate(95 33)"/>
</clipPath>
</defs>
</svg>
