<svg width="300" height="100" viewBox="0 0 300 100" fill="none" xmlns="http://www.w3.org/2000/svg">
<g clip-path="url(#clip0_1160_54858)">
<path d="M172.173 38.8281H149.615C149.17 38.8281 148.744 39.0039 148.429 39.3167C148.114 39.6295 147.938 40.0537 147.938 40.4961V43.6158C147.937 43.7281 147.981 43.8361 148.059 43.9172C148.137 43.9984 148.243 44.0466 148.356 44.0516H157.649V60.7315C157.649 60.8471 157.695 60.958 157.777 61.0397C157.86 61.1215 157.971 61.1674 158.087 61.1674H161.226C161.67 61.1674 162.096 60.992 162.41 60.6798C162.724 60.3676 162.9 59.9442 162.9 59.5027V44.0516H170.983C171.419 44.0389 171.833 43.858 172.137 43.5472C172.441 43.2365 172.611 42.8204 172.612 42.3869V39.2705C172.612 39.213 172.601 39.156 172.579 39.1027C172.558 39.0495 172.525 39.001 172.485 38.9602C172.444 38.9194 172.395 38.887 172.342 38.8649C172.288 38.8428 172.231 38.8314 172.173 38.8314" fill="#533F96"/>
<path d="M112.634 51.1083L98.8122 45.8454C98.6122 45.7647 98.4462 45.618 98.3421 45.4299C98.2381 45.2418 98.2025 45.0238 98.2412 44.8127C98.2799 44.6015 98.3906 44.41 98.5546 44.2705C98.7186 44.1309 98.926 44.0518 99.1419 44.0464H113.254C113.663 44.0038 114.042 43.8133 114.318 43.5112C114.595 43.209 114.75 42.8164 114.754 42.4079V39.2751C114.754 39.1586 114.708 39.0469 114.625 38.9646C114.542 38.8822 114.43 38.836 114.312 38.836H94.2697C93.0612 38.8326 91.8881 39.2419 90.9468 39.9954C90.0056 40.7488 89.3531 41.8008 89.0987 42.9753C88.8443 44.1497 89.0033 45.3754 89.5491 46.4472C90.0949 47.5191 90.9945 48.3721 92.0973 48.8636L106.002 54.1559C106.199 54.2414 106.36 54.391 106.46 54.5802C106.559 54.7693 106.591 54.9865 106.549 55.1959C106.508 55.4054 106.396 55.5944 106.231 55.7318C106.067 55.8693 105.861 55.9468 105.646 55.9517H90.5249C90.4672 55.9513 90.4099 55.9622 90.3566 55.984C90.3032 56.0057 90.2547 56.0378 90.2139 56.0784C90.1731 56.1189 90.1408 56.1671 90.1189 56.2202C90.097 56.2733 90.086 56.3302 90.0864 56.3875V59.5007C90.0864 59.9422 90.2629 60.3656 90.5769 60.6778C90.891 60.99 91.3169 61.1654 91.761 61.1654H110.551C111.764 61.1631 112.939 60.7454 113.878 59.9827C114.817 59.2201 115.463 58.159 115.707 56.9781C115.952 55.7973 115.779 54.5689 115.219 53.4997C114.658 52.4306 113.745 51.586 112.631 51.1083" fill="#533F96"/>
<path d="M145.313 49.0581V45.7254C145.313 43.9003 144.584 42.1499 143.285 40.8593C141.987 39.5688 140.226 38.8438 138.39 38.8438H118.892C118.834 38.8437 118.776 38.8551 118.723 38.8772C118.67 38.8993 118.621 38.9317 118.58 38.9726C118.54 39.0134 118.507 39.0618 118.486 39.1151C118.464 39.1683 118.453 39.2254 118.453 39.2829V60.7472C118.453 60.8045 118.464 60.8614 118.486 60.9145C118.507 60.9675 118.54 61.0158 118.581 61.0563C118.621 61.0969 118.67 61.129 118.723 61.1507C118.777 61.1725 118.834 61.1834 118.892 61.183H122.027C122.471 61.183 122.897 61.0076 123.211 60.6954C123.525 60.3832 123.701 59.9598 123.701 59.5183V44.0574H138.377C138.822 44.0574 139.248 44.2327 139.562 44.5448C139.877 44.8569 140.054 45.2803 140.055 45.7222V49.0549C140.055 49.2739 140.012 49.4908 139.927 49.6932C139.843 49.8955 139.719 50.0794 139.564 50.2343C139.408 50.3892 139.223 50.5121 139.019 50.5959C138.816 50.6797 138.598 50.7228 138.377 50.7228H128.089C128.006 50.7237 127.924 50.7482 127.855 50.7933C127.785 50.8384 127.729 50.9024 127.695 50.9776C127.66 51.0529 127.648 51.1364 127.659 51.2184C127.671 51.3003 127.705 51.3774 127.759 51.4405L136.465 60.6161C136.622 60.7925 136.815 60.9338 137.031 61.0304C137.247 61.127 137.481 61.1768 137.718 61.1765H143.216C143.333 61.1765 143.444 61.1305 143.526 61.0488C143.609 60.9671 143.655 60.8562 143.655 60.7406C143.656 60.6797 143.645 60.6191 143.622 60.5627C143.598 60.5063 143.564 60.4553 143.52 60.4129L139.234 55.8939C140.919 55.6955 142.473 54.8886 143.599 53.6266C144.725 52.3646 145.346 50.7353 145.343 49.0483" fill="#533F96"/>
<path d="M179.813 47.5015C180.014 46.0629 180.294 45.6206 179.517 43.8969C178.857 42.4189 178.369 40.2463 178.05 41.1376C177.628 42.3141 178.073 45.65 178.472 46.974C179.098 49.0811 179.658 48.5928 179.813 47.4884" fill="#533F96"/>
<path d="M191.562 33.558C192.455 32.3848 194.199 31.3231 192.613 31.0117C191.4 30.7725 187.243 34.2691 187.243 34.2691C186.667 34.7541 186.812 35.1047 187.573 35.049L189.34 34.9212C190.088 34.8655 190.949 34.446 191.245 33.9872L191.562 33.558Z" fill="#533F96"/>
<path d="M184.963 43.0901C185.952 43.0901 186.994 42.9885 187.452 42.1725C188.059 41.0911 188.273 39.8229 188.771 38.6858C189.193 37.742 189.397 37.3095 189.397 37.3095C189.727 36.6278 189.358 36.1232 188.609 36.1756L186.437 36.3264C185.588 36.4359 184.815 36.8667 184.278 37.529C183.493 38.6318 182.83 39.815 182.3 41.0583C182.135 41.5007 181.861 42.3691 182.28 42.746C182.778 43.1818 184.588 43.0737 184.98 43.0737" fill="#533F96"/>
<path d="M210.649 37.3913C211.707 36.8637 210.105 35.4578 209.449 35.3038C208.163 34.9958 206.627 35.4415 206.627 35.4415C206.47 35.4693 206.323 35.5386 206.202 35.6419C206.081 35.7453 205.99 35.8791 205.938 36.0293C205.887 36.1795 205.877 36.3407 205.909 36.4961C205.942 36.6514 206.015 36.7954 206.123 36.9128L206.848 37.8959C207.08 38.1888 207.407 38.392 207.774 38.4704C208.14 38.5488 208.523 38.4974 208.856 38.3252C208.856 38.3252 209.624 37.9025 210.649 37.3913Z" fill="#533F96"/>
<path d="M191.421 44.6109C191.359 45.322 191.715 45.6465 192.347 46.5083C193.05 47.4619 193.712 48.5466 195.149 47.9076C196.185 47.4455 196.986 46.5968 197.826 45.8595C198.868 44.955 199.89 44.1587 199.89 44.1587C200.175 43.9316 200.361 43.6042 200.41 43.2444C200.459 42.8845 200.367 42.5197 200.154 42.2253L198.604 40.1345C198.378 39.8428 198.053 39.6421 197.69 39.5693C197.326 39.4964 196.949 39.5564 196.626 39.738C196.626 39.738 195.173 40.6032 193.884 41.5666C192.924 42.2843 191.576 43.0969 191.428 44.6109" fill="#533F96"/>
<path d="M205.441 40.2944C205.591 40.2054 205.721 40.0858 205.821 39.9433C205.922 39.8009 205.991 39.6389 206.024 39.468C206.057 39.2971 206.053 39.1212 206.013 38.9518C205.973 38.7825 205.897 38.6236 205.79 38.4855L204.93 37.3091C204.686 37.0092 204.355 36.791 203.983 36.6837C203.61 36.5765 203.214 36.5854 202.846 36.7094L200.104 37.8858C199.948 37.9491 199.809 38.0478 199.699 38.174C199.588 38.3003 199.509 38.4504 199.467 38.6126C199.425 38.7747 199.423 38.9443 199.459 39.1078C199.495 39.2712 199.569 39.424 199.675 39.5538L201.122 41.5003C201.341 41.7922 201.665 41.9891 202.026 42.0501C202.386 42.1111 202.757 42.0316 203.061 41.828L205.441 40.2944Z" fill="#533F96"/>
<path d="M179.813 52.4985C180.014 53.9404 180.294 54.3828 179.517 56.1032C178.857 57.5811 178.369 59.7538 178.05 58.8591C177.628 57.6827 178.073 54.35 178.472 53.0228C179.098 50.9157 179.658 51.4073 179.813 52.5083" fill="#533F96"/>
<path d="M210.649 62.6099C211.707 63.1375 210.105 64.5466 209.449 64.7007C208.163 65.0054 206.627 64.563 206.627 64.563C206.47 64.5352 206.323 64.4659 206.202 64.3625C206.081 64.2592 205.99 64.1254 205.938 63.9752C205.887 63.825 205.877 63.6638 205.909 63.5084C205.942 63.353 206.015 63.2091 206.123 63.0917L206.848 62.1086C207.079 61.8145 207.406 61.6098 207.772 61.5296C208.139 61.4495 208.522 61.4989 208.856 61.6694C208.856 61.6694 209.624 62.0889 210.649 62.6001" fill="#533F96"/>
<path d="M191.421 55.3962C191.359 54.6851 191.715 54.3607 192.347 53.4989C193.05 52.542 193.712 51.4573 195.149 52.0996C196.185 52.5616 196.986 53.4104 197.826 54.1477C198.868 55.0489 199.89 55.8485 199.89 55.8485C200.175 56.0756 200.361 56.403 200.41 56.7628C200.459 57.1227 200.367 57.4875 200.154 57.7819L198.604 59.8726C198.377 60.1638 198.053 60.3641 197.69 60.4369C197.326 60.5097 196.949 60.4501 196.626 60.2691C196.626 60.2691 195.173 59.4007 193.884 58.4406C192.924 57.7229 191.576 56.9102 191.428 55.3962" fill="#533F96"/>
<path d="M205.441 59.7124C205.591 59.8014 205.721 59.921 205.821 60.0635C205.922 60.2059 205.991 60.3679 206.024 60.5388C206.057 60.7097 206.053 60.8856 206.013 61.055C205.973 61.2243 205.897 61.3832 205.79 61.5213L204.93 62.6813C204.687 62.9819 204.356 63.2008 203.983 63.3081C203.611 63.4154 203.214 63.4059 202.846 63.281L200.104 62.1079C199.948 62.0446 199.809 61.9458 199.699 61.8196C199.588 61.6934 199.509 61.5432 199.467 61.3811C199.425 61.219 199.423 61.0494 199.459 60.8859C199.495 60.7225 199.569 60.5697 199.675 60.4399L201.122 58.4737C201.342 58.1832 201.665 57.9873 202.026 57.9264C202.386 57.8654 202.757 57.944 203.061 58.146L205.441 59.7124Z" fill="#533F96"/>
<path d="M191.562 66.4422C192.455 67.6121 194.199 68.6771 192.613 68.9884C191.4 69.2243 187.243 65.7311 187.243 65.7311C186.667 65.2461 186.812 64.8954 187.573 64.9511L189.34 65.0789C190.088 65.1314 190.949 65.5541 191.245 66.0096L191.562 66.4422Z" fill="#533F96"/>
<path d="M184.964 56.9102C185.953 56.9102 186.994 57.015 187.453 57.8277C188.059 58.9124 188.273 60.1773 188.771 61.3177C189.193 62.2615 189.397 62.6941 189.397 62.6941C189.727 63.3724 189.358 63.8803 188.61 63.8279L186.417 63.6673C185.569 63.5578 184.795 63.127 184.258 62.4647C183.474 61.3619 182.811 60.1787 182.28 58.9354C182.115 58.493 181.842 57.6082 182.261 57.2444C182.758 56.8151 184.568 56.9167 184.96 56.9167" fill="#533F96"/>
</g>
<defs>
<clipPath id="clip0_1160_54858">
<rect width="122" height="38" fill="white" transform="translate(89 31)"/>
</clipPath>
</defs>
</svg>
