<svg width="300" height="100" viewBox="0 0 300 100" fill="none" xmlns="http://www.w3.org/2000/svg">
<g clip-path="url(#clip0_1160_54838)">
<path d="M137.187 51.9969C137.187 61.7951 134.665 69.8662 119.861 69.8662H118.821C104.201 69.8662 101.5 61.7951 101.5 51.9969V47.7397C101.5 37.9415 103.592 30 118.821 30H119.861C134.275 30 137.187 37.9456 137.187 47.7397V51.9969Z" fill="#4D9AD4"/>
<path d="M124.657 47.2228C122.732 47.2228 121.243 47.6996 120.19 48.653V45.4999C120.19 40.7604 118.053 38.3906 113.781 38.3906C109.508 38.3906 107.363 40.7604 107.344 45.4999V51.0576C107.344 55.7748 109.489 58.1348 113.781 58.1376C115.676 58.1376 117.159 57.6651 118.228 56.7199V61.387H120.904V54.2944C120.904 52.8503 121.137 51.809 121.603 51.1706C122.193 50.3676 123.206 49.9662 124.641 49.9662C126.076 49.9662 127.079 50.3676 127.65 51.1706C128.116 51.8118 128.35 52.8531 128.353 54.2944V61.3786H131.058V54.3321C131.058 49.5926 128.924 47.2228 124.657 47.2228ZM117.481 51.066C117.481 52.5157 117.248 53.5612 116.782 54.2024C116.211 54.9914 115.208 55.3859 113.773 55.3859C112.338 55.3859 111.331 54.9886 110.751 54.1941C110.285 53.5333 110.053 52.4879 110.053 51.0576V45.479C110.053 44.032 110.285 42.9865 110.751 42.3425C111.339 41.534 112.351 41.1312 113.789 41.134C115.227 41.1367 116.23 41.5396 116.798 42.3425C117.264 42.9865 117.497 44.032 117.497 45.479L117.481 51.066Z" fill="white"/>
<path d="M147.346 50.1172C145.683 50.1172 144.535 50.3556 143.902 50.8323C143.664 51.0261 143.477 51.2769 143.356 51.5627C143.235 51.8486 143.184 52.1607 143.207 52.4716V61.4126H140.539V52.4884C140.539 49.0927 142.808 47.3934 147.346 47.3906V50.1172Z" fill="#8C939E"/>
<path d="M161.29 54.4162C161.29 59.0805 159.176 61.4126 154.946 61.4126C150.717 61.4126 148.593 59.0805 148.574 54.4162C148.574 49.7325 150.698 47.3906 154.946 47.3906C159.195 47.3906 161.309 49.7325 161.29 54.4162ZM158.618 54.4162C158.618 52.9819 158.386 51.9489 157.923 51.3091C157.36 50.5145 156.368 50.1172 154.946 50.1172C153.525 50.1172 152.531 50.5145 151.965 51.3091C151.502 51.9489 151.271 52.9819 151.271 54.4162C151.271 55.8506 151.502 56.8836 151.965 57.5192C152.529 58.2971 153.522 58.686 154.946 58.686C156.371 58.686 157.363 58.2971 157.923 57.5192C158.386 56.8836 158.618 55.8465 158.618 54.4162Z" fill="#8C939E"/>
<path d="M175.939 54.4218C175.939 59.0861 173.815 61.4182 169.567 61.4182C165.318 61.4182 163.204 59.0805 163.223 54.4051V41.8594H165.895V47.3962H169.55C173.809 47.3962 175.939 49.7381 175.939 54.4218ZM173.266 54.4218C173.266 52.9874 173.035 51.9545 172.572 51.3147C171.992 50.5201 170.991 50.1228 169.567 50.1228H165.911V54.4218C165.911 55.8353 166.143 56.8613 166.606 57.4997C167.169 58.2943 168.161 58.6916 169.583 58.6916C171.004 58.6916 172.006 58.2943 172.588 57.4997C173.04 56.8613 173.266 55.8353 173.266 54.4218Z" fill="#8C939E"/>
<path d="M189.685 54.4162C189.685 59.0805 187.57 61.4126 183.341 61.4126C179.112 61.4126 176.988 59.0805 176.969 54.4162C176.969 49.7325 179.093 47.3906 183.341 47.3906C187.589 47.3906 189.704 49.7325 189.685 54.4162ZM187.012 54.4162C187.012 52.9819 186.785 51.9489 186.322 51.3091C185.759 50.5145 184.765 50.1172 183.341 50.1172C181.917 50.1172 180.923 50.5145 180.36 51.3091C179.901 51.9489 179.67 52.9819 179.67 54.4162C179.67 55.8506 179.901 56.8836 180.36 57.5192C180.926 58.2971 181.919 58.686 183.341 58.686C184.762 58.686 185.756 58.2971 186.322 57.5192C186.785 56.8836 187.012 55.8465 187.012 54.4162Z" fill="#8C939E"/>
<path d="M198.498 61.4427C193.958 61.4427 191.689 59.7407 191.691 56.3366V41.8672H194.36V47.3915H198.498V50.1181H194.36V56.345C194.336 56.6577 194.387 56.9716 194.508 57.2595C194.629 57.5473 194.817 57.8004 195.054 57.9968C195.688 58.4736 196.836 58.7119 198.498 58.7119V61.4427Z" fill="#8C939E"/>
<path d="M171.115 66.4663C171.127 66.9909 171.038 67.5129 170.851 68.001C170.685 68.4196 170.426 68.7921 170.095 69.0883C169.748 69.3881 169.342 69.6077 168.905 69.7323C168.393 69.8839 167.862 69.9572 167.329 69.9498C167.061 69.9498 166.753 69.9498 166.395 69.9164C166.045 69.8924 165.696 69.8449 165.352 69.7742V63.1835C165.704 63.1145 166.061 63.0698 166.42 63.0496C166.793 63.0287 167.11 63.0162 167.374 63.0162C167.892 63.0087 168.409 63.0748 168.909 63.2127C169.341 63.3283 169.744 63.538 170.091 63.8275C170.425 64.1168 170.686 64.4857 170.851 64.9022C171.038 65.4005 171.128 65.9321 171.115 66.4663ZM166.834 68.62H167.078H167.403C167.701 68.6453 168.002 68.6072 168.285 68.5079C168.569 68.4086 168.83 68.2503 169.051 68.0429C169.238 67.8268 169.382 67.5747 169.474 67.3013C169.566 67.0279 169.605 66.7384 169.587 66.4495C169.629 66.1526 169.602 65.8497 169.508 65.5655C169.415 65.2813 169.258 65.0237 169.05 64.8136C168.842 64.6034 168.589 64.4467 168.311 64.356C168.033 64.2654 167.739 64.2433 167.451 64.2917H167.139C167.03 64.2917 166.929 64.3 166.834 64.3168V68.62Z" fill="#8C939E"/>
<path d="M173.641 65.6297C173.647 65.7548 173.627 65.8799 173.58 65.9957C173.534 66.1115 173.463 66.2151 173.373 66.2988C173.201 66.445 172.986 66.5251 172.763 66.5251C172.541 66.5251 172.325 66.445 172.154 66.2988C172.068 66.2113 172 66.1071 171.953 65.9923C171.907 65.8774 171.883 65.7542 171.883 65.6297C171.883 65.5053 171.907 65.382 171.953 65.2672C172 65.1523 172.068 65.0481 172.154 64.9606C172.325 64.8144 172.541 64.7344 172.763 64.7344C172.986 64.7344 173.201 64.8144 173.373 64.9606C173.463 65.0443 173.534 65.148 173.58 65.2638C173.627 65.3796 173.647 65.5046 173.641 65.6297ZM173.641 69.1007C173.647 69.2258 173.627 69.3508 173.58 69.4667C173.534 69.5825 173.463 69.6861 173.373 69.7698C173.201 69.916 172.986 69.9961 172.763 69.9961C172.541 69.9961 172.325 69.916 172.154 69.7698C172.068 69.6823 172 69.5781 171.953 69.4632C171.907 69.3484 171.883 69.2252 171.883 69.1007C171.883 68.9762 171.907 68.853 171.953 68.7382C172 68.6233 172.068 68.5191 172.154 68.4316C172.325 68.2854 172.541 68.2054 172.763 68.2054C172.986 68.2054 173.201 68.2854 173.373 68.4316C173.462 68.5149 173.533 68.6178 173.58 68.7328C173.626 68.8479 173.647 68.9721 173.641 69.0965V69.1007Z" fill="#8C939E"/>
<path d="M176.662 63.0079C177.449 62.9584 178.232 63.1427 178.92 63.539C179.188 63.7342 179.402 63.9982 179.54 64.3049C179.679 64.6116 179.736 64.9502 179.708 65.287C179.734 65.6286 179.673 65.9713 179.53 66.2809C179.388 66.5906 179.169 66.8563 178.896 67.0518C178.202 67.4529 177.411 67.6402 176.617 67.5913H176.15V69.8621H174.668V63.171C175.007 63.1021 175.35 63.056 175.695 63.033C176.069 63.0163 176.391 63.0079 176.662 63.0079ZM176.755 64.3085H176.439L176.167 64.3294V66.2823H176.634C177.03 66.3055 177.427 66.2325 177.791 66.0691C177.926 65.9895 178.037 65.8714 178.109 65.7291C178.181 65.5867 178.212 65.426 178.197 65.2661C178.203 65.1036 178.168 64.9422 178.096 64.7978C178.029 64.6737 177.931 64.571 177.811 64.5008C177.669 64.4269 177.515 64.3815 177.357 64.367C177.158 64.3309 176.957 64.3114 176.755 64.3085Z" fill="#8C939E"/>
<path d="M185.195 68.5553V69.8685H180.801V63.0938H182.283V68.5553H185.195Z" fill="#8C939E"/>
<path d="M192.224 66.4599C192.235 66.9819 192.149 67.5014 191.972 67.9904C191.823 68.4049 191.589 68.7815 191.285 69.0945C190.991 69.3942 190.636 69.624 190.246 69.7677C189.829 69.9174 189.391 69.9924 188.95 69.9894C188.517 69.9917 188.087 69.9167 187.679 69.7677C187.287 69.622 186.93 69.3925 186.631 69.0945C186.323 68.7824 186.083 68.4059 185.929 67.9904C185.749 67.5017 185.663 66.9822 185.673 66.4599C185.663 65.9378 185.754 65.4189 185.941 64.9335C186.101 64.5152 186.344 64.1363 186.656 63.8211C186.954 63.5235 187.309 63.294 187.699 63.1478C188.1 62.9965 188.523 62.92 188.95 62.922C189.384 62.919 189.814 62.9955 190.221 63.1478C190.612 63.2919 190.968 63.5216 191.265 63.8211C191.572 64.137 191.812 64.516 191.968 64.9335C192.147 65.4209 192.233 65.9389 192.224 66.4599ZM187.204 66.4599C187.199 66.7653 187.238 67.0699 187.322 67.3631C187.391 67.6123 187.507 67.8452 187.663 68.049C187.809 68.2384 187.995 68.3913 188.207 68.4964C188.441 68.5986 188.692 68.6512 188.946 68.6512C189.2 68.6512 189.451 68.5986 189.685 68.4964C189.901 68.3937 190.09 68.2404 190.238 68.049C190.39 67.8432 190.506 67.6109 190.579 67.3631C190.66 67.0695 190.7 66.7652 190.696 66.4599C190.699 66.1545 190.659 65.8504 190.579 65.5566C190.507 65.3059 190.391 65.0707 190.238 64.8624C190.09 64.6721 189.901 64.5203 189.685 64.4191C189.455 64.3112 189.204 64.2569 188.95 64.2602C188.694 64.2548 188.439 64.3106 188.207 64.4233C187.996 64.5314 187.81 64.6855 187.663 64.8749C187.505 65.0802 187.389 65.3164 187.322 65.5691C187.239 65.8582 187.199 66.1585 187.204 66.4599Z" fill="#8C939E"/>
<path d="M195.435 65.8675C195.703 65.4074 195.955 64.9433 196.199 64.4832C196.442 64.0232 196.662 63.5549 196.865 63.0907H198.489C198.129 63.8183 197.755 64.5251 197.368 65.2109C196.981 65.8967 196.575 66.584 196.15 67.2726V69.8654H194.672V67.2977C194.237 66.6077 193.831 65.9135 193.453 65.2067C193.075 64.5 192.69 63.8058 192.328 63.0781H194.046C194.249 63.5423 194.452 64.0107 194.7 64.4707C194.948 64.9307 195.171 65.4074 195.435 65.8675Z" fill="#8C939E"/>
</g>
<defs>
<clipPath id="clip0_1160_54838">
<rect width="97" height="40" fill="white" transform="translate(101.5 30)"/>
</clipPath>
</defs>
</svg>
