<svg width="300" height="100" viewBox="0 0 300 100" fill="none" xmlns="http://www.w3.org/2000/svg">
<g clip-path="url(#clip0_1160_54888)">
<path d="M62.4219 34.5813L65.5641 37.942L81.2697 33L62.4219 34.5813Z" fill="#004F65"/>
<path d="M62.4233 34.5781L53 50.7875L65.5656 37.9389L62.4233 34.5781Z" fill="#006381"/>
<path d="M53 50.7891L63.4059 66.9984L66.1535 61.2663L53 50.7891Z" fill="#0C4759"/>
<path d="M66.1538 61.2656L63.4062 66.9977H82.0573L66.1538 61.2656Z" fill="#1C6F87"/>
<path d="M85.5881 49.0156L90.1042 49.8069L82.0547 67.0044L85.5881 49.0156Z" fill="#006783"/>
<path d="M66.1562 61.2723L82.0597 67.0044L85.5932 49.0156L66.1562 61.2723Z" fill="#1AA9CE"/>
<path d="M65.5664 37.942L85.5913 49.0112L81.2719 33L65.5664 37.942Z" fill="#2282A0"/>
<path d="M81.2734 33L85.5927 49.0112L90.1088 49.8025L81.2734 33Z" fill="#004962"/>
<path d="M53 50.7861L65.5656 37.9375L66.1535 61.2633L53 50.7861Z" fill="#2C96B1"/>
<path d="M85.5913 49.0067L66.1543 61.2633L65.5664 37.9375L85.5913 49.0067Z" fill="#3CBEE8"/>
<path d="M111.283 53.6914H101.996L99.4972 60.0214H97.4609L105.554 39.9766H107.522L116.007 60.0214H113.863L111.283 53.6914ZM102.58 52.0093H110.645L106.53 41.9623L102.58 52.0093Z" fill="#0D75BD"/>
<path d="M116.781 39.9844H118.668V58.3436H128.715V60.0245H116.781V39.9844Z" fill="#0D75BD"/>
<path d="M143.178 45.2731L141.346 45.3552C141.155 42.5934 139.588 41.2126 136.647 41.2126C135.25 41.2126 134.127 41.5521 133.28 42.2312C132.432 42.9103 132.005 43.7738 131.999 44.8218C131.989 45.2575 132.072 45.6902 132.241 46.0911C132.411 46.492 132.664 46.8518 132.983 47.1463C133.639 47.7652 134.773 48.2411 136.385 48.574C137.996 48.907 139.281 49.2489 140.241 49.5997C141.196 49.9475 142.048 50.533 142.718 51.3018C143.411 52.0833 143.757 53.1402 143.757 54.4726C143.757 56.095 143.155 57.4829 141.951 58.6363C140.747 59.7898 139.005 60.3661 136.724 60.3653C132.189 60.3653 129.732 58.2464 129.352 54.0084L131.214 53.8302C131.359 55.4987 131.924 56.7428 132.911 57.5626C133.897 58.3823 135.124 58.7926 136.591 58.7934C138.147 58.7934 139.425 58.4128 140.426 57.6517C141.426 56.8905 141.926 55.8718 141.926 54.5957C141.932 54.1394 141.838 53.6875 141.653 53.271C141.468 52.8545 141.196 52.4834 140.854 52.1833C140.139 51.5222 138.773 51.0005 136.754 50.6184C134.147 50.1167 132.397 49.3966 131.505 48.458C130.614 47.5195 130.168 46.3621 130.169 44.9859C130.169 43.4362 130.737 42.1581 131.872 41.1516C133.008 40.1451 134.549 39.6414 136.495 39.6406C140.715 39.6406 142.943 41.5181 143.178 45.2731Z" fill="#0D75BD"/>
<path d="M145.012 50.003C145.012 47.0334 145.806 44.5635 147.394 42.5934C148.982 40.6233 151.274 39.6391 154.271 39.6406C157.268 39.6406 159.56 40.6296 161.148 42.6075C162.736 44.5854 163.53 47.0506 163.531 50.003C163.531 52.9726 162.734 55.4424 161.141 57.4125C159.548 59.3826 157.258 60.3669 154.272 60.3653C151.267 60.3653 148.972 59.3764 147.389 57.3985C145.806 55.4206 145.013 52.9554 145.012 50.003ZM161.575 50.003C161.575 47.2412 160.874 45.0859 159.472 43.5371C158.069 41.9882 156.335 41.2133 154.271 41.2126C152.244 41.2126 150.517 41.9714 149.091 43.489C147.665 45.0066 146.952 47.1779 146.952 50.003C146.952 52.8468 147.668 55.0228 149.098 56.531C150.529 58.0393 152.253 58.7934 154.271 58.7934C156.271 58.7934 157.989 58.0393 159.424 56.531C160.859 55.0228 161.576 52.8468 161.575 50.003Z" fill="#0D75BD"/>
<path d="M165.828 39.9844H167.715L179.256 57.305H179.352V39.9844H181.062V60.0292H179.067L167.607 42.8H167.552V60.0245H165.828V39.9844Z" fill="#0D75BD"/>
<path d="M182.516 39.9844H196.582V41.7427H190.499V60.0245H188.612V41.7474H182.516V39.9844Z" fill="#0D75BD"/>
<path d="M199.95 48.8807H209.997V50.5616H199.95V58.3404H211.192V60.0214H198.062V39.9766H210.798V41.6575H199.95V48.8807Z" fill="#0D75BD"/>
<path d="M229.566 45.5193L227.759 45.9975C226.628 42.8083 224.637 41.2133 221.786 41.2126C219.768 41.2126 218.039 41.9827 216.599 43.523C215.159 45.0633 214.44 47.2412 214.44 50.0569C214.44 52.7366 215.083 54.8626 216.368 56.4349C217.654 58.0072 219.357 58.7934 221.479 58.7934C224.801 58.7934 227.018 56.9433 228.132 53.243L229.857 53.7212C228.625 58.1499 225.87 60.3645 221.591 60.3653C218.695 60.3653 216.457 59.3764 214.877 57.3985C213.298 55.4206 212.508 52.9644 212.508 50.0299C212.508 46.84 213.379 44.3111 215.122 42.4434C216.864 40.5757 219.037 39.6414 221.641 39.6406C225.539 39.6406 228.181 41.6002 229.566 45.5193Z" fill="#0D75BD"/>
<path d="M233.653 48.6205H245.112V39.9812H247V60.0261H245.112V50.3026H233.653V60.0214H231.766V39.9766H233.653V48.6205Z" fill="#0D75BD"/>
</g>
<defs>
<clipPath id="clip0_1160_54888">
<rect width="194" height="34" fill="white" transform="translate(53 33)"/>
</clipPath>
</defs>
</svg>
