<svg width="300" height="100" viewBox="0 0 300 100" fill="none" xmlns="http://www.w3.org/2000/svg">
<g clip-path="url(#clip0_1160_55071)">
<path fill-rule="evenodd" clip-rule="evenodd" d="M27.6876 30H35.6995L43.7179 48.6671H35.6995L31.6968 39.3304L27.6876 48.6671H19.6758L27.6876 30Z" fill="#C12D31"/>
<path fill-rule="evenodd" clip-rule="evenodd" d="M18.5303 30L22.0751 38.264L18.0724 47.6008L14.5211 39.3304L10.5119 48.6671H2.5L10.5119 30H18.5303Z" fill="#332C2B"/>
<path fill-rule="evenodd" clip-rule="evenodd" d="M3.72304 54.178H11.7349L12.4413 55.8219H4.42285L3.72304 54.178ZM17.3072 54.178H18.8311L19.5375 55.8219H16.5943L17.2941 54.178H17.3072ZM20.8913 54.178H28.9097L29.6095 55.8219H21.5977L20.8913 54.178ZM34.482 54.178H42.4939L41.7941 55.8219H33.7757L34.482 54.178ZM27.7128 69.9889H35.7247L36.0256 69.297H27.3924L27.6867 69.9889H27.7128ZM37.0001 67.0247L37.3794 66.1425H26.032L26.4113 67.0247H37.0001ZM38.2493 64.1241L38.7071 63.0514H24.7043L25.1687 64.1241H38.2493ZM39.4657 61.2869L40.0086 60.0174H31.964L31.6959 60.6522L31.4212 60.0174H23.4093L23.9522 61.2869H39.4657ZM40.6561 58.5195L41.2774 57.066H33.2394L32.5854 58.5195H40.6561ZM42.9583 53.1561L43.7431 51.3281H35.6985L34.9137 53.1561H42.9583ZM30.7999 58.5195L30.1458 57.066H22.1405L22.7945 58.5195H30.7999ZM28.4977 53.1561L27.7128 51.3281H19.6748L20.4597 53.1561H28.4977ZM18.5564 69.9889L18.8507 69.297H10.2175L10.5119 69.9889H18.5564ZM19.8645 67.0247L20.2438 66.1425H8.86371L9.24305 67.0247H19.8645ZM21.1071 64.1241L21.565 63.0514H7.53603L7.99385 64.1241H21.1071ZM21.9508 61.2869L21.408 60.0174H14.8677L14.593 60.6522L14.3249 60.0174H6.23451L6.77735 61.2869H21.9508ZM20.7605 58.5195L20.1065 57.066H16.0907L15.4367 58.5195H20.7605ZM18.4583 53.1561L18.1313 52.3944L17.8043 53.1561H18.4583ZM13.6643 58.5195L13.0103 57.066H4.96569L5.61972 58.5195H13.6643ZM11.3621 53.1561L10.5707 51.3281H2.5L3.28484 53.1561H11.3621Z" fill="#332C2B"/>
<path fill-rule="evenodd" clip-rule="evenodd" d="M59.8919 34.8406H70.0424V37.2716H72.0765V33.0063H57.9364V37.3668H59.8984V34.8279L59.8919 34.8406ZM65.7782 36.9732L67.3805 35.9513C69.0612 37.3599 70.5748 38.9459 71.8933 40.68L70.1994 41.8415C68.9207 40.0612 67.4374 38.428 65.7782 36.9732ZM62.0502 36.1354L64.0842 36.7701C62.8277 38.7765 61.1792 40.5252 59.2313 41.9177C58.7551 41.3758 58.2274 40.8785 57.6551 40.4325C59.4461 39.3559 60.9515 37.8862 62.0502 36.1418V36.1354ZM57.1777 34.2313C55.9415 33.3898 54.6279 32.661 53.2535 32.0542L52.109 33.6791C53.4804 34.3623 54.7927 35.1519 56.0331 36.0402L57.145 34.2567L57.1777 34.2313ZM56.3667 40.5784C55.0395 39.6637 53.622 38.8792 52.1351 38.2363L51.0625 39.8549C52.5381 40.5535 53.9382 41.3933 55.2417 42.362L56.3667 40.5784ZM55.3856 43.9171C54.2339 46.39 52.9502 48.8031 51.5399 51.1465L53.1881 52.6762C54.4046 50.4991 55.7715 47.7635 56.8441 45.3769L55.3856 43.9171ZM72.155 44.793V42.8508H66.1117V40.4388H63.8684V42.8508H57.8709V44.793H62.5734C61.1565 47.1492 59.0448 49.0394 56.5106 50.2198C57.0784 50.6996 57.5757 51.2528 57.9887 51.8638C60.4337 50.5311 62.4663 48.587 63.8749 46.2338V52.9174H66.1183V46.31C67.4279 48.5032 69.2132 50.3939 71.3505 51.8511C71.7982 51.2243 72.3182 50.6494 72.9005 50.1373C70.6246 48.8646 68.7256 47.0435 67.3871 44.8501L72.155 44.793ZM84.1629 45.1865C83.3062 45.5166 82.469 45.7895 81.6318 46.0942V39.474H84.4049V37.3668H81.6318V32.1049H79.382V37.3668H76.5108V39.474H79.382V46.913C78.1589 47.3573 77.0406 47.7254 76.1118 47.9793L76.8247 50.2071C79.0484 49.3757 81.8935 48.303 84.5161 47.2176L84.1106 45.2436L84.1629 45.1865ZM85.7653 40.2992V32.4985H87.9628V40.3563C87.9628 44.7612 87.6751 49.2424 85.0524 52.8285C84.3921 52.3616 83.6869 51.9577 82.9464 51.6226C85.5037 48.3538 85.7653 44.3868 85.7653 40.3563V40.2992ZM90.4024 50.0358H92.4626V33.5965H90.3697V50.0358H90.4024ZM94.9806 32.3207V52.7206H97.2501V32.3779L94.9806 32.3207ZM108.355 37.0748L109.762 36.5162C109.521 35.5694 109.119 34.6683 108.571 33.8504L107.132 34.3392C107.667 35.184 108.056 36.1081 108.284 37.0748H106.086V33.8758H111.194V37.1446L108.355 37.0748ZM118.578 37.0748H116.008C116.539 36.2221 117.019 35.3405 117.447 34.4344L115.746 33.7997C115.442 34.7584 115.05 35.6888 114.575 36.5797L115.726 37.0431H113.287V33.8758H118.519V37.1446L118.578 37.0748ZM117.859 44.4248C119.011 45.3232 120.083 46.3148 121.063 47.389L122.803 46.4877C121.854 45.4824 120.816 44.5586 119.703 43.7266H122.711V42.2541H113.293V41.0291H121.142V39.5883H113.293V38.4966H120.769V32.5366H103.908V38.4966H111.142V39.5883H103.692V41.0481H111.142V42.2732H101.926V43.8028H119.278L117.839 44.501L117.859 44.4248ZM116.616 46.2528L114.876 46.9764C114.408 46.0557 113.83 45.1909 113.156 44.3995L114.85 43.8219C115.544 44.5547 116.138 45.3719 116.616 46.2528ZM111.03 46.4432L109.068 46.9066C108.901 46.0325 108.629 45.1804 108.257 44.3677L110.121 44.0313C110.506 44.817 110.802 45.6405 111.004 46.4877L111.03 46.4432ZM104.673 43.752L106.537 44.2598C105.804 45.612 104.799 46.8077 103.581 47.7762L101.907 46.7289C103.021 45.9588 103.95 44.9625 104.628 43.8092L104.673 43.752ZM113.32 51.0132H123.038V52.7524H101.541V51.0132H111.122V49.4899H104.026V47.7952H111.122V46.5258H113.32V47.7952H120.586V49.4899H113.32V51.0132ZM145.204 32.2573C143.657 34.2335 141.703 35.8762 139.468 37.0811C140.049 37.5171 140.578 38.0154 141.044 38.5664C143.45 37.1197 145.57 35.2667 147.303 33.0951L145.204 32.2573ZM145.897 38.4712L147.924 39.309C146.036 41.6518 143.7 43.6194 141.044 45.104C140.604 44.532 140.09 44.0178 139.513 43.5743C141.783 42.4128 144.464 40.4452 145.897 38.4966V38.4712ZM130.082 36.4782H136.747V37.6587H130.082V36.4782ZM130.082 34.0218H136.747V35.1453H130.082V34.0028V34.0218ZM139.755 40.3246V42.0193H126.858V40.3246H132.28C132.163 40.0162 132.009 39.7222 131.822 39.4486L133.738 39.0551H127.976V32.6064H138.944V39.0297H133.948C134.222 39.4333 134.463 39.8579 134.667 40.2992L139.755 40.3246ZM129.029 47.9094C128.492 49.1044 127.739 50.1964 126.806 51.1338C127.35 51.4857 127.87 51.8715 128.362 52.289C129.415 51.1387 130.269 49.8313 130.893 48.4172L129.029 47.9094ZM130.337 44.4756H136.505V46.1005H130.337V44.4756ZM138.65 47.5604H134.451V51.0132C134.451 51.9653 134.281 52.4287 133.614 52.7079C132.678 52.9798 131.698 53.0809 130.723 53.0063C130.601 52.3906 130.381 51.7973 130.069 51.2481C130.933 51.2481 131.744 51.2481 131.959 51.2481C132.175 51.2481 132.293 51.1783 132.293 50.9752V47.5413H128.284V42.9777H138.67V47.5413L138.65 47.5604ZM146.342 45.0215C144.837 47.6175 141.927 49.8898 139.01 51.2354C138.395 50.0679 137.694 48.9457 136.91 47.8777L135.334 48.5442C136.129 49.6683 136.808 50.8652 137.362 52.1176L138.964 51.3496C139.515 51.8066 139.999 52.334 140.403 52.9174C143.703 51.2867 146.472 48.7994 148.402 45.7324L146.322 44.9898L146.342 45.0215ZM167.643 36.5607C166.526 35.3334 165.251 34.2498 163.85 33.3363L162.372 34.5105C163.754 35.4677 164.999 36.5989 166.074 37.8745L167.624 36.5036L167.643 36.5607ZM166.989 42.6096C165.764 41.3618 164.392 40.2582 162.902 39.3217L161.495 40.5911C162.975 41.5685 164.316 42.7293 165.485 44.044L166.989 42.6286V42.6096ZM160.828 44.3296C160.37 43.7267 158.343 41.3592 157.624 40.6419V40.3182H160.966V38.2998H157.624V34.7517C158.671 34.5304 159.701 34.2355 160.704 33.8695L159.442 32.1113C156.987 33.0125 154.439 33.651 151.842 34.0155C152.139 34.5397 152.359 35.1015 152.496 35.6848C153.451 35.5451 154.458 35.4055 155.504 35.2214V38.3252H151.685V40.3436H155.197C154.305 42.7832 152.996 45.0597 151.325 47.078C151.738 47.713 152.097 48.3796 152.398 49.071C153.666 47.415 154.694 45.5974 155.452 43.6695V53.057H157.604V42.9015C158.284 43.8866 158.906 44.908 159.468 45.9609L160.776 44.2725L160.828 44.3296ZM173.628 46.6718L170.691 47.1541V53.0888H168.493V47.5286L160.966 48.7536L160.632 46.6908L168.48 45.4214V31.8384H170.678V45.0786L173.294 44.6597L173.628 46.6781V46.6718ZM184.491 41.8225L182.032 42.4572V38.3188H184.537V36.3004H182.032V31.7812H179.861V36.3258H176.917V38.3188H179.861V42.9777L176.656 43.7203L177.231 45.7832C178.068 45.5737 178.925 45.3452 179.847 45.0913V50.5816C179.847 50.9053 179.723 51.0259 179.37 51.0259C179.017 51.0259 178.062 51.0259 177.029 51.0259C177.324 51.6462 177.544 52.2981 177.683 52.9682C179.305 52.9682 180.384 52.9237 181.077 52.6C181.77 52.2763 182.006 51.6924 182.006 50.5816V44.4883L184.727 43.7203L184.465 41.7717L184.491 41.8225ZM194.812 42.4255C194.013 44.2411 192.825 45.8704 191.326 47.2049C189.946 45.83 188.857 44.2064 188.121 42.4255H194.812ZM196.198 40.388L197.631 40.9402C196.816 43.8572 195.207 46.5078 192.974 48.614C194.735 49.8776 196.735 50.792 198.86 51.3052C198.292 51.8451 197.81 52.4632 197.428 53.1395C195.161 52.5306 193.053 51.4643 191.241 50.0104C189.27 51.4113 187.054 52.4543 184.7 53.0888C184.388 52.3945 183.986 51.7418 183.503 51.1465C185.693 50.6276 187.771 49.7404 189.645 48.5251C188.035 46.766 186.779 44.7293 185.943 42.5207L186.25 42.4255H185.296V40.4578H190.22V37.2843H184.87V35.3166H190.22V31.8384H192.418V35.3166H197.931V37.2843H192.418V40.4578H195.799L196.185 40.388H196.198ZM218.337 42.9586H208.991V40.9402H218.331V42.9586H218.337ZM208.998 46.767V44.7486H218.337V46.767H208.998ZM223.268 36.713V34.7009H211.378C211.686 33.9075 211.954 33.1015 212.215 32.3081L209.946 31.8003C209.671 32.7861 209.335 33.7548 208.939 34.7009H202.398V36.713H208.036C206.602 39.6123 204.441 42.1156 201.751 43.9932C202.288 44.5057 202.776 45.0645 203.209 45.6626C204.54 44.7591 205.745 43.6923 206.793 42.489V53.1078H208.991V48.5886H218.331V50.5816C218.331 50.9307 218.206 51.045 217.801 51.045C217.395 51.045 215.963 51.045 214.531 51.0005C214.855 51.6617 215.089 52.3618 215.224 53.0824C217.186 53.0824 218.54 53.0824 219.377 52.7397C220.214 52.3969 220.476 51.7622 220.476 50.6007V39.0361H209.226C209.658 38.2935 210.083 37.5064 210.469 36.713H223.268ZM234.106 32.6571L233.798 32.7524H228.161V53.0126H230.123V34.6756H233.059C232.628 36.2052 232.006 38.1538 231.437 39.6835C232.614 40.8872 233.293 42.4684 233.347 44.1265C233.386 44.3984 233.365 44.6751 233.286 44.9387C233.207 45.2022 233.072 45.4467 232.889 45.6562C232.682 45.778 232.445 45.8418 232.203 45.8403C231.789 45.8616 231.374 45.8616 230.96 45.8403C231.291 46.4242 231.471 47.0778 231.483 47.7444C232 47.7546 232.518 47.7376 233.033 47.6936C233.503 47.6519 233.954 47.4923 234.341 47.2303C235.034 46.7225 235.316 45.7451 235.316 44.4058C235.312 42.5869 234.626 40.8315 233.386 39.4677C234.125 37.6778 234.936 35.4118 235.603 33.5077L234.145 32.6952L234.106 32.6571ZM238.684 38.7758H244.943V41.1878H238.684V38.7758ZM244.943 34.6756V37.0494H238.684V34.7073L244.943 34.6756ZM247.016 43.5997L248.501 45.1104C247.301 46.0351 246.04 46.8832 244.727 47.6492C245.78 49.1766 247.265 50.3758 249.005 51.1021C248.419 51.6362 247.918 52.2523 247.52 52.9301C243.864 51.1465 241.784 47.6238 240.62 43.0792H238.658V50.1944L242.477 49.3376C242.467 49.989 242.507 50.6403 242.595 51.2862C237.821 52.5175 237.01 52.7905 236.506 53.1205C236.264 52.4992 235.934 51.9138 235.525 51.3814C235.837 51.1935 236.092 50.929 236.264 50.6146C236.436 50.3003 236.52 49.9473 236.506 49.5915V32.7968H247.062V43.0666H242.523C242.84 44.1185 243.249 45.142 243.746 46.1259C244.902 45.3627 245.995 44.5139 247.016 43.587V43.5997ZM258.586 32.4287C257.277 35.7723 255.115 38.7383 252.301 41.0481C253.029 41.5104 253.716 42.0305 254.354 42.6032C257.252 39.9191 259.521 36.6611 261.006 33.0507L258.593 32.416L258.586 32.4287ZM265.466 44.9199L267.592 43.9932C269.64 46.4669 271.491 49.0873 273.132 51.832L270.934 53.0126C270.47 52.1105 269.952 51.2352 269.384 50.3912C257.37 51.2735 255.931 51.3433 254.93 51.7368C254.688 50.9549 254.393 50.1894 254.047 49.4455C254.74 49.2804 255.355 48.633 256.245 47.5858C258.482 44.8434 260.388 41.8621 261.928 38.6997L264.342 39.6962C262.565 42.9925 260.427 46.093 257.965 48.944L268.024 48.3664C267.187 47.1605 266.304 45.9355 265.466 44.8882V44.9199ZM264.989 33.1015C266.898 36.5975 269.321 39.8049 272.183 42.6222C272.719 41.9366 273.336 41.3145 274.021 40.7689C271.208 38.373 268.883 35.4858 267.167 32.2573L264.969 33.1205L264.989 33.1015ZM288.985 43.3014V47.078H282.066V43.3014H288.985ZM291.163 48.9567V41.4417H279.914V50.6451H282.059V48.9567H291.163ZM292.641 37.3858H278.534V39.29H292.648V37.3858H292.641ZM297.501 33.2411H278.344V35.3103H295.212V50.0992C295.212 50.5372 295.068 50.6514 294.61 50.6768C294.152 50.7022 292.556 50.6768 291.032 50.6324C291.384 51.3799 291.638 52.1665 291.791 52.9745C293.923 52.9745 295.401 52.9745 296.31 52.5556C297.22 52.1367 297.481 51.4893 297.481 50.1183L297.501 33.2411Z" fill="#332C2B"/>
<path fill-rule="evenodd" clip-rule="evenodd" d="M54.7398 66.7635C54.1957 66.773 53.6532 66.7024 53.1309 66.5541C52.9054 66.4861 52.6866 66.399 52.4768 66.2938C52.2888 66.2005 52.1131 66.0854 51.9536 65.9511C51.6513 65.7009 51.41 65.3888 51.2473 65.0371C51.1686 64.8568 51.1073 64.6698 51.0641 64.4785C51.0219 64.2693 50.9978 64.057 50.9922 63.8438V63.7803H52.2152V63.8375C52.2284 63.9817 52.2569 64.1242 52.3002 64.2627C52.3399 64.3912 52.3948 64.5147 52.4638 64.6309C52.5317 64.7414 52.6129 64.8437 52.7058 64.9355C52.7928 65.0315 52.8917 65.1168 53.0001 65.1894C53.1102 65.2617 53.2262 65.3253 53.3467 65.3798C53.4765 65.4328 53.6098 65.4773 53.7457 65.5131C53.8918 65.5488 54.0405 65.5743 54.1904 65.5893C54.3472 65.5991 54.5045 65.5991 54.6613 65.5893C54.8183 65.5893 54.9687 65.5893 55.1126 65.5893C55.2491 65.5712 55.3845 65.5458 55.5181 65.5131C55.6386 65.4836 55.7566 65.4455 55.8713 65.3989C55.9749 65.3564 56.0736 65.3032 56.1656 65.2402C56.333 65.1291 56.4736 64.984 56.5776 64.8149C56.6269 64.7343 56.6623 64.6464 56.6822 64.5547C56.7085 64.4573 56.7217 64.357 56.7215 64.2564C56.7325 64.1551 56.7325 64.053 56.7215 63.9517C56.7025 63.8647 56.6694 63.7811 56.6234 63.7042C56.5765 63.6293 56.5193 63.561 56.4533 63.5011C56.3763 63.4299 56.2907 63.3681 56.1983 63.317C56.0842 63.2508 55.9637 63.1955 55.8385 63.152C55.7077 63.1012 55.5508 63.0504 55.3807 62.9996C55.2107 62.9489 55.021 62.9044 54.8117 62.86C54.6024 62.8156 54.3735 62.7584 54.1577 62.714L53.5037 62.5426C53.2944 62.4792 53.1047 62.4157 52.9281 62.3459C52.7627 62.2806 52.6011 62.2064 52.4441 62.1237C52.3062 62.0452 52.1749 61.9561 52.0517 61.8571C51.9395 61.7653 51.8366 61.6633 51.7443 61.5525C51.6584 61.4459 51.588 61.3285 51.535 61.2034C51.4761 61.078 51.4343 60.9457 51.4108 60.8099C51.3817 60.6613 51.3664 60.5104 51.365 60.3592C51.363 60.0267 51.4414 59.6985 51.5939 59.4008C51.6716 59.257 51.7636 59.1209 51.8686 58.9946C51.9814 58.8672 52.1062 58.7503 52.2414 58.6455C52.3833 58.54 52.5343 58.4466 52.6927 58.3662C52.8625 58.2812 53.0398 58.2111 53.2224 58.1567C53.4194 58.0982 53.6205 58.0537 53.8241 58.0234C54.041 57.9961 54.2594 57.9812 54.4782 57.979C54.7121 57.9805 54.9458 57.9954 55.178 58.0234C55.399 58.0528 55.6175 58.0974 55.832 58.1567C56.0254 58.2132 56.2136 58.2854 56.3945 58.3725C56.5663 58.4525 56.7286 58.5504 56.8785 58.6645C57.0248 58.7706 57.1566 58.8943 57.2709 59.0326C57.3882 59.1669 57.4891 59.3139 57.5717 59.4706C57.6573 59.6318 57.7232 59.8023 57.7679 59.9784C57.815 60.1655 57.8414 60.357 57.8464 60.5496V60.6194H56.6103V60.556C56.5992 60.3444 56.5408 60.1378 56.4391 59.9504C56.3375 59.7629 56.195 59.5992 56.0217 59.4706C55.5797 59.2039 55.063 59.0774 54.5436 59.1088C54.2665 59.1043 53.9898 59.132 53.7195 59.1913C53.5055 59.239 53.3019 59.3228 53.1178 59.4389C52.966 59.5382 52.8406 59.6708 52.7515 59.826C52.6693 59.9765 52.6266 60.1444 52.6273 60.3148C52.6198 60.3929 52.6198 60.4715 52.6273 60.5496C52.6411 60.6154 52.6631 60.6793 52.6927 60.74C52.7214 60.7996 52.7613 60.8534 52.8104 60.8987C52.8642 60.9553 52.9258 61.0044 52.9935 61.0447C53.0743 61.0946 53.1597 61.1371 53.2486 61.1716C53.357 61.2187 53.4684 61.259 53.5821 61.2922L54.0073 61.4065L54.524 61.5207L55.3153 61.6921C55.4592 61.6921 55.59 61.7556 55.7208 61.7873L56.1132 61.9079L56.4926 62.0539L56.8457 62.2253C56.9635 62.2887 57.0747 62.3586 57.1793 62.4284C57.2798 62.5057 57.3759 62.5884 57.4671 62.6759C57.5542 62.7664 57.633 62.8641 57.7025 62.9679C57.7713 63.0781 57.8325 63.1926 57.8857 63.3107C57.9351 63.4404 57.9723 63.5742 57.9968 63.7105C58.0237 63.8593 58.0368 64.0101 58.0361 64.1612C58.0369 64.3426 58.0172 64.5235 57.9772 64.7007C57.9369 64.8722 57.8754 65.0385 57.7941 65.1958C57.7099 65.3521 57.6114 65.5008 57.4998 65.6401C57.3844 65.7752 57.2551 65.8986 57.1139 66.0082C56.9651 66.1242 56.8052 66.2262 56.6365 66.3129C56.4588 66.4055 56.2727 66.482 56.0805 66.5414C55.8803 66.6071 55.6746 66.656 55.4657 66.6873C55.2488 66.7145 55.0304 66.7293 54.8117 66.7318L54.7398 66.7635ZM66.46 66.6175H65.2435V62.6886H60.9138V66.6175H59.645V58.1631H60.9138V61.5779H65.2435V58.1631H66.5516V66.6175H66.46ZM74.9624 66.6175H68.494V58.1631H74.8446V59.2548H69.7628V61.654H74.5045V62.7775H69.7628V65.4687H75.0343V66.5921L74.9624 66.6175ZM83.5236 66.6175H82.3202V66.5858L77.9447 60.2005V66.6175H76.7283V58.1631H78.0036L82.3594 64.561V58.1631H83.589V66.6175H83.5236ZM91.699 66.6175H84.8644V65.4941L90.0966 59.2992H85.3418V58.1821H91.614V59.3056L86.3817 65.4941H91.8102V66.6175H91.699ZM99.9332 66.6175H98.7167V62.6886H94.4263V66.6175H93.1182V58.1631H94.4263V61.5779H98.7494V58.1631H100.057V66.6175H99.9332ZM108.436 66.6175H101.961V58.1631H108.311V59.2548H103.236V61.654H107.978V62.7775H103.236V65.4687H108.501V66.5921L108.436 66.6175ZM116.997 66.6175H115.793V66.5858L111.431 60.2005V66.6175H110.221V58.1631H111.529L115.885 64.561V58.1631H117.115V66.6175H116.997ZM130.444 66.6175H129.286V59.8895L126.964 66.5858V66.6302H125.846V66.5858L123.557 59.8895V66.6175H122.34V58.1631H124.172V58.2075L126.434 64.9673L128.711 58.2202V58.1758H130.542V66.6175H130.444ZM136.33 57.9854C136.622 57.9864 136.913 58.014 137.2 58.0679C137.476 58.1192 137.745 58.1979 138.004 58.3027C138.253 58.4081 138.492 58.5355 138.717 58.6835C138.936 58.8334 139.14 59.0034 139.325 59.1913C139.51 59.3864 139.675 59.599 139.816 59.826C139.964 60.0619 140.088 60.3105 140.189 60.5687C140.296 60.8419 140.374 61.1246 140.424 61.4128C140.529 62.0307 140.529 62.661 140.424 63.2789C140.374 63.5669 140.295 63.8496 140.189 64.1231C140.095 64.3847 139.972 64.6358 139.822 64.8721C139.683 65.1002 139.519 65.313 139.332 65.5068C139.15 65.7017 138.946 65.8762 138.724 66.0272C138.5 66.1765 138.261 66.3041 138.011 66.4081C137.753 66.5178 137.483 66.5988 137.206 66.6493C136.918 66.7065 136.624 66.7342 136.33 66.7318C136.036 66.7336 135.742 66.7059 135.454 66.6493C135.177 66.6 134.908 66.5213 134.649 66.4144C134.398 66.3094 134.16 66.1796 133.936 66.0272C133.714 65.8807 133.51 65.7104 133.328 65.5195C133.143 65.3244 132.979 65.1118 132.837 64.8847C132.691 64.646 132.566 64.3954 132.465 64.1358C132.358 63.8587 132.281 63.5715 132.236 63.2789C132.183 62.9706 132.156 62.6585 132.157 62.3459C132.156 62.0312 132.183 61.7169 132.236 61.4065C132.285 61.1183 132.364 60.8355 132.471 60.5623C132.565 60.2994 132.69 60.048 132.844 59.8133C132.985 59.5863 133.149 59.3737 133.334 59.1786C133.522 58.9909 133.728 58.8208 133.949 58.6708C134.172 58.5212 134.411 58.3957 134.662 58.2964C134.92 58.1887 135.19 58.1099 135.467 58.0615C135.751 58.0076 136.04 57.9799 136.33 57.979V57.9854ZM136.33 65.6591C136.534 65.6603 136.738 65.6412 136.938 65.602C137.128 65.5711 137.313 65.5156 137.488 65.4369C137.661 65.3634 137.825 65.2719 137.978 65.164C138.13 65.0551 138.27 64.9317 138.397 64.7959C138.526 64.6487 138.64 64.4892 138.737 64.3199C138.839 64.1391 138.924 63.9501 138.992 63.7549C139.064 63.548 139.119 63.3358 139.155 63.1202C139.19 62.8742 139.208 62.626 139.208 62.3776C139.207 62.1292 139.19 61.8811 139.155 61.635C139.118 61.4195 139.064 61.2073 138.992 61.0003C138.924 60.8051 138.839 60.6161 138.737 60.4354C138.638 60.2713 138.524 60.1163 138.397 59.972C138.27 59.8362 138.13 59.7128 137.978 59.6039C137.829 59.4955 137.666 59.406 137.494 59.3373C137.32 59.2624 137.138 59.207 136.951 59.1723C136.758 59.1338 136.56 59.1147 136.363 59.1151C135.967 59.1128 135.576 59.1883 135.212 59.3373C134.862 59.4807 134.549 59.6974 134.296 59.972C134.166 60.1165 134.052 60.2739 133.956 60.4417C133.854 60.6224 133.769 60.8115 133.701 61.0066C133.626 61.2127 133.571 61.4252 133.537 61.6413C133.503 61.8854 133.485 62.1313 133.485 62.3776C133.478 62.853 133.549 63.3263 133.694 63.7803C133.762 63.9755 133.847 64.1645 133.949 64.3452C134.044 64.516 134.158 64.6757 134.289 64.8213C134.412 64.9585 134.55 65.082 134.701 65.1894C134.854 65.2973 135.019 65.3888 135.192 65.4623C135.365 65.5401 135.547 65.5956 135.735 65.6274C135.933 65.6658 136.134 65.685 136.336 65.6845L136.33 65.6591ZM149.214 58.2392L145.846 63.0631V66.6429H144.571V63.0631L141.202 58.29L141.131 58.1885H142.681L145.186 61.927L147.677 58.1885H149.234L149.162 58.29L149.214 58.2392ZM151.673 66.5921H150.477V58.1631H151.745V66.6175L151.673 66.5921ZM160.686 66.5921H159.483V66.5604L155.101 60.1751V66.6175H153.891V58.1631H155.166L159.528 64.561V58.1631H160.751V66.6175L160.686 66.5921ZM166.572 66.7381C166.268 66.7394 165.963 66.7139 165.663 66.662C165.383 66.6085 165.109 66.5277 164.846 66.4208C164.592 66.3205 164.351 66.1927 164.126 66.0399C163.904 65.8919 163.698 65.7217 163.511 65.5322C163.328 65.3359 163.164 65.1234 163.021 64.8975C162.875 64.657 162.753 64.4042 162.655 64.1421C162.552 63.8663 162.478 63.5814 162.432 63.2916C162.379 62.9812 162.353 62.6669 162.354 62.3522C162.353 62.0354 162.379 61.719 162.432 61.4065C162.48 61.1164 162.557 60.8316 162.661 60.556C162.758 60.2954 162.881 60.0446 163.027 59.807C163.168 59.5798 163.333 59.3671 163.518 59.1723C163.7 58.9814 163.904 58.8111 164.126 58.6645C164.35 58.5161 164.589 58.3906 164.839 58.29C165.098 58.1873 165.368 58.1107 165.644 58.0615C165.937 58.0077 166.235 57.9801 166.533 57.979C166.782 57.9797 167.032 57.9966 167.279 58.0298C167.513 58.0612 167.745 58.11 167.972 58.1758C168.186 58.2347 168.394 58.3134 168.593 58.4106C168.785 58.4991 168.969 58.6031 169.143 58.7216C169.309 58.8375 169.462 58.9693 169.6 59.1151C169.737 59.2592 169.857 59.4166 169.96 59.5848C170.065 59.7541 170.149 59.9353 170.209 60.1244C170.274 60.3156 170.316 60.5138 170.333 60.7146V60.7908H169.025V60.7273C169.015 60.6025 168.991 60.479 168.953 60.3592C168.919 60.244 168.87 60.1333 168.809 60.0291C168.748 59.9284 168.676 59.8347 168.593 59.7499C168.507 59.6595 168.41 59.5787 168.305 59.5087C168.195 59.4364 168.079 59.3728 167.959 59.3183C167.823 59.2625 167.683 59.2179 167.54 59.185C167.388 59.1467 167.233 59.1191 167.076 59.1025C166.904 59.082 166.732 59.0714 166.559 59.0707C166.351 59.0699 166.143 59.0891 165.938 59.1278C165.747 59.1606 165.561 59.2138 165.382 59.2865C165.035 59.4275 164.726 59.6447 164.479 59.9212C164.348 60.0623 164.234 60.2178 164.139 60.3846C164.037 60.5653 163.952 60.7543 163.884 60.9495C163.817 61.1574 163.765 61.3694 163.727 61.5842C163.693 61.8303 163.675 62.0784 163.675 62.3268C163.668 62.8022 163.739 63.2755 163.884 63.7296C163.952 63.9247 164.037 64.1137 164.139 64.2945C164.238 64.4625 164.352 64.6217 164.479 64.7705C164.604 64.9079 164.745 65.0313 164.898 65.1386C165.051 65.2465 165.215 65.3381 165.388 65.4116C165.566 65.4894 165.753 65.5448 165.944 65.5766C166.149 65.6154 166.357 65.6345 166.566 65.6337C166.855 65.6341 167.144 65.6108 167.429 65.5639C167.682 65.5196 167.928 65.445 168.162 65.3417C168.379 65.2484 168.583 65.129 168.77 64.9863C168.954 64.8444 169.119 64.6802 169.26 64.4976V63.3107H166.997V62.1808H170.503V66.5667H169.568V66.5223L169.313 65.7543C169.014 66.0653 168.644 66.3043 168.234 66.4525C167.707 66.635 167.151 66.7231 166.592 66.7127L166.572 66.7381ZM182.766 66.5921H181.458V66.5477L180.654 64.3325C180.617 64.2415 180.576 64.1525 180.529 64.066C180.485 63.979 180.432 63.8962 180.372 63.8184C180.314 63.7423 180.251 63.6702 180.183 63.6026C180.115 63.5326 180.04 63.4688 179.96 63.4122C179.881 63.3555 179.798 63.3045 179.712 63.2599C179.622 63.2168 179.531 63.1787 179.437 63.1456C179.343 63.1157 179.247 63.0923 179.149 63.0758C179.047 63.0693 178.944 63.0693 178.842 63.0758H176.834V66.6302H175.526V58.1631H179.731H180.052H180.366L180.66 58.2075C180.755 58.2283 180.849 58.2537 180.941 58.2837C181.033 58.3087 181.123 58.3406 181.209 58.3789L181.465 58.5122C181.548 58.5608 181.626 58.616 181.7 58.6772C181.836 58.7847 181.955 58.9108 182.053 59.0517C182.158 59.1925 182.244 59.3462 182.308 59.5087C182.373 59.6691 182.424 59.8347 182.459 60.0038C182.493 60.171 182.51 60.3411 182.511 60.5115C182.51 60.6539 182.499 60.796 182.478 60.9368C182.455 61.0706 182.42 61.2023 182.374 61.3303C182.331 61.4536 182.276 61.5727 182.21 61.6858C182.144 61.7979 182.067 61.9041 181.981 62.0031C181.892 62.0984 181.796 62.1874 181.693 62.2697C181.588 62.3545 181.474 62.429 181.353 62.4919C181.229 62.5618 181.097 62.6192 180.961 62.6632C180.882 62.6943 180.801 62.7198 180.719 62.7394C180.97 62.8475 181.193 63.0079 181.373 63.2091C181.634 63.5071 181.835 63.8492 181.968 64.2183L182.818 66.4842L182.851 66.5731L182.766 66.5921ZM176.814 61.9079H179.293C179.47 61.9079 179.627 61.9079 179.777 61.9079C179.916 61.8969 180.053 61.8778 180.189 61.8508C180.303 61.8275 180.414 61.7957 180.523 61.7556C180.615 61.7195 180.703 61.6726 180.784 61.6159C180.86 61.5664 180.927 61.5041 180.981 61.4319C181.04 61.3607 181.088 61.2816 181.124 61.197C181.16 61.1023 181.186 61.0045 181.203 60.9051C181.213 60.7868 181.213 60.6679 181.203 60.5496C181.211 60.3432 181.173 60.1376 181.092 59.9466C181.026 59.7831 180.915 59.6403 180.771 59.5341C180.608 59.4201 180.424 59.3382 180.228 59.2929C179.967 59.2331 179.699 59.2054 179.431 59.2104H176.814V61.927V61.9079ZM188.194 57.9854C188.486 57.9864 188.778 58.014 189.064 58.0679C189.34 58.1192 189.61 58.1979 189.869 58.3027C190.118 58.4081 190.357 58.5355 190.582 58.6835C190.801 58.8334 191.005 59.0034 191.19 59.1913C191.375 59.3864 191.539 59.599 191.68 59.826C191.828 60.0619 191.953 60.3105 192.053 60.5687C192.16 60.8419 192.239 61.1246 192.289 61.4128C192.393 62.0307 192.393 62.661 192.289 63.2789C192.238 63.5669 192.159 63.8496 192.053 64.1231C191.959 64.3847 191.836 64.6358 191.687 64.8721C191.548 65.1002 191.383 65.313 191.196 65.5068C191.014 65.7017 190.81 65.8762 190.588 66.0272C190.364 66.1765 190.125 66.3041 189.875 66.4081C189.618 66.5178 189.348 66.5988 189.071 66.6493C188.783 66.7065 188.489 66.7342 188.194 66.7318C187.9 66.7336 187.607 66.7059 187.318 66.6493C187.042 66.6 186.772 66.5213 186.514 66.4144C186.263 66.3094 186.024 66.1796 185.801 66.0272C185.579 65.8807 185.375 65.7104 185.192 65.5195C185.007 65.3244 184.843 65.1118 184.702 64.8847C184.556 64.646 184.431 64.3954 184.329 64.1358C184.222 63.8587 184.146 63.5715 184.1 63.2789C184.047 62.9706 184.021 62.6585 184.022 62.3459C184.021 62.0312 184.047 61.7169 184.1 61.4065C184.151 61.1191 184.228 60.8367 184.329 60.5623C184.528 60.0524 184.823 59.5831 185.199 59.1786C185.387 58.9909 185.593 58.8208 185.814 58.6708C186.037 58.5212 186.276 58.3957 186.527 58.2964C186.785 58.1887 187.055 58.1099 187.331 58.0615C187.616 58.0076 187.905 57.9799 188.194 57.979V57.9854ZM188.194 65.6591C188.397 65.6599 188.598 65.6408 188.796 65.602C188.986 65.5711 189.171 65.5156 189.346 65.4369C189.519 65.3634 189.683 65.2719 189.836 65.164C189.988 65.0551 190.128 64.9317 190.255 64.7959C190.374 64.6516 190.48 64.4964 190.569 64.3325C190.67 64.1518 190.756 63.9628 190.824 63.7676C190.896 63.5607 190.951 63.3484 190.987 63.1329C191.022 62.8868 191.04 62.6387 191.04 62.3903C191.039 62.1419 191.022 61.8938 190.987 61.6477C190.95 61.4322 190.896 61.22 190.824 61.013C190.756 60.8178 190.67 60.6288 190.569 60.4481C190.47 60.284 190.356 60.129 190.229 59.9847C190.102 59.8489 189.962 59.7255 189.81 59.6166C189.661 59.5082 189.498 59.4187 189.326 59.35C189.152 59.2751 188.97 59.2198 188.783 59.185C188.589 59.1465 188.392 59.1273 188.194 59.1278C187.799 59.1254 187.408 59.201 187.043 59.35C186.694 59.4933 186.381 59.7101 186.128 59.9847C185.998 60.1292 185.884 60.2866 185.788 60.4544C185.686 60.6351 185.6 60.8241 185.533 61.0193C185.457 61.2254 185.403 61.4379 185.369 61.654C185.335 61.898 185.317 62.144 185.317 62.3903C185.31 62.8656 185.381 63.339 185.526 63.793C185.594 63.9882 185.679 64.1772 185.781 64.3579C185.875 64.5287 185.99 64.6884 186.121 64.834C186.244 64.9712 186.382 65.0947 186.533 65.2021C186.686 65.31 186.851 65.4015 187.024 65.475C187.197 65.5528 187.379 65.6082 187.567 65.6401C187.765 65.6785 187.966 65.6977 188.168 65.6972L188.194 65.6591ZM200.523 64.1041C200.545 64.4553 200.481 64.8066 200.335 65.1289C200.19 65.4512 199.967 65.7352 199.686 65.9574C199.38 66.1819 199.031 66.3438 198.659 66.4335C198.201 66.5434 197.731 66.5967 197.259 66.5921H193.989V58.1631H197.109C197.331 58.1631 197.547 58.1631 197.763 58.1948C197.962 58.2182 198.159 58.2565 198.352 58.3091C198.694 58.3972 199.017 58.5433 199.306 58.7407C199.435 58.8347 199.553 58.9411 199.66 59.058C199.758 59.1738 199.844 59.2993 199.915 59.4325C199.989 59.5684 200.044 59.7136 200.078 59.8641C200.118 60.022 200.138 60.184 200.137 60.3465C200.14 60.5463 200.111 60.7454 200.052 60.9368C200.002 61.1131 199.922 61.2804 199.817 61.4319C199.705 61.5872 199.57 61.7262 199.418 61.8444C199.292 61.9413 199.159 62.0283 199.019 62.1047L199.248 62.1808C199.368 62.2311 199.484 62.2905 199.594 62.3586C199.695 62.426 199.792 62.5002 199.882 62.5807C199.971 62.6597 200.052 62.7468 200.124 62.8409C200.195 62.9313 200.258 63.0268 200.314 63.1266C200.368 63.228 200.412 63.3343 200.444 63.4439C200.484 63.5528 200.51 63.6657 200.523 63.7803C200.533 63.8965 200.533 64.0133 200.523 64.1294V64.1041ZM195.238 61.6223H197.083C197.35 61.6249 197.618 61.6015 197.881 61.5525C198.076 61.5184 198.263 61.4472 198.43 61.343C198.568 61.2552 198.675 61.1291 198.737 60.9812C198.813 60.8043 198.848 60.6139 198.842 60.4227C198.849 60.3297 198.849 60.2364 198.842 60.1434C198.842 60.0609 198.796 59.9847 198.77 59.9085C198.737 59.8381 198.696 59.772 198.646 59.7118C198.593 59.6509 198.531 59.5975 198.463 59.5531C198.385 59.502 198.302 59.4594 198.214 59.4262C198.108 59.386 197.999 59.3542 197.887 59.331C197.753 59.3034 197.618 59.2844 197.482 59.2738C197.329 59.2738 197.166 59.2738 196.991 59.2738H195.258V61.6413L195.238 61.6223ZM195.238 65.4687H197.253C197.77 65.5053 198.287 65.3856 198.731 65.1259C198.891 65.007 199.019 64.8515 199.102 64.6732C199.185 64.4949 199.222 64.2994 199.208 64.1041C199.215 63.992 199.215 63.8797 199.208 63.7676C199.19 63.6706 199.164 63.5751 199.13 63.482C199.099 63.3995 199.055 63.3223 198.999 63.2535C198.941 63.1828 198.873 63.1208 198.796 63.0695C198.71 63.0084 198.615 62.9592 198.515 62.9235C198.396 62.8791 198.273 62.843 198.149 62.8156C198.011 62.8156 197.855 62.7711 197.678 62.7521C197.501 62.7331 197.312 62.7521 197.109 62.7521H195.258V65.4877L195.238 65.4687ZM205.945 57.9854C206.239 57.9864 206.532 58.014 206.821 58.0679C207.095 58.1201 207.362 58.1987 207.619 58.3027C207.868 58.4081 208.107 58.5355 208.332 58.6835C208.554 58.8301 208.758 59.0004 208.94 59.1913C209.125 59.3878 209.292 59.6003 209.437 59.826C209.585 60.0607 209.708 60.3096 209.804 60.5687C209.911 60.8419 209.989 61.1246 210.039 61.4128C210.144 62.0307 210.144 62.661 210.039 63.2789C209.991 63.5667 209.914 63.8494 209.81 64.1231C209.711 64.3838 209.586 64.6346 209.437 64.8721C209.298 65.1002 209.133 65.313 208.947 65.5068C208.765 65.7 208.564 65.8745 208.345 66.0272C208.12 66.1753 207.881 66.3027 207.632 66.4081C207.374 66.5162 207.104 66.5971 206.828 66.6493C206.537 66.7062 206.241 66.7339 205.945 66.7318C205.653 66.7339 205.361 66.7062 205.075 66.6493C204.799 66.6009 204.529 66.5221 204.271 66.4144C204.018 66.3094 203.777 66.1797 203.551 66.0272C203.332 65.8774 203.128 65.7074 202.943 65.5195C202.758 65.3244 202.593 65.1118 202.452 64.8847C202.306 64.646 202.181 64.3954 202.08 64.1358C201.979 63.8569 201.902 63.5702 201.851 63.2789C201.797 62.9706 201.771 62.6585 201.772 62.3459C201.771 62.0312 201.797 61.7169 201.851 61.4065C201.9 61.1183 201.979 60.8355 202.086 60.5623C202.185 60.3016 202.31 60.0508 202.459 59.8133C202.6 59.5847 202.767 59.3719 202.956 59.1786C203.14 58.9894 203.344 58.8193 203.564 58.6708C203.788 58.5225 204.027 58.397 204.277 58.2964C204.536 58.1904 204.806 58.1116 205.082 58.0615C205.366 58.0083 205.655 57.9807 205.945 57.979V57.9854ZM205.945 65.6591C206.149 65.6599 206.353 65.6407 206.553 65.602C206.743 65.5693 206.927 65.5138 207.102 65.4369C207.273 65.3622 207.435 65.2708 207.586 65.164C207.74 65.0567 207.88 64.9333 208.005 64.7959C208.137 64.6503 208.251 64.4906 208.345 64.3199C208.447 64.1391 208.532 63.9501 208.6 63.7549C208.672 63.548 208.727 63.3358 208.764 63.1202C208.799 62.8742 208.816 62.626 208.816 62.3776C208.816 62.1292 208.798 61.8811 208.764 61.635C208.727 61.4195 208.672 61.2073 208.6 61.0003C208.532 60.8051 208.447 60.6161 208.345 60.4354C208.251 60.2686 208.137 60.1131 208.005 59.972C207.88 59.8347 207.74 59.7112 207.586 59.6039C207.44 59.4956 207.279 59.406 207.109 59.3373C206.935 59.2633 206.753 59.208 206.566 59.1723C206.37 59.1335 206.171 59.1144 205.971 59.1151C205.769 59.115 205.567 59.1341 205.369 59.1723C205.181 59.2109 204.997 59.2661 204.82 59.3373C204.473 59.485 204.161 59.7011 203.904 59.972C203.776 60.1181 203.662 60.2753 203.564 60.4417C203.462 60.6224 203.377 60.8115 203.309 61.0066C203.237 61.2135 203.182 61.4258 203.146 61.6413C203.111 61.8854 203.094 62.1313 203.093 62.3776C203.087 62.853 203.157 63.3263 203.303 63.7803C203.37 63.9755 203.456 64.1645 203.558 64.3452C203.654 64.5146 203.768 64.6741 203.898 64.8213C204.022 64.957 204.16 65.0803 204.31 65.1894C204.463 65.2973 204.627 65.3888 204.8 65.4623C204.976 65.5392 205.16 65.5947 205.35 65.6274C205.546 65.6658 205.745 65.685 205.945 65.6845V65.6591ZM217.887 59.2548H215.114V66.6175H213.846V59.2548H211.027V58.1377H217.953V59.2548H217.887ZM220.608 66.5921H219.405V58.1631H220.654V66.6175L220.608 66.5921ZM229.954 60.7908H228.725V60.7273C228.719 60.605 228.699 60.4837 228.666 60.3655C228.631 60.2524 228.583 60.1437 228.522 60.0418C228.464 59.9392 228.393 59.8434 228.313 59.7562C228.231 59.6679 228.141 59.5871 228.045 59.515C227.943 59.4428 227.836 59.3791 227.724 59.3246C227.604 59.2677 227.479 59.221 227.351 59.185C227.216 59.145 227.079 59.1153 226.939 59.0961C226.792 59.0758 226.643 59.0652 226.494 59.0644C226.292 59.0633 226.091 59.0824 225.893 59.1215C225.706 59.1541 225.524 59.2074 225.35 59.2802C225.183 59.3492 225.025 59.4365 224.879 59.5404C224.734 59.6482 224.602 59.7717 224.487 59.9085C224.361 60.0502 224.254 60.2057 224.166 60.3719C224.071 60.5532 223.992 60.7422 223.931 60.9368C223.863 61.1441 223.813 61.3563 223.78 61.5715C223.748 61.822 223.732 62.0743 223.734 62.3268C223.728 62.8071 223.792 63.2858 223.924 63.7486C223.986 63.9432 224.064 64.1322 224.16 64.3135C224.248 64.4811 224.356 64.6386 224.48 64.7832C224.596 64.9201 224.728 65.0436 224.872 65.1513C225.018 65.2549 225.173 65.3442 225.337 65.4179C225.506 65.4916 225.684 65.5448 225.867 65.5766C226.062 65.6157 226.262 65.6348 226.462 65.6337C226.619 65.6362 226.777 65.6256 226.933 65.602C227.076 65.5849 227.218 65.5573 227.358 65.5195C227.487 65.4824 227.611 65.4335 227.731 65.3735C227.845 65.317 227.952 65.2489 228.051 65.1704C228.146 65.0959 228.234 65.0131 228.313 64.9228C228.39 64.8278 228.458 64.7258 228.515 64.6182C228.575 64.505 228.621 64.3858 228.653 64.2627C228.69 64.13 228.715 63.9939 228.725 63.8565V63.793H230.033V63.8692C230.014 64.0839 229.975 64.2963 229.915 64.5039C229.857 64.6996 229.778 64.889 229.68 65.0688C229.588 65.2418 229.476 65.4037 229.346 65.5512C229.222 65.7005 229.081 65.8367 228.927 65.9574C228.767 66.0778 228.597 66.184 228.417 66.2748C228.234 66.3709 228.041 66.4496 227.842 66.5096C227.628 66.575 227.409 66.6238 227.188 66.6556C226.956 66.6866 226.722 66.7015 226.488 66.7001C226.19 66.7013 225.892 66.6758 225.598 66.6239C225.325 66.5733 225.057 66.4946 224.801 66.389C224.554 66.2897 224.319 66.1641 224.101 66.0145C223.885 65.8677 223.688 65.6973 223.512 65.5068C223.333 65.3127 223.178 65.0998 223.048 64.8721C222.908 64.6338 222.791 64.383 222.701 64.1231C222.605 63.844 222.535 63.5573 222.492 63.2662C222.395 62.635 222.395 61.9933 222.492 61.3621C222.537 61.0713 222.607 60.7846 222.701 60.5052C222.796 60.246 222.914 59.9954 223.054 59.7562C223.186 59.5281 223.344 59.3151 223.525 59.1215C223.7 58.9326 223.895 58.7623 224.107 58.6137C224.328 58.4658 224.562 58.3383 224.807 58.2329C225.064 58.1301 225.332 58.0535 225.605 58.0044C225.896 57.9506 226.192 57.9229 226.488 57.9219C226.707 57.9231 226.926 57.9401 227.142 57.9727C227.364 58.0038 227.582 58.0526 227.796 58.1186C227.996 58.1815 228.191 58.26 228.378 58.3535C228.559 58.442 228.73 58.5483 228.888 58.6708C229.046 58.7871 229.19 58.919 229.32 59.0644C229.451 59.2098 229.567 59.3671 229.667 59.5341C229.767 59.7049 229.848 59.8858 229.908 60.0736C229.974 60.2649 230.016 60.463 230.033 60.6639V60.74L229.954 60.7908ZM234.984 66.7381C234.44 66.7476 233.897 66.677 233.375 66.5287C233.15 66.4595 232.931 66.3725 232.721 66.2684C232.534 66.1765 232.36 66.0613 232.204 65.9257C232.05 65.8021 231.912 65.6615 231.792 65.5068C231.674 65.3538 231.575 65.1875 231.498 65.0117C231.416 64.8324 231.355 64.6452 231.315 64.4531C231.267 64.2447 231.24 64.032 231.236 63.8184V63.7549H232.459V63.8121C232.476 63.9558 232.504 64.0981 232.544 64.2373C232.586 64.366 232.643 64.4895 232.714 64.6055C232.778 64.7172 232.857 64.8198 232.95 64.9101C233.038 65.0046 233.137 65.0897 233.244 65.164C233.355 65.235 233.471 65.2986 233.591 65.3544C233.723 65.4074 233.858 65.4519 233.996 65.4877C234.14 65.5234 234.287 65.5489 234.434 65.5639C234.591 65.5737 234.748 65.5737 234.905 65.5639C235.062 65.5639 235.213 65.5639 235.357 65.5639C235.493 65.5464 235.629 65.521 235.762 65.4877C235.883 65.4592 236.001 65.421 236.115 65.3735C236.22 65.3296 236.321 65.2765 236.416 65.2148C236.502 65.158 236.581 65.092 236.652 65.018C236.718 64.9488 236.775 64.8721 236.822 64.7895C236.873 64.7093 236.911 64.6214 236.933 64.5293C236.954 64.4311 236.965 64.3312 236.965 64.231C236.969 64.1285 236.958 64.0259 236.933 63.9263C236.914 63.8393 236.881 63.7557 236.835 63.6788C236.79 63.6025 236.732 63.5338 236.665 63.4757C236.588 63.4045 236.502 63.3427 236.41 63.2916C236.295 63.2254 236.175 63.1701 236.05 63.1266C235.919 63.0758 235.769 63.025 235.599 62.9742C235.429 62.9298 235.239 62.879 235.03 62.8346L234.376 62.6886L233.721 62.5173C233.512 62.4538 233.316 62.3903 233.139 62.3205C232.974 62.2552 232.812 62.1811 232.655 62.0983C232.517 62.0199 232.386 61.9307 232.263 61.8317C232.153 61.7398 232.052 61.6378 231.962 61.5271C231.877 61.4192 231.804 61.3021 231.746 61.178C231.69 61.0516 231.649 60.9196 231.622 60.7845C231.595 60.6357 231.582 60.4849 231.583 60.3338C231.578 60.001 231.656 59.6721 231.812 59.3754C231.887 59.2303 231.979 59.094 232.086 58.9692C232.195 58.8404 232.318 58.7233 232.453 58.6201C232.595 58.5146 232.746 58.4212 232.904 58.3408C233.076 58.2547 233.255 58.1846 233.44 58.1313C233.637 58.0728 233.838 58.0283 234.042 57.998C234.259 57.9702 234.477 57.9554 234.696 57.9536C234.93 57.9549 235.164 57.9697 235.396 57.998C235.617 58.0267 235.836 58.0713 236.05 58.1313C236.244 58.1867 236.432 58.259 236.612 58.3471C236.785 58.4256 236.947 58.5236 237.096 58.6391C237.245 58.7451 237.379 58.8687 237.495 59.0072C237.61 59.1431 237.711 59.2898 237.796 59.4452C237.882 59.6064 237.948 59.7769 237.992 59.953C238.039 60.1401 238.066 60.3316 238.071 60.5242V60.594H236.841V60.5306C236.828 60.3189 236.767 60.1125 236.665 59.9253C236.562 59.7381 236.419 59.5744 236.246 59.4452C235.807 59.1778 235.292 59.0513 234.774 59.0834C234.495 59.0789 234.216 59.1066 233.944 59.1659C233.728 59.2145 233.523 59.2982 233.336 59.4135C233.187 59.5163 233.062 59.6482 232.969 59.8006C232.888 59.9513 232.848 60.1195 232.852 60.2894C232.844 60.3675 232.844 60.4461 232.852 60.5242C232.865 60.59 232.887 60.6539 232.917 60.7146C232.95 60.7715 232.99 60.8247 233.035 60.8733C233.09 60.9284 233.151 60.9774 233.218 61.0193C233.299 61.0679 233.385 61.1104 233.473 61.1463C233.584 61.1923 233.698 61.2326 233.813 61.2669L234.232 61.3811L234.748 61.4953L235.546 61.6667C235.684 61.6667 235.821 61.7302 235.945 61.7619L236.338 61.8825C236.475 61.927 236.599 61.9777 236.717 62.0285C236.84 62.0792 236.96 62.1364 237.077 62.1999C237.19 62.261 237.299 62.3288 237.404 62.403C237.506 62.4787 237.602 62.5614 237.691 62.6505C237.782 62.7377 237.862 62.8358 237.927 62.9425C237.998 63.0513 238.06 63.166 238.11 63.2853C238.165 63.4138 238.204 63.548 238.228 63.6851C238.255 63.8339 238.268 63.9847 238.267 64.1358C238.269 64.3176 238.247 64.4989 238.202 64.6753C238.164 64.8477 238.103 65.0144 238.018 65.1704C237.939 65.3294 237.84 65.4786 237.724 65.6147C237.609 65.7498 237.48 65.8732 237.338 65.9828C237.191 66.1002 237.03 66.2023 236.861 66.2875C236.685 66.3788 236.501 66.4553 236.311 66.516C236.109 66.5817 235.901 66.6306 235.69 66.662C235.473 66.6893 235.255 66.7041 235.036 66.7064L234.984 66.7381ZM250.288 60.7908H249.058V60.7273C249.054 60.6044 249.032 60.4827 248.993 60.3655C248.961 60.2526 248.915 60.1439 248.856 60.0418C248.797 59.9392 248.727 59.8434 248.646 59.7562C248.565 59.6679 248.475 59.5871 248.378 59.515C248.277 59.4428 248.17 59.3791 248.058 59.3246C247.938 59.2677 247.813 59.221 247.685 59.185C247.548 59.1457 247.408 59.116 247.266 59.0961C247.119 59.0754 246.971 59.0648 246.822 59.0644C246.62 59.0636 246.418 59.0827 246.22 59.1215C246.036 59.1542 245.856 59.2074 245.684 59.2802C245.517 59.3492 245.359 59.4365 245.213 59.5404C245.066 59.648 244.932 59.7715 244.814 59.9085C244.693 60.052 244.588 60.2073 244.5 60.3719C244.405 60.5532 244.326 60.7422 244.264 60.9368C244.197 61.1441 244.146 61.3563 244.114 61.5715C244.082 61.822 244.066 62.0743 244.068 62.3268C244.059 62.8072 244.123 63.2864 244.258 63.7486C244.319 63.9432 244.398 64.1322 244.493 64.3135C244.58 64.481 244.685 64.6386 244.807 64.7832C244.927 64.9187 245.061 65.042 245.206 65.1513C245.349 65.2549 245.503 65.3442 245.664 65.4179C245.836 65.4907 246.016 65.5439 246.2 65.5766C246.396 65.6157 246.596 65.6348 246.796 65.6337C246.953 65.6362 247.111 65.6256 247.266 65.602C247.41 65.5843 247.552 65.5567 247.692 65.5195C247.82 65.4813 247.945 65.4325 248.064 65.3735C248.178 65.317 248.286 65.2489 248.385 65.1704C248.48 65.0959 248.567 65.0131 248.646 64.9228C248.722 64.8262 248.789 64.7244 248.849 64.6182C248.908 64.505 248.955 64.3858 248.987 64.2627C249.021 64.1293 249.045 63.9935 249.058 63.8565V63.793H250.367V63.8692C250.346 64.0841 250.304 64.2965 250.242 64.5039C250.19 64.7004 250.113 64.8901 250.013 65.0688C249.918 65.2392 249.806 65.4006 249.68 65.5512C249.555 65.7005 249.415 65.8367 249.261 65.9574C249.105 66.0791 248.936 66.1854 248.758 66.2748C248.572 66.372 248.377 66.4507 248.176 66.5096C247.962 66.5763 247.743 66.6252 247.522 66.6556C246.995 66.7241 246.462 66.7134 245.939 66.6239C245.665 66.5733 245.397 66.4946 245.141 66.389C244.642 66.1943 244.195 65.8927 243.833 65.5068C243.654 65.3127 243.498 65.0998 243.368 64.8721C243.225 64.6353 243.109 64.3841 243.022 64.1231C242.924 63.8442 242.852 63.5575 242.806 63.2662C242.718 62.6344 242.718 61.9939 242.806 61.3621C242.856 61.0717 242.928 60.7853 243.022 60.5052C243.117 60.2473 243.233 59.9969 243.368 59.7562C243.503 59.5295 243.66 59.3168 243.839 59.1215C244.015 58.9309 244.212 58.7605 244.428 58.6137C244.648 58.4658 244.883 58.3383 245.128 58.2329C245.385 58.1295 245.652 58.0529 245.926 58.0044C246.221 57.9707 246.519 57.9643 246.815 57.9854C247.034 57.9869 247.253 58.0039 247.469 58.0361C247.691 58.0672 247.91 58.1161 248.123 58.1821C248.323 58.2449 248.518 58.3235 248.705 58.417C248.886 58.5055 249.057 58.6118 249.215 58.7343C249.53 58.97 249.795 59.2633 249.994 59.5975C250.094 59.7684 250.175 59.9493 250.236 60.1371C250.298 60.3292 250.339 60.527 250.36 60.7273V60.8035L250.288 60.7908ZM255.788 57.9854C256.08 57.9864 256.372 58.014 256.658 58.0679C256.934 58.1192 257.204 58.1979 257.463 58.3027C257.711 58.4067 257.947 58.5343 258.169 58.6835C258.392 58.8316 258.598 59.0018 258.784 59.1913C258.969 59.3864 259.133 59.599 259.274 59.826C259.422 60.0619 259.547 60.3105 259.647 60.5687C259.754 60.8419 259.833 61.1246 259.883 61.4128C259.987 62.0307 259.987 62.661 259.883 63.2789C259.832 63.5669 259.753 63.8496 259.647 64.1231C259.553 64.3847 259.43 64.6358 259.281 64.8721C259.141 65.1002 258.977 65.313 258.79 65.5068C258.608 65.7017 258.404 65.8762 258.182 66.0272C257.958 66.1765 257.719 66.3041 257.469 66.4081C257.211 66.5178 256.942 66.5988 256.665 66.6493C256.376 66.7062 256.083 66.7339 255.788 66.7318C255.494 66.7336 255.2 66.7059 254.912 66.6493C254.636 66.6009 254.366 66.5221 254.108 66.4144C253.857 66.3094 253.618 66.1796 253.395 66.0272C253.173 65.8807 252.969 65.7104 252.786 65.5195C252.601 65.323 252.435 65.1105 252.289 64.8847C252.145 64.6459 252.023 64.3953 251.923 64.1358C251.816 63.8587 251.74 63.5715 251.694 63.2789C251.641 62.9706 251.615 62.6585 251.616 62.3459C251.615 62.0312 251.641 61.7169 251.694 61.4065C251.745 61.1191 251.822 60.8367 251.923 60.5623C252.022 60.3016 252.147 60.0508 252.296 59.8133C252.441 59.5876 252.608 59.3751 252.793 59.1786C252.98 58.9924 253.184 58.8225 253.401 58.6708C253.627 58.5225 253.868 58.397 254.121 58.2964C254.379 58.1887 254.649 58.1099 254.925 58.0615C255.21 58.0076 255.499 57.9799 255.788 57.979V57.9854ZM255.788 65.6591C255.99 65.6599 256.192 65.6408 256.39 65.602C256.58 65.5711 256.765 65.5156 256.94 65.4369C257.113 65.3634 257.277 65.2719 257.43 65.164C257.582 65.0551 257.722 64.9317 257.849 64.7959C257.976 64.6471 258.09 64.4878 258.189 64.3199C258.291 64.1391 258.376 63.9501 258.444 63.7549C258.517 63.5486 258.569 63.3361 258.601 63.1202C258.641 62.8747 258.661 62.6263 258.66 62.3776C258.661 62.1289 258.641 61.8806 258.601 61.635C258.569 61.4191 258.516 61.2066 258.444 61.0003C258.376 60.8051 258.291 60.6161 258.189 60.4354C258.09 60.2713 257.976 60.1163 257.849 59.972C257.722 59.8362 257.582 59.7128 257.43 59.6039C257.281 59.4955 257.118 59.406 256.946 59.3373C256.772 59.2624 256.59 59.207 256.403 59.1723C256.21 59.1338 256.012 59.1147 255.815 59.1151C255.419 59.1128 255.028 59.1883 254.664 59.3373C254.314 59.4807 254.001 59.6974 253.748 59.972C253.618 60.1165 253.504 60.2739 253.408 60.4417C253.306 60.6224 253.221 60.8115 253.153 61.0066C253.078 61.2127 253.023 61.4252 252.989 61.6413C252.955 61.8854 252.937 62.1313 252.937 62.3776C252.93 62.853 253.001 63.3263 253.146 63.7803C253.214 63.9755 253.299 64.1645 253.401 64.3452C253.496 64.516 253.61 64.6757 253.741 64.8213C253.864 64.9585 254.002 65.082 254.153 65.1894C254.306 65.2973 254.471 65.3888 254.644 65.4623C254.817 65.5401 254.999 65.5956 255.187 65.6274C255.385 65.6658 255.586 65.685 255.788 65.6845V65.6591ZM261.675 66.5223V65.0942H263.284V66.5921H261.675V66.5223ZM267.051 66.3256C267.055 66.3678 267.055 66.4103 267.051 66.4525C267.041 66.4903 267.025 66.5267 267.005 66.5604L265.867 68.2043L265.828 68.2615L265.769 68.2234L265.318 67.906L265.259 67.8743L265.298 67.8171L266.129 66.5921H265.475V65.0942H267.084V66.3256H267.051ZM277.757 66.5921H272.322V58.1631H273.63V65.4941H277.81V66.6175L277.757 66.5921ZM285.403 59.2548H282.63V66.6175H281.361V59.2548H278.536V58.1377H285.468V59.2548H285.403ZM293.997 62.3141C293.997 65.1661 292.517 66.5921 289.556 66.5921H286.77V58.1631H289.556C290.764 58.0741 291.96 58.4503 292.885 59.2104C293.28 59.6309 293.583 60.1254 293.774 60.6635C293.965 61.2016 294.041 61.7719 293.997 62.3395V62.3141ZM292.689 62.3141C292.689 62.0793 292.689 61.8508 292.689 61.635C292.665 61.4215 292.627 61.2096 292.578 61.0003C292.49 60.6465 292.318 60.318 292.074 60.0418C291.95 59.9112 291.809 59.7961 291.655 59.6991C291.485 59.5945 291.303 59.5093 291.113 59.4452C290.901 59.3708 290.682 59.3176 290.459 59.2865C290.175 59.2468 289.888 59.2277 289.602 59.2294H288.019V65.4433H289.523C289.808 65.4438 290.091 65.4268 290.374 65.3925C290.596 65.3566 290.815 65.3014 291.028 65.2275C291.218 65.1614 291.4 65.0741 291.57 64.9673C291.726 64.87 291.867 64.7525 291.989 64.6182C292.106 64.4794 292.207 64.3282 292.29 64.1675C292.377 63.9951 292.445 63.8143 292.493 63.628C292.542 63.4186 292.579 63.2067 292.604 62.9933C292.604 62.7711 292.604 62.5363 292.604 62.2824L292.689 62.3141ZM295.717 66.5223V65.0942H297.326V66.5921H295.717V66.5223Z" fill="#332C2B"/>
</g>
<defs>
<clipPath id="clip0_1160_55071">
<rect width="295" height="40" fill="white" transform="translate(2.5 30)"/>
</clipPath>
</defs>
</svg>
