<svg width="300" height="100" viewBox="0 0 300 100" fill="none" xmlns="http://www.w3.org/2000/svg">
<g clip-path="url(#clip0_1160_54796)">
<path d="M163.317 42.5625L162.175 48.996H160.391L161.532 42.5625H163.317Z" fill="#231815"/>
<path d="M167.39 42.5391L167.516 47.0678L168.329 42.5391H169.925L168.783 48.9943H166.101L165.89 44.3354L165.092 48.9943H163.43L164.575 42.5391H167.39Z" fill="#231815"/>
<path d="M172.624 44.0715H172.739C173.655 44.0715 174.05 44.6535 173.865 45.7631C173.681 46.8727 173.001 47.4582 172.151 47.4582H172.059L172.624 44.0715ZM171.091 42.5391L170.02 48.9907H171.811C174.061 48.9907 175.443 47.8666 175.79 45.7631C176.16 43.5439 175.207 42.5391 172.883 42.5391H171.091Z" fill="#231815"/>
<path d="M179.01 42.5391L178.297 46.6558C178.279 46.7498 178.223 47.451 178.752 47.451C179.28 47.451 179.439 46.8438 179.472 46.6558L180.185 42.5391H182.032L181.36 46.4534C181.05 48.2353 180.141 49.1027 178.449 49.1027C176.757 49.1027 176.136 48.2353 176.443 46.4534L177.119 42.5391H179.01Z" fill="#231815"/>
<path d="M186.762 44.2632C186.342 44.078 185.888 43.9784 185.428 43.9705C184.837 43.9705 184.549 44.0789 184.497 44.4584C184.453 44.7692 184.829 44.7584 185.509 45.0078C186.577 45.4017 186.847 45.933 186.666 46.927C186.422 48.3077 185.391 49.0956 183.791 49.0956C183.155 49.104 182.522 49.0012 181.922 48.792L182.199 47.1402C182.633 47.3745 183.113 47.5173 183.607 47.5595C184.127 47.5595 184.715 47.4185 184.759 47.1981C184.863 46.7065 184.338 46.674 183.695 46.4752C182.635 46.1138 182.439 45.4885 182.628 44.4403C182.845 43.2295 183.895 42.4922 185.465 42.4922C185.996 42.4971 186.525 42.5676 187.039 42.7018L186.762 44.2632Z" fill="#231815"/>
<path d="M193.378 42.5625L193.035 44.4347H191.395L190.593 49.0177H188.709L189.525 44.4492H187.852L188.18 42.5661L193.378 42.5625Z" fill="#231815"/>
<path d="M195.857 43.9902H196.2C196.847 43.9902 197.12 44.1275 197.013 44.6625C196.906 45.1974 196.592 45.3564 195.927 45.3564H195.583L195.857 43.9902ZM194.283 42.6023L193.086 49.0539H194.904L195.376 46.7407H195.62C196.104 46.7407 196.245 46.7407 196.296 47.2792L196.267 49.0539H198.229L198.181 46.972C198.085 46.3395 197.811 46.0793 197.383 45.9889C197.778 45.8982 198.135 45.6906 198.405 45.3944C198.675 45.0983 198.846 44.7279 198.894 44.3336C199.034 43.5709 198.923 43.0577 198.288 42.7758C197.859 42.5806 197.043 42.6023 196.101 42.6023H194.283Z" fill="#231815"/>
<path d="M202.137 42.5391L200.995 48.9907H199.211L200.356 42.5391H202.137Z" fill="#231815"/>
<path d="M205.699 43.93L205.899 46.0697H204.768L205.699 43.93ZM204.691 42.5312L201.816 48.9829H203.664L204.262 47.6275H205.862L205.962 48.9829H207.872L207.24 42.5312H204.691Z" fill="#231815"/>
<path d="M211.61 42.5625L210.838 47.066H213.173L212.803 49.0141H208.625L209.763 42.5625H211.61Z" fill="#231815"/>
<path d="M161.247 51.0628L161.447 53.2025H160.32L161.247 51.0628ZM160.257 49.6641L157.383 56.1157H159.23L159.836 54.7603H161.439L161.535 56.1157H163.445L162.817 49.6641H160.257Z" fill="#231815"/>
<path d="M166.655 49.75L165.946 53.8667C165.924 53.9607 165.872 54.6619 166.397 54.6619C166.921 54.6619 167.084 54.0511 167.136 53.8667L167.845 49.75H169.692L169.016 53.6643C168.706 55.4498 167.797 56.3137 166.105 56.3137C164.413 56.3137 163.792 55.4498 164.099 53.6643L164.775 49.75H166.655Z" fill="#231815"/>
<path d="M175.694 49.7332L175.355 51.6018H173.711L172.909 56.1848H171.017L171.83 51.6018H170.16L170.485 49.7188L175.694 49.7332Z" fill="#231815"/>
<path d="M192.77 51.1295L192.973 53.2728H191.842L192.77 51.1295ZM191.765 49.7344L188.891 56.186H190.738L191.344 54.827H192.947L193.043 56.186H194.953L194.325 49.7344H191.765Z" fill="#231815"/>
<path d="M201.015 49.7332L200.675 51.6018H199.049L198.248 56.1848H196.352L197.154 51.6018H195.48L195.809 49.7188L201.015 49.7332Z" fill="#231815"/>
<path d="M203.773 49.6641L202.628 56.1157H200.844L202.004 49.6641H203.773Z" fill="#231815"/>
<path d="M213.964 49.7344L214.086 54.2595L214.899 49.7344H216.499L215.357 56.186H212.675L212.461 51.5307L211.666 56.186H210.004L211.145 49.7344H213.964Z" fill="#231815"/>
<path d="M178.6 51.2091C179.114 51.2091 179.339 51.8453 179.143 52.9982C178.947 54.1512 178.519 54.7729 178.005 54.7657C177.492 54.7584 177.266 54.1295 177.47 52.9802C177.673 51.8308 178.086 51.2019 178.6 51.2091ZM178.877 49.6875C177.207 49.6875 175.973 50.8585 175.611 53.0055C175.249 55.1524 176.077 56.3632 177.758 56.3849C179.439 56.4066 180.676 55.2066 181.031 53.0705C181.386 50.9345 180.558 49.7092 178.877 49.6875Z" fill="#231815"/>
<path d="M207.208 51.2172C207.722 51.2172 207.947 51.8534 207.748 53.0063C207.548 54.1593 207.123 54.781 206.613 54.7738C206.104 54.7665 205.874 54.1376 206.078 52.9666C206.281 51.7955 206.695 51.21 207.208 51.2172ZM207.485 49.6956C205.815 49.6739 204.592 50.8811 204.223 53.01C203.854 55.1388 204.689 56.3713 206.37 56.393C208.05 56.4147 209.288 55.2111 209.643 53.075C209.997 50.9389 209.166 49.7137 207.485 49.6956Z" fill="#231815"/>
<path d="M185.29 49.7969L185.342 53.3209L186.624 49.7969H189.369L188.283 56.187H186.583L187.4 51.2029L185.575 56.187H183.99L183.934 51.098L182.992 56.187H181.426L182.534 49.7969H185.29Z" fill="#231815"/>
<path d="M104.447 45.0943L106.509 49.1568H100.062L104.447 45.0943ZM99.6706 42.3438L83.5 55.9626H92.943L97.3098 51.8748H107.872L110.015 55.9626H119.214L110.717 42.3438H99.6706Z" fill="#231815"/>
<path d="M143.511 42.3281L142.949 45.6208L134.149 45.2991L131.811 56.1205H122.907L125.312 45.2774L117.469 45.5991L117.979 42.3462L143.511 42.3281Z" fill="#231815"/>
<path d="M156.934 42.2891L154.004 55.9405H145.086L148.067 42.2891H156.934Z" fill="#231815"/>
<path d="M157.014 42.208C157.014 42.208 161.721 36.425 156.899 32.5288C152.27 28.8024 141.752 30.2662 141.246 30.3204C136.613 30.8445 122.681 33.3456 110.789 42.2261C110.789 42.2261 124.54 36.2407 138.752 35.601C156.995 34.7769 157.014 42.208 157.014 42.208Z" fill="#D91820"/>
<path d="M92.9427 56.278C92.9427 56.278 87.9146 62.3501 92.5105 66.5644C97.1803 70.851 108.515 69.9041 109.069 69.8752C114.031 69.6113 132.883 66.0186 144.949 56.1406C144.949 56.1406 127.046 64.1898 111.433 64.0922C92.9686 63.9585 92.9427 56.278 92.9427 56.278Z" fill="#D91820"/>
<path d="M145.506 68.8335H144.553L144.032 67.6227H141.604L141.076 68.8335H140.156L142.41 63.7734H143.267L145.506 68.8335ZM142.816 64.8324L141.937 66.842H143.703L142.816 64.8324Z" fill="#666464"/>
<path d="M152.021 63.8125H152.908V68.8292H152.169L149.339 65.2582V68.8292H148.438V63.8125H149.272L152.021 67.2823V63.8125Z" fill="#666464"/>
<path d="M156.067 68.9158C155.8 68.9221 155.534 68.8759 155.285 68.7801C155.036 68.6842 154.81 68.5406 154.619 68.3576C154.427 68.1747 154.276 67.9562 154.172 67.715C154.069 67.4738 154.016 67.2148 154.016 66.9532C154.005 66.5507 154.116 66.154 154.336 65.8139C154.557 65.4738 154.876 65.2058 155.253 65.0444C155.63 64.883 156.048 64.8355 156.453 64.908C156.857 64.9805 157.231 65.1697 157.525 65.4512C157.819 65.7328 158.021 66.094 158.104 66.4884C158.187 66.8828 158.147 67.2924 157.99 67.6647C157.834 68.037 157.567 68.355 157.224 68.5779C156.881 68.8009 156.478 68.9185 156.067 68.9158ZM156.067 65.7243C155.907 65.724 155.749 65.7557 155.603 65.8176C155.456 65.8796 155.324 65.9703 155.215 66.0842C155.106 66.1981 155.022 66.3327 154.968 66.4797C154.915 66.6267 154.892 66.783 154.903 66.9387C154.896 67.0955 154.921 67.2522 154.976 67.3994C155.032 67.5466 155.117 67.6813 155.227 67.7956C155.337 67.9099 155.469 68.0014 155.616 68.0647C155.763 68.128 155.921 68.1618 156.082 68.164C156.242 68.1653 156.4 68.1344 156.548 68.0732C156.695 68.012 156.828 67.9218 156.938 67.8082C157.048 67.6947 157.133 67.5602 157.188 67.4131C157.243 67.266 157.266 67.1095 157.256 66.9532C157.264 66.7954 157.239 66.6377 157.182 66.4895C157.126 66.3414 157.04 66.206 156.929 66.0912C156.818 65.9765 156.684 65.8849 156.536 65.8218C156.388 65.7588 156.228 65.7256 156.067 65.7243Z" fill="#666464"/>
<path d="M161.591 65.0469H162.522L160.941 68.86H160.143L158.551 65.0469H159.522L160.564 67.8299L161.591 65.0469Z" fill="#666464"/>
<path d="M165.615 68.8279V68.3617C165.463 68.5404 165.271 68.6826 165.054 68.7772C164.836 68.8718 164.6 68.9164 164.362 68.9074C163.624 68.9074 162.984 68.499 162.984 67.74C162.984 66.9231 163.649 66.5219 164.551 66.5219C164.914 66.5147 165.276 66.5672 165.622 66.6774V66.5834C165.622 66.0629 165.286 65.7738 164.669 65.7738C164.286 65.7745 163.908 65.8558 163.561 66.0123L163.317 65.3148C163.778 65.101 164.284 64.9935 164.795 65.0003C165.936 65.0003 166.494 65.5894 166.494 66.5978V68.8424L165.615 68.8279ZM165.637 67.2231C165.353 67.121 165.053 67.0696 164.75 67.0713C164.192 67.0713 163.864 67.2954 163.864 67.6822C163.864 68.0436 164.192 68.2424 164.603 68.2424C165.19 68.2424 165.63 67.9171 165.63 67.4436L165.637 67.2231Z" fill="#666464"/>
<path d="M168.528 68.8325H167.648V65.0483H168.535V65.6375C168.659 65.4319 168.837 65.2619 169.05 65.1445C169.262 65.0272 169.503 64.9666 169.747 64.9688C170.619 64.9688 171.125 65.5435 171.125 66.4145V68.8217H170.235V66.6531C170.235 66.0676 169.932 65.7278 169.407 65.7278C169.284 65.7255 169.162 65.749 169.049 65.7965C168.936 65.8441 168.835 65.9147 168.752 66.0037C168.669 66.0926 168.606 66.1979 168.568 66.3124C168.53 66.4268 168.518 66.5479 168.531 66.6676L168.528 68.8325Z" fill="#666464"/>
<path d="M173.281 67.6511C173.271 67.7148 173.277 67.7799 173.297 67.8412C173.318 67.9025 173.352 67.9583 173.398 68.0042C173.445 68.0501 173.501 68.0849 173.564 68.1058C173.626 68.1267 173.692 68.1331 173.758 68.1246C173.949 68.1253 174.138 68.0807 174.308 67.9944V68.7173C174.064 68.8487 173.789 68.9148 173.51 68.9089C172.856 68.9089 172.402 68.6306 172.402 67.7993V65.8041H171.914V65.0487H172.402V64.0078H173.288V65.0487H174.33V65.7933H173.288L173.281 67.6511Z" fill="#666464"/>
<path d="M177.662 68.828V68.3617C177.509 68.5398 177.317 68.6816 177.1 68.7761C176.883 68.8707 176.647 68.9156 176.409 68.9075C175.67 68.9075 175.031 68.4991 175.031 67.7401C175.031 66.9232 175.696 66.522 176.598 66.522C176.961 66.5151 177.323 66.5676 177.669 66.6774V66.5835C177.669 66.063 177.333 65.7738 176.716 65.7738C176.333 65.7755 175.956 65.8568 175.608 66.0124L175.367 65.3148C175.829 65.1004 176.334 64.9928 176.845 65.0004C177.991 65.0004 178.548 65.5895 178.548 66.5979V68.8424L177.662 68.828ZM177.684 67.2232C177.4 67.1211 177.1 67.0697 176.797 67.0714C176.239 67.0714 175.911 67.2955 175.911 67.6822C175.911 68.0437 176.239 68.2425 176.649 68.2425C177.237 68.2425 177.676 67.9172 177.676 67.4437L177.684 67.2232Z" fill="#666464"/>
<path d="M184.134 68.9186C183.431 68.9138 182.758 68.6358 182.264 68.1457C181.77 67.6557 181.495 66.9937 181.5 66.3054C181.505 65.6172 181.789 64.959 182.29 64.4757C182.791 63.9924 183.468 63.7236 184.171 63.7284C184.543 63.7147 184.914 63.7771 185.26 63.9115C185.606 64.0459 185.92 64.2495 186.181 64.5091L185.601 65.1633C185.415 64.9714 185.193 64.8173 184.946 64.7099C184.7 64.6026 184.434 64.5442 184.164 64.538C183.729 64.6046 183.332 64.8211 183.046 65.1485C182.759 65.4759 182.602 65.8926 182.602 66.3235C182.602 66.7544 182.759 67.1712 183.046 67.4986C183.332 67.8259 183.729 68.0424 184.164 68.109C184.443 68.1062 184.719 68.0465 184.973 67.9339C185.227 67.8213 185.455 67.6581 185.642 67.4548L186.218 68.0295C185.96 68.3203 185.639 68.5511 185.279 68.7049C184.918 68.8587 184.527 68.9318 184.134 68.9186Z" fill="#666464"/>
<path d="M188.918 68.9158C188.651 68.9221 188.385 68.8759 188.137 68.7801C187.888 68.6842 187.661 68.5406 187.47 68.3576C187.279 68.1747 187.127 67.9562 187.024 67.715C186.92 67.4738 186.867 67.2148 186.868 66.9532C186.856 66.5507 186.968 66.154 187.188 65.8139C187.408 65.4738 187.727 65.2058 188.105 65.0444C188.482 64.883 188.899 64.8355 189.304 64.908C189.709 64.9805 190.082 65.1697 190.377 65.4512C190.671 65.7328 190.872 66.094 190.955 66.4884C191.038 66.8828 190.999 67.2924 190.842 67.6647C190.685 68.037 190.418 68.355 190.076 68.5779C189.733 68.8009 189.33 68.9185 188.918 68.9158ZM188.918 65.7243C188.759 65.724 188.601 65.7557 188.454 65.8176C188.308 65.8796 188.176 65.9703 188.067 66.0842C187.958 66.1981 187.874 66.3327 187.82 66.4797C187.766 66.6267 187.744 66.783 187.755 66.9387C187.747 67.0955 187.772 67.2522 187.828 67.3994C187.883 67.5466 187.969 67.6813 188.079 67.7956C188.189 67.9099 188.321 68.0014 188.468 68.0647C188.615 68.128 188.773 68.1618 188.933 68.164C189.093 68.1653 189.252 68.1344 189.399 68.0732C189.546 68.012 189.679 67.9218 189.789 67.8082C189.9 67.6947 189.985 67.5602 190.04 67.4131C190.094 67.266 190.118 67.1095 190.108 66.9532C190.116 66.7954 190.09 66.6377 190.034 66.4895C189.978 66.3414 189.891 66.206 189.78 66.0912C189.669 65.9765 189.536 65.8849 189.388 65.8218C189.24 65.7588 189.08 65.7256 188.918 65.7243Z" fill="#666464"/>
<path d="M196.49 64.9773C197.333 64.9773 197.846 65.5014 197.846 66.4231V68.8375H196.96V66.6688C196.96 66.0689 196.675 65.7436 196.176 65.7436C195.678 65.7436 195.349 66.0761 195.349 66.6833V68.8194H194.462V66.6508C194.462 66.0652 194.167 65.7327 193.675 65.7327C193.184 65.7327 192.848 66.0942 192.848 66.6797V68.8085H191.961V65.0496H192.848V65.6243C192.971 65.4251 193.144 65.2603 193.351 65.1457C193.558 65.0312 193.792 64.9707 194.03 64.9701C194.267 64.959 194.503 65.0165 194.707 65.1354C194.911 65.2543 195.075 65.4293 195.179 65.6388C195.325 65.4318 195.522 65.2633 195.75 65.1479C195.979 65.0326 196.233 64.974 196.49 64.9773Z" fill="#666464"/>
<path d="M201.225 68.9108C200.967 68.9131 200.713 68.8537 200.483 68.7378C200.254 68.6219 200.057 68.453 199.91 68.2458V69.9807H199.023V65.0471H199.91V65.676C200.048 65.456 200.242 65.2742 200.472 65.1477C200.702 65.0212 200.961 64.9542 201.225 64.9531C202.142 64.9531 203.028 65.676 203.028 66.9266C203.028 68.1771 202.145 68.9108 201.225 68.9108ZM201.018 65.7194C200.708 65.748 200.42 65.8889 200.21 66.1145C200 66.3401 199.884 66.6342 199.884 66.9392C199.884 67.2442 200 67.5383 200.21 67.7639C200.42 67.9895 200.708 68.1304 201.018 68.1591C201.323 68.1227 201.603 67.9786 201.807 67.7539C202.01 67.5291 202.122 67.2394 202.122 66.9392C202.122 66.639 202.01 66.3493 201.807 66.1245C201.603 65.8998 201.323 65.7557 201.018 65.7194Z" fill="#666464"/>
<path d="M206.365 68.828V68.3617C206.212 68.5398 206.02 68.6816 205.803 68.7761C205.586 68.8707 205.35 68.9156 205.112 68.9075C204.374 68.9075 203.734 68.4991 203.734 67.7401C203.734 66.9232 204.399 66.522 205.301 66.522C205.664 66.5151 206.026 66.5676 206.372 66.6774V66.5835C206.372 66.063 206.036 65.7738 205.419 65.7738C205.036 65.7755 204.659 65.8568 204.311 66.0124L204.071 65.3148C204.532 65.1004 205.038 64.9928 205.548 65.0004C206.694 65.0004 207.251 65.5895 207.251 66.5979V68.8424L206.365 68.828ZM206.387 67.2232C206.103 67.1211 205.803 67.0697 205.5 67.0714C204.942 67.0714 204.614 67.2955 204.614 67.6822C204.614 68.0437 204.942 68.2425 205.353 68.2425C205.94 68.2425 206.38 67.9172 206.38 67.4437L206.387 67.2232Z" fill="#666464"/>
<path d="M209.277 68.8334H208.391V65.0492H209.277V65.6384C209.404 65.432 209.584 65.262 209.799 65.1458C210.015 65.0297 210.258 64.9714 210.504 64.9769C211.376 64.9769 211.878 65.5516 211.878 66.4227V68.8298H210.992V66.6612C210.992 66.0757 210.692 65.7359 210.164 65.7359C210.041 65.7336 209.919 65.757 209.806 65.8046C209.693 65.8522 209.592 65.9229 209.51 66.0119C209.427 66.1009 209.365 66.2062 209.327 66.3207C209.29 66.4352 209.278 66.5562 209.292 66.6757L209.277 68.8334Z" fill="#666464"/>
<path d="M214.896 68.9552C214.589 69.7286 214.246 70.0178 213.621 70.0178C213.3 70.0218 212.984 69.942 212.705 69.7865L213.008 69.1431C213.167 69.2314 213.346 69.2798 213.529 69.2841C213.776 69.2841 213.932 69.1756 214.076 68.8467L212.465 65.0625H213.411L214.519 67.8708L215.524 65.0625H216.447L214.896 68.9552Z" fill="#666464"/>
</g>
<defs>
<clipPath id="clip0_1160_54796">
<rect width="133" height="40" fill="white" transform="translate(83.5 30)"/>
</clipPath>
</defs>
</svg>
