<svg width="300" height="100" viewBox="0 0 300 100" fill="none" xmlns="http://www.w3.org/2000/svg">
<g clip-path="url(#clip0_1160_55000)">
<path d="M103.177 31H97.4609V36.5442H103.177V31Z" fill="#003F8C"/>
<path d="M69.9478 48.1725C70.1617 46.5066 70.7302 44.902 71.6174 43.4605C72.7021 41.7517 74.1361 40.2764 75.8311 39.1256C77.526 37.9748 79.4459 37.1729 81.4725 36.7692H94.8985V31H84.2551C78.8839 31.0089 73.7355 33.0832 69.9386 36.7682C66.1417 40.4532 64.0061 45.4481 64 50.6579V69H85.658C85.7391 69 93.6696 68.2578 96.9159 63.377L97.0087 63.2421H69.9478V48.1725Z" fill="#003F8C"/>
<path d="M103.407 52.2347V39.2344H97.4597V51.0426C97.2973 54.0902 96.3814 54.9787 96.2307 55.0911H72.6133V60.9728H99.7901C102.115 58.6232 103.412 55.4914 103.407 52.2347Z" fill="#003F8C"/>
<path d="M94.8973 52.9769V39.2344H83.1872C77.3901 39.2344 72.6133 43.0805 72.6133 47.8038V52.9769H81.0771V46.0494C81.0755 45.569 81.1719 45.0931 81.3608 44.649C81.5496 44.2049 81.8271 43.8014 82.1773 43.4617C82.5275 43.122 82.9435 42.8528 83.4014 42.6697C83.8592 42.4865 84.3499 42.393 84.8452 42.3945H87.9988V52.9769H94.8973Z" fill="url(#paint0_linear_1160_55000)"/>
<path d="M160.74 42.989H156.89C156.683 43.6581 156.329 44.2758 155.853 44.7999C155.377 45.324 154.789 45.742 154.131 46.0254V41.7969H150.282V53.2677C150.271 53.7078 150.428 54.1362 150.722 54.471C150.919 54.9884 151.441 55.247 152.322 55.247H159.14C159.812 55.1008 160.23 54.8422 160.38 54.471C160.494 54.3602 160.585 54.2287 160.647 54.084C160.708 53.9393 160.74 53.7842 160.74 53.6276V50.5912H156.89V52.3118C156.89 52.7842 156.693 53.0203 156.311 53.0203H154.931C154.398 53.0203 154.131 52.7279 154.131 52.1656V48.2295C157.957 47.7572 160.16 45.9804 160.74 42.944" fill="#3E3F3F"/>
<path d="M119.732 48.204H122.051V46.0223H119.732V43.5482H121.761V41.1641H114.213V43.5482H115.883V46.0223H113.703V48.204H115.883V55.3114C118.082 54.8554 120.145 53.9167 121.912 52.5674V50.4532C121.262 50.8941 120.516 51.1828 119.732 51.2967V48.204Z" fill="#3E3F3F"/>
<path d="M129.601 45.8089V42.8513C127.559 42.3844 125.459 42.1952 123.363 42.289V44.257C125.508 44.4849 127.608 45.0075 129.601 45.8089Z" fill="#3E3F3F"/>
<path d="M130.621 48.6887V46.0234C128.018 46.9425 125.348 47.6718 122.633 48.2052V51.5114C125.425 50.9594 128.117 50.0081 130.621 48.6887Z" fill="#3E3F3F"/>
<path d="M124.581 35.7412C124.556 36.4443 124.367 37.1326 124.027 37.7542C123.688 38.3758 123.207 38.9142 122.621 39.3287V42.0052C124.172 41.5356 125.558 40.6554 126.621 39.4636H130.459C131.038 39.4636 131.34 39.6998 131.34 40.1721V52.3065C131.353 52.4026 131.344 52.5004 131.312 52.5923C131.28 52.6842 131.226 52.7677 131.156 52.8362C131.085 52.9048 130.999 52.9566 130.904 52.9876C130.809 53.0186 130.709 53.028 130.609 53.015H128.291V55.2642H133.589C134.644 55.073 135.178 54.5782 135.178 53.7797V39.936C134.934 38.1029 134.018 37.192 132.279 37.192H128.059C128.198 36.6747 128.325 36.1798 128.418 35.7188H124.581" fill="#3E3F3F"/>
<path d="M113.854 39.3375L113.703 39.4724V41.1705H113.854C115.367 41.0443 116.783 40.3936 117.842 39.3375H122.26V37.0095H119.071C119.36 36.6288 119.58 36.2027 119.721 35.75H115.883C115.852 36.4591 115.653 37.1518 115.301 37.774C114.949 38.3962 114.454 38.9313 113.854 39.3375Z" fill="#3E3F3F"/>
<path d="M153.042 39.4653H156.311C156.694 39.4653 156.891 39.6115 156.891 39.8926V41.1634H160.74V38.6218C160.767 38.4311 160.748 38.237 160.685 38.0545C160.621 37.8721 160.515 37.7064 160.375 37.5702C160.235 37.4341 160.064 37.3313 159.876 37.2699C159.688 37.2085 159.487 37.1901 159.291 37.2161H156.891V35.9453H153.042V37.2161H149.273V41.1634H153.042V39.4653Z" fill="#3E3F3F"/>
<path d="M148.765 37.0095H146.156C146.335 36.8485 146.479 36.6538 146.579 36.4373C146.678 36.2209 146.732 35.987 146.736 35.75H142.886C142.795 36.2074 142.597 36.6384 142.307 37.0095H139.397V44.0495H138.492V46.3774H139.431V51.1907C139.394 51.8799 139.144 52.5423 138.712 53.0912V55.3404C139.794 55.2073 140.798 54.7241 141.562 53.9691C142.326 53.214 142.805 52.2311 142.921 51.1794V48.0193C143.178 48.8159 143.299 49.6477 143.281 50.4822H145.449V52.5964C145.449 52.9225 145.205 53.08 144.718 53.08H144.22V55.3292H147.478C147.744 55.2827 147.997 55.1839 148.223 55.0388C148.448 54.8938 148.64 54.7055 148.788 54.4857V37.0095H148.765ZM145.449 49.47C145.291 48.6274 145.046 47.8023 144.718 47.0072H142.91V46.3774H145.449V49.47ZM145.449 44.0495H142.91V40.7432C143.145 41.5443 143.266 42.373 143.269 43.206H145.449V44.0495ZM145.449 42.4301C145.303 41.5848 145.058 40.7585 144.718 39.9672H142.91V39.3375H145.449V42.4301Z" fill="#3E3F3F"/>
<path d="M208.278 49.4688H202.26C201.854 49.5464 201.491 49.7628 201.235 50.0786C200.98 50.3944 200.85 50.7885 200.869 51.1894V55.058H209.947V50.9757C209.947 49.9861 209.391 49.4912 208.278 49.4912M206.678 53.2924H204.139V52.1003C204.139 51.7292 204.312 51.538 204.649 51.538H206.098C206.492 51.538 206.678 51.7742 206.678 52.2352V53.2924Z" fill="#3E3F3F"/>
<path d="M213.855 53.0687V55.2504C216.363 54.6866 218.689 53.5302 220.625 51.884C222.56 50.2378 224.047 48.153 224.951 45.8151C225.858 48.1533 227.347 50.238 229.285 51.8841C231.222 53.5301 233.549 54.6864 236.058 55.2504V53.0687C230.254 49.3201 227.204 43.5472 226.911 35.75H222.992C222.744 43.5322 219.699 49.3051 213.855 53.0687Z" fill="#3E3F3F"/>
<path d="M197.97 49.4688H191.732C191.296 49.5239 190.892 49.7226 190.588 50.0316C190.284 50.3406 190.099 50.7413 190.062 51.1669V55.0355H199.199V51.1894C199.349 50.0648 198.932 49.4912 197.97 49.4912M195.941 52.1003V53.2924H193.541V52.2352C193.541 51.8641 193.645 51.628 193.831 51.538H195.361C195.836 51.538 196.034 51.7292 195.941 52.1003Z" fill="#3E3F3F"/>
<path d="M189.912 47.0011H188.973V49.1828H189.912C194.117 49.1828 197.433 48.4556 199.86 47.0011C202.418 48.4481 206.02 49.1753 210.665 49.1828V47.0011C206.897 46.8099 204.289 46.3713 202.828 45.6628H209.947V43.5486H207.767V42.2891H204.138V43.5486H202.109V42.2891H198.26V43.5486H189.912V45.6628H197.031C194.77 46.5549 192.352 47.0095 189.912 47.0011Z" fill="#3E3F3F"/>
<path d="M177.287 38.4135H178.597C179.073 38.4135 179.316 38.5822 179.316 38.9084V53.6293C179.307 53.9174 179.359 54.2043 179.467 54.4727C179.797 54.866 180.255 55.1395 180.766 55.2487H186.145V53.067H183.71C183.223 53.067 182.98 52.8983 182.98 52.5722V37.5026C182.995 37.3299 182.972 37.1562 182.913 36.9927C182.854 36.8291 182.76 36.6794 182.638 36.5533C182.515 36.4271 182.367 36.3273 182.202 36.2603C182.037 36.1933 181.86 36.1606 181.681 36.1643H173.403V49.0522C173.33 50.5045 172.712 51.8807 171.664 52.9208V55.3162C172.612 55.1306 173.537 54.8478 174.423 54.4727C175.329 53.8747 176.063 53.0639 176.558 52.1159C177.053 51.168 177.292 50.114 177.252 49.0522V38.4135" fill="#3E3F3F"/>
<path d="M166.909 37.9903H164.59V40.3182H166.909C166.228 43.8794 165.332 46.3648 164.219 47.7743V51.1481C165.291 50.0316 166.196 48.7748 166.909 47.4144V55.2866H170.758V45.7838C171.21 46.7968 171.965 47.6548 172.926 48.2466V45.1427C171.807 43.7994 171.06 42.2004 170.758 40.4982V40.2958H172.926V37.9678H170.758V35.4375H166.909V37.9678" fill="#3E3F3F"/>
<path d="M197.97 36.1562H191.581C191.215 36.1943 190.87 36.3444 190.597 36.585C190.324 36.8255 190.137 37.1441 190.062 37.4945V41.7905H199.199V37.3596C199.199 36.6511 198.793 36.235 197.97 36.1562ZM195.941 39.9349H193.541V38.4504C193.541 38.1693 193.541 38.0343 193.691 38.0343H195.57C195.678 38.1041 195.768 38.1973 195.832 38.3067C195.896 38.416 195.934 38.5384 195.941 38.6641V39.9349Z" fill="#3E3F3F"/>
<path d="M208.86 36.1562H202.263C201.439 36.1562 200.987 36.6736 200.883 37.7082V41.7905H209.961V37.4945C209.993 37.3356 209.989 37.1718 209.95 37.0145C209.91 36.8571 209.836 36.7098 209.733 36.5828C209.629 36.4557 209.499 36.3518 209.35 36.2782C209.201 36.2046 209.038 36.163 208.871 36.1562M206.68 39.9349H204.141V38.6641C204.148 38.5397 204.184 38.4186 204.247 38.3096C204.309 38.2006 204.396 38.1065 204.5 38.0343H206.1C206.494 38.0343 206.68 38.248 206.68 38.6641V39.9349Z" fill="#3E3F3F"/>
<path d="M116.183 61.0781H117.088V65.644C117.088 67.4546 116.172 68.0169 114.955 68.0169C114.626 68.0126 114.301 67.9556 113.992 67.8482L114.131 67.1284C114.371 67.2217 114.627 67.2676 114.885 67.2634C115.697 67.2634 116.183 66.9148 116.183 65.5765V61.0781Z" fill="#677072"/>
<path d="M126.433 64.4212C126.433 66.7716 124.961 68.0199 123.164 68.0199C122.715 68.0129 122.273 67.9154 121.865 67.7336C121.457 67.5518 121.093 67.2897 120.795 66.9639C120.497 66.6381 120.273 66.2559 120.136 65.8413C119.999 65.4268 119.952 64.9892 119.999 64.5562C119.95 64.1085 119.999 63.6559 120.14 63.2272C120.282 62.7984 120.513 62.4029 120.821 62.0656C121.128 61.7284 121.504 61.4567 121.926 61.2679C122.347 61.0791 122.804 60.9772 123.268 60.9688C123.718 60.9707 124.161 61.0645 124.571 61.2439C124.98 61.4233 125.346 61.6843 125.645 62.01C125.944 62.3357 126.168 62.7187 126.304 63.1342C126.44 63.5496 126.484 63.9881 126.433 64.4212ZM120.973 64.5337C120.973 65.9957 121.784 67.3002 123.222 67.3002C124.66 67.3002 125.471 66.0069 125.471 64.4662C125.471 63.1055 124.741 61.6885 123.222 61.6885C121.703 61.6885 120.973 63.038 120.973 64.5337Z" fill="#677072"/>
<path d="M129.426 61.1711C130.063 61.0812 130.706 61.0361 131.35 61.0361C132.377 60.956 133.397 61.2575 134.203 61.8796C134.541 62.1945 134.805 62.5766 134.977 62.9997C135.149 63.4228 135.225 63.877 135.2 64.3312C135.223 64.8174 135.144 65.3032 134.969 65.7593C134.794 66.2154 134.525 66.6324 134.179 66.9852C133.317 67.6961 132.2 68.0478 131.072 67.9636C130.522 67.9644 129.973 67.9382 129.426 67.8849V61.1711ZM130.33 67.2101C130.635 67.2299 130.941 67.2299 131.246 67.2101C131.65 67.2565 132.059 67.2139 132.444 67.0854C132.828 66.9569 133.178 66.7459 133.467 66.468C133.755 66.1902 133.976 65.8527 134.111 65.4808C134.247 65.1088 134.294 64.712 134.249 64.3199C134.284 63.9539 134.234 63.5849 134.101 63.2406C133.968 62.8963 133.756 62.5858 133.482 62.3324C133.207 62.079 132.877 61.8894 132.516 61.7778C132.154 61.6663 131.772 61.6357 131.397 61.6884C131.039 61.6803 130.681 61.7105 130.33 61.7784V67.2101Z" fill="#677072"/>
<path d="M141.832 64.6768H139.096V67.1397H142.145V67.8819H138.191V61.0781H141.971V61.8204H139.073V63.9683H141.809L141.832 64.6768Z" fill="#677072"/>
<path d="M145.137 61.0781H146.053V67.1622H149.056V67.9044H145.137V61.0781Z" fill="#677072"/>
<path d="M151.883 61.0781H152.787V67.1622H155.79V67.9044H151.883V61.0781Z" fill="#677072"/>
<path d="M162.656 61.1737C163.23 61.0772 163.813 61.032 164.395 61.0388C165.119 60.9645 165.845 61.1617 166.424 61.5898C166.608 61.7536 166.753 61.9541 166.849 62.1773C166.945 62.4006 166.99 62.6413 166.981 62.8831C166.987 63.2738 166.861 63.6558 166.623 63.9706C166.384 64.2854 166.046 64.5157 165.659 64.6262C165.942 64.745 166.186 64.9348 166.368 65.176C166.549 65.4173 166.661 65.7011 166.691 65.9982C166.814 66.639 166.996 67.2676 167.236 67.8763H166.32C166.107 67.3491 165.948 66.803 165.845 66.2456C165.636 65.301 165.265 64.9523 164.442 64.9186H163.584V67.8763H162.679L162.656 61.1737ZM163.561 64.2776H164.488C165.462 64.2776 166.077 63.7715 166.077 62.9843C166.077 62.1971 165.416 61.7248 164.453 61.7135C164.154 61.7023 163.853 61.7288 163.561 61.7922V64.2776Z" fill="#677072"/>
<path d="M176.094 64.4212C176.094 66.7716 174.621 68.0199 172.824 68.0199C172.375 68.0129 171.933 67.9154 171.525 67.7336C171.117 67.5518 170.753 67.2897 170.455 66.9639C170.158 66.6381 169.933 66.2559 169.796 65.8413C169.659 65.4268 169.612 64.9892 169.659 64.5562C169.611 64.1085 169.659 63.6559 169.8 63.2272C169.942 62.7984 170.174 62.4029 170.481 62.0656C170.788 61.7284 171.165 61.4567 171.586 61.2679C172.007 61.0791 172.464 60.9772 172.928 60.9688C173.378 60.9707 173.822 61.0645 174.231 61.2439C174.641 61.4233 175.007 61.6843 175.305 62.01C175.604 62.3357 175.828 62.7187 175.964 63.1342C176.1 63.5496 176.144 63.9881 176.094 64.4212ZM170.633 64.5337C170.633 65.9957 171.444 67.3002 172.882 67.3002C174.32 67.3002 175.131 66.0069 175.131 64.4662C175.131 63.1055 174.401 61.6885 172.882 61.6885C171.363 61.6885 170.633 63.038 170.633 64.5337Z" fill="#677072"/>
<path d="M179.07 61.1786C179.618 61.0842 180.173 61.039 180.728 61.0436C181.414 60.9812 182.1 61.1565 182.665 61.5384C182.854 61.6785 183.006 61.8611 183.107 62.0707C183.208 62.2803 183.255 62.5106 183.244 62.7417C183.234 63.0768 183.117 63.4006 182.91 63.6685C182.702 63.9364 182.414 64.1352 182.085 64.2374C182.494 64.3153 182.863 64.5279 183.13 64.8394C183.396 65.151 183.543 65.5422 183.546 65.9468C183.55 66.202 183.498 66.4552 183.394 66.6897C183.29 66.9243 183.136 67.1348 182.943 67.3076C182.246 67.8065 181.381 68.0351 180.52 67.9486C180.047 67.9547 179.574 67.9284 179.105 67.8699L179.07 61.1786ZM179.975 63.9788H180.798C181.76 63.9788 182.328 63.484 182.328 62.8542C182.328 62.2244 181.702 61.7296 180.786 61.7296C180.515 61.7267 180.243 61.7455 179.975 61.7858V63.9788ZM179.975 67.2401C180.229 67.2613 180.485 67.2613 180.74 67.2401C181.679 67.2401 182.549 66.9027 182.549 65.9131C182.549 64.9234 181.725 64.5973 180.728 64.5973H179.975V67.2401Z" fill="#677072"/>
<path d="M192.683 64.4212C192.683 66.7716 191.211 68.0199 189.414 68.0199C188.965 68.0129 188.523 67.9154 188.115 67.7336C187.707 67.5518 187.343 67.2897 187.045 66.9639C186.747 66.6381 186.523 66.2559 186.386 65.8413C186.249 65.4268 186.202 64.9892 186.249 64.5562C186.2 64.1094 186.248 63.6577 186.389 63.2298C186.53 62.8018 186.761 62.4068 187.067 62.0697C187.373 61.7326 187.748 61.4607 188.168 61.2712C188.588 61.0817 189.044 60.9787 189.507 60.9688C189.957 60.9692 190.402 61.0617 190.813 61.2404C191.224 61.4191 191.591 61.68 191.891 62.0058C192.191 62.3317 192.417 62.7153 192.553 63.1315C192.69 63.5477 192.734 63.9872 192.683 64.4212ZM187.223 64.5337C187.223 65.9957 188.034 67.3002 189.472 67.3002C190.91 67.3002 191.721 66.0069 191.721 64.4662C191.721 63.1055 190.991 61.6885 189.472 61.6885C187.953 61.6885 187.188 63.038 187.188 64.5337H187.223Z" fill="#677072"/>
<path d="M196.579 61.8316H194.445V61.0781H199.651V61.8316H197.506V67.9044H196.579V61.8316Z" fill="#677072"/>
<path d="M203.154 61.0781V67.9044H202.262V61.0781H203.154Z" fill="#677072"/>
<path d="M211.466 67.6884C210.877 67.921 210.246 68.0321 209.611 68.0145C209.14 68.0419 208.668 67.9707 208.228 67.8057C207.787 67.6408 207.389 67.386 207.059 67.0586C206.729 66.7311 206.476 66.3388 206.316 65.908C206.156 65.4773 206.093 65.0183 206.132 64.562C206.1 64.0848 206.173 63.6064 206.346 63.1585C206.519 62.7107 206.789 62.3036 207.136 61.9644C207.484 61.6252 207.902 61.3615 208.362 61.1908C208.823 61.0202 209.316 60.9465 209.808 60.9746C210.403 60.9534 210.995 61.069 211.535 61.3119L211.315 62.0317C210.87 61.8404 210.387 61.7445 209.901 61.7506C209.521 61.7285 209.14 61.7873 208.786 61.9229C208.432 62.0586 208.113 62.2676 207.852 62.5355C207.59 62.8034 207.391 63.1236 207.271 63.4737C207.15 63.8238 207.11 64.1953 207.153 64.562C207.111 64.9215 207.151 65.2855 207.271 65.6283C207.39 65.971 207.585 66.2842 207.843 66.5459C208.1 66.8075 208.414 67.0111 208.762 67.1425C209.109 67.2738 209.482 67.3296 209.854 67.306C210.363 67.3121 210.869 67.2164 211.338 67.0249L211.466 67.6884Z" fill="#677072"/>
<path d="M214.724 66.8268C215.213 67.1171 215.774 67.2726 216.348 67.2767C217.275 67.2767 217.82 66.8043 217.82 66.1521C217.82 65.4998 217.437 65.1512 216.498 64.8026C215.339 64.4089 214.632 63.8242 214.632 62.8683C214.645 62.5939 214.717 62.3253 214.844 62.0797C214.971 61.8341 215.149 61.6169 215.367 61.4421C215.586 61.2673 215.839 61.1389 216.112 61.0649C216.385 60.991 216.67 60.9731 216.951 61.0127C217.49 60.9918 218.025 61.1082 218.504 61.3501L218.249 62.0698C217.84 61.8537 217.381 61.7415 216.916 61.7437C215.953 61.7437 215.594 62.2947 215.594 62.767C215.594 63.2394 216.011 63.7117 216.985 64.0828C218.145 64.5214 218.782 65.0837 218.782 66.0846C218.782 67.0855 217.982 68.0526 216.324 68.0526C215.696 68.0629 215.076 67.9116 214.527 67.614L214.724 66.8268Z" fill="#677072"/>
</g>
<defs>
<linearGradient id="paint0_linear_1160_55000" x1="72.6133" y1="46.1056" x2="94.8973" y2="46.1056" gradientUnits="userSpaceOnUse">
<stop stop-color="#ECCE94"/>
<stop offset="1" stop-color="#B68B51"/>
</linearGradient>
<clipPath id="clip0_1160_55000">
<rect width="172" height="38" fill="white" transform="translate(64 31)"/>
</clipPath>
</defs>
</svg>
